<svg width="84" height="124" viewBox="0 0 84 124" fill="none" xmlns="http://www.w3.org/2000/svg">
<path fill-rule="evenodd" clip-rule="evenodd" d="M73.4508 71.992C71.9967 65.064 66.8399 59.6881 59.9044 57.01C58.5712 56.2517 57.2789 52.9979 55.4873 52.402C55.2001 52.3065 55.6534 53.0667 55.4873 53.1121C54.8947 53.274 54.2308 53.2909 53.5766 52.7061C52.4074 51.661 52.0406 48.6077 51.3297 47.2277C47.5804 39.9495 38.2194 42.7972 36.9653 50.8431C36.0908 51.4162 34.8547 51.9212 33.9028 52.3831C32.9227 52.8587 32.0605 54.0107 31.0504 54.4226C30.1492 54.7901 28.6642 54.5298 27.756 54.8501C23.5791 56.3237 20.0413 58.183 17.2677 61.9502C16.6833 62.7448 16.0245 63.7215 15.4927 64.5242C12.7509 67.6985 10.8465 71.2563 9.09247 75.0734C4.18519 86.2774 2.85042 98.6827 1.65288 110.754C1.68011 112.866 0.286472 118.723 2.34771 119.736C2.22452 119.864 2.26914 120.122 2.49771 120.12C7.72418 120.067 12.9385 120.537 18.0839 121.452C20.5664 121.893 23.0357 122.498 25.5644 122.598C30.8137 122.561 36.0442 121.677 41.2866 122.514C47.5888 122.514 55.2479 122.329 62.259 122.058C68.8116 121.805 75.3993 122.377 81.8707 121.256C82.3829 121.175 82.6331 120.546 82.5257 120.096C81.7665 117.314 81.3938 114.45 80.9677 111.602C81.0526 109.776 80.9008 107.869 80.2289 106.168C78.4734 94.6829 76.2224 83.2728 73.4508 71.992Z" fill="white"/>
<path fill-rule="evenodd" clip-rule="evenodd" d="M71.3361 87.0883C71.1979 87.7636 71.0041 88.4389 70.7464 89.0784C70.4981 89.6957 70.1242 90.2488 69.8666 90.8587C69.832 90.9409 69.7754 91.0031 69.7072 91.0505L69.7285 91.2164L69.7481 91.3823C69.8766 92.502 70.0211 93.6186 70.1462 94.7382L70.207 95.2982C70.4531 97.6358 70.8417 99.9619 71.1434 102.293C71.4388 104.576 71.7396 106.859 72.061 109.139C72.3931 111.489 72.7315 113.836 73.1264 116.177C73.2931 117.166 73.4671 118.154 73.6484 119.141L73.7884 119.896C75.2298 120.245 75.6237 122.265 74.1561 123.011C73.49 123.348 72.6341 123.267 72.0851 122.737C71.5146 122.185 71.4909 121.19 71.3585 120.442L71.231 119.747C70.2765 114.521 69.4482 109.235 69.0609 103.936C68.9614 102.567 68.8776 101.198 68.8231 99.8271C68.7713 98.5379 68.7961 97.2488 68.7763 95.9595L68.7697 95.6079C68.7394 94.2331 68.7644 92.8604 68.8001 91.4855C68.8043 91.318 68.8116 91.1505 68.82 90.982C68.7719 90.9251 68.7372 90.8577 68.7226 90.7924L68.7037 90.706C68.6565 90.4837 68.71 90.2235 68.8798 90.0644C68.953 89.1278 69.0494 88.1923 69.0756 87.2568C69.0777 87.1799 69.1877 87.1821 69.194 87.2568C69.2558 88.0533 69.3793 88.8518 69.503 89.6493C70.298 89.0067 70.8857 87.9469 71.2324 87.0598C71.2576 86.9956 71.3509 87.0187 71.3361 87.0883ZM52.5245 49.8558C52.6565 50.4626 52.9173 51.0074 53.2672 51.5141C53.4338 51.7564 53.6234 51.9818 53.8507 52.1704C54.0456 52.3315 54.2677 52.4368 54.475 52.5771C54.7767 52.5295 55.092 52.6445 55.3036 52.8677L55.2702 52.5412C55.2596 52.4359 55.4336 52.4148 55.4535 52.5169C56.3699 57.1651 57.2058 61.8162 57.9293 66.498L58.2464 68.5656L58.5448 70.5066C59.0402 73.741 59.5195 76.9741 59.8804 80.2321C60.3612 84.58 60.7654 88.9393 61.0609 93.3049C61.3573 97.7012 61.5397 102.1 61.6696 106.505C61.7019 107.616 61.7366 108.725 61.77 109.835L61.9938 108.508C62.2171 107.18 62.4361 105.851 62.6238 104.517C63.2973 99.7439 63.8359 94.9367 64.0987 90.1224C64.3397 85.7167 64.2591 81.2235 63.1445 76.9315C62.8637 75.8517 62.5201 74.7887 62.1054 73.7531C61.703 72.7461 61.1542 71.8126 60.7214 70.8203C60.2186 69.6657 60.0678 68.5764 60.3266 67.3333C60.5529 66.2503 60.9499 65.2316 61.021 64.117C61.1542 62.0479 60.4847 60.0441 59.5389 58.2332C59.2895 57.756 59.0265 57.2851 58.7521 56.8183C57.9215 55.4078 56.9849 54.0487 56.0129 52.7456C55.9605 52.6761 56.0714 52.5992 56.1281 52.6561C57.0142 53.5368 57.9832 54.4028 58.7805 55.3646C59.168 55.8323 59.5461 56.3095 59.9044 56.7994C63.8348 57.46 67.2121 59.9219 69.5207 63.1731C72.1406 66.8624 73.4658 71.3028 74.4464 75.6758C75.5368 80.5356 76.4566 85.4396 77.436 90.3235C78.4499 95.3772 79.4587 100.431 80.479 105.483C80.986 107.992 81.4931 110.5 81.999 113.009C82.2556 114.28 82.5249 115.547 82.8066 116.814C82.9513 117.463 83.1063 118.11 83.2404 118.761C83.3912 119.496 83.2508 119.966 82.7565 120.505C82.5741 120.705 82.286 120.702 82.0597 120.596L81.989 120.562L81.9206 120.529C81.6407 120.391 81.4212 120.247 81.247 119.939C81.0552 119.601 81.0248 119.226 80.9589 118.85C80.8373 118.158 80.7169 117.466 80.5954 116.773C80.4138 115.736 80.2164 114.702 80.0155 113.669L79.0074 108.504C78.7385 107.127 78.4693 105.75 78.1985 104.374C77.2317 99.4521 76.2637 94.5312 75.2959 89.6104C74.3666 84.8854 73.5443 80.1279 72.4864 75.4303L72.4263 75.1657L72.3651 74.9014C71.4191 70.8517 70.0974 66.9344 67.6991 63.5028C65.8533 60.8638 63.2901 58.5071 60.271 57.3145C60.4838 57.6222 60.688 57.9362 60.8829 58.2564C62.1064 60.2665 62.9998 62.6526 62.7903 65.0462C62.6878 66.2155 62.2457 67.3649 62.2875 68.5437C62.3263 69.5909 62.9706 70.5106 63.4158 71.4218C64.4266 73.4867 65.1579 75.6811 65.6293 77.9323C66.5752 82.4529 66.572 87.1041 66.2462 91.693C65.8921 96.6814 65.2197 101.669 64.4539 106.608C64.0611 109.142 63.5384 111.655 63.1381 114.184C62.9402 115.431 62.6709 116.676 62.4352 117.917L62.3229 118.51C62.26 118.839 62.1947 119.167 62.1194 119.491L62.0729 119.685V119.72C62.0708 119.959 62.0057 120.157 61.901 120.315C61.7576 120.778 61.5795 121.229 61.3427 121.662C61.2212 121.883 61.0451 122.007 60.8534 122.053C60.6607 122.496 60.2239 122.837 59.7023 122.835L52.8419 122.809C48.8571 122.793 44.8722 122.767 40.8874 122.745C39.8819 122.739 38.8773 122.721 37.8727 122.694C36.931 122.668 36.028 122.554 35.0967 122.436C34.0449 122.303 33.4752 121.554 33.6323 120.498C33.6669 120.265 33.7045 120.033 33.7402 119.801C33.5307 119.871 33.2814 119.838 33.1127 119.673L32.9546 119.517C32.7354 119.299 32.5394 119.085 32.4004 118.794C32.2569 118.495 32.1405 118.179 32.0137 117.873C31.7403 117.216 31.4744 116.557 31.2155 115.894C30.6971 114.569 30.1786 113.238 29.6966 111.899C28.7424 109.247 27.898 106.556 27.1638 103.834C25.8543 98.977 24.9073 94.0266 24.3102 89.032L24.1674 87.8416L24.1259 87.49C23.8995 85.5541 23.7089 83.5882 23.799 81.6565C23.8546 80.447 24.041 79.2282 24.4905 78.0988C24.9052 77.057 25.5452 76.1657 26.1538 75.2345L26.2235 75.127L26.2935 75.0168C26.8258 74.171 27.2493 73.2866 27.2705 72.2594C27.292 71.217 26.99 70.2024 26.6524 69.2265L26.5682 68.9858L26.5118 68.8265C25.7935 66.8096 24.976 64.8211 25.2456 62.6263C25.6438 59.3942 27.5921 56.7889 30.0434 54.7799C27.8634 55.2139 25.7056 56.0714 23.8012 57.1587C21.552 58.4439 19.5271 60.1401 17.7809 62.0542C14.4811 65.6718 12.1252 70.0123 10.1968 74.4939C8.17813 79.184 6.6812 84.0985 5.55311 89.0773C4.41863 94.0845 3.65917 99.1719 3.14053 104.279C2.8819 106.821 2.67857 109.37 2.51002 111.919C2.42412 113.225 2.35918 114.534 2.25861 115.838C2.15805 117.141 2.1129 118.464 1.79654 119.733C1.64884 120.324 0.652636 120.384 0.545892 119.733C0.308995 118.279 0.375201 116.775 0.441317 115.303L0.447319 115.169C0.512371 113.703 0.597221 112.237 0.69768 110.772C0.903101 107.777 1.17745 104.786 1.53571 101.805C2.7917 91.3392 5.10791 80.9286 9.65107 71.3755C11.7901 66.8761 14.5357 62.5041 18.355 59.2551C20.1735 57.7095 22.2235 56.4759 24.4327 55.5827C26.4085 54.7831 28.4156 54.4049 30.5148 54.4059C31.5676 53.5947 32.6979 52.8878 33.827 52.2841C33.8951 52.2473 33.9664 52.3358 33.9099 52.3927C33.8806 52.4211 33.8522 52.4505 33.8229 52.478C33.9507 52.4865 34.0826 52.5465 34.201 52.6719C34.6159 53.109 34.9658 53.6558 35.2789 54.2236C35.7555 54.822 36.2102 55.4403 36.6859 56.0324C37.4473 56.9805 38.2267 57.915 39.0156 58.8421C40.3404 60.4001 41.7084 61.9286 43.135 63.3957L43.3733 63.6396C44.1128 64.393 44.8619 65.2947 45.7365 65.891L45.7832 65.9222C46.1521 66.164 46.4138 66.2079 46.7285 65.8468C47.0145 65.5181 47.2527 65.1367 47.4974 64.7744L47.554 64.6911C48.8037 62.8654 49.9623 60.9723 51.0109 59.0234C51.4889 58.1364 51.9435 57.2366 52.3749 56.3268L52.5036 56.0536C52.7383 55.5521 52.9928 55.0601 53.1865 54.5438C53.2316 54.4228 53.2756 54.3016 53.3185 54.1815C52.6586 53.7464 52.1475 52.8046 51.9621 52.0672C51.7693 51.3013 51.8667 50.5153 52.2102 49.8148C52.2752 49.6831 52.4931 49.7157 52.5245 49.8558ZM19.9683 80.9791C19.877 83.891 19.8216 86.806 19.6853 89.7158L19.6383 90.7091C19.8508 90.9473 19.9755 91.2221 19.876 91.5994C19.8373 91.7437 19.723 91.8744 19.5806 91.9228L19.5361 92.8464C19.334 97.0019 19.097 101.149 18.664 105.294C18.1224 110.481 17.496 115.66 16.8707 120.838C16.7817 121.571 16.2745 122.153 15.4857 122.045C14.6876 121.937 14.3639 121.238 14.4687 120.51C14.8804 117.654 15.2762 114.796 15.6231 111.931L16.018 108.666C16.5132 104.585 17.02 100.505 17.604 96.4369C17.848 94.7367 18.1015 93.0374 18.356 91.338L18.2671 91.2221C17.9035 90.7471 17.5274 90.2825 17.1555 89.8148C16.4412 88.913 15.7362 88.0185 15.0815 87.0745C15.0489 87.0271 15.115 86.9576 15.1621 86.9935C16.0797 87.6751 16.9482 88.404 17.8219 89.1448L18.5866 89.7957C19.0265 86.8596 19.4623 83.9225 19.8508 80.9791C19.8604 80.9054 19.9703 80.9 19.9683 80.9791ZM33.1682 53.1122C32.6161 53.6357 32.0516 54.1478 31.4952 54.6682L31.2914 54.8598L31.0886 55.0522C30.1109 55.9846 29.1741 56.9553 28.3936 58.0699C26.9605 60.1169 26.1068 62.6125 26.7027 65.1115C27.1973 67.1815 28.3318 69.0578 28.6366 71.1796C28.7894 72.2425 28.7152 73.3108 28.317 74.3147C27.9105 75.3388 27.2611 76.2163 26.6776 77.1402C25.4101 79.1482 25.2372 81.3521 25.363 83.6782C25.495 86.1075 25.7725 88.5378 26.1152 90.9452C26.8085 95.8228 27.854 100.65 29.2378 105.377C29.9303 107.744 30.7483 110.061 31.5624 112.387C31.9677 113.545 32.4402 114.675 32.9272 115.8C33.1838 116.392 33.4469 116.981 33.714 117.569C33.6154 116.739 33.6154 115.887 33.5672 115.062C33.4981 113.88 33.4101 112.7 33.3295 111.519C33.1651 109.122 33.0184 106.723 32.8875 104.324C32.4234 95.7701 32.0819 87.2084 32.107 78.6404C32.1196 74.3558 32.2066 70.0713 32.3899 65.7909C32.4759 63.7752 32.6423 61.7614 32.7927 59.7486L32.8246 59.3173C32.9577 57.5105 33.1169 55.6996 33.3902 53.9087C33.3093 53.725 33.2391 53.5391 33.1869 53.3483L33.1682 53.2766L33.1819 53.2787C33.1693 53.2227 33.1651 53.167 33.1682 53.1122ZM37.9429 45.7504C37.9543 45.7009 38.0245 45.7051 38.0371 45.7504C38.3482 46.8039 38.2382 47.9627 37.9702 49.0226C37.8256 49.5967 37.6203 50.154 37.372 50.6913L37.2851 50.8793C37.0724 51.3369 36.8329 51.8083 36.4187 52.0935C36.2459 52.2125 35.9368 52.2199 35.7639 52.0935L35.6758 52.0262C35.6613 52.0148 35.647 52.0032 35.633 51.9913C35.4718 51.8554 35.3921 51.5551 35.4664 51.3571C35.6581 50.8461 36.093 50.4711 36.3935 50.016C36.6597 49.6115 36.8954 49.1848 37.0912 48.7413C37.5133 47.7815 37.7029 46.7628 37.9429 45.7504Z" fill="black"/>
<path fill-rule="evenodd" clip-rule="evenodd" d="M64.8942 20.1804C62.83 7.62526 47.0688 5.36163 36.7983 8.0042C36.609 5.58918 35.0962 3.45523 33.2083 2.05156C25.1888 -3.75201 15.6946 6.10128 17.5953 14.5933C17.9363 17.1658 19.9811 20.1013 22.842 19.6611C19.2459 26.5053 17.8407 40.3063 25.7639 44.5725C26.5283 45.1196 26.6551 46.2307 27.2434 46.9432C28.1985 48.0922 32.2787 49.5558 34.4861 48.3829C35.1797 49.0238 35.9799 49.6475 36.9154 49.8693C41.7486 53.76 48.8118 54.6379 54.697 53.0325C58.323 52.4136 62.0817 50.7687 63.9472 47.408C65.5278 44.8502 64.7995 41.8534 64.0747 39.1462C63.7616 37.657 63.5577 36.1559 63.4322 34.6421C63.6893 34.3403 63.7036 33.9212 63.7677 33.5395C64.0461 32.1867 64.6543 30.9313 64.9585 29.5824C65.6391 26.5203 65.5209 23.2488 64.8942 20.1804Z" fill="white"/>
<path fill-rule="evenodd" clip-rule="evenodd" d="M64.7288 26.5748C64.6096 28.0886 63.9716 29.4508 63.4374 30.8616C63.4958 30.0268 63.4683 29.1581 63.5265 28.2913C62.9053 22.8634 55.5655 21.4374 52.7162 17.3331C52.8241 17.1014 52.863 15.029 52.4381 15.6118C50.79 22.8646 40.9944 26.5032 34.2879 26.5173C33.7807 26.0969 32.7747 26.541 32.9647 27.3789C33.9676 31.8005 34.1872 36.4258 33.5432 40.9187C33.2397 42.5051 33.1885 44.414 32.242 45.781C31.2375 46.7419 32.4452 46.819 33.1098 46.6021C33.2951 46.8641 33.4907 47.1186 33.687 47.372C32.7323 48.0353 31.3393 47.6735 30.3511 47.232C29.252 46.6469 28.6236 45.513 27.8272 44.6042C27.3924 43.724 26.7328 43.2181 25.885 42.7414C21.168 39.5173 21.2899 32.4448 21.967 27.3332C23.9401 12.1223 40.7275 4.78291 54.1999 10.0672C61.4758 11.9383 64.8847 19.5036 64.7288 26.5748ZM20.8471 17.9632C17.9698 15.0815 18.549 10.0437 20.3577 6.72165C23.9819 -0.219479 34.2759 0.00607264 35.5086 8.41945C30.2591 10.228 25.8295 14.106 23.1922 19.0027C22.3335 18.9104 21.5034 18.5258 20.8471 17.9632ZM64.8941 20.1829C62.83 7.62776 47.0689 5.36412 36.7983 8.0068C36.6091 5.59168 35.0963 3.45773 33.2083 2.05395C25.1888 -3.74951 15.6945 6.10378 17.5953 14.5957C17.9363 17.1683 19.9811 20.1038 22.842 19.6636C19.2459 26.5078 17.8407 40.3088 25.7639 44.575C26.5283 45.1222 26.6551 46.2333 27.2434 46.9456C28.1985 48.0947 32.2787 49.5584 34.4861 48.3854C35.0109 49.033 37.9898 51.0024 37.7726 49.0718C37.5535 48.5517 36.8763 48.416 36.4255 48.159C35.4779 47.6329 34.6546 46.8914 34.0078 46.0205C36.0395 40.2592 35.8846 33.8442 34.7465 27.912C41.5481 27.5679 49.5515 24.5697 52.5516 17.9859C54.5796 22.7772 60.8688 23.3938 62.4575 28.7506C62.5533 31.5642 61.9534 34.336 62.3884 37.151C62.5161 39.9082 63.9654 42.647 63.1275 45.3861C60.7866 51.3592 52.36 52.2357 46.7926 51.986C45.4702 51.8762 44.3727 51.1575 43.2856 50.4752C42.634 50.1642 41.8584 50.8147 42.2576 51.5091C43.7819 53.6482 46.9171 53.8352 49.3245 53.7581C55.5723 53.3856 64.6017 51.5292 64.926 43.7705C64.7199 40.6948 63.5199 37.7513 63.4323 34.6446C63.6893 34.3428 63.7036 33.9237 63.7677 33.542C64.046 32.1891 64.6544 30.9338 64.9585 29.5849C65.639 26.5228 65.521 23.2514 64.8941 20.1829Z" fill="black"/>
<path fill-rule="evenodd" clip-rule="evenodd" d="M46.7102 42.3298C46.7213 41.1691 47.7215 40.9689 48.6716 41.1237C50.2801 41.3854 51.8945 41.5695 53.5248 41.6027L53.8058 41.6077C53.851 41.5413 53.9266 41.4909 54.0293 41.4799C54.933 41.3817 55.8562 41.3976 56.7648 41.3706C57.5575 41.3472 58.3721 41.2675 59.1646 41.3301L59.2277 41.3356C60.1964 41.43 61.2186 41.9272 61.1016 43.0704C60.994 44.1291 59.9878 45.0663 59.1842 45.6545C59.0217 45.7724 58.8556 45.8829 58.6846 45.9836C58.631 46.0524 58.5528 46.1004 58.4624 46.1102C57.6711 46.54 56.7979 46.7943 55.8941 46.879C53.978 47.0583 51.7504 46.8643 49.91 46.0292C49.3116 45.7577 48.7535 45.4187 48.2601 45.0023C47.4993 44.36 46.7018 43.3861 46.7102 42.3298ZM54.2601 44.6314C53.4919 44.6081 52.725 44.7162 51.9934 44.9545C51.4976 45.1154 51.0457 45.4248 50.5706 45.6398C52.1717 46.2539 54.0317 46.3878 55.6742 46.276C56.3948 46.2269 57.0934 46.0598 57.7444 45.7724C57.643 45.6988 57.5403 45.6239 57.4328 45.5587C57.1081 45.3609 56.7685 45.1927 56.4143 45.0588C55.7244 44.7985 54.9965 44.6548 54.2601 44.6314ZM54.5175 34.481C54.3103 34.3314 54.4748 33.8359 54.9176 33.9125C58.9398 34.6075 56.8558 41.5753 51.7204 37.7517C51.109 37.2556 51.8494 36.1631 52.5083 36.5879L52.7423 36.7693C53.5031 37.3557 54.7614 38.2423 55.6629 37.2909C56.5139 36.0921 55.3086 34.9646 54.5175 34.481ZM57.2405 29.2075C58.0955 28.4738 59.1679 29.0145 59.7974 29.7576L59.9084 29.8904C60.0343 30.042 60.1737 30.2186 60.2575 30.4074C60.9551 29.8101 61.901 29.3897 62.8062 29.6626C63.684 29.9282 64.1846 30.771 64.0339 31.6758C63.8628 32.7048 63.0887 33.3964 62.2569 33.9312L62.021 34.0818C61.0214 34.7227 60.0861 35.3682 59.2634 36.2491C59.1292 36.3923 58.8392 36.3733 58.7512 36.1827L58.6803 36.0294L58.6087 35.8761C58.0251 34.6246 57.3998 33.3814 56.8864 32.1005C56.5062 31.1512 56.3827 29.9428 57.2405 29.2075ZM47.4939 29.8721L47.6242 29.7206C48.2506 28.9874 49.3118 28.4964 50.1488 29.2075C51.0402 29.965 50.8653 31.2176 50.4682 32.1836C49.9901 33.3488 49.4318 34.4883 48.8953 35.6312L48.7807 35.8761C48.7325 35.9783 48.6853 36.0805 48.6383 36.1827C48.5502 36.3734 48.2591 36.3923 48.126 36.2491C47.3289 35.3957 46.427 34.7643 45.4638 34.1438L45.1731 33.9577C44.3276 33.4183 43.5283 32.722 43.3544 31.6759C43.2057 30.773 43.7033 29.925 44.5821 29.6625C45.4893 29.3919 46.4331 29.8091 47.1318 30.4075C47.2151 30.2139 47.3585 30.0316 47.4939 29.8721ZM48.6401 24.6118C48.9461 25.0112 48.6194 25.6641 48.1726 25.7673C47.6193 25.8953 47.0603 25.8175 46.5171 25.9762C46.0193 26.1217 45.5425 26.4132 45.1158 26.7038C44.6292 27.035 44.1811 27.4048 43.7693 27.8261C43.5244 28.0767 43.2158 28.6704 42.838 28.6815C42.4625 28.6926 42.9666 27.5115 43.0083 27.4093C43.3044 26.6819 43.7204 26.0125 44.2407 25.4261C45.2674 24.2691 47.4418 23.0482 48.6401 24.6118ZM60.1056 24.292L60.3619 24.3636C60.9961 24.5409 61.6731 24.7588 62.2172 25.1411L62.2599 25.1715L62.3258 25.22C63.0088 25.7321 63.9749 26.754 63.4912 27.6455C63.4578 27.7069 63.3869 27.713 63.33 27.6879C62.6864 27.4044 62.2092 26.8383 61.5246 26.6014L61.3984 26.5582C60.7354 26.3336 59.9152 26.0975 59.2015 26.1189C58.6998 26.283 58.0221 26.1471 57.8915 25.5329L57.8856 25.5028L57.8743 25.4391C57.7991 25.0194 57.911 24.4844 58.3424 24.2821C58.9336 24.005 59.5104 24.1283 60.1056 24.292Z" fill="black"/>
</svg>
