<svg width="120" height="184" viewBox="0 0 120 184" fill="none" xmlns="http://www.w3.org/2000/svg">
<path fill-rule="evenodd" clip-rule="evenodd" d="M110.919 118.512C110.418 117.137 111.149 115.766 111.555 114.435C112.995 109.822 114.568 105.209 116.793 100.907C117.636 99.4682 116.25 97.7028 114.643 98.1086C111.892 98.494 109.055 98.1872 106.3 98.0171C105.292 95.4088 102.602 94.3268 100.485 92.8247C98.0832 91.3248 95.7464 89.6021 93.2481 88.2871C93.1092 87.0446 91.6032 86.7367 90.6823 87.6254C88.1529 86.0514 85.1197 86.3438 82.4084 85.3125C80.3481 81.9811 80.1935 78.4781 79.6481 75.2642C79.4103 73.8632 79.6629 72.5115 78.706 71.2624C75.4915 66.7397 62.7903 64.7786 58.1074 67.4588C55.5866 65.8861 55.5259 68.7345 55.1255 70.4924C54.6805 71.372 54.4397 72.368 54.5141 73.4174C51.8064 79.0751 45.6118 81.6329 40.0641 83.7048C39.3681 83.0349 38.3734 83.1196 37.7112 83.6739C32.9026 84.7197 28.2357 86.558 24.2068 89.4283C19.6296 90.7676 16.406 94.4918 14.075 98.4851C13.8181 98.906 13.7576 99.3353 13.8326 99.7295C6.66447 110.241 3.24332 122.825 2.76277 135.535C-1.84683 138.302 4.95374 163.164 6.53685 168.326C6.53844 168.325 6.54004 168.324 6.54163 168.323C7.56868 170.142 8.73482 175.333 11.3051 174.931C13.0683 176.926 15.8781 176.534 18.2708 176.687C17.8811 178.182 18.0726 179.893 18.5364 181.371C19.085 183.13 21.777 183.19 22.1588 181.272C45.9858 185.903 70.4334 182.208 94.5282 182.903C101.495 182.952 108.461 183.168 115.411 183.665C116.389 183.734 117.381 182.734 117.315 181.759C115.821 165.856 114.417 144.936 112.746 129.189C112.35 125.597 112.037 121.967 110.919 118.512Z" fill="white"/>
<path fill-rule="evenodd" clip-rule="evenodd" d="M55.5184 68.4404C55.5868 68.2539 55.8653 68.2786 55.8706 68.4881C55.9803 72.9595 54.8676 78.4237 51.2909 81.444C49.4549 82.9944 47.0275 83.704 44.7984 84.5193L44.5469 84.6121L40.6086 86.0798C39.564 86.4691 38.4372 87.0679 37.5145 86.518C38.2611 88.3701 38.8879 90.2733 39.7972 92.0583C40.9291 94.2804 42.2976 96.3135 43.9725 98.1626C50.608 105.488 61.1095 107.723 70.5335 105.576C75.3862 104.471 80.1083 102.376 83.419 98.5555C85.9352 95.6514 87.3808 91.7536 87.7215 87.9089C87.6219 87.9248 87.5175 87.9242 87.4103 87.9006C86.2179 87.6404 85.0142 87.001 83.9649 86.374L83.8639 86.3133C82.8544 85.7054 81.8021 85.0087 81.0777 84.0641C80.598 83.4388 80.1064 82.1061 79.603 80.0662C79.3973 78.9162 79.2044 76.6252 79.2374 75.4628C79.2404 75.3531 79.7269 75.2884 79.7788 75.4024C80.2283 76.3892 80.3736 78.5575 80.7206 79.5846L80.7906 79.7897C81.161 80.8622 81.4787 82.1681 82.2468 83.0352C83.6889 84.6635 85.8648 85.3527 87.8069 86.1692C87.9463 84.329 90.8843 84.3719 90.847 86.2912C90.845 86.3953 90.8404 86.4989 90.8367 86.6026C91.0684 86.7301 91.2912 86.8758 91.4996 87.0164L91.7028 87.1544C92.4721 87.6779 93.2472 88.1754 94.0663 88.6194C95.6521 89.4794 97.331 90.1611 98.9559 90.9416C100.6 91.7314 102.137 92.6723 103.572 93.7984C104.247 94.3272 104.893 94.8904 105.506 95.4889L105.673 95.653C106.256 96.2345 107.016 96.8846 107.348 97.6488C107.421 97.8172 107.789 98.2091 107.988 98.2222C111.075 98.4246 114.156 98.7106 117.224 99.1392C118.018 99.2502 118.332 99.6597 118.038 100.322C117.029 102.598 113.08 111.687 112.029 114.126C112.152 115.918 111.986 118.027 112.097 119.82C112.259 122.435 112.47 125.05 112.724 127.658C113.632 136.989 115.009 146.274 116.253 155.563C116.876 160.212 117.444 164.868 118.004 169.525C118.287 171.879 118.527 174.235 118.712 176.598C118.789 177.583 118.859 178.568 118.92 179.554L118.973 180.429C119.046 181.529 119.215 182.58 118.534 183.525C118.226 183.953 117.521 184.195 117.115 183.708C116.605 183.096 116.415 182.639 116.366 181.835C116.329 181.22 116.32 180.602 116.292 179.986C116.232 178.651 116.155 177.316 116.066 175.983C115.888 173.317 115.685 170.651 115.45 167.99C114.625 158.657 113.057 149.394 112.014 140.084C111.488 135.39 111.115 130.688 110.917 125.969C110.818 123.612 110.782 121.255 110.805 118.896C110.814 118.015 110.856 117.138 110.916 116.263C109.354 119.815 107.711 123.332 105.993 126.802L105.586 127.624C104.498 129.818 103.38 132.019 102.072 134.087L101.847 134.44C101.317 135.28 100.593 136.604 99.6264 136.869C98.9532 137.054 98.1306 136.924 97.4403 136.911C96.7554 136.898 96.0696 136.895 95.3851 136.867C94.6173 136.836 93.8847 136.735 93.1427 136.535C93.0194 136.502 92.9027 136.466 92.7965 136.42C92.0489 137.644 90.7787 138.576 89.48 139.119C88.4397 139.554 87.3495 139.852 86.2574 140.128L85.8719 140.225C84.7012 140.517 83.3618 140.655 82.7016 141.787L82.5482 142.049C82.0573 142.883 81.5863 143.616 80.7738 144.214C79.8993 144.858 78.8631 145.263 77.831 145.578C76.7741 145.901 75.6927 146.148 74.6196 146.413L74.3271 146.485C73.6188 146.663 72.904 146.825 72.1997 147.018C71.8994 147.101 71.5937 147.185 71.2989 147.287C70.9538 147.405 70.703 147.591 70.4307 147.792C70.186 148.647 69.14 149.112 68.2799 149.052C67.8282 149.021 67.423 148.868 67.0543 148.643C66.4108 149.191 65.7022 149.682 65.0463 150.19C64.1277 150.9 63.2055 151.606 62.2782 152.306C60.3662 153.748 58.4398 155.17 56.4932 156.565C53.0381 159.04 49.5083 161.402 45.9181 163.677C44.4212 164.625 42.9142 165.572 41.3925 166.496L41.5549 166.556L41.877 166.678C42.6384 166.962 43.4869 167.422 43.6344 168.311C43.7514 169.015 43.3578 169.501 42.6622 169.587C41.8354 169.689 41.192 169.105 40.6772 168.547C40.45 168.301 40.1957 168.073 39.9781 167.819C39.8893 167.716 39.8211 167.597 39.7611 167.472C38.2593 168.357 36.7415 169.213 35.1997 170.013L34.8137 170.211C30.9902 172.167 27.2687 174.31 23.4128 176.211C22.4069 176.706 21.1805 177.242 19.9022 177.608C20.2414 178.924 20.2362 180.368 20.2448 181.703C20.2529 183.004 18.1862 182.998 18.2299 181.703L18.2509 181.078C18.2885 180.026 18.35 178.935 18.5994 177.912C14.833 178.536 11.0705 177.178 10.3699 176.771C9.59669 176.321 8.89484 175.601 8.31074 174.933C7.06078 173.504 6.19339 171.791 5.42382 170.067C3.77538 166.376 2.60748 162.431 1.75363 158.486C-1.39427 143.938 -0.0402801 128.368 5.07185 114.424C6.34905 110.94 7.85696 107.532 9.58491 104.248L9.79946 103.842C11.5238 100.595 13.4402 97.3595 15.8745 94.5959C18.4101 91.7174 21.5379 89.4787 24.9435 87.741C26.6054 86.893 28.3155 86.1581 30.0634 85.5068C30.3441 85.4021 30.6268 85.3082 30.9101 85.2188C32.7316 84.0571 34.9421 82.9458 37.1535 82.9895C37.3037 82.9922 37.4254 83.0493 37.5163 83.1352C37.6229 83.1538 37.7295 83.1765 37.8362 83.2076C38.0719 83.2759 38.3207 83.5343 38.287 83.7997L38.2755 83.888C38.2693 83.9311 38.2614 83.9728 38.2479 84.0134C38.3269 84.0252 38.4045 84.044 38.4805 84.07C40.5963 83.4723 42.6779 82.5582 44.7426 81.8208L45.2128 81.6547C46.942 81.0485 48.716 80.4543 50.1345 79.2546C51.5457 78.0611 52.6068 76.5151 53.374 74.8439C54.3191 72.7848 54.7423 70.5543 55.5184 68.4404ZM97.878 177.038C98.2969 176.727 98.7923 177.088 98.9491 177.474C99.4637 178.741 99.2094 180.709 98.484 181.828C97.7322 182.988 95.9329 182.53 95.8894 181.125C95.844 179.66 96.6955 177.919 97.878 177.038ZM102.205 142.07C102.243 141.905 102.498 141.906 102.537 142.07C102.885 143.555 102.877 145.156 102.98 146.679L102.991 146.848C103.114 148.528 103.218 150.213 103.291 151.896C103.436 155.208 103.608 158.519 103.802 161.828C103.898 163.469 104.001 165.109 104.111 166.75C104.455 166.558 104.809 166.39 105.176 166.241C105.726 166.019 106.261 165.993 106.852 165.999C107.572 166.007 108.114 166.64 108.019 167.345C107.915 168.113 107.239 168.442 106.537 168.333C105.759 168.211 104.978 168.022 104.193 167.944C104.281 169.212 104.371 170.48 104.467 171.747C104.594 173.425 104.759 175.1 104.876 176.779C104.887 176.939 104.899 177.099 104.911 177.26C105.379 177.016 105.876 176.892 106.44 176.738L106.586 176.697C107.404 176.462 108.279 176.137 109.036 176.687C109.545 177.057 109.647 177.666 109.225 178.154C108.586 178.894 107.64 178.751 106.757 178.713L106.282 178.696C105.835 178.678 105.422 178.649 105.008 178.536C105.084 179.63 105.124 180.727 104.99 181.805C104.917 182.387 104.151 182.54 103.948 181.945C103.419 180.393 103.309 178.719 103.115 177.093C102.934 175.574 102.824 174.045 102.706 172.519L102.67 172.062C102.403 168.706 102.19 165.348 102.034 161.986C101.878 158.623 101.784 155.262 101.747 151.896C101.73 150.368 101.755 148.834 101.815 147.306L101.834 146.848C101.903 145.277 101.855 143.609 102.205 142.07ZM32.1914 177.286C32.2118 177.071 32.3837 176.805 32.6394 176.838C32.8751 176.868 33.1179 176.854 33.351 176.893C33.6587 176.944 33.9063 177.126 34.1924 177.24C34.6575 177.426 35.1645 177.522 35.6417 177.674C36.537 177.96 37.0249 178.903 36.6541 179.783C36.2642 180.709 35.2845 180.919 34.438 180.531C33.7707 180.225 33.2733 179.735 32.8247 179.169L32.6976 179.008C32.5042 178.764 32.2848 178.493 32.2037 178.198C32.1248 177.911 32.1637 177.578 32.1914 177.286ZM75.6883 172.935C76.8034 172.778 77.7559 173.159 78.7878 173.518L78.8716 173.548C79.9217 173.91 81.454 174.161 81.9922 175.237C82.317 175.885 82.0647 176.746 81.3006 176.938C80.0903 177.241 79.0052 176.357 78.0045 175.761L77.9519 175.73C76.9861 175.164 75.9891 174.688 75.3724 173.712C75.2078 173.451 75.3505 172.982 75.6883 172.935ZM36.7607 84.2175C36.314 84.3176 35.8672 84.406 35.4209 84.4911C33.7232 85.4014 32.0754 86.346 30.3226 87.157C28.4629 88.0176 26.6101 88.9063 24.8436 89.9473C21.2747 92.0505 18.3327 94.7851 15.9016 98.137C11.7023 103.927 8.57857 110.604 6.343 117.379C5.76861 119.12 5.25461 120.88 4.79988 122.655C5.60386 121.911 6.55571 121.454 7.62306 121.062C8.0754 120.896 8.63848 121.177 8.86776 121.569C8.97084 121.745 9.029 121.919 9.01832 122.125C8.99458 122.581 8.69823 123.098 8.20908 123.189C7.06875 123.399 5.95997 123.808 4.86042 124.168C4.69376 124.223 4.55052 124.202 4.43612 124.138C3.34455 128.763 2.66165 133.484 2.41979 138.233C2.21521 142.254 2.3414 146.306 2.78657 150.321C3.12865 150.167 3.46325 150.023 3.83831 149.935C4.32475 149.822 4.80322 149.684 5.27771 149.529C6.647 149.079 7.27158 151.341 5.87202 151.685C5.35116 151.814 4.82712 151.92 4.29639 151.998C3.83385 152.066 3.42469 152.036 2.9886 151.965C3.32176 154.47 3.77681 156.957 4.35646 159.408L4.48436 159.944C5.23731 163.075 6.11486 166.235 7.38391 169.194C8.00641 170.645 8.83063 172.024 9.84828 173.234C10.3483 173.829 10.9032 174.339 11.5083 174.822C12.0122 175.225 13.7247 176.098 15.7529 176.098C17.7811 176.098 18.3302 175.906 19.3535 175.553C21.3772 174.856 23.2985 173.744 25.1964 172.753L25.3926 172.651C26.2318 172.217 27.0678 171.776 27.9016 171.332C27.7963 170.481 27.9806 169.767 28.4236 168.981C28.9023 168.132 30.0887 168.555 30.1769 169.424L30.1797 169.457C30.1931 169.653 30.2259 169.853 30.2667 170.052C35.8419 166.997 41.2989 163.728 46.6692 160.321C50.1284 158.127 53.5509 155.867 56.9233 153.541C58.6091 152.378 60.2804 151.194 61.935 149.987C62.8018 149.355 63.6645 148.718 64.5233 148.075C64.881 147.807 65.2319 147.526 65.5904 147.257C65.5032 147.148 65.4183 147.039 65.3361 146.931C63.9974 145.178 63.1289 143.088 62.6961 140.932C62.4348 139.631 62.3086 138.28 62.2702 136.954L62.2534 136.377C62.2269 135.405 62.22 134.388 62.399 133.447C62.1554 133.581 61.9065 133.712 61.6584 133.853C60.7682 134.357 59.8772 134.86 58.9848 135.361C57.1978 136.364 55.4055 137.355 53.5904 138.307C50.3483 140.006 47.0744 141.622 43.712 143.071L42.076 143.776C39.2365 144.998 36.3738 146.198 33.4216 147.106C31.7565 147.618 30.0787 148.056 28.3896 148.447L29.0727 149.247C29.5359 149.79 29.544 150.568 28.9521 151.025C28.3702 151.475 27.5895 151.288 27.2018 150.691L26.4952 149.604C26.3441 149.371 26.2584 149.154 26.2098 148.924C25.4318 149.087 24.6517 149.244 23.8695 149.395L22.3908 149.677C20.2793 150.085 18.2321 150.892 16.3447 151.925C15.6886 152.284 15.5058 151.587 16.201 151.1C18.2336 149.679 20.6047 148.875 23.051 148.199L23.1712 148.166C24.0687 147.92 24.9646 147.664 25.8587 147.399C25.7603 147.043 25.7036 146.674 25.7149 146.267C25.7401 145.36 25.8203 144.45 25.8684 143.544C25.9694 141.642 26.0983 139.746 26.2493 137.848C26.3073 137.116 26.3723 136.383 26.4467 135.65C25.9673 135.393 25.5539 135.052 25.0194 134.884L24.9291 134.858C24.3574 134.703 24.5504 133.967 25.0582 133.903C25.5182 133.847 25.9759 133.873 26.4294 133.97C26.4996 133.985 26.5661 134.002 26.6295 134.022C26.7128 133.343 26.8052 132.666 26.9102 131.993C27.188 130.214 27.3844 128.341 27.9625 126.632C28.0053 126.505 28.1932 126.46 28.2628 126.593C29.1037 128.193 29.133 130.156 29.2278 131.938L29.2395 132.151C29.3512 134.095 29.3576 136.059 29.3216 138.006C29.2846 140.012 29.2159 142.013 29.1259 144.018C29.0897 144.825 29.0912 145.663 28.9537 146.435C33.9579 144.807 38.8738 142.859 43.5857 140.553C46.9095 138.926 50.2046 137.234 53.4621 135.478C55.0943 134.599 56.7341 133.733 58.3646 132.85C58.9358 132.541 59.5066 132.23 60.0772 131.919L60.933 131.453C61.7338 131.016 62.4022 130.581 63.3349 130.55C63.6129 130.541 63.8623 130.671 64.0393 130.868C64.5406 130.513 65.1199 130.294 65.7279 130.299C66.6431 129.035 67.5723 127.78 68.5385 126.553L69.2523 125.645C70.4877 124.078 71.7964 122.487 73.3718 121.294C74.0749 120.761 74.8483 120.362 75.6548 120.032C75.4651 119.986 75.2793 119.893 75.1138 119.739C74.3434 119.024 74.2373 117.697 74.0808 116.7C73.9185 115.666 73.9812 114.74 74.1415 113.71C74.2038 113.309 74.8669 113.226 75.0288 113.594C75.3699 114.369 75.7312 115.113 76.0416 115.897L76.1332 116.134C76.4663 117.017 77.176 117.946 77.1291 118.904C77.1164 119.166 77.0284 119.395 76.8927 119.579C77.5697 119.354 78.2564 119.154 78.9326 118.944C81.0608 118.287 83.1971 117.647 85.3662 117.137C85.9436 117.001 86.5239 116.875 87.1066 116.759C87.4119 115.31 87.8567 113.886 88.3813 112.489C87.8846 112.235 87.5631 111.808 87.1354 111.428C86.7352 111.073 86.4602 110.64 86.1187 110.232C85.8079 109.861 85.9825 109.19 86.5411 109.212L86.6994 109.218C87.2781 109.245 87.8386 109.305 88.3634 109.575L88.5503 109.672C88.8068 109.805 89.0874 109.958 89.3374 110.138C89.6641 109.386 90.004 108.641 90.3474 107.903L90.7931 106.95C91.9486 104.468 93.1009 101.891 94.5517 99.5798C95.1966 98.5524 96.0549 97.9108 97.2869 97.8115C98.5555 97.7093 99.8744 97.8413 101.145 97.8867C102.617 97.9395 104.09 98.002 105.561 98.0793C105.184 97.6841 104.84 97.2442 104.461 96.865C103.832 96.2362 103.168 95.6401 102.47 95.0891C101.088 93.9986 99.5685 93.1001 97.9903 92.3264C96.4119 91.5526 94.787 90.8779 93.3052 89.9218C92.3675 89.3169 91.5295 88.5557 90.7648 87.7319C90.2835 92.9266 87.7761 97.7527 84.0092 101.379C80.0967 105.144 74.6899 107.213 69.4008 108.093C64.0058 108.991 58.3752 108.661 53.2143 106.785C50.5534 105.818 48.0012 104.436 45.7252 102.703C45.7001 102.854 45.67 103.003 45.6109 103.143C45.5316 103.331 45.4346 103.491 45.3233 103.657L45.1249 103.947C44.9997 104.129 44.8722 104.31 44.7301 104.48C44.3861 104.889 43.8987 105.069 43.3738 105.067C42.3685 105.064 41.6072 104.078 41.8778 103.102C42.0478 102.49 42.4116 102.121 42.9794 101.881C43.1589 101.805 43.3418 101.741 43.5258 101.679L43.6639 101.632C43.8498 101.568 44.0343 101.508 44.2257 101.472C43.148 100.521 42.148 99.4861 41.2526 98.3694C38.444 94.8673 35.6739 89.9626 36.6129 85.3117C36.6291 85.2318 36.701 85.1816 36.7784 85.1689C36.8329 84.8425 37.0066 84.5267 37.2444 84.3144C37.0843 84.2723 36.9229 84.2398 36.7607 84.2175ZM65.9245 164.631C66.4807 164.321 67.0552 165.056 66.6032 165.511L65.9283 166.186C65.302 166.816 64.6924 167.452 64.1562 168.17L64.0264 168.345C63.3027 169.33 62.5309 170.471 61.3451 170.839C59.9108 171.285 58.5325 169.537 59.3631 168.26C60.0887 167.144 61.4858 166.723 62.6904 166.262C63.8299 165.826 64.8592 165.223 65.9245 164.631ZM19.6546 159.482C19.9814 159.054 20.8335 159.279 20.6103 159.885C19.8852 161.851 19.5896 164.533 17.7582 165.84C17.1674 166.261 16.2393 166.067 15.7529 165.581C15.2002 165.028 15.178 164.249 15.4942 163.575C15.8797 162.752 16.8279 162.155 17.4926 161.528L17.5522 161.471C18.2673 160.776 19.0407 160.286 19.6546 159.482ZM96.1952 161.745C96.7784 161.494 98.2987 161.005 98.7492 161.583C98.7702 161.605 98.7882 161.628 98.8028 161.653C98.9132 161.845 98.9296 162.116 98.8028 162.307C98.2778 163.096 97.731 163.685 96.9846 164.247L96.9008 164.309C96.0882 164.907 95.3249 165.609 94.3348 165.878C92.9625 166.252 92.0039 164.533 92.9677 163.529C93.7442 162.721 94.9296 162.301 95.9584 161.85L96.1952 161.745ZM41.0851 150.508C40.8555 150.093 41.3246 149.584 41.7494 149.844C42.9611 150.584 44.3726 151.14 45.7336 151.539C46.2844 151.701 46.7814 152.26 46.7404 152.862L46.734 152.954C46.7178 153.166 46.6884 153.378 46.5532 153.555C46.0792 154.175 45.4011 154.414 44.6769 154.047C43.0631 153.229 41.9584 152.087 41.0851 150.508ZM76.5008 149.251C76.4713 149.077 76.599 148.942 76.7763 148.976C77.8003 149.17 78.7461 149.664 79.6255 150.233C80.0971 150.538 80.552 150.873 81.0225 151.181C81.6037 151.562 81.8213 151.876 81.9072 152.574C81.964 153.035 81.5339 153.455 81.1396 153.583C80.0648 153.929 78.8333 152.792 78.1052 152.052L78.0725 152.019C77.3102 151.242 76.6815 150.323 76.5008 149.251ZM107.257 148.044C107.023 147.413 107.828 146.89 108.354 147.2C108.849 147.492 109.387 147.733 109.854 148.067C110.283 148.375 110.675 148.738 111.087 149.071L111.29 149.233C112.045 149.84 113.292 151.342 112.212 152.213C111.184 153.043 109.822 151.984 109.132 151.209L109.084 151.154C108.687 150.696 108.198 150.198 107.91 149.662C107.639 149.158 107.455 148.579 107.257 148.044ZM97.1215 99.2299C95.8343 99.4799 95.3096 101.069 94.7675 102.105C93.4883 104.55 92.3118 107.04 91.1302 109.533C90.7664 110.3 90.4122 111.073 90.0549 111.844C90.033 111.905 90.005 111.964 89.972 112.023C89.2399 113.6 88.4859 115.166 87.6047 116.663C88.4112 116.512 89.2219 116.383 90.0356 116.282C89.9945 115.516 90.5191 114.49 90.7786 113.845L90.8002 113.79C91.1238 112.963 91.463 111.661 92.296 111.232C92.5736 111.089 92.8704 111.268 92.8917 111.574C92.9548 112.484 92.065 113.525 91.63 114.298C91.367 114.765 91.1106 115.234 90.8608 115.709C90.7671 115.887 90.6888 116.061 90.5928 116.218C91.0124 116.172 91.4326 116.132 91.8539 116.102L92.1284 116.083C93.6902 115.98 95.3489 115.951 96.76 116.721C98.0692 117.436 98.7384 118.962 98.0192 120.351C97.1231 122.081 95.15 122.311 93.4148 122.451C91.2476 122.626 89.0754 122.941 86.9235 123.249C84.6977 123.568 82.6017 124.389 80.409 124.811C80.205 124.85 80.078 124.583 80.2651 124.469C81.9947 123.416 84.0975 122.836 86.0312 122.246L86.1876 122.198C87.2365 121.876 88.2616 121.508 89.3466 121.325C90.4 121.147 91.4598 121.004 92.5223 120.894L92.6254 120.885C93.7952 120.787 96.7793 120.82 96.6532 119.087C96.5697 117.941 94.7065 117.743 93.856 117.729C89.9565 117.667 86.029 118.702 82.3232 119.811L81.4959 120.06C79.9784 120.516 78.4587 120.986 76.9698 121.522C75.2825 122.128 73.9532 123.074 72.7243 124.369C71.3617 125.805 70.0419 127.273 68.6283 128.66C67.7372 129.535 66.8346 130.394 65.9247 131.246C65.7191 131.512 65.5547 131.801 65.4408 132.177C65.2483 132.812 65.2926 133.402 65.3652 134.054C65.5485 135.7 65.5889 137.363 65.8185 139.005C66.0314 140.525 66.329 142.101 66.9602 143.512C67.2101 144.07 67.5353 144.619 67.9057 145.11L68.2046 145.498C68.335 145.667 68.4807 145.852 68.6338 146.026C68.8584 145.752 69.1835 145.573 69.5612 145.618C70.3641 145.713 70.9952 145.69 71.7828 145.505C72.3924 145.363 72.9972 145.195 73.6041 145.041C74.7957 144.737 75.9985 144.46 77.178 144.111L77.3808 144.05C78.2598 143.78 79.1391 143.442 79.8707 142.874C80.7208 142.214 80.9822 141.263 81.6119 140.44C82.9563 138.682 85.8616 138.719 87.8287 138.238C89.5004 137.829 91.1092 137.184 92.2661 135.97L92.3336 135.898C92.2823 135.681 92.3655 135.437 92.5665 135.325L92.6104 135.3C92.6888 135.257 92.7732 135.238 92.8561 135.24C92.9634 135.082 93.067 134.92 93.1612 134.746C93.2386 134.603 93.4322 134.708 93.4069 134.85C93.3917 134.934 93.3707 135.016 93.3508 135.099C94.4714 134.81 95.7022 134.865 96.84 134.866L98.3165 134.861C98.5721 134.858 98.9529 134.845 98.9868 134.829L99.0215 134.814C99.1136 134.774 98.9829 134.84 99.0472 134.755C99.1181 134.661 99.1875 134.565 99.2561 134.469C99.5008 134.127 99.7323 133.774 99.9592 133.418C97.4865 134.048 94.9251 134.44 92.4004 134.767C89.6917 135.118 86.9474 135.361 84.2146 135.364C83.4613 135.365 83.4681 134.227 84.2146 134.198C87.1083 134.088 89.987 133.935 92.8613 133.564C94.3477 133.372 95.8279 133.131 97.2998 132.849C97.868 132.741 98.4349 132.625 99.0005 132.503L99.4243 132.411C99.6902 132.352 100.442 132.267 100.808 132.021C100.88 131.897 100.952 131.774 101.024 131.65C100.988 131.216 99.8846 131.274 99.6259 131.273C98.8922 131.272 98.1583 131.278 97.4244 131.28C95.9568 131.284 94.4894 131.271 93.0216 131.26C90.0893 131.236 87.1458 131.133 84.2159 131.259C83.5046 131.289 83.131 130.148 83.8339 129.848C86.9374 128.522 90.3824 128.234 93.6962 127.827C95.4388 127.612 97.1824 127.365 98.8859 126.932L99.3071 126.824C100.377 126.55 101.559 126.215 102.46 125.561C101.106 125.013 99.4221 125.076 98.0181 124.998L97.9107 124.992C95.9447 124.871 93.9752 124.809 92.0055 124.807C87.9754 124.801 83.944 124.944 79.9184 125.135C79.8174 125.14 79.7965 124.98 79.8946 124.959C84.0323 124.056 88.2375 123.62 92.4719 123.554C94.4439 123.522 96.4169 123.55 98.3873 123.637L99.1103 123.671C100.79 123.743 102.654 123.763 104.06 124.778C104.274 124.932 104.387 125.13 104.405 125.339C106.29 121.58 108.031 117.742 109.779 113.93C111.138 110.966 112.446 107.977 113.855 105.036L114.311 104.085C114.921 102.815 115.547 101.545 116.241 100.322C113.644 99.9746 111.032 99.7335 108.419 99.5489C106.038 99.3805 98.2679 99.0076 97.1215 99.2299ZM95.9714 139.97C96.2676 139.805 96.7214 139.94 96.7944 140.305C96.8487 140.577 96.9414 140.879 96.9414 141.157C96.9414 141.491 96.8222 141.853 96.7587 142.179C96.6126 142.929 96.4327 143.539 96.0514 144.207C95.8129 144.625 95.3312 144.909 94.8472 144.898C94.4638 144.889 94.1241 144.786 93.8611 144.489C93.5459 144.134 93.3295 143.611 93.5024 143.132C93.9552 141.878 94.7876 140.628 95.9714 139.97ZM33.1477 138.719C33.8408 137.504 35.4836 136.419 36.9173 136.526C39.07 136.688 39.5093 139.587 37.4251 140.279C36.1793 140.693 34.4653 140.268 33.3755 139.587C33.0817 139.404 32.974 139.023 33.1477 138.719ZM11.0231 134.57C10.8657 134.341 11.1259 134.079 11.3604 134.131C11.8806 134.245 12.4415 134.295 12.951 134.45C13.4728 134.609 13.9779 134.872 14.4948 135.053C15.5776 135.433 16.7342 135.623 17.7821 136.081C18.201 136.265 18.5305 136.871 18.4918 137.319L18.4819 137.423C18.4587 137.645 18.4202 137.839 18.2961 138.042C17.9626 138.587 17.3019 138.868 16.6783 138.701C15.5214 138.39 14.3909 137.591 13.4045 136.928L13.2222 136.806C12.7912 136.522 12.3278 136.225 11.9805 135.86C11.6181 135.478 11.3201 135.002 11.0231 134.57ZM50.7917 130.153C50.6585 129.673 51.2552 129.356 51.603 129.68C52.2981 130.328 53.0248 130.929 53.7054 131.593L53.7511 131.638C54.2386 132.128 54.9477 133.073 54.3137 133.707C53.5015 134.519 52.3704 133.313 51.9346 132.685C51.3819 131.888 51.0503 131.085 50.7917 130.153ZM103.977 126.186C102.946 127.279 101.358 127.781 99.959 128.197C98.3007 128.69 96.592 128.985 94.8816 129.227C93.2289 129.461 91.5889 129.67 89.9624 129.939C91.1928 129.954 92.423 129.963 93.6505 129.985C95.0661 130.011 96.481 130.041 97.8962 130.083C98.9269 130.113 100.136 129.971 101.116 130.354C101.292 130.423 101.457 130.519 101.601 130.635C102.425 129.171 103.214 127.686 103.977 126.186ZM40.3817 115.97C41.4578 115.628 42.4697 115.174 43.6106 115.292C43.9138 115.323 44.1309 115.619 43.9654 115.91C43.4247 116.862 42.5456 117.399 41.6802 118.036L41.6039 118.092C40.6567 118.797 39.6397 119.439 38.6096 120.018C36.8361 121.013 35.2468 118.164 37.0378 117.328C38.1155 116.825 39.2476 116.331 40.3817 115.97ZM59.7563 113.496C61.4027 113.605 63.0481 113.678 64.6965 113.745C66.6059 113.822 65.964 116.762 64.3689 116.167C62.7931 115.579 61.2172 114.998 59.6272 114.45C59.1432 114.283 59.1822 113.488 59.7256 113.495L59.7563 113.496ZM17.5294 108.267C17.9561 108.237 18.3864 108.33 18.8137 108.372L19.2684 108.416C20.2058 108.509 21.0846 108.624 21.9785 109.006C23.6279 109.71 22.742 112.362 21.0863 112.301C19.8625 112.257 18.816 111.731 17.7825 111.119C16.8791 110.584 16.3253 109.914 15.7152 109.074C15.5132 108.796 15.7947 108.484 16.0699 108.456C16.5546 108.406 17.0445 108.301 17.5294 108.267ZM100.209 102.85C99.9361 104.554 99.2586 106.151 98.2378 107.541C97.7247 108.24 96.824 108.266 96.3156 107.541C95.5963 106.515 96.0398 105.34 96.5817 104.355L96.742 104.066C96.9846 103.634 97.3573 103.003 97.783 102.567L97.7902 102.523C98.0184 100.739 100.49 101.095 100.209 102.85ZM33.6191 91.9161C34.0295 91.5463 34.7854 91.6574 34.9186 92.2592C35.105 93.1021 35.2185 94.0518 35.0964 94.9074C35.0303 95.3711 35.0054 95.8918 34.8232 96.3239C34.6272 96.7886 34.2502 97.1459 33.8951 97.4953C33.186 98.1928 31.6913 97.9622 31.5014 96.8632L31.4773 96.7284C31.3818 96.2083 31.2596 95.6525 31.401 95.1371C31.5078 94.7482 31.7464 94.3516 31.9439 93.9908L31.9855 93.9141C32.3809 93.1774 32.9974 92.4759 33.6191 91.9161ZM91.3114 93.7093L91.4599 93.7109C92.6055 93.7335 94.7 94.0125 94.7111 95.4287C94.7138 95.7625 94.4667 96.1083 94.1354 96.1852C93.4506 96.3439 93.008 95.9392 92.52 95.5302C92.1209 95.1958 91.6556 94.9288 91.1724 94.7366C90.6504 94.5289 90.6845 93.7084 91.3114 93.7093Z" fill="black"/>
<path fill-rule="evenodd" clip-rule="evenodd" d="M93.2899 38.5184C92.6985 33.797 90.8407 28.7841 88.8868 24.3825C84.4934 15.0762 74.4353 13.7949 65.4186 11.8761C56.5209 10.5802 47.0989 9.41011 38.3354 11.9956C33.4087 13.203 31.4845 19.0729 32.262 23.705C32.7057 26.5914 34.0191 29.3233 35.139 31.9984C37.365 37.492 38.7774 43.3735 38.7797 49.3214C38.6269 53.2084 38.0785 57.6449 42.5436 59.2913C46.7925 61.405 47.1515 67.1349 52.4717 70.3859C54.623 74.7451 60.483 75.1288 64.7007 76.14C67.3664 76.6504 70.0623 77.026 72.7655 77.2686C80.5928 78.272 86.8545 76.0031 90.9519 69.0277C93.6938 64.7826 95.7356 59.8809 95.2312 54.736C94.7288 49.3182 93.8919 43.9288 93.2899 38.5184Z" fill="white"/>
<path fill-rule="evenodd" clip-rule="evenodd" d="M65.4862 0.565795C65.9329 0.0592426 66.6212 0.232981 67.039 0.633537C67.311 0.713712 67.5745 0.832938 67.8234 0.990737C68.3858 0.918532 68.9755 0.918532 69.5271 0.938775C69.6609 0.863701 69.8043 0.796915 69.9605 0.739533C71.0758 0.331646 72.0635 0.538857 72.8782 1.08494C73.2706 0.713552 73.7656 0.480519 74.3985 0.515745C74.9633 0.547305 75.3658 0.813173 75.7107 1.16336C76.0547 0.667169 76.6108 0.313156 77.3036 0.263903C78.2718 0.195046 79.2026 0.583487 79.9741 1.18488C80.4236 0.669081 81.0364 0.37261 81.7193 0.369741C82.1686 0.288131 82.6428 0.320329 83.0712 0.449756C83.6932 0.637681 84.2394 0.989781 84.6744 1.44676C85.3625 0.787511 86.2049 0.313156 87.1762 0.382333C88.4333 0.473187 89.4753 1.39783 89.9597 2.5359C90.8105 2.87684 91.596 3.36315 92.2525 4.05651C92.2875 4.09301 92.321 4.13126 92.3561 4.16968C92.7098 4.30022 93.0428 4.48528 93.3359 4.72899C94.2648 5.50221 94.472 6.62115 94.1645 7.71762C94.2075 7.89311 94.2441 8.07163 94.2776 8.24999C95.1475 8.38229 95.9378 8.88453 96.3871 9.70222C97.0021 10.8244 96.881 12.3034 96.215 13.3746C95.9287 13.8355 95.5653 14.2237 95.1571 14.5632C95.6187 15.6121 95.3972 16.8636 94.653 17.7119C94.4716 18.0044 94.2491 18.2683 93.9986 18.5073C94.275 19.5916 93.7833 20.7104 92.8019 21.2898L92.7179 21.5C92.7038 21.5349 92.6895 21.5697 92.6747 21.6041C92.6639 21.6488 92.6505 21.692 92.6373 21.7355C92.6138 22.1202 92.4872 22.4978 92.2358 22.8536C91.721 23.5827 91.083 24.0582 90.7447 24.9093L90.7108 24.9987C90.5653 25.4015 90.0956 25.6857 89.6954 25.5614C91.9176 30.1266 93.0826 35.2063 93.8824 40.1844C94.2813 42.668 94.5891 45.1601 94.8387 47.6618L95.0835 50.153C95.2988 52.3674 95.4905 54.5891 95.4917 56.8108C95.4949 61.8366 94.0577 66.6708 90.9731 70.6702C88.0557 74.4508 83.9274 77.1908 79.2638 78.2699C74.4488 79.3825 68.8006 78.9441 64.4827 76.397C63.2096 75.648 64.325 73.8467 65.6203 74.4494C68.0724 75.5907 70.5644 76.4386 73.2825 76.6283C75.9322 76.8146 78.5883 76.4831 81.1009 75.616C85.2579 74.18 88.795 71.1723 91.0687 67.4265C92.1887 65.5806 92.9997 63.5772 93.4315 61.4603C93.969 58.8219 93.888 56.0948 93.6905 53.4226L93.6769 53.2405C93.2865 48.092 92.7719 42.9117 91.9402 37.8144C91.205 33.3069 90.0746 28.8908 88.607 24.5723C88.0321 24.0661 87.3891 23.6472 86.7009 23.3291C81.6618 23.1185 76.6135 23.18 71.5809 23.5278C67.2888 23.8264 63.0176 24.3315 58.7786 25.0677L58.3245 25.1474C57.3861 25.3146 56.3441 25.4103 55.4598 25.7882C54.7014 26.1134 54.3939 26.7382 54.2027 27.5063C53.7215 29.4493 53.6482 31.5758 53.5669 33.5682C53.4873 35.5158 53.6673 37.4797 53.5112 39.421C53.3789 41.0452 52.9631 42.7076 51.7601 43.8825C51.1307 44.4976 50.3564 44.834 49.6299 45.301C49.1598 45.6024 48.9607 45.913 49.0212 46.4709C49.1519 47.6919 50.1349 49.23 49.0308 50.2756C48.8364 50.4589 48.5002 50.4829 48.309 50.2756C47.8533 49.7801 47.224 49.4022 46.6838 49.0021C46.4576 48.8365 46.6456 48.5145 46.9021 48.6291C47.2399 48.7807 47.584 48.9592 47.9362 49.1154C47.1586 48.4747 46.0529 48.1605 45.1319 47.974C44.6683 47.8816 44.1807 47.8545 43.698 47.8977C43.3411 48.068 42.9762 48.226 42.6113 48.3805C42.1477 48.5751 41.6792 48.7518 41.2076 48.9194C39.5713 50.2533 38.7906 52.4228 39.1315 54.5444C39.3179 55.7157 39.8581 56.9894 40.8762 57.6732C42.0823 58.483 43.698 58.1353 45.0013 58.7364C46.2218 59.2989 46.9642 60.4355 47.5203 61.6119L47.7521 62.1016C48.2682 63.1859 48.7988 64.2415 49.504 65.2283C50.3198 66.3712 51.3188 67.3977 52.4086 68.2793C52.9373 68.7059 53.5008 69.0897 54.0832 69.4392L54.2425 69.5337C54.832 69.8796 55.2542 70.2094 55.2941 70.941C55.3068 71.196 55.1459 71.4287 54.9388 71.561C54.0465 72.1269 53.159 71.4192 52.4165 70.925C51.6151 70.3927 50.8487 69.7935 50.1397 69.14C48.7918 67.8999 47.6255 66.4271 46.7284 64.8283C46.0449 63.6106 45.6561 61.8972 44.5759 60.9536C43.9162 60.378 42.9842 60.3734 42.1604 60.268C41.394 60.1693 40.6691 60.0099 39.9871 59.6322C37.2132 58.0909 36.4293 54.3595 37.0873 51.476C37.1988 50.9897 37.355 50.5163 37.5478 50.0605C36.5153 50.2326 35.3554 49.1648 35.7744 48.0872C35.8063 48.0059 35.8429 47.9295 35.878 47.8513C35.1977 47.4034 34.6607 46.7245 34.4058 45.8365C34.2751 45.3775 34.256 44.9137 34.3245 44.4658C33.9947 44.2444 33.7222 43.9398 33.547 43.5652C32.9989 43.3117 32.5129 42.9325 32.2229 42.3906C31.8214 41.6429 31.8724 40.9543 32.1783 40.3343C32.1353 40.2563 32.0939 40.1766 32.054 40.0952C30.9308 39.3829 30.1469 38.1554 30.2361 36.7942C30.2648 36.3431 30.3763 35.9366 30.5484 35.5702C30.534 35.5239 30.5197 35.476 30.5069 35.4297C29.5669 34.9516 28.7894 34.1659 28.5121 33.1171C28.2349 32.0618 28.5615 31.0098 29.2148 30.2C28.2588 29.5005 27.6836 28.5234 28.0325 27.0457C28.1743 26.4449 28.4595 25.898 28.8451 25.4374C28.8435 25.4232 28.8403 25.4088 28.8372 25.3943L28.7477 25.3249C27.5675 24.3933 26.8891 23.206 27.6135 21.7458C27.9385 21.0893 28.4022 20.6317 28.9471 20.3304L28.9742 20.2443C28.5838 19.4075 28.4516 18.4783 28.7208 17.5012C28.9407 16.6964 29.4617 16.0555 30.1277 15.6301C30.0831 15.2697 30.0895 14.8857 30.1612 14.4695C30.2807 13.7668 30.6296 13.1531 31.1395 12.7179C31.1586 12.6253 31.1825 12.5346 31.2096 12.4436C31.3817 11.8875 31.7035 11.2834 32.0764 10.8354C32.3839 10.464 32.728 10.3285 33.1487 10.3141C33.1232 9.9716 33.1407 9.62396 33.2108 9.2717C33.4259 8.1848 34.1174 7.16293 35.1419 6.69909C35.5625 6.50941 36.0055 6.45378 36.4325 6.49985C36.7957 5.73476 37.5048 5.18023 38.3763 5.06069C38.7157 5.01287 39.0312 5.0159 39.3211 5.05909C39.4852 4.98242 39.6557 4.91405 39.8342 4.85172C39.9521 4.81028 40.0716 4.77203 40.1911 4.73393C40.5942 4.23344 41.1248 3.8332 41.7446 3.59267C42.46 3.31374 43.1881 3.34227 43.8334 3.57658L44.0389 3.53354C44.3608 2.97566 44.8738 2.54371 45.6625 2.34765C46.5579 2.1261 47.4773 2.43532 48.1815 2.99814C48.1847 2.99814 48.1879 2.99814 48.1927 2.99638C48.5607 2.17232 49.1901 1.5985 50.2465 1.63835C50.9045 1.66386 51.4988 1.99077 51.9577 2.4562C52.2126 2.42416 52.4675 2.39547 52.7241 2.36694C52.9949 2.04959 53.2961 1.75328 53.6291 1.48709C54.174 1.05019 54.883 1.08542 55.2845 1.70052C55.3721 1.83441 55.4534 1.96989 55.5347 2.10538L55.9027 2.07987C56.3361 1.4949 56.9272 1.0996 57.7366 1.06788C58.4791 1.03744 59.0081 1.40102 59.4112 1.90932C59.7394 1.90135 60.0692 1.89514 60.399 1.89019C60.783 1.44549 61.2355 1.05338 61.7518 0.728216C62.1469 0.479563 62.73 0.564201 63.0503 0.895739C63.2667 1.12112 63.4681 1.35639 63.6553 1.59994C64.1379 1.05864 64.7897 0.702076 65.4862 0.565795ZM42.0361 51.1811C42.7802 50.7571 43.7808 51.2162 44.501 51.5764C45.3789 52.0147 46.2504 52.6762 46.7874 53.505C47.5187 54.6335 45.7995 55.5453 45.03 54.5331C44.5568 53.9099 44.1791 53.2819 43.6055 52.7368C43.0813 52.2363 42.3213 51.9015 42.0202 51.2417C42.0091 51.2193 42.0122 51.1938 42.0361 51.1811ZM42.5588 23.7892L42.5728 23.7494C42.7844 23.1703 41.8609 22.9207 41.651 23.495C41.333 24.3655 41.6996 25.3118 42.5591 25.6876C42.7973 25.7919 43.0694 25.7557 43.213 25.5161C43.3336 25.3145 43.2776 24.9651 43.0415 24.862C42.558 24.6504 42.396 24.2771 42.5588 23.7892ZM34.6032 22.17C35.0654 21.7619 34.3871 21.0875 33.9271 21.4938C33.4979 21.8729 33.1796 22.3877 33.2623 22.9798C33.3465 23.5833 33.8014 24.0094 34.2993 24.3105C34.827 24.6297 35.3081 23.8031 34.7818 23.4846L34.7227 23.4485C34.5018 23.3112 34.2432 23.1225 34.2058 22.8525C34.1661 22.5656 34.4088 22.3416 34.6032 22.17ZM37.227 14.9699L37.2597 14.9458C37.7562 14.5913 37.2793 13.7615 36.7771 14.12C36.3166 14.4488 35.9473 14.876 35.9084 15.4651C35.8707 16.0376 36.1619 16.534 36.5427 16.9368C36.9664 17.3848 37.6416 16.7077 37.2188 16.2606C36.8067 15.8249 36.7262 15.3494 37.227 14.9699Z" fill="black"/>
<path fill-rule="evenodd" clip-rule="evenodd" d="M82.5608 61.9086C82.6714 61.8786 82.7687 62.0271 82.6771 62.1084C82.302 62.4414 82.0638 63.0618 81.7901 63.4846C81.5298 63.8869 81.2788 64.2851 81.0499 64.7062C80.7932 65.1782 80.5453 65.6484 80.3455 66.1478L80.3059 66.2485C80.3658 66.391 80.4125 66.5316 80.447 66.6237L80.457 66.6499C80.7983 67.5218 80.0819 68.4907 79.274 68.7344C77.8919 69.1512 76.7062 68.0159 76.6732 66.6657C76.6472 65.6035 77.3669 64.657 78.0982 63.9549C78.738 63.3407 79.4543 62.8179 80.2556 62.4349C80.6091 62.2661 80.9764 62.1249 81.3602 62.0429C81.7528 61.9592 82.1763 62.0125 82.5608 61.9086ZM79.956 65.7579C80.0574 65.8057 80.1439 65.9226 80.2167 66.059C80.1804 65.9433 80.1053 65.8282 79.956 65.7579ZM80.8208 50.9992C82.0239 51.7308 83.8572 53.4368 82.5629 55.2506C81.0393 56.8498 78.8457 55.0162 77.7648 54.1869C76.7625 53.5442 75.6363 55.1972 76.5663 55.9476C84.3773 61.7329 87.5471 51.1905 81.4293 50.1389C80.7557 50.0231 80.5055 50.7728 80.8208 50.9992ZM70.9306 43.9739L71.1431 43.9561C72.0652 43.8748 72.9988 43.7509 73.9081 43.9596C75.1297 44.2401 75.0402 46.018 73.9081 46.3449C72.9104 46.6329 71.8048 46.5083 70.7749 46.5182C70.6129 46.5198 70.4511 46.5239 70.2893 46.5266C70.2574 46.9119 70.131 47.244 69.9376 47.5759C69.799 47.814 69.6221 48.0402 69.4482 48.2517C69.0345 48.7544 68.0589 48.7431 67.6415 48.2517C67.3327 47.888 67.0869 47.4696 67.0829 46.9772C67.0819 46.8511 67.0972 46.7172 67.1273 46.5856L66.5652 46.5954C65.1894 46.6164 63.803 46.6071 62.4521 46.3884C61.9715 46.4879 61.5783 45.6205 62.2416 45.3608C64.0448 44.6553 66.0592 44.4476 67.9726 44.2358C68.9558 44.1268 69.9445 44.0517 70.9306 43.9739ZM86.2919 43.2449L86.341 43.24C87.5342 43.1178 88.8495 42.9061 90.0451 43.0279C91.8302 43.2094 91.8272 45.6236 90.0451 45.8042C89.3909 45.8705 88.7016 45.8383 88.0143 45.7748C88.3656 46.5205 87.9488 47.411 87.1023 47.5248C86.3156 47.6305 85.5003 46.8658 85.7583 46.0455L85.7704 46.0093C85.8208 45.867 85.866 45.7079 85.9197 45.5509L85.635 45.5269C84.7841 45.4516 83.603 45.2979 83.2898 44.6258C83.1953 44.4232 83.2171 44.2351 83.3626 44.062C83.9591 43.3517 85.4296 43.3283 86.2919 43.2449ZM73.6035 37.7174C74.467 37.4036 75.3646 38.1381 75.4766 38.9658C75.6055 39.9197 74.9178 40.5477 74.0462 40.6616L74.0024 40.6669C72.0784 40.8789 70.1688 41.2665 68.2421 41.4857C67.3671 41.5851 66.4855 41.6505 65.6046 41.674L64.9751 41.6882C64.2037 41.7077 63.3763 41.7253 62.6641 41.4595L62.6668 41.4547C62.4777 41.3999 62.3907 41.127 62.6012 40.9778C63.3594 40.4415 64.3816 40.2387 65.2643 39.9839C66.1517 39.7274 67.0457 39.491 67.9421 39.269C69.8245 38.8032 71.7798 38.3802 73.6035 37.7174ZM81.5679 37.9404C81.7967 36.7337 83.5055 36.6042 84.1331 37.4823C84.5388 37.6216 85.1335 37.767 85.5021 37.8763C86.1442 38.0668 86.7868 38.2562 87.4308 38.4396C88.7644 38.8196 90.0658 39.3013 91.3769 39.7503C91.512 39.7967 91.4749 39.9682 91.3451 39.9853C89.5151 40.2235 87.7158 40.3344 85.8747 40.258L85.4972 40.241C83.8749 40.1778 81.1209 40.2984 81.5679 37.9404Z" fill="black"/>
<path fill-rule="evenodd" clip-rule="evenodd" d="M84.1954 68.8422C82.7116 67.5197 81.0483 64.861 78.9166 66.9647C78.3894 67.5591 78.1759 68.8916 77.3697 69.153C76.299 69.5005 75.2378 68.3672 74.873 67.4969C73.38 62.6614 79.5515 61.3351 83.0673 62.1162C84.7849 62.8219 86.05 65.6623 86.1265 67.1446C86.1759 68.1408 85.333 69.6057 84.1954 68.8422ZM95.39 61.3889C95.3755 61.3247 95.3553 61.2667 95.3309 61.2139C94.6746 60.9657 94.1553 61.2189 93.8345 61.6916C93.845 61.8091 93.88 61.9282 93.9022 62.0447C93.6546 62.5665 93.4312 63.2122 93.0956 63.6632C93.0294 63.6683 92.9607 63.6612 92.8947 63.6421C87.332 64.2233 90.0478 58.4008 84.4057 56.9546C80.0444 56.2348 72.1616 57.0593 70.1042 61.6006C68.4816 68.8543 60.2309 63.7999 57.522 60.0276C54.6315 56.5944 52.7626 52.3991 50.9606 48.3282C50.5798 47.4667 49.3913 48.0828 49.5205 48.9094C47.8549 52.252 47.9103 56.2671 47.4978 59.9291C46.7961 67.2348 46.1124 77.4803 52.8979 81.9413C61.7387 91.938 83.8152 95.4656 94.0121 86.2804C97.5419 78.6885 97.1068 69.4267 95.39 61.3889Z" fill="black"/>
</svg>
