<svg width="72" height="102" viewBox="0 0 72 102" fill="none" xmlns="http://www.w3.org/2000/svg">
<path fill-rule="evenodd" clip-rule="evenodd" d="M68.1167 94.6288C67.8984 92.6005 67.7639 90.5581 67.6867 88.5196C67.6096 86.4835 67.7104 84.4225 67.7547 82.3856C67.845 78.2421 67.9916 74.0888 67.6618 69.9515C67.3502 66.0415 66.6348 62.1588 65.5057 58.4019C64.9559 56.5723 64.3765 54.669 63.4723 52.9785C62.563 51.2787 61.1227 50.1468 59.5406 49.1088C57.8562 48.0036 56.1852 46.8776 54.5074 45.7621C53.099 44.8258 50.5644 43.7361 49.4088 42.4844C48.1928 41.1673 47.9643 37.9025 47.1545 36.3423C46.3659 34.8226 44.1335 33.8313 42.4147 33.8313C39.5696 33.8313 37.414 33.6858 35.0746 36.3186C33.9074 37.6323 34.836 38.9603 33.6126 40.2211C32.4878 41.3803 29.6112 42.5716 28.1615 43.2442C26.4252 44.0498 24.645 44.761 22.839 45.3946C20.9968 46.0409 19.1081 46.5226 17.2555 47.1326C15.4798 47.7173 13.161 50.1272 11.7825 51.4023C10.5008 52.5879 10.1827 52.4551 9.20838 53.8953C7.07 57.056 4.92927 60.2529 3.22641 63.675C2.37821 65.3796 1.55693 67.1727 1.24918 69.0658C0.920918 71.085 1.24639 73.0362 1.77874 74.9912C2.32062 76.9807 4.04139 78.8749 4.602 80.8594C4.86034 81.7739 3.97355 82.7719 4.38144 83.6338C4.58517 84.0642 4.84172 84.4474 5.1338 84.8224C5.35885 85.1114 6.2365 85.0473 6.35006 85.401C6.46479 85.7582 5.82983 86.4995 5.82038 86.8692C5.80698 87.3982 5.78592 87.9273 5.76855 88.4563L5.66597 91.584C5.59857 93.6394 5.53117 95.6948 5.46378 97.7501C5.44173 98.421 5.40961 99.0766 5.57041 99.7132C5.51237 99.6593 5.45721 99.6007 5.40682 99.5349C5.25933 99.3423 4.94655 99.5056 5.07171 99.7309C5.28066 100.107 5.58112 100.372 5.93412 100.562C6.34436 101.167 68.4717 102.518 68.7774 100.749C68.9489 99.7567 68.6367 98.6942 68.5119 97.7082C68.382 96.6811 68.2276 95.6585 68.1167 94.6288Z" fill="white"/>
<path fill-rule="evenodd" clip-rule="evenodd" d="M5.00723 69.0696C5.15922 68.6341 5.85444 68.8225 5.70137 69.2609C4.91455 71.5156 5.47272 73.9691 6.32334 76.1213C6.49404 76.5532 5.79757 76.7387 5.62921 76.3127C4.7344 74.0487 4.18082 71.4374 5.00723 69.0696ZM10.2829 81.9479C12.5019 82.2602 14.7227 82.4529 16.9571 82.6086C17.0569 82.6158 17.1433 82.6006 17.218 82.5681C17.1514 83.5916 17.0974 84.616 17.0551 85.6405C16.4459 85.6234 15.8242 85.6639 15.2204 85.6477C14.4312 85.626 13.6429 85.5864 12.8556 85.5262C11.3312 85.4109 9.80961 85.2273 8.30237 84.9734C7.73907 84.8789 7.02369 84.8213 6.3821 84.634C5.77561 84.4568 5.2357 84.1632 4.95225 83.6105C4.71109 83.1424 4.667 82.5691 4.667 82.0515C4.667 81.6949 4.72819 81.333 4.76509 80.9738C4.81098 80.9415 4.85237 80.9027 4.88566 80.8596C5.55515 81.0711 6.24983 81.2197 6.93011 81.3636C8.03782 81.5995 9.16172 81.7904 10.2829 81.9479ZM9.03142 73.6245C9.04366 74.3125 9.23398 74.9375 9.60426 75.5168C9.85478 75.9088 9.23146 76.2695 8.98265 75.8803C8.54677 75.1982 8.32594 74.4326 8.31155 73.6245C8.30327 73.1601 9.02314 73.1616 9.03142 73.6245ZM65.913 81.1305C66.2135 81.1473 66.5158 81.1576 66.8172 81.1736C67.083 81.401 67.451 81.5176 67.7871 81.4452C67.7987 81.4743 67.8093 81.5069 67.8189 81.5446C67.8783 81.7759 67.908 82.0244 67.9422 82.2602C67.9764 82.4925 68.0025 82.7266 68.0205 82.9607C68.0295 83.0785 68.0862 83.345 68.0142 83.4477C67.9494 83.5403 67.8063 83.5322 67.7073 83.5439C67.441 83.5727 67.171 83.5863 66.9029 83.6088C66.3963 83.6528 65.8896 83.6969 65.3839 83.741C64.8881 83.7843 64.3437 83.7708 63.8587 83.9014C63.7759 82.9282 63.7003 81.9551 63.6301 80.981C64.3815 81.0919 65.1671 81.0891 65.913 81.1305ZM2.91321 79.5165C3.21555 80.1007 3.49451 80.675 4.07311 81.0261C4.14869 81.0711 4.23328 81.0954 4.31966 81.1017C4.25487 81.3798 4.21438 81.6643 4.17839 81.9271C4.0992 82.5061 4.0821 83.1046 4.22698 83.6753C4.36825 84.2307 4.60221 84.7268 5.06113 85.0824C5.2744 85.2481 5.50746 85.374 5.75221 85.4739C5.71082 85.59 5.68652 85.7054 5.69912 85.8323C5.64063 86.1266 5.60194 86.4264 5.55965 86.7135C5.46696 87.3508 5.37428 87.9891 5.30139 88.63C5.15562 89.9047 5.04134 91.1794 4.94505 92.4585C4.84877 93.7341 4.77948 95.0116 4.72189 96.2898C4.6922 96.9434 4.6661 97.5968 4.64181 98.2513C4.61751 98.9238 4.50863 99.6115 4.80558 100.235C5.04494 100.74 5.8539 100.711 6.10225 100.235C6.4172 99.6313 6.32451 98.9138 6.33261 98.2513C6.34071 97.6275 6.35151 97.0028 6.36501 96.3789C6.392 95.1016 6.43159 93.825 6.46309 92.5477C6.49368 91.301 6.53148 90.055 6.55667 88.8082C6.56927 88.1556 6.57017 87.503 6.57377 86.8503C6.57557 86.4884 6.59087 86.1023 6.56387 85.7251C6.78883 85.7782 7.01559 85.8232 7.23965 85.8691C8.95026 86.2202 10.6789 86.4758 12.4183 86.6343C13.292 86.7135 14.1684 86.7693 15.0449 86.8009C15.6892 86.8242 16.3569 86.8692 17.0111 86.845C16.9598 88.4077 16.9364 89.9713 16.9391 91.535C16.9409 92.6629 16.9562 93.7908 16.9841 94.9188C16.9994 95.512 17.0119 96.1052 17.0299 96.6984C17.038 96.965 17.038 97.2341 17.056 97.4996C17.0614 97.5824 17.0731 97.6627 17.0884 97.7419C17.029 97.9102 16.9796 98.0766 16.9391 98.2325C16.7411 98.9885 16.7411 99.7151 16.8293 100.486C16.9049 101.139 17.4547 101.745 18.1808 101.515C18.2987 101.478 18.4166 101.44 18.5336 101.4C19.6026 101.522 20.6779 101.55 21.7622 101.57C23.3468 101.601 24.9324 101.611 26.5179 101.619C29.6278 101.635 32.7385 101.643 35.8493 101.652C42.1005 101.67 48.3517 101.687 54.6029 101.705C56.3378 101.711 58.0727 101.715 59.8076 101.721C60.7056 101.723 61.6019 101.724 62.499 101.759C62.9175 101.775 63.3368 101.797 63.7552 101.804C64.2402 101.812 64.6694 101.672 65.1329 101.545C65.3947 101.472 65.4982 101.209 65.4424 100.987C65.8617 101.087 66.3702 100.875 66.5132 100.402C66.6176 100.059 66.5789 99.6871 66.4232 99.3693V99.3684C66.1227 97.4699 65.7412 95.5804 65.4415 93.681C65.1131 91.6006 64.7972 89.5159 64.5192 87.4274C64.3104 85.8502 64.1385 86.9682 63.9901 85.3839C64.6371 85.4343 65.3686 85.2373 66.0093 85.1535C66.4691 85.0941 66.9326 85.0463 67.3933 84.9833C67.3591 85.4478 67.369 85.9213 67.3564 86.3669C67.3321 87.2518 67.3429 88.1331 67.3654 89.0181C67.4086 90.7257 67.5049 89.7318 67.6587 91.4323C67.8144 93.1454 68.0052 94.8521 68.2364 96.5572C68.3552 97.4349 68.4821 98.3116 68.6162 99.1875C68.6783 99.5962 68.7421 100.004 68.8078 100.413C68.8861 100.894 68.9113 101.351 69.2721 101.713C69.5466 101.987 70.1072 101.964 70.289 101.581C70.5193 101.098 70.415 100.684 70.3295 100.176C70.2602 99.7681 70.1936 99.3603 70.1279 98.9526C69.9875 98.0785 69.8543 97.2035 69.7293 96.3277C69.4881 94.6398 69.2604 92.9491 69.0571 91.2569C68.8519 89.5509 68.6396 90.5474 68.438 88.8416C68.3363 87.981 68.2346 87.1222 68.1158 86.2644C68.0556 85.8232 68.0178 85.3534 67.9386 84.8987C67.9638 84.8952 67.989 84.8906 68.0142 84.8861C68.5613 84.7862 69.0283 84.4774 69.166 83.9139C69.2973 83.3747 69.1408 82.7544 69.0301 82.2252C68.9356 81.7744 68.8502 81.1989 68.5601 80.8126C69.5823 79.51 70.2472 77.871 70.6713 76.2952C71.1333 74.5784 71.3267 72.7864 71.3676 71.0123C71.4151 68.957 71.2603 66.9135 70.9082 64.9039C70.8999 64.478 70.8803 64.0523 70.8487 63.6271C70.5391 59.4539 69.2398 54.5145 65.1203 52.5646C65.1041 52.5566 65.087 52.5493 65.0699 52.5421C64.7468 52.1559 64.3437 51.8084 64.018 51.4835C63.4412 50.9073 62.8383 50.3564 62.1994 49.8487C60.9342 48.8433 59.5466 48.0403 58.1042 47.3173C56.6455 46.5855 55.1653 45.8987 53.74 45.1002C52.4982 44.4034 51.3806 43.5644 50.3196 42.6174C49.1274 41.5525 48.2788 40.1167 47.9459 38.5494C47.9288 38.4676 47.8073 38.4901 47.8055 38.5683C47.7182 41.4409 49.6565 43.9794 51.8872 45.5854C54.5543 47.5038 57.7749 48.412 60.4798 50.2719C61.152 50.7337 61.781 51.2549 62.3793 51.8084C61.4624 51.7148 60.5293 51.7742 59.6699 52.0281C59.3316 52.0074 58.9914 52.0011 58.6522 51.9848C57.8765 51.9461 57.1 51.9102 56.3234 51.8759C54.7406 51.8058 53.1569 51.7419 51.5731 51.6861C48.466 51.5762 45.3579 51.4933 42.2499 51.4385C36.004 51.3277 29.7501 51.3061 23.5052 51.4871C21.8117 51.5357 12.9069 51.1982 12.0826 51.2935C13.2947 50.2439 14.6247 49.387 16.0869 48.682C17.9163 47.8025 19.8069 47.2156 21.7604 46.6791C25.7836 45.5746 29.9616 44.5096 33.1812 41.7037C33.9812 41.0061 34.6921 40.2041 35.2743 39.3156C35.8304 38.4676 36.4486 37.3819 36.4639 36.3476C36.4747 35.6131 35.4524 35.3456 35.0889 35.9749C34.863 36.3647 34.7515 36.7923 34.567 37.2009C34.3834 37.606 34.1657 37.9967 33.9236 38.3704C33.4476 39.1049 32.8573 39.7602 32.2148 40.3516C30.8452 41.6137 29.1859 42.5382 27.469 43.2377C23.5709 44.8247 19.3075 45.4944 15.6136 47.5866C13.9975 48.502 12.4506 49.7651 11.4797 51.3763C11.3231 51.4007 11.1675 51.4294 11.0118 51.4618C11.1279 51.3151 11.2449 51.1685 11.3627 51.0225C11.4401 50.9271 11.3204 50.8012 11.226 50.8857C9.38938 52.5205 7.69767 54.2857 6.16434 56.2104C4.6976 58.0522 3.32984 59.9823 2.3616 62.1391C0.621307 66.0136 0.237974 70.4452 1.13692 74.5879C1.38167 75.7167 1.72721 76.8221 2.16724 77.8907C2.394 78.4425 2.63966 78.9862 2.91321 79.5165Z" fill="black"/>
<path fill-rule="evenodd" clip-rule="evenodd" d="M58.3129 33.4478C57.9562 32.9201 57.0973 29.0907 56.5487 28.5017C56.5901 26.2395 57.2152 18.4071 55.4297 14.8863C55.8053 14.5064 56.8034 11.2337 56.5487 9.99654C57.3899 7.4056 51.986 3.2905 49.9295 2.1785C40.3712 -2.9489 26.5207 2.71088 22.1738 12.2093C19.5616 17.9296 19.5135 24.3341 19.2182 30.4892C19.1833 31.8067 19.0622 33.1345 19.0636 34.4504C19.2525 35.6067 20.1689 36.7843 19.4742 37.7458C18.7067 38.2768 17.1556 39.5705 17.8462 40.3042C18.2509 40.6413 18.8975 40.4457 19.3367 40.7699C19.5603 40.895 19.6998 41.1693 19.9613 41.211C22.35 41.1203 24.0356 41.1125 26.4317 41.0156C27.4807 40.9813 29.0779 41.4251 30.2819 40.5415C34.4876 42.8816 32.7284 39.4866 33.5789 37.0694C36.1686 37.9453 41.3274 40.7387 44.0879 40.8289C46.3311 41.1063 48.4287 39.7994 50.634 40.0969C53.3738 41.1151 56.5846 41.3415 59.0942 39.6188C59.7205 39.1675 60.4172 39.6902 61.2066 39.203C62.7407 38.469 59.0872 34.262 58.3129 33.4478Z" fill="white"/>
<path fill-rule="evenodd" clip-rule="evenodd" d="M55.182 14.5858C55.148 14.3903 55.4171 14.2446 55.5212 14.4426C56.2775 15.8812 56.5805 17.5473 56.8484 19.1363C57.119 20.7421 57.2978 22.3545 57.3077 23.9846C57.3152 25.2385 57.2014 26.5069 56.9877 27.7616L57.0137 27.8509C57.0617 28.015 57.1101 28.1789 57.1591 28.3426L57.2329 28.5882C57.3756 29.0597 57.5108 29.5334 57.6574 30.0038C57.9634 30.9854 58.2856 31.9699 58.6803 32.9199C59.0654 33.8469 59.5338 34.7409 60.0905 35.5764C60.6271 36.3819 61.4786 37.063 61.8567 37.9576C61.9884 38.2694 61.7936 38.6815 61.4297 38.6317C61.406 38.6602 61.3699 38.6809 61.321 38.6852C61.0384 38.7099 60.7736 38.6864 60.4917 38.66C60.3343 38.6452 60.3346 38.43 60.4917 38.4152C60.6114 38.4039 60.7281 38.394 60.8446 38.3873C60.0383 37.9094 59.4632 36.9761 59.0032 36.2121C58.4122 35.2306 57.9658 34.1581 57.6019 33.0735C57.2282 31.96 56.9636 30.8232 56.7509 29.669C56.7266 29.5361 56.7033 29.4031 56.681 29.27C56.4123 30.4126 56.0663 31.5344 55.6563 32.6124L55.5988 32.7625C54.6535 35.214 53.3732 37.6891 51.2437 39.3095C51.1471 39.383 51.0484 39.4528 50.9488 39.521L51.07 39.5905C51.1906 39.6593 51.3093 39.7254 51.4255 39.7796C51.8558 39.9804 52.3229 40.1336 52.785 40.242C53.7393 40.4663 54.7416 40.402 55.7152 40.4332C56.0346 40.4435 56.2163 40.9225 55.8898 41.0781C54.8144 41.5904 53.6529 41.4816 52.5428 41.1212C51.9936 40.9427 51.4781 40.6929 51.0013 40.3667C50.8041 40.232 50.5752 40.0656 50.3819 39.8733C48.2523 41.0654 45.6053 41.1988 43.2349 40.7724C42.0031 40.5508 40.8095 40.1462 39.7593 39.454C38.7491 38.7884 38.0291 37.9456 37.515 36.8538C37.4694 36.757 37.5962 36.6365 37.674 36.7311C39.2888 38.6931 42.0677 39.5117 44.5124 39.6674C45.8168 39.7506 47.1511 39.6815 48.4053 39.2911C49.5949 38.9206 50.6157 38.2415 51.4681 37.3383C53.1957 35.5076 54.2308 33.0171 54.9743 30.647C55.7831 28.0685 56.1682 25.3557 56.2477 22.6573C56.2879 21.2901 56.2372 19.9115 56.0226 18.5595C55.8097 17.2186 55.4146 15.9209 55.182 14.5858ZM30.9716 2.97047C31.086 2.91232 31.1665 3.06364 31.0695 3.13809C29.0559 4.68291 27.2527 6.64174 25.7931 8.71498C23.1014 12.5387 21.3751 16.9636 20.5802 21.5614C20.1109 24.2767 19.9883 27.0331 20.0352 29.7845C20.0538 30.8775 20.1162 31.9671 20.1856 33.0571L20.2639 34.2653C20.3003 34.8283 20.3307 35.3864 20.3072 35.952L20.3008 36.0827C20.2636 36.7409 20.3283 37.4045 20.1632 38.0466C20.0786 38.3759 19.6143 38.4277 19.4462 38.1403C19.4133 38.084 19.3825 38.026 19.3527 37.9674C18.9587 38.6101 18.4485 39.1847 17.8824 39.698C18.153 39.6404 18.4262 39.6036 18.7067 39.6372C19.1513 39.6905 19.5501 39.8623 19.8323 40.1633C20.1124 40.037 20.4004 39.95 20.7317 39.9482C20.9756 39.947 21.1586 40.2355 21.0193 40.4498C20.7417 40.8776 20.3542 41.1174 19.9139 41.3544C19.6019 41.5225 19.2295 41.3788 19.1142 41.0466L19.1076 41.0264C18.978 40.6062 18.2883 40.6741 17.9629 40.7391L17.8672 40.7586C17.2615 40.8847 16.6701 41.0461 16.053 40.8797C15.655 40.7723 15.551 40.1729 15.9347 39.974C17.1468 39.3457 18.1643 38.5016 19.21 37.6542C18.9791 37.0879 18.848 36.4551 18.6969 35.8793C18.484 35.0687 18.4219 34.1966 18.345 33.364C18.199 31.781 18.1433 30.1809 18.1589 28.5917C18.2119 23.224 19.1296 17.8396 21.4736 12.979C22.5005 10.8498 23.8495 8.87953 25.4441 7.13558C27.0293 5.4019 28.8807 4.03288 30.9716 2.97047ZM29.095 29.2574C29.0328 29.1712 29.1542 29.0571 29.2393 29.113C31.0823 30.3241 32.3612 32.163 33.1865 34.1831C34.0034 36.1831 34.5049 38.6328 33.6993 40.7183C33.5711 41.0505 32.9569 41.1738 32.894 40.7183C32.6132 38.6843 32.5695 36.6473 31.952 34.6698C31.3397 32.7094 30.2921 30.9142 29.095 29.2574ZM27.666 35.861C27.6761 35.8251 27.7347 35.8313 27.7322 35.87C27.6861 36.5872 27.6547 37.3133 27.5646 38.0266C27.5208 38.3732 27.4628 38.7177 27.4135 39.0635C27.3629 39.4182 27.3706 39.7763 27.1644 40.0792C26.8912 40.4808 26.1654 40.3678 26.1898 39.8152C26.2066 39.4339 26.3817 39.1893 26.5458 38.8547C26.651 38.6401 26.7427 38.4184 26.8311 38.1956L26.9625 37.8615C27.2236 37.1988 27.4735 36.5474 27.666 35.861ZM24.3658 33.9609C24.377 33.9045 24.468 33.918 24.4653 33.9743C24.416 34.9895 24.3016 35.9934 24.1223 36.9937C24.0406 37.4497 23.9453 37.9032 23.8445 38.3553L23.801 38.549C23.6932 39.0252 23.6236 39.585 23.3821 40.0105C23.1408 40.4356 22.5678 40.1269 22.642 39.6983C22.7288 39.198 23.0357 38.6947 23.2141 38.2141C23.3788 37.7705 23.5228 37.3191 23.6573 36.8655C23.9405 35.9106 24.1727 34.9379 24.3658 33.9609ZM30.5114 36.7794L30.5329 36.7574C30.6168 36.6662 30.7418 36.727 30.7819 36.8232C30.9458 37.2176 30.8638 37.6826 30.8521 38.1013L30.8499 38.1926C30.8412 38.6167 30.8472 39.014 30.655 39.4055C30.4216 39.8809 29.8065 39.5856 29.7589 39.1627C29.7069 38.7012 29.9251 38.2494 30.066 37.8171C30.1556 37.5424 30.2208 37.2566 30.357 37.0073C30.2405 37.0274 30.1243 37.0676 30.0178 37.0967C29.9701 37.1095 29.9521 37.0395 29.9977 37.0233C30.1737 36.961 30.3723 36.9141 30.5114 36.7794ZM55.0464 38.1789C54.9902 38.116 55.0603 38.0322 55.1333 38.0662C56.0097 38.4757 56.8295 38.7421 57.7966 38.8293C58.2156 38.8671 58.2182 39.5257 57.7966 39.4876C56.7873 39.3966 55.7295 38.9439 55.0464 38.1789ZM24.211 24.3435C24.9827 22.6071 27.4238 21.0668 29.0607 22.6816C29.0913 22.7117 29.0601 22.7776 29.0156 22.7591C27.9974 22.337 26.7509 22.8739 26.0463 23.6417C25.4872 24.2508 25.1513 25.0329 25.0846 25.8572C25.0179 26.6822 25.2151 27.5434 25.7628 28.1815C26.0501 28.5163 26.4382 28.8332 26.8947 28.8734C27.3557 28.914 27.74 28.5892 28.1758 28.501C28.5043 28.4346 28.7523 28.6408 28.7845 28.9648C28.8555 29.6798 28.1439 30.1597 27.5271 30.2763C26.8635 30.4016 26.1863 30.2647 25.6145 29.9049C23.7679 28.7431 23.3695 26.2375 24.211 24.3435ZM41.5371 7.32423C41.8727 7.0034 42.4434 7.32234 42.3196 7.78C42.0563 8.75401 41.4967 9.57724 40.8767 10.3586C40.2802 11.1104 39.6411 11.8328 38.9562 12.5051C38.2757 13.1731 37.5364 13.7911 36.7594 14.3432L36.5254 14.5091C35.9747 14.8974 35.3914 15.2901 34.775 15.5698C34.6261 16.8526 34.3349 18.1183 33.8944 19.33C33.4701 20.4969 32.9302 21.6246 32.276 22.6799L32.1821 22.831C31.5809 23.7948 30.8581 24.8719 29.838 25.4002C29.8074 25.4162 29.7767 25.4259 29.7465 25.4316C29.9747 25.5838 30.1675 25.7753 30.2821 26.0504C30.4078 26.3516 30.1452 26.6358 29.8935 26.7352C29.3612 26.9456 28.842 26.5895 28.3636 26.2096C28.3433 26.2552 28.3243 26.3012 28.3079 26.3475C28.2009 26.6509 28.1694 26.9609 27.8935 27.1622C27.7624 27.2579 27.6009 27.1723 27.5184 27.0639C27.2479 26.7083 27.5279 26.2239 27.7657 25.9333C27.7987 25.8932 27.8327 25.855 27.8677 25.8184C27.7672 25.7445 27.6691 25.6789 27.5741 25.6286C27.0153 25.3326 26.1871 25.2802 25.8654 25.9354C25.8408 25.9857 25.7633 25.9597 25.7633 25.9077C25.7641 25.1028 26.5883 24.6657 27.3035 24.6063C27.826 24.5629 28.3314 24.7462 28.8018 24.9597L28.8895 25C29.0646 25.0813 29.2449 25.158 29.4175 25.2438C29.3894 25.1697 29.3899 25.0826 29.434 24.9961C29.9749 23.9394 30.9037 23.0801 31.5736 22.1014C32.2379 21.1304 32.8082 20.0913 33.2634 19.0063C33.7052 17.9532 34.0514 16.867 34.2935 15.7592C34.2137 15.7756 34.1238 15.7046 34.1295 15.6213C34.143 15.4199 34.2415 15.2384 34.4146 15.1611C34.6052 14.119 34.7024 13.0593 34.6968 11.991C34.6963 11.9082 34.8163 11.9112 34.8233 11.991C34.9075 12.9408 34.9143 13.8999 34.8435 14.8534C35.2936 14.4391 35.7683 14.0453 36.2017 13.62C36.8538 12.9802 37.4847 12.3232 38.0932 11.6418C38.7141 10.9467 39.301 10.226 39.8377 9.46345L40.1185 9.06355C40.5503 8.45049 40.9939 7.84384 41.5371 7.32423ZM40.6904 0.480403C44.3938 0.249143 48.349 0.704462 51.6755 2.44355C53.5025 3.39857 54.9146 4.84203 55.9236 6.63837C56.526 7.71104 56.983 8.89885 57.1562 10.1201C57.334 11.3748 57.1252 12.4937 56.3244 13.4911C56.0063 13.8872 55.4705 13.4447 55.5489 13.0395C56.0283 10.56 55.2507 8.11019 53.8715 6.05747C51.8701 3.07873 48.3751 1.75553 44.9721 1.16527C43.3002 0.875409 41.6045 0.754243 39.9083 0.813206C38.6151 0.858216 37.2885 0.978752 36.0613 1.414C36.0096 1.43236 35.989 1.3517 36.0388 1.33271C37.5027 0.773417 39.1368 0.577445 40.6904 0.480403ZM46.1829 6.08708C46.3735 5.96619 46.6068 6.09023 46.6723 6.28639C46.9034 6.97791 46.4191 7.89152 46.0951 8.48997C45.7285 9.16719 45.2571 9.80039 44.7703 10.3951C43.7964 11.5847 42.5164 12.5772 41.1117 13.2011C41.0257 13.2393 40.9254 13.1354 41.0044 13.062C42.0912 12.0495 43.0766 10.9641 43.9297 9.74638C44.3488 9.14802 44.6984 8.5168 45.0322 7.86839C45.331 7.28812 45.6119 6.44914 46.1829 6.08708ZM52.4114 6.90171C52.5332 6.4761 53.2272 6.54857 53.1985 7.0083C53.1242 8.19592 52.5642 9.38805 51.9556 10.3946C51.3289 11.431 50.5354 12.3546 49.6257 13.1522C49.5809 13.1916 49.5195 13.131 49.5601 13.0866C50.345 12.2271 50.9789 11.248 51.4484 10.1826C51.9173 9.11862 52.0943 8.0085 52.4114 6.90171ZM48.9623 6.70942C49.095 6.33935 49.7303 6.36681 49.6914 6.80817C49.5843 8.02146 48.8725 9.29298 48.2133 10.2951C47.5138 11.3583 46.6208 12.295 45.6229 13.0816C45.5856 13.1111 45.5328 13.0623 45.5692 13.0279C46.4655 12.1831 47.1924 11.2072 47.7679 10.1186C48.0616 9.56322 48.308 8.98485 48.5025 8.38739C48.6825 7.83467 48.767 7.25422 48.9623 6.70942Z" fill="black"/>
<path fill-rule="evenodd" clip-rule="evenodd" d="M42.8847 30.912C43.5373 30.7859 44.3493 31.0605 45.0001 31.1808L45.0486 31.1895C45.8379 31.3274 46.6254 31.4941 47.4234 31.5755C48.1852 31.6534 48.9632 31.6673 49.7251 31.5797C50.091 31.5376 50.4537 31.466 50.8092 31.3698C50.9612 31.3287 51.112 31.2828 51.2611 31.2318L51.2779 31.2254C51.3874 31.1801 51.6834 31.0098 51.6799 31.1047C51.7632 31.0087 51.8778 30.9405 52.0037 30.9074C52.1813 30.8607 52.4094 30.9045 52.558 31.0302C52.7514 30.877 53.0415 30.9869 53.1712 31.1703C53.3935 31.485 53.3212 31.8537 53.2924 32.2187L53.29 32.2509C53.2656 32.595 53.2283 32.9367 53.1822 33.2782L53.1619 33.4245C53.0902 33.9296 53.0705 34.7626 52.4587 34.9282C51.9748 35.0592 51.532 34.5612 51.2201 34.1659L51.0493 33.947C50.8471 33.6903 50.6636 33.4261 50.5156 33.1344C50.4482 33.0016 50.3831 32.8656 50.3267 32.7278C50.3196 32.7104 50.3143 32.6948 50.3089 32.6791C49.4116 32.8 48.4931 32.7827 47.5934 32.664C47.0238 32.5889 46.4626 32.4803 45.91 32.3345L45.6606 32.7854C45.3688 33.3112 45.0729 33.8354 44.7618 34.3493L44.7376 34.3884C44.4464 34.8519 43.9588 35.3161 43.3823 34.969C42.8664 34.6582 42.8445 33.9514 42.7901 33.424C42.7538 33.0716 42.7244 32.7169 42.7103 32.3627L42.7052 32.2109C42.6959 31.8674 42.64 31.4692 42.772 31.1479C42.7912 31.1011 42.8584 31.0651 42.8989 31.1143C43.1747 31.4498 43.2581 31.9696 43.3773 32.3813C43.5099 32.8393 43.702 33.3395 43.7709 33.8147L43.7902 33.7812C43.8581 33.6521 43.9274 33.5238 43.997 33.3956L44.2058 33.0111C44.393 32.664 44.5837 32.3191 44.7761 31.9749C44.5564 31.8923 44.3387 31.8036 44.122 31.7135L43.63 31.5077C43.349 31.389 43.0625 31.2549 42.8512 31.0389C42.8138 31.0006 42.8268 30.923 42.8847 30.912ZM52.2177 32.1802C51.7329 32.3773 51.2315 32.5195 50.7211 32.6139C50.754 32.6476 50.7868 32.6814 50.8174 32.7169C50.9376 32.8559 51.065 32.9895 51.1932 33.1216L51.2702 33.2007C51.4665 33.4023 51.7615 33.7342 52.0625 33.9271L52.0787 33.84C52.0814 33.825 52.0835 33.812 52.0846 33.8019L52.1167 33.5155C52.1219 33.4678 52.1269 33.42 52.1317 33.3722C52.1576 33.1139 52.1782 32.8551 52.1998 32.5965C52.2111 32.4602 52.2138 32.3202 52.2177 32.1802ZM46.4812 15.5385C47.6357 15.0452 49.0058 15.2781 50.0003 16.0232C51.0178 16.7858 51.4628 18.0255 51.5216 19.2624C52.3264 18.575 53.4853 19.0953 54.163 19.7394C54.9452 20.4827 55.3407 21.6044 55.1584 22.669C54.9768 23.73 54.2093 24.666 53.171 24.9815C52.6741 25.1325 52.1205 25.1359 51.6207 24.9955C51.451 24.9477 51.243 24.8737 51.0509 24.7706C51.0619 24.8147 51.0731 24.8589 51.0835 24.9029C51.3328 25.9588 51.4742 27.1456 51.1001 28.1897C50.4987 29.8676 48.3627 30.8069 47.0292 29.3176C46.5055 28.7329 46.0985 27.8172 46.1302 27.0201C46.1469 26.6013 46.3841 26.1167 46.8738 26.145C47.2535 26.1669 47.4335 26.4849 47.3363 26.8213L47.3304 26.8407C47.1245 27.4839 47.476 28.4133 47.9852 28.8519C48.7661 29.5246 49.8378 28.9392 50.2647 28.1504C50.7623 27.231 50.7018 26.0523 50.5427 25.0521C50.3865 24.07 50.0381 23.1717 49.6684 22.2629C49.6292 22.2701 49.5894 22.2766 49.5487 22.2821C48.8134 22.3819 47.3172 22.4196 46.5047 21.8867C46.592 22.7092 46.4208 23.5559 45.9537 24.2524C45.4332 25.0285 44.6491 25.4393 43.7365 25.5651C42.8501 25.6876 41.8227 25.7123 40.9476 25.5022C39.0841 25.0548 38.427 22.7533 38.9906 21.0919C39.324 20.1091 40.2542 19.2252 41.2883 19.002C41.821 18.6514 42.5362 18.5477 43.151 18.5955C44.0692 18.667 44.9736 19.0639 45.5885 19.7609C45.8235 20.0272 46.0167 20.3287 46.1656 20.6513C46.2156 20.6119 46.2739 20.5823 46.3398 20.5668C46.4426 20.5427 46.5326 20.5373 46.6332 20.5727C46.6834 20.5905 46.7556 20.6531 46.7991 20.6938L46.8984 20.8105C47.0201 20.9524 47.1359 21.0714 47.3526 21.1597C47.9567 21.4057 48.7761 21.4591 49.418 21.4087C51.0557 21.2806 50.8494 19.1105 50.446 17.9956C49.9682 16.6748 48.5987 15.8532 47.2054 16.0878C46.6067 16.1885 46.0356 16.5073 45.5973 16.9238C45.1082 17.3888 44.8987 17.9506 44.6053 18.5392C44.5879 18.574 44.528 18.5665 44.5205 18.528C44.2793 17.2868 45.4229 15.9907 46.4812 15.5385ZM37.7584 25.5453C37.7087 25.4869 37.774 25.3841 37.8453 25.4326C38.3673 25.7873 38.9478 26.0434 39.5788 26.1126C39.8752 26.145 40.174 26.1472 40.4692 26.1018C40.7207 26.0629 40.9474 25.9862 41.1985 26.0555C41.3321 26.0924 41.3564 26.2475 41.2748 26.3447C40.8955 26.7964 39.9617 26.6757 39.4526 26.5547C38.7942 26.3982 38.1973 26.0611 37.7584 25.5453ZM55.3244 24.7207C55.5807 24.5618 55.8857 24.8764 55.7342 25.1306C55.3451 25.7826 54.2173 25.8357 53.5631 25.6796C53.5119 25.6675 53.5236 25.5871 53.5754 25.5886C53.9514 25.5978 54.2913 25.5256 54.6152 25.3293C54.892 25.1616 55.0572 24.8863 55.3244 24.7207ZM42.8199 19.5086L42.7686 19.5091C42.1704 19.5187 41.6225 19.7469 41.0461 19.8675C40.9983 19.8776 40.9504 19.8725 40.9071 19.8566C40.205 20.3252 39.7211 21.0619 39.6554 22.0313C39.6099 22.7028 39.7737 23.4344 40.1723 23.9854C40.6259 24.6125 41.3566 24.7093 42.0763 24.728L42.1494 24.7297C43.5098 24.7562 45.0064 24.6758 45.4913 23.1543C45.8502 22.0283 45.4669 20.6612 44.4673 19.9867C43.9818 19.6591 43.402 19.5081 42.8199 19.5086ZM53.78 20.3162L53.74 20.2696C53.2065 19.6572 52.3605 19.0994 51.5264 19.4078L51.5288 19.5109C51.5291 19.5281 51.5293 19.5453 51.5293 19.5625C51.5268 20.7452 51.0687 21.8489 49.9427 22.196C50.2448 22.6271 50.4874 23.1054 50.6818 23.6019C50.7504 23.5571 50.8338 23.5286 50.9306 23.5188C51.327 23.4787 51.5541 23.8511 51.8979 23.99C52.2196 24.1201 52.5846 24.1537 52.9243 24.0865C53.6674 23.9395 54.1888 23.2984 54.3714 22.5871C54.5779 21.783 54.3051 20.9399 53.78 20.3162ZM42.4683 21.3115C42.7161 20.8928 43.3274 20.9534 43.5724 21.3226L43.5842 21.341L43.5868 21.3376C43.9949 21.8667 43.7977 22.7024 43.2051 22.9999C42.7297 23.2384 42.1251 23.1758 41.809 22.7116C41.7382 22.6075 41.6928 22.4851 41.6761 22.3612C41.6648 22.2768 41.6713 22.1926 41.6902 22.1087L41.6854 22.1284C41.6948 22.0861 41.7096 22.0198 41.7135 22.004C41.7552 21.8333 41.8554 21.6502 41.9807 21.5266C42.1099 21.3993 42.2892 21.3219 42.4683 21.3115ZM52.6516 20.8766C52.8711 20.8766 53.0658 20.9684 53.2244 21.1139C53.4499 21.3211 53.4813 21.6192 53.4326 21.9022C53.4177 21.9885 53.3971 22.0719 53.3756 22.1569L53.3571 22.2338C53.3539 22.2465 53.3504 22.2592 53.3465 22.2717C53.333 22.3243 53.3115 22.3727 53.2859 22.419C53.1921 22.7685 52.8121 22.9421 52.477 22.8658C52.3194 22.8299 52.1622 22.699 52.0819 22.5618C52.0555 22.5166 52.0369 22.4716 52.0238 22.4264L51.9586 22.2717C51.9463 22.2346 51.9387 22.1948 51.9289 22.1569C51.907 22.072 51.8859 21.9884 51.8707 21.9022C51.819 21.6098 51.8602 21.3327 52.079 21.1139C52.2258 20.9669 52.444 20.8766 52.6516 20.8766ZM47.8174 17.8444C48.1983 17.7933 48.5863 17.9708 48.7832 18.3074C48.9544 18.5999 48.9537 18.9936 48.7832 19.2861L48.7688 19.3109C48.4549 19.8498 47.7227 19.9189 47.2822 19.5025L47.2609 19.4824C46.9776 19.2148 46.9138 18.7709 47.0605 18.4232C47.1946 18.1053 47.4757 17.8904 47.8174 17.8444Z" fill="black"/>
<path fill-rule="evenodd" clip-rule="evenodd" d="M56.7397 25.7487C56.1338 26.5629 55.0106 26.8223 53.9746 26.7327C51.7402 26.5175 51.037 23.9789 50.9638 22.0058C52.4621 22.4274 50.8371 19.4411 55.9589 19.1127C57.7644 18.9622 57.2666 20.0531 58.0643 20.8501C58.048 22.5228 57.7696 24.3404 56.7397 25.7487ZM46.0972 23.8266C44.778 30.0067 37.5542 28.5367 36.7954 22.9657C37.4961 22.471 37.3115 21.2493 38.182 20.8067C39.5617 19.9249 41.2863 19.9626 42.853 19.9833C44.8556 20.1209 45.4263 20.9508 46.455 21.8562C46.4055 22.461 46.2628 23.1777 46.0972 23.8266ZM59.6013 18.0892C59.5272 18.0769 59.4531 18.0653 59.3789 18.0544C59.3211 18.0215 59.2531 17.9962 59.1741 17.981C58.9937 17.9352 58.8145 17.9043 58.6357 17.8876C56.0682 17.3096 50.1286 18.1303 49.8835 20.3221C49.0659 20.5952 48.3585 20.3507 47.4108 20.375C46.6895 17.3589 34.2192 17.7846 33.6195 19.603C33.6172 19.6023 33.615 19.6018 33.6126 19.6011C33.0364 19.4227 32.1868 19.4657 31.5273 19.4374C30.1189 19.4079 28.7089 19.5335 27.331 19.8306C24.7507 20.2408 21.2292 20.7211 23.0237 23.9445C23.0241 23.9451 23.0244 23.9457 23.0248 23.9462L23.0251 23.946C23.3344 24.2631 23.8592 24.0077 23.8788 23.5784C23.2754 22.0513 24.6381 21.8679 25.6866 21.4291C28.2956 20.4915 30.9517 20.3615 33.65 20.6515C33.853 20.8906 34.161 21.0991 34.4866 21.2082C36.2907 21.5078 35.3399 22.8465 36.4803 23.0413C36.2708 27.7081 41.9345 30.2554 45.2161 27.1877C46.5264 25.9061 46.8387 24.0077 47.1425 22.2965C47.3031 22.2604 47.4053 22.1726 47.4649 22.0563C47.8512 21.6704 48.0939 21.3141 48.8578 21.2082C49.6217 21.1023 50.2097 21.3149 50.2893 21.38C50.3093 21.4204 50.3308 21.4609 50.3558 21.5014C50.3908 21.5618 50.4383 21.61 50.4923 21.6478C49.7379 26.295 53.3442 29.234 56.9849 26.8237C58.5668 25.335 58.9011 23.0559 58.9672 21.0217C59.1816 20.8922 59.3174 20.6413 59.2431 20.3259C59.1408 19.8911 59.3807 19.5147 59.7628 19.3256C60.2592 19.0801 60.1714 18.1836 59.6013 18.0892Z" fill="black"/>
</svg>
