<svg width="116" height="109" viewBox="0 0 116 109" fill="none" xmlns="http://www.w3.org/2000/svg">
<path fill-rule="evenodd" clip-rule="evenodd" d="M109.76 68.4719C110.77 67.9445 111.756 67.3716 112.726 66.7752C113.41 66.3662 112.804 65.3359 112.104 65.7082C111.745 65.8986 111.388 66.0909 111.03 66.2802C111.312 66.0372 111.573 65.7727 111.808 65.4844L111.791 65.4683C112.695 64.6585 111.534 63.1305 110.507 63.7957C109.601 64.4528 108.686 65.1233 107.646 65.556C105.492 66.4699 103.115 66.6211 100.803 66.6475C99.9568 66.5839 99.1486 66.7306 98.3275 66.894C98.6494 65.6021 99.455 64.6266 99.8823 63.3754C100.198 62.1121 98.3748 61.2516 97.7288 62.4659C97.5703 62.7641 97.4192 63.0657 97.2714 63.3688C95.8751 64.6393 93.5436 64.5274 92.1354 65.8915C91.3334 66.6037 90.9408 67.5701 90.7858 68.5399C90.6805 69.1985 90.8441 69.8587 90.4461 70.442C88.5217 73.165 85.4809 77.469 83.9367 80.4657C82.8433 73.3448 79.9239 64.5371 76.9079 58.0259C75.9105 55.9435 74.7695 53.9088 73.2717 52.1437C73.4415 51.555 72.8423 50.5101 72.4612 50.8318C71.2883 49.3984 69.2149 49.0273 67.5477 48.3147C65.2971 47.352 63.4299 45.3509 62.512 43.0765C61.3327 38.7455 58.4295 38.1953 54.4031 38.3867C50.5497 38.3819 47.6987 40.0307 46.858 43.9548C45.1499 46.9332 41.1169 46.4406 38.2154 47.2291C36.089 47.715 34.0254 48.4664 32.0642 49.4202C29.8825 47.3499 22.0686 56.0387 21.3583 58.2748C21.7765 58.3559 22.192 58.4535 22.6038 58.5724C22.9706 58.6785 22.8166 59.2327 22.4467 59.144C21.9864 59.0334 21.5231 58.9572 21.0576 58.9044C21.0434 58.9489 21.031 58.9932 21.0217 59.0369C20.9695 59.0334 20.9173 59.0289 20.8651 59.0254C20.9809 59.0857 21.0924 59.1557 21.2011 59.246C21.4637 59.4642 21.1218 59.8852 20.8427 59.7114C20.5798 59.5146 20.2354 59.5457 19.92 59.4796C19.9013 60.1284 17.587 59.4026 17.2276 59.1875C15.6299 58.9876 13.9863 59.2022 12.4948 58.4314C10.5102 58.0133 8.51078 57.5509 6.54851 57.0185C6.02903 57.221 5.5408 57.946 5.95341 58.478C6.18549 58.7201 5.88716 59.1153 5.59493 58.9433C4.61483 58.3662 3.85686 57.4653 3.21424 56.4948C2.91176 56.1895 2.37483 56.2552 1.96844 56.1284C1.91411 56.2261 1.88207 56.335 1.88256 56.4466C0.158692 56.7304 1.38842 58.614 2.25504 59.2009C1.79531 59.5003 1.77786 60.0867 1.81809 60.5764C1.72068 60.7509 1.68814 60.9671 1.77293 61.1625C2.0971 61.9098 2.79818 62.5392 3.33127 63.1446C3.91986 63.8133 4.44466 64.4856 5.16083 65.0277C7.89064 67.1094 11.1849 68.2732 14.5644 68.7283C15.7644 68.9127 17.4904 69.1949 18.2334 70.2099C18.0511 71.4146 17.7164 72.5699 17.4127 73.7447C16.9881 75.304 17.017 76.9364 17.0113 78.5261C16.952 78.4784 16.838 78.4883 16.8211 78.5792C16.7223 79.2382 16.6488 79.912 16.2484 80.4657C15.8975 81.4953 15.6639 82.5936 15.5327 83.6753C15.007 88.8036 14.8815 94.0831 16.0667 99.1316C16.5241 101.004 17.268 102.784 18.2815 104.423C18.5837 104.912 19.0695 105.055 19.5058 104.959C20.9659 105.718 22.8054 105.961 24.3792 105.769C29.7446 104.249 27.8751 107.908 35.398 106.788C48.3832 105.133 61.5061 108.385 74.4637 106.476C74.7828 108.942 78.9606 108.234 80.4117 107.192C84.763 103.956 86.9235 93.7104 89.1072 88.513C90.6083 84.4166 93.1218 77.1609 96.4134 74.4121C97.4004 73.6398 98.5935 73.2333 99.7872 72.9051C104.242 71.7566 108.715 70.6705 113.178 69.5539C113.935 69.3674 113.799 68.0759 112.99 68.1588C111.916 68.2687 110.838 68.3683 109.76 68.4719Z" fill="white"/>
<path fill-rule="evenodd" clip-rule="evenodd" d="M10.5819 67.7037C10.2802 67.6663 9.98442 67.5588 9.69062 67.474C9.24203 67.3428 8.80231 67.1899 8.36949 67.0153C7.47625 66.6574 6.60963 66.2342 5.79724 65.7164C4.48499 64.879 3.32555 63.8059 2.45104 62.5138L2.391 62.4237C1.89175 61.663 0.970827 59.9737 2.00344 59.3961C1.33791 58.8398 0.708899 57.8407 0.744392 57.0694C0.794674 55.9786 2.13158 55.9935 2.8227 56.4559C3.27524 56.7587 3.61439 57.1829 3.95453 57.6002C4.33115 58.0636 4.73341 58.5055 5.15143 58.9306C5.26235 59.043 5.37437 59.1532 5.48834 59.2617L5.60297 59.3695C5.58524 59.3271 5.56946 59.2837 5.55566 59.2392C5.32495 58.5203 5.60003 57.5843 6.31876 57.2549C6.7586 57.0532 7.21538 57.1763 7.6416 57.3475L7.70693 57.3742C8.28073 57.6118 8.86143 57.822 9.4589 57.9907C11.8941 58.6781 14.4358 58.7925 16.9312 59.1358C17.8924 59.2689 18.8714 59.4365 19.8278 59.6831C20.1925 58.1336 21.0868 56.6483 22.0569 55.4263C26.7025 49.5804 34.3641 47.6483 41.373 46.3977C42.0118 46.2843 42.5413 47.1305 42.913 46.9303C43.6179 46.5515 44.2381 46.015 44.7823 45.4321C45.9427 44.1884 46.766 42.7257 47.7331 41.3399C48.2113 40.6554 49.3116 41.2679 48.8679 42.0027L48.6506 42.3618C47.7557 43.8328 46.7647 45.3487 45.4813 46.4894C44.7991 47.095 44.0419 47.5734 43.1762 47.8721C42.5206 48.0981 41.6007 48.2884 40.883 48.0694L40.7969 47.9438C40.8254 47.9858 40.8541 48.0277 40.883 48.0694C42.7562 50.7847 45.1066 53.0828 47.5832 55.2517C50.0831 57.4397 52.7799 59.399 55.4929 61.3147L55.719 61.4742C60.1388 58.2492 63.8725 54.0425 66.4921 49.2363C65.943 49.1702 65.3998 48.8181 64.9305 48.5557C64.3655 48.2382 63.8341 47.8594 63.42 47.3544C62.5179 46.2546 62.6353 44.8373 62.4726 43.5029C62.4627 43.42 62.5722 43.3993 62.6224 43.4407C63.1115 43.8471 63.283 44.5128 63.4871 45.0879C63.7119 45.7201 63.9662 46.2409 64.4819 46.6857C64.962 47.1 65.5476 47.4047 66.1165 47.6759C66.4099 47.8151 67.8662 48.1727 68.0321 48.4689C70.5482 47.8781 72.9992 48.8989 74.8636 50.621C76.6648 52.2849 77.9869 54.4479 79.1543 56.5832C80.3995 58.8616 81.4199 61.2365 82.2993 63.6776C83.1906 66.1553 83.8738 68.6871 84.2495 71.2949C84.5665 73.4935 84.761 75.7266 84.8868 77.9498L84.9022 78.2276C86.7635 75.3052 88.6713 72.4133 90.6185 69.5471C90.1758 68.3646 90.6658 67.1573 91.4949 66.244C92.4138 65.2331 93.6847 64.7636 94.9003 64.2172L95.0601 64.1449C95.646 63.8775 96.23 63.5831 96.7361 63.1825C97.2231 62.7959 97.581 62.2633 98.0937 61.9073C98.839 61.3885 100.192 61.4989 100.226 62.6322C100.244 63.2546 99.9768 63.9371 99.7323 64.4963C99.4552 65.1286 99.0816 65.7016 98.6379 66.2282C98.6174 66.2528 98.595 66.2721 98.5722 66.2875L98.5551 66.2983C99.1683 66.3999 99.7865 66.4817 100.417 66.5103C101.687 66.5685 102.972 66.4748 104.216 66.2065C105.49 65.9324 106.724 65.4866 107.87 64.8652C108.849 64.3345 109.756 63.6481 110.868 63.4863C110.971 63.4706 111.074 63.4607 111.181 63.4548C111.358 63.4449 111.536 63.654 111.466 63.8295C111.427 63.9262 111.387 64.0219 111.342 64.1186C110.958 64.9657 110.368 65.7876 109.633 66.4114L109.576 66.459C109.835 66.3693 110.09 66.2687 110.342 66.1553C111.82 65.4895 113.16 64.4835 114.745 64.0791C114.82 64.0594 114.896 64.0416 114.972 64.0248C115.462 63.9193 115.72 64.4519 115.432 64.8168C115.386 64.876 115.339 64.9342 115.291 64.9924C114.584 65.8702 113.804 66.6849 112.945 67.4167C112.65 67.6672 112.346 67.9099 112.037 68.1417C111.906 68.24 111.775 68.3361 111.642 68.4307L111.577 68.477C111.732 68.3676 111.885 68.2561 112.036 68.1417C113.007 67.8477 113.963 67.4996 114.899 67.114C115.27 66.961 115.559 67.3378 115.599 67.6475C115.731 68.6852 114.579 69.4358 113.83 69.9347C113.079 70.4359 112.251 70.8166 111.405 71.1222C109.776 71.7109 108.066 71.9783 106.358 72.2179L105.529 72.3334C102.246 72.7926 98.8174 73.3416 96.462 75.897C95.1418 77.329 94.2486 79.1083 93.4313 80.859C92.6149 82.6078 91.8982 84.4029 91.2179 86.2078C90.513 88.0758 89.8987 89.9784 89.2461 91.8651C88.6466 93.5976 87.9306 95.308 87.2215 97.0009L87.1096 97.2681C85.6041 100.866 83.8058 104.255 81.2996 107.259C80.8865 107.755 80.219 107.051 80.6006 106.56C83.2221 103.179 85.0461 99.1895 86.5516 95.2097C87.2368 93.3989 87.8106 91.5446 88.4692 89.7239L88.8611 88.6423C89.3843 87.2004 89.9122 85.7604 90.4627 84.3299C91.1597 82.5199 91.9258 80.7318 92.8023 79.0018L92.8952 78.8197C93.7534 77.1507 94.7729 75.5059 96.1761 74.2429C98.7017 71.9686 102.062 71.423 105.312 70.9909L106.334 70.8561C107.708 70.6735 109.086 70.4719 110.422 70.1044C111.193 69.8934 111.946 69.6231 112.654 69.2502C112.936 69.1023 113.211 68.9397 113.477 68.7621C112.718 68.985 111.948 69.1674 111.164 69.3104C110.78 69.3804 110.401 69.4328 110.022 69.4693C109.047 69.5658 108.08 69.5619 107.081 69.5097C106.997 69.5047 106.969 69.3716 107.06 69.3549C107.755 69.2311 108.451 69.0764 109.145 68.9085L109.353 68.8577C109.357 68.7424 109.402 68.62 109.497 68.5037C109.842 68.0835 110.498 67.8684 110.952 67.5716C111.428 67.2609 111.89 66.9256 112.329 66.5665C112.732 66.2382 113.118 65.8909 113.49 65.528L113.601 65.4185C113.564 65.4551 113.527 65.4916 113.49 65.528C112.486 65.9916 111.535 66.5863 110.487 66.9533C109.654 67.2461 108.78 67.4434 107.899 67.5134L107.844 67.5177L107.789 67.5213C106.869 67.5874 105.944 67.5608 105.037 67.76C104.936 67.7827 104.904 67.6466 104.995 67.6081C105.787 67.2787 106.61 67.1514 107.442 66.9976C107.46 66.9325 107.505 66.8743 107.584 66.8368L107.797 66.7351C108.431 66.4305 109.022 66.123 109.549 65.6286C110.014 65.1916 110.402 64.6808 110.693 64.1146C109.528 64.3701 108.506 65.2528 107.447 65.7489C106.294 66.2904 105.073 66.679 103.819 66.9L103.676 66.9245C101.332 67.3156 98.5142 67.2657 96.4147 66.0468C96.3476 66.0073 96.3959 65.9177 96.465 65.9284C97.0604 66.0261 97.65 66.1414 98.2396 66.244C98.1242 66.1385 98.073 65.9491 98.2061 65.7972C98.7356 65.1902 99.1543 64.4963 99.4221 63.737L99.4733 63.5886C99.5966 63.2364 99.8048 62.6895 99.5923 62.3718C99.3892 62.069 98.911 62.1104 98.6251 62.2387C98.0306 62.5069 97.6352 63.1767 97.1344 63.581C96.5882 64.0229 95.9671 64.3503 95.3311 64.6433L95.1969 64.7043C94.0969 65.1992 92.9218 65.6159 92.0569 66.4896C91.5916 66.9591 91.1913 67.5459 91.0572 68.2038C90.9961 68.5056 90.9961 68.8163 91.0769 69.1151C91.141 69.3489 91.2751 69.493 91.1982 69.7306C91.0976 70.0373 90.7417 70.4042 90.5583 70.6775C90.3454 70.9932 90.1334 71.3097 89.9214 71.6263C89.4985 72.2595 89.0775 72.8947 88.6565 73.5288C87.8145 74.7992 86.9814 76.0755 86.1552 77.3557C85.8864 77.7726 85.6184 78.1899 85.3514 78.6076L84.9514 79.2346L84.7401 79.5652L84.3796 80.1321C84.3924 80.1844 84.3914 80.2397 84.3747 80.2879C84.3132 80.463 84.1981 80.5827 84.0551 80.6695L84.0296 80.6845C81.9257 84.0113 79.8552 87.3598 77.7641 90.6945C77.6527 91.7123 77.5482 92.7311 77.4575 93.75C77.2514 96.0559 77.1104 98.3679 77.0651 100.683C77.0434 101.803 77.1331 102.93 77.1814 104.05C77.2051 104.584 77.2374 105.118 77.2797 105.651L77.3108 106.029C77.3525 106.549 77.3761 107.065 77.1893 107.56C77.0237 107.995 76.5189 108.093 76.2202 107.761C72.3228 107.605 68.4226 107.485 64.5223 107.411C57.541 107.277 50.5568 107.298 43.5745 107.433C40.0676 107.501 36.5597 107.597 33.0538 107.715C31.3265 107.772 29.5982 107.853 27.8699 107.877C26.9387 107.889 25.4732 107.55 25.3981 106.502L25.3962 106.47C25.2799 106.502 25.1596 106.528 25.0364 106.546C24.9815 106.555 24.9288 106.552 24.8801 106.541L24.8559 106.534C23.4679 106.958 21.7121 106.354 20.3932 106.002L20.2843 105.973C19.0253 105.645 18.0137 105.175 17.1885 104.132C15.7441 102.304 15.2512 99.8502 14.9948 97.5886C14.7543 95.4602 14.7405 93.2924 15.0333 91.1679C14.8607 89.437 15.0293 87.6508 15.2255 85.9296C15.3221 85.0784 15.4355 84.2282 15.5716 83.382C15.6475 82.9095 15.7471 82.442 15.8486 81.9755C15.8892 81.7891 15.9229 81.5884 15.9743 81.3944L15.9975 81.3117C15.8397 81.3324 15.6672 81.2979 15.5006 81.2063C15.1042 80.9883 14.9889 80.5473 14.982 80.1253C14.9603 78.8529 15.1121 77.5441 15.2462 76.2797C15.3813 75.0172 15.5666 73.7497 15.8092 72.5031L15.8719 72.1816C16.0557 71.2491 16.266 70.2863 16.6364 69.41C15.2453 69.1734 13.8581 68.9219 12.5084 68.4937C11.8498 68.2837 11.201 68.0224 10.5819 67.7037ZM83.1906 80.9448C83.1689 80.9498 83.1482 80.9557 83.1275 80.9616C82.5714 81.1175 82.0095 81.2496 81.4495 81.3917C80.4813 81.6353 79.5348 81.9075 78.6347 82.3306C78.4461 84.7116 78.1666 87.0848 77.9008 89.4592L77.8479 89.9341C78.2561 89.1765 78.6741 88.425 79.1109 87.6824C80.4409 85.4187 81.8014 83.1729 83.1906 80.9448ZM16.3366 81.1806C16.3396 81.4636 16.2805 81.7576 16.2489 82.0297C16.1976 82.4717 16.1562 82.9155 16.104 83.3573C15.9975 84.245 15.9068 85.1336 15.8407 86.0253C15.7983 86.5944 15.7707 87.1655 15.7461 87.7366C16.3051 85.6465 17.0455 83.602 17.7495 81.5543C17.6318 81.5419 17.5115 81.5132 17.3874 81.4802L17.1786 81.4239C17.0554 81.3922 16.6559 81.2939 16.3366 81.1806ZM84.9515 79.2346L84.9554 79.3283C84.9702 79.6607 84.771 79.8481 84.5295 79.8964C84.6695 79.6755 84.8105 79.4546 84.9515 79.2346ZM20.9852 63.4815C21.5738 63.5336 22.1506 63.659 22.7007 63.876L22.7538 63.8967C23.1607 64.0538 23.7557 64.2513 23.8888 64.6857C23.9262 64.809 23.8257 64.9105 23.7103 64.9205C23.2686 64.956 22.7481 64.4825 22.3389 64.3227C21.8834 64.1451 21.4062 64.013 20.9231 63.943C19.8376 63.7842 18.7058 63.9046 17.6844 64.3001C17.6243 64.3238 17.5868 64.228 17.641 64.1994C18.6703 63.6392 19.815 63.3779 20.9852 63.4815ZM8.51245 66.3022C8.44438 66.242 8.37635 66.1789 8.30931 66.1159C7.78072 65.6156 7.31263 65.0318 6.96605 64.3903L6.87484 64.2166C6.59255 63.6699 6.24592 62.891 6.90931 62.497C7.30565 62.2614 7.78283 62.3205 8.22452 62.4635C8.25311 62.4724 8.28171 62.4823 8.3103 62.4921C8.50748 62.5613 8.69776 62.644 8.86734 62.7229C9.60382 63.0612 10.2535 63.5534 10.9338 63.9874C11.6709 64.4579 12.3988 64.7587 13.2495 64.9348L13.3296 64.951C14.1282 65.1089 14.9938 65.2104 15.5509 65.8672C15.6909 66.033 15.5627 66.3436 15.3211 66.2618C13.7811 65.7421 12.1514 65.6276 10.7376 64.7744C10.152 64.4213 9.5979 64.016 8.99945 63.6816C8.68199 63.5039 8.35422 63.3486 8.00492 63.2421L7.81409 63.1858C7.70232 63.1531 7.56889 63.1209 7.47917 63.153C7.30838 63.2122 7.36289 63.3036 7.41573 63.4632L7.421 63.4794C7.83607 64.7637 9.01917 65.8386 10.1155 66.5498C10.3669 66.7135 10.6242 66.8635 10.8865 67.0026C12.6617 67.9491 14.648 68.3897 16.5988 68.9126C17.3508 69.1226 17.8514 69.2671 18.1005 69.346C18.5165 69.3114 18.9907 69.4584 19.3043 69.634C19.6089 69.8045 19.8544 70.0334 20.0398 70.3027C20.0398 70.3027 20.2182 70.4516 20.2507 70.6824C20.3444 70.8964 20.4075 71.1271 20.4391 71.3679C20.4568 71.5089 20.4213 71.6173 20.3543 71.6943C20.5559 74.7905 19.7199 77.8694 18.7774 80.812L18.684 81.1021L18.624 81.286C17.6075 84.4057 16.4412 87.5028 15.9206 90.7555C15.5726 92.9284 15.5834 95.1771 15.8388 97.3598L15.8568 97.5104C16.1084 99.5741 16.5925 101.889 17.9043 103.55C18.5734 104.398 19.3661 104.774 20.3796 105.047L20.4351 105.062C21.352 105.303 22.2985 105.646 23.244 105.749C24.1215 105.845 24.8569 105.519 25.6467 105.213L25.6476 105.212C27.3109 103.739 28.0661 101.595 28.6241 99.431C30.0705 93.8309 29.891 88.0176 29.0707 82.3356C28.6429 79.3668 28.0612 76.4237 27.4814 73.4815C27.1916 72.011 26.879 70.5433 26.6198 69.0678L26.4658 68.1994C26.3808 67.717 26.2986 67.2342 26.2283 66.749C26.1337 66.0971 26.1051 65.456 26.0726 64.8001C25.276 63.4794 24.1195 62.3916 22.7796 61.6114C21.8203 61.0522 20.8048 60.6645 19.7568 60.3834C16.7606 59.5757 13.4943 59.6329 10.4793 59.0115C9.46649 58.803 8.50507 58.4934 7.54416 58.1225L7.41312 58.0716C6.97242 57.8999 6.52284 57.8043 6.30397 58.324C6.14819 58.6939 6.24087 59.0786 6.47453 59.3892C7.04735 60.1507 8.1989 60.5038 9.06552 60.778C9.58707 60.9437 10.1195 61.0748 10.6578 61.1725C11.1961 61.2701 11.7364 61.2948 12.253 61.4851C12.4521 61.5581 12.4916 61.8747 12.253 61.9308C11.5983 62.0838 10.9397 61.9526 10.289 61.8254C9.57425 61.6843 8.87031 61.4842 8.18608 61.2307C8.05988 61.1841 7.92927 61.135 7.79626 61.0829L7.69608 61.0432C7.7996 61.1183 7.90312 61.1923 8.00763 61.2662C8.03524 61.2859 8.01848 61.3381 7.982 61.3253C6.37318 60.7249 4.90934 59.6416 3.77532 58.3598L3.7189 58.2955C3.3196 57.8378 2.4096 56.453 1.64256 56.8386C0.922291 57.2003 2.1501 58.5946 2.61671 59.1647L2.67089 59.2315C3.20131 59.2453 3.71497 59.5756 4.14483 59.8419C4.89117 60.3046 5.67103 60.703 6.46568 61.0758C8.04512 61.8185 9.72216 62.3423 11.2848 63.1223C11.3055 63.1333 11.2898 63.1598 11.27 63.157C10.2753 62.9981 9.29131 62.7446 8.33005 62.4301L8.28716 62.4166L8.24427 62.4023C7.64385 62.2051 7.05131 61.9823 6.46864 61.7445C5.82089 61.4802 5.18793 61.1834 4.57371 60.847C4.01765 60.5433 3.40047 59.9959 2.75568 59.915C2.68667 59.9061 2.62554 59.905 2.5723 59.9101C1.83189 59.9721 2.44414 61.1991 2.65118 61.566C2.98935 62.1686 3.39752 62.7249 3.86583 63.2329C4.81527 64.2645 5.96583 65.0822 7.21104 65.7183C7.63597 65.9353 8.07076 66.1267 8.51245 66.3022Z" fill="black"/>
<path fill-rule="evenodd" clip-rule="evenodd" d="M55.8114 1.04346C60.2255 1.04346 65.5216 3.18418 65.9719 3.227L65.984 3.22765C66.2209 3.22765 67.1466 3.93317 68.7611 5.34422L67.0125 8.75623L67.154 8.89141C67.8312 9.54092 68.4093 10.1329 68.8656 10.5996C72.5915 14.4101 73.2612 29.3713 72.3831 34.5887C71.5051 39.8062 69.8787 44.9116 62.307 44.9116C54.7353 44.9116 46.3116 40.3571 45.014 38.9388C44.149 37.9932 43.1773 37.5402 42.0989 37.5798C42.0546 37.5238 42.0106 37.468 41.967 37.4124L41.8084 37.3899C40.316 37.1737 39.2466 36.8827 38.6004 36.5169C37.3381 35.8025 35.9507 32.0467 35.9507 31.2194C35.9507 30.4003 33.879 24.4419 33.8376 23.8113L33.837 23.7938C33.837 23.2667 31.1305 20.8436 31.1305 20.0741C31.1305 19.3046 30.585 19.3513 31.1305 16.6396L31.289 15.8429C31.8696 12.9558 33.0058 8.17505 37.3381 6.09768C42.0989 3.81485 51.3527 1.04346 55.8114 1.04346Z" fill="white"/>
<path fill-rule="evenodd" clip-rule="evenodd" d="M61.0326 35.7143C60.367 35.4426 59.7731 34.9895 59.3389 34.4107C59.1879 34.2095 59.1488 33.997 59.1804 33.8026C59.2161 33.5841 59.3453 33.386 59.5215 33.2532C59.6983 33.1199 59.9195 33.0542 60.1333 33.0877C60.3191 33.1168 60.504 33.2185 60.6504 33.4296L60.681 33.4718C60.9391 33.8212 61.2755 34.1078 61.6588 34.2926C62.0282 34.4707 62.4414 34.5538 62.8689 34.5054C63.6832 34.4134 64.2445 33.9729 64.841 33.3746C64.915 33.2991 64.989 33.2212 65.0633 33.142C65.1103 33.0703 65.1754 33.0241 65.2478 33C65.3281 32.9731 65.419 32.9746 65.5022 33.0037C65.5825 33.0317 65.6542 33.0848 65.7024 33.1555C65.7481 33.2227 65.774 33.3056 65.7656 33.4011C65.711 34.0211 65.387 34.5744 64.9267 35.0089C64.4155 35.4915 63.738 35.8253 63.1 35.9424C62.3972 36.0713 61.6811 35.9789 61.0326 35.7143ZM63.4316 26.1495C64.1793 26.6042 65.3186 27.6644 64.5142 28.7916C63.5674 29.7854 62.2042 28.6459 61.5324 28.1305C60.9095 27.7311 60.2097 28.7584 60.7876 29.2248C65.6418 32.82 67.6117 26.2684 63.8098 25.6149C63.3911 25.5429 63.2357 26.0088 63.4316 26.1495ZM54.7328 21.9673C54.8154 20.9414 56.3772 20.7085 56.5325 21.7236C56.6717 22.6329 56.5079 23.4683 56.0984 24.287C55.7072 25.0691 54.7239 24.7042 54.6496 23.992C54.5499 23.0373 54.6814 22.6054 54.7328 21.9673ZM66.6212 21.5131C66.8389 21.2278 67.1533 21.0331 67.53 21.1431C68.7068 21.4872 68.3599 23.1585 67.9466 23.9721C67.7221 24.4139 66.9962 24.5259 66.6681 24.1369C66.1334 23.5026 65.8774 22.2357 66.5571 21.6109C66.5755 21.5786 66.596 21.546 66.6212 21.5131ZM56.0819 17.4785L56.2678 17.4459C56.8428 17.3464 57.5579 17.2508 57.9647 17.7133C58.1804 17.9586 58.2547 18.4144 57.9647 18.6492C57.4545 19.0623 56.8905 18.9022 56.2792 18.9372C55.7754 18.9661 55.2912 19.0495 54.8059 19.1883C53.7413 19.4927 52.8738 20.0484 51.9645 20.6586C51.8452 20.7386 51.7234 20.586 51.7804 20.4743C52.3053 19.4458 53.3225 18.601 54.3413 18.086C54.8851 17.8111 55.4802 17.5831 56.0819 17.4785ZM65.5484 17.0177L65.6907 17.0469C67.2391 17.3706 69.2507 18.0174 69.984 19.5389C70.0119 19.754 69.9824 19.8001 69.9584 19.8302L69.9504 19.8403C69.9306 19.866 69.9148 19.9014 69.8216 19.9307C69.7957 19.9246 69.7696 19.918 69.7432 19.9111C69.4071 19.823 69.1412 19.7016 68.8838 19.5757L68.6046 19.4381C68.2808 19.2792 67.9541 19.1262 67.6079 19.0132C66.869 18.7721 66.109 18.6022 65.3372 18.5115C65.1699 18.4919 65.0088 18.4354 64.8818 18.3386C64.7611 18.2468 64.669 18.1196 64.627 17.9505C64.5725 17.7316 64.5882 17.566 64.7055 17.3686C64.7938 17.2203 64.9201 17.1176 65.0651 17.0586C65.2129 16.9984 65.3811 16.9842 65.5484 17.0177Z" fill="black"/>
<path fill-rule="evenodd" clip-rule="evenodd" d="M36.6033 5.99053C38.9776 3.46936 52.4572 -0.430276 59.2769 0.396355L59.4815 0.422858C60.0258 0.491899 60.5621 0.596447 61.0914 0.738474C62.8024 1.13822 64.5697 1.74352 65.9834 2.75457C67.1637 3.58169 70.8868 4.93243 69.7895 7.09617C70.1964 7.86736 70.3482 8.82013 70.0732 9.57968C70.0386 9.84204 69.9578 10.0837 69.8543 10.3342C70.7236 11.6175 71.4119 13.0687 71.969 14.449C72.9426 17.9229 73.5485 21.5381 73.6372 25.0824C73.9324 31.816 73.1943 39.8594 67.3319 44.2138C63.7904 46.9729 58.2428 47.0656 54.263 43.6446C54.0371 43.3772 52.975 42.6556 53.3294 42.529C53.4349 42.6405 53.5434 42.749 53.6538 42.8555C53.6488 42.8437 53.6478 42.8318 53.6498 42.819L53.546 42.7249C53.3504 42.5439 53.097 42.2814 53.3856 42.3328C53.3983 42.3476 53.4122 42.3604 53.4259 42.3752C53.4871 42.4119 53.5332 42.4437 53.5692 42.4717L53.5876 42.4865L53.5819 42.4806C53.4157 42.3032 53.316 42.1224 53.5646 42.2379L53.5975 42.2539C53.708 42.3703 53.8203 42.4817 53.9347 42.5902C53.9328 42.5774 53.9347 42.5646 53.9417 42.5508L53.835 42.4477C53.7309 42.3457 53.7468 42.3452 53.7977 42.2628C53.5765 41.9526 53.9895 42.1368 54.0185 42.2578C54.2769 42.1967 54.5037 42.6819 54.6702 42.7411C61.9658 48.3522 72.5533 43.3734 72.3818 27.7381L72.3792 27.4322C72.3291 22.4327 71.9085 17.2941 69.8414 12.7684C69.6404 12.3324 69.4155 11.9083 69.1681 11.498C68.9976 11.1903 68.8152 10.8905 68.619 10.5985C68.0697 10.5541 67.5275 10.4535 66.9932 10.2977C66.8097 10.2514 66.6283 10.2001 66.447 10.1399C63.7969 10.2845 61.2058 10.4418 58.5483 10.5909L57.7182 10.6427C55.4669 10.7874 53.1387 11.0193 51.322 12.4123C49.5395 13.6805 49.5314 16.1813 48.0055 17.5737C45.8296 19.051 45.8137 20.3832 45.3947 22.5604C45.4257 24.2016 46.5633 26.5862 44.4758 27.2769C44.828 27.7792 44.3371 27.5379 44.2984 27.3617C44.2945 27.3627 44.2905 27.3637 44.2876 27.3637C44.6014 27.9473 44.1401 27.5798 44.0993 27.3923C44.0746 27.3854 44.05 27.3676 44.0253 27.343C44.3415 27.8543 43.8304 27.4962 43.8607 27.4031C43.2497 26.4637 41.9923 26.3178 41.1059 26.5667C41.0951 26.6003 41.0558 26.6032 41.0311 26.5855C37.2622 27.4025 38.2347 35.2077 42.0969 34.4532C42.2622 34.4195 42.2583 34.4989 42.2911 34.5065C42.2019 34.2721 42.4534 34.3675 42.4507 34.4167L42.466 34.416C42.4782 34.4149 42.4732 34.4136 42.4823 34.4167C42.396 33.9375 42.8815 34.6318 42.8431 34.6603C42.858 34.6515 42.8748 34.6465 42.8896 34.6446L42.8728 34.5991C42.7923 34.3843 42.7992 34.4736 42.7997 34.3506C42.7392 34.1987 42.7348 34.2651 42.749 34.1661C42.9617 34.0012 43.0245 34.5014 43.0955 34.538C42.9739 34.3684 43.0706 34.2298 43.1853 34.3219C44.0552 36.1523 45.1789 37.8721 46.631 39.2269C46.7898 39.3522 46.9505 39.4755 47.1171 39.5918C47.7347 40.1301 48.6822 40.4762 49.2604 40.9529C49.2604 40.9608 49.2566 40.9707 49.2507 40.9806L49.2639 40.9925L49.2773 41.0052L49.4784 41.1019C49.5376 41.1522 49.5908 41.2084 49.638 41.2705C49.6884 41.3287 49.7327 41.3928 49.7703 41.4609C49.789 41.5437 49.7476 41.5783 49.6687 41.5427C49.6341 41.5309 49.5997 41.5171 49.5652 41.5043C49.5672 41.5072 49.568 41.5092 49.5701 41.5112C49.5814 41.5283 49.658 41.7059 49.5698 41.677L49.5593 41.6729C49.5109 41.6552 49.4627 41.6355 49.4153 41.6167C49.4715 41.6867 49.5227 41.7627 49.568 41.8268C49.6165 41.8771 49.6459 41.9363 49.6579 42.0034C49.6558 42.0408 49.6352 42.0566 49.5977 42.0517C49.5405 42.0329 49.4843 42.0132 49.428 41.9925L49.4441 42.0231C49.4838 42.1013 49.5404 42.2326 49.44 42.1888C49.3541 42.1621 49.2714 42.1316 49.1886 42.098C49.1816 42.1118 49.1679 42.1168 49.1403 42.104C48.877 42.0103 48.6227 41.8958 48.3791 41.7607C48.1652 41.6049 47.9492 41.452 47.7343 41.2972C47.5321 41.1758 47.3369 41.0407 47.1507 40.8888C45.9039 40.0832 44.8124 39.0598 43.9465 37.9201C42.4982 39.1747 39.6027 37.9761 37.8116 36.9939C36.2273 36.1161 35.6046 34.4931 35.4436 32.7432C35.1089 30.3873 33.1844 29.5809 33.3183 24.4117C33.3153 24.4127 33.3123 24.4127 33.3083 24.4127C33.2383 24.392 33.1704 24.3643 33.1063 24.3288C33.0403 24.2973 32.9781 24.2598 32.9199 24.2144L32.8479 24.1148C32.8105 24.0941 32.777 24.0724 32.7514 24.0507L32.7381 24.0678C32.696 24.1186 32.7243 24.0422 32.7267 24.027L32.6017 23.8569C32.3053 23.452 31.98 22.9977 31.7151 22.6344L31.7067 22.6491C31.7008 22.6603 31.6976 22.6683 31.7004 22.6718C31.0699 21.7656 30.477 20.671 30.3122 19.6114C30.1177 18.7951 30.1937 17.954 30.3634 17.1979C31.0909 14.5501 33.4741 8.55856 36.6033 5.99053ZM53.7136 42.6073L53.6741 42.5721L53.7088 42.6156C53.727 42.6381 53.7457 42.6583 53.776 42.679C53.7741 42.6721 53.7741 42.6652 53.7749 42.6573C53.7548 42.6419 53.7342 42.6251 53.7136 42.6073ZM59.2468 1.72675C54.622 1.32897 50.0733 2.34822 45.6602 3.58198L45.3557 3.66952C42.8464 4.38582 40.193 5.03038 38.0724 6.56357C35.1096 8.83374 33.5797 12.4452 32.2445 15.7796C31.0787 18.257 31.6747 21.0505 33.4316 22.7803C33.6144 21.0613 33.926 19.3926 34.413 17.7373C34.5147 17.4787 34.4378 17.3939 34.6569 17.3602C34.9877 21.8211 33.3581 25.1169 36.583 30.4037C37.9824 32.8982 36.3625 34.7235 40.314 36.0361L40.421 36.077C41.2442 36.3878 42.1433 36.6331 42.9496 36.4594L42.8774 36.3418C42.8037 36.2207 42.7813 36.162 42.8885 36.1102C42.8856 36.1043 42.8817 36.0984 42.8776 36.0915C42.791 35.9277 42.7072 35.762 42.6272 35.5944C42.5948 35.6052 42.5622 35.6131 42.5286 35.622C42.5504 35.6624 42.5533 35.7029 42.4922 35.7167C42.275 35.7912 42.0519 35.8211 41.8235 35.8071L41.7745 35.8035C41.5165 35.7877 41.3539 35.7406 41.2085 35.6969C41.1603 35.6891 41.1119 35.6812 41.0645 35.6713C40.5967 35.5675 40.1015 35.3036 39.781 35.042C36.1274 32.9661 36.505 25.8993 41.0084 25.2313C41.1008 20.7819 43.2163 13.2754 46.7271 9.03554C49.9006 5.1356 58.5642 3.44528 64.5917 4.0413C64.6796 4.0704 64.7674 4.09979 64.8553 4.12948C65.7852 4.21213 66.6714 4.62657 67.602 4.8191C66.9339 4.31816 66.1759 3.98449 65.3951 3.70093C63.8396 2.74905 62.0562 2.234 60.3334 1.87075C59.9765 1.78297 59.6146 1.73464 59.2468 1.72675ZM40.8023 28.8056C41.0444 28.6741 41.0167 28.8011 41.0724 28.7642C42.8142 28.6221 44.6922 30.1476 45.6658 31.4193C45.5889 31.4992 45.3809 31.2625 45.3444 31.225C45.3395 31.23 45.3336 31.2339 45.3277 31.2359L45.3548 31.2742C45.7494 31.8407 44.9671 31.1741 44.8939 31.0367C44.881 31.0436 44.8682 31.0475 44.8534 31.0445C44.9154 31.1054 45.1048 31.2641 45.1374 31.3769L45.1876 31.4187C45.6611 31.8244 45.6218 32.1295 45.0842 31.5535C45.097 31.5801 45.1019 31.6048 45.093 31.6245L45.1115 31.6368C45.3758 31.8216 45.5932 32.3367 45.0408 31.8079C45.0982 32.1942 44.4933 31.4476 44.4739 31.4529C43.427 30.6308 41.8857 29.8313 40.5726 29.7239L40.5274 29.7187C40.2864 29.6877 40.1725 29.6162 40.2571 29.4586C39.9603 29.388 40.0298 29.2418 40.1703 29.2465C39.961 29.1088 40.1494 28.9772 40.2709 29.0285C40.1874 28.7973 40.5223 28.9513 40.5529 28.9191C40.7267 28.6509 40.7735 28.8746 40.8023 28.8056ZM37.1515 14.4698C37.988 14.1632 40.459 15.0809 40.2613 16.2962C40.1436 16.5752 39.7558 16.7351 39.4832 16.5776L39.1274 16.3385C38.5082 15.9237 37.9497 15.5599 37.285 15.1981C36.9231 15.0185 36.7674 14.6372 37.1515 14.4698ZM41.911 12.6637L41.5879 12.4534C39.8444 11.3119 37.3797 9.58223 41.7508 11.3718C42.2489 11.5855 42.9109 11.7119 43.1827 12.1865C43.6097 13.0613 42.486 13.1201 41.911 12.6637ZM42.1069 7.54195C41.967 7.01083 43.7078 7.63407 44.2146 7.79839L44.2918 7.82755C44.7847 8.01131 45.3498 8.18177 45.6446 8.60735C45.9901 9.19539 45.2909 9.31719 44.8578 9.05158C43.9698 8.47105 42.9962 8.03303 42.1069 7.54195ZM46.5337 5.06782C45.5538 3.99735 48.1762 5.02283 48.569 5.30748L48.5802 5.31588C48.8734 5.52231 48.8139 5.96694 48.5385 6.09752C47.755 6.11242 47.1785 5.45909 46.5337 5.06782ZM50.9926 3.89499C49.4348 2.77505 51.4868 3.30775 52.1995 3.74665C52.6853 4.1752 52.1849 4.89865 50.9926 3.89499Z" fill="black"/>
</svg>
