<svg width="25" height="31" viewBox="0 0 25 31" fill="none" xmlns="http://www.w3.org/2000/svg">
<path d="M2.62483 27.1889C2.62483 24.5286 2.48776 21.864 2.38498 19.2037C2.29936 16.9032 1.8623 14.2643 2.18794 11.9767C2.34649 10.8714 4.54409 9.1622 5.61507 8.12121C7.94541 5.91927 10.3359 3.77731 12.8635 1.811L11.9296 1.93093C14.5808 3.77515 17.0588 5.85714 19.3322 8.15117C20.4503 9.23497 22.6522 10.8629 23.1577 12.3451C23.4062 13.0648 23.2605 14.1401 23.282 14.8898C23.3119 16.2093 23.3248 17.5245 23.3334 18.8439V27.2703L24.1173 26.482C19.4035 26.2634 14.6809 26.3607 9.98034 26.7733L10.7343 27.3388C10.2117 24.9399 8.30108 17.9142 12.5207 17.8928C17.58 17.8413 15.9222 26.2293 15.8279 29.4037C15.7979 30.3975 17.3401 30.3975 17.3701 29.4037C17.4944 25.214 19.028 15.7337 12.0623 16.372C6.70743 16.8775 8.51945 24.4257 9.24779 27.7672C9.29228 27.928 9.38766 28.0701 9.51986 28.172C9.65192 28.274 9.81354 28.3305 9.98031 28.3327C14.6808 27.92 19.4035 27.8227 24.1172 28.0414C24.3204 28.037 24.514 27.9544 24.6576 27.8107C24.8014 27.6671 24.8839 27.4734 24.8884 27.2702V18.0426C24.8884 16.1835 25.2697 13.5488 24.6228 11.7538C24.0102 10.0403 21.8725 8.45948 20.6344 7.25145V7.25159C18.2041 4.79362 15.5508 2.56641 12.7092 0.598662C12.5607 0.516665 12.3898 0.484592 12.2217 0.506904C12.0536 0.529216 11.8972 0.604938 11.7753 0.722914C9.12001 2.82696 6.57211 5.06324 4.14134 7.42296C3.02756 8.48962 1.01401 9.86908 0.675727 11.467C0.247335 13.5147 0.727184 16.0636 0.804302 18.1328C0.915723 21.1315 1.06563 24.1688 1.08278 27.189C1.08278 28.1828 2.6336 28.1828 2.62496 27.189L2.62483 27.1889Z" fill="black" fill-opacity="0.42"/>
</svg>
