<svg width="81" height="120" viewBox="0 0 81 120" fill="none" xmlns="http://www.w3.org/2000/svg">
<path fill-rule="evenodd" clip-rule="evenodd" d="M7.49282 117.945C8.02889 118.759 9.08336 118.634 9.53607 118.003C14.6911 119.205 19.9759 118.731 25.2026 118.436C39.931 117.837 54.7425 119.716 69.4114 117.75C70.9675 117.439 72.7786 117.588 74.0519 116.508C76.0883 114.121 75.6497 110.496 75.3253 107.588C72.7251 91.1973 69.0282 74.6559 67.1841 58.1595C67.0812 56.5881 67.7285 54.6357 68.3088 53.1586C68.4521 52.8837 69.358 52.6144 69.8281 52.2974C71.2709 51.2615 71.0369 49.405 69.7862 48.3156C65.7369 45.4601 60.0998 46.4579 55.8041 47.5114C54.9809 44.4183 54.0556 42.384 52.4882 42.1825C49.5049 41.7991 42.2681 40.6273 40.0389 42.1825C38.9725 42.9265 38.288 45.5482 37.5204 46.8253C31.922 46.7259 20.5597 39.2329 18.2237 47.6706C16.3258 47.8017 14.4461 49.4593 14.8091 51.4484C12.3477 53.6243 14.2891 56.8868 14.255 59.5951C13.9314 65.3413 10.8233 70.4802 9.53028 76.031C6.57458 86.797 3.22921 106.38 6.89513 116.889C6.81624 116.847 6.64392 116.909 6.75555 116.997C7.17064 117.114 7.22462 117.637 7.49282 117.945Z" fill="white"/>
<path fill-rule="evenodd" clip-rule="evenodd" d="M71.8569 115.207C71.1693 109.685 70.6912 103.019 70.6857 97.4509C70.6852 96.9265 71.4985 96.9274 71.499 97.4509C71.5045 103.019 71.9826 109.685 72.6702 115.207C72.7348 115.726 71.9207 115.72 71.8569 115.207ZM66.7635 80.9686C65.7011 81.6186 64.3059 81.1677 63.2545 80.7373C62.7758 80.5413 62.9866 79.7545 63.4707 79.9527C64.2709 80.2803 65.4404 80.7626 66.2849 80.3058C67.1278 79.8497 67.1658 78.5953 67.1721 77.7675C67.1761 77.2433 67.9893 77.2437 67.9855 77.7675C67.9769 78.8937 67.8264 80.3181 66.7635 80.9686ZM64.797 106.238C63.7251 105.688 62.8105 104.937 62.0745 103.983C61.7546 103.568 62.4614 103.164 62.7768 103.572C63.4246 104.412 64.2686 105.054 65.2075 105.535C65.6739 105.775 65.2619 106.476 64.797 106.238ZM59.645 77.8418C57.8059 85.2144 56.5717 92.7191 55.9668 100.294C55.8438 101.832 55.7574 103.368 55.7086 104.904C55.6598 105.305 55.613 105.707 55.5693 106.108C55.4036 107.628 55.2765 109.172 55.2877 110.701C55.2928 111.388 55.3141 112.071 55.3609 112.756C55.2795 112.527 55.2043 112.297 55.1311 112.068C54.9817 111.599 54.883 111.113 54.7305 110.648C54.6045 110.262 54.4418 109.893 54.2903 109.52V109.519C54.3361 107.99 54.2324 106.447 54.1795 104.926C54.1114 102.955 54.027 100.986 53.9833 99.0136C53.8959 95.0695 53.9396 91.1223 54.0819 87.1804C54.3676 79.2372 55.0894 71.3318 55.8173 63.4211C56.0197 61.2212 56.2372 59.0224 56.3877 56.8184C56.5392 54.5911 56.6002 52.3597 56.6174 50.1264C56.6185 49.9656 56.3745 49.923 56.3297 50.0785C56.2901 49.5486 56.2199 49.0198 56.103 48.5082C57.8567 49.6269 59.706 50.5942 61.5187 51.6112C62.4733 52.1472 63.4239 52.6923 64.408 53.1724C64.9489 53.4367 65.4948 53.6799 66.0519 53.9097C66.6294 54.1477 67.1814 54.4752 67.8168 54.3093C67.8717 54.2952 67.9236 54.2748 67.9734 54.2484C67.9012 54.3856 67.829 54.522 67.7599 54.6604C67.52 55.1373 67.2912 55.6163 67.0696 56.0994C67.0106 56.1431 66.9588 56.2033 66.9181 56.2815C66.8103 56.492 66.7056 56.7046 66.604 56.9201C66.5836 56.9008 66.5633 56.8815 66.543 56.8622C66.4576 56.7818 66.3396 56.9028 66.4149 56.9903C66.4494 57.0299 66.483 57.0687 66.5165 57.1083C65.8537 58.5352 65.3148 60.0354 64.7598 61.5C64.0776 63.3001 63.431 65.1135 62.822 66.9391C61.6214 70.5302 60.562 74.1682 59.645 77.8418ZM33.3515 104.598C29.9619 106.414 26.7945 108.584 23.748 110.924C23.3327 111.244 22.928 110.536 23.3375 110.222C26.3839 107.881 29.5515 105.711 32.9411 103.895C33.4029 103.648 33.8132 104.35 33.3515 104.598ZM21.9031 83.3294C21.7269 83.3163 21.5557 83.2141 21.5109 83.0308C21.2364 81.9062 21.0213 80.681 21.2767 79.5339C21.3906 79.0223 22.1745 79.24 22.061 79.7501C21.8596 80.6547 22.0196 81.6325 22.2287 82.5345C25.185 82.664 28.1017 81.6027 30.9301 80.89C31.4387 80.7619 31.6535 81.5469 31.1463 81.6746C28.146 82.4305 25.0426 83.5619 21.9031 83.3294ZM80.7567 113.328C80.7597 113.321 80.7628 113.313 80.7648 113.306C80.9387 112.779 80.9427 112.167 80.962 111.615C80.9956 110.632 80.96 109.648 80.8716 108.668C80.6845 106.607 80.2819 104.579 79.801 102.568C78.8484 98.5854 77.5024 94.7105 76.7714 90.6738C75.3369 82.75 75.6775 74.4998 72.8624 66.8568C71.6923 63.6794 70.0209 60.6253 67.7497 58.101C67.9154 57.5965 68.0771 57.091 68.2346 56.5835C68.5102 55.7007 68.7918 54.7895 68.9615 53.8802C68.9656 53.8558 68.9707 53.8304 68.9738 53.805C69.9406 53.388 70.82 52.6018 70.9704 51.5563C71.0355 51.1047 70.9603 50.6043 70.7651 50.168C71.1636 49.7998 71.4198 49.3218 71.3588 48.6811C71.2449 47.4749 69.8369 47.1646 68.8568 46.9287C67.7426 46.6612 66.5867 46.587 65.447 46.7131C64.8716 46.7762 64.3023 46.8819 63.7462 47.0406C63.2633 47.1779 62.7377 47.3193 62.3503 47.6508C62.3046 47.6895 62.3422 47.7647 62.3971 47.7647C63.1809 47.7618 63.9617 47.4739 64.7537 47.4361C65.5832 47.3976 66.4108 47.4657 67.2241 47.6366C68.0191 47.8034 68.8121 48.0475 69.5349 48.4248C69.7383 48.5316 70.0361 48.6038 69.7972 48.8194C69.6224 48.9771 69.2787 48.9904 69.0541 49.0137C68.5569 49.0655 68.1279 49.3564 68.0649 49.8873C68.009 50.3562 68.2885 50.8871 68.7867 50.9928C68.8141 50.999 68.8396 51.0061 68.8619 51.0152C68.8751 51.0406 68.8955 51.062 68.8934 51.0274C68.8934 51.0274 68.8945 51.0264 68.8945 51.0274C68.9067 51.1017 68.9107 51.1311 68.9107 51.1362C68.9077 51.1301 68.9026 51.1047 68.8985 51.0844C68.9016 51.1027 68.9077 51.1322 68.9158 51.1759C68.9046 51.1281 68.9138 51.2452 68.9046 51.2634C68.6403 51.7515 67.8585 51.889 67.403 52.0994C67.3146 52.14 67.2383 52.1879 67.1733 52.2417C67.0655 52.2041 66.9557 52.1665 66.8449 52.1248C66.299 51.9204 65.754 51.7221 65.201 51.5379C64.1335 51.181 63.0528 50.8627 61.9853 50.5047C59.9642 49.8273 58.0102 48.972 56.0268 48.197C55.9637 47.9631 55.8905 47.7342 55.8041 47.5115C55.7868 47.4648 55.7035 47.4495 55.6943 47.5115C55.6638 47.7088 55.6394 47.9071 55.6191 48.1065C55.611 48.1248 55.6089 48.1451 55.613 48.1644C55.4981 49.3239 55.5286 50.5108 55.4697 51.6692C55.3965 53.1134 55.1921 54.5474 55.1342 55.9926V56.0191C54.9207 57.2527 54.7275 58.4905 54.5526 59.7323C54.3564 59.6713 54.1317 59.6835 53.902 59.8065C52.2774 60.6741 50.4515 61.1572 48.6144 61.265C47.6893 61.3188 46.7733 61.2885 45.8532 61.1816C45.2483 61.1124 44.6525 60.9863 44.0558 60.8663C44.3699 59.5492 44.7074 58.2383 45.0887 56.9406C45.4028 55.8736 45.7526 54.8118 46.1846 53.7856C46.6208 52.7493 47.1637 51.7597 47.6689 50.7548C47.9017 50.2901 47.6272 49.5791 47.0223 49.628C46.8434 49.6422 46.6645 49.6534 46.4845 49.6615C44.7339 49.745 42.9131 49.5498 41.1848 49.3757C39.2176 49.1764 37.2239 48.9698 35.274 48.6455C35.1296 48.6221 35.0707 48.8184 35.213 48.8662C36.1381 49.1774 37.0521 49.5292 38.0006 49.7622C38.9766 50.0033 39.9587 50.2229 40.9489 50.3948C41.8974 50.5587 42.85 50.6959 43.8057 50.8118C44.4289 50.8881 45.0592 50.9267 45.6865 50.9776C44.8416 52.3282 44.2591 53.8516 43.7518 55.3518C43.1001 57.2782 42.6213 59.2604 42.1526 61.2385C41.1502 65.4786 40.3237 69.7614 39.6771 74.0706C39.2135 77.1603 38.8383 80.2623 38.5567 83.3725C38.4734 82.4276 38.3717 81.4858 38.2568 80.5451C37.8725 77.4216 37.3113 74.3187 36.5611 71.2625C36.6282 71.1445 36.6597 71.0032 36.6373 70.8659C36.5021 70.0258 36.1463 69.2945 35.8342 68.5155C35.5241 67.4272 35.1896 66.3461 34.8297 65.2731C34.421 63.8117 33.9625 62.3725 33.3759 60.967C32.9276 59.896 32.4162 58.8524 31.8469 57.8406C31.1667 56.4259 30.4195 55.0418 29.5991 53.7185C29.5564 53.5954 29.4872 53.4805 29.3886 53.3839C29.2392 53.148 29.0877 52.915 28.9332 52.6842C28.8325 52.5337 28.5438 52.6252 28.62 52.8164C28.6556 52.906 28.6912 52.9954 28.7278 53.084C25.3861 52.2479 22.1094 53.5263 18.9263 54.4701C18.1232 54.7091 17.3119 54.9247 16.4884 55.0803C15.8408 55.2024 15.0865 55.3509 14.4409 55.2165C14.0088 55.1271 13.8177 54.9308 14.0281 54.4691C14.2457 53.9912 14.8394 53.6768 15.3549 53.4654C15.549 53.4236 15.7402 53.3493 15.9242 53.2375C16.3532 52.9771 16.5413 52.434 16.339 51.9712C16.155 51.5532 15.6182 51.1932 15.1434 51.3844C15.0753 51.4119 15.0082 51.4383 14.9411 51.4647C14.934 51.4546 14.9258 51.4403 14.9187 51.42C14.8506 51.2339 14.8211 51.4567 14.8506 51.1901C14.8994 50.7548 15.3599 50.3592 15.6751 50.11C16.4589 49.4886 17.5915 49.0289 18.603 49.2639C18.6793 49.2812 18.7555 49.3025 18.8308 49.329C19.8728 49.69 20.3801 48.1888 19.5475 47.6295C19.4967 47.5959 19.4326 47.5532 19.3625 47.5034C19.0158 47.2623 18.5085 46.8565 18.6468 46.4905C18.8175 46.0358 19.825 45.7744 20.2063 45.6198C21.5849 45.0604 23.0742 44.7431 24.5606 44.678C26.0561 44.6129 27.5709 44.7777 29.0135 45.1813C29.7211 45.3788 30.448 45.6788 31.1169 45.982C31.7178 46.2534 33.0252 46.6124 33.1085 47.3732C33.1268 47.5411 33.3657 47.5979 33.4176 47.4149C33.8273 45.9544 32.2373 45.0116 31.1881 44.4085C30.4998 44.0117 29.719 43.7647 28.9637 43.5216C28.2398 43.2877 27.5007 43.1158 26.7464 43.012C25.1269 42.7904 23.488 42.8189 21.8817 43.1301C20.4188 43.4139 18.7911 43.8979 17.6088 44.8397C16.8829 45.4174 16.5545 46.3368 16.8463 47.2338C16.8564 47.2633 16.8666 47.2938 16.8768 47.3233C15.5704 47.5573 14.3341 48.3058 13.5076 49.3493C12.8285 50.2067 12.4727 51.3997 13.0806 52.3975C13.0552 52.4157 13.0298 52.435 13.0054 52.4553C12.4259 52.9191 11.9948 53.5925 11.8667 54.3287C11.6156 55.7811 12.493 56.7971 13.7201 57.1856C13.4161 57.4827 13.1243 57.7979 12.8387 58.1132C12.1992 58.82 11.5882 59.5898 11.0494 60.3751C9.95748 61.9657 9.0242 63.6977 8.20784 65.443C6.52935 69.0271 5.47103 72.8847 4.90984 76.7962C4.62721 78.7673 4.43811 80.7485 4.36593 82.7378C4.28257 85.0058 4.36695 87.2748 4.32323 89.5439C4.28053 91.7244 4.03959 93.8521 3.55262 95.9778C3.08598 98.0108 2.46379 100.003 1.90057 102.01C1.26516 104.27 0.565711 106.519 0.230218 108.849C0.0604384 110.035 -0.0615591 111.224 0.032989 112.423C0.128554 113.645 0.571811 114.689 0.980503 115.825C1.0842 116.115 1.40038 116.232 1.65352 116.17C1.71045 116.714 1.91582 117.245 2.22183 117.705C2.87146 118.679 3.87184 119.301 5.0176 119.526C6.30874 119.78 7.63953 119.72 8.94694 119.673C10.3652 119.622 11.7844 119.576 13.2026 119.517C14.6874 119.456 16.1721 119.393 17.6569 119.329C17.6078 117.807 17.5493 116.285 17.4831 114.763C17.1251 106.537 16.5614 98.306 16.5465 90.069C16.5177 90.0521 16.4894 90.0321 16.4624 90.0058C15.7939 89.3595 14.9733 88.935 14.2023 88.4291C13.7659 88.1428 14.1738 87.4386 14.6128 87.7266C15.2628 88.1531 15.9402 88.532 16.5494 89.0099C16.553 88.1525 16.5605 87.2951 16.5775 86.4375C16.5878 85.9138 17.4012 85.9138 17.3908 86.4375C17.3398 89.0219 17.3568 91.6069 17.4153 94.191C17.6045 102.565 18.1992 110.924 18.4701 119.295C22.4553 119.124 26.4408 118.953 30.4266 118.807C33.6687 118.689 36.9108 118.571 40.1529 118.453C40.833 118.429 41.2153 117.943 41.2986 117.307C41.4511 116.137 41.1644 114.928 40.5158 113.945C40.4487 113.843 40.3694 113.753 40.281 113.675C40.2962 112.975 40.3247 112.273 40.285 111.572C40.2261 110.502 40.1376 109.432 40.0604 108.363C39.9038 106.222 39.7828 104.077 39.735 101.931C39.6374 97.6395 39.7086 93.3435 39.9516 89.0577C40.4385 80.4952 41.5721 71.9877 43.4275 63.6123C43.5627 63.0021 43.6989 62.3919 43.8402 61.7826C45.2829 62.5322 47.0376 62.8016 48.6144 62.8119C50.5908 62.8241 52.5234 62.3694 54.3086 61.5427C54.2964 61.6352 54.2842 61.7267 54.2731 61.8193C53.7749 65.7857 53.355 69.7602 52.989 73.74C52.2591 81.674 51.8118 89.6405 51.8738 97.6099C51.8911 99.818 51.9754 102.019 52.0802 104.224C52.1869 106.466 52.3506 108.836 52.9748 110.999C53.0439 111.238 53.1974 111.376 53.3743 111.426C53.3835 111.741 53.4038 112.057 53.4262 112.368C53.4984 113.38 53.7048 115.483 54.146 116.4C54.576 117.295 55.2928 118.005 56.2067 118.395C57.3677 118.891 58.6233 118.748 59.8494 118.669C65.1806 118.321 70.5079 117.855 75.8361 117.446C76.5783 117.39 77.3204 117.334 78.0615 117.276C78.7214 117.225 79.4035 117.18 79.9891 116.837C80.655 116.448 81.1745 114.535 80.9447 113.743C80.9031 113.599 80.84 113.457 80.7567 113.328Z" fill="black"/>
<path fill-rule="evenodd" clip-rule="evenodd" d="M64.2094 27.733C64.1689 25.4546 64.1242 23.1307 63.7857 20.8744C63.4546 18.6687 62.544 16.6749 60.9792 15.0731C57.6555 11.6708 52.8376 10.8398 48.353 10.0782L40.6855 8.7761C38.3463 8.37895 35.8508 7.74411 33.4874 8.30735C32.3228 8.5849 31.3338 9.2297 30.4299 9.99259C29.5587 10.7279 28.6219 11.5175 28.0316 12.5068C27.4402 13.4975 27.2367 14.6556 27.0445 15.7761C26.8276 17.0394 26.6592 18.3125 26.5395 19.5887C26.2997 22.1455 26.267 24.7216 26.4409 27.2838C26.5252 28.5265 26.6593 29.7656 26.8305 30.9993C26.9154 31.6111 27.0113 32.2213 27.1197 32.8294C27.1516 33.0087 27.1759 33.2072 27.2087 33.4078C26.9668 34.0959 26.8294 34.8086 26.8405 35.5181C26.8731 37.6084 28.6367 38.9243 30.4146 39.6309C31.4454 40.0405 32.5232 40.3189 33.5361 40.7766C34.6016 41.2579 35.3269 42.0383 36.0554 42.9285C37.4449 44.6264 39.0129 46.1523 40.8033 47.4255C44.5992 50.1248 49.4071 51.4015 54.0129 50.4325C55.118 50.2 56.2329 49.8389 57.2263 49.2949C58.275 48.7206 59.0636 47.8883 59.7259 46.9043C60.9555 45.0776 61.8374 43.0207 62.5045 40.9275C63.1849 38.7923 63.6679 36.6533 63.9313 34.4269C64.1938 32.2077 64.2491 29.9659 64.2094 27.733Z" fill="white"/>
<path fill-rule="evenodd" clip-rule="evenodd" d="M39.7418 0.839452C42.9148 0.402836 47.2942 1.82192 48.8743 4.68327C56.4185 2.90405 65.9336 2.84577 72.1515 8.76873C78.6396 15.7947 70.4902 25.0584 65.0864 27.147C65.4798 29.0598 64.8664 41.3136 60.5258 46.7795C57.081 51.4107 49.059 53.548 45.3469 48.0164L45.3179 47.9708C44.9202 47.332 45.2628 47.3525 45.671 47.8277C49.3059 51.0255 54.2481 51.0801 58.0566 47.7053C65.1943 41.537 64.4583 26.4125 61.0619 17.6628C51.3905 16.6002 41.0356 19.5326 34.3557 26.8156L34.8074 29.5359C34.8844 29.9994 34.9718 30.4625 35.0385 30.9276C35.0812 31.2256 35.086 31.5219 34.8796 31.7632C34.1982 32.5595 33.0496 31.3629 32.1047 30.8869C31.8257 30.8476 31.5462 30.8325 31.2721 30.8518C26.732 31.4368 27.6266 40.2474 32.6165 38.7031C33.0357 38.4418 33.3959 38.5215 33.5586 38.9007C34.748 39.9905 35.5322 41.9343 37.5082 43.8065C38.2055 44.5088 38.84 45.0963 39.6242 45.6596C40.0848 46.1257 41.4748 46.6008 41.0342 47.3983C40.2009 49.2129 35.2874 43.5129 34.4187 41.9366C31.6968 43.0118 28.6804 42.6466 25.8597 42.3837C10.9791 41.6098 12.9656 25.9178 25.1629 16.0107C27.4589 14.3198 29.9921 12.9403 32.6253 11.8788C32.9848 11.7339 32.8277 11.1434 32.4631 11.2904C30.7208 11.9929 29.0223 12.829 27.4032 13.7967L27.4007 13.2181C27.3984 12.2437 27.4137 11.2292 27.5828 10.3388C27.6674 9.7219 27.8097 9.06296 28.0286 8.56725C28.2994 7.04749 32.5403 1.83087 39.7418 0.839452ZM31.0736 32.8746C31.3033 32.6562 31.7322 32.9166 31.9368 32.91C32.4599 32.9816 32.9568 33.2027 33.3443 33.4754C33.6002 33.6188 33.7796 33.7535 33.9294 33.8774L33.9335 33.8762C33.9324 33.8762 33.9309 33.8774 33.9297 33.8777L33.9438 33.8872C34.162 34.0423 34.9608 34.9159 34.4561 34.6809C34.4185 34.632 34.38 34.585 34.3412 34.5389C34.337 34.5452 34.3312 34.5515 34.3243 34.5575L34.3526 34.5995C34.7815 35.245 34.041 34.565 33.9271 34.3844C33.9217 34.3887 33.9156 34.3917 33.9096 34.3948L34.058 34.5755C34.0787 34.6011 34.095 34.6216 34.1085 34.6389L34.1398 34.6691C34.6358 35.1568 34.6512 35.5956 34.0751 34.8747C34.0978 34.9086 34.116 34.9446 34.1185 34.9766L34.1527 35.0201C34.605 35.6033 34.2371 35.3962 34.0123 35.1471L33.9935 35.1257L33.9973 35.1315C34.2064 35.4538 33.7915 35.2277 33.7182 35.0553L33.7151 35.0475C33.6352 34.9823 33.586 34.9091 33.5692 34.8906L33.5661 34.8875C33.1771 34.4888 32.6133 34.1515 32.1343 33.9982C32.0649 33.985 31.9946 33.9744 31.9237 33.9669C31.6357 33.9026 31.3445 33.8585 31.0503 33.8347C31.0143 33.8305 30.9778 33.804 30.9505 33.7699C30.5056 33.7548 30.643 33.5724 30.8276 33.5385L30.8308 33.538L30.7942 33.5349C30.5087 33.507 30.3137 33.4045 30.6024 33.3416L30.6389 33.3344C30.6345 33.3273 30.6305 33.3203 30.6266 33.3133C30.3794 33.2862 30.5407 33.0457 30.678 33.1039C30.6202 32.915 30.8842 33.0093 30.9171 32.9812C30.9422 32.9534 30.9734 32.9288 30.9914 32.9274C31.0709 32.8713 31.0324 32.8764 31.0736 32.8746ZM32.5864 29.8168L32.5284 29.8506C32.4815 29.878 32.4334 29.8962 32.385 29.9069C32.4533 29.9359 32.5208 29.9674 32.5876 30.0009C32.5865 29.9599 32.5857 29.9189 32.5857 29.878L32.5864 29.8168Z" fill="black"/>
<path fill-rule="evenodd" clip-rule="evenodd" d="M52.7219 42.3516C52.0385 42.0727 51.4287 41.6074 50.9829 41.0131C50.8279 40.8065 50.7877 40.5883 50.8202 40.3888C50.8568 40.1644 50.9895 39.9611 51.1704 39.8247C51.352 39.6878 51.579 39.6203 51.7985 39.6547C51.9893 39.6846 52.1792 39.7891 52.3295 40.0058L52.3609 40.0491C52.6259 40.4079 52.9713 40.7022 53.3648 40.8919C53.7441 41.0747 54.1683 41.16 54.6073 41.1104C55.4434 41.0159 56.0196 40.5636 56.6321 39.9493C56.7081 39.8718 56.784 39.7918 56.8604 39.7105C56.9086 39.6369 56.9755 39.5895 57.0498 39.5647C57.1322 39.5371 57.2255 39.5387 57.311 39.5685C57.3934 39.5973 57.4671 39.6518 57.5165 39.7244C57.5634 39.7933 57.5901 39.8785 57.5814 39.9765C57.5254 40.6131 57.1927 41.1812 56.7201 41.6273C56.1953 42.1228 55.4996 42.4655 54.8446 42.5858C54.123 42.7182 53.3877 42.6233 52.7219 42.3516ZM55.185 32.5311C55.9527 32.9979 57.1224 34.0865 56.2966 35.2438C55.3244 36.2642 53.9248 35.0942 53.2351 34.5651C52.5955 34.155 51.8769 35.2097 52.4703 35.6886C57.4543 39.3799 59.4769 32.6531 55.5733 31.9822C55.1435 31.9083 54.9839 32.3867 55.185 32.5311ZM46.2537 28.237C46.3385 27.1838 47.942 26.9446 48.1015 27.9868C48.2444 28.9205 48.0762 29.7782 47.6558 30.6188C47.2541 31.4218 46.2446 31.0471 46.1682 30.3159C46.0659 29.3357 46.2009 28.8922 46.2537 28.237ZM58.4599 27.7707C58.6834 27.4778 59.0062 27.2779 59.393 27.3909C60.6012 27.7441 60.2451 29.4601 59.8208 30.2954C59.5902 30.749 58.8449 30.8641 58.5081 30.4647C57.9591 29.8134 57.6962 28.5127 58.3941 27.8711C58.413 27.838 58.4341 27.8045 58.4599 27.7707ZM47.6388 23.6282L47.8297 23.5948C48.4201 23.4926 49.1543 23.3945 49.5719 23.8694C49.7935 24.1212 49.8697 24.5892 49.5719 24.8303C49.0482 25.2544 48.4691 25.09 47.8414 25.1259C47.3241 25.1556 46.827 25.2412 46.3287 25.3837C45.2357 25.6963 44.345 26.2668 43.4114 26.8933C43.2889 26.9755 43.1638 26.8188 43.2223 26.7042C43.7612 25.6482 44.8056 24.7807 45.8517 24.252C46.4101 23.9697 47.0211 23.7356 47.6388 23.6282ZM57.3584 23.1552L57.5045 23.1851C59.0943 23.5175 61.1597 24.1816 61.9126 25.7437C61.9412 25.9646 61.9109 26.0119 61.8863 26.0429L61.8781 26.0532C61.8578 26.0796 61.8416 26.116 61.7459 26.146C61.7193 26.1397 61.6925 26.133 61.6654 26.1259C61.3203 26.0354 61.0473 25.9108 60.7829 25.7815L60.4964 25.6402C60.1639 25.4771 59.8284 25.32 59.4729 25.204C58.7143 24.9564 57.934 24.782 57.1416 24.6889C56.9698 24.6688 56.8044 24.6108 56.674 24.5114C56.5501 24.4171 56.4555 24.2864 56.4124 24.1128C56.3565 23.8882 56.3725 23.7181 56.493 23.5154C56.5836 23.3632 56.7133 23.2577 56.8621 23.1971C57.0139 23.1353 57.1867 23.1208 57.3584 23.1552Z" fill="black"/>
<path fill-rule="evenodd" clip-rule="evenodd" d="M65.1943 34.6299C64.8574 34.1774 64.2518 33.5835 63.6391 33.6155C63.5608 33.6195 63.5314 33.7045 63.5784 33.7619C63.7788 34.0067 64.0526 34.1808 64.2534 34.4307C64.491 34.7265 64.6625 35.0832 64.774 35.4439C64.9361 35.968 64.9808 36.5611 64.8363 37.0941C64.5818 38.0334 63.7769 38.7219 62.8987 39.0735C62.0295 39.4216 60.9836 39.5405 60.1615 39.0305C58.9481 38.2777 57.919 37.1925 56.3939 37.1711C56.0372 37.1661 55.7858 37.3295 55.636 37.5628C55.4855 37.3378 55.2373 37.1787 54.8895 37.1747C53.1798 37.1555 51.9037 38.3329 50.4687 39.0669C49.4989 39.563 48.2441 39.4091 47.2436 39.0813C46.2998 38.7722 45.2754 38.1515 44.9193 37.1714C44.7228 36.6301 44.7668 35.9981 44.9686 35.4646C45.1013 35.1137 45.3062 34.7747 45.5596 34.499C45.8224 34.213 46.1679 34.0332 46.4371 33.762C46.4921 33.7066 46.4487 33.6205 46.3764 33.6155C45.2331 33.5379 44.2007 34.9036 43.9848 35.8944C43.7723 36.8701 44.0892 37.8433 44.7309 38.5879C46.0355 40.1017 48.4513 40.6009 50.3315 40.1561C51.8533 39.7961 53.2986 38.9671 54.8895 39.086C55.2382 39.1122 55.4885 38.9667 55.6396 38.7463C55.7908 38.9732 56.0428 39.1215 56.3939 39.0876C57.8766 38.9439 59.2 39.9943 60.6391 40.2508C61.785 40.4549 63.0227 40.1796 64.0046 39.562C65.0309 38.9165 65.7534 37.8811 65.8009 36.6466C65.8283 35.9364 65.62 35.2015 65.1943 34.6299Z" fill="black"/>
</svg>
