<svg width="20" height="20" viewBox="0 0 20 20" fill="none" xmlns="http://www.w3.org/2000/svg">
<path d="M2.84857 11.8915C3.42772 12.4784 3.97684 13.4973 3.81146 14.3612L3.3039 18.2534C3.22144 18.683 3.32635 19.1133 3.59147 19.4337C3.83698 19.731 4.19354 19.9013 4.56925 19.9013C4.77435 19.9013 4.9778 19.8517 5.19757 19.7397L8.38585 17.6684C9.16824 17.2768 10.2965 17.2662 10.9479 17.6232L14.2825 19.8123C14.5089 19.937 14.7447 20.0001 14.9836 20.0001C15.3475 20.0001 15.6884 19.8463 15.9191 19.5781C16.1632 19.2943 16.2634 18.9139 16.2019 18.5065L15.6121 14.6105C15.4857 13.7746 15.9002 12.5794 16.503 12.0134L19.4209 9.65737C19.8808 9.31735 20.0809 8.85823 19.9701 8.39723C19.8524 7.90881 19.4027 7.53148 18.8245 7.43597L14.937 6.79301C14.1027 6.65502 13.0944 5.89158 12.7411 5.13943L11.3411 1.64633C11.1022 1.13712 10.5171 0.78125 9.9179 0.78125C9.29412 0.78125 8.80874 1.15128 8.61523 1.77227L6.9406 4.96951L6.83545 5.1758C6.47511 5.88633 6.25795 6.31521 5.23008 6.56213L1.11792 7.08812C0.61107 7.15168 0.217874 7.4513 0.0659213 7.88962C-0.0959401 8.35606 0.0458366 8.89129 0.430046 9.28091L2.84857 11.8915ZM0.545922 8.05622C0.634293 7.80102 0.865864 7.63207 1.1818 7.59237L5.32167 7.06143C6.60523 6.75472 6.92208 6.1295 7.28902 5.40549L9.07682 1.98679C9.08438 1.97214 9.09076 1.95678 9.09525 1.94095C9.26326 1.37385 9.68267 1.28928 9.91823 1.28928C10.3204 1.28928 10.7257 1.53006 10.8757 1.84859L12.2757 5.34169C12.7034 6.25401 13.8605 7.12974 14.8546 7.29415L18.7424 7.93711C19.1186 7.99949 19.4071 8.22681 19.4768 8.51626C19.5382 8.77264 19.4116 9.0328 19.111 9.2554L16.1704 11.6304C15.4353 12.3194 14.9596 13.6906 15.1104 14.6868L15.7002 18.5828C15.7392 18.841 15.6803 19.0771 15.5341 19.2468C15.3039 19.5145 14.8701 19.5544 14.5452 19.3772L11.2106 17.1882C10.804 16.9642 10.3049 16.8458 9.7664 16.8458C9.20331 16.8458 8.63244 16.9767 8.13412 17.2281L4.94583 19.2994C4.60013 19.4722 4.21546 19.3906 3.98317 19.1099C3.81517 18.9065 3.74972 18.6291 3.80595 18.334L4.31351 14.4417C4.51199 13.4068 3.90259 12.2357 3.21614 11.54L0.797479 8.92999C0.544409 8.67337 0.448005 8.33855 0.546066 8.0562L0.545922 8.05622Z" fill="black"/>
</svg>
