<svg width="24" height="32" viewBox="0 0 24 32" fill="none" xmlns="http://www.w3.org/2000/svg">
<path d="M19.452 4.41532C19.7558 4.33901 20.064 4.28063 20.3748 4.24087C21.105 4.23375 21.8109 4.50198 22.352 4.99227C22.8931 5.48253 23.2296 6.15873 23.2939 6.88624C23.3643 8.30578 22.8928 9.46259 21.5475 10.1572C20.6077 10.6424 19.6736 11.0244 18.5772 10.7799C18.2605 10.7091 18.1017 10.8373 17.9339 11.1628C17.0547 12.8694 15.9519 14.3618 13.8784 14.7213V14.7211C13.5357 14.7406 13.2703 15.0282 13.2779 15.3713C13.2333 16.2767 13.1926 17.1832 13.1953 18.0897C13.2907 18.2518 13.4537 18.3623 13.6394 18.3913C14.3784 18.4917 14.4519 18.5331 14.4786 19.282C14.5076 20.0938 14.5246 20.9072 14.5009 21.7179C14.4887 22.132 14.6358 22.272 15.0318 22.2699C15.8607 22.2656 16.69 22.2803 17.5188 22.301C17.7868 22.3076 18.0544 22.3591 18.3223 22.3872C18.7328 22.4304 18.7857 22.6572 18.7613 23.0365C18.6648 24.5321 18.6149 26.0314 18.5402 27.5289C18.5184 27.9686 18.6866 28.1306 19.1466 28.1366C20.1556 28.1497 20.1531 28.1759 20.1974 29.1822C20.2229 29.7609 20.2604 30.3392 20.2901 30.918V30.9178C20.3211 31.0591 20.285 31.2067 20.1924 31.3179C20.1 31.4289 19.9614 31.4912 19.8168 31.4864C19.3162 31.5701 18.7128 31.3917 18.3419 31.9364C18.2224 31.9971 18.0856 32.015 17.9544 31.9872C16.6528 31.9413 15.3507 31.8516 14.05 31.8502C12.9334 31.8491 11.8193 31.9863 10.7027 31.9898C9.45462 31.9937 8.20496 31.9185 6.95618 31.8721C6.28086 31.847 5.60584 31.8043 4.93052 31.7806C4.29222 31.7581 4.18213 31.611 4.15706 30.9826H4.15683C4.12787 30.2945 4.05731 29.6088 3.94514 28.9292C3.87044 28.4709 4.02536 28.2311 4.50183 28.2631C4.6749 28.2748 4.84637 28.3199 5.01944 28.3281C5.38674 28.3454 5.51637 28.1875 5.48512 27.7986C5.38697 26.5767 5.32905 25.3523 5.25458 24.1288C5.24286 23.9365 5.23849 23.7427 5.20861 23.5526C5.10403 22.8846 5.48052 22.5089 6.17831 22.5415C6.94671 22.5776 7.71599 22.576 8.48505 22.5847H8.48528C8.62066 22.6134 8.76155 22.5732 8.86153 22.4776C8.96152 22.3817 9.00772 22.2429 8.98497 22.1062C8.99462 21.2571 8.94428 20.4083 8.83442 19.5661C8.7034 18.889 8.91877 18.6421 9.50808 18.5373C9.65749 18.5107 9.80183 18.4592 10.0319 18.3962C10.0314 17.6348 10.0303 16.8484 10.0303 16.0621C10.0303 15.5521 10.2054 14.9432 9.98295 14.5603C9.76942 14.1928 9.13846 14.0705 8.7018 13.8209V13.8212C7.71045 13.2304 6.90051 12.3784 6.36105 11.3584C6.30244 11.1993 6.18039 11.072 6.02409 11.0067C5.86779 10.9414 5.69151 10.9439 5.53728 11.0141C4.06696 11.4046 2.49868 11.069 1.31703 10.111C-0.192355 8.89278 0.341803 6.90342 1.61537 5.98957C2.31711 5.52711 3.05492 5.1219 3.82167 4.77803C4.10071 4.63966 4.24919 4.51348 4.19564 4.17856C4.12553 3.7407 4.0991 3.29642 4.05267 2.84358H4.0529C4.00992 2.80979 3.96119 2.78428 3.90925 2.76795C2.76232 2.63579 2.58027 2.42916 2.84987 1.31806C3.00433 1.0535 3.27464 0.877437 3.57921 0.843192C4.59351 0.733553 5.61728 0.694253 6.6387 0.646904C7.94632 0.586227 9.25436 0.516118 10.5638 0.501408C11.651 0.488996 12.7404 0.56232 13.8288 0.576795C14.9672 0.591965 16.1054 0.574267 17.2438 0.585069C18.4588 0.596562 19.6738 0.617478 20.889 0.647817C21.5103 0.662528 21.6024 0.786876 21.4956 1.38698C21.482 1.46236 21.4675 1.53799 21.4602 1.6143C21.3758 2.49785 21.3149 2.65366 20.4709 2.73939C19.7678 2.81087 19.546 3.12714 19.5683 3.76611H19.5679C19.5499 3.98562 19.5113 4.20305 19.452 4.41542L19.452 4.41532ZM11.928 14.2265C14.4937 14.1701 16.2376 13.3177 17.1186 11.1697L17.1189 11.17C17.5275 10.2019 17.8518 9.20014 18.0879 8.1762C18.4074 6.716 18.6501 5.24015 18.8147 3.75442C18.94 2.6245 18.8634 2.6192 17.7105 2.6192C16.2468 2.61943 14.7832 2.61024 13.3195 2.60748C12.282 2.60564 11.2431 2.57668 10.2078 2.61644C8.82624 2.66954 7.43724 2.93317 6.0706 2.81894C4.62853 2.69849 4.74621 2.88927 4.88254 4.15068H4.88231C4.89082 4.18861 4.90208 4.22584 4.9161 4.26193C5.22157 5.37896 5.48635 6.50871 5.84308 7.60986C6.22118 8.77703 6.55447 9.98856 7.14217 11.0536V11.0539C8.11881 12.834 9.90817 14.0203 11.9281 14.2265L11.928 14.2265ZM5.84736 23.1591C5.99561 24.6437 6.14525 26.1386 6.29419 27.6335C6.2827 27.7997 6.3482 27.9618 6.47163 28.0735C6.59506 28.1852 6.76308 28.2339 6.92719 28.2059C7.8484 28.1716 8.77126 28.1649 9.69318 28.1454C10.8091 28.122 11.9248 28.0834 13.0409 28.0758C14.5203 28.0657 16.0002 28.0806 17.4798 28.082C17.6057 28.0983 17.7317 28.053 17.8186 27.9606C17.9057 27.8682 17.9429 27.7397 17.9192 27.6152C17.9445 26.4011 18.0038 25.1884 18.0268 23.9744C18.0443 23.0534 17.9349 22.9462 17.0019 22.9587C15.3438 22.981 13.6866 23.0255 12.0287 23.0554C10.0109 23.0922 7.99255 23.1235 5.84745 23.1591L5.84736 23.1591ZM6.47578 31.1979C7.31221 31.2467 8.05872 31.3246 8.80412 31.3267C10.5197 31.3315 12.2346 31.3152 13.9495 31.2772C15.1752 31.2497 16.3999 31.1819 17.6224 31.1007V31.101C17.8038 31.0679 17.9557 30.9444 18.0251 30.7736C18.0221 30.1485 17.9543 29.5226 17.9058 28.8572C16.8122 28.8388 15.799 28.8009 14.7868 28.8092C12.13 28.8305 9.47388 28.876 6.8168 28.9009C6.69314 28.8705 6.56282 28.9078 6.47387 28.9988C6.38492 29.09 6.3509 29.2213 6.38423 29.3442C6.42192 29.92 6.44215 30.4967 6.47548 31.198L6.47578 31.1979ZM20.6635 1.31205C20.2482 1.32791 19.8976 1.36078 19.5474 1.35113C18.5503 1.32401 17.5532 1.25735 16.5566 1.24678C14.5691 1.22586 12.5795 1.18426 10.5948 1.23965C8.40182 1.3008 6.213 1.45617 4.02347 1.58672C3.82971 1.63131 3.64445 1.70647 3.47437 1.80945L3.52792 2.03585C9.18377 1.98873 14.8395 1.94184 20.5541 1.89427C20.5716 1.80187 20.6086 1.60374 20.6633 1.31206L20.6635 1.31205ZM12.6123 19.8399V19.8371C11.806 19.8236 10.999 19.8263 10.1934 19.7895C9.83002 19.773 9.70315 19.9024 9.73877 20.2506C9.80267 20.7073 9.83898 21.1672 9.84703 21.6283C9.83852 22.0556 10.0247 22.1588 10.4033 22.159C11.1898 22.1597 11.977 22.1827 12.7638 22.2073C13.7289 22.2374 13.7615 22.2082 13.745 21.2217H13.7448C13.734 20.9905 13.7358 20.7588 13.7501 20.5278C13.7965 20.0221 13.5724 19.8084 13.075 19.8454C12.9221 19.8569 12.7668 19.8424 12.6123 19.8399L12.6123 19.8399ZM18.387 10.1423C18.8 10.1492 19.1775 10.1708 19.5532 10.1591C20.2018 10.1701 20.8351 9.96027 21.3492 9.5645C21.8632 9.16847 22.2275 8.60969 22.3824 7.97945C22.5914 7.22346 22.4125 6.41281 21.9048 5.81475C21.3971 5.21692 20.6262 4.90889 19.8461 4.9928C19.7008 4.98636 19.559 5.039 19.453 5.13875C19.3468 5.23851 19.2857 5.37665 19.2832 5.52214C19.2616 5.85289 19.4392 5.94896 19.7231 6.01401V6.01424C20.0258 6.08389 20.3201 6.18594 20.6011 6.31833C20.8972 6.43739 21.1438 6.65368 21.2999 6.93181C21.4562 7.20992 21.5129 7.5331 21.4603 7.84796C21.2723 8.93034 20.1968 9.39301 19.0722 9.41919C18.532 9.4316 18.3916 9.59525 18.387 10.1423L18.387 10.1423ZM5.65913 10.2069C5.68878 10.1345 5.71843 10.0619 5.74808 9.98947C5.52145 9.88787 5.28724 9.80421 5.04752 9.73962C4.46348 9.62676 3.81416 9.67067 3.30342 9.41807V9.41784C2.8035 9.14777 2.39739 8.73222 2.13831 8.22631C1.87467 7.70387 2.24358 7.24673 2.71546 6.93387C3.20641 6.60817 3.69575 6.27832 4.16418 5.92251C4.27382 5.79311 4.35725 5.6437 4.40989 5.48258C4.2637 5.38443 4.09499 5.3249 3.91962 5.30974C2.92874 5.64302 1.98658 6.07537 1.423 7.01912C1.14673 7.4248 1.04927 7.92586 1.15316 8.40536C1.25705 8.88482 1.5531 9.30062 1.97235 9.55576C3.11469 10.3265 4.36529 10.4172 5.65908 10.2069L5.65913 10.2069ZM10.7528 16.6935L10.7385 16.6933C10.7491 16.8661 10.7633 17.0392 10.7693 17.2121C10.7815 17.5743 10.6558 18.046 10.838 18.2661C11.0026 18.4647 11.5106 18.3526 11.851 18.4422C12.2642 18.5509 12.3826 18.3374 12.4079 18.0135C12.4757 17.1396 12.5185 16.2635 12.5865 15.3896V15.3898C12.6235 15.2783 12.6 15.1558 12.5244 15.0662C12.4488 14.9765 12.332 14.9326 12.216 14.9501C10.7751 14.8561 10.7751 14.8494 10.7525 16.2897C10.7505 16.4244 10.7525 16.5591 10.7528 16.6935H10.7528ZM5.3401 8.95065C5.11691 8.08345 4.91051 7.28056 4.66666 6.3327C4.11871 6.68666 3.66313 6.9487 3.24436 7.25991C2.74076 7.6341 2.74191 7.96718 3.23838 8.37189C3.8385 8.86123 4.54853 8.95087 5.34012 8.95064L5.3401 8.95065ZM18.777 8.71298V8.71321C19.0257 8.73551 19.276 8.73758 19.5252 8.71896C20.043 8.63184 20.5648 8.49348 20.6767 7.88024C20.7539 7.45778 20.2149 6.96797 19.5794 6.76938C19.2609 6.66986 19.1085 6.7549 19.0567 7.07186C18.9745 7.57729 18.8851 8.08157 18.777 8.71323L18.777 8.71298ZM19.3089 29.8439H19.3052C19.324 29.5936 19.319 29.3422 19.2903 29.0928C19.2443 28.9526 19.1303 28.8452 18.9878 28.8075C18.8423 28.8409 18.7253 28.9489 18.6809 29.0914C18.6929 29.6111 18.7327 30.1296 18.7998 30.6449C18.8363 30.7582 18.9285 30.8449 19.0439 30.8743C19.1613 30.8508 19.2576 30.767 19.2972 30.6539C19.3181 30.3845 19.322 30.114 19.3086 29.8439L19.3089 29.8439ZM5.29356 31.1278H5.46617L5.46457 28.9245C4.89363 29.0167 4.81043 30.4659 5.29356 31.1278H5.29356ZM9.66456 18.9695C9.8528 19.3384 11.4716 19.4187 13.0367 19.0259L9.66456 18.9695Z" fill="black"/>
</svg>
