<svg width="24" height="32" viewBox="0 0 24 32" fill="none" xmlns="http://www.w3.org/2000/svg">
<path d="M19.8517 4.41532C20.1556 4.33901 20.4638 4.28063 20.7746 4.24087C21.5048 4.23375 22.2107 4.50198 22.7518 4.99227C23.2928 5.48253 23.6293 6.15873 23.6937 6.88624C23.764 8.30578 23.2926 9.46259 21.9473 10.1572C21.0074 10.6424 20.0733 11.0244 18.977 10.7799C18.6603 10.7091 18.5015 10.8373 18.3336 11.1628C17.4545 12.8694 16.3516 14.3618 14.2782 14.7213V14.7211C13.9355 14.7406 13.67 15.0282 13.6776 15.3713C13.633 16.2767 13.5923 17.1832 13.5951 18.0897C13.6905 18.2518 13.8535 18.3623 14.0392 18.3913C14.7782 18.4917 14.8517 18.5331 14.8784 19.282C14.9073 20.0938 14.9243 20.9072 14.9007 21.7179C14.8885 22.132 15.0356 22.272 15.4316 22.2699C16.2604 22.2656 17.0897 22.2803 17.9186 22.301C18.1866 22.3076 18.4541 22.3591 18.7221 22.3872C19.1326 22.4304 19.1855 22.6572 19.1611 23.0365C19.0646 24.5321 19.0147 26.0314 18.94 27.5289C18.9182 27.9686 19.0864 28.1306 19.5464 28.1366C20.5554 28.1497 20.5528 28.1759 20.5972 29.1822C20.6227 29.7609 20.6602 30.3392 20.6898 30.918V30.9178C20.7208 31.0591 20.6848 31.2067 20.5921 31.3179C20.4997 31.4289 20.3611 31.4912 20.2166 31.4864C19.716 31.5701 19.1126 31.3917 18.7417 31.9364C18.6221 31.9971 18.4854 32.015 18.3541 31.9872C17.0525 31.9413 15.7504 31.8516 14.4497 31.8502C13.3331 31.8491 12.2191 31.9863 11.1025 31.9898C9.85439 31.9937 8.60473 31.9185 7.35595 31.8721C6.68063 31.847 6.00561 31.8043 5.33029 31.7806C4.69198 31.7581 4.58189 31.611 4.55682 30.9826H4.55659C4.52763 30.2945 4.45707 29.6088 4.3449 28.9292C4.2702 28.4709 4.42512 28.2311 4.90159 28.2631C5.07467 28.2748 5.24613 28.3199 5.41921 28.3281C5.7865 28.3454 5.91614 28.1875 5.88488 27.7986C5.78673 26.5767 5.72882 25.3523 5.65434 24.1288C5.64262 23.9365 5.63825 23.7427 5.60837 23.5526C5.50379 22.8846 5.88028 22.5089 6.57807 22.5415C7.34647 22.5776 8.11576 22.576 8.88481 22.5847H8.88504C9.02042 22.6134 9.16132 22.5732 9.2613 22.4776C9.36128 22.3817 9.40748 22.2429 9.38473 22.1062C9.39438 21.2571 9.34405 20.4083 9.23418 19.5661C9.10317 18.889 9.31853 18.6421 9.90785 18.5373C10.0573 18.5107 10.2016 18.4592 10.4317 18.3962C10.4312 17.6348 10.4301 16.8484 10.4301 16.0621C10.4301 15.5521 10.6052 14.9432 10.3827 14.5603C10.1692 14.1928 9.53823 14.0705 9.10157 13.8209V13.8212C8.11022 13.2304 7.30027 12.3784 6.76082 11.3584C6.70221 11.1993 6.58016 11.072 6.42386 11.0067C6.26756 10.9414 6.09127 10.9439 5.93704 11.0141C4.46673 11.4046 2.89844 11.069 1.7168 10.111C0.20741 8.89278 0.741568 6.90342 2.01514 5.98957C2.71687 5.52711 3.45468 5.1219 4.22144 4.77803C4.50047 4.63966 4.64895 4.51348 4.5954 4.17856C4.5253 3.7407 4.49887 3.29642 4.45244 2.84358H4.45267C4.40968 2.80979 4.36096 2.78428 4.30901 2.76795C3.16208 2.63579 2.98003 2.42916 3.24964 1.31806C3.4041 1.0535 3.6744 0.877437 3.97897 0.843192C4.99327 0.733553 6.01705 0.694253 7.03846 0.646904C8.34609 0.586227 9.65412 0.516118 10.9636 0.501408C12.0508 0.488996 13.1402 0.56232 14.2285 0.576795C15.367 0.591965 16.5051 0.574267 17.6436 0.585069C18.8585 0.596562 20.0736 0.617478 21.2887 0.647817C21.91 0.662528 22.0022 0.786876 21.8953 1.38698C21.8818 1.46236 21.8673 1.53799 21.8599 1.6143C21.7756 2.49785 21.7147 2.65366 20.8707 2.73939C20.1676 2.81087 19.9458 3.12714 19.9681 3.76611H19.9676C19.9497 3.98562 19.9111 4.20305 19.8518 4.41542L19.8517 4.41532ZM12.3277 14.2265C14.8935 14.1701 16.6374 13.3177 17.5184 11.1697L17.5186 11.17C17.9273 10.2019 18.2516 9.20015 18.4877 8.1762C18.8072 6.716 19.0499 5.24015 19.2145 3.75442C19.3398 2.6245 19.2632 2.6192 18.1103 2.6192C16.6466 2.61943 15.1829 2.61024 13.7193 2.60748C12.6817 2.60564 11.6428 2.57668 10.6076 2.61644C9.226 2.66954 7.83701 2.93317 6.47037 2.81894C5.02829 2.69849 5.14597 2.88927 5.28231 4.15068H5.28208C5.29058 4.18861 5.30185 4.22584 5.31587 4.26193C5.62133 5.37896 5.88612 6.50871 6.24285 7.60986C6.62095 8.77703 6.95423 9.98856 7.54194 11.0536V11.0539C8.51858 12.834 10.3079 14.0203 12.3278 14.2265L12.3277 14.2265ZM6.24713 23.1591C6.39538 24.6437 6.54501 26.1386 6.69396 27.6335C6.68246 27.7997 6.74797 27.9618 6.87139 28.0735C6.99483 28.1852 7.16284 28.2339 7.32695 28.2059C8.24817 28.1716 9.17103 28.1649 10.0929 28.1454C11.2089 28.122 12.3245 28.0834 13.4407 28.0758C14.92 28.0657 16.4 28.0806 17.8795 28.082C18.0055 28.0983 18.1315 28.053 18.2183 27.9606C18.3055 27.8682 18.3427 27.7397 18.319 27.6152C18.3443 26.4011 18.4036 25.1884 18.4266 23.9744C18.444 23.0534 18.3346 22.9462 17.4017 22.9587C15.7435 22.981 14.0864 23.0255 12.4284 23.0554C10.4106 23.0922 8.39232 23.1235 6.24721 23.1591L6.24713 23.1591ZM6.87555 31.1979C7.71197 31.2467 8.45849 31.3246 9.20389 31.3267C10.9195 31.3315 12.6344 31.3152 14.3492 31.2772C15.575 31.2497 16.7997 31.1819 18.0222 31.1007V31.101C18.2035 31.0679 18.3555 30.9444 18.4249 30.7736C18.4219 30.1485 18.3541 29.5226 18.3056 28.8572C17.212 28.8388 16.1988 28.8009 15.1866 28.8092C12.5298 28.8305 9.87364 28.876 7.21656 28.9009C7.0929 28.8705 6.96258 28.9078 6.87363 28.9988C6.78468 29.09 6.75067 29.2213 6.78399 29.3442C6.82169 29.92 6.84191 30.4967 6.87524 31.198L6.87555 31.1979ZM21.0633 1.31205C20.6479 1.32791 20.2974 1.36078 19.9471 1.35113C18.9501 1.32401 17.9529 1.25735 16.9564 1.24678C14.9689 1.22586 12.9793 1.18426 10.9946 1.23965C8.80159 1.3008 6.61277 1.45617 4.42324 1.58672C4.22947 1.63131 4.04422 1.70647 3.87413 1.80945L3.92769 2.03585C9.58354 1.98873 15.2393 1.94184 20.9539 1.89427C20.9714 1.80187 21.0084 1.60374 21.0631 1.31206L21.0633 1.31205ZM13.0121 19.8399V19.8371C12.2058 19.8236 11.3988 19.8263 10.5932 19.7895C10.2298 19.773 10.1029 19.9024 10.1385 20.2506C10.2024 20.7073 10.2387 21.1672 10.2468 21.6283C10.2383 22.0556 10.4245 22.1588 10.803 22.159C11.5895 22.1597 12.3768 22.1827 13.1635 22.2073C14.1287 22.2374 14.1613 22.2082 14.1448 21.2217H14.1445C14.1337 20.9905 14.1356 20.7588 14.1498 20.5278C14.1963 20.0221 13.9722 19.8084 13.4747 19.8454C13.3219 19.8569 13.1665 19.8424 13.0121 19.8399L13.0121 19.8399ZM18.7868 10.1423C19.1998 10.1492 19.5772 10.1708 19.953 10.1591C20.6016 10.1701 21.2349 9.96027 21.749 9.5645C22.2629 9.16847 22.6273 8.60969 22.7822 7.97945C22.9911 7.22346 22.8123 6.41281 22.3046 5.81475C21.7968 5.21692 21.026 4.90889 20.2458 4.9928C20.1006 4.98636 19.9588 5.039 19.8528 5.13875C19.7466 5.23851 19.6855 5.37665 19.6829 5.52214C19.6613 5.85289 19.839 5.94896 20.1229 6.01401V6.01424C20.4256 6.08389 20.7198 6.18594 21.0009 6.31833C21.2969 6.43739 21.5436 6.65368 21.6996 6.93181C21.8559 7.20992 21.9127 7.5331 21.8601 7.84796C21.6721 8.93034 20.5966 9.39301 19.472 9.41919C18.9318 9.4316 18.7914 9.59525 18.7868 10.1423L18.7868 10.1423ZM6.0589 10.2069C6.08855 10.1345 6.1182 10.0619 6.14785 9.98947C5.92121 9.88787 5.687 9.80421 5.44729 9.73962C4.86324 9.62676 4.21392 9.67067 3.70318 9.41807V9.41784C3.20326 9.14777 2.79715 8.73222 2.53807 8.22631C2.27444 7.70387 2.64335 7.24673 3.11522 6.93387C3.60618 6.60817 4.09551 6.27832 4.56394 5.92251C4.67358 5.79311 4.75701 5.6437 4.80965 5.48258C4.66347 5.38443 4.49476 5.3249 4.31939 5.30974C3.32851 5.64302 2.38635 6.07537 1.82277 7.01912C1.54649 7.4248 1.44903 7.92586 1.55293 8.40536C1.65682 8.88482 1.95287 9.30062 2.37211 9.55576C3.51445 10.3265 4.76506 10.4172 6.05885 10.2069L6.0589 10.2069ZM11.1525 16.6935L11.1383 16.6933C11.1488 16.8661 11.1631 17.0392 11.1691 17.2121C11.1812 17.5743 11.0555 18.046 11.2378 18.2661C11.4024 18.4647 11.9103 18.3526 12.2507 18.4422C12.664 18.5509 12.7824 18.3374 12.8077 18.0135C12.8755 17.1396 12.9182 16.2635 12.9863 15.3896V15.3898C13.0233 15.2783 12.9998 15.1558 12.9242 15.0662C12.8486 14.9765 12.7318 14.9326 12.6157 14.9501C11.1748 14.8561 11.1748 14.8494 11.1523 16.2897C11.1502 16.4244 11.1523 16.5591 11.1525 16.6935H11.1525ZM5.73986 8.95065C5.51668 8.08345 5.31028 7.28056 5.06643 6.3327C4.51847 6.68666 4.0629 6.9487 3.64412 7.25991C3.14053 7.6341 3.14168 7.96718 3.63815 8.37189C4.23827 8.86123 4.9483 8.95087 5.73989 8.95064L5.73986 8.95065ZM19.1768 8.71298V8.71321C19.4255 8.73551 19.6758 8.73758 19.9249 8.71896C20.4428 8.63184 20.9645 8.49348 21.0765 7.88024C21.1537 7.45778 20.6147 6.96797 19.9792 6.76938C19.6606 6.66986 19.5082 6.7549 19.4565 7.07186C19.3742 7.57729 19.2848 8.08157 19.1768 8.71323L19.1768 8.71298ZM19.7086 29.8439H19.705C19.7238 29.5936 19.7188 29.3422 19.69 29.0928C19.6441 28.9526 19.53 28.8452 19.3875 28.8075C19.2421 28.8409 19.1251 28.9489 19.0807 29.0914C19.0927 29.6111 19.1324 30.1296 19.1995 30.6449C19.2361 30.7582 19.3282 30.8449 19.4436 30.8743C19.5611 30.8508 19.6574 30.767 19.6969 30.6539C19.7178 30.3845 19.7217 30.114 19.7084 29.8439L19.7086 29.8439ZM5.69332 31.1278H5.86594L5.86433 28.9245C5.29339 29.0167 5.2102 30.4659 5.69333 31.1278H5.69332ZM10.0643 18.9695C10.2526 19.3384 11.8714 19.4187 13.4364 19.0259L10.0643 18.9695Z" fill="black" fill-opacity="0.42"/>
</svg>
