<svg width="94" height="138" viewBox="0 0 94 138" fill="none" xmlns="http://www.w3.org/2000/svg">
<path fill-rule="evenodd" clip-rule="evenodd" d="M41.6629 88.0593C41.5028 89.7269 41.8301 91.3195 42.6099 92.6658L42.8636 93.1038L42.3807 93.2724C41.5019 93.5793 40.5247 93.7285 39.3931 93.7285C38.2285 93.7285 37.0175 93.5666 36.0444 93.4364L35.4213 93.3531L35.7274 92.8128C35.9735 92.3786 36.019 91.8524 36.0673 91.2953C36.0803 91.1456 36.0937 90.9909 36.1113 90.8378C37.0333 82.6095 38.1988 74.2739 39.3259 66.2128C39.6226 64.0916 39.9293 61.8981 40.2268 59.7404L41.0803 59.7733C41.3099 63.767 41.5327 67.8282 41.7481 71.7557C41.8429 73.4828 41.9377 75.2099 42.0332 76.9368C42.3738 81.3027 42.2562 84.8378 41.6629 88.0593ZM41.3146 137.401C42.568 137.401 43.8238 137.271 45.047 137.014C48.8748 136.211 52.3524 134.319 55.3115 132.608C55.4626 132.522 55.6159 132.437 55.7733 132.349C56.9318 131.702 58.3735 130.896 59.277 129.914C60.2682 128.837 60.4388 127.763 59.8138 126.535L59.7149 126.341L59.8182 126.149C60.4654 124.946 60.4173 123.458 59.7013 122.531L59.0995 121.751L60.0889 121.856C61.0865 121.962 62.092 122.105 63.0644 122.243C64.1433 122.397 65.2592 122.556 66.358 122.662L66.6634 122.692L66.7336 122.986C66.7727 123.149 66.821 123.248 67.16 123.248C67.454 123.248 67.849 123.162 68.2671 123.071C68.786 122.959 69.3742 122.831 69.9414 122.831C70.1908 122.831 70.4152 122.854 70.6274 122.903L70.7509 122.932L70.8388 123.022C70.895 123.079 70.9907 123.115 71.0884 123.115C71.1624 123.115 71.2309 123.094 71.2768 123.058L71.4153 122.95L71.5912 122.969C74.6546 123.305 77.2961 123.895 79.6665 124.771L79.6772 124.775L79.7286 124.797C80.5857 125.167 81.4719 125.548 82.2789 125.548C82.8689 125.548 83.348 125.348 83.7867 124.918L83.9107 124.796L84.0856 124.795C85.8602 124.778 86.6711 122.712 86.7832 121.328L86.7973 121.153L86.9325 121.04C90.0252 118.449 91.851 114.89 92.5144 110.16C93.1186 105.852 92.6547 101.31 92.1212 97.4347C90.8871 87.3921 89.6 78.3893 86.3281 69.8507L86.1753 69.4516L86.5826 69.3055C87.9957 68.7985 89.0757 68.1937 89.8844 67.4563L89.9403 67.4051L90.0108 67.3762C91.1698 66.9008 91.7374 65.1461 91.8837 64.6196L91.8955 64.5771L91.9159 64.538C92.1524 64.0852 92.2069 63.4552 92.0655 62.8096L92.0503 62.7401L92.0591 62.6694C92.1355 62.0565 91.882 61.4157 91.6137 60.7372C91.491 60.4272 91.3643 60.1069 91.2717 59.7878C90.9534 58.8759 90.6354 57.9478 90.3278 57.0502C89.6377 55.0363 88.9241 52.9539 88.164 50.9281L88.06 50.6511L88.289 50.4601C88.68 50.1341 88.5495 49.7503 87.9857 48.8326C87.8524 48.6158 87.7264 48.4107 87.6306 48.2087C86.9079 46.9619 86.1334 45.7651 85.3281 44.651L85.3116 44.6282L85.2983 44.6034C81.1662 36.8986 73.8366 32.6554 64.6597 32.6554L64.4727 32.6558L64.3693 32.5937C62.6493 31.561 61.4216 29.7893 60.6158 27.1771L60.59 27.0939L60.6 27.0074C60.6276 26.7666 60.6578 26.451 60.6475 26.1447C60.6212 25.369 60.3167 24.6768 59.812 24.2455C58.8545 23.4273 57.4009 23.3588 55.9941 23.3588H55.7921C53.9934 23.3643 52.7236 23.676 51.7957 24.3405C50.7178 25.1124 50.122 26.3585 49.9743 28.15C49.9302 28.6861 49.9317 29.2414 49.9331 29.7785L49.9334 29.9284L49.9153 29.9879C49.7861 30.4137 49.6346 30.8228 49.4653 31.204L49.2911 31.5961L48.895 31.4193C48.6388 31.305 48.314 31.2462 47.9019 31.2396C47.783 31.2369 47.6671 31.2356 47.5502 31.2356C46.5933 31.2356 45.5696 31.3228 44.5796 31.4072C43.8337 31.4707 43.0623 31.5365 42.3157 31.5657L42.3054 31.5661C42.3054 31.5661 42.2023 31.5655 42.1561 31.5655C40.3414 31.5655 39.0258 31.8504 38.0161 32.4622C36.9289 33.1209 36.1472 34.178 35.5561 35.7891C32.3854 45.0238 31.0819 54.9709 29.9322 63.7467C29.28 68.3359 29.0816 73.0407 28.8898 77.5905C28.6872 82.3929 28.4778 87.3588 27.7364 92.2131L27.6779 92.5968L27.2842 92.5714C25.5516 92.4598 23.6792 92.2194 21.697 91.9648C18.6853 91.578 15.571 91.178 12.5604 91.178C8.35101 91.178 5.15938 92.005 2.8047 93.7057C1.16311 95.2502 0.313866 97.3412 0.348755 99.7544C0.398094 103.164 2.20449 106.934 4.95073 109.358L4.96111 109.367C8.43239 112.642 14.7688 115.481 23.7942 117.808C32.0936 119.947 40.6783 121.11 45.057 121.612L46.1407 121.737L45.261 122.372C44.905 122.629 44.5802 122.855 44.2679 123.063L44.0665 123.198L43.8458 123.097C43.2166 122.809 42.817 122.748 42.5924 122.748C42.3931 122.748 42.1527 122.792 42.1395 122.997C42.1308 123.132 42.2269 123.332 42.4298 123.358L43.5069 123.492L42.6274 124.118C42.0399 124.536 41.1634 125.041 40.1485 125.625C36.8279 127.535 31.8098 130.421 32.6728 132.956L32.7295 133.123L32.6492 133.28C32.4173 133.734 32.3975 134.155 32.5889 134.568C32.9986 135.452 34.2803 136.124 35.3688 136.397L35.3875 136.402L35.4057 136.408C37.2997 137.067 39.2878 137.401 41.3146 137.401Z" fill="white"/>
<mask id="mask0_38_17280" style="mask-type:alpha" maskUnits="userSpaceOnUse" x="-1" y="25" width="95" height="113">
<path d="M93.3 25.0011H-0.00791168V137.794H93.3V25.0011Z" fill="white"/>
</mask>
<g mask="url(#mask0_38_17280)">
<path fill-rule="evenodd" clip-rule="evenodd" d="M35.0258 93.246C34.8034 92.0351 35.2252 90.7848 35.2982 89.5655C36.4022 80.8682 37.6213 72.1767 39.2366 63.5555C39.6328 61.4923 40.0331 59.4375 40.4922 57.3856C40.4228 56.143 40.362 54.9005 40.322 53.6572C38.0803 52.2501 35.5527 51.3395 32.9386 50.8803C32.2321 54.8098 31.5264 58.7364 31.0365 62.7011C29.5099 72.5142 30.3808 82.4997 28.9 92.3016C30.9544 92.5316 32.9929 92.8719 35.0258 93.246ZM31.0828 100.891C32.6276 101.301 34.1739 101.694 35.7311 102.055C38.5021 102.7 41.2725 103.346 44.0365 104.019C45.416 104.355 46.7987 104.681 48.1754 105.027C48.8288 105.192 49.4779 105.375 50.1172 105.587C50.4362 105.693 50.7481 105.814 51.0598 105.938C51.333 106.048 51.5907 106.198 51.891 106.177C51.9089 106.175 51.92 106.158 51.9112 106.142C51.7541 105.853 51.4304 105.717 51.1446 105.571C50.8295 105.41 50.5012 105.272 50.1725 105.141C49.4426 104.848 48.6823 104.633 47.924 104.425C45.1679 103.668 42.3882 102.989 39.6114 102.31C36.8213 101.628 34.0311 100.975 31.204 100.459C30.9192 100.407 30.796 100.815 31.0828 100.891ZM44.7674 124.208C44.6437 124.175 44.5193 124.145 44.3955 124.116C42.4135 125.763 33.0787 130.042 33.7887 132.597C34.0397 132.915 34.6403 132.987 35.0201 133.09C35.6815 133.269 36.3493 133.423 37.0235 133.546C39.203 133.942 41.4603 134.011 43.637 133.559C44.4377 133.437 45.1606 133.096 45.89 132.767C48.2467 131.731 50.8423 130.588 53.1877 129.561C56.1673 128.382 61.3935 126.058 59.244 122.136C57.2076 124.423 54.6227 124.223 53.3206 121.381C52.8716 120.518 52.4798 119.355 51.4251 119.006C50.8688 118.631 50.1573 118.553 49.6925 118.971C49.6589 118.919 49.6289 118.846 49.6125 118.781C49.0884 119.526 48.6365 120.31 48.0223 120.991C48.2331 121.002 50.4283 122.624 49.7806 122.625C49.0011 122.224 48.2267 121.89 47.3852 121.674C46.7752 122.287 46.1045 122.856 45.4095 123.383C46.0845 123.828 46.6909 124.373 47.1785 124.965C47.2207 125.017 47.1692 125.084 47.1062 125.056C46.349 124.719 45.5704 124.423 44.7674 124.208ZM34.7197 135.258C42.3013 138.658 50.3276 134.872 56.7929 130.836C58.2851 130.004 60.2479 128.824 59.9462 126.866C58.8471 128.471 57.0353 129.386 55.2963 130.178C52.3746 131.497 49.4338 132.773 46.5049 134.075C46.2283 134.991 44.9054 135.027 44.106 135.23C40.5472 135.919 36.7218 135.577 33.3725 134.203C33.5664 134.776 34.2006 135.039 34.7197 135.258ZM64.9686 122.019C65.1559 122.043 65.3433 122.064 65.5306 122.086C65.5113 121.838 65.6607 121.591 65.901 121.514C65.793 120.989 65.753 120.447 65.8109 119.915C65.4977 120.723 64.4867 120.477 63.8445 120.245C62.9271 119.996 62.0155 119.728 61.1088 119.442C60.7513 120.105 60.3724 120.759 59.9068 121.359C61.6015 121.51 63.2804 121.809 64.9686 122.019ZM65.7143 119.477C65.7594 119.572 65.8237 119.673 65.8252 119.787C65.8709 119.394 65.9603 119.006 66.0962 118.634C65.969 118.915 65.8416 119.196 65.7143 119.477ZM66.784 117.37C67.6178 116.285 69.1587 115.398 70.583 115.701C70.6746 115.72 70.6768 115.867 70.583 115.886C68.6697 116.145 66.9893 117.66 66.9228 119.62C66.772 120.506 67.3897 121.377 67.1816 122.228C67.2231 122.231 67.2645 122.233 67.3053 122.235C67.3203 122.292 67.334 122.343 67.3518 122.387C67.1451 122.422 67.0844 122.754 67.3283 122.813C67.4726 122.848 67.6236 122.866 67.7772 122.874C68.5573 122.664 69.3803 122.615 70.1262 122.304C70.864 121.979 70.6796 121.064 70.9399 120.43C71.1307 119.7 71.3503 118.972 71.627 118.271C71.647 118.214 71.7235 118.227 71.7299 118.284C71.9251 119.683 71.9187 121.105 71.8715 122.515C72.1275 122.541 72.3821 122.57 72.6374 122.602C72.6209 122.208 73.8043 117.41 74.4278 118.641C74.1139 119.995 74.076 121.409 74.0424 122.802C75.8936 123.107 77.7177 123.56 79.4924 124.178C80.743 124.556 82.2303 125.676 83.4444 124.664C84.3846 123.887 84.7014 122.533 84.6127 121.38C83.3901 114.561 73.7328 113.765 68.0318 114.269C67.4934 115.509 66.9449 116.746 66.3893 117.979C66.5045 117.767 66.636 117.563 66.784 117.37ZM86.228 121.247C86.3324 119.699 86.0715 117.772 84.9224 116.618C82.2925 114.398 78.61 113.699 75.3237 112.896C73.7929 112.594 72.2412 112.393 70.6832 112.294C70.1304 112.25 69.4282 112.375 69.0379 111.924C68.8369 112.399 68.6332 112.874 68.4293 113.348C74.9719 112.493 88.622 115.466 84.7994 124.414C85.6089 123.538 86.1451 122.472 86.228 121.247ZM90.7957 92.585C90.6126 91.256 90.4125 89.9283 90.2008 88.6028C89.3356 82.2627 87.5473 76.0921 86.4811 69.795C84.6357 70.3941 82.7458 70.8505 80.8824 71.3898C84.9202 78.0941 88.223 85.2133 90.7957 92.585ZM75.6338 86.3466C75.9888 84.6616 76.387 82.9446 76.5679 81.2318C76.5761 81.1548 76.4575 81.1466 76.4363 81.2142C76.1398 82.1627 75.9377 83.1461 75.6876 84.1077C75.4365 85.0727 75.2032 86.0421 74.956 87.0081C74.877 87.3165 74.7979 87.6248 74.7186 87.9332C74.6712 87.9352 74.6238 87.9368 74.5767 87.9379C74.3957 87.9421 74.3414 88.169 74.487 88.2635C74.5296 88.291 74.5722 88.3152 74.615 88.3368C73.858 91.2763 73.0824 94.2093 72.236 97.1263C71.2497 100.526 70.1392 103.884 69.2517 107.311C69.2312 107.39 69.2679 107.445 69.3217 107.469C68.8601 109.028 68.4732 110.608 68.0512 112.179C67.9633 112.506 68.4473 112.718 68.6127 112.412C68.8675 111.94 68.9238 111.296 69.0485 110.777C69.189 110.193 69.3225 109.608 69.4558 109.023C69.6678 108.091 69.858 107.148 70.0148 106.204C70.5991 104.738 71.1224 103.255 71.5854 101.744C72.6224 98.359 73.579 94.9513 74.4305 91.5168C74.6819 90.503 74.9283 89.4878 75.1634 88.4701C76.2338 88.4866 77.3523 87.2776 78.4279 87.9212C78.4777 87.951 78.5281 87.8833 78.4889 87.8436C78.0601 87.4098 77.4674 87.372 76.8916 87.4793C76.5174 87.5491 76.1587 87.6814 75.7923 87.7812C75.631 87.8251 75.4653 87.8573 75.2978 87.8813C75.4133 87.3704 75.5259 86.859 75.6338 86.3466ZM52.5727 118.249C53.1197 118.606 53.5659 119.134 53.8805 119.702C55.897 124.969 58.0534 122.148 60.7328 119.321C58.4654 118.467 55.4622 117.827 53.7232 116.129C53.4222 116.88 53.0539 117.595 52.5727 118.249ZM53.2941 105.402C53.4692 104.535 53.6135 103.663 53.7448 102.789C53.8708 101.951 54.0676 101.053 54.0355 100.205C54.0343 100.171 53.9865 100.165 53.9762 100.197C53.7037 101.043 53.622 101.978 53.4491 102.849C53.2819 103.691 53.0981 104.53 52.913 105.368C52.5329 107.09 51.9954 108.785 51.67 110.516C51.6351 110.702 51.8862 110.767 51.9544 110.593C52.6059 108.937 52.9434 107.138 53.2941 105.402ZM90.1729 66.3563C91.0538 65.4091 91.746 64.1996 91.6122 62.9163C91.0831 62.2117 90.9079 61.2926 90.5997 60.4783C89.3949 57.0706 88.2766 53.6368 86.9653 50.2657C84.1759 51.1222 81.4316 52.1496 78.8431 53.499C78.367 53.7416 77.8957 53.9934 77.4302 54.2542C76.9426 54.5271 76.4106 55.001 75.8257 54.8653C76.4649 55.7689 77.7813 56.7091 78.0037 57.7534C78.0516 58.0839 77.817 58.3905 77.4567 58.3166C71.8158 62.3171 65.9903 66.2333 60.6584 70.6894C56.6656 73.8454 53.6003 76.4051 52.2309 81.5258C51.3078 84.8428 51.305 88.3095 51.4408 91.7201C51.4673 92.3831 51.468 93.0618 51.5216 93.7291C51.4415 94.2284 51.5938 95.2445 52.1558 95.2628C52.143 95.3837 52.1029 95.4955 52.0393 95.594C52.0572 95.6178 52.0757 95.6404 52.0951 95.6636C52.1229 95.5272 52.1501 95.3915 52.1759 95.2551C52.6135 93.3198 52.6721 91.0745 52.5992 89.0141C52.5685 88.4235 53.4758 88.4375 53.5266 89.0141C53.6631 90.5717 53.7998 92.1293 53.9363 93.6862C54.1001 94.6953 53.8419 96.0152 54.6499 96.7824C55.4715 96.0244 55.1998 94.5294 55.1597 93.5512C55.0954 91.9556 55.026 90.3608 54.9666 88.7652C54.948 88.2596 55.7869 88.1295 55.882 88.6436C56.1515 90.109 56.4432 91.5703 56.7572 93.0273C56.9466 93.5906 57.0768 96.1179 58.0234 95.6791C58.5877 95.2944 58.1807 93.0393 58.2551 92.2925C58.2201 90.8143 58.1994 89.3383 58.0906 87.8637C58.0463 87.2688 59.0167 87.1422 59.1496 87.7231C59.3655 88.6632 59.5722 89.6034 59.7595 90.5499C60.1707 92.1455 60.0212 94.3085 61.5056 95.369C62.087 91.2243 61.2504 87.1085 61.1331 82.9786C61.2033 81.6404 61.4334 80.3156 61.6365 78.9935C61.861 77.5316 61.9919 75.9402 61.4663 74.5303C61.61 73.8988 62.1749 75.6069 62.2279 75.749C62.6533 74.9122 63.6894 74.8475 64.5088 74.5866C66.33 73.998 68.1956 73.5543 70.0382 73.0311C74.9248 71.676 79.8171 70.3421 84.7107 69.0109C86.6656 68.4708 88.7235 67.8316 90.1729 66.3563ZM41.2394 88.4024C41.9137 84.7534 41.8951 81.056 41.6069 77.367C41.2901 71.6458 40.9827 65.9231 40.6538 60.2026C39.2258 70.5565 37.7035 80.8985 36.5395 91.2855C36.4566 92.0084 36.4694 92.7735 36.104 93.4183C38.1232 93.6883 40.2756 93.9605 42.239 93.2748C41.3774 91.7876 41.0735 90.0943 41.2394 88.4024ZM85.0669 46.0936C81.6632 39.1171 74.7232 34.1645 66.9399 33.0844C66.9313 33.0928 66.922 33.1013 66.9135 33.1104C66.9392 33.1336 66.9628 33.1589 66.9842 33.1849C66.7748 33.0309 66.4874 33.2243 66.5803 33.4373C66.4651 33.6997 66.3801 33.9697 66.2736 34.2341C66.2285 34.2299 66.1827 34.2257 66.137 34.2187C65.6751 35.1342 65.4248 36.1897 64.9422 37.1025C62.3008 41.6719 55.7825 43.5269 50.8931 41.6824C47.0133 40.0039 46.4627 35.2242 46.8103 31.55C46.8282 31.3025 46.9539 31.1274 47.1221 31.024C45.0062 31.3623 42.8904 31.7033 40.7725 32.0247C39.7522 32.1794 38.7039 32.403 37.916 33.1027C34.8148 36.2889 34.2614 44.863 33.2181 49.3206C35.7143 49.5815 38.5044 51.0019 40.2935 52.7241C40.209 50.7664 40.3299 48.8185 40.5559 46.8749C40.5594 46.7799 40.7181 46.7476 40.7331 46.8516C41.18 48.822 41.524 50.8093 41.6655 52.8281C42.2541 60.9522 42.6037 69.0925 43.1078 77.2222C43.2801 80.2143 43.4953 83.2324 43.0684 86.214C41.6942 92.3522 44.1174 95.3647 50.6214 94.3444C49.8313 86.5656 50.404 77.6652 56.9287 72.2716C57.1275 72.0944 57.3663 72.1064 57.5472 72.2119C62.8521 67.7114 68.4508 63.5428 74.4099 59.9128C74.367 59.1626 76.2468 58.4995 76.7732 57.9819C74.819 55.9609 73.3309 53.5039 72.0332 51.0329C71.9187 50.7643 70.4265 48.0612 70.9013 48.2313C72.3192 50.329 73.7292 52.44 75.3988 54.3597C75.308 53.4744 77.6054 52.8808 78.3126 52.4765C81.0448 51.3275 83.9013 50.4281 86.8451 49.9625C86.3152 48.6455 85.7361 47.3481 85.0669 46.0936ZM48.7086 31.8643C48.798 31.7117 48.8831 31.5556 48.9646 31.3974C48.6886 31.408 48.4198 31.4178 48.1481 31.4628C48.1602 31.8995 48.136 32.3397 48.1309 32.7799C48.2668 32.4578 48.5327 32.1639 48.7086 31.8643ZM2.60168 93.3599C9.1221 88.626 19.832 91.642 27.3856 92.1286C28.8256 82.7008 28.2379 73.119 29.5801 63.6757C30.8163 54.2416 32.1198 44.6759 35.2245 35.637C36.5058 32.1421 38.7224 31.1042 42.372 31.1323C44.224 31.0599 46.1824 30.7638 47.9822 30.806C48.3769 30.8123 48.7894 30.8644 49.1455 31.0233C49.6461 29.8968 49.9178 28.6873 50.0551 27.4686C50.0637 27.3913 50.1623 27.3772 50.1917 27.451C50.615 28.5122 50.66 29.6703 50.4298 30.7814C50.2632 31.5774 49.2714 34.7102 48.1195 33.4845C48.028 36.0547 48.5936 39.1242 51.1155 40.4581C55.5222 42.3765 61.6137 40.6297 64.1663 36.5582C64.6597 35.7446 65.0852 34.8789 65.6314 34.0977C61.8253 33.0218 59.6888 28.4686 60.5854 25.0011C61.1395 27.6979 62.15 30.7111 64.6661 32.2216C73.8286 32.2012 81.4466 36.3676 85.7511 44.3926C86.5934 45.5578 87.3721 46.7687 88.0857 48.0007C88.4697 48.8248 89.5944 49.971 88.6399 50.7671C89.7424 53.705 90.7206 56.6838 91.7545 59.645C92.0385 60.6316 92.6877 61.6667 92.5582 62.7039C92.6984 63.3431 92.6919 64.099 92.3709 64.7136C92.0663 65.8092 91.3828 67.2831 90.2494 67.748C89.2877 68.6248 88.0714 69.2289 86.8029 69.6839C90.1858 78.5104 91.4735 88.0297 92.6197 97.3555C93.7431 105.514 94.3229 115.438 87.2842 121.335C87.1475 123.022 86.1451 125.171 84.163 125.19C82.7902 126.535 81.117 125.797 79.5889 125.139C77.0098 124.185 74.3048 123.657 71.617 123.362C71.3288 123.587 70.8597 123.55 70.6031 123.287C68.9749 122.913 66.7183 124.43 66.3893 123.055C64.2901 122.852 62.2136 122.471 60.1163 122.249C61.0002 123.394 60.9365 125.082 60.2708 126.319C61.9662 129.649 58.017 131.577 55.6024 132.943C52.3425 134.828 48.9382 136.616 45.21 137.397C41.9323 138.086 38.4986 137.877 35.3361 136.777C33.6744 136.36 31.3534 134.991 32.3394 133.062C31.0894 129.391 39.8672 125.588 42.4492 123.749C41.3939 123.618 41.3553 121.431 44.1002 122.688C44.432 122.466 44.7581 122.237 45.0806 122.005C33.9775 120.731 12.7731 117.225 4.7375 109.647C0.322937 105.751 -2.22409 97.8696 2.60168 93.3599Z" fill="black"/>
</g>
<path fill-rule="evenodd" clip-rule="evenodd" d="M53.7485 2.20715C49.7791 2.20715 44.6552 4.69358 44.2183 7.24015C43.7034 10.2412 40.9461 21.7567 41.5688 25.4495C42.1914 29.1423 45.5466 31.8007 50.9154 31.8007C56.2843 31.8007 60.2916 28.877 61.2117 27.8731C61.8251 27.2039 62.7002 25.6746 63.8369 23.2852C65.7533 23.0307 66.7162 22.1235 66.7254 20.5636C66.7343 19.0037 66.1113 17.9399 64.8562 17.3724C65.3037 11.2162 64.9639 7.33678 63.8369 5.73402C62.1464 3.32987 57.718 2.20715 53.7485 2.20715Z" fill="white"/>
<path fill-rule="evenodd" clip-rule="evenodd" d="M44.4613 6.82922C44.4642 6.77553 44.3859 6.76925 44.3712 6.81672C43.5148 9.64187 42.987 11.8436 42.4313 14.74L42.2672 15.592C41.8286 17.8645 41.3855 20.1403 41.0114 22.4238L40.9894 22.5601C40.802 23.7422 40.6939 24.9357 40.9289 26.1202C41.1484 27.2273 41.7482 28.2423 42.527 29.0507C44.0321 30.6131 46.1238 31.589 48.228 32.0253C49.292 32.2459 50.3896 32.331 51.4739 32.2542C52.0143 32.2165 52.554 32.1404 53.0832 32.0281L53.1416 32.0156C53.675 31.9006 54.1485 31.7634 54.4318 31.2622C54.503 31.1359 54.4743 30.9195 54.3247 30.8546C54.0423 30.733 53.8347 30.6821 53.5265 30.7171C53.2321 30.7505 52.9447 30.8392 52.6539 30.8944C52.0982 30.9998 51.5333 31.0528 50.9677 31.0654C49.8569 31.0898 48.7432 30.9509 47.6813 30.62C45.8568 30.0511 44.0027 28.9628 42.9366 27.3348C41.6826 25.4198 42.1819 23.0956 42.5142 20.9807L42.5242 20.9166C42.8607 18.7549 43.1933 16.5932 43.5162 14.4301L43.654 13.503C44.016 11.0534 44.3579 9.30469 44.4613 6.82922ZM62.9864 0.833427C62.0758 0.234062 60.9442 0.0867801 59.8746 0.095051L59.7406 0.0967372C58.371 0.117583 51.4769 0.281411 49.1686 0.331822L48.6195 0.343371C47.8927 0.357065 46.4269 0.371362 45.6717 0.385145L45.6281 0.385955C45.2576 0.392936 44.8871 0.395728 44.5166 0.407595L44.4623 0.409549C44.1847 0.421381 43.9538 0.462852 43.7364 0.658208C43.6259 0.757219 43.5827 0.908226 43.5929 1.05206L43.5945 1.07078L43.0443 1.11894C42.6707 1.15192 42.4732 1.4865 42.6216 1.82508L42.6291 1.84146C42.8926 2.40272 43.0939 4.03624 43.2352 4.64008C43.3093 4.95771 43.3688 5.28023 43.4037 5.60484C43.4316 5.86041 43.4344 6.11653 43.577 6.34132C43.8812 6.8209 44.7368 6.81671 44.7522 6.13748C44.7529 6.11583 44.7522 6.09489 44.7501 6.07465C46.9033 5.98041 49.8429 5.98948 51.9933 6.11793C54.0018 6.238 56.0012 6.51025 57.9691 6.92701C58.4675 7.03242 58.9646 7.1476 59.4581 7.27256C59.8629 7.37448 60.36 7.43522 60.7221 7.65372C61.1276 7.89944 61.1199 8.33993 61.0758 8.75948C61.0286 9.20416 60.9497 8.97505 60.838 9.38029L60.8311 9.40591C60.7158 9.8457 60.5732 10.2806 60.3844 10.6939C60.2768 10.9298 60.1033 11.1567 60.1691 11.4283C60.2062 11.5811 60.3272 11.7445 60.4383 11.8513C60.9445 12.3365 61.8001 12.0272 62.144 12.6918C62.504 13.3867 62.5129 14.3281 62.5435 15.097L62.5453 15.1421C62.5676 15.6719 62.5614 16.2032 62.5264 16.7316C62.495 17.2132 62.3664 17.6901 62.5313 18.1529C62.6516 18.4894 63.0444 18.5208 63.25 18.2472C63.2736 18.2157 63.2952 18.1835 63.3155 18.1511L63.3353 18.1187L63.3366 18.1194C63.3171 18.1501 63.2989 18.1816 63.2814 18.2136C63.2626 18.2492 63.3094 18.2883 63.3381 18.2576C63.8218 17.732 64.5286 17.8367 65.076 18.2046C65.6304 18.5787 65.8492 19.2894 65.8778 19.9268C65.91 20.6338 65.8471 21.4626 65.5521 22.1159C65.4276 22.3924 65.2501 22.6465 64.9557 22.7519C64.8222 22.7994 64.695 22.7931 64.5559 22.8043C64.4112 22.8154 64.2371 22.888 64.0966 22.8782C63.914 22.8653 63.7501 23.0734 63.802 23.2478L63.8058 23.2594C63.8085 23.2678 63.8113 23.2762 63.8141 23.2838C63.8072 23.2901 63.8002 23.2978 63.7953 23.309C63.264 24.3931 62.5355 25.3578 61.7302 26.2528C61.3267 26.7003 60.8794 27.1114 60.4117 27.4919C60.181 27.6797 59.9377 27.8675 59.6811 28.0189C59.5959 28.0684 59.5176 28.102 59.4217 28.1293C59.377 28.1418 59.326 28.1481 59.2827 28.1628L59.2377 28.1781C59.2346 28.1791 59.2316 28.1801 59.2288 28.1809C59.1002 28.1956 58.9919 28.2807 58.9492 28.4141C58.8381 28.7617 59.0401 29.0689 59.3854 29.1645C59.7596 29.269 60.1122 29.0855 60.4088 28.8749L60.4285 28.8608C61.0332 28.426 61.5904 27.938 62.0727 27.3683C63.027 26.2437 63.6248 24.9418 63.9015 23.5016C63.97 23.6489 64.0623 23.7774 64.2224 23.8667C64.4713 24.0064 64.7684 24.0064 65.041 23.9596C65.5898 23.8667 66.0575 23.5324 66.37 23.08C66.6944 22.6109 66.8153 22.0412 66.8887 21.4863C66.9614 20.9305 66.9971 20.3728 66.9244 19.8158C66.8201 19.0157 66.4839 18.2248 65.8303 17.7864C66.3197 16.7218 66.4057 15.5281 66.3707 14.3623C66.3281 12.927 66.0799 11.4757 65.889 10.0537L65.3465 6.01112L65.3243 5.84815C65.1933 4.89712 65.034 3.94106 64.6775 3.04496C64.3259 2.16188 63.7918 1.36327 62.9864 0.833427ZM65.2696 19.9581C64.3734 19.5239 63.4052 19.9239 62.9228 20.7665C62.5034 21.4991 63.7504 21.9833 63.9584 21.2282L63.9644 21.2049C64.1015 20.6332 64.6594 20.1389 65.2417 20.0622C65.2899 20.0552 65.3256 19.9854 65.2696 19.9581Z" fill="black"/>
<path fill-rule="evenodd" clip-rule="evenodd" d="M47.6125 20.0159C47.0846 20.3363 46.2803 21.0835 46.8482 21.8778C47.5167 22.5782 48.4791 21.7752 48.9534 21.412C49.3932 21.1305 49.8873 21.8544 49.4793 22.1831C46.0521 24.7168 44.6613 20.0996 47.3455 19.6391C47.6411 19.5884 47.7509 19.9167 47.6125 20.0159ZM52.3822 13.9051L52.2509 13.8821L52.1836 13.8707C51.7905 13.8058 51.3244 13.7624 51.0528 14.0706C50.9005 14.2434 50.8481 14.5647 51.0528 14.7301C51.413 15.0212 51.8112 14.9084 52.2428 14.9331C52.5985 14.9534 52.9404 15.0122 53.283 15.11C54.0347 15.3245 54.6471 15.7162 55.2891 16.1462C55.3733 16.2026 55.4593 16.095 55.4191 16.0164C55.0485 15.2915 54.3304 14.6961 53.611 14.3332C53.2271 14.1395 52.8069 13.9788 52.3822 13.9051ZM48.9051 23.9184C47.7564 24.0017 45.2669 23.4541 44.2333 24.2755C40.3375 29.1333 55.7824 30.3822 54.1143 25.0079C53.0519 23.2701 50.6083 23.9685 48.9051 23.9184ZM49.102 26.851C49.3861 26.8279 49.7309 27.0526 49.8143 27.2262C49.8977 27.3999 49.8655 27.7669 49.863 27.8305C49.3663 27.8805 48.8653 27.8881 48.3672 27.8555C48.4966 27.428 48.5008 26.9157 49.102 26.851ZM46.8086 27.5681C46.8884 27.0375 47.2685 26.9119 47.5761 26.9915C47.8907 27.0729 48.0754 27.4346 48.0554 27.7566C48.0541 27.7788 48.067 27.7977 48.0754 27.8155C47.6477 27.7651 47.224 27.682 46.8086 27.5681ZM50.3316 26.9471C50.5107 26.6749 50.9387 26.5436 51.2128 26.5916C51.6604 26.6857 51.7134 27.2537 51.7134 27.3694C51.3007 27.5265 50.8626 27.6308 50.4437 27.7138C50.3596 27.7305 50.2753 27.7453 50.1909 27.7594L50.1854 27.6904C50.1752 27.5426 50.1676 27.1961 50.3316 26.9471ZM45.2682 26.9022C45.7271 26.1931 46.7137 26.7008 46.6322 27.4754C46.5445 27.4478 46.4573 27.419 46.3704 27.3887C46.0098 27.2632 45.6143 27.114 45.2682 26.9022ZM48.8814 24.4592C49.4988 24.4037 50.0053 24.4224 50.408 24.4969L50.4202 24.6312C50.4648 25.0969 50.5222 25.5548 50.2773 25.7422C50.0784 25.8943 49.4183 25.8798 48.9756 25.7697C48.8663 25.7422 48.7242 24.7763 48.8814 24.4592ZM47.9267 24.4037C48.0256 24.8626 48.0722 25.4199 47.8735 25.5854C47.6637 25.7602 46.9882 25.7365 46.8116 25.6201C46.657 25.5182 46.661 25.0495 46.7184 24.5233C47.0604 24.4428 47.656 24.4037 47.9267 24.4037ZM50.6811 24.5015L50.8832 24.5033L50.9977 24.5049C51.287 24.51 51.5992 24.5266 51.8943 24.591C52.4806 25.8561 50.3396 26.0745 50.6703 24.5483L50.6811 24.5015ZM46.446 24.532L46.4497 24.6037C46.4673 24.9591 46.4557 25.4271 46.2585 25.5534C45.9684 25.7393 45.4236 25.7035 45.1285 24.8435C45.2261 24.587 46.2619 24.5508 46.446 24.532ZM52.128 16.9885C52.004 16.9885 51.8855 17.0305 51.7775 17.1082C51.6712 17.1848 51.575 17.2964 51.4949 17.4357C51.3432 17.6993 51.2485 18.0632 51.2485 18.4656C51.2485 18.868 51.3432 19.232 51.4949 19.4955C51.575 19.6348 51.6712 19.7465 51.7775 19.823C51.8855 19.9008 52.004 19.9428 52.128 19.9428C52.2519 19.9428 52.3705 19.9008 52.4785 19.823C52.5847 19.7465 52.6809 19.6348 52.7611 19.4955C52.9127 19.232 53.0075 18.868 53.0075 18.4656C53.0075 18.0632 52.9127 17.6993 52.7611 17.4357C52.6809 17.2964 52.5847 17.1848 52.4785 17.1082C52.3705 17.0305 52.2519 16.9885 52.128 16.9885ZM44.2814 16.9885C44.1575 16.9885 44.0389 17.0305 43.9309 17.1082C43.8247 17.1848 43.7285 17.2964 43.6483 17.4357C43.4967 17.6993 43.4019 18.0632 43.4019 18.4656C43.4019 18.868 43.4967 19.232 43.6483 19.4955C43.7285 19.6348 43.8247 19.7465 43.9309 19.823C44.0389 19.9008 44.1575 19.9428 44.2814 19.9428C44.4054 19.9428 44.524 19.9008 44.6319 19.823C44.7382 19.7465 44.8344 19.6348 44.9145 19.4955C45.0662 19.232 45.1609 18.868 45.1609 18.4656C45.1609 18.0632 45.0662 17.6993 44.9145 17.4357C44.8344 17.2964 44.7382 17.1848 44.6319 17.1082C44.524 17.0305 44.4054 16.9885 44.2814 16.9885ZM45.349 13.5804L45.2486 13.6009L45.1819 13.615C44.0984 13.8477 42.7246 14.3065 42.2174 15.3571C42.1977 15.5087 42.2185 15.5412 42.2355 15.5624L42.2411 15.5695C42.2551 15.5876 42.2662 15.6126 42.332 15.6333C42.3503 15.6289 42.3687 15.6243 42.3874 15.6194C42.6247 15.5573 42.8124 15.4718 42.9942 15.383L43.1912 15.2861C43.4199 15.1741 43.6505 15.0663 43.895 14.9866C44.4167 14.8167 44.9532 14.697 45.4981 14.6331C45.6162 14.6193 45.73 14.5795 45.8197 14.5113C45.9048 14.4465 45.9699 14.3569 45.9996 14.2377C46.038 14.0835 46.027 13.9667 45.9441 13.8276C45.8818 13.7231 45.7926 13.6507 45.6903 13.6091C45.5859 13.5667 45.4671 13.5568 45.349 13.5804Z" fill="black"/>
</svg>
