<svg width="91" height="133" viewBox="0 0 91 133" fill="none" xmlns="http://www.w3.org/2000/svg">
<path fill-rule="evenodd" clip-rule="evenodd" d="M6.42207 83.4485C6.80023 82.4099 6.24804 81.3739 5.94173 80.3692C4.85358 76.8846 3.66554 73.3998 1.98463 70.1501C1.34795 69.0631 2.39541 67.7295 3.60921 68.0361C5.68716 68.3272 7.82988 68.0954 9.91145 67.967C10.6727 65.9967 12.7044 65.1794 14.3035 64.0447C16.1181 62.9117 17.8833 61.6104 19.7705 60.617C19.8754 59.6785 21.013 59.4459 21.7087 60.1172C23.6194 58.9283 25.9106 59.1491 27.9587 58.3701C29.515 55.8536 29.6317 53.2074 30.0438 50.7797C30.2234 49.7214 30.0326 48.7004 30.7554 47.7568C33.1836 44.3404 42.778 42.859 46.3154 44.8836C48.2195 43.6956 48.2654 45.8472 48.5679 47.1752C48.904 47.8395 49.0859 48.5919 49.0297 49.3847C51.075 53.6584 55.7544 55.5905 59.9451 57.1557C60.4708 56.6496 61.2222 56.7135 61.7224 57.1323C65.3547 57.9223 68.8801 59.3109 71.9234 61.4791C75.3811 62.4908 77.8161 65.304 79.5769 68.3205C79.7709 68.6385 79.8167 68.9627 79.76 69.2605C85.1747 77.2007 87.759 86.7065 88.122 96.3073C91.6041 98.3978 86.467 117.178 85.2711 121.077C85.2699 121.077 85.2687 121.076 85.2675 121.076C84.4917 122.45 83.6108 126.37 81.6692 126.067C80.3373 127.574 78.2149 127.277 76.4075 127.393C76.7018 128.523 76.5572 129.815 76.2068 130.932C75.7924 132.26 73.7589 132.305 73.4705 130.857C55.4719 134.355 37.0045 131.564 18.8035 132.089C13.541 132.126 8.27905 132.289 3.02921 132.664C2.28998 132.717 1.54052 131.961 1.59083 131.225C2.71954 119.212 3.77952 103.409 5.04169 91.5135C5.34103 88.8007 5.57777 86.0581 6.42207 83.4485Z" fill="white"/>
<path fill-rule="evenodd" clip-rule="evenodd" d="M48.2708 45.6251C48.2192 45.4842 48.0088 45.5029 48.0048 45.6611C47.9219 49.0388 48.7625 53.1664 51.4642 55.4479C52.8511 56.6191 54.6847 57.1551 56.3686 57.7709L56.5586 57.8411L59.5336 58.9497C60.3226 59.2438 61.1738 59.6961 61.8708 59.2807C61.3068 60.6798 60.8333 62.1174 60.1464 63.4658C59.2914 65.1444 58.2576 66.6801 56.9925 68.0769C51.9801 73.6106 44.0474 75.2985 36.9286 73.6772C33.2629 72.8422 29.6959 71.2598 27.195 68.3737C25.2944 66.18 24.2024 63.2356 23.945 60.3314C24.0203 60.3434 24.0991 60.3429 24.1801 60.3251C25.0808 60.1286 25.9901 59.6456 26.7827 59.1719L26.859 59.1261C27.6216 58.6669 28.4164 58.1406 28.9637 57.4271C29.326 56.9547 29.6973 55.9481 30.0776 54.4071C30.233 53.5384 30.3787 51.8079 30.3538 50.9298C30.3515 50.8469 29.9841 50.798 29.9448 50.8841C29.6053 51.6296 29.4955 53.2675 29.2334 54.0433L29.1806 54.1982C28.9007 55.0084 28.6607 55.9949 28.0805 56.6499C26.9911 57.8798 25.3475 58.4004 23.8805 59.0173C23.7752 57.6272 21.5558 57.6596 21.584 59.1094C21.5856 59.188 21.5891 59.2663 21.5918 59.3447C21.4168 59.4409 21.2485 59.551 21.0911 59.6572L20.9376 59.7615C20.3565 60.1569 19.771 60.5327 19.1522 60.8681C17.9543 61.5177 16.6861 62.0327 15.4587 62.6223C14.217 63.2189 13.0556 63.9296 11.9714 64.7803C11.4621 65.1797 10.9737 65.6051 10.5106 66.0572L10.3849 66.1812C9.94406 66.6204 9.37045 67.1115 9.11926 67.6888C9.0639 67.816 8.78653 68.112 8.63603 68.1219C6.30399 68.2749 3.97694 68.4908 1.65955 68.8147C1.05957 68.8985 0.822418 69.2078 1.04419 69.7081C1.80628 71.4272 4.78979 78.2927 5.58318 80.1353C5.4905 81.4888 5.61567 83.0824 5.53214 84.4363C5.40998 86.4122 5.25003 88.3873 5.0583 90.3575C4.37227 97.4056 3.33227 104.419 2.39252 111.437C1.92216 114.949 1.49333 118.466 1.07004 121.984C0.856285 123.761 0.674911 125.541 0.535294 127.326C0.477135 128.07 0.424377 128.815 0.377869 129.559L0.337776 130.22C0.282593 131.051 0.155258 131.845 0.669495 132.559C0.902626 132.882 1.43508 133.065 1.74163 132.697C2.12701 132.235 2.27024 131.889 2.30707 131.282C2.33524 130.817 2.34197 130.35 2.36315 129.885C2.40889 128.877 2.46642 127.869 2.53382 126.861C2.66826 124.847 2.82172 122.834 2.99948 120.823C3.62257 113.773 4.80676 106.776 5.59473 99.7437C5.99191 96.1983 6.27402 92.6463 6.42339 89.0813C6.49812 87.301 6.52521 85.5208 6.50764 83.7389C6.50101 83.0734 6.46949 82.4109 6.42387 81.7499C7.60433 84.4326 8.84533 87.0894 10.1428 89.711L10.4503 90.3318C11.2725 91.9888 12.1169 93.652 13.105 95.2141L13.2749 95.4804C13.6753 96.1149 14.2222 97.1153 14.9522 97.3156C15.4607 97.4551 16.0821 97.3569 16.6035 97.3469C17.1209 97.337 17.6389 97.3348 18.156 97.3139C18.736 97.2905 19.2894 97.2143 19.8499 97.0631C19.9431 97.038 20.0312 97.0108 20.1114 96.9761C20.6761 97.9006 21.6356 98.6047 22.6167 99.0149C23.4025 99.3435 24.226 99.5688 25.051 99.7773L25.3421 99.8503C26.2265 100.071 27.2382 100.176 27.737 101.03L27.8529 101.228C28.2237 101.858 28.5794 102.412 29.1932 102.864C29.8538 103.35 30.6365 103.656 31.4162 103.894C32.2145 104.138 33.0314 104.325 33.842 104.524L34.0629 104.579C34.598 104.713 35.138 104.836 35.6699 104.982C35.8968 105.044 36.1278 105.108 36.3504 105.185C36.6111 105.274 36.8006 105.414 37.0063 105.566C37.1911 106.213 37.9813 106.563 38.631 106.518C38.9722 106.495 39.2782 106.379 39.5567 106.209C40.0429 106.623 40.5781 106.994 41.0736 107.377C41.7675 107.914 42.4641 108.448 43.1646 108.976C44.6088 110.065 46.0641 111.14 47.5345 112.193C50.1444 114.063 52.8108 115.847 55.5228 117.565C56.6535 118.282 57.7919 118.997 58.9414 119.695L58.8187 119.741L58.5754 119.833C58.0002 120.047 57.3593 120.395 57.2479 121.066C57.1595 121.598 57.4568 121.965 57.9823 122.03C58.6068 122.107 59.0928 121.666 59.4817 121.245C59.6533 121.059 59.8454 120.886 60.0098 120.695C60.0768 120.617 60.1284 120.527 60.1737 120.432C61.3082 121.101 62.4547 121.747 63.6194 122.352L63.9109 122.502C66.7991 123.979 69.6103 125.598 72.5231 127.033C73.2829 127.408 74.2092 127.813 75.1749 128.089C74.9186 129.083 74.9226 130.174 74.9161 131.182C74.91 132.165 76.4711 132.16 76.4381 131.182L76.4222 130.71C76.3938 129.916 76.3474 129.091 76.159 128.318C79.0041 128.79 81.8463 127.765 82.3755 127.456C82.9595 127.117 83.4897 126.573 83.9309 126.069C84.8751 124.989 85.5304 123.695 86.1117 122.393C87.3569 119.605 88.2391 116.625 88.8841 113.644C91.262 102.655 90.2392 90.8941 86.3776 80.3604C85.4128 77.7285 84.2737 75.1546 82.9684 72.674L82.8064 72.3673C81.5039 69.9141 80.0562 67.4703 78.2174 65.3827C76.302 63.2083 73.9393 61.5172 71.3668 60.2046C70.1113 59.564 68.8196 59.0088 67.4992 58.5169C67.2872 58.4378 67.0737 58.3669 66.8597 58.2993C65.4837 57.4218 63.8139 56.5823 62.1435 56.6153C62.03 56.6174 61.938 56.6605 61.8694 56.7254C61.7889 56.7395 61.7084 56.7566 61.6278 56.7801C61.4498 56.8317 61.2618 57.0269 61.2873 57.2274L61.2959 57.2941C61.3006 57.3266 61.3066 57.3581 61.3168 57.3888C61.2571 57.3977 61.1984 57.4119 61.141 57.4316C59.5428 56.98 57.9704 56.2895 56.4108 55.7325L56.0556 55.6071C54.7494 55.1491 53.4093 54.7003 52.3378 53.794C51.2718 52.8925 50.4702 51.7247 49.8907 50.4622C49.1767 48.9068 48.8571 47.2219 48.2708 45.6251ZM16.2729 127.659C15.9565 127.423 15.5823 127.697 15.4638 127.988C15.0751 128.945 15.2672 130.431 15.8152 131.277C16.383 132.153 17.7422 131.807 17.775 130.746C17.8093 129.639 17.1662 128.324 16.2729 127.659ZM13.0042 101.244C12.9758 101.119 12.7827 101.12 12.7539 101.244C12.4904 102.366 12.4966 103.575 12.4192 104.726L12.4102 104.853C12.3174 106.123 12.2395 107.395 12.1838 108.667C12.0747 111.168 11.9442 113.67 11.798 116.169C11.7254 117.408 11.6477 118.648 11.5647 119.887C11.305 119.742 11.0375 119.615 10.7601 119.503C10.3447 119.335 9.94016 119.315 9.49376 119.32C8.95011 119.325 8.54078 119.804 8.61275 120.337C8.69122 120.917 9.2019 121.165 9.73219 121.083C10.3195 120.991 10.9094 120.848 11.5024 120.789C11.4363 121.747 11.3681 122.705 11.2957 123.662C11.1998 124.929 11.0748 126.195 10.9869 127.463C10.9785 127.583 10.9695 127.705 10.9602 127.826C10.6066 127.642 10.2311 127.548 9.80548 127.432L9.69476 127.401C9.07687 127.223 8.41583 126.978 7.84391 127.394C7.4595 127.673 7.38271 128.133 7.70116 128.502C8.18402 129.061 8.89847 128.952 9.56546 128.924L9.92427 128.911C10.2625 128.897 10.5744 128.876 10.887 128.79C10.8296 129.616 10.7994 130.445 10.9006 131.259C10.9554 131.699 11.5342 131.814 11.6874 131.365C12.0876 130.193 12.1702 128.928 12.3167 127.7C12.4535 126.553 12.5366 125.397 12.6262 124.245L12.6534 123.9C12.8548 121.365 13.016 118.828 13.1337 116.288C13.2515 113.748 13.3223 111.209 13.3505 108.667C13.3633 107.512 13.3441 106.354 13.299 105.2L13.2846 104.853C13.2326 103.666 13.269 102.407 13.0042 101.244ZM65.8918 127.846C65.8764 127.684 65.7465 127.482 65.5533 127.507C65.3753 127.53 65.1919 127.519 65.0158 127.549C64.7834 127.587 64.5964 127.725 64.3802 127.811C64.0289 127.952 63.6459 128.024 63.2855 128.139C62.6092 128.355 62.2406 129.067 62.5207 129.732C62.8152 130.432 63.5553 130.59 64.1947 130.297C64.6988 130.066 65.0745 129.696 65.4134 129.268L65.5094 129.146C65.6555 128.962 65.8212 128.757 65.8825 128.535C65.9421 128.318 65.9127 128.067 65.8918 127.846ZM33.0347 124.559C32.1924 124.44 31.4729 124.728 30.6935 125L30.6301 125.022C29.8368 125.296 28.6794 125.485 28.2728 126.298C28.0275 126.787 28.2181 127.438 28.7953 127.583C29.7095 127.812 30.5292 127.144 31.2851 126.694L31.3248 126.67C32.0544 126.243 32.8075 125.883 33.2734 125.146C33.3977 124.949 33.2899 124.595 33.0347 124.559ZM62.4402 57.5429C62.7776 57.6185 63.1151 57.6854 63.4522 57.7497C64.7346 58.4373 65.9794 59.1508 67.3034 59.7634C68.7082 60.4135 70.1079 61.0848 71.4422 61.8712C74.1381 63.4599 76.3605 65.5256 78.1969 68.0576C81.369 72.4312 83.7286 77.4751 85.4173 82.5928C85.8512 83.9076 86.2395 85.2373 86.583 86.5781C85.9757 86.0161 85.2567 85.6707 84.4504 85.3749C84.1087 85.2495 83.6834 85.4617 83.5102 85.7576C83.4323 85.8906 83.3884 86.022 83.3964 86.178C83.4144 86.5221 83.6382 86.913 84.0077 86.9812C84.8691 87.14 85.7067 87.4492 86.5373 87.7213C86.6632 87.7626 86.7714 87.747 86.8578 87.6983C87.6823 91.1923 88.1982 94.7582 88.3809 98.3456C88.5354 101.383 88.4401 104.444 88.1038 107.476C87.8454 107.36 87.5927 107.251 87.3094 107.185C86.9419 107.1 86.5805 106.996 86.2221 106.878C85.1877 106.539 84.7159 108.247 85.7731 108.507C86.1666 108.604 86.5624 108.685 86.9633 108.744C87.3127 108.795 87.6218 108.772 87.9512 108.719C87.6996 110.611 87.3558 112.489 86.918 114.341L86.8213 114.746C86.2526 117.111 85.5897 119.498 84.6311 121.733C84.1608 122.83 83.5382 123.871 82.7695 124.785C82.3918 125.234 81.9726 125.62 81.5155 125.985C81.1349 126.289 79.8413 126.948 78.3092 126.948C76.7771 126.948 76.3624 126.803 75.5894 126.537C74.0607 126.011 72.6093 125.17 71.1757 124.422L71.0275 124.345C70.3936 124.017 69.7621 123.684 69.1322 123.348C69.2118 122.705 69.0725 122.166 68.738 121.573C68.3763 120.931 67.4801 121.25 67.4135 121.907L67.4114 121.932C67.4013 122.08 67.3765 122.231 67.3457 122.381C63.1343 120.073 59.012 117.604 54.9554 115.031C52.3424 113.373 49.7571 111.666 47.2096 109.909C45.9361 109.03 44.6737 108.136 43.4238 107.225C42.7691 106.747 42.1173 106.266 41.4686 105.78C41.1984 105.578 40.9334 105.365 40.6626 105.162C40.7284 105.08 40.7926 104.997 40.8547 104.916C41.8659 103.592 42.522 102.013 42.8489 100.384C43.0462 99.4014 43.1416 98.3813 43.1706 97.3793L43.1833 96.9436C43.2033 96.2095 43.2085 95.4413 43.0733 94.7301C43.2574 94.8313 43.4454 94.9305 43.6327 95.0367C44.3052 95.4178 44.9782 95.798 45.6523 96.1764C47.0023 96.9339 48.3561 97.6827 49.7273 98.4012C52.1763 99.6849 54.6494 100.906 57.1892 102L58.4251 102.533C60.57 103.456 62.7324 104.362 64.9625 105.048C66.2203 105.435 67.4877 105.766 68.7636 106.061L68.2476 106.666C67.8977 107.076 67.8916 107.664 68.3387 108.009C68.7783 108.348 69.368 108.207 69.6608 107.756L70.1946 106.935C70.3087 106.759 70.3735 106.595 70.4102 106.422C70.9979 106.545 71.5872 106.663 72.1781 106.777L73.2951 106.99C74.89 107.298 76.4365 107.908 77.8622 108.689C78.3578 108.96 78.4959 108.433 77.9708 108.066C76.4353 106.992 74.6443 106.384 72.7963 105.874L72.7055 105.849C72.0275 105.663 71.3508 105.47 70.6755 105.269C70.7497 105 70.7926 104.722 70.784 104.414C70.765 103.729 70.7045 103.042 70.6681 102.357C70.5918 100.921 70.4944 99.4885 70.3803 98.0545C70.3365 97.5021 70.2874 96.9481 70.2312 96.3946C70.5934 96.2003 70.9057 95.9425 71.3095 95.8157L71.3776 95.7958C71.8095 95.6794 71.6637 95.1228 71.2801 95.0751C70.9327 95.0321 70.5869 95.0518 70.2443 95.1254C70.1913 95.137 70.1411 95.1499 70.0932 95.1644C70.0302 94.6518 69.9604 94.1404 69.8811 93.6319C69.6713 92.2885 69.5229 90.873 69.0863 89.5821C69.0539 89.4865 68.912 89.4524 68.8594 89.5525C68.2242 90.7614 68.2021 92.2444 68.1305 93.5906L68.1216 93.7515C68.0372 95.2202 68.0324 96.7032 68.0596 98.1739C68.0875 99.6896 68.1394 101.201 68.2074 102.716C68.2347 103.325 68.2337 103.958 68.3375 104.541C64.5574 103.312 60.844 101.84 57.2847 100.098C54.7739 98.869 52.2848 97.5908 49.8241 96.2646C48.5912 95.6002 47.3525 94.9465 46.1209 94.2796C45.6894 94.0458 45.2582 93.8113 44.8271 93.5765L44.1807 93.2239C43.5758 92.8936 43.0709 92.565 42.3664 92.5419C42.1563 92.5349 41.968 92.6334 41.8343 92.7824C41.4556 92.5137 41.018 92.3488 40.5587 92.3526C39.8674 91.3974 39.1655 90.4499 38.4356 89.523L37.8964 88.8368C36.9632 87.6529 35.9746 86.451 34.7846 85.5498C34.2535 85.1478 33.6693 84.8462 33.06 84.5969C33.2034 84.5619 33.3437 84.4915 33.4687 84.3754C34.0507 83.8356 34.1308 82.833 34.249 82.0798C34.3717 81.2987 34.3242 80.5997 34.2032 79.8211C34.1561 79.5186 33.6552 79.4556 33.5329 79.7335C33.2752 80.3194 33.0023 80.881 32.7678 81.4735L32.6987 81.6522C32.447 82.3193 31.911 83.021 31.9464 83.7446C31.956 83.9429 32.0224 84.1157 32.125 84.2546C31.6136 84.0848 31.0948 83.9333 30.584 83.7753C28.9764 83.2784 27.3627 82.7955 25.7242 82.4099C25.288 82.3073 24.8496 82.2121 24.4095 82.1247C24.1789 81.0295 23.8428 79.9545 23.4466 78.899C23.8218 78.7067 24.0647 78.3843 24.3877 78.0977C24.69 77.8292 24.8978 77.5023 25.1557 77.194C25.3905 76.9136 25.2586 76.407 24.8366 76.4233L24.7171 76.4284C24.2799 76.4487 23.8565 76.4939 23.4601 76.698L23.3189 76.7708C23.1252 76.8714 22.9132 76.9867 22.7244 77.1229C22.4775 76.5547 22.2208 75.9919 21.9614 75.4348L21.6248 74.7145C20.7519 72.8396 19.8814 70.8933 18.7856 69.1475C18.2984 68.3713 17.65 67.8867 16.7194 67.8117C15.7611 67.7345 14.7648 67.8342 13.8052 67.8685C12.6928 67.9084 11.5807 67.9556 10.4693 68.014C10.7542 67.7155 11.0142 67.3832 11.3002 67.0967C11.7752 66.6217 12.2769 66.1714 12.8043 65.7552C13.8482 64.9315 14.9959 64.2528 16.188 63.6684C17.3804 63.0838 18.6078 62.5741 19.7271 61.8519C20.4354 61.395 21.0685 60.82 21.6461 60.1977C22.0097 64.1217 23.9038 67.7673 26.7492 70.5062C29.7047 73.3507 33.7889 74.9136 37.7843 75.5783C41.8595 76.2565 46.1128 76.0076 50.0113 74.5905C52.0214 73.8598 53.9492 72.8159 55.6685 71.5065C55.6874 71.6204 55.7102 71.733 55.7548 71.8388C55.8148 71.9811 55.888 72.1022 55.9721 72.2271L56.122 72.4463C56.2165 72.5841 56.3129 72.7208 56.4202 72.8487C56.68 73.1582 57.0482 73.2938 57.4448 73.2924C58.2041 73.2898 58.7792 72.545 58.5748 71.8084C58.4464 71.3454 58.1716 71.0668 57.7426 70.8856C57.6071 70.8283 57.4689 70.7803 57.3299 70.7331L57.2256 70.6976C57.0851 70.6496 56.9458 70.6037 56.8012 70.5771C57.6153 69.8583 58.3707 69.0767 59.0471 68.2331C61.1686 65.5877 63.2611 61.8828 62.5519 58.3695C62.5396 58.3092 62.4853 58.2713 62.4268 58.2616C62.3856 58.015 62.2545 57.7765 62.0748 57.6161C62.1957 57.5843 62.3176 57.5598 62.4402 57.5429ZM40.4102 118.286C39.9901 118.052 39.556 118.608 39.8975 118.951L40.4073 119.461C40.8804 119.937 41.3409 120.417 41.7459 120.959L41.844 121.092C42.3907 121.836 42.9736 122.698 43.8694 122.976C44.9528 123.312 45.994 121.992 45.3666 121.028C44.8185 120.185 43.7631 119.867 42.8532 119.518C41.9924 119.189 41.2149 118.734 40.4102 118.286ZM75.3619 114.397C75.1151 114.073 74.4714 114.244 74.64 114.701C75.1878 116.187 75.411 118.212 76.7944 119.199C77.2407 119.518 77.9418 119.371 78.3092 119.004C78.7267 118.586 78.7435 117.998 78.5047 117.488C78.2134 116.867 77.4972 116.416 76.9951 115.943L76.95 115.9C76.4099 115.375 75.8257 115.004 75.3619 114.397ZM17.5441 116.106C17.1035 115.916 15.9551 115.547 15.6148 115.984C15.5989 116 15.5853 116.018 15.5744 116.037C15.491 116.182 15.4786 116.387 15.5744 116.531C15.9709 117.127 16.3839 117.572 16.9478 117.996L17.0111 118.043C17.6249 118.495 18.2015 119.025 18.9494 119.229C19.986 119.511 20.7101 118.212 19.9821 117.454C19.3955 116.843 18.5001 116.526 17.7229 116.186L17.5441 116.106ZM59.1736 107.618C59.347 107.305 58.9927 106.92 58.6718 107.116C57.7565 107.676 56.6902 108.096 55.6621 108.397C55.2461 108.519 54.8707 108.941 54.9016 109.396L54.9065 109.465C54.9187 109.626 54.9409 109.786 55.043 109.92C55.4011 110.388 55.9133 110.569 56.4604 110.291C57.6794 109.673 58.5139 108.811 59.1736 107.618ZM32.421 106.669C32.4432 106.537 32.3468 106.435 32.2129 106.46C31.4394 106.607 30.7249 106.981 30.0607 107.41C29.7044 107.641 29.3608 107.894 29.0054 108.127C28.5663 108.414 28.4019 108.651 28.337 109.179C28.2942 109.527 28.619 109.844 28.9169 109.941C29.7288 110.202 30.659 109.343 31.209 108.785L31.2338 108.759C31.8096 108.172 32.2845 107.478 32.421 106.669ZM9.18839 105.756C9.36472 105.28 8.75703 104.885 8.35961 105.119C7.98542 105.339 7.57946 105.522 7.22646 105.774C6.90208 106.006 6.60633 106.281 6.29524 106.533L6.14151 106.655C5.57103 107.113 4.62937 108.248 5.44506 108.906C6.22141 109.533 7.25072 108.733 7.7718 108.148L7.80814 108.106C8.10795 107.76 8.47756 107.383 8.69505 106.979C8.89977 106.598 9.03867 106.161 9.18839 105.756ZM16.8444 68.8832C17.8167 69.072 18.2131 70.2726 18.6225 71.0553C19.5888 72.9022 20.4776 74.7831 21.3701 76.6663C21.6449 77.2456 21.9125 77.8293 22.1824 78.4119C22.1989 78.4576 22.2201 78.5025 22.245 78.5469C22.798 79.738 23.3676 80.9214 24.0333 82.0521C23.424 81.9379 22.8116 81.8407 22.197 81.7641C22.228 81.1851 21.8317 80.4103 21.6357 79.9229L21.6194 79.8818C21.3749 79.2572 21.1187 78.2732 20.4895 77.9491C20.2798 77.8412 20.0556 77.9764 20.0395 78.2074C19.9918 78.8949 20.664 79.6817 20.9926 80.2652C21.1913 80.6182 21.3849 80.9728 21.5736 81.3312C21.6444 81.4654 21.7035 81.5972 21.7761 81.7154C21.4591 81.6811 21.1417 81.6505 20.8235 81.6283L20.6161 81.6141C19.4363 81.5363 18.1833 81.514 17.1174 82.096C16.1285 82.6358 15.623 83.7882 16.1663 84.8375C16.8431 86.1447 18.3336 86.318 19.6443 86.424C21.2814 86.556 22.9222 86.7946 24.5478 87.0272C26.2292 87.2677 27.8125 87.8878 29.4688 88.2065C29.6229 88.2361 29.7188 88.0346 29.5775 87.9485C28.2709 87.153 26.6826 86.7151 25.2219 86.2692L25.1037 86.233C24.3114 85.9895 23.537 85.7114 22.7174 85.5733C21.9217 85.4393 21.1211 85.3307 20.3186 85.2481L20.2406 85.2409C19.357 85.1668 17.1028 85.1921 17.1981 83.8833C17.2611 83.0171 18.6686 82.8676 19.3111 82.8572C22.2567 82.81 25.2235 83.5922 28.0228 84.4302L28.6478 84.6176C29.7941 84.9627 30.942 85.3177 32.0667 85.7221C33.3413 86.1804 34.3454 86.895 35.2737 87.873C36.303 88.9575 37.2999 90.0664 38.3677 91.1143C39.0409 91.7749 39.7227 92.4238 40.4101 93.0674C40.5653 93.2684 40.6895 93.4872 40.7756 93.771C40.921 94.2504 40.8875 94.6961 40.8326 95.1885C40.6942 96.4322 40.6637 97.6887 40.4902 98.9285C40.3294 100.077 40.1046 101.268 39.6279 102.333C39.4391 102.755 39.1934 103.17 38.9136 103.54L38.6878 103.834C38.5894 103.961 38.4793 104.101 38.3637 104.232C38.1939 104.025 37.9484 103.89 37.6631 103.924C37.0566 103.996 36.5798 103.978 35.9849 103.839C35.5244 103.731 35.0676 103.605 34.6091 103.488C33.709 103.258 32.8004 103.049 31.9094 102.786L31.7562 102.739C31.0922 102.536 30.428 102.28 29.8754 101.852C29.2333 101.353 29.0358 100.634 28.5601 100.013C27.5445 98.6852 25.35 98.713 23.864 98.3493C22.6012 98.0404 21.386 97.5529 20.5121 96.6364L20.4611 96.5818C20.4998 96.4182 20.437 96.2336 20.2851 96.1488L20.252 96.1304C20.1928 96.0973 20.129 96.0836 20.0664 96.0849C19.9853 95.9657 19.9071 95.8427 19.8359 95.7117C19.7775 95.6037 19.6312 95.6831 19.6504 95.7898C19.6618 95.8535 19.6777 95.9156 19.6927 95.9779C18.8462 95.7601 17.9165 95.8017 17.057 95.8022L15.9417 95.7983C15.7486 95.7959 15.4609 95.7862 15.4353 95.7746L15.4091 95.763C15.3396 95.7328 15.4383 95.7826 15.3897 95.7182C15.3362 95.647 15.2837 95.575 15.2319 95.5024C15.0471 95.2437 14.8722 94.9771 14.7008 94.7081C16.5686 95.1841 18.5035 95.4802 20.4106 95.7272C22.4567 95.9924 24.5297 96.1764 26.5941 96.1783C27.1631 96.179 27.158 95.3195 26.5941 95.298C24.4082 95.2145 22.2337 95.0987 20.0624 94.8185C18.9396 94.6734 17.8215 94.4915 16.7097 94.2786C16.2804 94.1966 15.8522 94.1095 15.425 94.0175L15.1048 93.9475C14.904 93.9031 14.3364 93.8391 14.0595 93.6534C14.0051 93.5598 13.9507 93.4665 13.8968 93.3731C13.9233 93.045 14.7571 93.0889 14.9526 93.0884C15.5068 93.0873 16.0612 93.0918 16.6156 93.0932C17.7242 93.0965 18.8326 93.0869 19.9414 93.078C22.1564 93.0599 24.3799 92.9826 26.5931 93.0772C27.1304 93.1001 27.4126 92.2381 26.8816 92.0114C24.5373 91.0101 21.935 90.7926 19.4318 90.4847C18.1154 90.323 16.7984 90.1361 15.5115 89.8086L15.1934 89.7277C14.385 89.5203 13.4923 89.2675 12.8116 88.7735C13.8347 88.3595 15.1065 88.4069 16.1671 88.3483L16.2482 88.3436C17.7333 88.2523 19.221 88.2056 20.7089 88.2034C23.7532 88.1992 26.7985 88.3071 29.8394 88.4514C29.9157 88.455 29.9315 88.3345 29.8573 88.3184C26.7318 87.6362 23.5552 87.3075 20.3566 87.2569C18.867 87.2333 17.3766 87.2544 15.8882 87.3203L15.3421 87.3455C14.073 87.4002 12.6649 87.415 11.6032 88.1816C11.4413 88.2984 11.356 88.4476 11.3426 88.6054C9.91866 85.7659 8.60353 82.8671 7.2831 79.9875C6.25658 77.7485 5.26832 75.4907 4.20437 73.2691L3.85993 72.5504C3.39872 71.5914 2.92621 70.6323 2.40155 69.7081C4.36349 69.4457 6.33637 69.2635 8.31046 69.1241C10.1092 68.9969 15.9784 68.7152 16.8444 68.8832ZM17.7131 99.6578C17.4894 99.5334 17.1466 99.6348 17.0915 99.9107C17.0504 100.116 16.9804 100.344 16.9804 100.555C16.9804 100.807 17.0704 101.08 17.1184 101.327C17.2288 101.893 17.3647 102.354 17.6527 102.858C17.8329 103.174 18.1967 103.389 18.5624 103.38C18.8519 103.374 19.1085 103.296 19.3073 103.072C19.5453 102.803 19.7088 102.408 19.5782 102.046C19.2361 101.099 18.6074 100.155 17.7131 99.6578ZM65.1694 98.7124C64.6459 97.7951 63.4049 96.9752 62.3219 97.0564C60.6958 97.1782 60.3639 99.3686 61.9383 99.8913C62.8794 100.204 64.1741 99.8829 64.9973 99.3688C65.2192 99.2303 65.3006 98.9423 65.1694 98.7124ZM81.882 95.5784C82.0009 95.4055 81.8044 95.2079 81.6272 95.2468C81.2343 95.3331 80.8106 95.3708 80.4257 95.4881C80.0316 95.608 79.65 95.8069 79.2596 95.9438C78.4416 96.2304 77.568 96.3743 76.7764 96.7203C76.46 96.8587 76.2111 97.317 76.2403 97.655L76.2478 97.734C76.2653 97.9018 76.2943 98.0481 76.3881 98.2014C76.64 98.6129 77.1391 98.8256 77.6102 98.6989C78.4841 98.4641 79.3381 97.8608 80.0832 97.3595L80.2209 97.268C80.5464 97.0534 80.8965 96.8291 81.1588 96.553C81.4326 96.2646 81.6577 95.9049 81.882 95.5784ZM51.8413 92.2421C51.9419 91.8797 51.4912 91.6402 51.2284 91.8851C50.7034 92.3744 50.1545 92.8281 49.6403 93.3298L49.6058 93.364C49.2376 93.7341 48.702 94.4474 49.1808 94.9264C49.7944 95.5402 50.6488 94.6295 50.978 94.1548C51.3955 93.5528 51.646 92.9461 51.8413 92.2421ZM11.6656 89.2456C12.4445 90.0709 13.6444 90.4503 14.7009 90.7646C15.9536 91.137 17.2443 91.3596 18.5363 91.5426C19.7848 91.7193 21.0236 91.8774 22.2522 92.0803C21.3228 92.0918 20.3936 92.0987 19.4663 92.1153C18.397 92.1347 17.3282 92.1578 16.2592 92.1889C15.4806 92.2115 14.5671 92.1047 13.8272 92.3942C13.6939 92.4462 13.5693 92.5184 13.4605 92.6063C12.8385 91.4999 12.2424 90.3783 11.6656 89.2456ZM59.7049 81.5285C58.892 81.2702 58.1276 80.9274 57.2659 81.0164C57.0368 81.0399 56.8728 81.263 56.9979 81.4833C57.4062 82.2023 58.0703 82.6081 58.724 83.089L58.7817 83.1316C59.4972 83.6641 60.2654 84.1492 61.0435 84.5861C62.3832 85.3382 63.5838 83.1857 62.2308 82.5541C61.4167 82.174 60.5616 81.8008 59.7049 81.5285ZM45.0696 79.6597C43.8259 79.7416 42.583 79.7972 41.3378 79.8476C39.8954 79.906 40.3804 82.1263 41.5853 81.677C42.7756 81.2329 43.966 80.7945 45.1671 80.3803C45.5327 80.2543 45.5032 79.6536 45.0928 79.6588L45.0696 79.6597ZM76.9673 75.7096C76.645 75.687 76.3199 75.7574 75.9971 75.7887L75.6536 75.822C74.9456 75.8925 74.2817 75.9794 73.6065 76.2677C72.3605 76.7996 73.0297 78.8032 74.2805 78.7573C75.2049 78.7233 75.9954 78.3261 76.776 77.8637C77.4585 77.4595 77.8768 76.9538 78.3377 76.3192C78.4903 76.109 78.2776 75.8733 78.0698 75.8521C77.7036 75.8148 77.3335 75.7352 76.9673 75.7096ZM14.5121 71.6178C14.7183 72.9048 15.23 74.111 16.0011 75.1612C16.3887 75.6889 17.0691 75.7089 17.4531 75.1612C17.9964 74.3864 17.6614 73.4987 17.2521 72.7545L17.131 72.5365C16.9478 72.2098 16.6663 71.7332 16.3446 71.4041L16.3392 71.3704C16.1669 70.023 14.2997 70.2919 14.5121 71.6178ZM64.8133 63.3584C64.5033 63.079 63.9323 63.1629 63.8317 63.6176C63.6909 64.2543 63.6052 64.9717 63.6974 65.618C63.7473 65.9682 63.7661 66.3616 63.9038 66.688C64.0518 67.039 64.3366 67.3089 64.6049 67.5729C65.1404 68.0997 66.2695 67.9255 66.413 67.0953L66.4312 66.9935C66.5033 66.6007 66.5957 66.1808 66.4888 65.7915C66.4081 65.4977 66.2279 65.1981 66.0788 64.9256L66.0473 64.8676C65.7486 64.3111 65.2829 63.7812 64.8133 63.3584ZM21.2332 64.713L21.1211 64.7141C20.2557 64.7312 18.6736 64.942 18.6651 66.0118C18.6631 66.2639 18.8498 66.5252 19.1 66.5832C19.6173 66.7031 19.9516 66.3974 20.3203 66.0884C20.6218 65.8358 20.9732 65.6342 21.3383 65.489C21.7326 65.3321 21.7068 64.7122 21.2332 64.713Z" fill="black"/>
<path fill-rule="evenodd" clip-rule="evenodd" d="M18.4931 33.3214C19.2479 27.8739 20.9741 22.5848 21.222 17.0557C21.3694 14.6896 21.5168 12.3234 21.6641 9.95713C21.7201 8.47929 23.6391 7.9807 24.372 9.28997C26.0381 7.44153 29.0215 7.71377 31.2976 7.76987C44.6967 8.24487 57.4297 17.3077 62.0293 29.9439C62.1399 30.2452 62.1064 30.5658 61.9814 30.8527C64.1253 38.0047 56.5434 42.61 51.3724 45.7988C49.2747 48.0164 46.8089 49.8588 44.0247 51.1207C40.8219 52.628 37.2567 53.4684 33.7181 53.5489C32.9413 53.5667 32.4747 52.9384 32.4186 52.2881C31.2897 52.0253 29.3578 52.3287 28.7609 51.1714C21.9526 48.2132 17.5167 40.7154 18.4931 33.3214Z" fill="white"/>
<path fill-rule="evenodd" clip-rule="evenodd" d="M21.6786 14.0027C21.6979 13.8261 21.4429 13.8207 21.3905 13.9637C20.959 15.1397 20.5116 16.3076 20.1698 17.5134C19.8403 18.6754 19.6029 19.8638 19.3626 21.0471C18.964 23.0109 18.6212 24.9891 18.3376 26.9737C17.7316 26.5003 16.9391 26.4572 16.1927 26.8256C15.8425 26.9984 15.7084 27.4553 15.7924 27.8098C15.8598 28.0942 15.9423 28.3772 16.0412 28.6543C15.8298 28.8415 15.6501 29.0725 15.5196 29.3376C15.176 30.036 15.2867 30.769 15.5949 31.4352C15.5715 31.4749 15.5482 31.5149 15.5263 31.5573C15.0802 32.424 15.3188 33.2003 15.6449 34.046C15.889 34.6788 15.7527 35.3914 16.2793 35.8692C16.4623 36.4574 16.737 37.0046 17.1368 37.4988C17.2276 37.6651 17.3636 37.7987 17.525 37.8971C17.5655 38.8256 17.6635 39.7509 17.8478 40.6681C18.5633 44.2295 20.8342 47.4028 23.6454 49.6408C26.3962 51.831 29.627 53.1396 33.113 53.5626C34.8057 53.7682 36.5009 53.7034 38.1798 53.4099L38.3889 53.3727C39.938 53.0917 41.8127 52.6263 42.8839 51.4572C43.4472 50.8425 43.1179 49.4894 42.1219 49.6171C41.5943 49.6847 41.135 49.7693 40.6382 49.9641C40.2507 50.1161 39.8626 50.2625 39.4648 50.3865C38.7029 50.6238 37.915 50.8089 37.124 50.9112C35.4758 51.1242 33.7631 51.0679 32.134 50.7464C29.1715 50.1617 26.2934 48.813 24.0453 46.7826C21.432 44.4223 19.9001 41.3675 19.6747 37.8443C19.4236 33.9203 19.8765 29.9022 20.2525 25.9986C20.4481 23.968 20.6964 21.9414 20.9953 19.9235C21.2874 17.9517 21.4626 15.9828 21.6786 14.0027ZM44.8061 1.33208L44.6794 1.31262C39.6485 0.546735 34.3552 0.601037 29.6264 2.678C28.7201 3.07642 27.8331 3.55683 26.9978 4.1143C26.3995 4.05181 25.7977 4.00112 25.2068 3.99281C24.4631 3.98306 23.7373 4.36956 23.6459 5.12208C22.949 5.20877 22.3074 5.46523 21.897 5.97827C21.737 6.17802 21.6299 6.4092 21.5756 6.65001C21.1473 6.75127 20.7272 6.90647 20.3288 7.11115C19.845 7.36039 19.5658 8.05391 19.7367 8.56695C19.7762 8.68341 19.821 8.79686 19.8713 8.90786L19.91 8.99065L19.8871 9.02196C19.5008 9.64324 19.7692 10.4584 20.3613 10.8292C20.8055 11.1074 21.3013 11.3289 21.8116 11.4361C21.7695 11.6407 21.731 11.8466 21.6997 12.0549C21.6877 12.1393 21.7959 12.1995 21.8441 12.1163C21.7222 12.496 21.5693 12.895 21.3855 13.3133C21.2773 13.56 21.6239 13.7791 21.7562 13.5299C22.1076 12.8652 22.3256 12.1838 22.6445 11.4987C22.9393 11.4794 23.233 11.412 23.5159 11.2831C23.7012 11.1989 23.8419 11.0568 23.943 10.887C23.9492 10.8942 23.9527 10.9027 23.9588 10.9111C24.9084 12.1332 26.7643 12.5618 28.199 12.9483C29.7394 13.3638 31.3162 13.6202 32.8988 13.8092C35.6623 14.1379 38.4473 14.1993 41.2239 14.3271C41.4078 14.3354 41.5913 14.3447 41.775 14.3536C42.9027 15.3433 44.3553 15.9583 45.8453 16.1453C46.6003 16.2399 47.4934 16.2158 48.3399 16.023C48.6464 16.336 49.0336 16.5679 49.4562 16.687C49.5323 18.2642 50.4114 19.7574 51.7404 20.6278L51.7168 20.7216C51.3866 22.0683 51.3908 23.5405 52.5747 24.4765C52.7351 24.6032 52.9102 24.7118 53.0944 24.8018L53.0539 24.8949C52.4424 26.3246 52.2472 27.9038 53.3966 29.0901C53.8627 29.571 54.681 29.4571 55.0305 28.9052L55.0475 28.8773C55.0669 28.8444 55.0879 28.8129 55.108 28.7806C55.1391 28.8444 55.1868 28.8982 55.2576 28.9283C55.6945 29.1163 55.869 28.9777 56.2674 28.7838C56.6356 28.6032 57.0244 28.4684 57.4215 28.3638C57.7453 28.2793 58.0679 28.2191 58.3929 28.1842C60.4461 28.9693 61.7725 31.3773 61.4571 33.6373C61.2862 34.8678 60.6109 36.0863 59.4339 36.5968C58.9188 36.8208 58.3134 36.9147 57.7562 36.8389C57.0015 36.7365 56.4214 36.261 55.6403 36.533C55.3322 36.6402 55.1395 36.8823 55.1228 37.2134C55.095 37.7335 55.2792 38.1236 55.5897 38.4125C55.0421 38.8701 54.6004 39.5058 54.125 40.0128C53.5303 40.6472 52.9275 41.2818 52.2848 41.8669C51.6782 42.422 51.0329 42.9373 50.3494 43.395L50.2776 43.4423C49.4211 44.0002 48.3419 44.4957 48.3009 45.6622C48.2877 46.0137 48.5007 46.3363 48.7896 46.5157C49.8691 47.1852 51.0439 46.3062 51.89 45.6622C52.2306 45.4032 52.5616 45.1347 52.8805 44.8565C53.0935 44.8734 53.3258 44.8386 53.5678 44.7313C53.723 44.6639 53.8747 44.5844 54.0239 44.5001C54.5089 44.6218 54.9663 44.5146 55.343 44.2605C55.8858 44.3942 56.4611 44.4098 56.9498 44.3027C57.3962 44.204 57.7947 43.9932 58.1233 43.7103C58.8093 43.9294 59.5711 43.8885 60.2476 43.4731C60.6532 43.224 60.9697 42.8687 61.1418 42.4533C61.2294 42.3161 61.2855 42.156 61.2897 41.9796L61.2898 41.9127C61.8796 41.9259 62.4705 41.7236 62.9267 41.2566C63.3455 40.8278 63.55 40.2934 63.573 39.7502C64.1664 39.5818 64.7092 39.236 65.122 38.7027C65.8056 37.8189 65.897 36.7269 65.5455 35.7516C65.5685 35.6998 65.589 35.6469 65.607 35.5939C66.1523 34.8245 66.5121 33.8962 66.4832 32.9655C66.4796 32.821 66.4604 32.679 66.4315 32.5381C66.9683 32.2527 67.363 31.7518 67.4052 31.1149C67.4377 30.6152 67.2583 30.1263 66.9346 29.7567C67.0922 29.3798 67.162 28.9705 67.1139 28.5611C67.0646 28.1409 66.9165 27.7761 66.6998 27.4716C66.7047 27.3608 66.6987 27.2487 66.6806 27.1343C66.7023 27.0223 66.7203 26.9067 66.7298 26.7889C66.8323 25.498 65.9416 24.3686 64.8572 23.7726C64.572 23.6161 64.2639 23.4885 63.9557 23.3801C63.7319 23.3006 63.3949 23.2742 63.1975 23.1285C63.2059 23.1224 63.1241 23.0166 63.1096 22.9599C63.094 22.8901 63.0771 22.8214 63.0686 22.7504C63.0362 22.4518 63.0603 22.1448 63.0663 21.845C63.0928 20.4844 63.0507 19.1178 62.9074 17.7645C62.6414 15.2553 61.9854 12.8002 60.7073 10.6077C59.6349 8.77032 58.1666 7.21831 56.4828 5.93119C53.129 3.36866 48.9437 1.97534 44.8061 1.33208ZM60.3488 32.5369C60.7854 31.4872 58.73 31.4768 58.1866 31.5267L58.1706 31.5282C56.9474 31.65 55.0351 32.2385 54.5346 33.4733C54.3275 33.9844 54.9407 34.5383 55.4314 34.3703C55.9117 34.2058 56.1811 33.8525 56.5666 33.5434C56.6677 33.4623 56.7731 33.3866 56.8805 33.3135C56.8239 33.4936 56.7335 33.66 56.6079 33.7843L56.5783 33.8122C55.9864 34.3441 57.0449 35.1801 57.4377 34.4756C57.6469 34.1008 57.7307 33.6895 57.6655 33.2639C57.6461 33.1383 57.6124 33.0234 57.5634 32.9139C57.6024 32.8944 57.6408 32.8732 57.6803 32.8544L57.7507 32.8216C58.2218 32.6078 60.2321 31.7682 60.2158 32.5189C60.214 32.602 60.3217 32.6021 60.3488 32.5369Z" fill="black"/>
<path fill-rule="evenodd" clip-rule="evenodd" d="M32.0739 44.0763C32.883 43.7461 33.6048 43.1953 34.1326 42.4918C34.3161 42.2472 34.3637 41.9889 34.3252 41.7526C34.2819 41.487 34.1248 41.2463 33.9106 41.0848C33.6957 40.9228 33.4269 40.8429 33.167 40.8836C32.9412 40.919 32.7164 41.0427 32.5385 41.2992L32.5013 41.3505C32.1875 41.7752 31.7786 42.1236 31.3128 42.3482C30.8637 42.5647 30.3615 42.6657 29.8418 42.6069C28.852 42.4951 28.1698 41.9596 27.4447 41.2324C27.3548 41.1406 27.2649 41.0459 27.1745 40.9497C27.1174 40.8625 27.0382 40.8064 26.9503 40.777C26.8527 40.7443 26.7422 40.7462 26.641 40.7815C26.5435 40.8156 26.4562 40.8801 26.3977 40.966C26.3422 41.0477 26.3106 41.1486 26.3209 41.2646C26.3872 42.0182 26.7811 42.6908 27.3405 43.2189C27.9619 43.8054 28.7855 44.2112 29.5609 44.3535C30.4152 44.5103 31.2857 44.398 32.0739 44.0763ZM29.1579 32.4502C28.2491 33.0028 26.8642 34.2915 27.842 35.6616C28.9928 36.8697 30.6498 35.4846 31.4664 34.8581C32.2235 34.3726 33.0742 35.6213 32.3717 36.1882C26.4714 40.5583 24.0769 32.5947 28.6982 31.8004C29.207 31.7129 29.396 32.2792 29.1579 32.4502ZM39.7314 27.3666C39.631 26.1197 37.7326 25.8366 37.5438 27.0704C37.3747 28.1758 37.5737 29.1911 38.0714 30.1863C38.5469 31.137 39.7421 30.6934 39.8325 29.8277C39.9537 28.6673 39.7938 28.1423 39.7314 27.3666ZM25.2809 26.8146C25.0162 26.4678 24.6341 26.2311 24.1763 26.3649C22.7458 26.7831 23.1674 28.8146 23.6698 29.8035C23.9428 30.3405 24.8251 30.4767 25.2238 30.0039C25.8738 29.2328 26.185 27.6929 25.3588 26.9334C25.3364 26.8942 25.3115 26.8546 25.2809 26.8146ZM38.0916 21.9104L37.8656 21.8709C37.1666 21.7499 36.2975 21.6337 35.803 22.1959C35.5407 22.494 35.4504 23.0481 35.803 23.3335C36.4231 23.8356 37.1086 23.641 37.8517 23.6835C38.4641 23.7187 39.0526 23.82 39.6425 23.9887C40.9365 24.3587 41.991 25.0342 43.0962 25.7759C43.2413 25.8732 43.3893 25.6876 43.3201 25.5519C42.6821 24.3018 41.4457 23.2749 40.2072 22.6489C39.5462 22.3148 38.8228 22.0376 38.0916 21.9104ZM26.5849 21.3504L26.4119 21.3858C24.5299 21.7794 22.0846 22.5655 21.1934 24.4149C21.1594 24.6764 21.1953 24.7324 21.2245 24.769L21.2342 24.7812C21.2583 24.8125 21.2775 24.8556 21.3908 24.8912C21.4222 24.8837 21.4539 24.8758 21.486 24.8673C21.8946 24.7602 22.2178 24.6127 22.5307 24.4596L22.87 24.2924C23.2636 24.0993 23.6607 23.9132 24.0816 23.7759C24.9797 23.4828 25.9035 23.2764 26.8416 23.1662C27.0449 23.1423 27.2407 23.0736 27.3952 22.956C27.5418 22.8443 27.6538 22.6897 27.7049 22.4842C27.7711 22.2182 27.752 22.0168 27.6094 21.7769C27.5021 21.5967 27.3486 21.4718 27.1724 21.4C26.9927 21.3269 26.7882 21.3097 26.5849 21.3504Z" fill="black"/>
<path fill-rule="evenodd" clip-rule="evenodd" d="M18.3863 33.1835C19.8475 34.6939 22.2869 35.1274 24.2311 34.3173C29.223 32.2308 26.7796 25.723 22.9298 23.9753C22.4488 23.8554 21.8065 23.5709 21.2207 23.5064C21.1677 23.4804 21.0524 23.5556 20.9127 23.4845C16.6676 23.9586 15.7009 30.551 18.3863 33.1835ZM34.4874 33.5701C36.1263 35.7447 39.1732 36.4156 41.6627 35.4047C46.5807 33.4671 44.8364 27.6963 41.4715 25.4339C34.3636 22.762 31.4285 29.5605 34.4874 33.5701ZM45.1486 28.7518C45.1531 28.7496 45.1577 28.7485 45.1624 28.7463C45.1364 28.7349 45.1104 28.7235 45.0845 28.7118C45.093 28.7338 45.1021 28.7556 45.1103 28.7776C45.1231 28.7689 45.1342 28.7586 45.1486 28.7518ZM15.0028 26.4011C15.4041 26.402 15.9837 26.4679 16.3159 26.7464C17.1351 23.9828 20.1587 21.4251 22.7882 23.2901C24.859 23.9563 26.3955 25.4338 27.2689 27.3981C28.8435 26.4611 31.3195 26.8612 32.6849 28.1003C33.5792 25.1442 35.78 24.1091 38.3996 23.9563C41.2588 23.4878 44.1086 26.2657 44.9978 28.4941C45.7371 28.4099 46.8419 28.1745 47.5374 28.631C52.0516 27.4467 59.944 26.7938 60.8617 27.4518C61.5158 27.7028 61.8747 29.2471 60.9612 29.3304C60.1651 29.2174 61.0541 28.1989 60.2517 28.0877C55.9762 27.8226 51.8257 28.684 47.5955 29.0454C47.2179 29.5537 45.9976 29.7237 45.3466 29.5195C46.3719 33.2997 44.1585 35.8715 40.8421 36.6418C35.7068 37.8219 31.2391 33.2263 32.5819 28.4463C31.0263 27.6721 29.2369 27.7053 27.5423 28.1131C30.3741 38.5389 13.5895 38.0711 16.211 27.1037C14.4664 27.9718 14.0875 26.5763 15.0028 26.4011Z" fill="black"/>
</svg>
