<svg width="100" height="149" viewBox="0 0 100 149" fill="none" xmlns="http://www.w3.org/2000/svg">
<path fill-rule="evenodd" clip-rule="evenodd" d="M36.3978 147.365C46.1648 147.392 52.0148 147.278 63.0626 147.118C75.8494 146.78 79.2954 147.388 86.4588 145.981C87.5541 145.748 88.3873 145.396 89.2324 144.904C89.5354 145.247 90.0489 145.756 90.5366 145.419C91.435 144.825 91.0231 142.75 91.2459 141.579C91.6147 131.262 92.2045 120.637 90.1881 110.446C91.4105 110.048 98.5737 107.1 98.9648 106.113C92.4871 89.168 78.2771 69.3393 59.581 70.0861C59.205 70.5499 58.8705 71.2363 58.4533 71.7085C55.9113 70.7564 52.3828 69.8021 52.2087 66.1359C51.7685 63.6892 51.4514 61.4047 51.2394 59.1561C51.201 58.8989 50.8927 58.8105 50.7033 58.7009C50.6227 58.1195 50.4379 57.5252 50.0366 57.1265C46.76 56.832 39.2804 58.1838 37.3177 58.7408C34.64 59.1992 34.9185 62.0739 34.4197 64.2532C33.629 66.9473 33.0786 69.7433 31.9034 72.3753C31.6375 72.4119 30.8928 72.5416 30.6182 72.5896C30.6039 72.2914 30.7438 71.4062 30.4704 71.2256C29.9639 70.7163 29.847 71.6851 29.7345 72.001C18.6698 69.9108 11.4343 79.3036 9.00977 89.7956C7.25388 95.072 4.92702 100.412 1.88958 106.139C-0.0151825 109.695 5.45719 110.355 7.75119 111.774C5.38402 120.988 5.09901 130.372 4.7105 139.659C4.60796 141.087 4.46858 143.03 4.97444 143.74C5.21443 143.927 5.38126 143.922 5.62462 143.936C6.09412 144.442 6.89955 144.409 7.57752 144.553C9.72083 144.943 11.9172 145.204 13.9807 145.243C19.7728 148.829 28.7023 146.824 36.3978 147.365Z" fill="white"/>
<path fill-rule="evenodd" clip-rule="evenodd" d="M52.0454 59.1489C51.7412 57.6252 49.2272 57.9782 49.3414 59.515C50.6104 65.2341 49.8379 72.1962 57.8593 71.6334C52.7673 80.5933 37.0435 86.0428 31.961 74.2792C34.4654 73.9803 34.9609 68.0577 35.2634 65.9855L35.2758 65.8002C35.3429 64.7345 35.3204 63.7467 34.6799 62.8352C34.0408 63.3138 33.784 64.1806 33.5676 64.9711L33.4091 65.6042C32.8793 67.7138 32.3249 69.814 31.4843 71.8274L31.4546 71.8323C31.4966 70.4666 29.7441 69.8424 29.3097 71.3053C17.4523 69.6717 10.966 79.4604 8.40687 89.6979C6.54038 95.3019 4.10701 100.693 1.3429 105.905C-0.743126 109.977 4.32257 110.909 7.00207 112.263C4.9412 120.523 4.53668 129.08 4.15467 137.552C4.2814 139.36 3.46431 143.069 4.55558 144.365C6.17161 145.63 7.04227 143.462 6.7935 142.072C6.56145 132.242 7.58472 122.455 7.87863 112.641C9.9017 113.496 11.9495 114.284 14.0201 115.015C13.9146 124.225 12.82 133.435 12.4296 142.598C11.9173 143.001 11.6344 143.701 12.0717 144.312C14.4144 147.58 18.6496 148.068 22.3761 148.115C31.2443 148.226 40.1218 148.192 48.9907 148.165C57.7023 147.968 66.4898 148.526 75.1555 147.527C76.8537 148.803 77.2011 146.052 76.9736 144.879L76.8872 142.529C76.8291 140.962 76.7676 139.395 76.6884 137.83L76.4909 134.012C76.1603 127.649 75.8099 121.29 75.2541 114.94C80.2879 114.252 85.2493 113.03 90.0527 111.381C89.6573 122.404 90.4684 133.546 89.1159 144.513C88.2235 145.725 90.0133 146.863 91.0581 146.103C92.3539 145.115 91.7982 143.181 92.057 141.758L92.0902 140.839C92.4528 130.918 92.9483 120.789 91.0999 111.004L91.895 110.696C94.3187 109.749 100.552 107.218 99.7343 105.969C93.2272 88.9118 78.6711 68.5106 59.3927 69.4801C58.9043 69.8191 58.655 70.4796 58.2927 70.9531L57.7192 70.7449C55.498 69.9315 53.0858 68.9003 53.02 66.1652C52.5995 63.8347 52.2659 61.5037 52.0454 59.1489ZM20.2752 101.664C17.5137 97.8 36.667 103.907 38.0288 104.31L38.5416 104.497C46.9305 107.548 55.9742 110.498 62.6633 116.579C62.8039 116.733 62.6289 116.946 62.447 116.859L62.4237 116.846C62.1576 116.698 61.0054 116.286 61.8217 116.442C52.1564 110.344 40.9275 106.995 29.9554 104.065C28.3609 103.68 26.7589 103.325 25.1505 103.002C23.5281 102.608 21.6974 102.612 20.2752 101.664ZM50.5409 100.406C50.3046 99.4431 48.7173 90.5912 51.3536 93.0196C52.0565 94.2934 52.3264 95.7693 52.4529 97.2035C52.7929 98.8757 51.9347 100.678 52.7692 102.219C53.5162 104.233 56.2619 106.585 56.4453 102.844C51.9531 102.691 53.3017 96.9964 56.3601 98.7568C58.0348 100.191 58.3246 102.891 57.4862 104.869C58.8401 103.395 61.0354 103.39 62.6024 102.277C65.4324 99.217 60.6791 96.0325 58.0908 94.9303C57.9451 94.7698 55.8232 94.03 56.2729 93.9406C58.3047 93.9594 60.3409 94.3918 62.0944 95.4609C65.7236 97.2322 66.9589 102.716 62.8073 104.638C61.9095 105.071 60.9271 105.303 60.0382 105.75C57.7984 106.912 58.5221 108.371 60.8344 108.414C61.7854 108.622 64.924 107.751 64.5725 109.419C64.0048 110.461 62.7685 110.616 61.6854 110.646C58.7906 110.844 55.191 109.208 56.827 105.802C54.8522 107.485 52.3862 105.132 51.5398 103.303C50.5085 105.326 47.916 104.717 46.453 103.52C44.2174 105.281 41.4124 103.324 40.4166 101.137C40.3962 101.592 40.3759 102.047 40.3539 102.502C40.3089 103.434 38.8646 103.733 38.6511 102.732C38.3263 101.21 37.8786 99.7055 37.2628 98.275C35.8459 94.5144 34.9796 96.2101 34.9302 99.1569C34.7557 100.263 34.2018 101.255 32.9794 101.329C32.6386 101.35 32.1942 101.047 32.141 100.691L32.0706 100.22C31.9217 99.2322 31.7492 98.2154 31.3765 97.2877C31.0174 100.359 26.997 100.344 25.8762 97.7975C23.5505 99.1937 21.1104 97.2431 20.0262 95.2259L19.9937 95.1647C19.6149 94.4748 20.5776 93.6404 21.128 94.2893L21.319 94.4883C22.357 95.563 24.0085 97.1213 25.3733 95.7941C25.3279 95.1955 25.3462 94.5841 25.3831 93.9954C25.4272 93.2932 26.3961 92.6685 26.947 93.2964C27.7234 92.6365 28.6879 92.7315 29.5001 93.1919C31.6039 93.7866 32.9292 95.8354 33.3856 97.8716C33.4341 96.2446 33.9662 94.4794 35.7529 94.3263C37.5834 94.3108 38.2841 96.358 38.9084 97.7358C38.9446 97.1188 38.9795 96.5018 39.0109 95.8846C39.0648 94.8228 40.5372 94.8339 40.6578 95.8532L40.661 95.8847C40.893 98.0878 42.1128 103.365 45.1908 102.332C43.8928 100.902 41.545 96.5437 43.7771 95.1861C47.2122 94.3213 48.9742 99.742 47.5092 102.265L47.5852 102.318C48.4221 102.895 49.8051 103.538 50.2724 102.244L50.3253 102.124C50.5652 101.577 50.7771 100.984 50.5409 100.406ZM55.4547 99.7954C54.8043 99.4157 54.5729 100.673 54.7389 101.096C55.0049 101.773 55.7304 102.15 56.4535 102.408L56.451 102.331C56.4191 101.558 56.1612 100.209 55.4547 99.7954ZM44.5065 96.6559C44.4918 96.7466 44.5158 96.8572 44.5188 96.9414C44.63 98.4239 45.2893 99.8475 46.2063 101.004C46.7342 99.4325 46.0538 97.3553 44.5065 96.6559ZM28.8694 94.8018C28.4479 94.6907 28.0012 94.7219 27.5667 94.8394C27.5982 95.3335 27.491 95.8278 27.2759 96.2813C28.3975 99.6509 31.0343 97.0571 28.8694 94.8018Z" fill="black"/>
<path fill-rule="evenodd" clip-rule="evenodd" d="M30.0719 23.338C37.9877 16.9017 50.673 14.8118 59.1464 21.3053C65.7304 27.3993 68.4551 44.7165 67.2899 53.4183C66.9659 58.9997 62.7035 65.3258 56.4465 63.5606C55.384 63.4559 54.3523 63.0485 53.28 62.9631C51.9974 62.8154 50.705 62.8128 49.4249 62.9938C46.6355 63.3885 44.1627 64.8701 41.4554 65.5627C36.4319 66.8479 30.8267 65.9834 26.5026 63.0885C12.213 53.69 18.6858 32.4345 30.0719 23.338Z" fill="white"/>
<path fill-rule="evenodd" clip-rule="evenodd" d="M31.1261 65.7176C30.9792 65.6669 30.8325 65.614 30.6868 65.5598C30.6772 65.5935 30.6616 65.6259 30.6434 65.6573C30.6229 65.7079 30.6025 65.7572 30.5797 65.8065C30.7625 65.8079 30.9456 65.7752 31.1261 65.7176ZM31.4197 3.34585C31.4847 3.20028 31.5594 3.06061 31.6437 2.92564C31.4391 2.99198 31.2343 3.08349 31.049 3.20148C31.1742 3.24362 31.297 3.29178 31.4197 3.34585ZM62.6872 22.389C62.6956 22.3876 62.7039 22.3864 62.7122 22.3849C62.6048 22.099 62.4136 21.829 62.2024 21.6341C62.1644 21.5991 62.1234 21.5667 62.0837 21.5332C62.3079 21.8004 62.5113 22.0854 62.6872 22.389ZM5.47572 52.2912C5.58163 51.287 5.71642 50.2866 5.89094 49.2919C6.05824 48.3397 6.19906 47.3211 6.68409 46.4758C7.16552 45.6342 7.64815 44.8165 8.22093 44.0762C8.13921 43.6981 8.03076 43.3429 7.937 43.0564C7.3954 41.4068 6.8621 39.3118 7.98756 37.7791C8.24873 37.4239 8.56756 37.1517 8.93236 36.9061C9.08762 36.8014 9.34506 36.7063 9.46433 36.5618C9.54858 36.4594 9.51958 36.5148 9.52332 36.4642C9.54377 36.1921 8.90588 35.6178 8.75664 35.4023C8.47729 35.0036 8.2692 34.5546 8.11032 34.0959C7.48206 32.2802 7.90932 30.2803 8.28712 28.4609C8.48692 27.4966 8.70718 26.5297 8.77951 25.5448C8.84691 24.6201 8.72053 23.7171 8.64591 22.7972C8.57358 21.8892 8.59283 20.9526 8.9817 20.1121C9.17187 19.7027 9.4594 19.3415 9.80975 19.0597C10.1515 18.7841 10.5776 18.624 10.9109 18.3495C11.2432 18.076 11.1481 17.7065 11.0613 17.3285C10.9423 16.8155 10.7919 16.3062 10.7774 15.7765C10.7509 14.853 11.1277 13.9534 11.7161 13.2552C12.3228 12.534 13.1894 12.0462 14.1257 11.9367C14.5542 11.8861 14.9755 11.9717 15.4015 11.9416C15.8228 11.9127 15.9141 11.702 15.9937 11.3167C16.1765 10.4341 16.102 9.56242 16.5364 8.73885C16.9215 8.0068 17.6065 7.51061 18.3635 7.21815C19.7511 6.68115 21.3651 6.79192 22.8287 7.10846C23.6928 4.56566 26.39 2.89806 29.0438 2.8776C29.458 2.17444 30.1597 1.64948 30.9599 1.34112C32.2838 0.829406 33.6861 1.12813 35.0653 1.12813H35.0713C35.2098 1.11958 35.3483 1.11609 35.4865 1.11729C35.6166 1.10995 35.7466 1.09911 35.8766 1.08478C37.4461 0.89924 38.9987 0.256284 40.5537 0.886116C41.2469 1.16666 41.7982 1.59891 42.1471 2.15036C42.673 2.29352 43.1919 2.45739 43.7009 2.64762C45.9071 2.7053 48.0928 3.88887 49.2084 5.80702C50.7791 5.62882 52.4833 5.93104 53.5221 7.21454C53.7927 7.54854 54.0022 7.94094 54.1411 8.35753C55.2002 8.7002 56.1803 9.31077 56.8217 10.2304C57.407 11.0696 57.5194 12.1547 57.1235 13.0556C58.0691 13.7408 58.8079 14.7217 59.1638 15.88C59.3801 16.5838 59.4122 17.3109 59.2731 18.0036C60.2411 18.2184 61.167 18.6165 61.9874 19.2141C62.8471 19.8401 63.9208 20.8364 63.9774 21.9832C63.9816 22.0673 63.9783 22.1515 63.9716 22.2354C65.8642 22.1024 67.794 22.4231 69.0733 23.941C70.0338 25.0799 70.4514 26.5466 70.195 27.8819C72.4469 28.3394 74.5761 29.5169 76.0613 31.258C77.1408 32.5234 78.1 34.132 78.0424 35.8549C78.0243 36.3739 77.9027 36.8965 77.692 37.3793V37.3804C77.7823 37.5503 77.8751 37.7393 77.9642 37.9404C79.3591 38.9167 80.3725 40.4472 80.943 42.1341C81.4038 43.5005 81.6939 45.2754 81.2017 46.6661C81.127 46.878 81.0319 47.0778 80.9212 47.2631C81.014 47.362 81.1017 47.4607 81.1872 47.5607C82.1273 48.6598 83.0793 50.0445 83.0142 51.5579C82.9877 52.1673 82.7616 52.7802 82.392 53.2833C83.6919 54.6019 84.7389 56.2659 84.6355 58.1237C84.5465 59.7407 83.6593 61.383 82.2693 62.1596C82.5015 63.4058 82.191 64.7206 81.221 65.6935C80.7371 66.1799 80.1667 66.5002 79.5624 66.6712C79.4276 68.1389 78.1254 69.32 76.7425 69.6595C76.4848 69.7234 76.2273 69.7619 75.971 69.7799C74.7266 70.3904 73.2426 70.3205 71.9728 69.7606C71.5985 70.2363 71.111 70.624 70.543 70.9021C70.3131 71.0153 70.0698 71.1092 69.816 71.185C68.0227 71.716 66.1835 70.9961 64.6154 70.1556C64.5648 70.1292 64.4722 70.0954 64.3903 70.0581C64.1737 70.3001 63.7789 70.5397 63.5731 70.6577C62.8749 71.0587 62.0216 71.2452 61.22 71.1923C60.28 71.1297 59.4509 70.8191 58.683 70.3772C58.571 70.3964 58.4579 70.4073 58.3447 70.4133C57.6225 70.4517 56.9788 70.2231 56.3997 69.8619C56.0171 69.9124 55.6247 69.9076 55.2276 69.8378C54.3525 70.0604 53.5003 69.7065 52.8156 69.1442C52.5122 68.895 52.256 68.6024 51.9814 68.3231C51.6963 68.0328 51.4795 67.9655 51.1463 67.7704C50.3578 67.3093 50.2629 66.1402 50.6047 65.2948C50.5397 65.1468 50.5022 64.9819 50.5022 64.7989C50.5048 63.2023 51.24 61.7382 52.1427 60.4607C52.546 59.8912 52.984 59.3336 53.4643 58.828C53.8507 58.4222 54.3934 57.7637 54.9651 57.5986C55 57.5734 55.0362 57.548 55.0723 57.5241C54.9615 57.1363 54.8966 56.7414 54.9241 56.3381C54.9532 55.9238 55.0867 55.5313 55.3009 55.1967C54.5825 53.8036 54.279 52.2757 54.4235 50.6815C53.8386 49.8518 53.3956 48.9357 53.1671 47.9315C53.0262 47.3102 52.9455 46.6564 52.9564 46.0194C52.9613 45.7137 53.0732 45.327 53.0755 45.0105C53.0586 45.1104 52.9286 44.7372 52.8781 44.6444C52.2981 43.5669 51.5531 42.7264 51.429 41.4562C51.3569 40.7132 51.5326 39.8921 51.9779 39.2829C51.6927 38.1583 51.6963 36.9506 52.1452 35.8779C52.2656 35.5913 52.4039 35.3108 52.5627 35.0447C52.4895 34.8207 52.4219 34.5944 52.3354 34.3908C52.3016 34.3101 52.268 34.2283 52.2343 34.1465C51.9081 33.8586 51.6047 33.5444 51.3496 33.2361C50.784 32.5535 50.3518 31.7709 50.2976 30.869C50.2712 30.4174 50.3771 29.9852 50.5083 29.5567C50.5662 29.3628 50.6011 29.1473 50.6697 28.9583C50.7081 28.8534 50.8008 28.7464 50.8332 28.6476C50.8406 28.626 50.8466 28.6079 50.8514 28.5934C50.8466 28.579 50.8428 28.5489 50.8428 28.4922C50.8418 28.0599 50.7852 27.6373 50.7827 27.2208C50.3867 27.6206 49.9101 27.9191 49.3685 28.0938C48.277 28.4441 47.1383 28.2852 46.1719 27.7446C45.1319 28.4574 43.9634 29.1026 42.738 29.3616C42.01 29.5156 41.2805 29.4519 40.5501 29.547C39.8243 29.6422 39.1225 29.9588 38.439 30.2057C36.9176 30.7559 35.4 31.3205 33.8739 31.8564C32.6414 32.2886 31.3079 32.6318 30.0175 32.3886C29.6553 32.9471 29.1847 33.4192 28.5817 33.766C28.1497 34.0128 27.6755 34.1801 27.1857 34.2633C26.7524 34.3367 26.2443 34.3078 25.893 34.6052C25.55 34.8942 25.3358 35.3251 25.0277 35.6503C24.6845 36.0139 24.261 36.3294 23.8169 36.5557C23.4606 36.7376 23.097 36.8687 22.7276 36.9543C22.76 37.7766 22.7914 38.5978 22.8011 39.4214C22.819 41.2106 22.8119 42.9996 22.8358 44.789C22.8599 46.572 22.9165 48.3553 23.0104 50.1361C23.0995 51.8073 23.2247 53.4844 23.6231 55.1148C24.9446 60.5245 29.8949 64.3979 35.4361 64.5954C37.0813 64.6544 38.7098 64.4232 40.2829 63.9391C41.9124 63.4371 43.3676 62.4039 45.0382 62.0862C45.4751 62.0042 45.8867 62.4438 45.6363 62.8663C45.2053 63.5924 44.6819 64.0355 43.9658 64.4725C43.2158 64.9289 42.3807 65.2672 41.5562 65.5634C40.0398 66.1075 38.4353 66.4231 36.8261 66.511C35.5986 66.5783 34.3661 66.4942 33.1638 66.263C33.0794 66.5219 32.9302 66.7735 32.8171 67.0131C32.8003 67.048 32.7436 67.0239 32.7544 66.9878C32.7726 66.9276 32.7845 66.8746 32.7893 66.8313C32.3851 67.3587 31.7604 67.7234 31.1188 67.9005C30.6664 68.0257 30.186 68.0641 29.7202 68.0112C29.5698 67.9943 29.4267 67.9691 29.2846 67.9378C28.8105 68.3532 28.2039 68.6301 27.5949 68.7686C27.6995 69.4043 27.3854 70.0978 26.6572 70.2785C26.3516 70.3543 26.0579 70.3555 25.7641 70.3278C25.527 70.4386 25.2719 70.5253 25.0011 70.5843C24.6485 70.6613 24.2273 70.5625 23.9613 70.3074C23.8157 70.4097 23.6797 70.4807 23.5449 70.6432C22.9899 71.3127 21.7937 70.7793 21.7407 70.0051C21.565 70.0051 21.3881 70.0075 21.211 70.0136C21.169 70.0328 21.1269 70.0521 21.0836 70.0726C20.3097 70.4324 19.5081 70.7468 18.6522 70.4639C18.4947 70.412 18.3503 70.3459 18.2191 70.2688C17.6161 70.323 17.0215 70.3242 16.41 70.1267C16.0489 70.0098 15.7096 69.8245 15.4268 69.5813C14.4832 69.8582 13.4877 69.9835 12.549 69.6402C11.8462 69.3839 11.2804 68.9793 10.8821 68.4458C10.273 68.4676 9.6545 68.3207 9.09724 68.0305C8.14402 67.5369 7.47604 66.5988 7.01026 65.6586C5.9847 63.584 5.37811 61.3553 5.13992 59.0568C4.90523 56.7932 5.23981 54.5417 5.47572 52.2912Z" fill="black"/>
<path fill-rule="evenodd" clip-rule="evenodd" d="M34.6239 57.0763C35.433 56.7461 36.1549 56.1953 36.6827 55.4918C36.8662 55.2472 36.9137 54.9889 36.8752 54.7526C36.832 54.487 36.6749 54.2463 36.4606 54.0848C36.2457 53.9228 35.9769 53.8429 35.717 53.8836C35.4912 53.919 35.2664 54.0427 35.0885 54.2992L35.0513 54.3505C34.7376 54.7752 34.3287 55.1236 33.8628 55.3482C33.4138 55.5647 32.9116 55.6657 32.3919 55.6069C31.4021 55.4951 30.7199 54.9596 29.9947 54.2324C29.9049 54.1406 29.8149 54.0459 29.7246 53.9497C29.6675 53.8625 29.5883 53.8064 29.5003 53.777C29.4027 53.7443 29.2922 53.7462 29.1911 53.7815C29.0935 53.8156 29.0063 53.8801 28.9478 53.966C28.8922 54.0477 28.8607 54.1486 28.8709 54.2646C28.9373 55.0182 29.3311 55.6908 29.8906 56.2189C30.5119 56.8054 31.3355 57.2112 32.111 57.3535C32.9652 57.5103 33.8357 57.398 34.6239 57.0763ZM31.708 45.4502C30.7991 46.0028 29.4143 47.2915 30.392 48.6616C31.5429 49.8697 33.1999 48.4846 34.0164 47.8581C34.7735 47.3726 35.6242 48.6213 34.9218 49.1882C29.0214 53.5583 26.6269 45.5947 31.2483 44.8004C31.7571 44.7129 31.9461 45.2792 31.708 45.4502ZM42.2814 40.3666C42.181 39.1197 40.2827 38.8366 40.0938 40.0704C39.9247 41.1758 40.1238 42.1911 40.6215 43.1863C41.097 44.137 42.2922 43.6934 42.3826 42.8277C42.5037 41.6673 42.3439 41.1423 42.2814 40.3666ZM27.8309 39.8146C27.5663 39.4678 27.1841 39.2311 26.7263 39.3649C25.2959 39.7831 25.7175 41.8146 26.2198 42.8035C26.4928 43.3405 27.3752 43.4767 27.7739 43.0039C28.4238 42.2328 28.7351 40.6929 27.9088 39.9334C27.8864 39.8942 27.8615 39.8546 27.8309 39.8146ZM40.6416 34.9104L40.4157 34.8709C39.7166 34.7499 38.8475 34.6337 38.353 35.1959C38.0908 35.494 38.0005 36.0481 38.353 36.3335C38.9731 36.8356 39.6587 36.641 40.4017 36.6835C41.0141 36.7187 41.6027 36.82 42.1925 36.9887C43.4866 37.3587 44.541 38.0342 45.6463 38.7759C45.7913 38.8732 45.9393 38.6876 45.8701 38.5519C45.2321 37.3018 43.9957 36.2749 42.7572 35.6489C42.0962 35.3148 41.3729 35.0376 40.6416 34.9104ZM29.1349 34.3504L28.962 34.3858C27.0799 34.7794 24.6347 35.5655 23.7435 37.4149C23.7095 37.6764 23.7454 37.7324 23.7746 37.769L23.7843 37.7812C23.8083 37.8125 23.8275 37.8556 23.9408 37.8912C23.9722 37.8837 24.004 37.8758 24.0361 37.8673C24.4446 37.7602 24.7678 37.6127 25.0808 37.4596L25.42 37.2924C25.8137 37.0993 26.2108 36.9132 26.6316 36.7759C27.5297 36.4828 28.4535 36.2764 29.3916 36.1662C29.595 36.1423 29.7908 36.0736 29.9452 35.956C30.0918 35.8443 30.2038 35.6897 30.2549 35.4842C30.3211 35.2182 30.3021 35.0168 30.1594 34.7769C30.0522 34.5967 29.8987 34.4718 29.7224 34.4C29.5428 34.3269 29.3382 34.3097 29.1349 34.3504Z" fill="black"/>
</svg>
