<svg width="112" height="243" viewBox="0 0 112 243" fill="none" xmlns="http://www.w3.org/2000/svg">
<path fill-rule="evenodd" clip-rule="evenodd" d="M92.9712 110.724C92.9573 111.67 92.8622 113.845 92.6242 114.761C95.2759 110.518 99.2494 105.88 99.8537 100.683C99.6654 100.632 98.8298 100.555 98.6839 100.445C97.3119 101.082 97.5715 99.1233 97.3687 98.2176C96.8211 96.3 95.6707 94.4138 95.1709 92.4835C93.857 91.9163 96.4955 91.676 96.8789 91.6647C95.2851 89.8933 94.5521 87.4581 93.4173 85.3916C91.7499 81.8797 90.2566 78.2896 88.9232 74.6432C88.6318 76.9279 88.5795 79.2374 88.7571 81.5348C89.3054 91.3754 93.0084 100.837 92.9712 110.724ZM0.936752 93.2433C1.76173 93.3817 3.13653 93.5128 3.95985 93.5801C2.87917 92.9369 -0.314812 91.7116 1.69801 90.6105C2.31863 90.3842 2.98462 90.707 3.61045 90.8068C6.20955 91.2338 9.41884 91.2113 12.0482 90.9961C11.0898 90.2107 9.82777 89.0796 8.89233 88.2668C8.39521 87.8349 7.9132 87.6712 8.4724 87.0263C9.45805 86.1099 11.2207 86.7848 12.3603 87.1876C15.504 88.9458 19.0536 90.853 22.4276 92.2059C22.463 91.7339 22.4411 91.1238 22.8969 90.8068C24.2338 90.1778 25.2182 90.3616 26.6408 90.1942C28.2988 89.9461 29.7726 89.6639 31.4146 89.2261C32.4886 88.4084 33.1434 85.9969 34.8608 86.2664C33.3398 82.4452 35.658 78.4585 36.5289 74.7996C37.6157 71.0551 38.1867 67.1662 38.2022 63.2728C38.2129 57.0393 41.8295 52.2563 47.0553 49.0578C49.1154 47.6689 50.4988 44.2906 53.0493 43.6139C53.3737 42.3714 53.3934 41.8255 53.6782 40.5735C53.8213 40.2139 53.9275 38.2624 54.2872 38.3288C54.6837 36.3957 56.7048 35.6205 58.4536 35.2156C60.7275 34.7452 63.9008 34.1753 65.9449 35.5028C66.5369 35.9946 66.797 36.8181 66.8404 37.5539C67.0676 38.5335 67.54 39.5484 68.0907 40.3984C69.0305 40.0814 68.4986 39.4906 69.4282 39.3531C77.9156 38.0972 87.3367 44.3134 92.8436 50.3777C102.826 60.6111 110.8 74.5813 109.495 89.1663C109.846 89.1146 111.402 88.8711 111.379 89.3619C111.303 91.4963 110.91 93.2765 110.801 95.4092C110.909 98.2346 107.969 98.575 105.845 99.2718C105.976 107.469 102.993 115.668 98.3239 122.406C97.1896 123.732 95.4877 128.333 93.4173 126.501C93.1733 126.216 95.0655 124.242 95.4021 123.754C96.5515 122.31 99.5963 115.157 97.4444 113.728C96.9661 115.272 92.3339 122.697 91.5082 118.483C90.4115 119.118 88.5992 119.552 87.2882 119.486C84.8236 120.819 82.4254 122.259 80.0585 123.754C78.9561 125.916 77.339 127.992 75.9842 130.068C85.3602 151.69 94.5119 187.277 106.578 207.642C107.63 208.972 101.842 211.233 100.82 211.721C102.775 214.89 103.02 218.562 104.507 221.974C104.79 221.928 105.076 221.988 105.331 222.125C107.166 223.365 107.858 227.806 107.963 229.995C107.878 230.972 108.241 232.449 107.449 233.168C107.56 233.288 107.643 233.434 107.701 233.583C108.258 234.016 108.19 234.972 107.892 235.565C106.844 237.736 99.1873 237.535 96.7025 237.999C87.9008 238.743 80.5132 238.86 71.7126 238.047C70.6325 237.821 71.4493 236.138 71.9827 235.682C71.7363 235.532 71.5788 235.259 71.6866 234.908C73.6873 229.196 80.9184 229.582 85.2939 226.532C84.1434 225.867 84.886 226.079 85.6088 226.338C86.376 225.856 87.1223 225.315 87.8136 224.716C87.2826 224.389 87.5445 224.173 88.1189 224.447C89.0242 223.722 89.7293 222.602 90.8826 222.25C92.0121 221.974 92.0121 221.492 92.0121 221.188C91.3399 218.489 90.6056 215.722 90.2282 212.985C89.8256 213.578 86.3521 208.828 85.6088 207.642C82.721 203.076 82.7288 198.576 80.7079 193.611C76.558 182.797 68.0572 160.132 62.873 149.79C50.7433 169.524 56.6513 196.213 49.1685 217.256C48.836 217.888 48.2106 220.259 47.3446 219.575C47.0079 219.653 46.65 219.696 46.3294 219.741C46.422 222.041 46.5946 224.336 46.9775 226.612C47.3341 226.706 47.6371 226.893 47.7941 227.22C48.3947 226.779 49.5445 233.275 49.643 233.937C49.6444 234.79 50.3814 236.69 49.7083 237.198C50.6781 237.594 50.8366 239.058 50.1545 239.811C48.1294 242.529 38.258 241.782 34.6163 242.237C30.0111 242.123 10.7455 243.845 9.40791 239.483C9.14197 238.487 9.5978 237.23 10.525 236.847C10.154 235.982 11.0425 235.148 11.586 234.541C14.7913 231.212 19.7198 230.688 23.9874 229.239C23.8283 229.076 29.558 226.145 30.8002 225.421C30.7182 224.437 32.7668 225.423 32.7725 225.421C33.7492 223.697 34.4411 221.016 35.096 219.157C33.8873 218.783 30.9752 218.45 30.4355 217.256C28.7008 216.675 30.4408 214.163 30.8002 212.985C40.9685 187.585 31.3214 155.546 46.3294 131.572C43.5784 129.999 40.4223 126.556 43.1397 123.668C43.6836 122.974 45.0139 120.813 44.992 121.19C45.4973 119.132 46.6259 115.588 46.9775 113.507C48.2685 105.867 47.4223 98.7118 46.3294 90.9961C44.8122 96.8019 39.5827 101.639 34.2628 104.291C32.1866 105.147 29.4449 106.912 27.1655 106.355C25.1083 105.748 21.3721 101.531 20.9317 99.506C14.9346 100.218 8.70773 99.6466 2.97642 97.7645C2.24069 97.4866 1.37006 97.5101 1.59752 96.4677C1.8244 95.583 3.44218 95.8086 4.13777 95.9729C3.07452 95.3845 0.314301 95.2305 0.334732 93.692C0.371353 93.3713 0.608475 93.1882 0.936752 93.2433Z" fill="white"/>
<path fill-rule="evenodd" clip-rule="evenodd" d="M66.8195 36.2462C66.7283 36.2831 66.666 36.4216 66.6291 36.6298C66.5276 36.6614 66.4406 36.7363 66.4144 36.8491C66.3374 37.1808 66.4274 37.5267 66.4967 37.8573L66.5046 37.8954C66.5703 38.2155 66.6505 38.5336 66.7486 38.8456L66.7629 38.9246C67.0017 40.2139 67.4619 41.4397 68.0024 41.2315L67.8775 41.4585C65.7568 45.3013 59.699 55.6194 54.9693 54.1487C52.215 53.0465 52.2544 49.4637 52.4558 46.9702C54.5008 48.2226 54.8834 38.6356 54.4641 37.5761C54.1304 37.331 53.9694 39.5364 53.8452 39.8404C53.5742 41.0501 53.2419 42.2443 52.9299 43.4439C52.2705 43.5743 51.6469 43.8367 51.0954 44.2128C51.0692 44.2279 51.0421 44.2416 51.0163 44.2572C50.6854 44.4583 50.4273 44.7147 50.1971 44.9987C49.9369 45.2893 49.7144 45.6074 49.5043 45.9344C49.0425 46.4584 48.6022 47.0018 48.1472 47.5313C47.9313 47.7826 47.7103 48.0263 47.4843 48.2637L47.3101 48.4099C47.281 48.4342 47.2518 48.4583 47.2225 48.4823C41.9972 51.7396 38.3798 56.6133 38.3697 62.9614C38.3542 66.9273 37.7833 70.8883 36.6964 74.7025C35.8257 78.4293 33.0122 82.2386 34.5331 86.1306C32.8158 85.856 32.6562 88.0605 31.5823 88.8935L31.2448 88.9847C29.7361 89.3901 28.3524 89.7282 26.8087 89.9635C25.386 90.1341 23.7413 89.9467 22.4045 90.5875C21.9488 90.9104 22.1118 91.493 22.0763 91.9737C18.7025 90.5956 15.6723 88.6919 12.5287 86.901L12.4234 86.8634C11.2598 86.451 9.18414 85.8313 8.22809 86.7368C7.66891 87.3936 8.23346 87.98 8.73056 88.4199C9.66597 89.2477 10.6583 90.0071 11.6166 90.8071C9.03419 91.0224 6.44371 90.8507 3.88977 90.4324L3.7505 90.4093C3.12478 90.3077 2.38693 90.0644 1.76624 90.2949C-0.246429 91.4165 2.08244 92.7258 3.16308 93.381C2.3397 93.3124 1.51773 93.2102 0.692703 93.0692C0.364525 93.0132 0.127403 93.1997 0.0910873 93.5263C0.0703583 95.0934 2.13768 95.1778 3.20081 95.7771L3.11559 95.757C2.42052 95.5963 1.42114 95.4551 1.20334 96.3201C0.9758 97.382 2.40947 97.811 3.14517 98.094C8.87628 100.011 15.1029 100.593 21.0998 99.868C21.54 101.931 25.2763 106.225 27.3335 106.844C29.6128 107.412 32.3543 105.614 34.4305 104.742C39.7502 102.04 44.6792 97.5835 46.1964 91.6699C47.4713 100.839 46.956 110.083 45.042 119.104C44.7321 119.808 44.4052 120.5 44.0374 121.175C43.9263 121.193 43.8322 121.267 43.8105 121.417C43.7992 121.499 43.7826 121.579 43.7639 121.658C43.3976 122.279 42.9962 122.876 42.6235 123.494C42.5465 123.621 42.4705 123.754 42.401 123.89C39.92 126.811 42.9439 130.576 45.6484 132.151C30.6409 156.571 40.3339 187.344 30.166 213.217L30.1433 213.29C29.7574 214.521 28.582 217.054 30.282 217.633C30.8217 218.85 33.5414 218.994 34.7499 219.375C34.0951 221.269 33.367 223.142 32.3903 224.897L32.3726 224.905C31.9836 224.619 31.1494 224.324 30.8046 224.635C30.7208 224.646 30.6372 224.67 30.5556 224.71C30.0221 224.975 29.5928 225.481 29.0824 225.8C28.8064 225.972 28.5195 226.129 28.224 226.265C27.949 226.393 27.6568 226.476 27.4324 226.686C27.3615 226.752 27.3435 226.836 27.361 226.914C27.1839 227.006 27.0069 227.098 26.8304 227.19L26.7346 227.131C25.175 226.16 23.9209 225.635 26.1896 227.499C25.3767 227.874 24.543 228.202 23.704 228.51C23.0667 228.204 22.3866 227.98 21.6853 227.95C21.5592 228.105 22.5231 228.707 22.6822 228.873C18.4148 230.348 13.7212 231.504 10.5161 234.894L10.4806 234.934C9.93489 235.549 9.09215 236.382 9.45503 237.243C8.52796 237.634 8.07198 238.914 8.33807 239.928C9.67555 244.371 30.1789 242.617 34.7839 242.734C38.4255 242.27 48.2965 243.03 50.3217 240.262C51.0035 239.495 50.8452 238.004 49.8754 237.601C50.5485 237.084 49.8116 235.148 49.81 234.279L49.7945 234.178C49.6914 233.529 49.2445 230.989 48.7808 229.214C48.7713 229.074 48.7527 228.931 48.7302 228.786L48.7157 228.695C48.6234 228.129 48.4819 227.553 48.1159 227.098C47.853 226.772 47.4888 226.57 47.0935 226.497C46.9876 225.821 46.9007 225.144 46.826 224.465C46.7735 223.667 46.7535 222.868 46.7625 222.068C46.7672 221.665 46.7778 221.261 46.7976 220.858C46.8121 220.561 46.7951 220.208 46.8706 219.905C46.9208 219.956 46.9924 219.984 47.0726 219.957C47.2429 219.898 47.3997 219.791 47.5561 219.703C47.5619 219.7 47.5666 219.696 47.5717 219.692C48.4067 220.234 49.0109 217.917 49.3357 217.288C56.8181 195.854 50.9103 171.187 63.0397 151.086C64.7142 154.675 66.1532 157.967 67.7649 161.581C72.7985 172.867 79.0124 192.746 83.1797 204.696C84.3135 207.139 85.6462 209.5 87.2303 211.681C87.7368 212.255 88.0766 213.098 88.8097 213.407L88.8739 213.416C89.0695 213.781 89.3412 214.089 89.7451 214.079C89.8441 214.076 89.9452 214.065 90.0472 214.047C90.4052 216.534 90.8553 219.036 91.4537 221.483L91.373 221.45C90.9813 221.288 90.5694 221.15 90.1674 221.186C89.1919 221.433 89.5531 222.285 90.3242 222.566C89.3644 222.863 88.7149 223.703 88.0021 224.402C87.3998 224.078 86.7246 223.91 86.0031 223.981C85.8926 223.992 85.8084 224.04 85.7499 224.106C85.7085 224.106 85.6683 224.109 85.6302 224.115L85.7087 224.162C85.5805 224.377 85.672 224.705 86.0031 224.707C86.263 224.708 86.5132 224.732 86.7552 224.776C86.9232 224.875 87.0904 224.974 87.2553 225.077C86.6991 225.568 86.1069 226.02 85.4971 226.434C85.175 226.27 84.8344 226.132 84.4802 226.021C84.0229 225.879 83.8232 226.605 84.2826 226.736C84.3801 226.764 84.4767 226.795 84.5726 226.829L84.6668 226.886C84.6889 226.899 84.7118 226.912 84.7358 226.926C80.3603 230.034 72.9644 229.64 70.9637 235.458C70.8975 235.678 70.9316 235.867 71.0247 236.017C70.5911 236.414 70.391 237.128 70.4887 237.676L70.4804 237.722C70.406 238.165 70.513 238.554 70.9898 238.656C74.1718 238.951 77.346 239.14 80.5419 239.198L80.7997 239.2C85.3785 239.231 107.649 239.064 108.654 236.128C108.922 235.584 109.004 234.741 108.612 234.256C108.567 233.995 108.477 233.757 108.318 233.571C108.963 232.921 108.646 231.28 108.725 230.454C108.583 227.696 108.023 224.739 106.335 222.482C106.307 222.446 106.274 222.424 106.24 222.414C105.945 222.118 105.558 221.931 105.115 221.906C105.101 221.871 105.087 221.837 105.074 221.803C104.729 220.992 104.402 220.166 104.077 219.337C103.836 218.394 103.585 217.454 103.333 216.519C103.081 215.584 102.835 214.649 102.594 213.712C102.402 212.965 102.237 212.123 101.905 211.409C101.914 211.378 101.923 211.348 101.933 211.318L102.278 211.178C104.541 210.259 108.128 208.709 107.34 207.686C98.9433 190.26 90.7245 165.453 83.0193 147.388C82.8989 147.034 82.7716 146.682 82.6318 146.333C82.2915 145.483 81.9468 144.635 81.5972 143.79L81.3869 143.282L78.03 135.216C77.6786 134.371 77.2825 133.531 77.0056 132.659C76.7388 131.818 76.6671 130.982 77.174 130.218C77.6276 129.533 78.2668 128.967 78.7782 128.324C79.1649 127.838 79.5419 127.319 79.8797 126.773C80.1865 126.369 80.4429 125.907 80.6717 125.534C81.0384 124.937 81.5046 124.276 81.7707 123.586C82.1139 123.369 82.4578 123.154 82.8029 122.942C83.3989 122.608 83.9853 122.259 84.5561 121.881C85.277 121.452 86.0026 121.032 86.7338 120.621C86.9978 120.49 87.2619 120.359 87.5263 120.23C88.3186 120.298 90.5073 119.323 91.2529 118.663C91.3381 118.646 91.4229 118.626 91.5072 118.605C91.5408 119.027 91.6787 119.408 92 119.691C94.1364 120.75 96.8594 115.955 97.6099 114.355C99.1012 115.81 95.5427 123.008 94.3932 124.479L94.3319 124.571C94.0244 125.031 93.7021 125.547 93.266 125.887L93.222 125.921C92.9231 126.142 92.8676 126.487 93.1115 126.777C95.1818 128.644 97.3552 124.544 98.4894 123.194C103.158 116.331 106.141 107.979 106.01 99.6294C108.134 98.9197 111.074 98.5729 110.966 95.6951C111.075 93.5228 111.468 91.3737 111.545 89.1997C111.567 88.6997 110.011 88.9478 109.66 89.0005C110.177 84.0054 109.395 78.9341 108.001 74.1334C104.342 61.8496 89.2727 39.7098 74.4406 38.9105C74.4536 38.8864 74.4475 38.8538 74.4142 38.8452C73.7429 38.6711 73.001 38.6989 72.3111 38.7208C71.5931 38.7436 70.8633 38.7485 70.149 38.8295C69.4088 38.9134 68.625 39.1851 68.1277 39.7228L67.9555 39.4124C67.7555 39.0501 67.5629 38.684 67.4173 38.2842C67.3436 38.0821 67.2859 37.8727 67.2332 37.661C67.1737 37.3591 67.1588 37.0449 67.0157 36.7707C67.0119 36.7635 67.0072 36.7576 67.0031 36.7509C66.9516 36.5781 66.8928 36.4089 66.8195 36.2462ZM48.6156 237.59C48.8276 237.805 49.1951 237.899 49.5206 237.796C50.6022 240.865 44.734 240.672 42.8507 240.845C40.8424 241.059 4.26007 242.959 10.4468 238.459C17.705 241.222 41.9814 241.527 48.6156 237.59ZM30.8001 225.421C31.2885 225.924 32.0248 226.147 32.5487 226.627C34.0296 227.878 35.2208 229.638 37.2675 229.97C39.9563 230.471 42.3803 229.146 44.7855 228.096C45.0849 228.082 45.3973 227.956 45.7043 227.862C45.7152 227.884 45.726 227.907 45.7384 227.927C45.7533 227.921 45.7693 227.916 45.7871 227.913C45.8139 227.909 45.8392 227.906 45.8654 227.902C45.9271 227.853 45.9922 227.812 46.0596 227.777C46.1003 227.77 46.1407 227.765 46.1809 227.763C46.6766 227.733 47.2147 227.848 47.5328 228.258C47.56 228.293 47.5847 228.33 47.6086 228.367C47.7627 228.913 47.7824 229.573 47.708 230.035C47.6839 230.185 47.7468 230.334 47.8534 230.419C47.9484 232.702 48.2058 234.995 48.3855 237.248C47.486 237.571 46.5525 237.817 45.6183 237.972C39.1713 238.764 32.6556 239.131 26.1591 238.933C22.2918 238.793 18.43 238.448 14.6028 237.874C13.3656 237.758 12.0993 237.28 10.8629 237.473C10.8103 237.374 10.7281 237.289 10.614 237.231C13.783 232.897 19.1997 231.726 23.9219 229.826C24.7018 230.324 25.182 231.361 26.0507 231.669C26.388 231.72 26.8569 231.521 26.8075 231.094C26.6673 230.219 25.7211 229.821 25.084 229.313C25.7677 228.994 26.4383 228.648 27.0926 228.262C27.7352 228.841 28.4958 229.281 29.0975 229.898C28.7554 230.732 30.1813 230.659 30.1973 229.772C30.0986 228.79 28.5409 228.374 27.8452 227.802C28.9318 227.141 29.9024 226.309 30.8001 225.421ZM107.363 234.001C107.401 234.075 107.463 234.143 107.554 234.196C107.713 234.288 107.637 234.772 107.629 234.935L107.628 234.947C107.619 235.24 107.601 235.532 107.576 235.824C107.308 236.065 106.966 236.248 106.586 236.358C95.0123 238.202 83.2165 238.352 71.531 237.682C71.5848 237.372 71.8119 237.117 72.0129 236.858C79.4003 237.485 86.9653 236.829 94.3651 236.218C98.6911 235.65 103.224 235.415 107.363 234.001ZM90.5129 222.653C92.4204 223.308 94.1952 224.218 95.8859 225.308C96.5142 225.716 97.1138 226.184 97.8361 226.418C100.337 227.169 104.086 223.559 104.146 223.519C105.015 222.935 105.936 223.479 106.408 224.288C106.452 224.363 107.176 228.502 107.154 230.529C107.284 231.218 106.937 232.345 107.122 233.096C106.977 233.27 106.77 233.352 106.631 233.535C106.58 233.601 106.595 233.676 106.638 233.732C99.8851 234.287 93.1712 235.34 86.386 235.562C81.7421 235.807 77.0894 235.751 72.4448 235.695C73.5015 232.597 77.1008 231.778 79.8501 230.759C81.9273 230.014 83.8397 228.903 85.5225 227.476C86.2522 227.988 86.8277 228.705 87.3447 229.425C87.5796 229.717 88.062 229.938 88.3135 229.533C88.5726 229.112 88.0668 228.58 87.4424 228.114C87.1139 227.628 86.6997 227.215 86.2228 226.874C86.7501 226.404 87.2578 225.915 87.7335 225.396C88.7198 226.063 89.4445 227.023 90.154 227.954C90.495 228.326 91.1327 227.835 90.8529 227.416C90.6288 227.127 90.3765 226.861 90.1063 226.612C89.6992 225.845 89.1129 225.137 88.4016 224.646L88.4559 224.577C89.05 223.816 89.5636 222.903 90.5129 222.653ZM107.319 233.515C107.336 233.535 107.353 233.554 107.371 233.573C107.355 233.606 107.342 233.641 107.333 233.677L107.16 233.69C107.22 233.641 107.273 233.58 107.319 233.515ZM35.3844 219.501C38.9225 220.168 42.5776 220.424 46.1488 219.873C45.7352 222.176 45.4762 224.494 45.6118 226.832C40.2722 228.371 38.0536 230.938 33.611 225.809C33.8256 225.483 33.9495 225.082 34.0936 224.695C34.7075 223.018 35.215 221.284 35.3844 219.501ZM100.37 211.947C100.421 212.059 100.512 212.15 100.643 212.191C100.69 212.397 100.738 212.603 100.789 212.808C100.876 213.87 101.277 214.921 101.692 215.9C101.72 215.968 101.748 216.036 101.777 216.103C102.05 216.917 102.337 217.73 102.62 218.543C102.834 219.388 103.023 220.24 103.22 221.089C103.259 221.665 103.34 222.236 103.466 222.801C103.472 222.827 103.48 222.851 103.489 222.874C103.291 222.963 103.1 223.065 102.92 223.168C97.5028 227.231 98.4384 224.514 93.237 222.239C93.2669 222.021 93.1573 221.823 93.0679 221.597L93.0563 221.568C93.0509 221.553 93.0455 221.539 93.0401 221.525C93.0486 221.438 93.0436 221.346 93.0207 221.247C92.4939 219.096 91.7604 216.982 91.0738 214.877C90.9639 214.559 90.8367 214.25 90.7066 213.94C94.0046 213.898 97.2668 213.021 100.37 211.947ZM79.9177 124.765C49.9956 162.019 56.5507 166.412 50.1079 209.36C49.4821 212.704 48.2103 215.877 47.3686 219.157L47.2524 219.145C47.1374 219.134 47.028 219.127 46.9467 219.153L46.9435 219.155L46.6117 219.151C42.7404 219.097 38.8524 218.895 35.0713 218.014C33.7341 217.78 32.4311 217.165 31.093 217.036C31.0876 216.862 31.0052 216.7 30.8931 216.607C41.2134 192.234 34.0229 164.392 42.9767 139.605C43.8265 137.124 44.8385 134.699 45.8852 132.296C57.3933 139.165 70.2546 131.386 79.9177 124.765ZM101.797 212.992C101.861 213.273 101.93 213.551 101.994 213.819L102.087 214.218C101.954 213.814 101.85 213.405 101.797 212.992ZM75.9021 131.362C75.8822 131.978 76.0311 132.599 76.2327 133.178C76.8788 135.034 77.7064 136.843 78.4473 138.663C78.9501 139.898 79.4483 141.135 79.952 142.371C87.4111 162.267 96.5672 188.936 105.601 207.791C102.197 209.757 98.4652 211.149 94.6043 211.903C93.7078 212.202 91.1441 212.216 90.2366 212.69L90.03 212.488C89.9942 211.639 89.0305 211.034 88.6447 210.289C86.903 207.839 85.5147 205.161 84.2552 202.438L84.0494 201.841C80.7012 192.105 76.3315 178.704 71.7279 167.375L71.5854 167.025C69.6776 162.353 68.4236 158.046 66.1211 154.512C65.9956 154.321 65.8686 154.131 65.7408 153.94C65.6467 153.752 65.5516 153.563 65.455 153.375C65.0422 152.571 64.5971 151.785 64.177 150.985C63.9979 150.644 63.8203 150.26 63.7263 149.866C67.3838 143.451 71.7423 137.455 75.9021 131.362ZM70.4242 39.4354C71.572 39.7143 72.7483 39.8281 73.9027 40.0594C81.859 41.0067 87.9589 46.6396 93.2134 52.2325C103.167 62.6699 108.958 75.5126 108.53 90.0277C104.976 90.6742 101.458 91.6204 97.8366 91.8272C98.3629 91.0312 97.4815 90.0357 97.1781 89.2736C91.9399 79.1696 87.8953 68.0156 84.6109 57.3781L84.7002 57.8424C85.7315 63.1813 86.9327 68.4974 88.7662 73.6258C88.2351 73.1045 79.5103 66.1768 80.1922 68.4675C82.8578 70.5475 85.8686 72.1958 88.6617 74.1046C85.3407 85.1801 90.1418 96.4021 91.0541 107.482C91.2832 109.946 91.2633 112.427 91.5714 114.881C91.6885 115.158 91.5652 115.723 91.7377 115.987C91.6099 116.638 91.3413 117.232 90.7869 117.741C90.5535 117.955 90.2987 118.14 90.0309 118.305C89.3622 118.406 88.6906 118.663 88.146 118.901C86.9343 119.431 85.8678 120.212 84.7847 120.958L84.7558 120.978C83.0093 121.874 81.2648 122.891 79.5137 123.953L79.4355 123.994C78.7842 124.335 78.1183 124.643 77.5508 125.116C77.5249 125.138 77.5077 125.162 77.4964 125.188L76.4328 125.844C67.9136 131.093 59.1298 136.284 49.1416 132.537C46.3353 131.408 42.2556 129.122 42.7795 125.587C42.8828 125.247 43.0399 124.929 43.2176 124.619C43.2669 124.552 43.3177 124.487 43.3688 124.422C43.7559 123.934 44.1891 123.486 44.5252 122.959C44.6619 122.744 44.7845 122.523 44.8917 122.296C44.9675 122.273 45.0349 122.219 45.0773 122.127C45.5581 121.08 46.029 120.031 46.4676 118.966C51.7846 100.461 45.3308 80.5775 43.505 61.9127C43.3784 60.8439 43.1921 59.7642 43.1926 58.6876C43.1926 58.6371 43.1192 58.6388 43.1152 58.6876C42.4712 63.4515 42.9597 68.2597 43.572 73.002C44.3559 78.9347 45.3859 84.8428 46.0935 90.7862C44.2123 96.7771 38.9441 101.106 33.4123 103.702C32.4711 104.148 31.5088 104.546 30.5276 104.896L30.4617 104.919C29.3836 105.296 28.1667 105.878 27.1266 105.115C25.1304 103.762 23.7212 101.699 22.4275 99.7113C22.9509 99.6547 23.4749 99.6057 23.9993 99.5697C25.287 101.04 26.8646 102.288 28.5295 103.308C29.208 103.696 29.9788 103.532 30.2924 102.772C30.5885 102.055 30.226 101.218 29.9635 100.526L29.9256 100.425C28.5969 96.8484 26.2897 93.5701 23.1746 91.33C25.5249 90.8609 27.966 90.8752 30.2206 89.9481C30.0977 90.077 30.2588 90.2213 30.337 90.3307C30.3092 90.5427 30.4635 90.6976 30.6532 90.7544C32.4928 93.1539 33.887 95.9955 34.1781 99.0386C34.1006 100.075 35.0297 101.272 35.9243 100.184C36.624 97.1544 33.8716 92.4201 31.4513 90.5507C33.8784 88.8877 33.1709 86.4877 34.6947 86.4767C35.0884 87.2312 35.6022 87.9535 36.2497 88.5139C36.5424 88.7515 36.8978 88.9306 37.2119 89.1414C37.5423 89.3631 37.8863 88.8753 37.6247 88.6075L37.5556 88.5247C36.5618 87.3381 35.3817 86.1716 35.1765 84.5662C34.8798 82.5891 35.7699 80.5862 36.4521 78.7802C37.7601 75.3179 38.6277 71.7155 39.0503 68.0393C39.5291 64.7455 38.9469 61.3289 40.0764 58.1416C40.3009 57.254 40.6238 56.4455 41.0196 55.6952C41.029 55.6874 41.0383 55.6794 41.0468 55.6696C41.5166 55.1271 41.892 54.5235 42.33 53.9552C42.7882 53.3608 43.2849 52.7951 43.8109 52.2597C44.6901 51.3653 45.6608 50.619 46.6727 49.9003C46.6914 49.8936 46.7103 49.8848 46.7293 49.8736C46.9188 49.7618 47.1009 49.626 47.2766 49.4768L47.2937 49.4649C47.8821 49.0567 48.4825 48.6136 48.9418 48.0593C49.3926 47.5151 49.7134 46.8805 50.0815 46.2811C50.5846 45.6684 51.0642 45.012 51.671 44.5014C52.0142 44.3058 52.3713 44.1215 52.6776 43.8769C52.7277 43.856 52.7787 43.8361 52.8305 43.8173C52.7 44.3486 52.5025 44.8374 52.3246 45.3771C52.0668 45.2685 51.7141 45.3889 51.6707 45.7853L51.6547 45.9333C51.3959 48.3608 51.2649 51.2983 52.695 53.4002C55.844 57.9581 60.5476 54.0666 62.9264 50.8617C65.0611 48.3056 66.8559 45.4623 68.1812 42.4067L68.2031 42.3663C68.4499 41.8987 68.9848 40.4727 69.1359 39.7875C69.5181 39.5866 69.9831 39.4893 70.4242 39.4354ZM80.5061 124.387C80.5157 124.4 80.5266 124.41 80.5385 124.419C80.0918 125.052 79.6663 125.707 79.2277 126.343C79.5873 125.756 79.9253 125.165 80.2246 124.567C80.3182 124.507 80.4123 124.447 80.5061 124.387ZM105.502 99.787C103.795 109.037 101.355 118.769 94.5587 125.685C96.674 122.711 98.3189 119.239 98.7975 115.602C98.8173 114.626 98.4612 113.595 97.3794 113.451C97.1947 113.426 97.0545 113.591 96.9885 113.738L96.9822 113.753C96.5566 114.767 96.0032 115.731 95.3479 116.615L95.2836 116.698C94.7891 117.337 92.6903 119.939 92.3975 118.695C92.6118 112.408 99.1211 109.816 100.187 101.157C102.011 100.964 103.742 100.273 105.502 99.787ZM91.5081 118.135C91.501 118.234 91.4977 118.331 91.4991 118.428C91.4025 118.388 91.3031 118.356 91.2014 118.331C91.3046 118.267 91.4067 118.202 91.5081 118.135ZM91.6046 117.457C91.5688 117.638 91.5386 117.82 91.52 118.001C91.3343 118.06 91.1505 118.124 90.9677 118.191C91.0785 118.092 91.1839 117.987 91.2828 117.875C91.3979 117.744 91.5059 117.604 91.6046 117.457ZM89.089 74.5431C90.4223 78.2572 91.9157 81.9141 93.583 85.4913C94.7025 87.5846 95.4494 90.0238 96.9986 91.8404C97.0137 91.8549 97.0289 91.8684 97.0444 91.881L97.0188 91.8819C96.5571 91.9024 94.0489 92.1488 95.3364 92.715C95.8363 94.6811 96.4913 96.6024 97.0389 98.5556L97.0511 98.6122C97.2515 99.5569 97.5048 101.46 98.8494 100.825C98.9952 100.936 99.1704 101.014 99.3587 101.067C98.7543 106.361 95.3998 109.807 92.748 114.129C93.3408 111.848 93.1676 109.466 92.9612 107.137L92.91 106.564C91.8144 95.8849 87.7935 85.384 89.089 74.5431ZM77.9533 108.487C80.1145 105.798 90.7445 79.1762 83.2324 95.305C80.5625 100.92 78.3648 106.931 73.9601 111.48C73.6555 111.807 74.0568 112.381 74.4526 112.117C75.8744 111.17 77.0251 109.913 77.9533 108.487ZM85.6468 76.3106C85.6557 76.2674 85.6003 76.2436 85.5759 76.2807C82.6877 81.9716 80.6255 88.0874 77.3621 93.6061C75.3922 97.0234 73.0284 100.209 70.3216 103.081C70.1182 103.297 70.4242 103.595 70.6445 103.403C78.3715 96.2886 82.1283 85.9459 85.6468 76.3106ZM28.6954 99.7404L28.7001 99.7411L28.7711 99.9245C28.7953 99.9864 28.8198 100.049 28.8446 100.112C28.8328 100.107 28.8209 100.102 28.809 100.097C28.7836 100.071 28.7583 100.046 28.733 100.018C28.7387 99.9249 28.727 99.831 28.6954 99.7404ZM109.629 89.2239C110.021 89.3776 110.503 89.4066 110.937 89.4441C110.451 91.7271 110.032 94.0276 109.593 96.3167C109.39 97.0194 108.912 97.2661 108.251 97.4889L107.719 97.6584C105.239 98.4518 102.744 99.2666 100.186 99.7532C100.006 99.6363 99.7508 99.642 99.6315 99.8292C99.507 99.8408 99.3793 99.8477 99.2531 99.8596C98.5696 97.3407 97.4002 94.8999 95.8352 92.8105C100.209 92.9512 104.615 91.7999 108.776 90.5127C108.945 90.5943 109.167 90.5432 109.238 90.35L109.302 90.3317C110.001 90.1248 110.927 89.6168 109.459 89.8749C109.547 89.6685 109.597 89.4467 109.629 89.2239ZM9.04908 87.36C11.9485 86.8817 14.1643 89.2262 16.6388 90.3025C18.1204 90.9367 22.0685 92.904 23.5038 92.2496C25.4716 94.1401 27.1331 96.3488 28.2949 98.827C27.9782 98.8082 27.6614 98.7942 27.3446 98.7841C26.7709 98.6003 26.1585 98.5909 25.5628 98.7678C19.596 98.8334 13.6253 99.9905 7.68262 98.524L7.54588 98.4985C6.32512 98.2674 2.15726 97.3881 1.91988 96.5265C1.98222 96.1515 3.1029 96.5477 3.3183 96.5901C5.03111 96.9269 6.77139 97.0875 8.50698 97.2561C8.98972 97.3028 8.9836 96.5533 8.50698 96.5057C6.41787 96.2982 4.43848 95.5155 2.5215 94.7012C2.31774 94.611 1.77788 94.4242 1.40437 94.1819C3.17554 94.4825 5.00063 94.5346 6.79277 94.4709C7.40975 94.3912 7.45326 93.4559 6.79277 93.4743C5.58293 93.6078 4.42709 93.0118 3.43941 92.3826L3.22446 92.2433C1.57814 91.1723 1.69317 91.1259 3.7737 91.524C6.831 92.0796 9.92513 92.059 13.0126 91.847C13.4532 91.8395 13.7574 91.2478 13.3928 90.9308C11.9712 89.7057 10.4472 88.6131 9.04908 87.36ZM23.0639 91.822L23.0975 91.8538C23.1685 91.9218 23.2267 91.9819 23.2592 92.0139L23.2724 92.0266C23.3161 92.0675 23.3584 92.1099 23.4017 92.1512C23.2121 92.2148 23.003 92.2184 22.7873 92.185C22.9175 92.1038 23.0142 91.971 23.0639 91.822ZM77.536 82.0243L77.5431 82.0154L77.5268 82.0329C75.6617 84.0471 73.7713 87.3136 72.2261 89.8895C72.0224 92.0009 76.591 83.2408 77.536 82.0243ZM30.6032 89.8084C30.5852 89.8307 30.5677 89.8537 30.5508 89.8772L30.5259 89.9128L30.4858 89.8881C30.471 89.8793 30.4555 89.8739 30.4396 89.8698C30.4943 89.8498 30.5487 89.8288 30.6032 89.8084ZM39.1365 82.9323C37.4584 83.1952 40.8899 85.276 41.3428 85.5741C41.6329 85.6841 44.3905 87.9563 44.2232 87.2188C42.9322 85.5646 41.1508 83.6368 39.1365 82.9323ZM104.783 78.5718C104.162 77.5741 100.784 78.8874 99.7164 79.0448C99.1162 79.2029 98.5225 79.39 97.9158 79.5228C97.4418 79.6944 95.2313 79.5281 96.0425 80.4634C96.889 80.9175 97.9942 80.5664 98.8611 80.3254C100.586 79.8551 102.317 79.3066 104.083 79.0456C104.136 79.0192 104.139 79.0371 104.093 79.0994C103.713 79.942 102.914 80.7325 102.014 81.004C101.951 81.022 101.978 81.1168 102.041 81.1009L102.101 81.0881C103.113 80.8627 105.3 79.7935 104.783 78.5718Z" fill="black"/>
<path fill-rule="evenodd" clip-rule="evenodd" d="M44.375 22.1728C44.4078 20.327 44.4442 18.4443 44.7191 16.6165C44.9879 14.8295 45.7274 13.2142 46.9982 11.9166C49.6973 9.16029 53.6099 8.48705 57.2518 7.87008L63.4784 6.81519C65.3781 6.49344 67.4047 5.97914 69.324 6.43544C70.2697 6.66029 71.0729 7.18267 71.8069 7.80071C72.5145 8.39642 73.2752 9.03612 73.7546 9.83757C74.2349 10.6402 74.4001 11.5784 74.5562 12.4861C74.7323 13.5095 74.8691 14.541 74.9663 15.5748C75.161 17.6462 75.1876 19.7332 75.0464 21.8088C74.9779 22.8156 74.869 23.8195 74.73 24.8189C74.661 25.3145 74.5831 25.8089 74.4951 26.3015C74.4692 26.4468 74.4494 26.6076 74.4229 26.7701C74.6193 27.3276 74.7309 27.9049 74.7219 28.4798C74.6954 30.1732 73.2632 31.2393 71.8194 31.8117C70.9822 32.1435 70.107 32.369 69.2844 32.7398C68.4191 33.1298 67.8301 33.762 67.2385 34.4832C66.1102 35.8587 64.8368 37.0949 63.3828 38.1263C60.3002 40.3132 56.3957 41.3474 52.6554 40.5624C51.758 40.374 50.8526 40.0815 50.0459 39.6408C49.1942 39.1755 48.5538 38.5013 48.016 37.7041C47.0174 36.2243 46.3013 34.5578 45.7595 32.8621C45.2069 31.1323 44.8147 29.3994 44.6008 27.5957C44.3876 25.7979 44.3427 23.9817 44.375 22.1728Z" fill="white"/>
<path fill-rule="evenodd" clip-rule="evenodd" d="M64.2445 0.385606C61.6678 0.0318887 58.1113 1.18153 56.8281 3.49961C50.7016 2.05821 42.9745 2.01099 37.925 6.80938C32.6561 12.5013 39.2741 20.0062 43.6625 21.6982C43.343 23.2478 43.8411 33.1751 47.3661 37.6032C50.1635 41.3551 56.6782 43.0866 59.6927 38.6052L59.7162 38.5683C60.0392 38.0507 59.761 38.0673 59.4295 38.4523C56.4776 41.0429 52.4641 41.0872 49.3713 38.3532C43.5749 33.356 44.1725 21.1032 46.9307 14.0147C54.7847 13.1539 63.1938 15.5295 68.6185 21.4297L68.2517 23.6336C68.1892 24.009 68.1182 24.3842 68.064 24.761C68.0293 25.0024 68.0255 25.2425 68.1931 25.4379C68.7465 26.0831 69.6792 25.1136 70.4466 24.728C70.6731 24.6962 70.9001 24.6839 71.1226 24.6996C74.8096 25.1735 74.0832 32.3113 70.0309 31.0602C69.6905 30.8485 69.398 30.9131 69.2659 31.2203C68.3 32.1032 67.6631 33.6779 66.0584 35.1946C65.4922 35.7635 64.9769 36.2395 64.34 36.6959C63.966 37.0734 62.8372 37.4584 63.195 38.1044C63.8717 39.5745 67.8619 34.9567 68.5674 33.6797C70.7778 34.5508 73.2274 34.2549 75.518 34.042C87.6024 33.415 85.9892 20.7024 76.0839 12.6763C74.2193 11.3064 72.1622 10.1889 70.0238 9.32899C69.7318 9.21157 69.8594 8.73319 70.1554 8.85225C71.5704 9.42135 72.9497 10.0987 74.2646 10.8827L74.2666 10.414C74.2685 9.62455 74.2561 8.80267 74.1187 8.08137C74.05 7.58157 73.9345 7.04774 73.7567 6.64615C73.5368 5.41494 70.0928 1.18878 64.2445 0.385606ZM71.2839 26.3383C71.0973 26.1614 70.749 26.3723 70.5829 26.3671C70.1581 26.4251 69.7546 26.6041 69.4398 26.8251C69.232 26.9413 69.0864 27.0503 68.9647 27.1507L68.9614 27.1498C68.9623 27.1498 68.9635 27.1507 68.9645 27.1509L68.953 27.1587C68.7758 27.2843 68.1271 27.992 68.537 27.8017C68.5675 27.7621 68.5988 27.724 68.6303 27.6867C68.6337 27.6918 68.6384 27.6968 68.644 27.7017L68.621 27.7358C68.2727 28.2587 68.8741 27.7078 68.9666 27.5614C68.971 27.565 68.9759 27.5674 68.9808 27.5699L68.8603 27.7163C68.8435 27.7371 68.8302 27.7536 68.8192 27.7677L68.7938 27.7921C68.3911 28.1872 68.3785 28.5427 68.8464 27.9587C68.828 27.9862 68.8132 28.0153 68.8111 28.0412L68.7834 28.0765C68.4161 28.5489 68.7149 28.3811 68.8974 28.1794L68.9127 28.162L68.9096 28.1667C68.7397 28.4278 69.0767 28.2446 69.1362 28.105L69.1387 28.0986C69.2036 28.0458 69.2436 27.9865 69.2572 27.9715L69.2598 27.969C69.5757 27.6461 70.0335 27.3728 70.4225 27.2486C70.4789 27.2379 70.5359 27.2293 70.5935 27.2232C70.8274 27.1711 71.0639 27.1355 71.3028 27.1162C71.3321 27.1127 71.3617 27.0913 71.3838 27.0636C71.7451 27.0515 71.6336 26.9037 71.4837 26.8762L71.4811 26.8758L71.5108 26.8733C71.7427 26.8507 71.901 26.7677 71.6666 26.7167L71.6369 26.7108C71.6405 26.7051 71.6437 26.6994 71.6469 26.6937C71.8476 26.6717 71.7166 26.477 71.6052 26.5241C71.6521 26.3711 71.4377 26.4475 71.411 26.4247C71.3906 26.4022 71.3652 26.3822 71.3506 26.3811C71.2861 26.3357 71.3174 26.3398 71.2839 26.3383ZM70.0554 23.8611L70.1024 23.8885C70.1405 23.9107 70.1796 23.9254 70.2189 23.9341C70.1635 23.9576 70.1086 23.9831 70.0544 24.0103C70.0553 23.9771 70.0559 23.9439 70.0559 23.9107L70.0554 23.8611Z" fill="black"/>
<path fill-rule="evenodd" clip-rule="evenodd" d="M51.6846 33.9525C52.2928 34.1283 52.9456 34.144 53.5656 33.9625C54.1279 33.7978 54.7052 33.4354 55.1191 32.9558C55.4867 32.5298 55.7248 32.0121 55.7155 31.4594C55.7144 31.3963 55.6918 31.3437 55.657 31.3028C55.6196 31.2587 55.5673 31.2285 55.5112 31.2154C55.4536 31.2019 55.3927 31.2067 55.3408 31.2302C55.2938 31.2515 55.2536 31.2876 55.2285 31.3405C55.1649 31.4239 55.1015 31.506 55.0379 31.5859C54.5265 32.2161 54.0313 32.687 53.2623 32.8559C52.8451 32.9476 52.4284 32.9069 52.0461 32.7671C51.6368 32.6174 51.2669 32.3541 50.977 32.0173C50.8459 31.8651 50.6913 31.8029 50.54 31.8019C50.3686 31.8007 50.1992 31.8802 50.0716 32.0072C49.9461 32.1321 49.8621 32.3018 49.8545 32.4793C49.8478 32.6351 49.8987 32.7978 50.0342 32.943C50.4805 33.4213 51.0588 33.7716 51.6846 33.9525ZM51.7034 26.0599C51.0799 26.438 50.13 27.3199 50.8007 28.2575C51.5901 29.0842 52.7268 28.1363 53.2869 27.7077C53.8063 27.3754 54.3898 28.2299 53.908 28.6178C49.8605 31.6083 48.218 26.1587 51.3881 25.6152C51.7371 25.5553 51.8667 25.9429 51.7034 26.0599ZM57.5354 24.3957C57.7358 24.2678 57.9715 24.224 58.2328 24.3426C58.4369 24.4352 58.7949 24.7441 59.0441 25.1501C59.2146 25.4278 59.3355 25.7537 59.3103 26.0931C59.3045 26.172 59.3337 26.2301 59.3797 26.273C59.416 26.307 59.4686 26.3319 59.5303 26.3397C59.5826 26.3463 59.6412 26.3404 59.6889 26.3255C59.7796 26.2973 59.8276 26.2386 59.8456 26.1907C60.0201 25.7283 59.9449 25.2123 59.7494 24.7467C59.4855 24.1185 59.0063 23.5922 58.6923 23.4225C58.1551 23.1321 57.5212 23.1187 56.9832 23.4146C56.5252 23.6665 56.2388 24.073 55.954 24.4875C55.8934 24.5756 55.8333 24.663 55.7712 24.7489C55.6467 24.9211 55.6343 25.0918 55.6825 25.2383C55.7359 25.4005 55.8721 25.5373 56.0424 25.609C56.1997 25.6752 56.3824 25.6845 56.544 25.6165C56.6806 25.559 56.8059 25.447 56.8851 25.2569C57.0187 24.9368 57.2411 24.5836 57.5354 24.3957ZM47.3585 25.108C47.4957 25.1793 47.6031 25.2009 47.7553 25.1553C47.8395 25.1301 47.9227 25.0817 47.9879 25.0167C48.0524 24.9523 48.099 24.8722 48.1171 24.7833C48.1616 24.5639 48.2819 24.3586 48.4533 24.2247C48.5998 24.1103 48.7847 24.0497 48.9897 24.0839C49.211 24.1208 49.4219 24.2624 49.5671 24.4294C49.6156 24.4853 49.6537 24.5487 49.6919 24.6118C49.7635 24.7297 49.833 24.8392 49.9317 24.9258C49.9691 24.9587 50.0254 24.9816 50.08 24.9816C50.1022 24.9816 50.1247 24.978 50.1462 24.9713C50.3665 24.7507 50.4088 24.5833 50.4017 24.4173C50.3943 24.2432 50.3255 24.0669 50.2144 23.9025C49.9537 23.5167 49.4587 23.2004 49.1247 23.1288C48.6673 23.0307 48.213 23.1484 47.8488 23.4034C47.474 23.6658 47.1963 24.0731 47.1097 24.5321C47.0889 24.6427 47.0977 24.762 47.1399 24.8655C47.1812 24.9666 47.253 25.0531 47.3585 25.108ZM56.5266 20.2828C56.8011 20.5498 57.126 20.5911 57.4547 20.6279C57.6373 20.6485 57.7831 20.6651 57.9266 20.6974C58.3209 20.7863 58.7107 20.9201 59.0663 21.1127C59.4381 21.3142 59.8432 21.5571 60.1347 21.8683C60.204 21.9424 60.2693 22.0201 60.3347 22.098C60.3944 22.169 60.4518 22.2373 60.5124 22.3033C60.5819 22.379 60.648 22.4583 60.7137 22.5375C60.7543 22.6043 60.7623 22.6207 60.7705 22.6378C60.7828 22.6635 60.7972 22.6922 60.8135 22.7231C60.8359 22.7653 60.8621 22.8116 60.8896 22.8535C60.9353 22.9302 60.9599 22.9513 60.9811 22.9607C61.0162 22.9763 61.0496 22.984 61.082 22.9799C61.1123 22.976 61.1409 22.9614 61.1691 22.9376C61.3101 22.8188 61.3516 22.6237 61.3474 22.4167C61.3409 22.1026 61.2248 21.7548 61.1178 21.5409C60.8689 21.0441 60.5238 20.5277 60.1087 20.1569C59.6352 19.7336 59.1171 19.4132 58.522 19.1924C58.1521 19.0551 57.724 18.9291 57.3211 18.9451C57.0311 18.9565 56.7542 19.0425 56.5256 19.2574C56.3852 19.3893 56.3178 19.5769 56.3178 19.7643C56.3178 19.9555 56.3878 20.1479 56.5266 20.2828ZM46.8002 22.7271C46.8177 22.7556 46.8418 22.7753 46.8687 22.7871C46.8969 22.7995 46.9284 22.8031 46.9586 22.798C46.9886 22.7929 47.0172 22.7793 47.0399 22.7585C47.0616 22.7386 47.0781 22.7122 47.0855 22.6798C47.2678 21.881 47.6217 21.2866 48.377 20.9033C48.7486 20.7148 49.1758 20.595 49.5803 20.4995C49.6978 20.4717 49.822 20.4537 49.9471 20.4355C50.3391 20.3784 50.7339 20.313 50.9895 19.9968C51.1434 19.8063 51.2081 19.5627 51.1715 19.3399C51.1371 19.1302 51.0143 18.9378 50.791 18.8226C50.2352 18.5358 49.5445 18.8172 48.9831 19.057C48.9415 19.0747 48.9006 19.0922 48.8606 19.109C48.3117 19.3403 47.8111 19.6455 47.3996 20.082C47.073 20.4283 46.7705 20.9402 46.6486 21.4669C46.5473 21.905 46.5711 22.3523 46.8002 22.7271Z" fill="black"/>
<path fill-rule="evenodd" clip-rule="evenodd" d="M59.0586 34.5321C58.3902 32.9693 56.9313 31.8207 55.2516 31.4008C54.0182 31.0932 52.7237 31.103 51.4663 31.2251C50.8075 31.2886 50.1009 31.3407 49.48 31.5848C48.9499 31.7934 48.5178 32.1877 48.193 32.6505C47.8063 33.1989 47.5433 33.8266 47.3586 34.47C47.3324 34.5614 47.3077 34.6536 47.2847 34.7462C47.365 35.2316 47.5355 35.6447 47.986 35.9499C48.4257 36.2479 48.9502 36.3698 49.4731 36.4131C49.5244 36.3886 49.574 36.3633 49.6194 36.3374C50.4343 35.8719 51.0078 34.7718 52.0363 34.9206C52.9541 35.0536 53.5583 36.2061 54.1042 36.882C55.8562 37.0857 57.607 36.5603 59.0326 35.5604C59.105 35.2182 59.1092 34.8731 59.0586 34.5321ZM46.0939 33.3465C46.234 32.954 46.4106 32.5739 46.6198 32.2157C47.3116 31.0314 48.3735 30.0877 49.6342 29.5482C52.6165 28.2739 56.4752 29.1722 58.8836 31.2622C59.7063 31.9767 60.5381 33.0266 60.7897 34.1559C60.8648 34.1708 60.9357 34.2098 60.9941 34.2647C62.7341 33.1714 64.5261 32.1195 65.9282 30.604C66.9465 29.5029 67.6547 28.1997 68.0884 26.7678C68.1239 26.6499 68.3144 26.6671 68.3086 26.7975C68.3069 26.8281 68.3053 26.8585 68.3036 26.889C68.3218 26.8329 68.4075 26.8618 68.4141 26.9162C68.6475 28.6558 68.9393 30.5001 68.6705 32.2487C68.5098 33.2921 68.0348 34.056 67.4 34.8808C66.7198 35.7649 65.9497 36.5873 65.1623 37.3759C64.6626 37.8765 64.1407 38.4538 63.5289 38.8209C62.8173 39.2473 62.0101 39.5716 61.2508 39.9006C60.4782 40.2363 59.6941 40.5464 58.8951 40.8153C57.2981 41.3547 55.6474 41.7276 53.9679 41.8909C52.6231 42.0212 51.0862 42.1631 49.7975 41.6583C48.8097 41.2714 48.0124 40.5721 47.38 39.7307C46.6915 38.8143 46.1473 37.7705 45.8464 36.6698C45.5338 35.5264 46.028 33.5309 46.0939 33.3465Z" fill="black"/>
</svg>
