<svg width="97" height="148" viewBox="0 0 97 148" fill="none" xmlns="http://www.w3.org/2000/svg">
<path fill-rule="evenodd" clip-rule="evenodd" d="M22.6054 85.1832C23.6506 84.8105 24.658 84.3799 25.5758 83.7466C28.2216 81.7764 29.9468 78.8115 31.5769 76.0023C33.8731 71.9167 35.5089 67.5631 36.6396 63.0215C37.1255 61.0702 37.2905 58.8078 38.3944 57.0779C40.8969 53.4555 48.2349 53.9248 52.1315 54.5607C54.7408 55.0226 55.2801 57.9438 55.8728 60.1054C56.3662 61.9015 56.6893 63.7179 56.9604 65.5586C57.6055 65.9829 58.3338 66.3275 59.028 66.6277C66.5935 68.9485 67.9232 73.251 70.8129 79.897C75.6935 89.5569 88.9369 93.3392 90.9374 104.771C92.2263 112.319 88.561 119.419 84.7822 125.694C81.263 132.547 76.3499 135.837 68.5256 134.218C61.1869 132.571 54.134 129.816 46.9244 127.687C43.4324 126.828 39.9461 124.594 36.2729 125.373C28.7043 127.074 20.9279 127.873 13.1714 127.652C2.28103 128.093 2.28271 117.636 3.40047 109.539C4.18339 96.9373 10.537 88.8457 22.6054 85.1832Z" fill="white"/>
<path fill-rule="evenodd" clip-rule="evenodd" d="M21.8775 103.418C20.9675 104.02 20.2022 104.933 19.5877 105.893C22.1528 105.626 24.7134 105.319 27.2683 104.968C26.9338 104.754 26.5962 104.545 26.2509 104.348C24.9912 103.638 23.2843 102.487 21.8775 103.418ZM64.494 111.003C64.964 110.819 65.1459 110.102 65.3291 109.691C65.9034 108.402 66.4276 107.092 66.9729 105.791C64.9023 105.2 62.8887 104.545 60.7437 104.23C58.4373 103.892 56.0969 103.81 53.7692 103.886C49.0543 104.04 44.3833 104.811 39.7478 105.638C35.1178 106.463 30.4881 107.256 25.8257 107.879C21.2578 108.489 16.6755 108.935 12.0846 109.327C11.1926 109.403 9.70538 109.724 8.98805 109.022C8.42009 108.466 8.40166 107.44 9.11237 106.988C9.55505 106.706 10.1964 106.702 10.7022 106.637C11.3391 106.555 11.9785 106.5 12.6193 106.458C12.8804 106.441 13.1414 106.425 13.4026 106.409C11.3064 105.618 9.11695 105.187 6.84438 105.307C6.71584 106.088 6.1368 106.892 5.8199 107.536C5.26649 108.66 4.83514 109.799 4.55193 111.021C3.96002 113.577 3.93427 116.23 4.10144 118.837C4.25502 121.011 4.58492 123.415 6.28917 124.954C7.57951 126.12 9.40002 126.551 11.089 126.687C13.052 126.845 15.0454 126.676 16.9919 126.413C19.7221 126.044 22.465 125.555 25.1415 124.901C30.3254 123.633 35.2942 121.616 39.8784 118.882C42.1141 117.548 44.2473 116.048 46.5136 114.765C48.8229 113.458 51.2801 112.444 53.8603 111.814C56.7477 111.109 59.7663 110.808 62.7341 110.982C63.2491 111.012 63.9931 111.199 64.494 111.003ZM67.8402 109.695C67.5368 110.68 67.3046 111.804 66.657 112.632C66.0155 113.452 65.0477 113.742 64.0451 113.815C62.8362 113.902 61.6132 113.846 60.4017 113.891C57.9169 113.983 55.4662 114.387 53.0908 115.128C50.8772 115.818 48.8224 116.895 46.843 118.089C45.0126 119.194 43.2359 120.38 41.4049 121.481C41.8922 121.704 42.374 121.946 42.8585 122.156C43.8745 122.598 44.8968 123.024 45.9237 123.439C47.9487 124.258 49.9823 125.057 52.0366 125.799C56.1791 127.295 60.3896 128.603 64.6509 129.716C66.6832 130.248 68.7444 130.868 70.8558 130.957C72.7281 131.035 74.4623 130.505 75.9723 129.392C79.1043 127.082 81.596 123.748 83.6103 120.459C84.807 118.506 85.8513 116.453 86.7151 114.33C87.152 113.257 87.5482 112.167 87.9049 111.064C88.0722 110.546 88.2308 110.026 88.381 109.503C88.4471 109.273 88.5104 109.042 88.5731 108.811C85.3705 107.833 82.1299 106.951 78.8132 106.461C77.0424 106.199 75.248 106.067 73.4578 106.086C72.5692 106.096 71.6811 106.144 70.7972 106.235C70.3215 106.285 69.8476 106.348 69.3758 106.427C69.1808 106.46 68.9804 106.507 68.7795 106.543C68.4724 107.595 68.1629 108.647 67.8402 109.695ZM1.63894 105.51C1.46635 105.161 1.39353 104.817 1.33167 104.437C1.28449 104.147 1.15932 103.739 1.26897 103.362C1.39173 102.94 1.7262 102.563 1.96631 102.203C2.23146 101.806 2.49636 101.408 2.76091 101.01C3.29012 100.214 3.81812 99.417 4.34528 98.6197C6.49811 95.3638 8.63625 92.0986 10.7777 88.8354C12.6782 85.9396 14.5466 83.0177 16.5049 80.1608C18.1795 77.7178 20.0047 75.3151 22.2967 73.4152C25.1948 71.0129 28.6457 69.8812 32.2502 68.9982C32.6439 68.5894 33.1698 68.3662 33.7318 68.4114C34.5259 67.5104 35.1571 66.8811 35.4432 65.7353C35.5803 65.1865 35.5373 63.6445 36.0716 63.3198C36.7062 62.934 37.0376 63.4446 37.2127 64.0201C37.7982 65.9453 37.1261 68.5338 35.5795 70.4623C36.2311 72.7151 37.0951 75.9169 38.6362 77.7218C40.2866 79.6544 42.5689 80.2559 45.0314 80.2955C49.7275 80.3711 54.4186 78.6252 58.0005 75.5992C59.0893 74.6795 60.1004 73.6524 61.0152 72.5599C61.7014 71.7404 62.5131 70.4755 63.0499 69.5195C63.0499 69.1469 63.4896 68.7573 59.0131 68.4563C54.5366 68.1553 54.1972 62.0235 54.0976 61.189C54.0167 60.5114 53.6728 59.4595 54.1501 58.907C54.3527 58.6723 54.7684 58.6345 55.0252 58.7939C55.5095 59.0948 55.6686 59.8642 55.8209 60.3866C56.0342 61.1186 56.7314 65.661 58.0525 66.187C58.6711 66.4332 59.3804 66.4378 60.0347 66.4833C60.8426 66.5397 61.6523 66.581 62.457 66.6751C62.7538 66.7098 63.0776 66.8058 63.3704 66.8086C63.5609 66.8104 63.7574 66.7178 63.9416 66.6528C64.5631 66.4331 65.1842 66.5979 65.8245 66.684C71.4856 67.4451 77.3145 69.1821 82.1433 72.3077C86.3993 75.0625 89.3978 79.0244 91.3763 83.6566C93.395 88.3839 94.5522 93.4959 95.5219 98.5283C95.8467 100.214 96.1304 101.908 96.3741 103.608C96.6097 105.251 96.9043 106.93 96.9748 108.589C97.0027 109.245 96.8459 109.855 96.6046 110.455C96.3328 111.129 95.6905 111.396 95.0744 111.711C93.7219 112.403 92.2952 112.94 90.8253 113.32C89.9273 114.954 89.1716 116.652 88.5643 118.414C88.7896 118.861 88.7943 119.528 88.8376 119.962C88.9451 121.043 88.9911 122.129 89.0007 123.215C89.0201 125.391 88.8893 127.565 88.7867 129.738C88.6827 131.942 88.3371 140.638 88.2807 141.7C88.2369 142.524 88.2959 143.678 87.8615 144.411C87.194 145.536 85.5466 145.498 84.7835 144.586C65.8245 148.663 30.1867 147.435 15.8337 145.383C13.9662 145.117 14.5526 145.413 14.0777 144.941C13.7213 144.586 13.418 143.979 13.3194 143.491C13.1878 142.84 13.4003 142.251 13.7729 141.724C14.1647 141.17 14.2361 140.273 14.3816 139.615C14.7257 138.058 14.8967 131.22 15.0575 130.462C15.1076 130.226 15.1561 129.977 15.2146 129.727C12.5818 129.976 9.83849 129.976 7.33374 129.095C5.91341 128.596 4.58877 127.811 3.56911 126.691C2.33449 125.334 1.64761 123.626 1.29436 121.844C0.83857 119.545 0.741806 117.164 0.831352 114.828C0.955803 112.066 1.41364 109.266 2.55005 106.73C2.1761 106.383 1.86269 105.963 1.63894 105.51Z" fill="black"/>
<path fill-rule="evenodd" clip-rule="evenodd" d="M27.1463 24.5845C31.1149 18.961 41.0879 18.3275 47.3908 18.3632C59.8382 18.2595 62.4446 32.5725 63.0946 42.6021C64.4223 42.828 65.7134 43.291 66.5894 44.3348C67.6563 45.6058 68.0247 47.7874 67.0246 49.2089C66.3603 50.1528 65.3114 50.4682 64.2142 50.5207C60.5806 50.1738 59.8354 53.414 58.0458 55.8436C53.4535 62.0499 45.498 64.0631 38.2013 64.094C35.7229 64.16 32.7373 64.346 31.1501 62.0132C26.1371 53.3205 26.0279 41.7918 25.7188 31.9408C25.6763 29.4189 25.6871 26.7491 27.1463 24.5845Z" fill="white"/>
<path fill-rule="evenodd" clip-rule="evenodd" d="M49.1219 1.00134C48.6732 0.322988 47.6887 0.0600261 47.0061 0.563194C46.4378 0.211374 45.7229 0.285543 45.2121 0.713338C44.5944 0.348153 43.8274 0.495527 43.3429 1.00471C42.5668 0.580412 41.5423 0.893823 41.1267 1.69776C40.3434 1.61083 39.6053 2.12375 39.3964 2.86616C39.3595 2.89614 39.323 2.92708 39.2866 2.95791C38.8173 2.98042 38.3714 3.1644 38.1084 3.60098C37.977 3.81903 37.9163 4.07525 37.9252 4.32629C37.6447 4.478 37.418 4.72688 37.3209 5.04944C37.2299 5.35189 37.2642 5.6511 37.3838 5.91177C36.9932 6.32753 36.8899 6.97554 37.1667 7.49773C37.0521 7.69423 36.9926 7.92649 37.0019 8.1679C37.0158 8.52538 37.1815 8.81351 37.4069 9.05949C37.1235 9.57121 37.234 10.2276 37.6947 10.5865C37.9594 11.5251 38.6293 12.1497 39.6557 12.5328C40.1712 12.7252 40.7105 12.8734 41.2602 12.9822C39.0606 13.2783 36.8968 13.7987 34.8182 14.5746C34.7051 14.6168 34.6091 14.6004 34.5358 14.5511L34.3989 14.622C33.826 14.9363 33.2651 15.277 32.7187 15.6418C32.7187 15.5816 32.7175 15.5214 32.7151 15.46C32.7257 14.9646 32.6736 14.4766 32.542 14.0062C32.7141 13.7715 32.8429 13.504 32.9129 13.2282C33.0878 12.5402 32.7552 11.5612 32.1576 11.3262C31.9482 10.7451 31.4719 10.3247 30.8882 10.1593C30.8418 10.1175 30.7926 10.0769 30.7376 10.0392C30.6147 9.95469 30.4803 9.89702 30.3421 9.86355C30.2703 9.54869 30.0947 9.25888 29.8034 9.05552C29.3924 8.76835 28.9063 8.73717 28.4792 8.89381C28.398 8.86648 28.3156 8.84276 28.2324 8.82217C27.5449 8.23677 26.4734 8.27988 25.8685 8.96485C25.4532 8.77498 24.9639 8.76655 24.5388 9.02204C24.1986 9.22649 23.9869 9.55616 23.9041 9.91797C23.2602 9.93772 22.6712 10.3651 22.4855 11.003C21.8921 11.0702 21.4067 11.5348 21.3037 12.1194C20.9252 12.1722 20.5755 12.3501 20.3629 12.704C20.2645 12.8676 20.2112 13.0467 20.1974 13.2259C20.006 13.3178 19.8344 13.4569 19.7048 13.6386C19.4778 13.9569 19.434 14.3286 19.5174 14.6784L19.459 14.7942C19.3972 14.9257 19.3477 15.0667 19.3035 15.2098C19.1039 15.4977 19.0117 15.8497 19.03 16.2032C18.9877 16.3527 18.9466 16.5026 18.9126 16.6532C18.7778 17.2444 18.7272 17.8741 18.8199 18.4762C18.8656 18.7675 18.9318 19.0541 19.0257 19.3322C19.0353 19.3852 19.051 19.4346 19.069 19.4815C19.1208 19.7007 19.187 19.9162 19.2712 20.1269C19.4734 20.3954 19.6853 20.6567 19.9079 20.9095C20.0957 21.1913 20.3099 21.4513 20.5518 21.6897C20.7263 21.8619 20.9177 22.022 21.1211 22.1665C21.5249 22.4903 21.9767 22.7428 22.4588 22.907C22.5448 22.889 22.6314 22.8749 22.718 22.861C23.2654 23.1625 24.1267 23.1966 24.6533 23.1945C25.2337 23.1924 25.7652 23.0457 26.2072 22.7687C26.1559 22.8707 26.1047 22.9728 26.0536 23.0751C26.0663 23.0824 26.0801 23.0891 26.0911 23.0976C26.1867 22.9393 26.2933 22.7987 26.419 22.6975C26.5905 22.5592 26.8671 22.5468 26.986 22.7706C26.9881 22.7744 26.9902 22.7784 26.9922 22.7824C27.0557 22.9017 27.0468 23.0162 26.9984 23.1097C26.9807 23.1351 26.9631 23.1607 26.9455 23.1862C26.9393 23.1935 26.9333 23.2012 26.9264 23.2079C26.7652 23.3406 26.6035 23.6647 26.4502 23.9798C26.3464 24.1639 26.2477 24.3507 26.1552 24.5407C26.1011 24.6204 26.0052 24.6903 25.9031 24.7107C25.9231 24.8624 25.8533 25.0193 25.7387 25.097C25.7086 25.0364 25.672 24.9742 25.625 24.9102C25.1077 24.2073 24.0914 23.904 23.326 24.2252C23.1734 24.1994 23.0201 24.1781 22.8653 24.166C22.3601 24.1326 21.848 24.1723 21.349 24.277C21.1941 24.3699 21.046 24.4746 20.9081 24.5939C20.7913 24.695 20.683 24.801 20.5819 24.9105C20.5037 24.9692 20.4268 25.0313 20.3513 25.0961C20.0454 25.2607 19.8207 25.5764 19.6319 25.8906C19.4822 26.1024 19.3514 26.3274 19.2381 26.5658C18.7134 27.4641 18.1079 28.5792 18.581 29.4624C18.5307 29.5576 18.4935 29.6631 18.4729 29.7779C18.4076 30.1421 18.5418 30.4206 18.7178 30.691C18.6947 30.8796 18.6818 31.0623 18.6719 31.2231C18.6158 32.1256 18.8225 33.3628 19.618 33.7312C19.6304 33.7461 19.643 33.7609 19.6561 33.7757C19.7175 33.8757 19.8112 33.9621 19.9343 34.0252C19.9649 34.0465 19.9958 34.0668 20.0271 34.0841C20.0412 34.0963 20.057 34.1061 20.0716 34.1177L20.0225 34.0644C20.4625 34.2399 20.8875 34.2761 21.3411 34.2228C21.6216 34.3242 21.9026 34.3999 22.1398 34.4586C22.8801 34.6414 23.8348 34.7879 24.5563 34.476C24.7666 34.3852 24.941 34.2649 25.0721 34.1215C25.0612 34.6802 25.0449 35.2388 25.0207 35.7974C24.9713 37.2098 24.9737 38.6209 24.9846 40.0345C24.9966 41.625 25.0411 43.2167 25.1266 44.8061C25.1663 45.6043 25.2301 46.4014 25.3155 47.1961C25.3878 47.9703 25.472 48.7433 25.5695 49.5139C25.7994 51.0984 26.1785 52.6949 26.6407 54.2265C26.8417 54.8911 27.0619 55.5641 27.3123 56.2215C27.4182 56.5238 27.5301 56.8224 27.6517 57.1186C28.2932 58.6706 29.0923 60.1684 30.1719 61.4615C30.7617 62.1671 31.4128 62.8016 32.1398 63.335C32.7235 63.7901 33.3554 64.1754 34.0498 64.4788C35.5423 65.1314 37.208 65.2783 38.822 65.2542C39.4502 65.2458 40.117 65.1326 40.7381 65.0291C41.2147 64.9508 41.6973 64.8461 42.1751 64.7233C42.5988 64.6245 43.0176 64.5101 43.4304 64.3765C43.9275 64.2453 44.4041 64.0562 44.8579 63.8118L45.6619 63.5096C45.9976 63.3832 46.3238 63.2327 46.6404 63.0605L47.5141 62.6523C47.8764 62.4777 48.2291 62.2863 48.5733 62.0756C48.6094 62.0563 48.6503 62.0238 48.666 61.9877C48.755 61.9383 48.8453 61.8914 48.9344 61.8408C48.9488 61.8336 48.938 61.7914 48.9187 61.7505C48.9344 61.718 48.9319 61.6819 48.8886 61.6494C48.8561 61.6241 48.8044 61.6313 48.7502 61.6482C48.755 61.6445 48.7586 61.6409 48.7622 61.6373C48.8224 61.6048 48.8814 61.5735 48.9404 61.541C49.0005 61.5085 49.0102 61.4242 48.9536 61.3797C48.938 61.3676 48.9199 61.3616 48.9019 61.3604C48.9031 61.3604 48.9043 61.3592 48.9055 61.3592C48.9163 61.352 48.9079 61.3182 48.8922 61.2809C48.9223 61.2424 48.9319 61.1954 48.879 61.1545C48.8008 61.0931 48.6178 61.2063 48.5516 61.2436C48.4758 61.2857 48.3988 61.3255 48.3229 61.3664C48.3181 61.3556 48.3085 61.3459 48.2929 61.3363C48.4048 61.2773 48.5155 61.2171 48.6262 61.1569C48.6948 61.1208 48.7839 61.0449 48.6936 60.9739C48.6214 60.9161 48.4349 61.0148 48.3458 61.0654C48.335 61.057 48.3229 61.0534 48.3085 61.0509C48.347 61.0293 48.3879 61.0088 48.4264 60.9859C48.5348 60.9257 48.4613 60.7379 48.3494 60.8005L48.3097 60.8246C48.2291 60.8174 48.1159 60.8836 48.0642 60.9125C47.6875 61.1497 47.2951 61.3568 46.8883 61.535C46.6139 61.665 46.3383 61.7938 46.0614 61.9191C45.7894 62.0539 45.509 62.1707 45.2213 62.2694C44.498 62.5512 43.7674 62.8137 43.0297 63.0569C41.9958 63.3398 40.9258 63.5674 39.8522 63.6565C39.7126 63.6673 39.573 63.677 39.4334 63.6818C39.1277 63.6794 38.822 63.6782 38.5175 63.6758C37.9241 63.6143 37.3308 63.5541 36.7386 63.4939C36.5316 63.465 36.3294 63.4289 36.1296 63.3868C36.0249 63.3615 35.9202 63.335 35.8167 63.3049C35.7806 63.3001 35.7445 63.2929 35.7084 63.2868C35.4544 63.2194 35.2053 63.1387 34.9561 63.0448C34.7997 62.981 34.6444 62.9136 34.4903 62.8426C33.9812 62.6054 33.4805 62.2923 33.0088 61.9335L31.2359 60.1684L30.6955 59.4315C29.9974 58.4334 29.445 57.3208 28.9864 56.1854L28.2571 54.0832C28.1812 53.8303 28.109 53.5775 28.0404 53.3234C27.902 52.7551 27.7636 52.1868 27.6252 51.6197C27.5795 51.4114 27.5349 51.2043 27.4916 50.9972C27.2256 49.7077 27.0788 48.3989 26.9524 47.0901C26.7213 44.7085 26.6587 42.3197 26.6419 39.9285C26.6311 38.4993 26.6431 37.0701 26.672 35.6421C26.6888 34.8138 26.7009 33.9854 26.7129 33.157C26.7285 32.278 26.7454 31.3979 26.7683 30.5189C26.7695 30.4997 26.7622 30.4828 26.7526 30.4684C26.755 30.3648 26.7562 30.2613 26.7574 30.1565C26.7586 30.0879 26.7321 30.0578 26.6936 30.0518C26.7009 29.4245 26.7057 28.7984 26.7069 28.1723C26.7069 28.1313 26.6876 28.1048 26.6623 28.0892V27.9303C26.7671 27.4944 26.9091 27.067 27.0932 26.66C27.1558 26.5131 27.2256 26.3698 27.3026 26.2302C27.3977 26.0207 27.5217 25.8304 27.6733 25.6558C27.7997 25.4427 27.955 25.2537 28.1355 25.0851C28.2089 25.0321 28.2835 24.9792 28.357 24.9262C28.4183 24.8937 28.5086 24.8371 28.5881 24.7721C28.7313 24.6842 28.8733 24.5951 29.0165 24.5072C29.0996 24.4638 29.0454 24.3555 28.9864 24.3266C28.9997 24.3169 29.0141 24.3097 29.0298 24.2965C29.2031 24.1327 29.3836 23.9786 29.5714 23.8341C29.6051 23.8474 29.6448 23.8426 29.6749 23.8173C29.7856 23.7137 29.8987 23.6138 30.0143 23.5175C30.273 23.3477 30.5438 23.1924 30.8267 23.0551C31.2804 22.8408 31.745 22.6566 32.2216 22.5C32.3244 22.4662 32.4279 22.436 32.5308 22.4055C32.6774 22.3986 32.8238 22.3906 32.9702 22.3842C38.424 22.1449 43.892 22.2454 49.3333 22.6845C50.6739 22.7927 52.0127 22.9217 53.3493 23.0711C54.5254 23.2027 55.9351 23.1982 57.0163 23.7371C57.062 23.76 57.1056 23.7842 57.1481 23.8091C57.0637 24.3502 56.8431 24.8785 56.6509 25.3887C56.3545 26.1756 56.0888 26.9777 56.1152 27.83C56.1337 28.4243 56.2614 28.9957 56.4453 29.5541C56.5396 30.3504 56.7876 31.1194 57.051 31.8749C58.3468 35.5923 59.0523 39.3982 58.9798 43.3442C58.9779 43.45 59.0022 43.5422 59.0441 43.6207C59.0204 43.7932 58.9968 43.9659 58.9689 44.1379C58.8608 44.8029 59.7373 45.1337 60.0398 44.6929C60.0601 44.713 60.0883 44.7268 60.1143 44.729C60.1913 44.7362 60.3177 44.6098 60.3538 44.552C60.4007 44.4653 60.4501 44.381 60.503 44.3004C60.5103 44.2968 60.5163 44.2943 60.5223 44.2919C60.4898 44.3594 60.4561 44.428 60.4248 44.493C60.3718 44.599 60.5753 44.6507 60.6354 44.5532C60.6896 44.4677 60.7438 44.3859 60.7979 44.3076C60.8292 44.3305 60.8641 44.3365 60.887 44.2992C61.0807 43.9789 61.3046 43.7044 61.5501 43.4708C61.9365 43.1553 62.3589 42.9639 62.8392 42.8519C63.2171 42.7977 63.6046 42.7953 63.9789 42.8387C64.4086 42.8892 64.8612 42.9964 65.2499 43.1927C65.5664 43.4106 65.8842 43.6285 66.2019 43.8464C66.2802 43.9283 66.3548 44.0138 66.4246 44.1029C66.6448 44.3883 66.8218 44.6929 66.9674 45.0168C66.9734 45.0372 66.9794 45.0577 66.9854 45.077C67.0745 45.3491 67.1323 45.6284 67.1576 45.915C67.1612 46.2774 67.1636 46.6386 67.1672 47.001C67.119 47.4718 66.9987 47.9293 66.8145 48.364C66.7279 48.6205 66.5919 48.8492 66.4077 49.0515C66.309 49.2225 66.1971 49.3778 66.0719 49.5223C65.818 49.6908 65.5412 49.8341 65.2463 49.9473C65.1741 49.9666 65.1019 49.9858 65.0284 50.0003C64.6493 50.146 64.257 50.2242 63.8514 50.2351C63.3386 50.27 62.8368 50.2254 62.3457 50.1014C62.0424 50.0472 61.7487 49.9593 61.4647 49.8377C61.1927 49.7005 60.9363 49.5355 60.6968 49.3429C60.6703 49.326 60.6306 49.3357 60.5873 49.3573C60.5343 49.3188 60.4814 49.2815 60.4296 49.2393C60.4056 49.2225 60.3839 49.2429 60.3731 49.2646C60.3682 49.261 60.3634 49.2574 60.3586 49.2538C60.2635 49.1888 60.0024 49.3922 60.1203 49.5126C60.0698 49.544 60.0192 49.5813 59.9735 49.6198C59.764 49.6282 59.3416 50.0135 59.421 50.0737C59.539 50.1761 59.6629 50.27 59.7893 50.3591C59.6774 50.4422 59.5306 50.571 59.5992 50.6228C59.7219 50.7396 59.8555 50.8407 59.9975 50.9274C60.0938 51.0008 60.1925 51.0707 60.296 51.1345C60.408 51.2007 60.5223 51.2573 60.6402 51.3103C60.4344 51.7088 60.2383 52.111 60.0553 52.5203C59.9338 52.8105 59.7929 53.0911 59.6305 53.3608C59.4234 53.7713 59.1755 54.1566 58.8854 54.5154C58.6495 54.9128 58.3727 55.2776 58.0562 55.6111C57.665 56.0566 57.245 56.4756 56.7985 56.8633C56.6203 56.9897 56.4386 57.1125 56.2496 57.2257C55.767 57.5893 55.2531 57.9012 54.7079 58.1613C54.6441 58.1962 54.5935 58.2732 54.6681 58.3334C54.6706 58.3346 54.673 58.3346 54.6754 58.337C54.4972 58.4382 54.3179 58.5381 54.1374 58.6369C54.0664 58.6754 53.9207 58.75 54.0291 58.8379C54.0989 58.8957 54.3143 58.7922 54.4431 58.7247C54.425 58.7344 54.4058 58.7452 54.3865 58.7561C54.3468 58.7777 54.1181 58.8933 54.2589 58.9668C54.3299 58.9788 54.3973 58.9668 54.4623 58.9318C54.5297 58.9066 54.5971 58.8789 54.6633 58.85C54.6609 58.8716 54.673 58.8921 54.7079 58.909C54.7355 58.9138 54.762 58.9138 54.7885 58.9114C54.6417 58.9944 54.4948 59.0763 54.3468 59.157C54.3035 59.1799 54.0989 59.2931 54.2337 59.3629C54.2999 59.3761 54.3636 59.3653 54.425 59.3316C54.537 59.2894 54.6477 59.2401 54.7548 59.1859C54.7801 59.1714 54.8054 59.1582 54.8306 59.1438C54.8499 59.1438 54.8691 59.1413 54.8884 59.1377C54.7704 59.2015 54.6513 59.263 54.5309 59.3232C54.4599 59.3617 54.3408 59.4399 54.4431 59.5194C54.5141 59.5736 54.7055 59.4761 54.8186 59.4123C54.8258 59.4207 54.8342 59.4303 54.8463 59.4399C54.9305 59.5038 55.1472 59.3629 55.2158 59.3256C55.8127 59.0053 56.3892 58.6742 56.9441 58.2949C57.2835 58.077 57.6145 57.8482 57.9382 57.599C58.5581 57.1198 59.1213 56.5623 59.6377 55.9747C59.9903 55.5726 60.1817 55.3462 60.5235 54.8586C61.0723 54.0735 61.4864 53.2548 61.8847 52.3867C61.8907 52.3734 61.8787 52.3397 61.8607 52.306C61.9425 52.1049 62.0219 51.9015 62.1014 51.6908C62.3084 51.7184 62.5166 51.7377 62.7224 51.7497C63.2075 51.7774 63.678 51.7341 64.1342 51.6342C64.6866 51.5631 65.2331 51.4066 65.7169 51.161C66.0069 51.0153 66.2862 50.86 66.551 50.6866C66.7881 50.5602 67.0167 50.4157 67.2358 50.2471C68.1686 49.5343 68.6753 48.4278 68.7992 47.2792C68.8943 46.7735 68.9148 46.2533 68.8582 45.7512C68.8173 45.3864 68.7354 45.0252 68.6163 44.6772C68.396 43.9054 67.9856 43.1914 67.3911 42.6508C67.2912 42.5485 67.1864 42.451 67.0745 42.3595C66.7435 42.0885 66.368 41.8706 65.9684 41.7117C65.8914 41.6744 65.8132 41.6394 65.7349 41.6069L65.83 41.3878C65.8637 41.3974 65.9805 41.3782 65.9949 41.3372C66.0334 41.2325 66.0695 41.1253 66.1068 41.0206C66.1285 41.0338 66.1562 41.041 66.1863 41.0422V41.1638C66.1851 41.1988 66.2513 41.4155 66.2874 41.3023C66.3247 41.1988 66.3584 41.0928 66.3945 40.9881C66.4246 40.9688 66.4475 40.9459 66.4559 40.9194C66.4595 40.9086 66.4631 40.8978 66.4679 40.8869C66.4703 40.8857 66.4739 40.8857 66.4763 40.8845V40.9218C66.4751 40.9447 66.5353 41.1181 66.5461 41.0844C66.7544 40.5113 66.9241 39.9261 67.0565 39.3313C67.1467 39.0038 67.2177 38.6727 67.2719 38.3368C67.3309 38.0345 67.3826 37.7311 67.4272 37.4253C67.4308 37.4 67.4344 37.3747 67.438 37.3495L67.4416 37.3326C67.4452 37.3001 67.4488 37.2664 67.4536 37.2339C67.5018 36.8883 67.5415 36.5415 67.5716 36.1924C67.6354 35.4748 67.6607 34.7535 67.6534 34.0335C67.6691 34.0396 67.6835 34.048 67.6992 34.0552C68.0119 34.1884 68.3422 34.2972 68.6784 34.3839C69.2567 35.22 70.18 35.7858 71.2864 35.8452C71.6611 35.8655 72.0539 35.8198 72.4176 35.714C72.4554 35.7227 72.4944 35.7297 72.5349 35.735C72.8313 35.7737 73.0375 35.653 73.3146 35.6161C73.7584 35.5574 74.1346 35.5285 74.4218 35.2707C74.5105 35.2727 74.5952 35.2598 74.6758 35.2358C75.4373 35.4184 76.2464 35.0158 76.5142 34.172C76.971 33.9042 77.3349 33.507 77.5796 33.0461C78.0509 32.4417 78.4278 31.7006 78.6615 30.9219C78.6651 30.9146 78.6691 30.9075 78.6726 30.8999C78.7911 30.6427 78.8476 30.3669 78.8524 30.0902C78.9785 29.302 78.9453 28.5129 78.7054 27.8192C78.7155 27.4432 78.6272 27.0513 78.4654 26.6958C78.2694 26.2646 77.9704 25.7689 77.5825 25.4814C77.5815 25.0395 77.3917 24.5531 77.143 24.2234C76.6465 23.5649 75.9265 23.2168 75.1473 23.1665C74.7511 22.1504 73.5505 21.9131 72.515 22.2513C72.0848 21.8116 71.4548 21.6016 70.8259 21.6764C70.2942 21.7396 69.8397 21.994 69.4635 22.3446C69.3643 22.3729 69.2655 22.4024 69.1668 22.4331C68.8374 22.2885 68.4531 22.2557 68.1015 22.3464C67.4922 22.5035 67.0946 22.9654 66.8196 23.4952C66.7319 23.5556 66.6462 23.618 66.5625 23.6831C66.4707 23.7243 66.3873 23.7793 66.3116 23.8441C66.2016 23.9028 66.1082 23.9992 66.0512 24.1391C65.896 24.2992 65.7516 24.4687 65.6237 24.6503C65.5281 24.4289 65.4294 24.2091 65.3274 23.9908C65.1614 24.0407 64.9608 23.9761 64.8773 23.7543C64.3477 22.3486 63.3838 19.773 62.4754 18.5862C63.5355 19.3083 64.8299 19.6889 66.1155 19.6506C66.1705 19.6489 66.226 19.6466 66.282 19.6436C66.9731 19.7628 67.6751 19.7739 68.3196 19.6446C68.7536 19.4869 69.1765 19.2991 69.5864 19.0866C69.686 19.0348 69.7848 18.9804 69.8833 18.9255C69.9262 18.8893 69.9661 18.8488 70.0071 18.81C70.0919 18.8162 70.1806 18.8096 70.2749 18.7845C70.6296 18.6907 70.9578 18.4546 71.1636 18.1512C71.2019 18.0947 71.2327 18.0366 71.2602 17.9779C71.4834 17.7595 71.6768 17.5121 71.819 17.2227C71.9863 16.8844 72.0886 16.5039 72.0994 16.1235C72.1692 15.7502 72.1644 15.3661 72.0344 15.0097C72.02 14.9712 72.0031 14.9339 71.9875 14.8953C71.9803 14.8713 71.9754 14.846 71.967 14.8219C71.929 14.6949 71.8806 14.5817 71.8219 14.4745C71.8001 14.3644 71.7645 14.2552 71.7141 14.1488C71.7085 14.0974 71.7015 14.046 71.6932 13.9948C72.0757 13.273 71.9402 12.3291 71.3676 11.7423C71.4468 11.3631 71.3662 10.9609 71.1355 10.6244C70.966 10.3771 70.7305 10.1819 70.4636 10.0464C70.4358 10.0324 70.3622 10.0082 70.2741 9.98034C70.1754 9.89305 70.0713 9.81045 69.9573 9.73773C69.9289 8.99808 69.1566 8.58654 68.529 8.22208C68.122 7.98573 67.9441 7.53771 67.5249 7.31111C67.0663 7.06344 66.4796 7.04863 65.9728 6.98758C64.778 6.84358 63.5057 6.73232 62.3049 6.86248C61.6382 6.93472 61.0862 7.2568 60.8578 7.78441C60.2843 7.8522 59.7732 8.26615 59.3688 8.6919C58.864 9.22324 58.4342 9.7889 58.2861 10.4871C58.1874 10.5405 58.0977 10.6057 58.0167 10.6794C58.0197 11.1704 58.0837 11.6623 58.2193 12.1257C58.1794 12.4027 58.2628 12.6673 58.4039 12.9071C58.3824 13.1342 58.3978 13.3578 58.4453 13.5807C58.1709 14.0677 58.4277 14.8037 58.8121 15.2867C58.8131 15.3774 58.8141 15.4682 58.815 15.559C58.7922 15.5471 58.7699 15.533 58.7491 15.5153C57.0049 14.0305 55.2119 14.2423 53.093 13.3927C51.182 13.0237 49.2315 12.7888 47.274 12.7106C47.2999 12.7068 47.3258 12.704 47.3515 12.6998C48.338 12.5382 49.2854 12.1323 50.1002 11.5492C50.3159 11.4945 50.5204 11.3971 50.7035 11.2342C50.8814 11.076 51.0045 10.8935 51.0753 10.6977C51.1075 10.6631 51.1394 10.6284 51.1708 10.593C51.7825 10.4427 52.2483 9.91327 52.1703 9.21734C52.5576 8.75872 52.7001 8.19246 52.569 7.60284C52.7854 7.23718 52.8043 6.77615 52.6428 6.39002C52.9829 5.97679 53.0094 5.39018 52.7427 4.92266C52.9862 4.57649 53.04 4.11776 52.7395 3.70778C52.5978 3.51417 52.4013 3.39208 52.1874 3.33308C52.1269 3.10998 52.004 2.90276 51.811 2.74274C51.7117 2.66051 51.6077 2.59946 51.5014 2.55395C51.4615 2.32362 51.3314 2.10521 51.081 1.93339C50.9674 1.85549 50.8512 1.80516 50.7356 1.77723C50.6262 1.50632 50.4353 1.26876 50.1668 1.11452C49.8426 0.928499 49.4655 0.903816 49.1219 1.00134ZM64.5699 44.7916C64.3184 44.788 64.0765 44.7904 63.8358 44.8157C63.8261 44.8085 63.8165 44.8049 63.8081 44.8061C63.7684 44.8157 63.7322 44.8241 63.6937 44.8338C63.5601 44.853 63.4265 44.8807 63.2905 44.9205C62.9692 45.0156 62.6478 45.1661 62.3698 45.3527C62.1074 45.5285 61.8463 45.7115 61.6176 45.9306C61.5369 45.9993 61.4611 46.0739 61.3889 46.151C61.2722 46.2473 61.159 46.346 61.0507 46.4436C60.9183 46.5652 60.7895 46.6904 60.6668 46.8204C60.4742 47.0432 60.3237 47.2912 60.2154 47.5645C60.1721 47.6524 60.225 47.7054 60.3141 47.6897C60.3538 47.6837 60.408 47.6548 60.4634 47.6163C60.4549 47.6368 60.4453 47.6548 60.4369 47.6753C60.3899 47.768 60.4297 47.8342 60.5368 47.7993C60.5428 47.7957 60.5488 47.7921 60.5536 47.7885C60.4983 47.8872 60.4477 47.9883 60.4044 48.0943C60.3574 48.1882 60.3996 48.2532 60.5055 48.2171C60.5608 48.1858 60.6138 48.1497 60.6644 48.11C60.6415 48.1605 60.6174 48.2099 60.597 48.2617C60.5488 48.3568 60.6042 48.4061 60.6981 48.3845C60.7787 48.3399 60.8533 48.287 60.9231 48.2255C60.934 48.2171 60.9436 48.2075 60.9532 48.1991C60.9219 48.2773 60.9809 48.3255 61.0591 48.3098C61.1698 48.2882 61.3781 48.1015 61.4286 48.0028C61.4322 47.9968 61.4346 47.9908 61.4382 47.9847C61.4972 47.945 61.561 47.8896 61.6092 47.8366C61.6477 47.892 61.7223 47.933 61.756 47.8655C61.8571 47.5898 62.0148 47.3538 62.2302 47.1552C62.353 46.9758 62.5022 46.8228 62.6767 46.6964C62.7706 46.6169 62.8681 46.5411 62.968 46.4689C63.1449 46.3882 63.329 46.3268 63.5216 46.2858C63.5601 46.2738 63.5999 46.2666 63.6384 46.2557C63.7238 46.2401 63.8081 46.2244 63.8935 46.2124C64.2414 46.1642 64.5904 46.1558 64.9394 46.1871C65.002 46.1895 65.0622 46.1414 65.0887 46.086C65.1669 46.0896 65.2439 46.0932 65.3222 46.1004C65.4509 46.1052 65.4233 45.9234 65.3258 45.9054C65.203 45.8825 65.0802 45.8656 64.9599 45.8512C64.9623 45.8403 64.9635 45.8283 64.9611 45.8187C65.1813 45.8078 65.4004 45.8127 65.6218 45.8355C65.7181 45.8403 65.6038 45.6621 65.5508 45.6525C65.5268 45.6477 65.5027 45.6453 65.4774 45.6405C65.4798 45.6369 65.481 45.6345 65.4822 45.6308H65.4882C65.6206 45.6369 65.7109 45.4262 65.552 45.3973C65.5123 45.39 65.4738 45.3852 65.4353 45.378C65.4425 45.3575 65.4437 45.3395 65.4365 45.3226C65.5051 45.3214 65.5725 45.3214 65.6411 45.3214C65.6038 45.319 65.5761 45.1577 65.5316 45.1516C65.4967 45.1468 65.4606 45.142 65.4257 45.1372C65.4233 45.0926 65.3559 44.9891 65.327 44.9831C65.0983 44.9445 64.8744 44.9181 64.653 44.9096C64.6313 44.8591 64.6 44.7916 64.5699 44.7916Z" fill="black"/>
<path fill-rule="evenodd" clip-rule="evenodd" d="M35.2299 54.9837C36.1165 55.2406 37.0682 55.2636 37.972 54.9983C38.7917 54.7576 39.6334 54.228 40.2367 53.5272C40.7726 52.9047 41.1197 52.1481 41.1061 51.3406C41.1045 51.2483 41.0716 51.1713 41.0208 51.1116C40.9662 51.0473 40.89 51.0031 40.8083 50.9839C40.7243 50.9642 40.6355 50.9712 40.5599 51.0055C40.4914 51.0366 40.4328 51.0895 40.3961 51.1667C40.3034 51.2886 40.211 51.4086 40.1183 51.5253C39.3728 52.4462 38.6509 53.1344 37.5299 53.3812C36.9217 53.5152 36.3142 53.4558 35.7569 53.2514C35.1602 53.0326 34.6209 52.648 34.1983 52.1557C34.0073 51.9333 33.7818 51.8425 33.5613 51.841C33.3114 51.8392 33.0645 51.9554 32.8784 52.141C32.6955 52.3235 32.5731 52.5715 32.562 52.8309C32.5522 53.0585 32.6265 53.2964 32.824 53.5085C33.4745 54.2074 34.3176 54.7194 35.2299 54.9837ZM35.2573 43.45C34.3484 44.0027 32.9636 45.2914 33.9413 46.6615C35.0922 47.8696 36.7492 46.4844 37.5657 45.858C38.3229 45.3725 39.1735 46.6212 38.4711 47.1881C32.5707 51.5581 30.1763 43.5945 34.7976 42.8002C35.3064 42.7127 35.4954 43.2791 35.2573 43.45ZM43.7592 41.0182C44.0513 40.8313 44.3949 40.7672 44.7758 40.9405C45.0734 41.0759 45.5953 41.5273 45.9586 42.1206C46.2071 42.5265 46.3833 43.0027 46.3466 43.4987C46.3381 43.6138 46.3806 43.6988 46.4478 43.7616C46.5008 43.8112 46.5773 43.8476 46.6672 43.859C46.7436 43.8687 46.829 43.86 46.8985 43.8383C47.0307 43.797 47.1007 43.7112 47.127 43.6412C47.3814 42.9655 47.2718 42.2114 46.9867 41.5311C46.602 40.613 45.9034 39.844 45.4457 39.5961C44.6625 39.1716 43.7385 39.1521 42.9541 39.5845C42.2864 39.9525 41.869 40.5466 41.4537 41.1523C41.3655 41.281 41.2779 41.4088 41.1873 41.5344C41.0059 41.7859 40.9878 42.0355 41.0581 42.2494C41.1359 42.4864 41.3344 42.6865 41.5826 42.7912C41.812 42.8879 42.0783 42.9015 42.3139 42.8021C42.513 42.7181 42.6956 42.5544 42.8112 42.2766C43.0059 41.8088 43.3302 41.2927 43.7592 41.0182ZM28.9233 42.059C29.1234 42.1633 29.2799 42.1948 29.5018 42.1282C29.6245 42.0914 29.7458 42.0207 29.8408 41.9257C29.9349 41.8315 30.0028 41.7145 30.0292 41.5846C30.0941 41.264 30.2694 40.964 30.5193 40.7684C30.7328 40.6012 31.0023 40.5125 31.3013 40.5625C31.6239 40.6164 31.9313 40.8234 32.143 41.0674C32.2137 41.1491 32.2692 41.2418 32.3249 41.3339C32.4292 41.5062 32.5306 41.6663 32.6745 41.7928C32.729 41.841 32.8112 41.8743 32.8907 41.8743C32.9231 41.8743 32.9559 41.869 32.9872 41.8593C33.3083 41.5369 33.37 41.2923 33.3597 41.0497C33.3488 40.7953 33.2486 40.5377 33.0866 40.2974C32.7065 39.7337 31.985 39.2715 31.498 39.1668C30.8312 39.0235 30.169 39.1955 29.638 39.5681C29.0917 39.9515 28.6868 40.5467 28.5606 41.2175C28.5303 41.3791 28.5432 41.5534 28.6047 41.7046C28.6648 41.8524 28.7695 41.9789 28.9233 42.059ZM42.2885 35.008C42.6887 35.398 43.1623 35.4584 43.6415 35.5122C43.9078 35.5423 44.1203 35.5666 44.3294 35.6138C44.9043 35.7436 45.4725 35.9392 45.991 36.2207C46.5329 36.5151 47.1235 36.8701 47.5483 37.3249C47.6494 37.4331 47.7446 37.5467 47.84 37.6605C47.9269 37.7642 48.0107 37.8641 48.099 37.9605C48.2004 38.0711 48.2967 38.1871 48.3925 38.3027C48.4517 38.4003 48.4634 38.4243 48.4753 38.4493C48.4933 38.4869 48.5141 38.5289 48.538 38.574C48.5706 38.6357 48.6089 38.7033 48.6489 38.7646C48.7156 38.8765 48.7513 38.9074 48.7822 38.9212C48.8335 38.944 48.8821 38.9553 48.9293 38.9492C48.9736 38.9435 49.0152 38.9222 49.0564 38.8874C49.2618 38.7138 49.3224 38.4288 49.3162 38.1263C49.3068 37.6672 49.1375 37.1589 48.9815 36.8465C48.6187 36.1205 48.1156 35.3658 47.5106 34.8239C46.8202 34.2054 46.0649 33.7372 45.1974 33.4145C44.6582 33.2139 44.034 33.0298 43.4467 33.0531C43.0239 33.0698 42.6203 33.1955 42.287 33.5095C42.0823 33.7022 41.9841 33.9764 41.9841 34.2503C41.9841 34.5297 42.0861 34.8108 42.2885 35.008ZM28.1094 38.5798C28.1349 38.6215 28.1701 38.6502 28.2093 38.6675C28.2504 38.6856 28.2963 38.6908 28.3403 38.6834C28.3841 38.676 28.4258 38.6561 28.4588 38.6258C28.4905 38.5967 28.5146 38.5581 28.5254 38.5108C28.7911 37.3434 29.307 36.4748 30.4081 35.9147C30.9498 35.6392 31.5726 35.4642 32.1623 35.3246C32.3336 35.284 32.5146 35.2577 32.697 35.2311C33.2684 35.1476 33.844 35.052 34.2165 34.59C34.441 34.3116 34.5352 33.9557 34.4819 33.6301C34.4318 33.3236 34.2527 33.0425 33.9272 32.8741C33.1169 32.455 32.11 32.8662 31.2917 33.2166C31.231 33.2426 31.1714 33.2681 31.1131 33.2927C30.3129 33.6306 29.5831 34.0766 28.9832 34.7145C28.5071 35.2205 28.0661 35.9686 27.8885 36.7382C27.7407 37.3785 27.7754 38.0321 28.1094 38.5798Z" fill="black"/>
<path fill-rule="evenodd" clip-rule="evenodd" d="M25.109 44.5278C25.9194 45.6168 27.4217 45.9637 28.8073 45.8439C31.7959 45.5561 32.7365 42.1606 32.8345 39.5215C30.8304 40.0855 33.0039 36.0912 26.1533 35.652C23.7384 35.4506 24.4042 36.9097 23.3372 37.9757C23.3591 40.2131 23.7314 42.6442 25.109 44.5278ZM39.3437 41.9569C41.1081 50.223 50.7701 48.2568 51.7851 40.8055C50.8479 40.1437 51.0947 38.5097 49.9304 37.9177C48.0851 36.7382 45.7783 36.7887 43.6828 36.8164C41.0043 37.0005 40.241 38.1105 38.865 39.3215C38.9312 40.1304 39.1221 41.089 39.3437 41.9569ZM21.2815 34.283C21.3806 34.2665 21.4798 34.2509 21.5789 34.2364C21.6563 34.1924 21.7472 34.1586 21.8529 34.1382C22.0942 34.077 22.3338 34.0357 22.5731 34.0134C26.0071 33.2403 33.9515 34.338 34.2793 37.2696C35.3729 37.6348 36.3191 37.3077 37.5866 37.3403C38.5514 33.3061 55.2308 33.8755 56.033 36.3077C56.036 36.3068 56.039 36.3061 56.0421 36.3051C56.8129 36.0665 57.9492 36.1241 58.8314 36.0863C60.7151 36.0468 62.601 36.2147 64.444 36.6122C67.8952 37.1609 72.6054 37.8032 70.2051 42.1146C70.2046 42.1154 70.2043 42.1162 70.2036 42.1169L70.2033 42.1166C69.7896 42.5407 69.0876 42.1992 69.0615 41.6249C69.8685 39.5824 68.0458 39.3372 66.6434 38.7502C63.1539 37.4961 59.6012 37.3222 55.9922 37.7101C55.7206 38.0299 55.3087 38.3088 54.8732 38.4547C52.4602 38.8554 53.7319 40.6461 52.2066 40.9065C52.4868 47.1485 44.9114 50.5557 40.5221 46.4524C38.7696 44.7383 38.3518 42.1992 37.9455 39.9104C37.7307 39.8621 37.5941 39.7446 37.5143 39.589C36.9976 39.073 36.673 38.5964 35.6513 38.4547C34.6296 38.3131 33.843 38.5974 33.7366 38.6844C33.7098 38.7385 33.681 38.7927 33.6476 38.8469C33.6009 38.9277 33.5373 38.9921 33.4651 39.0428C34.4741 45.2585 29.6505 49.1894 24.781 45.9656C22.6652 43.9745 22.218 40.9261 22.1297 38.2052C21.8429 38.0321 21.6613 37.6965 21.7606 37.2746C21.8974 36.6931 21.5765 36.1896 21.0655 35.9367C20.4015 35.6084 20.519 34.4093 21.2815 34.283Z" fill="black"/>
</svg>
