<svg width="91" height="242" viewBox="0 0 91 242" fill="none" xmlns="http://www.w3.org/2000/svg">
<path fill-rule="evenodd" clip-rule="evenodd" d="M1.99207 118.368C-0.227036 118.418 0.724518 97.7124 2.20635 93.897C2.41386 93.1238 2.58522 92.0672 2.55071 91.1184C0.717918 91.3016 0.915237 90.0471 1.00986 88.5345C0.978783 87.3333 0.895287 84.8551 2.73355 85.8201C8.24467 74.7865 2.28582 46.2649 16.7965 43.5785C18.545 43.1539 20.3522 42.7144 21.8243 41.5021C23.382 38.6226 24.1754 38.2548 26.7566 38.0686C27.2346 35.4748 28.128 32.704 30.7903 31.6947C33.2279 30.7395 36.0648 30.6633 38.6066 31.173C40.7103 31.8592 40.9027 35.7696 41.3701 37.6976C44.2035 36.9462 47.6954 35.366 49.2208 38.9483C49.9596 38.7275 50.6442 38.8708 51.3951 39.1166C57.6875 40.1305 63.7926 42.9771 66.1265 48.9168C67.5681 52.4811 66.545 56.3611 66.0043 60.0525C65.5001 64.0721 66.8297 67.7961 67.4461 71.6625C68.3638 76.9866 68.5298 81.2571 67.9309 85.2142C69.5139 85.5744 69.6306 87.0142 68.9902 88.5209C68.8021 89.0307 68.6127 89.5683 68.1968 89.8564C67.3509 90.389 66.2575 89.7753 65.3382 89.6814C65.1469 91.8074 64.7766 93.8936 64.1639 96.2645C64.3414 96.9742 64.5449 97.7667 64.7276 98.4794L64.7893 98.4124C66.8882 107.204 73.1307 115.744 71.1906 125.088C71.0765 125.399 70.86 125.335 70.6938 125.329C69.7306 125.695 68.846 125.463 67.8747 125.5C65.571 125.502 63.3453 125.797 61.2806 126.054C60.9032 128.519 59.6761 132.556 57.4878 133.496C57.451 133.509 56.8024 133.373 56.7482 133.369C62.5736 156.99 73.0551 178.832 77.2186 202.929C77.2433 203.223 76.7648 203.068 76.6078 203.103C76.6293 203.772 76.1973 203.933 75.5923 204.171C76.3719 205.8 77.0741 207.428 77.8502 209.062C78.2101 209.871 78.7965 210.67 78.9034 211.534C79.7625 212.084 80.3412 213.157 80.3259 214.159C82.6427 215.138 82.013 219.975 82.5416 222.37C83.0761 225.939 85.6183 228.431 87.3614 231.357C87.7166 231.945 88.0949 232.714 88.1117 233.452C89.1923 233.959 89.5952 235.065 89.5237 236.928C89.5276 239.107 88.9129 239.937 87.2553 239.99C82.753 240.44 77.4992 240.257 72.9708 239.745C69.5833 239.314 66.5814 239.672 67.3388 235.601C67.4947 234.616 67.1953 233.289 67.7785 232.491C68.1381 230.117 67.9289 227.725 67.1535 225.379C66.6821 223.404 65.8857 219.325 66.2157 216.675C66.3683 215.449 68.8705 214.775 69.311 214.715C69.1709 213.792 69.2325 212.18 69.729 211.539C68.8173 211.412 68.5882 211.171 68.3983 210.158C67.9446 208.518 67.8842 206.738 66.7606 205.356C64.7398 205.382 62.7257 204.869 60.706 204.807L60.6054 204.575C59.4108 204.56 58.2229 204.349 57.089 203.935C56.8376 204.054 56.5159 204.156 56.3746 203.775L55.7001 201.666C47.8483 176.679 39.1451 151.632 30.659 126.828C30.1636 125.622 29.5679 124.34 28.7932 123.265C28.5308 138.442 25.3516 153.602 25.0786 168.772C24.7096 179.207 24.8046 189.533 23.823 200.005C23.5704 202.222 23.3018 202.148 22.971 202.012C22.8384 202.033 22.5264 202.099 22.391 202.128C22.6123 204.33 22.8669 207.905 23.8114 210.158C25.8992 210.48 25.5253 212.082 25.0622 213.41C25.5603 213.835 25.4895 214.827 25.3416 215.376C27.306 215.378 27.7343 216.976 27.5991 217.984C27.4123 219.67 27.5168 222.294 26.3917 223.734C25.7291 225.571 24.6505 227.304 24.2293 229.282C23.9645 230.738 24.0667 232.858 23.8114 234.302C24.4538 234.599 24.1816 235.064 24.2899 235.964C24.846 240.084 22.8886 239.384 19.4278 239.668C17.3534 240.126 1.56106 241.037 2.24352 238.296C2.12714 237.18 2.64629 236.69 2.86861 235.591C2.96846 235.299 4.93597 231.923 6.1095 230.645C10.0454 226.947 9.87356 221.982 9.74886 216.263C9.98035 214.713 11.1727 213.229 12.6942 213.395C12.2574 211.74 13.0671 210.301 14.7592 209.822C14.5901 207.947 14.4121 205.401 13.7934 203.779L14.3762 203.186L13.5961 203.279L13.3371 202.627L13.0547 203.342C11.7154 203.342 10.2044 203.045 8.92149 202.905C8.71655 202.917 8.80801 202.638 8.77436 202.531C7.5629 202.28 7.43024 201.636 7.64433 200.102C7.36215 175.197 7.48462 150.526 7.87035 125.575C5.97701 125.66 4.13078 124.969 2.27016 124.509C1.6091 124.924 1.4218 123.446 1.49913 123.127C1.60404 121.477 1.80829 119.867 1.99207 118.368Z" fill="white"/>
<path fill-rule="evenodd" clip-rule="evenodd" d="M40.8744 34.2247C40.593 34.4469 40.6224 35.0628 40.5946 35.4075L40.5927 35.4301C40.5041 36.4715 40.624 37.5178 40.8779 38.5289L40.9171 38.683C41.0384 39.1663 41.159 39.7455 41.5386 40.077C41.9698 40.4534 42.6548 40.2097 42.6703 39.6027C42.6782 39.3205 42.5839 39.0489 42.4648 38.7842C43.3002 39.1065 44.1355 39.4254 44.9744 39.7363C45.5102 44.1672 39.3201 49.5921 35.7361 51.4913C30.5169 54.3801 26.1255 49.9553 25.4574 44.7535C25.3452 44.0626 25.2699 43.3525 25.2553 42.6519L25.2544 42.5847C25.2515 42.0055 25.3476 41.2311 24.9702 40.7495C25.248 40.743 25.4947 40.782 25.7667 40.8247L25.7536 40.8472C25.5995 41.1227 25.3817 41.8084 25.8696 41.8606C26.9231 41.7497 27.4131 39.9031 27.6699 39.0174L27.68 38.9789C27.8458 38.3152 28.0569 35.9059 27.5575 35.617C27.4039 36.2114 27.4644 36.8569 27.2776 37.4531C26.8526 37.6243 26.0432 37.6706 25.8557 37.7021C23.6666 37.7274 22.4253 39.2988 21.538 41.1382C18.9369 43.273 15.1979 42.9061 12.3892 44.6642C3.79411 50.8942 6.60114 75.1471 2.32007 85.465C1.46292 85.1103 0.589279 85.8204 0.474815 86.687C0.356461 87.3534 0.391884 88.067 0.382378 88.7422L0.378319 88.8265C0.308342 90.2075 0.0695267 91.7596 1.93478 91.7898C1.93184 92.5607 1.78671 93.307 1.60045 94.0512C0.567589 98.5558 0.116821 103.196 0.0151443 107.814L0.0100098 108.153C-0.0235596 110.58 -0.0532684 118.089 1.34215 118.977L1.27716 119.506C1.11559 120.829 0.963402 122.155 0.878334 123.484C0.744431 124.175 1.20013 125.828 2.13001 125.39C3.83532 125.812 5.51714 126.434 7.28913 126.438C6.85978 140.72 7.07324 155.017 7.00975 169.306C7.14659 179.838 6.57712 190.458 7.07489 200.95L7.05688 201.098C6.91621 202.276 6.87402 203.3 8.23586 203.704C8.25547 203.992 8.47732 204.146 8.74037 204.18C9.48685 204.28 10.2332 204.375 10.9805 204.467C11.6766 204.519 12.4215 204.692 13.1152 204.609C13.0481 204.677 13.2302 204.688 13.2499 204.638C13.8825 206.225 14.066 207.955 14.2227 209.649C12.6874 210.234 11.8495 211.55 12.1001 213.2C10.551 213.263 9.41973 214.984 9.20264 216.434C9.06355 217.436 9.175 218.43 9.21983 219.432C9.43425 222.859 8.93051 226.551 6.7181 229.284C5.28197 231 3.41237 232.552 2.78571 234.786C2.61552 234.866 2.47557 235.019 2.41424 235.259L2.01669 236.819L1.81902 237.6C1.67423 238.168 1.54559 238.75 1.62322 239.339L1.63138 239.396C2.01865 243.124 17.3067 241.327 20.2906 241.059C21.49 240.871 22.8061 240.974 23.8861 240.339C25.2108 239.465 25.3765 237.691 25.1491 236.239L25.1302 236.102C25.0381 235.453 24.9032 234.772 24.2869 234.409C24.4944 233.063 24.4141 231.686 24.6609 230.345C25.0337 228.448 26.1613 226.802 26.7369 224.981C27.5766 224.048 27.6049 222.592 27.7805 221.398C27.9135 220.24 28.0224 219.074 28.0672 217.909C28.1891 216.369 27.5205 215.098 25.9007 214.897C25.9758 214.605 25.77 214.353 25.5654 214.166C26.0484 212.451 26.1817 210.097 24.0865 209.511C23.2929 207.544 23.0623 205.412 22.8511 203.313C22.8762 203.308 22.9012 203.304 22.9263 203.299C23.8863 203.699 24.1469 201.988 24.2368 201.085L24.2567 200.869C25.2446 190.426 25.1537 179.921 25.5247 169.445L25.561 168.688C25.8863 161.786 26.0798 154.823 27.2735 148.013C28.475 140.423 28.7891 132.709 29.1997 125.039C29.6834 125.791 29.9436 126.654 30.335 127.454C35.4143 142.376 40.6258 157.252 45.6473 172.194C49.2869 183.012 52.764 193.888 56.2515 204.756C56.4295 205.313 56.9901 205.428 57.4005 205.25C58.445 205.612 59.5412 205.818 60.6444 205.853C60.7108 206.006 60.8473 206.118 61.0469 206.096C61.637 206.031 62.3159 206.216 62.9059 206.285C64.256 206.418 65.5667 206.625 66.9291 206.645C67.7731 207.712 67.8262 209.159 68.2154 210.429C68.4394 211.076 68.4042 212.528 69.1778 212.71C68.9005 213.137 68.8642 213.65 68.9092 214.178C68.6686 214.233 68.4245 214.336 68.1982 214.442C67.9777 214.554 67.6865 214.544 67.5346 214.769C63.2137 215.552 66.3714 223.756 67.1225 226.47C67.8596 228.688 68.0904 231.005 67.7541 233.321C67.2399 234.031 67.412 235.088 67.3333 235.929C67.292 236.681 67.2159 237.443 67.2228 238.195C67.3067 241.319 71.1639 240.811 73.34 241.217C74.6988 241.375 76.0638 241.485 77.4288 241.57C80.8905 241.785 84.3717 241.802 87.8264 241.467C90.057 241.396 90.5366 239.942 90.533 237.951L90.5364 237.869C90.5867 236.518 90.3689 234.887 89.086 234.185C89.0221 233.471 88.6601 232.751 88.2904 232.127C86.5714 229.237 83.9906 226.705 83.483 223.237C82.985 220.967 83.5491 215.969 81.2411 214.785C81.1875 213.763 80.5596 212.721 79.782 212.168C79.6319 211.317 79.0666 210.534 78.7168 209.752C78.0034 208.258 77.3435 206.74 76.6339 205.244C77.0055 205.087 77.4003 204.798 77.4521 204.388C77.8088 204.392 78.1613 204.161 78.1181 203.727C77.9921 202.467 77.7164 201.228 77.456 199.989L77.4235 199.834C72.7902 177.438 63.2221 156.496 57.6242 134.387C58.3774 134.523 59.0816 133.662 59.498 133.101C60.8431 131.29 61.6375 129.099 61.9868 126.876L62.6191 126.798C64.7275 126.539 66.8465 126.312 68.9726 126.373L69.485 126.39C70.0542 126.408 70.6245 126.403 71.1656 126.198C71.5431 126.233 71.9362 126.031 72.0295 125.607C73.6042 117.759 69.7336 110.312 66.9611 103.221C66.308 101.477 65.8431 99.7086 65.4 97.9032C65.3854 97.8446 65.2938 97.8569 65.2963 97.9171C65.3827 99.9244 65.8804 101.948 66.3858 103.883C68.0454 110.443 71.503 116.876 70.6577 123.822C68.03 121.752 64.9091 120.315 61.6309 119.707C61.4417 118.885 61.2327 118.069 61.0754 117.242C61.2301 115.97 61.3355 114.692 61.4702 113.414C61.8728 109.592 62.4878 105.779 63.3076 102.024C64.5794 98.2457 65.6898 94.4162 66.0868 90.4324L66.1591 90.4466C67.0409 90.6256 68.0124 91.0141 68.8305 90.4525C69.3496 90.0926 69.5743 89.496 69.7841 88.923C70.3834 87.5339 70.4942 85.7078 68.7986 85.1269C69.4307 80.7101 69.02 76.0991 68.256 71.7236C67.6443 67.8883 66.3022 64.1096 66.8046 60.1833C67.3623 56.4104 68.4022 52.4587 66.8989 48.7654C64.4282 42.6017 58.1716 39.6774 52.0185 38.7362L51.9188 38.7069C51.1576 38.4815 50.4644 38.244 49.6713 38.4148C47.8006 34.9435 44.7666 36.3554 41.8039 37.129C41.6038 36.5404 41.4372 35.9382 41.2804 35.3366C41.1828 35.0301 41.215 34.3229 40.8744 34.2247ZM23.7263 236.093L23.734 236.244C23.8123 237.869 23.7241 239.262 21.709 239.251C20.3224 239.399 18.9356 239.543 17.5468 239.669L17.0259 239.715C12.9039 240.083 8.73246 240.262 4.61834 239.71L4.44695 239.687C4.10313 239.638 3.46644 239.648 3.19423 239.394C2.86613 238.952 3.24598 238.11 3.32563 237.598C9.74499 237.523 16.1727 237.286 22.5963 237.368C23.2719 237.372 23.5768 236.794 23.5146 236.268C23.5906 236.217 23.6623 236.157 23.7263 236.093ZM88.9019 235.278C89.2176 236.388 89.1399 237.437 88.9616 238.548C88.8724 239.712 88.3187 239.786 87.3168 239.814C83.4054 240.175 79.4657 240.099 75.5533 239.796C73.4563 239.57 71.3014 239.579 69.2435 239.115C68.2617 238.68 68.8285 237.312 68.795 236.473C73.4168 239.451 80.4066 239.073 85.4465 237.35L85.5272 237.315C86.7194 236.814 88.2434 236.499 88.9019 235.278ZM81.2463 215.238C81.7776 215.837 81.7887 217.544 81.811 218.125L81.8138 218.19C81.8735 219.41 81.864 220.633 81.9168 221.853C81.8779 226.992 84.8452 229.555 87.0489 233.686C87.6516 234.689 86.7748 234.831 86.0616 235.156C81.4432 237.306 75.9802 237.634 71.1553 235.989C68.7301 235.284 69.2595 233.652 69.4655 231.656C69.6682 227.576 67.5217 223.901 66.8867 219.954L66.8696 219.852C66.6803 218.694 66.3532 215.724 68.199 216.359C68.6007 216.607 68.9783 216.296 69.0257 215.917C69.0735 215.925 69.1226 215.93 69.17 215.93C69.3834 217.249 69.6046 218.567 69.817 219.886C69.6383 219.999 69.4707 220.128 69.3221 220.274C69.1415 220.453 69.2677 220.829 69.5398 220.806C69.6797 220.794 69.8179 220.773 69.9553 220.747C70.0643 221.893 71.8851 221.25 71.3591 220.331C73.9772 219.426 76.8616 219.499 79.5202 220.192L79.5312 220.197C79.7371 220.279 81.217 220.575 80.7409 220.806C80.5425 220.83 80.9943 221.09 81.0735 220.688C81.0991 220.184 79.9487 219.937 79.5963 219.727C80.4852 218.455 81.0926 216.806 81.2463 215.238ZM14.1743 211.209C16.6406 209.874 19.6715 210.37 22.3466 210.606L22.4589 210.619C23.1397 210.692 24.0886 210.737 24.401 211.438C24.8535 212.562 24.1035 215.075 23.8679 216.324L23.7877 216.652C23.5923 217.452 23.407 218.245 23.34 219.072C23.3384 219.099 23.3634 219.117 23.3868 219.117C24.3238 218.116 24.745 216.769 25.1827 215.485C25.3694 215.592 25.5517 215.707 25.7235 215.834C26.3951 218.142 26.62 220.599 26.0882 222.953L26.0691 223.036C25.4122 225.946 23.367 228.325 23.1725 231.366C23.0426 232.595 23.0717 233.854 22.7181 235.048C22.517 235.092 22.3416 235.241 22.2628 235.427L21.1099 235.429C15.537 235.438 9.96267 235.489 4.39339 235.718C4.57299 234.152 5.95521 232.762 6.9288 231.689C9.9162 228.629 11.2083 224.234 10.7162 219.998C10.4573 217.879 9.27477 214.55 12.1674 213.767C12.3787 215.494 12.6643 217.215 12.8222 218.949C12.2763 219.213 12.31 219.907 12.9769 219.893C13.2763 220.901 14.28 220.493 14.1716 219.543C17.8429 218.187 19.9493 217.733 23.5259 219.775C23.6261 219.761 23.251 219.359 23.2036 219.288C22.0733 218.069 20.3374 217.496 18.7088 217.476C17.0944 217.475 15.5761 218.084 14.0533 218.554C13.8244 216.918 13.6702 215.272 13.4888 213.63L13.4494 213.279C13.3544 212.417 13.389 211.705 14.1743 211.209ZM73.1741 232.338C72.6368 232.218 72.1426 232.036 71.5967 232.16C69.6754 233.603 77.5258 234.01 78.1942 233.907C79.8958 233.857 81.5981 233.641 83.2357 233.16L83.3498 233.126C83.5111 233.082 85.1434 232.627 84.8339 232.424C82.619 232.62 80.4506 233.027 78.1942 232.921C77.0685 232.898 75.9386 232.818 74.825 232.649C74.2713 232.564 73.7201 232.461 73.1741 232.338ZM21.2719 230.55C21.6236 230.023 19.9089 230.723 19.6859 230.729C18.2658 231.079 16.8208 231.344 15.3621 231.455C14.3842 231.529 13.3959 231.545 12.4163 231.497C11.6908 231.471 10.9731 231.364 10.2523 231.29L10.2264 231.289C9.79796 231.274 8.93975 231.54 9.46869 232.05C10.2913 232.687 11.5083 232.493 12.4941 232.587C15.4878 232.577 18.6579 232.095 21.2719 230.55ZM77.5548 226.718C76.6918 226.561 71.9412 226.51 72.4148 227.969C72.5297 228.246 72.7923 228.337 73.0687 228.294C76.0088 227.578 79.1803 227.204 82.111 228.19C82.1585 228.207 82.1914 228.129 82.1447 228.108C80.7037 227.386 79.1619 226.881 77.5548 226.718ZM15.8926 225.292C15.1169 225.233 14.3367 225.254 13.5608 225.312L13.243 225.337C12.9157 225.364 12.5812 225.398 12.2685 225.493L12.2063 225.512C11.7802 225.65 10.8199 226.382 11.5489 226.734C12.3316 226.988 12.9934 226.686 13.7484 226.492C15.853 225.994 18.0654 226.163 20.1506 226.672L19.8569 226.767C19.8388 226.754 19.8154 226.784 19.8328 226.799C20.0435 226.983 20.3329 226.918 20.4823 226.689C20.5083 226.65 20.4918 226.587 20.4504 226.565C19.0371 225.823 17.4787 225.413 15.8926 225.292ZM81.4432 225.106C79.0663 224.054 76.3124 223.938 73.7634 224.243L73.5818 224.265C72.7865 224.358 71.7493 224.401 71.2943 225.142C71.1371 225.399 71.2995 225.693 71.5535 225.786C72.3015 226.059 73.181 225.512 73.8997 225.308C76.025 224.726 78.2947 224.665 80.4558 225.067C80.4407 225.147 80.7986 225.112 80.8765 225.14C80.9742 225.135 81.6225 225.349 81.4432 225.106ZM21.5035 223.463C19.4299 222.455 17.0323 222.214 14.7937 222.735L14.7006 222.761C13.7087 223.04 12.1116 223.369 11.7562 224.419C11.6794 224.656 11.8461 224.975 12.0957 225.023C12.9416 225.185 13.7095 224.567 14.4749 224.27C16.7268 223.424 19.2759 223.221 21.6045 223.844C21.6201 223.936 21.6356 224.027 21.6521 224.118C21.6123 224.092 21.5708 224.151 21.6028 224.183C21.9744 224.443 22.361 223.786 21.5035 223.463ZM76.1001 221.69C74.4223 221.579 72.7304 221.792 71.1107 222.235L70.8061 222.319C70.3634 222.443 69.7899 222.638 69.7255 223.117C69.7005 223.307 69.748 223.438 69.9026 223.556C70.4665 223.978 71.6928 223.094 72.394 222.99C74.9392 222.225 77.6713 222.236 80.2496 222.821L80.3375 222.841L80.2753 223.284C80.2142 223.496 80.7808 222.997 80.5655 222.77C79.2045 222.076 77.6163 221.815 76.1001 221.69ZM19.9217 220.899C18.5751 220.656 17.186 220.609 15.8245 220.732L15.6637 220.747C14.8507 220.819 12.2164 220.923 12.8395 222.298C12.944 222.528 13.2473 222.557 13.4434 222.458C14.1017 222.124 14.8213 222.004 15.5479 221.894C18.1131 221.537 20.7339 221.683 23.2382 222.374C23.1837 222.46 23.2961 222.561 23.4023 222.581C23.6667 222.63 23.6667 222.315 23.5535 222.147C23.4186 221.949 23.15 221.876 22.9427 221.789C21.9783 221.368 20.9556 221.084 19.9217 220.899ZM70.9229 213.25L71.0762 213.213C73.646 212.609 79.3432 211.524 79.9332 215.065C80.1426 216.624 79.4518 218.146 79.5029 219.69C76.8382 218.606 73.8916 218.617 71.1232 219.334C70.8779 217.731 70.6438 216.126 70.3933 214.524L70.3528 214.333C70.2413 213.792 70.2034 213.37 70.9229 213.25ZM76.6461 213.894C76.0861 213.414 75.1523 213.421 74.603 213.945C74.1007 214.051 73.7464 214.584 73.7383 215.041C72.9745 216.384 73.8955 218.239 75.3537 218.574C78.6463 219.269 80.1181 214.745 76.6461 213.894ZM19.6004 211.752C16.8455 211.26 15.8447 214.756 18.1058 216.173C21.2999 217.776 23.4281 212.737 19.6004 211.752ZM75.2829 203.987C75.2423 204.254 75.3738 204.444 75.5308 204.624C76.0956 206.94 76.9457 209.096 77.7838 211.316C75.0572 210.864 72.481 211.258 70.0684 211.999C70.0395 211.322 69.7309 210.619 69.5165 209.98C69.099 208.768 68.5942 207.586 68.0121 206.445L67.9389 206.302C67.7299 205.896 67.5286 205.472 67.2816 205.083C69.9502 204.718 72.6188 204.39 75.2829 203.987ZM21.5372 203.493L21.6082 203.816C21.9146 205.213 22.2052 206.625 22.6611 207.983L22.6673 208.011C22.7371 208.354 22.894 209.941 22.9928 208.82C23.0688 208.989 23.1501 209.156 23.2364 209.32L22.5757 209.241C20.1111 208.952 17.5399 208.721 15.1228 209.34C15.3736 207.396 15.0044 205.539 14.4654 203.701C16.8279 203.647 19.1695 203.664 21.5372 203.493ZM66.2769 205.909C66.3633 205.99 66.4479 206.073 66.5283 206.16C66.4193 206.132 66.3105 206.105 66.2095 206.081C66.2137 206.017 66.2588 205.969 66.2769 205.909ZM13.0374 204.126L13.1143 204.307C13.0745 204.284 13.0304 204.261 12.983 204.241C13.0046 204.206 13.0227 204.168 13.0374 204.126ZM76.7428 203.73C76.7707 203.834 76.792 203.948 76.8422 204.042C76.8025 204.049 76.7619 204.057 76.7212 204.065C76.672 203.966 76.6201 203.869 76.564 203.774C76.6236 203.76 76.6832 203.746 76.7428 203.73ZM56.1936 89.0986C56.4355 89.2156 56.6878 89.2453 57.0211 89.2593C59.7306 89.3717 62.4312 89.6857 65.0916 90.221C64.9448 92.3741 64.29 94.4599 63.6668 96.5126L63.5376 96.9625C61.4321 104.317 59.5944 112.003 59.9645 119.695C59.9438 119.703 59.9239 119.714 59.9048 119.723C59.9385 119.818 59.9626 119.914 59.9964 120.007L60.0181 120.063L60.1445 120.377C60.2143 120.552 60.2822 120.727 60.3411 120.906C60.4446 120.943 60.5716 120.971 60.6927 120.988C61.3074 125.061 60.723 129.627 57.9533 132.812C58.9407 130.824 59.2851 128.565 59.2416 126.356L59.2338 126.019C59.2225 125.601 59.1975 125.185 59.0704 124.789C59.0652 124.768 59.0375 124.772 59.0305 124.789C58.4441 126.601 58.406 128.569 57.8298 130.394L57.7858 130.534C57.3301 131.965 56.5692 133.806 55.2477 134.545C55.0044 134.618 54.6301 134.532 54.5037 134.812L54.4952 134.833L54.4875 134.83C55.0774 132.897 55.4572 130.898 55.5873 128.879L55.5958 128.742C55.6373 128.038 55.7288 127.283 55.5534 126.596C55.2191 127.224 55.3022 128.251 55.1466 129.012L55.1404 129.055C55.0176 129.877 53.8346 136.16 53.0576 135.321C52.8971 135.089 52.9389 134.642 52.934 134.366L52.9333 134.339C52.9212 133.941 52.9256 133.542 52.9393 133.144C53.0232 130.798 53.3877 128.39 52.6733 126.104C52.554 125.719 51.9061 125.646 51.8275 126.104C51.513 127.935 51.2125 129.767 50.9118 131.6C50.6927 132.719 50.7018 133.982 50.0359 134.947C50.0281 132.839 50.1449 130.738 50.2459 128.633L50.2729 128.545C50.3527 128.279 50.4314 127.934 50.2484 127.708C50.175 127.228 49.4734 127.283 49.4139 127.786C49.4008 127.891 49.3914 127.998 49.381 128.103C49.1486 128.395 48.9326 128.693 48.658 128.944C46.8237 125.196 52.8252 118.725 53.6537 114.493C56.0939 106.252 54.691 97.6119 53.9812 89.22C54.7152 89.1331 55.4552 89.1099 56.1936 89.0986ZM21.2702 41.6702C19.9874 44.2469 19.0457 46.9739 18.3935 49.7803C18.1925 50.6468 19.3539 51.1785 19.8231 50.4194L19.8371 50.396C20.414 49.4328 21.2739 48.5844 22.3622 48.2526C23.1038 51.3637 22.7424 54.6513 22.3571 57.7926C21.674 62.1692 21.1303 66.5643 21.0489 70.9993L21.045 71.237C20.8069 86.3826 18.5827 101.46 16.1465 116.289C12.252 116.915 8.68655 118.681 5.0966 120.233C4.47287 120.477 3.83532 120.689 3.18214 120.836C4.98584 104.024 11.8455 88.2575 13.9651 71.507C14.5254 67.1505 14.5517 62.7266 13.7778 58.3953C13.7647 58.3124 13.6473 58.3403 13.6421 58.4137C13.5571 60.1928 13.2531 61.9488 13.0728 63.7182C12.9502 62.7076 12.6668 61.6839 12.4379 60.7153C12.158 59.7676 12.0546 58.2462 11.2344 57.6284L11.1827 57.4494C11.1611 57.3725 11.047 57.4048 11.0651 57.4817C11.0737 57.5184 11.0825 57.5542 11.0902 57.5909C10.5634 57.7311 11.0555 58.3563 11.1861 58.6556C12.0316 60.926 12.2832 63.3836 12.8603 65.7237C12.0252 73.0291 10.5211 80.2417 8.66867 87.3421C6.96674 86.8926 5.25909 86.4599 3.55283 86.0205C7.35876 73.6026 5.13331 59.7441 10.8355 47.8867C12.9718 43.9075 18.2331 44.4481 21.2702 41.6702ZM50.1861 39.4C50.9843 39.3572 51.8181 39.7913 52.5843 39.9407C53.6003 40.1381 54.611 40.2945 55.6045 40.5976C60.6897 41.9947 65.5958 45.8096 66.5171 51.3063C67.1503 55.0805 65.5823 58.7578 65.6374 62.5216C65.8029 66.2504 67.0299 69.8343 67.5079 73.5255C68.083 77.3001 68.281 81.251 67.7877 85.044C63.226 83.7471 58.4619 83.6659 53.7842 84.3356C54.1743 78.5867 53.6624 72.8094 53.3791 67.0645C53.1752 63.375 52.8262 59.6688 52.9497 55.9723C52.9523 55.8902 52.8193 55.8701 52.8065 55.9522C51.4037 63.5021 52.2264 71.1662 52.3683 78.7803C52.4582 80.7041 52.2205 82.6461 52.3164 84.5592C50.1898 85.018 50.2667 87.5032 50.917 89.1413C51.0323 89.5355 51.4235 89.4671 51.7402 89.4192C52.0834 89.7806 52.9021 89.309 53.3687 89.3091C53.734 98.7601 55.9529 108.855 51.406 117.688C49.505 117.699 47.6751 117.041 45.8276 116.669L45.7268 116.649L45.7242 116.648C45.4526 116.293 45.3198 115.724 45.2835 115.307C45.0253 108.029 45.8334 100.734 45.3607 93.4546C44.7816 85.3751 42.9832 77.3449 43.8149 69.2106C44.3902 61.9407 45.969 54.8024 46.73 47.5541L46.7687 47.1791C46.816 46.7323 46.834 46.2385 47.0545 45.8978C48.3384 47.0701 49.4157 48.4642 50.187 50.0327C50.6141 50.7903 51.758 50.4532 51.7756 49.5978C51.9401 48.0704 51.9645 46.5374 51.7978 45.0097L51.7826 44.8749C51.5761 42.9626 50.9995 41.1374 50.1861 39.4ZM2.45743 91.8526C4.1109 91.9403 5.76654 92.1241 7.42295 92.1025L7.25617 92.7295C5.25098 100.254 3.11582 107.765 1.85703 115.464L1.81129 114.742C1.76575 114.02 1.7222 113.298 1.69376 112.574C1.33662 105.655 1.882 98.7446 2.45743 91.8526ZM45.5022 43.8303C45.4953 44.143 45.4797 44.4548 45.4555 44.7657C44.6913 45.9147 44.7592 47.4419 44.5881 48.7636C43.629 55.9015 42.2167 63.01 41.7408 70.2221C41.2981 75.9915 42.0211 81.7407 42.7601 87.4521C43.6714 93.9932 43.5758 100.602 43.3641 107.187C39.8624 104.01 34.8854 103.453 30.4672 102.466L30.257 102.423C26.8598 101.726 23.4696 100.715 20.5834 98.7295C22.6591 83.8474 22.1706 68.7738 24.293 53.9048C24.3584 52.734 24.3718 51.5564 24.2748 50.3865C24.368 49.1199 24.3959 47.8464 24.3983 46.5764C25.3283 50.3281 28.4446 53.9526 32.5276 53.8342C36.8719 53.5786 40.5593 50.0124 43.3917 46.9555C44.1596 46.0436 44.9233 44.9789 45.5022 43.8303ZM7.29518 91.8596L7.49128 91.85L7.47919 91.8928C7.43887 91.8847 7.39779 91.8773 7.3567 91.8702L7.29518 91.8596ZM1.90627 86.7778C1.93728 86.7682 1.99007 86.7682 2.04881 86.7708C2.13347 86.9665 2.30444 87.1281 2.50313 87.1813L4.16068 87.6303C5.54222 88.0043 6.92448 88.3767 8.30843 88.7387C8.07613 89.6367 7.8402 90.5346 7.60186 91.4316C5.71427 90.8206 3.62428 90.9593 1.69971 90.566C1.72339 89.5296 1.77979 88.4878 1.79742 87.4495C1.80173 87.28 1.76718 87.0075 1.85357 86.8555C1.90791 86.7586 1.85357 86.7944 1.90627 86.7778ZM65.3136 90.2664L65.3655 90.2778C65.3482 90.3249 65.3326 90.3721 65.3179 90.4202C65.317 90.3686 65.3163 90.318 65.3136 90.2664ZM53.0248 85.2789C56.5811 84.7588 60.1978 84.4514 63.7846 84.8054C65.407 85.0261 67.0539 85.2616 68.6439 85.5628C69.1968 86.4161 68.5851 88.4924 67.8967 89.1493C67.6902 89.2279 67.3352 89.075 67.1373 89.0305C65.6529 88.6936 64.1541 88.4222 62.6476 88.2103C62.6028 88.2671 62.5371 88.3037 62.4559 88.2959L62.1098 88.2637C60.0322 88.0734 57.9362 87.9339 55.854 88.0531L55.8386 88.0653C54.4338 88.1684 53.0339 88.3908 51.6349 88.5518C51.0826 87.1001 51.1778 85.4345 53.0248 85.2789ZM27.1489 37.9343C27.0115 38.4022 26.8464 38.8568 26.641 39.2987C26.4266 39.239 26.1309 39.2869 25.9732 39.4227L25.9062 39.4105C25.7218 39.3753 25.5003 39.3215 25.4427 39.3153C22.9018 38.9617 23.0954 42.3798 23.0861 44.0975C23.0706 44.9588 23.0533 45.8209 23.0274 46.6821C22.3002 46.4331 21.3279 46.8808 20.6923 47.277C21.1899 45.6113 21.7747 43.9726 22.427 42.3628L22.5505 42.0492C23.0643 40.7504 23.6332 39.4353 24.7249 38.5309C25.5549 38.3126 26.359 38.273 27.1489 37.9343ZM45.5721 37.0768C47.9339 36.2298 48.8694 38.1546 49.5244 40.0743C50.2968 42.2004 50.5075 44.5413 50.3788 46.8289L50.2993 46.7231C49.4304 45.5583 48.1775 43.6357 46.5932 43.9447C46.6088 43.0609 46.577 42.09 46.4084 41.1723C46.5068 40.5801 46.532 39.9818 46.4636 39.3834C46.4275 38.6332 45.6148 38.747 45.0798 38.641C44.6167 38.3309 44.0561 38.206 43.4928 38.4244C43.0678 38.3676 42.6427 38.3134 42.2177 38.2593C42.1525 38.1152 42.0998 37.9703 42.0449 37.8225C43.2212 37.5781 44.3972 37.3261 45.5721 37.0768Z" fill="black"/>
<path fill-rule="evenodd" clip-rule="evenodd" d="M29.3361 38.469C31.2063 38.4798 32.7958 37.9502 34.0087 37.0741C35.5222 36.5355 37.3477 35.7047 38.4566 34.8326C38.8891 34.9428 39.4066 34.4842 39.7376 34.2422C41.7957 32.7085 43.4111 30.4636 43.8898 28.2148C44.6288 29.1457 45.6803 29.1844 46.6877 28.7217C48.7992 27.5266 48.7203 25.0102 47.9601 23.1301C49.5582 19.5515 50.6658 10.1043 48.2262 6.29156C47.7273 5.72109 46.995 5.37986 46.4677 4.79484C45.9986 4.28391 45.5523 3.76129 45.0065 3.35698C43.341 2.09193 40.4724 1.41837 38.6764 1.1016C31.1787 -0.516131 25.418 2.39154 18.6264 4.8442C19.0173 5.81965 19.558 6.70924 20.1777 7.5387C18.4916 8.16677 19.2661 9.5789 20.5741 10.2948L21.3529 9.91703C20.1389 14.2515 17.3452 25.0304 18.5506 28.4918C19.5118 33.8921 23.7304 38.508 29.3361 38.469Z" fill="white"/>
<path fill-rule="evenodd" clip-rule="evenodd" d="M28.2526 38.9338C30.681 39.1826 33.5659 38.6097 35.1848 36.641C35.2332 36.5821 35.2544 36.5154 35.2557 36.4509C35.2571 36.3793 35.233 36.3101 35.1914 36.2562C35.1476 36.1996 35.0853 36.1602 35.0139 36.1474C34.9538 36.1366 34.8852 36.1435 34.8145 36.1831L34.6657 36.2658C33.5601 36.8752 32.4118 37.3949 31.1589 37.6174C29.8688 37.8463 28.5551 37.8207 27.2765 37.5299C24.9475 37.0003 23.0626 35.6494 21.6753 33.8681C20.127 31.8802 19.1974 29.3569 18.9604 26.8333C18.6732 23.7751 19.3393 20.7355 20.0285 17.7743C20.7527 14.6629 21.5443 11.5673 22.4638 8.50769C22.4915 8.41559 22.4989 8.32938 22.4909 8.24998C22.7621 8.14394 23.0508 8.17338 23.3381 8.27018C23.863 8.44705 24.3859 8.84589 24.822 9.17511C24.98 9.29435 25.1269 9.40518 25.2589 9.49536C25.7997 9.86465 26.3909 10.1304 27.0519 10.1722C27.7394 10.2155 28.4134 10.0023 29.0378 9.73543C29.355 9.59985 29.6671 9.45922 29.9779 9.31915C30.8631 8.92029 31.7378 8.52537 32.6937 8.26871C33.9745 7.92472 35.2969 7.75528 36.6233 7.76742C38.9907 7.78903 41.3653 8.39715 42.8162 10.3953C43.4039 11.2047 43.7871 12.135 43.4882 13.134C43.3257 13.6774 43.0189 14.1707 42.684 14.6244L42.5691 14.779C42.3854 15.028 42.2259 15.2761 42.1778 15.5402C42.1375 15.7614 42.1689 15.9955 42.3272 16.252C42.4269 16.4135 42.5537 16.5583 42.6812 16.7026C42.7731 16.8068 42.8654 16.9107 42.9447 17.0226C43.1047 17.2482 43.2463 17.4911 43.3573 17.7445C43.5748 18.2406 43.667 18.7742 43.6863 19.3123C43.7097 19.9616 43.6182 20.5967 43.5275 21.2327C43.4631 21.6837 43.3989 22.1352 43.373 22.5921C43.3685 22.6718 43.3929 22.7312 43.4271 22.7752C43.469 22.829 43.5301 22.8629 43.5996 22.8723C43.6207 22.8752 43.6426 22.8756 43.6646 22.8737C43.6538 22.9176 43.6442 22.9618 43.636 23.0061C43.6799 22.9497 43.7267 22.895 43.776 22.8421C43.7792 22.8405 43.7823 22.8389 43.7854 22.8372C43.8363 22.8093 43.8794 22.7668 43.9066 22.712C43.9764 22.6472 44.0504 22.5858 44.1281 22.528C44.532 22.2272 45.0037 22.0489 45.4769 22.043C45.933 22.0373 46.3903 22.1923 46.7419 22.5197C47.4407 23.1703 47.6454 24.2324 47.6527 25.1443C47.6601 26.0752 47.4442 27.1924 46.6309 27.7704C46.3047 28.0022 45.9063 28.1415 45.5049 28.1455C45.1721 28.1489 44.8537 28.0314 44.5403 27.9195C44.4436 27.8849 44.3474 27.8506 44.2514 27.8194C44.1424 27.784 44.043 27.7863 43.9564 27.8122C43.8587 27.8413 43.7759 27.9016 43.714 27.982C43.6523 28.0621 43.6119 28.1623 43.5994 28.2673C43.5872 28.3689 43.6012 28.4744 43.6443 28.5696C43.6551 28.5935 43.6665 28.6168 43.6784 28.6395L43.4995 28.933C42.8146 30.0541 42.1177 31.1547 41.2039 32.1182C40.6793 32.6713 40.1233 33.1932 39.5134 33.65L39.4255 33.7152C39.3728 33.7538 39.3144 33.8013 39.2522 33.8521C39.0743 33.9974 38.8611 34.1921 38.662 34.1998C38.603 34.2021 38.5514 34.1947 38.5045 34.1886C38.3912 34.1737 38.2961 34.1694 38.2026 34.2074C38.1275 34.238 38.0495 34.2952 37.9694 34.4132C37.9152 34.493 37.8874 34.5932 37.8874 34.6948C37.8874 34.7969 37.9155 34.8991 37.9656 34.9798C38.0692 35.1469 38.1946 35.2504 38.3306 35.3092C38.4822 35.3747 38.6498 35.3847 38.824 35.3523C39.253 35.2725 39.7281 34.9178 40.0303 34.6863L40.0888 34.6416C40.7586 34.1317 41.3933 33.5676 41.9513 32.9367C42.9016 31.8623 43.7551 30.5963 44.1935 29.2129C44.5024 29.4155 44.8842 29.5116 45.2833 29.5268C45.8648 29.5488 46.4803 29.3995 46.9338 29.1849C47.9332 28.7119 48.5403 27.8172 48.8248 26.7884C49.1552 25.5936 49.0478 24.22 48.6296 23.1468C48.6174 23.1156 48.6048 23.0845 48.5918 23.0529C49.8794 19.7972 50.2754 16.1819 50.1651 12.7075C50.1135 11.0811 50.0025 9.37482 49.618 7.78868C49.4457 7.07777 49.1463 6.40075 48.6683 5.84106C48.3957 5.52191 48.0613 5.27344 47.7254 5.02566C47.4344 4.81105 47.1423 4.59691 46.8965 4.32895L46.7803 4.20171C46.7551 4.17404 46.73 4.1464 46.7049 4.11881C46.2805 3.65197 45.8673 3.19897 45.3522 2.8161C44.7549 2.37219 44.0958 2.02474 43.4109 1.73617C41.9354 1.11473 40.3474 0.742117 38.7764 0.453843C35.3777 -0.169697 31.8888 -0.200465 28.5317 0.676022C26.9709 1.08348 25.4562 1.64121 23.944 2.19827C23.8036 2.24999 23.6632 2.30171 23.5228 2.35329C22.3476 2.78511 21.1719 3.21509 19.9961 3.64507C19.4496 3.8449 18.9032 4.04473 18.3568 4.24475C18.2382 4.28817 18.1222 4.38169 18.0561 4.49788C17.9916 4.61124 17.9724 4.74344 18.0244 4.87508C18.3597 5.72281 18.7827 6.51814 19.2976 7.26085C19.1187 7.38231 18.9664 7.54384 18.8512 7.7329C18.7056 7.97203 18.6193 8.25512 18.6134 8.55544C18.5938 9.56126 19.5109 10.2431 20.2719 10.7362C20.3428 10.7822 20.413 10.8094 20.4808 10.8218C19.7436 13.6353 19.0378 16.4582 18.438 19.3035L18.3968 19.5008C17.779 22.4786 17.3804 25.5175 17.9647 28.5348C18.4677 31.1331 19.6365 33.6407 21.4628 35.5763C23.2526 37.4734 25.6542 38.6676 28.2526 38.9338ZM44.2427 21.8037C44.5607 20.7967 44.7292 19.701 44.6075 18.6802C44.5309 18.0385 44.3376 17.4208 44.0229 16.8552C43.8426 16.5313 43.6229 16.2314 43.3831 15.949L43.3004 15.8541C43.2585 15.8057 43.2168 15.7612 43.2039 15.7053C43.1964 15.6729 43.2041 15.6374 43.2238 15.595C43.2676 15.5012 43.3489 15.4107 43.4251 15.3224C43.4735 15.2662 43.5208 15.2112 43.5605 15.1576C44.2574 14.2161 44.7771 13.0953 44.6081 11.9014C44.4433 10.7366 43.6784 9.65089 42.8641 8.83265C41.071 7.03092 38.291 6.61689 35.8557 6.71627C34.438 6.77407 33.0226 7.02342 31.6726 7.45899C31.0069 7.67382 30.3559 7.93544 29.7234 8.23531L29.5833 8.30242C29.5077 8.33896 29.4322 8.37591 29.3567 8.41289C28.8622 8.65487 28.3659 8.89921 27.8292 9.03077C26.781 9.28764 26.0699 8.74663 25.3226 8.20103C25.0665 8.01404 24.8064 7.82447 24.53 7.6581L24.4731 7.62453C23.9745 7.33606 23.3781 7.14193 22.8051 7.15064C22.3075 7.1582 21.8273 7.31678 21.4364 7.69154C21.3562 7.76854 21.31 7.85255 21.2883 7.93615C21.245 7.99667 21.2101 8.06882 21.1874 8.15407C21.0474 8.67844 20.908 9.20318 20.769 9.72808L20.6554 9.65502C20.3189 9.43688 19.953 9.18759 19.7878 8.82264C19.7242 8.68217 19.7332 8.44815 19.8133 8.2761C19.8413 8.21598 19.8784 8.16253 19.9296 8.12917C19.9668 8.10489 20.0117 8.0935 20.0638 8.09769C20.1907 8.11399 20.3071 8.09548 20.4059 8.05383C20.5198 8.0058 20.6106 7.92676 20.6695 7.83152C20.7298 7.734 20.7573 7.61934 20.7426 7.50043C20.7299 7.3982 20.6858 7.29142 20.5986 7.1911C20.0245 6.53068 19.541 5.80218 19.1735 5.01143L21.6041 4.11398C22.4708 3.79415 23.3376 3.47472 24.2048 3.15653L24.6796 2.98243C26.2564 2.40522 27.8424 1.84113 29.4823 1.46952C32.7413 0.731047 36.1397 0.904608 39.3897 1.59973L39.586 1.64207C40.9498 1.93885 42.3319 2.29792 43.5837 2.92208C44.1981 3.22842 44.7821 3.60093 45.2837 4.07158C45.5052 4.27942 45.7055 4.50698 45.9058 4.73424C46.1865 5.05271 46.4676 5.37033 46.8014 5.63861L47.1112 5.88621C47.5722 6.25687 47.9879 6.61801 48.248 7.19285C48.5199 7.79382 48.6497 8.45776 48.7557 9.10462C49.0228 10.7342 49.1282 12.3898 49.1181 14.0404C49.1011 16.8118 48.6792 19.5268 48.1462 22.2323C47.7186 21.6215 47.1178 21.148 46.3468 21.047C45.8442 20.9812 45.3458 21.0748 44.9137 21.2966C44.6639 21.4248 44.4363 21.5958 44.2427 21.8037ZM45.0505 25.0946C45.6135 24.8769 46.2047 24.8056 46.8004 24.9097C46.8628 24.9206 46.9223 24.9076 46.9723 24.8786C47.023 24.8492 47.063 24.8027 47.0847 24.7513C47.1098 24.692 47.1111 24.6277 47.0889 24.5706C47.0697 24.5211 47.0331 24.473 46.9658 24.4409C46.3208 24.1337 45.6039 23.9982 44.8923 24.0946L44.822 24.1046C44.4582 24.1584 43.9466 24.2717 43.563 24.4948C43.2616 24.67 43.041 24.9116 42.9861 25.2272C42.9575 25.3916 42.9984 25.5633 43.0934 25.6878C43.1852 25.8081 43.3256 25.8883 43.5073 25.8832C43.8278 25.8741 44.0176 25.7389 44.2459 25.5638C44.2736 25.5426 44.302 25.5208 44.3316 25.4987C44.5522 25.334 44.7933 25.194 45.0505 25.0946Z" fill="black"/>
<path fill-rule="evenodd" clip-rule="evenodd" d="M27.8043 31.5277C28.3707 31.2971 28.8761 30.9125 29.2456 30.4211C29.3741 30.2502 29.4074 30.0699 29.3804 29.9049C29.3501 29.7194 29.2402 29.5512 29.0902 29.4384C28.9397 29.3253 28.7515 29.2695 28.5696 29.2979C28.4115 29.3227 28.2541 29.409 28.1296 29.5882L28.1035 29.624C27.8839 29.9206 27.5976 30.164 27.2715 30.3208C26.9571 30.472 26.6055 30.5425 26.2417 30.5015C25.5487 30.4234 25.0711 30.0494 24.5635 29.5415C24.5006 29.4774 24.4376 29.4113 24.3743 29.3441C24.3344 29.2832 24.2789 29.244 24.2173 29.2235C24.149 29.2007 24.0717 29.202 24.0008 29.2266C23.9325 29.2504 23.8715 29.2955 23.8305 29.3555C23.7916 29.4125 23.7695 29.483 23.7767 29.564C23.8232 30.0903 24.0989 30.5601 24.4906 30.9289C24.9255 31.3386 25.5022 31.6219 26.045 31.7213C26.6431 31.8308 27.2525 31.7524 27.8043 31.5277ZM25.7629 23.408C25.1266 23.794 24.1571 24.694 24.8416 25.6509C25.6473 26.4946 26.8073 25.5272 27.379 25.0897C27.9091 24.7507 28.5046 25.6227 28.0128 26.0187C23.8821 29.0707 22.2057 23.5089 25.4411 22.9542C25.7973 22.8931 25.9296 23.2886 25.7629 23.408ZM33.1652 19.8577C33.0949 18.9868 31.7659 18.789 31.6337 19.6508C31.5153 20.4228 31.6547 21.1319 32.0031 21.8269C32.336 22.4909 33.1728 22.1811 33.2361 21.5765C33.3209 20.766 33.209 20.3994 33.1652 19.8577ZM23.0486 19.4721C22.8633 19.2299 22.5958 19.0646 22.2753 19.158C21.2738 19.4501 21.569 20.8689 21.9207 21.5596C22.1118 21.9346 22.7295 22.0297 23.0087 21.6995C23.4637 21.161 23.6816 20.0856 23.1031 19.5551C23.0875 19.5277 23.07 19.5 23.0486 19.4721ZM32.0172 16.047L31.859 16.0194C31.3697 15.9349 30.7612 15.8538 30.415 16.2464C30.2314 16.4546 30.1682 16.8416 30.415 17.0409C30.8491 17.3916 31.3291 17.2557 31.8493 17.2854C32.278 17.3099 32.69 17.3807 33.103 17.4985C34.009 17.7569 34.7472 18.2287 35.5209 18.7467C35.6225 18.8146 35.7261 18.685 35.6777 18.5903C35.231 17.7172 34.3654 17 33.4983 16.5628C33.0356 16.3294 32.5292 16.1358 32.0172 16.047ZM23.9615 15.6559L23.8404 15.6807C22.5228 15.9555 20.811 16.5046 20.187 17.7961C20.1632 17.9788 20.1884 18.0179 20.2088 18.0435L20.2156 18.052C20.2324 18.0738 20.2459 18.104 20.3252 18.1288C20.3472 18.1236 20.3694 18.118 20.3919 18.1122C20.6779 18.0374 20.9042 17.9343 21.1233 17.8274L21.3608 17.7106C21.6364 17.5757 21.9144 17.4458 22.209 17.3499C22.8378 17.1452 23.4845 17.001 24.1412 16.924C24.2836 16.9074 24.4207 16.8594 24.5288 16.7773C24.6314 16.6993 24.7099 16.5913 24.7456 16.4477C24.792 16.262 24.7786 16.1213 24.6788 15.9538C24.6037 15.8279 24.4962 15.7407 24.3728 15.6906C24.2471 15.6395 24.1039 15.6275 23.9615 15.6559Z" fill="black"/>
<path fill-rule="evenodd" clip-rule="evenodd" d="M15.9783 17.0058C16.0476 16.9942 16.1171 16.9834 16.1865 16.9732C16.2407 16.9425 16.3043 16.9189 16.3783 16.9047C16.5472 16.8619 16.715 16.833 16.8825 16.8175C19.2866 16.2775 24.8484 17.0442 25.0779 19.0916C25.8435 19.3467 26.5059 19.1183 27.3933 19.141C28.0687 16.3235 39.7457 16.7212 40.3073 18.4198C40.3094 18.4192 40.3116 18.4187 40.3137 18.4181C40.8533 18.2514 41.6489 18.2916 42.2665 18.2652C43.5852 18.2376 44.9055 18.3549 46.1958 18.6325C48.612 19.0157 51.9095 19.4643 50.2291 22.4754C50.2287 22.4759 50.2285 22.4765 50.2281 22.477L50.2278 22.4768C49.9382 22.773 49.4467 22.5344 49.4284 22.1334C49.9934 20.7069 48.7174 20.5356 47.7356 20.1257C45.2926 19.2498 42.8054 19.1284 40.2788 19.3993C40.0887 19.6226 39.8003 19.8174 39.4954 19.9193C37.8061 20.1992 38.6964 21.4498 37.6285 21.6316C37.8247 25.991 32.5213 28.3706 29.4484 25.5049C28.2215 24.3078 27.929 22.5344 27.6445 20.936C27.4941 20.9022 27.3985 20.8202 27.3426 20.7115C26.9809 20.3511 26.7536 20.0183 26.0384 19.9193C25.3231 19.8204 24.7724 20.019 24.698 20.0798C24.6792 20.1175 24.659 20.1554 24.6356 20.1932C24.6029 20.2496 24.5584 20.2946 24.5079 20.33C25.2142 24.6711 21.8373 27.4165 18.4282 25.1649C16.9469 23.7743 16.6339 21.6453 16.5721 19.7451C16.3713 19.6242 16.2441 19.3898 16.3136 19.0951C16.4094 18.689 16.1848 18.3373 15.827 18.1607C15.3622 17.9314 15.4444 17.094 15.9783 17.0058ZM30.6267 19.0652C31.0499 18.9723 31.2306 19.6234 30.8061 19.7166C30.5055 19.7825 30.2507 19.9338 30.0786 20.1901L30.0605 20.218C29.8295 20.5847 29.2455 20.2462 29.478 19.877C29.7397 19.4616 30.1463 19.1706 30.6267 19.0652ZM18.2332 18.6615C18.3824 18.5566 18.6081 18.6345 18.6947 18.7827C18.79 18.9459 18.7276 19.1276 18.5878 19.2343L18.5736 19.2447C18.4455 19.3349 18.3207 19.4964 18.305 19.662L18.3036 19.6827C18.2868 20.116 17.6121 20.1181 17.629 19.6827C17.6454 19.2567 17.8926 18.9008 18.2332 18.6615Z" fill="black"/>
</svg>
