<svg width="99" height="150" viewBox="0 0 99 150" fill="none" xmlns="http://www.w3.org/2000/svg">
<path fill-rule="evenodd" clip-rule="evenodd" d="M96.0067 135.331C96.3915 138.86 97.2631 142.747 95.6016 146.077C96.648 146.123 95.7991 146.426 95.2344 146.53C94.912 146.78 94.4786 146.879 94.071 146.844C91.9551 147.292 89.7707 147.454 87.6222 147.707C60.7976 149.936 33.7931 149.344 6.9183 148.383C6.04423 148.346 5.45779 147.71 5.39082 146.855C4.40584 134.265 3.91565 121.636 3.94071 109.008C4.37833 104.57 1.02534 106.301 2.81398 100.453C4.25187 94.2853 6.38005 88.2814 9.0939 82.5604C10.9698 78.8377 12.7373 74.9205 15.5965 71.8333C16.5001 71.7085 17.2693 70.8107 18.0328 70.3093C18.8061 70.1586 19.3793 69.5017 20.163 69.2997C21.6566 68.911 24.9989 68.0845 26.2709 69.0786C26.3211 69.0648 26.372 69.0531 26.4223 69.0388C26.6712 69.315 27.0132 69.1079 27.1989 68.8597C27.8345 68.3662 30.6124 68.3154 30.9276 67.5579C32.5712 66.0664 33.0109 62.9276 33.0109 61.0912C33.6255 60.4004 33.668 60.5287 34.5023 60.1636C35.3202 59.1315 36.3083 58.2325 37.4111 57.5239C43.6175 53.4471 52.6239 57.7429 54.0768 64.8289C56.3736 66.6482 58.7378 68.4963 61.551 69.4442C62.9238 68.7377 64.4878 68.5122 65.9448 68.5108C67.031 68.4713 68.5318 67.843 69.2377 68.9865C81.1126 72.8754 88.2795 84.186 93.3756 94.9028C94.0899 96.4287 94.9445 98.0263 94.7259 99.7647C94.5756 101.847 92.317 103.086 92.7438 105.292C93.3642 111.362 94.0699 117.425 94.7157 123.492C95.1461 127.439 95.5764 131.385 96.0067 135.331Z" fill="white"/>
<path fill-rule="evenodd" clip-rule="evenodd" d="M9.1329 106.378C9.90068 106.656 10.9769 106.927 11.526 107.555C11.5892 106.97 11.6532 106.384 11.7175 105.799C10.1086 105.761 8.49633 105.747 6.8866 105.702C7.64642 105.888 8.39737 106.111 9.1329 106.378ZM12.6676 143.207C13.2213 143.212 13.7768 143.25 14.33 143.272C15.3957 143.313 16.4614 143.354 17.5273 143.394C19.7015 143.476 21.8756 143.554 24.0501 143.63C28.3561 143.78 32.6626 143.918 36.9694 144.045C45.583 144.298 54.201 144.452 62.8135 144.741C65.2028 144.822 67.592 144.884 69.9792 145.014C71.2162 145.082 72.459 145.14 73.6901 145.283C74.7287 145.404 75.7525 145.608 76.7853 145.76C76.716 144.414 76.6511 143.067 76.5836 141.721C76.5197 140.447 76.4601 139.174 76.4009 137.9C72.3693 138.111 68.3329 138.196 64.296 138.232C60.0257 138.27 55.7568 138.376 51.4863 138.384C43.032 138.401 34.577 138.295 26.123 138.21C23.732 138.186 21.3407 138.162 18.9496 138.138C17.7541 138.126 16.5585 138.114 15.363 138.102C14.7661 138.096 14.1658 138.108 13.5696 138.084C12.9331 138.057 12.5467 137.876 12.0848 137.448C11.8384 137.219 11.8281 136.754 12.0848 136.527C12.4554 136.2 12.7995 135.949 13.3133 135.912C13.8179 135.876 14.3444 135.925 14.8505 135.932C15.9607 135.947 17.0709 135.961 18.181 135.976C20.316 136.004 22.4509 136.032 24.5859 136.06C28.8559 136.116 33.1259 136.174 37.3956 136.239C41.5802 136.303 45.7653 136.35 49.9492 136.455C54.2211 136.563 58.488 136.757 62.7589 136.895C67.3049 137.041 71.8486 137.215 76.3844 137.556C76.2754 135.195 76.1751 132.833 76.0806 130.471C67.0745 130.962 58.0622 131.311 49.041 131.326C39.6425 131.342 30.2446 131.182 20.8495 130.936C19.5256 130.902 18.2017 130.867 16.8781 130.825C16.1949 130.804 15.5117 130.784 14.8284 130.759C14.3262 130.741 13.81 130.719 13.356 130.479C12.4599 130.005 12.3053 128.62 13.3684 128.242C13.9496 128.035 14.5661 128.237 14.7075 128.761C14.7509 128.765 14.7923 128.769 14.8284 128.77C15.3409 128.789 15.8534 128.804 16.3657 128.82C17.476 128.855 18.5862 128.891 19.6964 128.926C21.7462 128.99 23.7961 129.05 25.8462 129.104C30.0316 129.215 34.2175 129.305 38.4038 129.375C46.6922 129.513 54.9799 129.641 63.2672 129.83C67.5348 129.928 71.8012 130.055 76.0684 130.163C75.9665 127.595 75.8702 125.028 75.7834 122.46C75.7733 122.159 75.7622 121.858 75.7513 121.557C75.1398 121.692 74.5137 121.766 73.8907 121.854C72.8097 122.007 71.7254 122.121 70.6398 122.235C68.5942 122.451 66.542 122.584 64.4889 122.697C60.3031 122.928 56.1161 123.091 51.9259 123.218C43.6372 123.471 35.3382 123.526 27.0462 123.498C22.5434 123.482 18.0133 123.542 13.5128 123.345C13.2354 123.421 12.9496 123.413 12.6731 123.323C12.4462 127.337 12.2065 131.35 11.9709 135.363C11.8119 138.071 11.6717 140.788 11.4765 143.497C11.8578 143.309 12.2088 143.203 12.6676 143.207ZM90.6969 102.427C91.4865 102.04 92.3574 101.688 93.0545 101.14C93.8165 100.541 94.0036 99.8387 93.7695 98.8993C93.752 98.8291 93.7314 98.7593 93.7132 98.6894C88.098 98.7031 82.497 98.4559 76.8842 98.3225C71.1817 98.1872 65.4813 98.0734 59.7773 98.0412C48.4018 97.9772 37.0276 98.2338 25.6575 98.5533C21.5627 98.6683 17.468 98.7817 13.3731 98.8935C13.4665 99.8923 13.4305 100.916 13.4517 101.907C13.4704 102.778 13.4655 103.651 13.4525 104.523C15.5947 104.518 17.7364 104.471 19.8788 104.447C25.1828 104.387 30.4839 104.54 35.7865 104.661C46.3914 104.904 56.9992 105.095 67.6021 105.414C70.4818 105.501 73.3801 105.547 76.2731 105.67C76.3726 105.199 76.483 104.731 76.6075 104.266C76.8054 103.527 77.0288 102.767 77.6207 102.254C77.6491 102.229 77.6884 102.24 77.7011 102.275C77.9259 102.898 77.8691 103.533 77.8033 104.186C77.7512 104.702 77.716 105.219 77.6899 105.737C79.4888 105.831 81.284 105.964 83.0698 106.164C83.5804 105.911 84.0913 105.66 84.603 105.409C86.634 104.414 88.6656 103.421 90.6969 102.427ZM25.507 120.983C29.6967 121.017 33.8866 121.021 38.0761 120.994C46.3692 120.94 54.6596 120.736 62.9509 120.572C65.2585 120.526 67.563 120.481 69.871 120.48C71.0658 120.48 72.2647 120.488 73.4582 120.54C74.2094 120.573 74.9711 120.578 75.7188 120.668C75.6286 118.251 75.5346 115.832 75.5376 113.415C67.6276 114.613 59.6327 114.942 51.6446 115.178C43.5518 115.417 35.457 115.541 27.3607 115.553C25.0598 115.556 22.7588 115.551 20.4581 115.537C19.3503 115.531 18.2425 115.522 17.1348 115.512C16.5393 115.506 15.9403 115.518 15.3454 115.493C14.7162 115.467 14.3362 115.318 13.8968 114.87C13.6719 114.641 13.6604 114.246 13.8968 114.018C14.6812 113.261 15.6039 113.425 16.6235 113.438C17.646 113.451 18.6685 113.461 19.6912 113.471C21.7362 113.489 23.7815 113.501 25.8268 113.506C29.8319 113.517 33.8371 113.501 37.8421 113.46C45.9363 113.377 54.0288 113.197 62.1211 113.008C66.595 112.903 71.0679 112.932 75.5381 113.149C75.5398 112.747 75.5435 112.346 75.5513 111.945C75.5808 110.424 75.7288 108.904 75.9604 107.401C73.7696 107.393 71.579 107.346 69.3981 107.318C64.095 107.25 58.793 107.143 53.4904 107.037C48.2306 106.932 42.9707 106.826 37.7109 106.72C32.4543 106.615 27.1816 106.607 21.9314 106.324C19.098 106.17 16.2636 105.962 13.4281 105.853C13.4226 106.113 13.417 106.373 13.4115 106.634C13.3432 109.828 13.2185 113.019 13.0574 116.21C12.9801 117.744 12.8984 119.277 12.8145 120.81C12.8551 120.806 12.8966 120.803 12.9393 120.803C17.1256 120.775 21.3199 120.949 25.507 120.983ZM91.8028 93.241C91.3232 92.0065 90.8022 90.7803 90.239 89.5707C87.848 90.2458 85.2975 90.5941 82.8299 90.8259C80.2029 91.0729 77.5708 91.2116 74.933 91.2655C69.7328 91.3717 64.5326 91.125 59.3379 90.9103C48.6532 90.4689 37.9694 90.1466 27.2747 90.1259C24.288 90.1199 21.3014 90.1338 18.315 90.1675C16.8218 90.1844 15.3286 90.2045 13.8356 90.2301C13.0677 90.2434 12.2999 90.2579 11.532 90.2737C11.1921 90.2807 10.848 90.3059 10.5083 90.2956C10.054 90.2818 9.72217 90.1451 9.30049 89.9807C8.81635 89.7921 8.53078 88.9823 9.13496 88.714C9.73849 88.4458 10.2228 88.2887 10.8922 88.2742C11.6173 88.2586 12.3426 88.2442 13.0677 88.2308C14.3902 88.2067 15.7127 88.1864 17.0351 88.1699C19.7228 88.1363 22.4108 88.1222 25.0987 88.1226C30.3893 88.1232 35.6798 88.1858 40.9689 88.3103C51.5873 88.5601 62.1819 89.3006 72.7965 89.6183C75.7221 89.7059 78.6533 89.723 81.5791 89.6352C84.413 89.5502 87.2409 89.3116 90.0713 89.2112C89.0936 87.1494 87.9874 85.1415 86.7392 83.2324C82.0208 83.3982 77.3126 83.2756 72.5932 83.1318C70.1167 83.0564 67.6402 82.9799 65.164 82.8949C63.9258 82.8524 62.6877 82.81 61.4495 82.7676C60.8517 82.747 60.254 82.7266 59.6562 82.7061C59.0123 82.684 58.3346 82.7257 57.7093 82.5563C57.596 82.5256 57.5061 82.46 57.4383 82.3765C55.7737 83.2331 54.0131 83.9089 52.2026 84.4097C48.2727 85.4968 44.0459 85.9046 39.9814 85.5701C36.7196 85.3016 33.4689 84.4939 30.6011 82.9125C24.1245 83.5089 17.5572 83.2286 11.0669 83.1862C10.4468 83.1822 10.1888 82.6139 10.2925 82.1452C8.20961 86.6358 6.8298 91.5041 5.53829 96.2394C4.73581 99.1823 4.022 102.144 3.34251 105.115C3.37078 105.118 3.39893 105.121 3.42708 105.123C3.3483 104.798 3.52539 104.414 3.97098 104.404C6.59769 104.343 9.23289 104.494 11.8606 104.519C11.9345 103.861 12.0084 103.203 12.0863 102.546C12.1927 101.651 12.3195 100.758 12.4278 99.8623C12.467 99.5377 12.5035 99.2242 12.5481 98.9159C10.4676 98.9725 8.38722 99.0297 6.30672 99.0846C4.95648 99.1203 4.95892 97.0285 6.30672 96.9873C17.7394 96.6371 29.1727 96.2833 40.6093 96.0891C52.0528 95.8947 63.5358 95.7749 74.9706 96.3618C81.2019 96.6815 87.4178 97.109 93.5717 98.1635C93.0937 96.4949 92.4269 94.8474 91.8028 93.241ZM82.0713 77.3462C81.8643 77.5016 81.798 77.5995 81.4885 77.6539C81.1529 77.7127 80.8079 77.7314 80.4691 77.7646C79.7442 77.8356 79.0176 77.8621 78.2903 77.8965C76.838 77.9656 75.3858 78.0386 73.9325 78.0828C71.0476 78.1704 68.1008 78.2945 65.2172 78.1661C64.5118 78.1348 64.1908 77.5529 64.255 77.0226C63.7142 77.6926 63.1228 78.3216 62.4931 78.895C61.4806 79.8167 60.3876 80.6338 59.2355 81.3548C59.9829 81.3822 60.744 81.476 61.4495 81.5063C62.645 81.5575 63.8405 81.6088 65.036 81.6602C67.5553 81.7685 70.0743 81.8847 72.5932 82.0025C77.255 82.2204 81.9009 82.4917 86.545 82.9365C85.2187 80.9425 83.733 79.0616 82.0713 77.3462ZM6.19633 87.0319C8.16604 81.6232 10.7055 76.0047 15.2754 72.2898C17.6244 70.3802 20.2414 69.0593 23.2051 68.4335C23.2961 68.4143 23.3323 68.5439 23.2435 68.573C18.1183 70.2551 14.3255 74.706 11.7599 79.2675C11.295 80.0941 10.8642 80.9405 10.4568 81.7996C10.5894 81.6378 10.7924 81.5302 11.0669 81.5348C17.1274 81.6367 23.2593 81.5339 29.3062 82.1263C29.1519 82.0234 28.9975 81.9207 28.8461 81.8126C27.1942 80.6348 25.7079 79.1938 24.4792 77.5617C23.7392 77.7494 22.9601 77.7952 22.205 77.8671C21.1973 77.9629 20.1826 78.0067 19.1717 78.0611C18.1623 78.1152 17.149 78.1204 16.1385 78.1448C15.4439 78.1616 14.0864 78.277 14.0856 77.2142C14.0848 76.1503 15.4438 76.2629 16.1385 76.2768C17.1491 76.2967 18.1619 76.2997 19.1717 76.3471C20.1397 76.3924 21.1135 76.429 22.0787 76.5157C22.6675 76.5685 23.2732 76.6032 23.8652 76.6968C22.9019 75.259 22.135 73.6929 21.6231 72.041C21.5716 71.8748 21.5546 71.7194 21.5631 71.5756C21.3459 71.3463 21.2073 71.0322 21.2073 70.7445C21.2073 70.0602 21.7403 69.6593 22.3633 69.588C24.8288 69.306 27.5452 68.9042 29.5322 67.2826C30.4289 66.5507 31.1501 65.6856 31.829 64.7546C32.5917 63.7082 32.8777 62.3898 32.8807 61.1088C32.8808 61.037 32.9999 61.0152 33.0108 61.0912C33.3842 63.6882 32.8457 66.6528 30.9825 68.5986C29.1532 70.5091 26.6682 71.2247 24.1465 71.6427C25.1862 74.6136 26.9024 77.2232 29.3118 79.2753C31.9966 81.562 35.3952 82.7849 38.8601 83.2465C42.5983 83.7445 46.5162 83.5024 50.1923 82.6895C53.7336 81.9063 57.1978 80.5056 60.08 78.2704C61.534 77.1426 62.8717 75.8132 64.0373 74.3904C64.9992 73.2161 65.7368 71.9066 66.5626 70.6487C63.4818 71.4937 59.757 70.3394 57.1764 68.7088C55.6564 67.7486 54.3248 66.5498 53.2308 65.1237C52.6913 64.4203 52.2113 63.6778 51.8154 62.8839C51.6095 62.4709 51.4245 62.0461 51.2542 61.6173C51.1489 61.3525 51.0457 61.0804 51.0457 60.7892C51.0463 60.5747 51.1003 60.3749 51.2078 60.1898C51.4286 59.9554 51.4725 59.8875 51.3396 59.9858C51.5564 59.5417 52.1832 59.4289 52.5842 59.6593C52.7337 59.7453 53.0852 59.9118 53.2581 60.1898C53.3749 60.3778 53.4377 60.6025 53.5125 60.8087C53.6306 61.1343 53.7497 61.4561 53.898 61.7696C54.2424 62.4978 54.6555 63.1928 55.1266 63.8461C55.9879 65.0403 57.0948 66.1202 58.3006 66.9629C59.5664 67.8476 60.9306 68.5709 62.4103 69.0225C63.9731 69.4994 65.52 69.6419 67.1324 69.8166C67.1497 69.7927 67.1664 69.7686 67.1836 69.7448C67.2147 69.7019 67.2819 69.7158 67.2846 69.7722C67.2859 69.7992 67.2852 69.8261 67.286 69.8531C67.5159 69.961 67.535 70.2851 67.2788 70.4096C67.1838 71.9016 66.5402 73.3711 65.8389 74.6623C65.5467 75.2001 65.2167 75.7212 64.8591 76.2246C64.9649 76.1842 65.0838 76.1586 65.2172 76.1535C68.1019 76.0429 71.0478 76.1854 73.9325 76.2909C75.3433 76.3426 76.7525 76.4217 78.1621 76.4973C78.8886 76.5361 79.617 76.5609 80.3409 76.6361C80.703 76.6738 81.0672 76.7034 81.4273 76.7576C81.4534 76.7616 81.4777 76.7657 81.5006 76.7699C80.6097 75.8921 79.6706 75.0606 78.6792 74.2848C75.4268 71.7396 71.6915 69.6659 67.706 68.5381C67.6682 68.5274 67.6738 68.4627 67.7155 68.4671C75.6425 69.278 82.2455 74.2752 86.8645 80.5496C89.4275 84.0312 91.3714 87.8854 93.0441 91.8596C93.8872 93.8629 94.6849 95.9018 95.353 97.9709C95.6925 99.0224 95.8456 100.138 95.3593 101.169C94.9863 101.961 94.2981 102.549 93.5767 103.016C93.5287 103.048 93.4794 103.076 93.4309 103.107C94.1684 105.677 94.6624 108.314 95.1364 110.944C95.6513 113.8 96.1005 116.668 96.4863 119.545C97.2574 125.294 97.8481 131.056 98.106 136.853C98.1774 138.457 98.225 140.061 98.2459 141.666C98.2563 142.469 98.2517 143.272 98.2407 144.075C98.2282 144.973 98.3498 145.987 97.8927 146.789C97.2818 147.86 96.0954 147.491 95.5736 146.758C95.5661 146.768 95.5582 146.779 95.5505 146.789C95.5032 146.695 95.4636 146.603 95.4298 146.51C95.3737 146.386 95.337 146.257 95.3237 146.125C95.2254 145.628 95.2624 145.123 95.2664 144.582C95.2721 143.821 95.2678 143.061 95.2656 142.3C95.2613 140.864 95.245 139.429 95.2041 137.993C95.1223 135.122 94.9624 132.254 94.7438 129.391C94.3094 123.703 93.6686 118.041 93.1202 112.364C92.841 109.474 92.5043 106.576 92.4462 103.67C91.7693 104.026 91.0708 104.35 90.3951 104.694C89.1415 105.332 87.8881 105.97 86.6346 106.609C85.4189 107.228 84.2015 107.843 82.9835 108.458C81.7553 109.078 80.5354 109.897 79.1537 110.05C78.415 110.131 78.1477 109.136 78.5829 108.671C79.1512 108.064 79.9059 107.687 80.6646 107.333C79.6566 107.37 78.6473 107.39 77.6375 107.398C77.6236 108.669 77.6685 109.942 77.7322 111.211C77.889 114.321 78.107 117.426 78.3134 120.534C78.7424 126.994 79.1576 133.457 79.4816 139.923C79.5609 141.507 79.6404 143.09 79.7198 144.674C79.7583 145.444 79.8119 146.215 79.8338 146.985C79.8582 147.85 79.837 148.934 79.0372 149.467C78.4722 149.844 77.8642 149.667 77.4401 149.148C76.8729 148.455 76.8738 147.451 76.8282 146.6C76.8177 146.404 76.8083 146.207 76.7981 146.01C75.9319 146.123 75.072 146.278 74.202 146.363C73.1394 146.466 72.0701 146.527 71.0028 146.555C68.8266 146.611 66.6538 146.631 64.4769 146.631C60.1689 146.631 55.8613 146.557 51.5539 146.488C42.9389 146.349 34.3248 146.107 25.7128 145.84C23.3252 145.766 20.9378 145.688 18.5504 145.607C17.3142 145.565 16.0779 145.522 14.8416 145.478C13.6714 145.436 12.393 145.588 11.363 144.98C11.3332 145.35 11.3028 145.72 11.2703 146.089C11.2085 146.79 10.7164 147.391 9.96906 147.391C9.26682 147.391 8.66328 146.795 8.66779 146.089C8.93009 139.701 9.49777 133.313 9.94746 126.936C10.3604 121.079 10.7475 115.213 11.3381 109.37C11.1705 109.478 10.9657 109.545 10.7243 109.546C9.95274 109.549 9.18264 109.071 8.46087 108.816C7.73254 108.56 6.99226 108.337 6.24195 108.155C5.79778 108.047 5.35181 107.957 4.90443 107.88C4.95853 108.794 4.94466 109.717 4.96162 110.628C4.98772 112.028 5.03115 113.428 5.06521 114.828C5.13216 117.586 5.15594 120.345 5.20864 123.103C5.3148 128.665 5.48959 134.223 5.78673 139.777C5.86834 141.304 5.9601 142.829 6.06202 144.354C6.11574 145.159 6.17229 145.964 6.2318 146.768C6.29002 147.559 6.42625 148.399 6.12872 149.157C6.11921 149.152 6.10983 149.146 6.10045 149.141C5.89288 149.794 4.98051 150.107 4.54945 149.364C3.87768 148.206 4.03254 146.546 3.95543 145.244C3.87253 143.846 3.79825 142.448 3.73244 141.049C3.60084 138.251 3.50958 135.453 3.45663 132.652C3.35073 127.05 3.36874 121.44 3.71111 115.846C3.8048 114.317 3.93589 112.79 4.07046 111.264C4.17134 110.12 4.227 108.945 4.40538 107.8C3.53298 107.671 2.65377 107.597 1.76608 107.575C0.906906 107.553 0.352844 106.778 0.534966 105.958C1.96116 99.5311 3.94528 93.2136 6.19633 87.0319Z" fill="black"/>
<path fill-rule="evenodd" clip-rule="evenodd" d="M13.5728 32.9997C14.7489 26.5841 17.6489 20.4796 22.1025 15.7033C22.6165 15.1362 23.0783 14.2416 23.8625 14.0986C24.6497 12.4939 26.1502 11.3595 27.3497 10.0637C29.9678 7.45226 32.4726 4.53407 35.8495 2.88501C51.5123 -3.55924 66.5848 14.8157 69.7833 28.6347C72.9603 39.748 69.4905 55.0786 55.723 55.5283C53.7753 58.1054 51.0876 59.8892 48.3269 61.4823C44.5567 63.8972 40.444 64.8774 36.0823 63.5336C31.7384 64.6691 27.2354 61.0251 24.6249 57.8294C22.5615 55.354 21.1472 52.3329 19.2599 49.7706C17.0317 49.715 15.1062 47.8275 14.8079 45.6152C12.7268 41.7893 12.8214 37.2047 13.5728 32.9997Z" fill="white"/>
<path fill-rule="evenodd" clip-rule="evenodd" d="M47.6896 0.701594C44.8396 0.0354656 41.8509 0.173551 39.0279 0.905637C33.4327 2.35682 28.829 6.13052 25.0118 10.338C21.2884 14.442 18.2179 19.1467 15.9753 24.2149L15.8617 24.4727C14.2754 28.0855 12.897 31.8407 12.8379 35.8187C12.787 39.2424 13.1327 42.8092 14.2384 46.0657C15.2233 48.9667 17.0351 51.8899 20.1521 52.5853C21.9495 57.1558 25.4658 61.1137 29.8953 63.2315C32.6426 64.5452 35.6596 65.1316 38.6971 64.84C41.7961 64.5427 44.6908 63.0531 47.1128 61.1534C47.1792 61.1014 47.0937 61.0004 47.0252 61.0398C44.1092 62.7209 40.6605 63.3218 37.3205 63.2112C31.8316 63.0297 26.7996 60.066 23.9082 55.4075C23.1887 54.248 22.5476 53.025 22.0362 51.7528C22.0662 51.6482 22.0835 51.5421 22.0835 51.4387C22.0835 51.0004 21.8756 50.6655 21.5653 50.4491C21.4215 49.9995 21.2943 49.5447 21.188 49.0848C20.947 48.0431 20.8126 46.9864 20.7315 45.9212C20.6657 45.0558 20.7022 44.1377 20.6153 43.2501C20.6469 42.539 20.6909 41.8285 20.7553 41.1196C20.9626 38.8351 21.3818 36.5563 22.1893 34.4033C23.0073 32.2224 24.2992 30.2993 25.9291 28.6439C29.4251 25.0936 33.7779 22.5013 37.1774 18.854L37.3554 18.6611L37.3675 18.6572C37.7893 19.0899 38.2109 19.5225 38.6336 19.9543L40.5648 21.9249C44.5065 25.9512 48.4162 30.0167 51.8453 34.4971C53.8198 37.0772 55.5938 39.7817 57.1223 42.6496C57.8461 44.0079 58.5024 45.4 59.0956 46.8202L59.3291 47.3856C59.6068 48.0622 59.907 48.8195 60.0737 49.5835C59.5776 50.0759 59.2148 50.7993 58.8136 51.3581C58.3585 51.9918 57.8336 52.5951 57.2936 53.1581C56.747 53.7281 56.1474 54.2743 55.511 54.7425L55.4345 54.7977C54.7043 55.3161 53.8661 55.6741 53.7565 56.661C53.709 57.0896 54.092 57.4343 54.4466 57.5677C55.4173 57.9325 56.4228 56.8846 57.0698 56.2819C57.4732 55.9059 57.8442 55.5008 58.1881 55.073C58.5229 55.121 58.8599 55.145 59.1934 55.1054C59.7102 55.044 60.2219 54.9536 60.7253 54.8212C64.9007 53.7245 67.9913 50.2569 69.6587 46.395C71.8973 41.2102 71.8452 35.2336 70.9146 29.7508C69.2142 19.7312 63.7106 10.374 55.4003 4.45009C53.0729 2.79101 50.4921 1.35654 47.6896 0.701594ZM43.1909 2.04195C48.5595 1.75897 53.4541 4.52839 57.3811 7.97578C64.5312 14.2526 68.9354 23.4429 69.8214 32.8805C70.2922 37.8947 69.9399 43.2995 67.3263 47.7297C66.3123 49.4486 65.0063 50.9463 63.4646 52.2091C62.012 53.3993 60.3561 54.0852 58.5859 54.5519C58.6664 54.4409 58.746 54.329 58.8234 54.2155C59.2351 53.6123 59.5622 52.9713 59.8362 52.2996C59.8604 52.3238 59.9059 52.3287 59.9328 52.2918C61.0501 50.7581 60.7004 48.928 60.1678 47.2414C59.6094 45.4724 58.9016 43.751 58.0939 42.0813C55.1496 35.9963 50.7703 30.6951 46.2246 25.7483C43.903 23.222 41.5044 20.7689 39.1146 18.3074C37.9212 17.0783 36.731 15.8455 35.5558 14.5986C34.9709 13.9779 34.3896 13.3539 33.8135 12.725C33.2439 12.1031 32.7314 11.4444 32.0222 10.9786C31.4568 10.6074 30.8925 11.3168 31.1567 11.8445C31.5631 12.6561 32.2621 13.2995 32.8805 13.9594L32.9442 14.0278C33.5471 14.6789 34.1557 15.3247 34.7678 15.967C35.4718 16.7058 36.1814 17.4395 36.8932 18.1714C36.2861 18.101 35.6719 18.0605 35.0685 17.9689C34.2491 17.8444 33.4407 17.6611 32.6364 17.4617C31.7888 17.2517 30.9521 16.9836 30.1446 16.6504C29.386 16.3374 28.669 15.836 27.8342 15.7869C27.1276 15.7452 26.9069 16.6204 27.2984 17.081C27.838 17.7156 28.808 17.9654 29.5968 18.201L29.7082 18.2346C30.5807 18.501 31.4735 18.701 32.376 18.8345C33.5634 19.0104 34.9358 19.0909 36.2062 18.9109C33.6692 20.399 31.3347 22.2432 29.0067 24.0418L28.596 24.3586C26.3215 26.1092 24.1017 27.9964 22.48 30.3916C20.9663 32.6276 20.0523 35.2307 19.5393 37.8684C19.2863 39.1697 19.1193 40.4847 19.0073 41.8052C18.5897 42.976 18.6567 44.368 18.7619 45.6557L18.7994 46.1002L18.7966 46.2305C18.7809 47.0359 18.4574 48.8291 19.2193 49.4372C19.2323 49.502 19.2444 49.5672 19.258 49.632C19.1632 49.5734 19.0695 49.5131 18.9765 49.4511C18.9384 49.4255 18.9014 49.3974 18.864 49.3697L18.7587 49.2832C18.7547 49.2799 18.7512 49.2769 18.7484 49.2745C18.5119 49.0668 18.2864 48.8501 18.0761 48.6157C17.6876 48.1825 17.3182 47.6321 16.9684 46.998C16.1997 45.6043 15.7086 44.0892 15.3289 42.5227C14.6346 39.6587 14.3481 36.5827 14.6648 33.6456C14.709 33.2356 14.7997 32.7215 14.9405 32.1941C15.2746 30.9419 15.659 29.7028 16.0894 28.4805C16.9504 26.0352 18.0058 23.6629 19.2364 21.3815C21.7356 16.7478 24.9512 12.4638 28.804 8.86884C32.7058 5.22808 37.7658 2.32789 43.1909 2.04195ZM50.7619 16.8469C50.5684 16.7286 50.3691 16.9584 50.4652 17.1438C50.93 18.0411 51.7117 18.7986 52.361 19.5675C53.0333 20.3636 53.7007 21.1641 54.3664 21.9657C55.7221 23.598 57.0452 25.2601 58.3161 26.9593L58.6516 27.4088C59.769 28.9093 60.8728 30.4336 61.8496 32.0279C62.3606 32.8619 62.8109 33.7245 63.2198 34.6128C63.6091 35.4584 63.7887 36.4791 64.2565 37.2735C64.2859 37.3236 64.3772 37.3195 64.3885 37.2561C64.5412 36.4008 64.164 35.3707 63.8945 34.5699C63.5741 33.6174 63.1181 32.7102 62.6299 31.834C61.6118 30.0062 60.3919 28.293 59.1663 26.6005C57.9216 24.8819 56.6293 23.1984 55.2735 21.5658C54.6367 20.7989 53.9856 20.0474 53.3151 19.3107L53.0627 19.0351C52.3603 18.2729 51.6524 17.3908 50.7619 16.8469ZM54.0167 14.1898C53.6983 13.9539 53.4266 14.436 53.6297 14.6916C54.8428 16.2183 56.2231 17.59 57.5507 19.0138C58.8257 20.3812 60.0443 21.7997 61.1942 23.274C63.5388 26.2804 65.4156 29.5793 67.0051 33.0367C67.0351 33.1019 67.1294 33.0533 67.1153 32.9903C66.2733 29.2506 64.3049 25.854 62.0637 22.7851L61.9784 22.6687C59.7114 19.5826 57.1055 16.4803 54.0167 14.1898Z" fill="black"/>
<path fill-rule="evenodd" clip-rule="evenodd" d="M28.2616 52.32C28.6857 52.8747 29.4537 53.2996 30.3137 53.5028C31.1332 53.6964 32.0389 53.6885 32.8205 53.3905L32.8876 53.3638C33.4721 53.121 34.033 52.6307 34.246 52.1191C34.3307 51.9156 34.3594 51.7089 34.3014 51.516C34.2493 51.3424 34.127 51.1827 33.9234 51.0454C33.8595 51.0023 33.7738 50.9992 33.6921 51.0136C33.5907 51.0315 33.4908 51.0789 33.4306 51.143C33.0962 51.4987 32.611 51.8455 32.0368 51.8396C31.5937 51.8351 31.2319 51.6601 30.881 51.4623L30.6344 51.321C30.3965 51.1852 30.1553 51.0576 29.8823 50.9994C29.3937 50.895 28.801 51.0857 28.4399 51.4004C28.2824 51.5376 28.168 51.6989 28.1369 51.8726C28.1108 52.0185 28.1475 52.1707 28.2616 52.32ZM30.802 42.6186C29.8315 43.2087 28.3528 44.5848 29.3968 46.0479C30.6258 47.3379 32.3952 45.8588 33.2671 45.1899C34.0756 44.6714 34.984 46.0048 34.2338 46.6102C27.9333 51.2767 25.3764 42.7729 30.3112 41.9247C30.8545 41.8312 31.0563 42.436 30.802 42.6186ZM41.7509 33.5484L41.4721 33.4719L41.1878 33.3951L40.9956 33.3443C39.675 32.9985 38.2185 32.6942 36.909 32.8428C36.4314 32.897 36.0438 33.1659 35.9762 33.6664C35.9193 34.0888 36.1921 34.6337 36.6565 34.7087C38.1945 34.9577 39.769 34.8769 41.3141 35.1335C42.0835 35.2612 42.8471 35.4197 43.6136 35.5626C44.1964 35.6714 44.7987 35.7095 45.3865 35.7975L45.2514 35.8163C45.2042 35.8227 45.216 35.9023 45.2626 35.8991C45.4564 35.8797 45.6504 35.8767 45.8448 35.8903L45.9281 35.8971C46.055 35.915 46.1298 35.7635 46.0167 35.6867C45.3004 35.2005 44.6926 34.6736 43.8907 34.3153C43.197 34.0055 42.4831 33.75 41.7509 33.5484ZM29.7292 32.8028C28.7139 31.7761 26.5547 32.1706 25.3469 32.6403C24.6575 32.9085 24.002 33.2476 23.4561 33.7548L23.4028 33.8047L23.3208 33.8835C22.9523 34.2445 22.5414 34.7412 22.5998 35.2615C22.6087 35.3408 22.6519 35.4315 22.7415 35.4474C23.2252 35.5332 23.7004 35.2778 24.1471 35.1242L24.443 35.0226C24.8873 34.8712 25.3344 34.7266 25.7924 34.6221C26.362 34.4925 26.9431 34.4176 27.5279 34.425C28.1189 34.4327 28.7538 34.5996 29.3169 34.3648C29.9448 34.1032 30.2704 33.3503 29.7292 32.8028ZM39.7597 41.0838C40.0188 41.3484 40.3609 41.4978 40.7988 41.4089C41.1409 41.3396 41.7924 40.9954 42.3128 40.4654C42.6688 40.1028 42.9665 39.6497 43.0475 39.1248C43.0663 39.0029 43.1309 38.9247 43.2158 38.8755C43.2829 38.8367 43.3713 38.8171 43.4676 38.8269C43.5493 38.8352 43.6362 38.8648 43.7032 38.904C43.8309 38.9787 43.883 39.0848 43.8937 39.164C43.996 39.9282 43.701 40.6864 43.241 41.3257C42.6203 42.1885 41.7088 42.8208 41.173 42.9688C40.2562 43.2222 39.2901 43.0205 38.5778 42.3821C38.0082 41.8717 37.7163 41.2067 37.4454 40.5229L37.3932 40.3903C37.3322 40.2352 37.2718 40.0811 37.2077 39.9287C37.0793 39.6234 37.1205 39.3594 37.2449 39.1537C37.3829 38.9258 37.6374 38.7654 37.9208 38.7161C38.1827 38.6705 38.463 38.7204 38.6843 38.8804C38.8713 39.0156 39.022 39.2299 39.0756 39.5467C39.1627 40.0618 39.3647 40.6528 39.721 41.0428L39.7597 41.0838ZM24.0384 38.1023C24.2521 37.9909 24.4192 37.9574 24.6562 38.0284C24.7872 38.0678 24.9167 38.1432 25.0181 38.2447C25.1186 38.3452 25.1911 38.4702 25.2193 38.6089C25.2886 38.9512 25.4759 39.2716 25.7426 39.4805C25.9707 39.6591 26.2585 39.7537 26.5777 39.7003C26.9222 39.6428 27.2504 39.4217 27.4765 39.1612C27.5394 39.0885 27.5911 39.0076 27.641 38.9258L27.6708 38.8766C27.7822 38.6926 27.8904 38.5216 28.044 38.3866C28.1023 38.3352 28.19 38.2996 28.275 38.2996C28.3095 38.2996 28.3446 38.3052 28.378 38.3156C28.7208 38.6599 28.7868 38.921 28.7757 39.1801C28.7641 39.4517 28.6571 39.7268 28.4841 39.9834C28.0783 40.5854 27.3077 41.0789 26.7878 41.1907C26.0757 41.3438 25.3686 41.16 24.8016 40.7622C24.2182 40.3528 23.7859 39.7172 23.6511 39.0009C23.6187 38.8284 23.6325 38.6422 23.6982 38.4807C23.7623 38.323 23.8742 38.1879 24.0384 38.1023Z" fill="black"/>
<path fill-rule="evenodd" clip-rule="evenodd" d="M23.7341 33.0571C20.7174 33.0571 18.9959 33.7061 18.3651 33.7567L18.3461 33.758C18.0837 33.7748 17.8484 33.7968 17.6014 33.8923C16.6933 34.2422 16.5454 35.1949 17.0753 35.7954C17.1125 37.0379 16.9492 38.4896 17.2294 39.7361C17.5752 44.9909 20.0455 45.8777 21.4496 46.2014C22.1546 46.3639 22.9901 46.4286 23.739 46.257C25.0165 46.2094 26.2794 45.8093 27.3599 45.1127C28.8648 44.1417 29.9825 42.6493 30.3453 40.8781C30.5172 40.0339 30.5975 39.1551 30.504 38.297L30.4901 38.1787C30.9792 37.9447 31.5461 37.9004 32.1304 37.8797C32.4095 37.8698 32.6846 37.8609 32.9519 37.8728C33.2131 37.9019 33.4713 37.9408 33.7302 37.9937C34.0129 38.0791 34.2799 38.2199 34.5265 38.443L34.5435 38.7686C34.5898 39.5819 34.6965 40.3977 34.8612 41.1957C35.1043 42.3731 35.4953 43.4976 36.3275 44.3328C36.6091 44.7536 36.9577 45.1293 37.3809 45.4547C38.918 46.6386 41.0065 47.0733 42.9232 46.9096C46.8144 46.5775 49.0636 43.4873 49.5819 42.1664L49.6129 42.0864C49.9874 41.1044 50.2858 39.8304 51.469 39.6194L51.7206 39.5741C52.2605 39.4728 52.7587 39.3316 53.0753 38.8046C53.2141 38.5746 53.2855 38.3173 53.303 38.0549C53.4877 38.0691 53.6721 38.0827 53.8559 38.0958C55.3221 38.406 64.1165 38.6691 64.8185 38.6691C64.8185 38.6691 66.1678 39.2372 66.7375 38.797C67.1324 38.4909 67.2623 38.0829 67.0449 37.6208C66.717 36.9254 65.2038 36.5071 64.5319 36.3746C64.5319 36.3746 53.6893 36.4647 52.9089 36.3167C52.426 35.8186 51.5623 35.8868 50.8406 35.808C50.2432 35.3819 49.4074 35.0964 48.7472 34.9054C48.6127 34.8544 48.4794 34.805 48.3499 34.7586C47.1395 34.3274 45.8815 34.099 44.6043 33.9763C43.2872 33.8511 41.9662 33.9078 40.6569 34.0872C40.1051 34.1621 39.5584 34.2589 39.0157 34.3856C38.0438 34.5138 37.0775 34.7249 36.1053 34.9753L35.9107 35.0259C34.8869 35.2945 33.8348 35.5267 32.7749 35.3447C31.9121 35.1975 31.0823 34.8653 30.2868 34.506L30.1832 34.459C28.4339 33.66 25.7021 33.0571 23.7341 33.0571ZM39.1209 35.9786C39.7663 35.8366 40.0419 36.8321 39.3945 36.9745C38.936 37.0753 38.5474 37.3066 38.2848 37.6985L38.2572 37.7411C37.9049 38.3019 37.014 37.7842 37.3688 37.2198C37.7679 36.5846 38.3881 36.1397 39.1209 35.9786ZM20.2172 35.3613C20.4447 35.201 20.789 35.32 20.9211 35.5466C21.0665 35.7961 20.9712 36.0739 20.7581 36.2371L20.7364 36.253C20.541 36.3909 20.3506 36.6379 20.3267 36.891L20.3246 36.9227C20.299 37.5851 19.2699 37.5885 19.2956 36.9227C19.3207 36.2714 19.6977 35.7272 20.2172 35.3613Z" fill="black"/>
</svg>
