<svg width="118" height="200" viewBox="0 0 118 200" fill="none" xmlns="http://www.w3.org/2000/svg">
<path fill-rule="evenodd" clip-rule="evenodd" d="M116.506 106.999C115.876 106.819 115.089 106.772 114.4 106.739C111.964 106.596 109.48 107.756 107.091 108.278C106.045 108.537 104.938 108.84 103.819 109.067C102.825 109.201 101.798 109.302 100.766 109.367C99.9313 109.392 98.9601 109.328 98.6751 110.204C96.9976 110.529 95.5125 110.664 93.9134 110.388C94.0631 109.879 94.1485 109.347 93.9936 108.799C94.0718 108.669 94.1781 108.494 94.235 108.375H94.0428C91.2359 107.254 88.2006 106.487 85.379 105.325C81.6961 104 76.2721 101.439 72.0167 99.6908C72.3052 98.1135 72.4121 96.5109 72.2898 94.9528L72.4608 94.8148C72.517 94.5087 72.6042 94.1423 72.7625 93.8648C72.9632 93.333 72.9679 92.6071 73.0476 92.0061C73.2138 90.8304 73.3248 89.0602 73.0223 87.6644C72.8901 85.7714 71.6121 84.3121 70.2341 83.1416C68.5421 81.4709 66.8479 79.8409 65.1962 78.1057C56.0544 68.8009 55.3315 57.0815 41.0206 53.5197L41.0136 53.4644C40.9008 53.3388 40.8547 53.2391 40.7262 53.4377C40.2537 53.2568 39.6645 53.272 39.2688 52.9664C38.5663 52.3266 38.0679 51.588 37.742 50.7115C37.491 49.0547 37.6686 46.5011 36.2148 45.441C34.6 44.4753 26.0205 43.7877 25.2806 45.8991C24.8215 46.3296 24.6127 46.8764 24.4692 47.546C23.9912 48.4488 23.6896 49.4498 23.208 50.3665C22.1843 52.4225 21.5206 51.9668 19.7131 52.4367C19.5169 52.0001 18.9213 52.0881 18.4873 52.1515C13.2308 52.889 6.82214 54.9018 4.57154 59.8347L4.76308 59.8102C0.878288 67.0975 3.39766 76.3649 4.09247 84.0874C4.65448 90.9519 4.01175 97.849 2.48436 104.252C0.609603 111.045 0.502025 118.643 4.2217 124.791C4.59976 125.495 5.06007 126.49 5.87457 126.048C6.3209 126.385 6.82231 126.618 7.51482 126.82C7.70577 126.959 7.90345 127.191 8.10334 127.29C8.11272 127.304 8.43451 127.118 8.45139 127.113C9.0596 127.98 42.4498 130.876 45.9149 131.325C48.9677 131.693 53.0015 132.631 55.4893 130.433C57.5452 129.846 59.6965 128.319 61.3395 126.803C62.3365 141.24 62.8879 170.805 63.7775 171.011C64.1668 171.143 64.6923 171.3 65.1329 171.427C65.1356 172.464 65.2129 173.642 65.1312 174.662C64.9947 175.813 64.6486 177.173 64.492 178.384C63.819 178.339 63.621 179.013 63.5427 179.471C62.9618 183.253 62.979 186.302 63.0207 190.459C69.8521 194.476 77.8585 196.686 85.5453 199.282C86.2815 199.835 87.877 199.237 88.7271 199.088C91.6786 198.508 95.0323 196.791 94.2873 193.645C93.7418 191.275 91.4515 189.912 89.5235 188.518C87.4143 186.993 85.1907 185.468 83.2509 183.651C81.6947 182.188 80.5325 181.052 79.2346 179.4C78.659 178.632 78.0452 177.37 77.2708 176.804C78.0889 175.835 76.4359 176.743 75.8102 176.799C75.442 175.069 74.9862 173.408 74.4396 171.748L74.9709 171.772C76.7154 170.146 77.6933 162.337 77.8147 160.021C78.6892 144.919 78.6684 127.513 75.1606 114.795C77.8251 116.433 80.7469 117.802 83.3966 119.422C85.0675 120.399 86.7628 121.756 88.6358 122.23C88.7578 122.58 89.2044 122.716 89.4481 122.373C89.7833 122.415 90.2153 122.276 90.2522 122.123C90.595 121.423 91.0918 120.669 91.0321 119.908C91.032 119.908 90.572 118.843 90.572 118.843C91.6026 119.261 92.7231 120.141 93.8233 120.222C96.0454 127.63 100.424 123.48 104.637 120.597C107.179 118.823 109.96 116.864 112.636 114.973C114.906 113.17 119.338 111.459 117.166 107.887" fill="white"/>
<path fill-rule="evenodd" clip-rule="evenodd" d="M21.0043 51.9842C23.1503 51.4634 23.517 46.326 24.8129 47.0576C25.5619 47.7081 24.3366 48.9354 24.1198 49.6696L24.0246 49.8561C23.585 50.7113 23.0878 51.5636 22.2213 52.0567C21.6644 52.6422 19.9996 52.0673 20.2444 52.9998C21.0992 55.8103 25.6356 57.7564 28.3092 58.6315C32.4648 60.1903 39.1874 59.6629 40.1638 54.4378C37.8844 54.0211 36.1992 49.9141 37.604 48.2042C37.6519 49.8652 38.1063 51.5794 39.412 52.7047L39.4841 52.7708C39.7138 52.9801 40.0113 53.2301 40.3079 53.1835C40.597 52.7814 41.1584 53.0101 41.3237 53.4346C54.3017 55.6749 57.1929 69.6525 65.3659 77.8799C66.9985 79.5962 68.7051 81.2396 70.3898 82.9038C72.1104 84.267 73.328 86.1675 73.4128 88.399C73.5666 89.6401 73.4904 90.8823 73.3259 92.1254L73.3145 92.2377C73.2383 93.0081 73.193 93.8356 72.8258 94.5195C72.7624 94.7513 72.7881 95.0442 72.5873 95.2078C72.675 96.6261 72.5915 98.0698 72.3513 99.4838L72.9774 99.7629C79.8677 102.827 86.8376 105.716 94.0222 108.013C94.6362 107.902 94.5861 108.615 94.2888 108.939C94.3672 109.32 94.3757 109.716 94.2837 110.093C95.5994 110.282 96.9357 110.125 98.2344 109.886C98.6452 108.982 99.7367 109.03 100.581 109.005C101.629 108.939 102.676 108.837 103.717 108.692C106.282 108.12 108.8 107.367 111.34 106.705C113.04 106.228 114.873 106.25 116.578 106.69C116.868 107.014 117.135 107.36 117.361 107.728C118.92 110.141 117.384 112.353 115.208 113.62C111.718 116.091 108.226 118.559 104.72 121.007L104.465 121.188C100.293 124.17 95.6001 127.944 93.3721 120.687C92.6233 120.599 91.9671 120.098 91.2694 119.801C91.4571 120.672 90.8967 121.552 90.5103 122.299C90.3439 122.724 89.8891 122.864 89.4692 122.86C89.1097 123.212 88.4349 123.074 88.1998 122.656C86.2927 122.111 84.7171 120.838 83.0291 119.849C80.629 118.394 78.1112 117.153 75.6765 115.759C79.7211 132.48 78.7319 149.898 77.6556 166.919L77.648 167.073C77.5146 169.558 76.9439 170.733 74.8798 172.256C75.2393 173.352 75.561 174.451 75.8063 175.578C75.8929 175.839 76.2916 175.593 76.2948 175.952C77.0281 175.781 78.5185 175.964 77.9985 176.977C79.4708 178.211 80.4676 179.882 81.7582 181.289C84.0312 184.009 87.0024 186.034 89.9156 188.029C96.6127 191.437 96.9965 197.342 89.161 199.359L89.0824 199.377C88.0034 199.637 86.7039 200.229 85.6579 199.73C84.0931 199.43 82.5402 198.821 81.0093 198.357C74.845 196.32 68.8159 193.935 62.9741 191.194C62.7623 191.094 62.6424 190.867 62.6368 190.639C62.702 188.758 62.1906 178.452 64.1436 178.23C64.5797 176.125 64.6482 173.951 64.569 171.802C63.9354 171.603 63.2948 171.411 62.6386 171.287C62.0015 171.086 61.0052 171.042 60.5786 170.526C60.4253 170.471 60.3128 170.334 60.3358 170.118C60.6809 166.888 60.9424 163.65 61.1333 160.408C61.7868 149.534 61.565 138.627 60.8206 127.765C59.2867 129.089 57.5388 130.249 55.5929 130.866C54.5188 131.941 52.7966 132.171 51.3304 132.301C49.445 132.418 47.5928 132.042 45.7321 131.808C42.5725 131.411 39.4348 131.762 36.2982 132.152L35.2263 132.285C27.5471 133.126 19.2481 133.3 12.0909 130.023C10.7433 130.142 9.07034 128.688 8.2297 127.716C7.85849 127.945 7.49376 127.498 7.19795 127.263C6.70977 127.115 6.15598 126.902 5.71296 126.592C4.58903 126.959 3.98276 125.502 3.55583 124.71C-3.2202 113.123 4.32602 101.59 3.75843 89.3033C4.10212 79.6708 -0.29809 69.6352 3.95464 60.3967C4.81497 56.4871 9.84667 53.7852 13.634 52.7916C14.8545 52.5904 19.4749 50.9223 19.9837 52.325C20.2244 52.0093 20.6355 51.9856 21.0043 51.9842ZM77.2113 177.428C76.5763 177.497 75.9571 177.536 75.3295 177.65C73.0386 178.026 70.8533 178.911 68.8846 180.142C68.247 180.539 67.678 181.039 66.9463 181.26C65.4428 181.805 63.9652 180.452 64.0753 178.989C63.6562 182.666 63.7281 186.45 63.9457 190.146C69.8265 192.803 75.8391 195.171 81.961 197.229C83.3396 197.806 84.972 197.99 86.2381 198.77C88.397 198.634 90.5702 197.878 92.3835 196.694C95.3913 194.61 93.3945 191.305 90.9011 189.851C85.4122 187.377 80.74 182.372 77.2113 177.428ZM65.1853 171.99C65.0705 173.08 65.9 174.778 65.7829 176.951C65.6929 177.629 65.481 178.34 65.5546 179.021C65.8924 181.548 68.6323 178.337 69.7645 177.985C71.3717 177.103 73.1184 176.502 74.9135 176.173C74.9025 175.59 74.5162 175.358 74.4655 174.782C74.3927 173.934 74.3963 173.119 74.358 172.262C72.0232 173.322 67.6618 172.573 65.1853 171.99ZM77.7649 177.264C77.7242 177.291 77.6812 177.314 77.6371 177.334C77.9616 177.727 78.2427 178.162 78.6275 178.5L78.4637 178.246C78.2445 177.907 78.0203 177.569 77.7649 177.264ZM5.25202 86.8689C5.13439 87.3463 4.92014 87.7952 4.59918 88.177C6.25663 101.595 -2.27083 112.782 5.56939 125.258C5.6685 125.304 5.75889 125.361 5.84596 125.433C5.89206 125.402 5.93815 125.37 5.98339 125.338C9.65817 118.845 14.8893 113.244 19.0573 107.031C19.8573 105.471 21.1742 103.901 21.6784 102.099C13.3024 98.7968 9.9566 93.9783 5.25202 86.8689ZM115.483 107.222C115.128 107.349 114.732 107.244 114.353 107.237C113.008 107.209 111.693 107.559 110.406 107.914C106.663 108.936 102.9 109.841 99.0648 110.446C98.9873 110.526 98.9132 110.608 98.8459 110.694C98.9123 110.806 98.9225 110.947 98.8261 111.087C98.2476 112.19 98.7152 113.541 98.2949 114.722C97.686 117.114 96.0662 119.811 93.6489 120.659C94.4552 121.426 95.0328 122.414 95.8633 123.154C97.9043 124.551 100.152 122.469 101.818 121.353C104.991 119.115 108.171 116.893 111.361 114.68C112.79 113.497 115.95 112.007 116.634 110.44C117.072 109.239 116.275 108.069 115.483 107.222ZM93.62 110.271C92.2545 113.052 91.4662 116.008 90.6777 118.994C91.4978 119.219 92.2533 119.572 93.0595 119.809C94.195 120.064 95.7982 117.873 96.3675 117.003C96.9545 116.031 97.3654 114.962 97.556 113.842C97.7169 112.745 97.5455 111.606 98.0233 110.591C96.544 110.742 95.0433 110.773 93.62 110.271ZM12.4399 104.534C13.7222 104.175 10.8051 107.071 10.6371 107.381C8.74036 109.617 7.00256 111.978 5.27806 114.347L4.75528 115.066C4.70506 115.139 4.35885 115.65 4.60919 115.585C4.63211 115.579 4.64279 115.609 4.62458 115.622C3.02975 115.904 11.6708 104.73 12.4399 104.534ZM43.701 103.166C43.8047 102.854 43.3124 102.721 43.2087 103.031L42.8818 104.014C41.6482 107.728 40.4223 111.447 38.9479 115.074C38.8246 115.378 39.3177 115.511 39.4402 115.21C41.0438 111.263 42.3541 107.207 43.701 103.166ZM58.04 101.866C57.5903 103.997 56.4541 105.918 55.7654 107.954C57.059 107.67 58.0555 106.466 58.8095 105.431L58.8322 105.396C59.1879 104.849 59.6014 103.995 60.4093 104.381C61.6356 105.092 60.7571 107.615 60.7342 108.811C60.5787 110.45 60.045 111.983 59.6813 113.576C60.6161 112.938 60.8848 111.68 61.3404 110.7L63.094 106.499C64.3832 104.735 63.7845 110.017 63.7179 110.515C63.6131 111.61 63.1511 112.712 63.3324 113.814C64.0594 113.033 64.5174 112.051 64.9022 111.055C65.436 109.67 65.9232 108.267 66.4311 106.873C66.6067 106.426 67.2725 106.583 67.1759 107.075C67.1432 108.657 67.1172 110.24 67.0919 111.822L67.0729 113.009C67.0695 113.234 66.958 113.892 67.3473 113.71C69.3916 111.567 69.9157 107.283 69.6498 104.405C65.6312 104.502 61.5313 103.981 58.04 101.866ZM93.7999 109.859C93.7834 109.911 93.7645 109.964 93.7455 110.016C93.757 110.018 93.7694 110.021 93.781 110.024C93.7884 109.968 93.795 109.914 93.7999 109.859ZM4.61284 109.859C4.16709 109.53 11.6593 99.9247 11.1739 102.698C9.08367 105.167 6.64618 107.331 4.61284 109.859ZM70.779 88.6332C63.7723 86.9897 57.6021 93.1296 50.5657 92.202C50.6471 94.4011 50.7603 96.6151 50.7158 98.8152C60.0601 99.5848 58.9969 103.556 69.7536 103.156C71.1436 102.227 71.7145 96.5289 71.5971 94.8089C71.687 92.7752 69.9344 91.8623 68.1887 91.5056C67.5578 91.8859 66.426 90.7513 67.3628 90.3521C68.5956 89.9817 69.7492 89.3994 70.779 88.6332ZM19.0884 52.5898C16.5957 52.8351 14.1267 53.5136 11.8357 54.5619C3.36687 57.0033 2.14573 66.9026 3.16407 74.4043C3.58602 80.1091 5.21523 85.6885 8.64058 90.3275C17.7598 104.215 32.8639 102.016 47.1706 100.179C47.6864 99.8207 48.5602 100.075 49.0572 99.6018C49.0053 99.584 48.9584 99.5593 48.9184 99.5287C49.1572 99.3427 49.342 99.0162 49.3971 98.6693L49.5001 98.6795C49.6012 96.5257 49.5204 94.4142 49.553 92.2773C44.852 90.9899 39.8104 90.332 35.0461 89.0497C34.5046 89.4269 33.8802 88.9928 33.3512 88.7879C31.9798 88.2054 30.5963 87.6521 29.2026 87.1253L28.854 86.9942C27.9455 86.6542 27.0376 86.3054 26.1376 85.9419L25.8005 85.8049C25.2849 85.5943 23.983 84.815 23.4206 85.3016L23.466 85.3993C23.7994 86.1259 24.9483 88.8145 23.536 88.2828C22.3892 87.4786 21.7946 81.871 20.6587 81.8214C20.2681 82.8654 19.9882 83.949 19.9243 85.065C19.9013 85.3161 19.5707 85.5279 19.3721 85.2933C18.0249 83.5216 20.0599 81.5918 20.1142 79.7218C20.2426 77.5473 19.2792 75.5128 18.7992 73.4315L18.7697 73.288C18.4883 71.9378 18.0503 70.3007 18.1665 69.0897L18.446 70.1409C18.7264 71.1927 19.0136 72.2448 19.3432 73.2818C20.161 75.8721 21.6377 78.5407 20.8171 81.3122C22.4633 81.3669 22.7416 83.9617 23.36 85.1467C24.3605 83.8502 31.4006 86.9588 33.0071 87.4575L33.3169 87.1064C38.3483 81.4093 41.9803 77.5536 49.7785 82.0602C48.4314 77.7204 48.3012 73.111 48.0714 68.6045C48.1502 67.7472 47.654 65.4857 48.3538 65.0177C48.4752 65.0354 48.5933 65.072 48.7048 65.1208L48.7047 65.565C48.708 66.4255 48.7482 67.8524 49.1095 68.1765L49.2753 69.8803C49.7096 74.3107 50.202 78.7377 51.5268 83.0071C54.7069 84.7826 57.6087 87.0058 60.3385 89.4042L60.6495 89.2909C64.0225 88.0576 68.0809 86.4768 71.5295 88.016C71.4719 87.147 71.136 86.3154 70.6676 85.5805C69.8863 85.3869 69.375 84.5641 68.8159 84.0163C67.0433 82.1147 65.2235 80.2566 63.4917 78.3166C56.1019 70.3774 52.958 57.3409 41.3533 54.2616C40.5861 60.6768 32.3677 61.7005 27.4153 59.505L27.2273 59.4331C24.1487 58.2465 20.6696 56.4555 19.5884 53.1927L19.5435 53.0983C19.4323 52.8682 19.2997 52.6336 19.0884 52.5898ZM20.9149 89.0972C20.9239 89.0873 20.9414 89.1006 20.9337 89.1116C19.4908 90.9199 18.3167 93.3862 19.7507 95.5462C20.0157 96.0325 19.3963 96.4997 18.9997 96.129C17.0094 93.8717 19.2176 90.8122 20.9149 89.0972ZM71.1147 89.5058C70.3212 90.0715 69.4705 90.5414 68.5692 90.9121C68.5721 91.0157 68.5215 91.1266 68.4757 91.208C69.6621 91.3021 70.8976 91.6082 71.7304 92.4722C71.7709 92.1562 71.8104 91.8392 71.8408 91.5223C71.9174 90.707 71.7776 89.9773 71.1147 89.5058ZM16.5552 81.5123L16.5644 81.4687C16.5708 81.4193 16.646 81.4159 16.6438 81.4687C16.6162 82.1151 16.1453 82.5749 15.7464 83.0352C15.1545 83.7181 14.5625 84.4008 13.9703 85.0834C12.9803 86.273 11.5218 87.4689 11.8497 89.1922C11.8559 89.8043 11.0877 89.9355 10.7761 89.4854C9.5367 87.1248 13.4382 85.1164 14.7533 83.5934C15.3708 82.9343 16.344 82.4493 16.5552 81.5123ZM35.1316 88.5993C35.1501 88.6287 35.1633 88.6605 35.1704 88.6932C35.3781 88.7152 35.585 88.7388 35.7919 88.7641L35.1316 88.5993ZM4.09849 83.0784C4.13551 83.3251 4.17018 83.5723 4.20336 83.8198L4.23606 84.0672L4.24116 84.0456C4.25809 83.9814 4.29005 83.9256 4.33181 83.881L4.34609 83.8666C4.26008 83.6051 4.17757 83.3425 4.09849 83.0784ZM61.0586 80.5252C61.5558 80.4723 59.3031 82.0898 59.1786 82.29C58.997 82.4477 58.7848 82.1675 58.9786 82.0309C59.6784 81.5377 60.3682 81.0316 61.0586 80.5252ZM56.676 75.7668C57.0219 75.6254 57.2568 76.2007 56.9287 76.3609C55.7336 76.9449 54.4698 77.3579 53.3686 78.1261C53.3203 78.1598 53.2598 78.0813 53.3056 78.0452L53.4379 77.9407C54.4522 77.1362 55.4654 76.2619 56.676 75.7668ZM4.51116 68.4933C4.84517 70.0642 6.6524 70.5801 8.05495 70.9986L8.49318 71.1653C9.73172 71.6387 11.0148 72.1712 11.9058 73.1715C12.2551 74.2998 9.76307 72.3343 9.41518 72.2348C7.71344 71.181 4.63862 71.0019 4.51116 68.4933ZM41.4043 53.8258C41.4137 53.9057 41.4184 53.9872 41.4207 54.0688C41.5255 54.0688 41.6296 54.0696 41.7344 54.073C41.6124 54.0015 41.5005 53.92 41.4043 53.8258Z" fill="black"/>
<path fill-rule="evenodd" clip-rule="evenodd" d="M45.3576 32.3166C44.8037 25.5742 43.1172 19.6025 35.1927 19.3479C31.6165 19.3798 27.966 20.1385 24.6774 21.5421C16.6842 25.5441 14.148 40.1676 21.1903 46.0541C21.1484 46.0779 21.1383 46.1466 21.1878 46.1798C22.6427 47.1572 24.2599 47.9614 25.8795 48.6372C30.1939 50.4585 35.2729 51.2497 39.6729 49.274C46.3876 46.4208 46.4883 38.4819 45.3576 32.3166Z" fill="white"/>
<path fill-rule="evenodd" clip-rule="evenodd" d="M58.5746 29.174C58.8505 28.9258 59.0563 28.6003 59.1604 28.2353C59.2556 27.9025 59.2621 27.5391 59.1612 27.2071C59.0531 26.8509 58.8199 26.5673 58.8723 26.1966C58.878 26.1604 58.8852 26.1225 58.8965 26.0846C59.0983 25.3868 59.5945 24.8832 59.417 24.1096C59.367 23.8913 59.2726 23.6947 59.141 23.54C59.1556 23.3724 59.1685 23.2031 59.179 23.0339C59.4703 22.353 59.4598 21.544 59.1491 20.8736C59.1112 20.5304 59.0539 20.1903 58.9732 19.8559C59.0103 19.5602 58.9587 19.2347 58.8635 18.976C58.6962 18.5209 58.4894 18.0724 58.2651 17.6313C58.2915 17.5107 58.2796 17.3832 58.213 17.2698C58.0918 17.0638 57.9316 16.8827 57.7679 16.7056C57.6521 16.4991 57.5355 16.2943 57.4198 16.0921C57.3663 15.9992 57.3071 15.8961 57.2419 15.787C57.4196 15.4577 57.5145 15.1368 57.3266 14.7497C57.256 14.6042 57.0618 14.497 56.902 14.5065C56.7273 14.5169 56.5509 14.5247 56.3737 14.5314C56.0423 14.1319 55.6669 13.7732 55.2645 13.5668C54.857 13.2219 54.4439 12.8835 54.042 12.5378C53.9282 12.4395 53.8136 12.3412 53.6999 12.2429C53.6991 12.2405 53.6982 12.2372 53.6974 12.2348C53.6135 11.9294 53.5191 11.6281 53.4247 11.3251C53.3658 11.1373 53.348 10.9407 53.1649 10.8384C52.7824 10.6249 52.1941 10.591 51.7551 10.5548C51.7116 10.5161 51.668 10.4782 51.6244 10.4395C51.8237 9.90933 51.7882 9.34609 51.5373 8.81508C51.4517 8.63458 51.1548 8.5532 50.9918 8.67245C50.6157 8.94803 50.1695 9.04553 49.7281 9.00524C49.0793 8.50727 46.4624 6.25542 46.0581 6.01772C46.0531 6.00918 46.049 6.00064 46.0437 5.99218C45.8164 5.62973 45.5403 5.33869 45.23 5.10533C45.1857 5.05916 45.1414 5.01291 45.0971 4.96665C45.1361 4.69035 45.2386 4.42356 45.4037 4.20036C45.4215 4.17457 45.4417 4.14959 45.4618 4.12542C45.7507 3.78215 45.3981 3.34058 44.9946 3.52027C44.9656 3.53317 44.9365 3.54606 44.9075 3.55976C44.5973 3.69787 44.2541 3.84799 43.8967 3.97466C43.7659 3.92574 43.6326 3.88143 43.511 3.8326L42.2089 3.30988C41.9946 3.22383 41.768 3.1509 41.5607 3.04978C41.4884 2.56961 41.0065 2.25471 40.506 2.27115C40.5349 2.17897 40.578 2.08945 40.6388 2.0046C40.6565 1.97962 40.6759 1.95544 40.6961 1.93208C40.9535 1.63313 40.6097 1.07875 40.2417 1.34466C40.2159 1.36319 40.1893 1.38173 40.1635 1.40026C40.0612 1.47189 39.9566 1.5391 39.8508 1.6042C39.6814 1.53039 39.4906 1.51355 39.291 1.59163C38.849 1.76447 38.4415 1.94021 38.0523 2.21112C38.0365 2.22216 38.0201 2.23142 38.0041 2.24182C37.8109 2.00879 37.5042 1.85295 37.228 1.85464C37.2223 1.85464 37.218 1.85456 37.213 1.85448C37.0065 1.5403 36.628 1.35771 36.2624 1.40211C36.2871 0.951276 35.8351 0.548949 35.4237 0.500038C34.9429 0.442988 34.5096 0.721709 34.3653 1.19003C34.3251 1.32041 34.285 1.45086 34.2448 1.58132C33.8715 1.39317 33.4776 1.24901 33.066 1.17706C32.129 1.01316 31.2127 1.18769 30.3096 1.44748C30.2194 1.47342 30.1293 1.5001 30.0391 1.52669C29.9104 1.3777 29.7896 1.22516 29.6741 1.08278C29.4748 0.837017 28.9963 1.03363 29.0285 1.34949C29.051 1.56746 28.9623 1.72426 28.8195 1.8357C28.6628 1.85859 28.5112 1.86552 28.2827 1.86093C27.9806 1.8548 27.8432 1.84537 27.5274 1.72241C27.3802 1.6652 27.1969 1.51476 27.1112 1.37971C26.7823 0.861835 25.9471 0.722354 25.5493 1.21614C25.1306 1.03314 24.6021 1.28552 24.3697 1.64135C24.2481 1.8274 23.9944 1.93143 23.675 2.02087C23.4352 2.08791 23.1901 2.13868 22.9438 2.18308C22.8341 2.03441 22.603 1.93473 22.4334 2.05939C22.3186 2.14408 22.2071 2.23102 22.0971 2.32014C21.249 2.43682 20.4053 2.44101 19.5967 2.1108C18.9121 1.83119 18.2835 2.59483 18.3965 3.23591C18.1982 3.33897 17.9831 3.40755 17.7872 3.51552C17.36 3.75129 17.0091 4.12397 16.7953 4.56183C16.7569 4.64023 16.7223 4.71984 16.6893 4.79986C16.5296 4.92967 16.3717 5.06295 16.2176 5.20356C15.961 5.07221 15.7052 4.94087 15.4486 4.80953C15.2565 4.71122 14.9329 4.77971 14.895 5.03434C14.8329 5.45335 14.682 5.80064 14.4665 6.09153C13.7661 6.45897 13.0923 6.87153 12.4476 7.33002C11.706 7.56208 10.9176 7.69745 10.2696 7.84975C10.0477 7.90212 9.92669 8.1914 10.0518 8.38398C10.1841 8.58784 10.3164 8.79171 10.448 8.99557C10.0792 9.35495 9.73303 9.73044 9.40622 10.1188C8.4968 11.1986 7.73586 12.3823 7.0548 13.6361C6.78528 13.7449 6.51577 13.8528 6.24625 13.9616C5.98641 14.0664 5.86941 14.3677 6.08002 14.5893C6.18008 14.6949 6.26965 14.8061 6.34631 14.9229C5.96463 15.5538 5.51516 16.1292 4.88656 16.5063C4.69531 16.6207 4.55168 16.8004 4.47502 17.0042C4.40966 17.0478 4.3451 17.0945 4.28135 17.142C4.10383 17.2758 3.9965 17.5675 4.20469 17.7407C4.35075 17.8632 4.48793 18.0083 4.60413 18.1686C4.62914 18.2597 4.65497 18.3515 4.68079 18.4426C4.09656 18.9792 3.61079 19.6029 3.24605 20.3023C3.15971 20.2886 3.07095 20.2975 2.99913 20.3507C2.34712 20.8317 2.32776 21.598 2.59001 22.2829C2.43185 23.3151 2.53352 24.3731 2.83855 25.3731C2.4375 25.7728 2.19623 26.3497 2.09778 26.9057C1.92429 27.8823 1.91218 29.3843 1.86699 30.3811C1.42963 30.8025 1.11816 31.348 0.944664 31.9346C0.798608 32.0071 0.652552 32.0796 0.506496 32.1522C0.376579 32.2166 0.28136 32.3867 0.288952 32.5301C0.326549 33.2239 0.613012 33.7718 0.99308 34.2682C1.12784 34.6509 1.32715 35.0038 1.5886 35.3423C1.76935 35.5743 1.94607 35.7967 2.10181 36.0473C2.11795 36.0723 2.12764 36.0957 2.1349 36.1118C2.07357 36.1779 2.02273 36.2874 1.97835 36.3656C1.60555 37.0215 1.5999 37.7902 2.12925 38.3615C1.92994 38.5243 1.92348 38.8531 2.09939 39.0545C3.24444 40.3607 4.19905 41.9489 5.78791 42.6427C5.79517 42.6547 5.80162 42.6668 5.80727 42.6789C5.4853 43.4525 5.44173 43.8546 5.70479 44.6539C5.70641 44.6611 5.70883 44.6676 5.71125 44.6748C5.85166 45.0938 6.10988 45.7651 6.57548 45.8956C6.72234 45.9367 6.86678 45.9552 7.00961 45.9544C7.37919 46.3098 7.74796 46.6659 8.11673 47.0221C8.14901 47.1986 8.16918 47.3766 8.17564 47.5563C8.18613 47.8569 8.46936 48.1002 8.77439 48.0116C8.88171 47.9802 9.47561 47.404 9.58455 47.4073C9.63942 47.462 9.69268 47.5168 9.74594 47.5724C9.94202 47.7779 10.214 48.1018 10.2366 48.317C10.2801 48.7223 10.5464 49.1864 10.9765 49.2686C11.1379 49.4322 11.3961 49.4813 11.5938 49.2678C11.6067 49.2541 11.6196 49.2404 11.6334 49.2283C11.6543 49.2259 11.6745 49.2235 11.6955 49.2211C11.7907 49.5047 11.8859 49.7883 11.982 50.0712C12.17 50.6288 12.8882 50.9874 13.3981 50.6618C13.4804 50.711 13.5611 50.7633 13.6418 50.8157C13.7645 50.8939 13.8888 50.9737 14.0163 51.0486C14.0235 51.0695 14.0308 51.0905 14.0372 51.1106C14.1195 51.3612 14.4617 51.4958 14.6723 51.3516C14.7377 51.3725 14.8046 51.3894 14.8724 51.4031C15.2283 51.4732 15.5866 51.4539 15.9303 51.3354C16.1764 51.2516 16.4112 51.0913 16.6759 51.0695C16.6925 51.0682 16.7095 51.0693 16.7263 51.0688C16.9422 51.5105 17.4357 51.8912 17.8245 52.0205C18.3339 52.19 18.8551 52.1294 19.319 51.9219C19.4441 52.1718 19.6013 52.4083 19.7891 52.6271C19.8932 52.748 20.0812 52.7222 20.1885 52.6271C20.3924 52.4467 20.5949 52.2654 20.7971 52.0839C20.9435 52.0275 21.0912 51.9599 21.2454 51.8971C21.7274 51.7005 22.2559 51.619 22.7017 51.3349C22.9134 51.2 23.1125 51.0279 23.2764 50.8284C23.5853 50.6504 23.8691 50.4285 24.1248 50.1743C24.2523 50.1751 24.3854 50.1453 24.5145 50.08C25.0544 49.8061 25.3384 49.2485 25.3634 48.678C25.8008 47.6506 26.059 46.5547 26.13 45.4331C26.1526 45.0648 26.1566 44.6934 26.1284 44.3251C26.109 44.0657 26.0437 43.8924 25.9452 43.6579C25.9121 43.5814 25.8823 43.5113 25.8589 43.4339C25.8645 43.1858 25.8678 42.9376 25.871 42.6902C25.938 42.4815 26.0574 42.2873 26.2236 42.1237C26.481 41.8707 26.5988 41.3453 26.3648 41.0327C26.2123 40.8305 26.0606 40.6282 25.9081 40.4259C25.9509 39.5581 26.1591 38.177 25.6975 38.032C25.7161 37.903 25.7556 37.7757 25.7782 37.6476C25.8863 37.032 25.8218 36.4816 25.4941 35.9434C25.4256 35.8314 25.3675 35.7323 25.3198 35.6356C25.29 35.4583 25.2601 35.281 25.2303 35.1037C25.1843 34.8306 25.1391 34.555 25.1004 34.2778C25.0802 33.9249 25.0616 33.572 25.0415 33.2182C25.0229 32.8927 25.0019 32.5671 24.9801 32.2408C24.989 32.095 25.0019 31.9491 25.0205 31.8033C25.131 30.9338 25.4869 30.6123 26.1034 30.008C26.2002 29.9927 26.2962 29.9757 26.3907 29.9564C26.8304 29.8654 27.2904 29.7243 27.7431 29.7751C28.2345 29.8299 28.6743 30.0418 29.152 29.7711C29.2924 29.6905 29.6015 29.4681 29.6281 29.2916C29.6297 29.2804 29.6321 29.2707 29.6354 29.2634C29.6684 29.2586 29.7112 29.2546 29.7378 29.2538C30.1171 29.2409 30.4794 29.3899 30.8619 29.3488C31.3146 29.3005 31.7197 29.0999 31.986 28.8025C32.3273 28.8863 32.6759 28.9242 33.0301 28.8775C33.3271 28.8388 33.5934 28.7421 33.8564 28.5987C34.0477 28.4955 33.9872 28.4657 34.1954 28.5495C34.669 28.7413 35.0975 28.9943 35.6309 28.863C35.9077 28.7953 36.1465 28.6462 36.3475 28.4456C36.3951 28.3988 36.4758 28.3287 36.5298 28.2627C36.7832 28.3908 37.4207 28.68 37.5256 28.7058C37.8225 28.7784 38.1373 28.7671 38.4261 28.6704C38.6384 28.5995 38.8982 28.4061 39.0846 28.3666C39.3259 28.315 39.8617 28.6502 40.1498 28.7655C40.6549 28.9677 41.1899 29.0177 41.7015 28.809C41.8774 28.7373 42.2196 28.4512 42.3511 28.4536C42.5649 28.7171 43.1621 30.1587 43.3412 30.6848C44.0666 32.8121 44.2547 39.4542 43.9198 41.1487C43.9069 41.1987 43.8931 41.2478 43.8794 41.2978C43.4679 42.7716 43.0394 44.2703 42.3511 45.6434C41.7015 46.9375 40.8034 48.1026 39.5147 48.8093C38.1784 49.5426 36.6097 49.7352 35.1072 49.6361C34.1397 49.5732 33.1883 49.379 32.2523 49.1357C31.7632 49.0092 31.2783 48.8681 30.7957 48.7215C30.5851 48.6578 30.3713 48.5982 30.1647 48.5241C29.8 48.3927 29.6087 48.3823 29.2593 48.5507C28.9414 48.7038 28.8599 49.1558 29.0253 49.4402C29.2948 49.9044 29.7887 49.9366 30.2656 50.072C30.7513 50.2098 31.2387 50.3419 31.7294 50.4604C32.6694 50.686 33.6249 50.8592 34.5883 50.939C36.3136 51.0832 38.0913 50.8608 39.6616 50.109C39.8391 50.0236 40.0102 49.9326 40.1756 49.8343C40.1143 49.9197 40.0521 50.0051 39.9892 50.0897C39.8149 50.3242 39.944 50.7231 40.1885 50.8512C40.266 50.8915 40.3434 50.9301 40.4217 50.968C40.4322 50.993 40.4435 51.018 40.4564 51.0429C40.6799 51.491 41.1479 51.7553 41.6248 51.8697C42.1913 52.0051 42.8256 51.9092 43.4017 51.8922C43.9359 51.8761 44.4701 51.86 45.0035 51.8439C45.1294 51.8407 45.2553 51.8366 45.3811 51.8326C46.0154 51.8133 46.6488 51.7947 47.2823 51.7754C47.8471 51.7585 47.8205 51.802 48.3507 51.5764C48.5871 51.4748 48.7808 51.3314 48.9438 51.1404C49.0454 51.0953 49.1439 51.0438 49.2383 50.9849C49.5417 50.7964 49.8112 50.5434 50.0598 50.2646C50.4818 50.3975 51.0733 50.2742 51.1556 49.7448C51.2879 48.898 52.3902 48.5362 52.905 47.9238C53.3206 47.4298 53.6176 46.7828 53.6022 46.1615C54.6496 45.6555 55.2193 44.3219 55.3525 43.1906C55.4146 42.666 55.4049 42.1044 55.4945 41.571C55.534 41.5283 55.5695 41.4831 55.5994 41.4348C55.8625 41.0101 56.0916 40.5726 56.2934 40.1246C56.5677 39.9272 56.8978 39.8055 57.2431 39.7854C58.092 39.7362 58.2518 38.5928 57.4424 38.3172C57.4384 38.3156 57.4352 38.3148 57.4311 38.3132C57.6506 37.7653 57.6321 37.1166 57.3658 36.5977C57.3771 36.5413 57.3876 36.4857 57.3981 36.4293C57.8524 35.9418 58.113 35.2641 58.084 34.6042C58.2913 34.4583 58.5237 34.3455 58.7779 34.2754C59.1709 34.1674 59.1733 33.6888 58.8828 33.4745C58.7658 33.3882 58.669 33.2875 58.5883 33.1763C58.7892 32.5736 58.7101 31.8766 58.2994 31.3818C58.5601 31.0482 58.8207 30.7147 59.0813 30.3811C59.254 30.1603 59.3452 29.7856 59.0813 29.5761C58.9127 29.4415 58.744 29.3078 58.5746 29.174Z" fill="black"/>
<path fill-rule="evenodd" clip-rule="evenodd" d="M37.052 44.5631C36.5096 44.3421 36.0256 43.9735 35.6717 43.5026C35.5487 43.339 35.5168 43.1661 35.5426 43.008C35.5716 42.8302 35.677 42.6691 35.8206 42.561C35.9647 42.4526 36.1449 42.3992 36.3191 42.4264C36.4705 42.4501 36.6213 42.5329 36.7405 42.7046L36.7655 42.7389C36.9758 43.0231 37.25 43.2563 37.5623 43.4066C37.8634 43.5514 38.2001 43.6191 38.5485 43.5797C39.2121 43.5049 39.6695 43.1465 40.1557 42.6598C40.2159 42.5984 40.2762 42.535 40.3368 42.4706C40.3751 42.4123 40.4282 42.3748 40.4872 42.3551C40.5526 42.3332 40.6267 42.3345 40.6945 42.3581C40.7599 42.3809 40.8184 42.4241 40.8576 42.4816C40.8949 42.5362 40.916 42.6037 40.9092 42.6814C40.8647 43.1857 40.6006 43.6358 40.2255 43.9893C39.8089 44.3818 39.2567 44.6534 38.7369 44.7486C38.1641 44.8535 37.5805 44.7784 37.052 44.5631ZM39.0071 36.7825C39.6164 37.1523 40.5449 38.0148 39.8893 38.9317C39.1177 39.7402 38.0068 38.8132 37.4593 38.394C36.9517 38.0691 36.3814 38.9047 36.8523 39.2841C40.8083 42.2087 42.4136 36.8792 39.3153 36.3476C38.9741 36.289 38.8474 36.6681 39.0071 36.7825ZM31.918 33.3804C31.9853 32.5459 33.2581 32.3564 33.3847 33.1822C33.4981 33.9219 33.3646 34.6014 33.0309 35.2674C32.7121 35.9036 31.9108 35.6068 31.8502 35.0274C31.769 34.2508 31.8761 33.8995 31.918 33.3804ZM41.6064 33.011C41.7839 32.7789 42.0401 32.6205 42.347 32.71C43.3061 32.9899 43.0234 34.3495 42.6866 35.0112C42.5036 35.3706 41.912 35.4618 41.6447 35.1453C41.2089 34.6293 41.0002 33.5988 41.5542 33.0905C41.5692 33.0642 41.5859 33.0377 41.6064 33.011ZM33.0174 29.7289L33.1689 29.7025C33.6376 29.6215 34.2203 29.5437 34.5518 29.92C34.7277 30.1195 34.7882 30.4903 34.5518 30.6813C34.1361 31.0173 33.6765 30.8871 33.1783 30.9155C32.7677 30.9391 32.3731 31.0069 31.9776 31.1198C31.11 31.3674 30.403 31.8195 29.662 32.3158C29.5648 32.3809 29.4655 32.2568 29.5119 32.1659C29.9397 31.3293 30.7687 30.642 31.599 30.2231C32.0422 29.9995 32.5271 29.814 33.0174 29.7289ZM40.7322 29.3542L40.8481 29.3779C42.1099 29.6412 43.7494 30.1674 44.3469 31.405C44.3697 31.58 44.3456 31.6175 44.326 31.642L44.3195 31.6502C44.3034 31.6711 44.2905 31.6999 44.2146 31.7238C44.1935 31.7187 44.1722 31.7134 44.1507 31.7078C43.8768 31.6361 43.6601 31.5374 43.4503 31.4349L43.2228 31.323C42.9589 31.1938 42.6927 31.0693 42.4105 30.9774C41.8084 30.7812 41.189 30.6431 40.56 30.5693C40.4237 30.5533 40.2924 30.5074 40.1889 30.4286C40.0906 30.3539 40.0155 30.2504 39.9813 30.1129C39.9369 29.9349 39.9496 29.8001 40.0453 29.6395C40.1172 29.5189 40.2201 29.4354 40.3383 29.3874C40.4587 29.3384 40.5958 29.3269 40.7322 29.3542Z" fill="black"/>
</svg>
