<svg width="111" height="160" viewBox="0 0 111 160" fill="none" xmlns="http://www.w3.org/2000/svg">
<path fill-rule="evenodd" clip-rule="evenodd" d="M5.10379 147.996C5.44566 144.82 5.65634 141.621 5.77725 138.429C5.89802 135.24 5.74005 132.013 5.67072 128.823C5.52937 122.334 5.29967 115.829 5.81615 109.35C6.30416 103.227 7.42462 97.1464 9.19276 91.2629C10.0538 88.3976 10.9612 85.4169 12.3773 82.7694C13.8013 80.1075 16.0569 78.3349 18.5345 76.7093C21.1724 74.9785 23.7892 73.215 26.4168 71.4682C28.6225 70.0019 32.5918 68.2953 34.4015 66.335C36.3058 64.2724 36.6637 59.1596 37.9319 56.7162C39.1669 54.3363 42.6629 52.7837 45.3547 52.7837C49.8102 52.7837 53.1861 52.556 56.8498 56.6791C58.6777 58.7364 57.2233 60.8161 59.1393 62.7906C60.9008 64.6059 65.4057 66.4716 67.6761 67.5249C70.3953 68.7865 73.1831 69.9004 76.0114 70.8926C78.8965 71.9048 81.8542 72.6592 84.7555 73.6144C87.5365 74.53 91.1677 78.3041 93.3267 80.301C95.3338 82.1577 95.8319 81.9498 97.3578 84.2052C100.707 89.155 104.059 94.1617 106.726 99.5209C108.054 102.19 109.34 104.998 109.822 107.963C110.336 111.125 109.827 114.181 108.993 117.243C108.144 120.358 105.45 123.325 104.572 126.433C104.167 127.865 105.556 129.428 104.917 130.778C104.598 131.452 104.196 132.052 103.739 132.639C103.386 133.091 102.012 132.991 101.834 133.545C101.654 134.105 102.649 135.265 102.664 135.844C102.685 136.673 102.718 137.501 102.745 138.33L102.905 143.228C103.011 146.447 103.117 149.666 103.222 152.885C103.257 153.935 103.307 154.962 103.055 155.959C103.146 155.875 103.232 155.783 103.311 155.68C103.542 155.378 104.032 155.634 103.836 155.987C103.509 156.575 103.038 156.99 102.485 157.288C101.843 158.235 4.54786 160.351 4.06915 157.581C3.80055 156.027 4.28941 154.363 4.48487 152.819C4.68835 151.21 4.93018 149.609 5.10379 147.996Z" fill="white"/>
<path fill-rule="evenodd" clip-rule="evenodd" d="M103.937 107.969C103.699 107.287 102.611 107.582 102.85 108.269C104.083 111.799 103.209 115.642 101.876 119.012C101.609 119.689 102.7 119.979 102.963 119.312C104.365 115.766 105.232 111.677 103.937 107.969ZM95.6754 128.137C92.2003 128.626 88.7224 128.928 85.2233 129.172C85.0669 129.183 84.9316 129.159 84.8147 129.108C84.9189 130.711 85.0035 132.316 85.0697 133.92C86.0238 133.893 86.9975 133.956 87.9431 133.931C89.179 133.897 90.4135 133.835 91.6465 133.741C94.0337 133.56 96.4167 133.273 98.7771 132.875C99.6593 132.727 100.78 132.637 101.784 132.344C102.734 132.066 103.58 131.606 104.024 130.741C104.401 130.008 104.47 129.11 104.47 128.299C104.47 127.741 104.374 127.174 104.317 126.612C104.245 126.561 104.18 126.5 104.128 126.433C103.079 126.764 101.992 126.997 100.926 127.222C99.1914 127.591 97.4313 127.89 95.6754 128.137ZM97.6354 115.102C97.6162 116.18 97.3182 117.158 96.7383 118.066C96.3459 118.679 97.3221 119.244 97.7117 118.635C98.3944 117.567 98.7402 116.368 98.7627 115.102C98.7757 114.375 97.6483 114.377 97.6354 115.102ZM8.55531 126.857C8.08478 126.883 7.61128 126.899 7.13934 126.924C6.72306 127.281 6.14669 127.463 5.62035 127.35C5.60217 127.395 5.58569 127.446 5.57062 127.505C5.47761 127.868 5.4311 128.257 5.37755 128.626C5.324 128.99 5.28313 129.357 5.25494 129.723C5.24085 129.908 5.15208 130.325 5.26482 130.486C5.36628 130.631 5.59034 130.618 5.74535 130.636C6.16248 130.682 6.58524 130.703 7.00518 130.738C7.79857 130.807 8.59195 130.876 9.38393 130.945C10.1604 131.013 11.013 130.992 11.7725 131.196C11.9022 129.672 12.0206 128.148 12.1305 126.623C10.9538 126.796 9.72355 126.792 8.55531 126.857ZM107.217 124.329C106.743 125.244 106.307 126.144 105.4 126.693C105.282 126.764 105.15 126.802 105.014 126.812C105.116 127.247 105.179 127.693 105.236 128.105C105.36 129.011 105.386 129.949 105.159 130.842C104.938 131.712 104.572 132.489 103.853 133.046C103.519 133.305 103.154 133.503 102.771 133.659C102.836 133.841 102.874 134.021 102.854 134.22C102.946 134.681 103.006 135.151 103.072 135.6C103.218 136.598 103.363 137.598 103.477 138.602C103.705 140.598 103.884 142.594 104.035 144.597C104.186 146.595 104.294 148.596 104.384 150.597C104.431 151.621 104.472 152.644 104.51 153.669C104.548 154.722 104.718 155.799 104.253 156.776C103.878 157.566 102.612 157.521 102.223 156.776C101.729 155.83 101.875 154.707 101.862 153.669C101.849 152.692 101.832 151.714 101.811 150.737C101.769 148.737 101.707 146.737 101.658 144.737C101.61 142.785 101.55 140.833 101.511 138.881C101.491 137.859 101.49 136.837 101.484 135.815C101.481 135.248 101.457 134.643 101.5 134.052C101.147 134.136 100.792 134.206 100.441 134.278C97.7625 134.828 95.0554 135.228 92.3314 135.476C90.963 135.6 89.5905 135.688 88.2179 135.737C87.2089 135.774 86.1633 135.844 85.1388 135.806C85.2191 138.253 85.2558 140.702 85.2515 143.151C85.2487 144.917 85.2247 146.684 85.1811 148.45C85.1571 149.379 85.1374 150.308 85.1092 151.237C85.0965 151.655 85.0965 152.076 85.0683 152.492C85.0599 152.622 85.0415 152.747 85.0176 152.871C85.1106 153.135 85.1881 153.396 85.2515 153.64C85.5615 154.824 85.5616 155.962 85.4234 157.168C85.3051 158.192 84.444 159.14 83.3068 158.781C83.1222 158.723 82.9376 158.663 82.7544 158.601C81.0803 158.791 79.3963 158.835 77.6982 158.867C75.2165 158.915 72.7335 158.93 70.2505 158.943C65.3803 158.969 60.5086 158.981 55.637 158.995C45.8472 159.023 36.0574 159.05 26.2677 159.078C23.5507 159.087 20.8337 159.094 18.1168 159.103C16.7104 159.107 15.3068 159.108 13.9018 159.162C13.2466 159.187 12.5899 159.222 11.9346 159.232C11.175 159.245 10.5028 159.026 9.7771 158.828C9.36702 158.713 9.20496 158.302 9.29234 157.954C8.63564 158.11 7.83944 157.777 7.61537 157.037C7.4519 156.5 7.5125 155.918 7.75629 155.42V155.419C8.22697 152.445 8.82447 149.486 9.29374 146.512C9.8081 143.254 10.3027 139.989 10.7382 136.718C11.0651 134.248 11.3343 135.999 11.5668 133.518C10.5536 133.597 9.40788 133.288 8.40453 133.157C7.68442 133.064 6.95868 132.989 6.23716 132.891C6.29071 133.618 6.27522 134.36 6.29494 135.058C6.33299 136.443 6.31609 137.823 6.28085 139.209C6.21321 141.884 6.06242 140.327 5.82145 142.99C5.57766 145.673 5.27891 148.346 4.91674 151.016C4.73072 152.391 4.53202 153.764 4.32204 155.135C4.22482 155.775 4.12476 156.414 4.02189 157.054C3.89928 157.808 3.85983 158.523 3.29474 159.09C2.86493 159.52 1.98699 159.483 1.70233 158.884C1.34158 158.127 1.50504 157.478 1.63892 156.683C1.74742 156.045 1.85171 155.406 1.95458 154.768C2.17442 153.398 2.38298 152.028 2.57886 150.657C2.95653 148.013 3.31306 145.366 3.63154 142.715C3.95284 140.044 4.28542 141.604 4.60107 138.933C4.76031 137.585 4.91956 136.24 5.10557 134.897C5.19999 134.206 5.25918 133.47 5.38319 132.758C5.34373 132.753 5.30428 132.745 5.26482 132.738C4.40802 132.582 3.67663 132.098 3.46102 131.216C3.25527 130.371 3.50048 129.4 3.67381 128.571C3.82178 127.865 3.95551 126.964 4.40984 126.359C2.80898 124.319 1.76772 121.752 1.10356 119.285C0.380074 116.596 0.0772247 113.79 0.0131073 111.011C-0.0612946 107.792 0.181229 104.592 0.732651 101.445C0.745621 100.778 0.776337 100.112 0.825798 99.4455C1.31057 92.91 3.34547 85.1747 9.79683 82.121C9.82219 82.1084 9.84897 82.097 9.87575 82.0857C10.3817 81.481 11.013 80.9368 11.5231 80.428C12.4264 79.5256 13.3706 78.6628 14.3711 77.8677C16.3525 76.2932 18.5255 75.0357 20.7844 73.9035C23.0688 72.7574 25.3869 71.6819 27.6191 70.4313C29.5638 69.3401 31.314 68.0262 32.9755 66.5431C34.8427 64.8754 36.1716 62.6268 36.693 60.1724C36.7198 60.0443 36.91 60.0795 36.9128 60.202C37.0495 64.7006 34.0141 68.6761 30.5207 71.1911C26.3438 74.1955 21.3002 75.6178 17.0641 78.5305C16.0114 79.2537 15.0264 80.0699 14.0893 80.9368C15.5253 80.7902 16.9866 80.8832 18.3324 81.2808C18.8623 81.2483 19.395 81.2386 19.9262 81.2131C21.141 81.1525 22.3571 81.0962 23.5732 81.0425C26.052 80.9327 28.5323 80.8326 31.0125 80.7452C35.8785 80.5731 40.7459 80.4434 45.6133 80.3575C55.3946 80.184 65.1886 80.1501 74.9685 80.4336C77.6207 80.5098 91.5662 79.9811 92.857 80.1304C90.9588 78.4866 88.876 77.1447 86.586 76.0407C83.7211 74.6634 80.7604 73.7442 77.701 72.904C71.4004 71.1742 64.8575 69.5065 59.8153 65.1122C58.5625 64.0197 57.4492 62.7637 56.5375 61.3723C55.6666 60.0443 54.6985 58.344 54.6745 56.7242C54.6576 55.5739 56.2585 55.1551 56.8278 56.1405C57.1815 56.7509 57.3562 57.4206 57.6451 58.0606C57.9326 58.695 58.2736 59.3068 58.6527 59.892C59.3982 61.0424 60.3226 62.0686 61.3288 62.9948C63.4736 64.9713 66.0722 66.4191 68.761 67.5145C74.8657 69.9999 81.5425 71.0487 87.3273 74.3252C89.8582 75.7587 92.2807 77.7368 93.8012 80.2601C94.0464 80.2983 94.2902 80.3433 94.534 80.394C94.3522 80.1642 94.169 79.9346 93.9844 79.7061C93.8632 79.5566 94.0506 79.3594 94.1986 79.4918C97.0748 82.0519 99.7241 84.8165 102.125 87.8305C104.422 90.7149 106.564 93.7376 108.081 97.1153C110.806 103.183 111.406 110.123 109.999 116.611C109.615 118.379 109.074 120.11 108.385 121.783C108.03 122.647 107.645 123.499 107.217 124.329Z" fill="black"/>
<path fill-rule="evenodd" clip-rule="evenodd" d="M20.458 52.1829C21.0166 51.3565 22.3617 45.3594 23.2209 44.437C23.1561 40.8942 22.1771 28.6283 24.9734 23.1145C24.3852 22.5194 22.8221 17.3943 23.2209 15.4568C21.9035 11.3992 30.3663 4.95471 33.587 3.21325C48.5558 -4.81656 70.2466 4.04699 77.0541 18.9221C81.1449 27.8804 81.2203 37.9103 81.6828 47.5496C81.7374 49.6129 81.927 51.6922 81.9249 53.753C81.6291 55.5639 80.1938 57.408 81.2819 58.9138C82.4838 59.7455 84.913 61.7715 83.8314 62.9204C83.1975 63.4484 82.185 63.1421 81.4972 63.6497C81.147 63.8457 80.9286 64.2752 80.519 64.3406C76.7782 64.1984 74.1384 64.1862 70.3859 64.0345C68.7432 63.9808 66.2418 64.6758 64.3563 63.2921C57.7699 66.9569 60.5249 61.6399 59.193 57.8545C55.1373 59.2263 47.0584 63.6009 42.7353 63.7422C39.2223 64.1765 35.9373 62.1299 32.4836 62.5958C28.193 64.1904 23.1647 64.5449 19.2345 61.847C18.2537 61.1403 17.1625 61.9589 15.9263 61.1958C13.5238 60.0464 19.2455 53.458 20.458 52.1829Z" fill="white"/>
<path fill-rule="evenodd" clip-rule="evenodd" d="M25.361 22.6441C25.4142 22.338 24.9928 22.1098 24.8297 22.4199C23.6453 24.6729 23.1708 27.2821 22.7513 29.7706C22.3275 32.2853 22.0475 34.8105 22.032 37.3633C22.0202 39.3269 22.1984 41.3133 22.5331 43.2783L22.4924 43.4182C22.4172 43.675 22.3414 43.9317 22.2647 44.1882L22.1491 44.5728C21.9256 45.3112 21.7139 46.053 21.4844 46.7896C21.0051 48.327 20.5005 49.8687 19.8824 51.3564C19.2793 52.8082 18.5458 54.2082 17.6739 55.5167C16.8336 56.7782 15.5 57.8448 14.908 59.2458C14.7017 59.734 15.0068 60.3794 15.5767 60.3015C15.6138 60.3462 15.6703 60.3786 15.7469 60.3853C16.1894 60.424 16.6042 60.3872 17.0457 60.3457C17.2921 60.3226 17.2917 59.9855 17.0457 59.9624C16.8581 59.9448 16.6755 59.9293 16.493 59.9187C17.7556 59.1703 18.6564 57.7088 19.3766 56.5123C20.3022 54.9751 21.0013 53.2955 21.5712 51.597C22.1564 49.8532 22.5709 48.0729 22.9039 46.2653C22.9421 46.0572 22.9784 45.849 23.0134 45.6405C23.4342 47.4299 23.976 49.1866 24.6182 50.875L24.7082 51.11C26.1886 54.9492 28.1936 58.8254 31.5285 61.363C31.6799 61.4781 31.8345 61.5873 31.9903 61.6942L31.8006 61.803C31.6118 61.9108 31.4258 62.0143 31.2439 62.0992C30.57 62.4137 29.8385 62.6535 29.1148 62.8234C27.6202 63.1746 26.0506 63.0739 24.5259 63.1228C24.0258 63.1389 23.7412 63.889 24.2525 64.1326C25.9366 64.9349 27.7556 64.7646 29.494 64.2002C30.3542 63.9206 31.1614 63.5294 31.9082 63.0186C32.2169 62.8076 32.5754 62.5471 32.8781 62.246C36.2133 64.1128 40.3586 64.3217 44.0708 63.654C45.9998 63.3069 47.8691 62.6732 49.5138 61.5893C51.0958 60.5469 52.2235 59.2271 53.0285 57.5172C53.1 57.3656 52.9014 57.1769 52.7795 57.325C50.2507 60.3976 45.8988 61.6797 42.0703 61.9235C40.0275 62.0538 37.9377 61.9455 35.9737 61.3341C34.1106 60.7539 32.512 59.6903 31.1772 58.2759C28.4717 55.4089 26.8505 51.5087 25.6862 47.7969C24.4196 43.7589 23.8165 39.5105 23.6921 35.2846C23.6291 33.1436 23.7084 30.9845 24.0445 28.8672C24.3779 26.7674 24.9967 24.735 25.361 22.6441ZM63.2759 4.45385C63.0968 4.36278 62.9706 4.59976 63.1226 4.71634C66.2759 7.13563 69.1 10.2033 71.3857 13.4501C75.6011 19.4383 78.3045 26.3679 79.5494 33.5684C80.2845 37.8206 80.4764 42.1373 80.403 46.4462C80.3739 48.1579 80.2762 49.8644 80.1675 51.5713L80.0447 53.4635C79.9878 54.3451 79.9402 55.2191 79.977 56.105L79.987 56.3096C80.0453 57.3405 79.944 58.3796 80.2024 59.3852C80.3351 59.9009 81.0621 59.9821 81.3253 59.5319C81.3769 59.4438 81.4251 59.3529 81.4719 59.2611C82.0888 60.2677 82.8878 61.1675 83.7744 61.9714C83.3506 61.8811 82.9228 61.8236 82.4835 61.8762C81.7872 61.9597 81.1627 62.2287 80.7208 62.7001C80.2821 62.5023 79.831 62.3661 79.3123 62.3633C78.9302 62.3613 78.6437 62.8131 78.8617 63.1488C79.2966 63.8187 79.9034 64.1943 80.5929 64.5655C81.0816 64.8286 81.6648 64.6036 81.8453 64.0833L81.8556 64.0518C82.0587 63.3937 83.1387 63.5 83.6482 63.6018L83.7982 63.6324C84.7467 63.8298 85.673 64.0826 86.6393 63.822C87.2626 63.6538 87.4255 62.7152 86.8246 62.4036C84.9264 61.4196 83.3329 60.0978 81.6952 58.7707C82.0568 57.8838 82.2621 56.8928 82.4989 55.991C82.8322 54.7217 82.9295 53.3559 83.0499 52.052C83.2786 49.573 83.3658 47.067 83.3413 44.5782C83.2583 36.172 81.8212 27.7398 78.1504 20.1278C76.5422 16.7933 74.4295 13.7078 71.9322 10.9767C69.4498 8.26161 66.5503 6.11764 63.2759 4.45385ZM66.2148 45.6208C66.3122 45.4857 66.1221 45.3071 65.9888 45.3947C63.1026 47.2912 61.0996 50.1711 59.8073 53.3347C58.528 56.4668 57.7425 60.3032 59.0042 63.5693C59.205 64.0895 60.1667 64.2826 60.2653 63.5693C60.7051 60.3838 60.7734 57.1938 61.7406 54.0968C62.6994 51.0268 64.34 48.2155 66.2148 45.6208ZM68.4527 55.9624C68.4369 55.9061 68.345 55.9158 68.349 55.9765C68.4212 57.0998 68.4703 58.2367 68.6115 59.3538C68.6801 59.8967 68.7709 60.4361 68.8481 60.9777C68.9273 61.5332 68.9153 62.094 69.2382 62.5684C69.666 63.1973 70.8027 63.0203 70.7645 62.1549C70.7381 61.5578 70.4639 61.1747 70.207 60.6507C70.0422 60.3147 69.8986 59.9674 69.7602 59.6185L69.5544 59.0953C69.1454 58.0576 68.7541 57.0373 68.4527 55.9624ZM73.6209 52.9867C73.6034 52.8983 73.461 52.9196 73.4652 53.0077C73.5423 54.5977 73.7215 56.1697 74.0023 57.7364C74.1302 58.4504 74.2795 59.1606 74.4373 59.8686L74.5055 60.172C74.6743 60.9178 74.7832 61.7945 75.1615 62.4607C75.5394 63.1266 76.4368 62.643 76.3205 61.9718C76.1847 61.1883 75.704 60.4001 75.4246 59.6476C75.1667 58.9528 74.9412 58.2458 74.7305 57.5355C74.2871 56.0401 73.9233 54.5167 73.6209 52.9867ZM63.9965 57.4007L63.9629 57.3662C63.8316 57.2234 63.6357 57.3186 63.573 57.4693C63.3163 58.0869 63.4448 58.8152 63.4631 59.4708L63.4665 59.6138C63.4802 60.278 63.4707 60.9002 63.7717 61.5133C64.1373 62.2578 65.1005 61.7954 65.175 61.1331C65.2565 60.4103 64.9147 59.7027 64.694 59.0258C64.5538 58.5955 64.4517 58.1481 64.2384 57.7576C64.4208 57.789 64.6029 57.852 64.7696 57.8975C64.8443 57.9177 64.8725 57.808 64.8011 57.7826C64.5255 57.685 64.2144 57.6117 63.9965 57.4007ZM25.5732 59.5924C25.6613 59.4939 25.5515 59.3627 25.4372 59.4159C24.0647 60.0572 22.7809 60.4744 21.2664 60.611C20.6101 60.6702 20.606 61.7016 21.2664 61.6418C22.847 61.4994 24.5035 60.7905 25.5732 59.5924ZM73.8633 37.9254C72.6549 35.2061 68.832 32.7938 66.2685 35.3227C66.2205 35.3699 66.2694 35.4729 66.3391 35.444C67.9337 34.783 69.8857 35.6238 70.9893 36.8263C71.8648 37.7802 72.3909 39.005 72.4953 40.2959C72.5997 41.5879 72.2909 42.9365 71.4332 43.9359C70.9832 44.4602 70.3755 44.9564 69.6605 45.0194C68.9386 45.083 68.3368 44.5743 67.6544 44.4362C67.1399 44.3322 66.7515 44.6551 66.701 45.1625C66.5898 46.2823 67.7042 47.0338 68.6703 47.2164C69.7094 47.4126 70.77 47.1982 71.6654 46.6349C74.5574 44.8154 75.1812 40.8914 73.8633 37.9254ZM46.7297 11.2721C46.2042 10.7697 45.3103 11.2691 45.5042 11.9859C45.9166 13.5112 46.7929 14.8004 47.7639 16.0241C48.6981 17.2014 49.6989 18.3327 50.7716 19.3857C51.8372 20.4317 52.995 21.3997 54.2119 22.2643L54.5784 22.524C55.4408 23.1321 56.3542 23.7472 57.3196 24.1852C57.5527 26.1941 58.0087 28.1763 58.6987 30.0739C59.3631 31.9013 60.2086 33.6673 61.2331 35.3199L61.3802 35.5566C62.3216 37.066 63.4537 38.7528 65.0512 39.5802C65.0991 39.6052 65.1472 39.6204 65.1945 39.6293C64.8372 39.8677 64.5352 40.1675 64.3556 40.5984C64.1589 41.0701 64.5701 41.5151 64.9643 41.6709C65.7978 42.0004 66.6109 41.4427 67.3602 40.8477C67.3919 40.9191 67.4218 40.9911 67.4474 41.0637C67.615 41.5388 67.6643 42.0243 68.0964 42.3396C68.3017 42.4894 68.5547 42.3553 68.6839 42.1856C69.1075 41.6288 68.6689 40.8702 68.2965 40.4151C68.2449 40.3522 68.1916 40.2924 68.1368 40.2351C68.2942 40.1193 68.4478 40.0167 68.5967 39.9379C69.4716 39.4744 70.7687 39.3922 71.2725 40.4183C71.3111 40.4971 71.4324 40.4564 71.4324 40.3749C71.4311 39.1144 70.1404 38.4299 69.0204 38.3368C68.2021 38.2689 67.4106 38.556 66.674 38.8903L66.5365 38.9535C66.2624 39.0808 65.98 39.2009 65.7097 39.3352C65.7537 39.2192 65.753 39.0827 65.6838 38.9474C64.8367 37.2925 63.3822 35.9467 62.3331 34.414C61.2929 32.8935 60.3997 31.2662 59.6868 29.567C58.9949 27.9177 58.4527 26.2167 58.0737 24.4817C58.1985 24.5075 58.3393 24.3963 58.3304 24.2659C58.3093 23.9504 58.155 23.6661 57.884 23.545C57.5855 21.9131 57.4332 20.2535 57.4421 18.5806C57.4428 18.4509 57.2549 18.4555 57.2439 18.5806C57.112 20.068 57.1013 21.57 57.2122 23.0632C56.5073 22.4144 55.764 21.7976 55.0853 21.1317C54.064 20.1296 53.076 19.1008 52.123 18.0337C51.1506 16.9451 50.2316 15.8165 49.3911 14.6223L48.9513 13.996C48.275 13.0359 47.5804 12.0858 46.7297 11.2721ZM48.0557 0.55425C42.2559 0.192083 36.0619 0.90514 30.8523 3.62866C27.9912 5.12427 25.7797 7.38482 24.1996 10.198C23.2561 11.8779 22.5404 13.7381 22.2693 15.6505C21.9908 17.6156 22.3177 19.3678 23.5719 20.9298C24.0701 21.5501 24.9091 20.8572 24.7864 20.2225C24.0356 16.3395 25.2534 12.503 27.4133 9.28828C30.5475 4.62338 36.021 2.55118 41.3502 1.6268C43.9685 1.17285 46.6242 0.9831 49.2806 1.07544C51.3057 1.14593 53.3832 1.33469 55.3051 2.01631C55.3861 2.04507 55.4184 1.91876 55.3403 1.88901C53.0478 1.01313 50.4887 0.706223 48.0557 0.55425ZM39.4541 9.33465C39.1555 9.14532 38.7903 9.33958 38.6877 9.64677C38.3258 10.7297 39.0842 12.1605 39.5915 13.0977C40.1656 14.1583 40.9039 15.1499 41.6663 16.0813C43.1915 17.9442 45.1961 19.4986 47.3959 20.4756C47.5306 20.5355 47.6876 20.3728 47.564 20.2578C45.862 18.6722 44.3187 16.9723 42.9828 15.0653C42.3264 14.1283 41.7789 13.1397 41.2561 12.1243C40.7882 11.2156 40.3483 9.90165 39.4541 9.33465ZM29.6999 10.6104C29.5091 9.94388 28.4223 10.0574 28.4673 10.7773C28.5835 12.6372 29.4606 14.5042 30.4137 16.0804C31.3951 17.7035 32.6378 19.1499 34.0624 20.3991C34.1326 20.4607 34.2287 20.3658 34.1651 20.2963C32.936 18.9503 31.9432 17.417 31.2081 15.7484C30.4737 14.0822 30.1965 12.3437 29.6999 10.6104ZM35.1013 10.3093C34.8935 9.72972 33.8986 9.77272 33.9596 10.4639C34.1273 12.364 35.242 14.3553 36.2744 15.9246C37.3699 17.5897 38.7682 19.0566 40.3311 20.2885C40.3895 20.3346 40.4722 20.2582 40.4152 20.2044C39.0115 18.8813 37.8731 17.353 36.9719 15.6483C36.512 14.7785 36.1261 13.8727 35.8214 12.9371C35.5396 12.0715 35.4073 11.1625 35.1013 10.3093Z" fill="black"/>
<path fill-rule="evenodd" clip-rule="evenodd" d="M44.619 48.2113C43.5969 48.0139 42.3254 48.4439 41.3061 48.6323L41.2301 48.6459C39.9941 48.8619 38.7607 49.123 37.5111 49.2504C36.318 49.3724 35.0996 49.3942 33.9064 49.2571C33.3335 49.1911 32.7654 49.0789 32.2088 48.9283C31.9706 48.8639 31.7344 48.792 31.5011 48.7122L31.4747 48.7021C31.3032 48.6313 30.8396 48.3644 30.8451 48.5131C30.7147 48.3627 30.5352 48.256 30.338 48.2041C30.0599 48.1309 29.7028 48.1996 29.47 48.3964C29.1671 48.1565 28.7128 48.3286 28.5097 48.6159C28.1615 49.1086 28.2748 49.6861 28.3198 50.2578L28.3236 50.3082C28.3618 50.847 28.4203 51.3821 28.4925 51.9169L28.5243 52.1461C28.6366 52.9371 28.6674 54.2417 29.6255 54.5009C30.3833 54.7062 31.0768 53.9262 31.5653 53.3072L31.8327 52.9643C32.1493 52.5624 32.4368 52.1486 32.6685 51.6917C32.774 51.4838 32.876 51.2708 32.9644 51.0549C32.9755 51.0277 32.9837 51.0033 32.9921 50.9788C34.3974 51.168 35.8359 51.1409 37.2449 50.9551C38.1369 50.8374 39.0157 50.6674 39.8812 50.439L40.2717 51.1451C40.7287 51.9686 41.1922 52.7895 41.6794 53.5943L41.7172 53.6556C42.1732 54.3815 42.9369 55.1085 43.8397 54.5648C44.6476 54.0782 44.682 52.9712 44.7671 52.1452C44.8239 51.5935 44.87 51.0379 44.8921 50.4831L44.9001 50.2454C44.9146 49.7075 45.0021 49.0839 44.7954 48.5808C44.7654 48.5075 44.6601 48.4511 44.5967 48.5282C44.1648 49.0535 44.0341 49.8676 43.8476 50.5123C43.6399 51.2296 43.339 52.013 43.231 52.7571L43.2009 52.7046C43.0946 52.5025 42.9861 52.3015 42.8771 52.1008L42.5501 51.4987C42.2569 50.9551 41.9582 50.4149 41.657 49.8759C42.001 49.7466 42.3418 49.6077 42.6813 49.4665L43.4518 49.1443C43.8918 48.9583 44.3406 48.7484 44.6714 48.4101C44.73 48.3502 44.7096 48.2286 44.619 48.2113ZM30.0029 50.1974C30.7621 50.5061 31.5473 50.7288 32.3467 50.8766C32.2952 50.9295 32.2437 50.9823 32.1958 51.0379C32.0077 51.2557 31.8081 51.4649 31.6073 51.6717L31.4868 51.7956C31.1793 52.1113 30.7174 52.631 30.246 52.9331L30.2205 52.7968C30.2164 52.7733 30.2131 52.7529 30.2114 52.7371L30.1611 52.2886C30.153 52.2138 30.1451 52.139 30.1377 52.0642C30.0971 51.6597 30.0648 51.2544 30.031 50.8494C30.0132 50.6359 30.009 50.4167 30.0029 50.1974ZM38.9867 24.1355C37.1787 23.3629 35.0329 23.7277 33.4756 24.8946C31.882 26.0888 31.1852 28.0304 31.093 29.9674C29.8327 28.8909 28.0178 29.7057 26.9564 30.7144C25.7315 31.8784 25.112 33.6351 25.3975 35.3023C25.6821 36.9639 26.884 38.4297 28.5101 38.9239C29.2881 39.1603 30.1552 39.1656 30.9378 38.9457C31.2036 38.8709 31.5293 38.755 31.8302 38.5936C31.813 38.6626 31.7955 38.7319 31.7791 38.8008C31.3887 40.4543 31.1673 42.3129 31.7532 43.9481C32.695 46.5758 36.04 48.0467 38.1285 45.7144C38.9485 44.7988 39.5859 43.3648 39.5363 42.1164C39.5102 41.4604 39.1387 40.7016 38.3718 40.746C37.7772 40.7803 37.4952 41.2782 37.6474 41.805L37.6567 41.8354C37.9791 42.8427 37.4287 44.2982 36.6312 44.9851C35.4083 46.0386 33.7301 45.1219 33.0614 43.8865C32.2821 42.4467 32.3769 40.6008 32.6261 39.0344C32.8707 37.4963 33.4162 36.0895 33.9953 34.6664C34.0567 34.6775 34.119 34.6878 34.1827 34.6964C35.3343 34.8528 37.6774 34.9117 38.9498 34.0771C38.8131 35.3652 39.0812 36.6912 39.8128 37.782C40.6278 38.9975 41.8558 39.6407 43.2851 39.8378C44.6731 40.0295 46.2822 40.0683 47.6526 39.7393C50.5709 39.0386 51.6 35.4343 50.7174 32.8324C50.1953 31.2934 48.7384 29.9091 47.1191 29.5595C46.2848 29.0106 45.1647 28.848 44.2019 28.9229C42.7639 29.035 41.3477 29.6565 40.3846 30.7481C40.0167 31.1651 39.7141 31.6372 39.4809 32.1425C39.4025 32.0807 39.3112 32.0344 39.2081 32.0101C39.047 31.9723 38.9061 31.9639 38.7485 32.0194C38.67 32.0472 38.5569 32.1453 38.4888 32.209L38.3333 32.3917C38.1427 32.614 37.9614 32.8004 37.622 32.9386C36.6759 33.3239 35.3926 33.4075 34.3874 33.3287C31.8227 33.1279 32.1457 29.7294 32.7774 27.9834C33.5257 25.915 35.6705 24.6283 37.8526 24.9957C38.7901 25.1535 39.6845 25.6527 40.3708 26.305C41.1369 27.0332 41.4649 27.9129 41.9245 28.8348C41.9517 28.8893 42.0455 28.8775 42.0572 28.8173C42.4349 26.8735 40.6441 24.8437 38.9867 24.1355ZM52.647 39.8067C52.7249 39.7152 52.6226 39.5544 52.511 39.6302C51.6935 40.1858 50.7844 40.5867 49.7962 40.6952C49.332 40.7459 48.8641 40.7494 48.4017 40.6782C48.0079 40.6173 47.6529 40.4972 47.2597 40.6058C47.0504 40.6636 47.0124 40.9065 47.1402 41.0587C47.7342 41.766 49.1965 41.5771 49.9939 41.3875C51.025 41.1425 51.9597 40.6145 52.647 39.8067ZM25.1376 38.5154C24.7363 38.2665 24.2585 38.7593 24.4959 39.1572C25.1052 40.1783 26.8714 40.2615 27.896 40.017C27.9762 39.9982 27.9579 39.8723 27.8767 39.8745C27.2878 39.889 26.7555 39.7758 26.2482 39.4685C25.8147 39.2059 25.5561 38.7748 25.1376 38.5154ZM44.7204 30.353L44.8008 30.3536C45.7376 30.3687 46.5956 30.7261 47.4983 30.915C47.5731 30.9308 47.6482 30.9228 47.716 30.898C48.8155 31.6317 49.5734 32.7855 49.6762 34.3037C49.7475 35.3552 49.4909 36.5009 48.8668 37.3638C48.1564 38.346 47.012 38.4975 45.885 38.5268L45.7705 38.5294C43.64 38.571 41.2962 38.4451 40.5368 36.0623C39.9748 34.2989 40.575 32.158 42.1405 31.1017C42.9008 30.5887 43.8089 30.3521 44.7204 30.353ZM27.5563 31.6176L27.6188 31.5447C28.4544 30.5856 29.7793 29.712 31.0855 30.195L31.0817 30.3566C31.0813 30.3835 31.081 30.4105 31.081 30.4374C31.085 32.2895 31.8024 34.018 33.5657 34.5615C33.0927 35.2366 32.7126 35.9858 32.4082 36.7633C32.3008 36.6931 32.1702 36.6485 32.0186 36.6331C31.3978 36.5703 31.0421 37.1535 30.5038 37.371C29.9999 37.5749 29.4283 37.6274 28.8963 37.5221C27.7326 37.2919 26.9161 36.288 26.63 35.174C26.3066 33.9147 26.7339 32.5945 27.5563 31.6176ZM45.2711 33.1764C44.883 32.5206 43.9257 32.6156 43.542 33.1937L43.5236 33.2225L43.5195 33.2172C42.8803 34.0458 43.1892 35.3546 44.1173 35.8206C44.8617 36.194 45.8086 36.096 46.3035 35.369C46.4144 35.2061 46.4856 35.0143 46.5117 34.8202C46.5294 34.6881 46.5193 34.5562 46.4897 34.4249L46.4972 34.4556C46.4825 34.3894 46.4592 34.2856 46.4532 34.2608C46.3878 33.9935 46.2309 33.7068 46.0346 33.5132C45.8324 33.3139 45.5516 33.1926 45.2711 33.1764ZM29.3234 32.4952C28.9797 32.4952 28.6747 32.639 28.4264 32.867C28.0733 33.1914 28.0241 33.6583 28.1003 34.1014C28.1237 34.2366 28.1558 34.3672 28.1895 34.5003L28.2185 34.6207C28.2236 34.6407 28.229 34.6605 28.2352 34.6801C28.2563 34.7625 28.29 34.8383 28.33 34.9107C28.477 35.4581 29.0721 35.7299 29.5968 35.6105C29.8437 35.5543 30.0898 35.3493 30.2155 35.1344C30.257 35.0637 30.286 34.9932 30.3066 34.9224L30.4087 34.6801C30.4279 34.622 30.4399 34.5597 30.4552 34.5003C30.4895 34.3674 30.5225 34.2364 30.5463 34.1014C30.6273 33.6435 30.5628 33.2096 30.2202 32.867C29.9902 32.6368 29.6485 32.4952 29.3234 32.4952ZM36.894 27.7467C36.2975 27.6666 35.69 27.9446 35.3815 28.4717C35.1135 28.9299 35.1146 29.5464 35.3815 30.0045L35.4041 30.0433C35.8957 30.8872 37.0424 30.9955 37.7322 30.3434L37.7656 30.3119C38.2092 29.8927 38.3091 29.1976 38.0794 28.6531C37.8695 28.1552 37.4292 27.8187 36.894 27.7467Z" fill="black"/>
<path fill-rule="evenodd" clip-rule="evenodd" d="M22.9215 40.1257C23.8703 41.4009 25.6293 41.807 27.2517 41.6668C30.7509 41.3298 31.8522 37.3542 31.9669 34.2641C29.6205 34.9244 32.1654 30.2477 24.1443 29.7334C21.3167 29.4977 22.0963 31.2061 20.847 32.4543C20.8727 35.0739 21.3085 37.9203 22.9215 40.1257ZM39.5884 37.1156C41.6543 46.7941 52.9671 44.4919 54.1555 35.7675C53.0581 34.9927 53.3472 33.0795 51.9839 32.3863C49.8233 31.0053 47.1224 31.0644 44.6688 31.0968C41.5326 31.3123 40.6389 32.612 39.0279 34.0299C39.1054 34.977 39.3289 36.0995 39.5884 37.1156ZM18.4401 28.1305C18.5561 28.1112 18.6722 28.093 18.7883 28.076C18.8789 28.0245 18.9853 27.9849 19.109 27.9611C19.3916 27.8893 19.6721 27.841 19.9523 27.8149C23.9731 26.9097 33.2748 28.1949 33.6587 31.6274C34.9391 32.055 36.047 31.6721 37.5311 31.7102C38.6607 26.9868 58.1899 27.6535 59.1292 30.5012C59.1327 30.5002 59.1362 30.4993 59.1399 30.4982C60.0423 30.2188 61.3728 30.2862 62.4057 30.2419C64.6113 30.1957 66.8194 30.3923 68.9773 30.8577C73.0182 31.5001 78.5331 32.2522 75.7227 37.3003C75.7222 37.3012 75.7217 37.3021 75.721 37.303L75.7206 37.3026C75.2363 37.7992 74.4143 37.3993 74.3837 36.727C75.3286 34.3354 73.1945 34.0483 71.5525 33.361C67.4667 31.8926 63.307 31.689 59.0814 32.1433C58.7635 32.5177 58.2811 32.8442 57.7712 33.0151C54.9459 33.4842 56.4349 35.5808 54.649 35.8858C54.9771 43.1942 46.1074 47.1836 40.9681 42.3793C38.9162 40.3723 38.427 37.3993 37.9513 34.7195C37.6997 34.6629 37.5398 34.5253 37.4464 34.3432C36.8414 33.739 36.4613 33.181 35.265 33.0151C34.0688 32.8493 33.1479 33.1821 33.0233 33.284C32.9919 33.3473 32.9582 33.4108 32.919 33.4742C32.8643 33.5688 32.7899 33.6442 32.7054 33.7036C33.8867 40.9813 28.239 45.5839 22.5375 41.8093C20.0601 39.478 19.5366 35.9087 19.4332 32.723C19.0973 32.5202 18.8847 32.1273 19.0009 31.6334C19.1612 30.9524 18.7855 30.3629 18.1871 30.0668C17.4097 29.6824 17.5472 28.2784 18.4401 28.1305Z" fill="black"/>
</svg>
