<svg width="132" height="131" viewBox="0 0 132 131" fill="none" xmlns="http://www.w3.org/2000/svg">
<path fill-rule="evenodd" clip-rule="evenodd" d="M58.8563 48.1114C52.851 47.6812 44.6176 48.872 42.8806 55.7221C42.342 58.2147 41.2806 59.3088 39.4974 60.939C28.179 75.4315 67.6693 77.8674 69.6994 63.7354C73.9761 65.2936 78.6317 65.6236 82.911 67.1986C85.232 68.0563 87.3365 69.4097 89.3533 70.8247C97.5772 76.6681 105.685 82.6782 113.879 88.5635C110.708 90.0243 104.679 95.6018 107.136 99.3498C107.708 100.08 108.558 100.583 109.309 101.117L109.705 101.4C110.558 102.011 111.993 103.053 112.786 103.619L112.933 103.725C112.99 103.767 113.055 103.813 113.113 103.855C107.391 112.225 100.693 119.948 93.2645 126.843C92.6319 127.431 92.891 128.747 93.8066 128.9L94.8973 129.06C98.4191 129.573 102.008 130.035 105.557 129.756C109.013 129.38 111.096 126.319 113.459 124.102C118.178 119.277 122.57 114.13 126.571 108.694L126.654 108.579C127.899 106.877 129.552 105.137 129.673 102.939C129.894 102.278 129.313 101.331 128.755 100.881L128.565 100.606C125.573 96.3012 122.187 92.1499 117.945 89.0326C117.96 88.5681 117.746 88.0798 117.321 87.7721L99.5913 74.9367C95.0168 71.7874 90.7649 68.0862 85.8066 65.5431C80.7365 63.101 75.0149 63.0051 69.8191 60.9669C69.709 59.498 66.6218 59.123 66.7193 59.3498C63.462 57.383 61.7852 55.0429 61.268 52.8921C60.751 50.7413 61.3936 48.7799 58.8563 48.1114ZM15.0129 94.1934C9.53072 85.9412 4.30517 95.0715 2.02285 100.574C-0.673706 108.105 4.91056 117.368 8.51804 123.86C9.84679 125.663 11.5943 129.466 13.9364 129.742C19.837 129.718 25.7457 129.302 31.6498 129.178C35.4621 128.232 30.1133 122.501 26.4186 124.594C25.2991 125.013 24.7398 126.285 23.6483 126.693C23.2505 126.778 23.2231 126.6 23.0613 126.204L23.0384 126.148C22.75 125.463 22.4703 124.774 22.1862 124.086C19.7825 118.164 17.2413 112.295 14.7145 106.428C14.1747 105.154 14.9318 104.104 15.9159 103.346C16.6695 102.726 19.9088 101.211 16.8567 101.877C18.032 99.1485 16.6198 96.3786 15.0129 94.1934ZM28.6237 82.8971C28.0958 82.8311 27.4179 83.3633 27.3367 83.8788C26.6634 88.152 27.4135 92.3768 28.3128 96.557L28.4784 97.3224C28.8101 98.847 29.1807 100.402 30.008 101.738C30.8523 103.102 32.1294 104.129 33.5956 104.754C38.2991 106.629 44.1486 104.775 47.6087 101.269C49.8223 98.2363 47.8763 94.4259 47.5049 91.1014C47.856 90.2057 47.9854 89.1695 48.1885 88.2459L48.2132 88.1356L49.0022 84.6902C49.1761 83.9302 48.6225 82.8903 47.7128 82.9947C41.3699 83.7225 34.9588 83.6898 28.6237 82.8971Z" fill="white"/>
<path fill-rule="evenodd" clip-rule="evenodd" d="M6.47203 93.1136C6.49106 93.0287 6.38921 92.9636 6.32317 93.0275C5.20731 94.1034 4.41937 95.4784 3.55421 96.7525C2.73047 97.9663 1.83397 99.1329 1.21951 100.472C0.648712 101.717 0.280487 102.98 0.170807 104.348C0.0611267 105.707 0.203262 107.068 0.44278 108.406C0.913971 111.042 1.92126 113.537 3.02705 115.962C4.10216 118.318 5.31696 120.608 6.59981 122.856L7.05957 123.658C7.62039 124.635 8.18737 125.61 8.79443 126.557C9.5499 127.735 10.2393 128.951 11.2355 129.934C11.9428 130.634 13.2758 129.934 12.9535 128.934C12.8136 128.498 12.7039 128.089 12.4867 127.684C12.3222 127.376 12.1364 127.077 11.9618 126.774C11.6126 126.167 11.2668 125.558 10.9176 124.951C10.1845 123.676 9.41223 122.424 8.68585 121.144C7.42561 118.925 6.23588 116.665 5.18381 114.338L5.05998 114.063C4.09195 111.909 3.17462 109.677 2.7495 107.347C2.3018 104.891 2.70248 102.577 3.57436 100.269C4.02541 99.0758 4.53242 97.9092 5.05957 96.7469L5.16089 96.525C5.67 95.4157 6.20972 94.3124 6.47203 93.1136ZM60.6593 50.6426C60.6492 50.599 60.5753 50.5957 60.5686 50.6426C60.2552 52.7276 60.9525 54.9332 62.0885 56.6676C62.7086 57.6148 63.473 58.4702 64.374 59.1577L64.4441 59.2107C65.3645 59.899 66.6081 60.5638 67.7507 60.1174C67.7865 60.1037 67.8201 60.0882 67.8514 60.0704C67.7227 60.2695 67.604 60.4789 67.4832 60.6883C67.1239 61.3119 66.8016 61.958 66.4512 62.5872C65.8245 63.7125 65.078 64.7191 64.1344 65.6003C60.3616 69.1231 55.064 69.9604 50.0889 69.9203L49.7374 69.9169C47.5521 69.9016 44.694 70.0132 43.0069 68.4309C42.1003 67.581 41.6011 66.3728 41.1501 65.2386C40.7069 64.1268 40.4035 62.9791 40.0353 61.8483C40.8042 61.321 41.5093 60.6772 42.0634 59.9247C42.6409 59.1409 43.0774 58.2586 43.3292 57.317L43.3663 57.1763C43.5611 56.4254 43.7569 55.4321 43.4434 54.7227C43.4075 54.641 43.2732 54.6466 43.2352 54.7227C43.0662 55.062 43.0337 55.4449 42.9296 55.8077C42.8088 56.2298 42.6722 56.6497 42.492 57.0494C42.1439 57.8242 41.6839 58.5609 41.1322 59.2059C40.6766 59.7398 40.1831 60.2304 39.619 60.6424C39.2866 60.068 38.5154 59.9907 37.8696 60.18C37.004 60.4329 36.1501 60.7578 35.3155 61.1009L35.1488 61.1698C34.3239 61.5124 33.3916 61.827 32.6193 62.2939C32.1504 62.5178 31.7005 62.7429 31.2774 62.9422C29.1694 63.9329 27.0926 64.984 25.0251 66.0556L24.5822 66.2855C23.7159 66.7367 22.8575 67.1924 22.1042 67.8217C21.3376 68.4621 20.7421 69.3377 20.1825 70.1584C18.9033 72.035 17.6979 73.9652 16.4331 75.8519C13.8791 79.6587 11.325 83.4656 8.75639 87.2635C8.13522 88.1828 7.43457 89.0796 6.8772 90.038C6.34333 90.954 6.35788 91.8944 6.46197 92.9166L6.48147 93.1044C6.68104 94.9795 7.02418 96.7804 8.07589 98.3884C9.73122 100.917 12.339 102.491 15.0979 103.575C14.761 103.826 14.4443 104.096 14.0425 104.269C13.4247 104.533 12.7654 104.67 12.0973 104.725C11.3843 104.782 10.5807 104.604 10.0032 105.088C9.77151 105.282 9.7648 105.748 10.0032 105.942C10.5584 106.395 11.2761 106.265 11.9526 106.189L11.9932 106.185C12.6211 106.115 13.24 105.999 13.8298 105.768C13.9753 105.711 14.1197 105.647 14.2596 105.577C14.2551 105.589 14.2529 105.604 14.2551 105.619C14.3559 106.391 14.5743 107.12 14.805 107.857L14.9513 108.324C15.249 109.278 15.549 110.23 15.8579 111.182C16.4457 112.993 17.086 114.788 17.7286 116.58L18.2832 118.127C18.8529 119.714 19.4298 121.298 20.0673 122.859C20.4612 123.821 20.8574 124.784 21.2525 125.746C21.6386 126.686 21.9599 127.7 22.4389 128.595C22.8329 129.331 23.9073 128.804 23.735 128.047C23.5089 127.054 23.0824 126.069 22.7568 125.102C22.4255 124.122 22.1009 123.14 21.764 122.161C21.1781 120.461 20.5292 118.784 19.877 117.108L19.2306 115.447C18.5964 113.819 17.9548 112.193 17.2692 110.586L17.1943 110.41C16.4818 108.73 15.7464 106.84 14.4521 105.538C14.4353 105.52 14.4118 105.511 14.3883 105.508C14.7062 105.336 15.0039 105.127 15.2658 104.879L15.2785 104.866C15.3821 104.757 15.8097 104.216 15.9474 103.893C16.1265 103.957 16.3055 104.018 16.4846 104.078C16.7969 104.184 17.0554 104.108 17.2379 103.941L17.5854 104.156C17.9569 104.383 18.3563 104.598 18.7667 104.609C19.2838 104.623 19.6901 104.337 19.9665 103.916C20.215 103.54 20.3627 103.134 20.6772 102.797C20.9864 102.465 21.3444 102.186 21.7101 101.919L22.1413 101.605C22.9319 101.028 23.6983 100.444 24.3349 99.6816C24.6549 99.2965 25.0836 98.8397 25.2784 98.3771C25.3164 98.2878 25.3399 98.2038 25.3444 98.1219C25.3869 98.4108 25.4306 98.7008 25.4742 98.9897C26.0853 103.055 26.5789 107.149 26.7367 111.26C26.8139 113.288 26.8486 115.318 26.758 117.346C26.7132 118.36 26.6393 119.372 26.5375 120.382C26.4871 120.888 26.4345 121.393 26.373 121.897L26.3587 122.014C26.341 122.168 26.3293 122.317 26.3427 122.459C25.8503 122.702 25.5671 123.315 25.3701 123.795C25.2202 124.16 25.3366 124.515 25.5783 124.771C25.2896 125.034 25.0321 125.343 24.8161 125.697C24.7725 125.769 24.8665 125.825 24.9224 125.78C25.2772 125.498 25.6589 125.266 26.0573 125.088C26.2666 125.167 26.495 125.189 26.7054 125.13C26.9337 125.068 27.1307 124.915 27.2728 124.722C28.4044 124.536 29.5807 124.763 30.5991 125.472C30.8107 125.62 31.0021 125.787 31.1845 125.968C31.2158 125.999 31.2483 126.04 31.2808 126.079L31.0586 126.164C30.9665 126.199 30.891 126.226 30.8622 126.232C30.6682 126.272 30.4712 126.293 30.2742 126.31L29.9791 126.334C28.8453 126.428 27.7149 126.459 26.6606 126.934C26.439 127.034 26.5162 127.375 26.7255 127.432C27.4954 127.641 28.2594 127.625 29.0431 127.569L29.2113 127.557C29.9399 127.501 30.7223 127.504 31.433 127.303C31.2628 127.768 31.4945 128.376 32.2052 128.472C34.3396 128.756 36.4874 128.622 38.624 128.433C40.7819 128.243 42.9386 128.063 45.1021 127.95C52.1002 127.582 59.109 127.652 66.1134 127.752L70.0716 127.81C73.2282 127.854 76.3854 127.889 79.5419 127.865L81.0194 127.851C81.6438 127.845 82.2686 127.837 82.8924 127.819L83.2665 127.806C84.0096 127.78 84.9934 127.892 85.6392 127.451C86.172 127.089 86.2906 126.424 85.9694 125.887C85.8765 125.733 85.7489 125.595 85.6157 125.461C85.3426 123.126 85.1893 120.781 85.0326 118.436C84.4887 110.231 84.8065 102.069 86.0612 93.9467C89.4278 94.9758 92.7429 96.2667 95.973 97.6517C97.7201 98.4007 99.4583 99.1778 101.176 99.9929C102.744 100.737 104.319 101.668 105.995 102.152C106.147 102.287 106.36 102.351 106.549 102.291L106.573 102.283H106.574C106.747 102.323 106.938 102.298 107.126 102.185C107.164 102.162 107.202 102.139 107.24 102.115L107.297 102.079C107.887 101.707 108.48 101.249 108.898 100.689C109.405 101.16 109.95 101.591 110.486 102.027C111.068 102.502 111.648 102.979 112.223 103.46C112.451 103.652 112.703 103.834 112.905 104.055L112.934 104.087C112.939 104.093 112.943 104.098 112.947 104.103C112.075 104.667 111.312 105.524 110.628 106.269C109.894 107.068 109.185 107.892 108.482 108.72L107.801 109.523C102.988 115.209 98.1251 121.101 91.8934 125.28C90.9085 125.941 91.8475 127.55 92.8258 126.875C94.6769 125.6 96.4285 124.183 98.1107 122.693C101.059 120.083 103.711 117.155 106.195 114.104C107.452 112.56 108.672 110.978 109.867 109.386L110.273 108.846C110.813 108.125 111.351 107.403 111.866 106.664L111.974 106.509C112.425 105.857 112.906 105.125 113.197 104.374C113.309 104.487 113.435 104.582 113.62 104.654C113.935 104.777 114.323 104.519 114.4 104.211C114.588 103.464 113.939 103.019 113.411 102.623C112.769 102.144 112.116 101.681 111.461 101.221L111.227 101.056C110.408 100.475 109.585 99.8786 108.693 99.4196C108.666 99.3838 108.634 99.3502 108.597 99.3211C108.554 99.2875 108.513 99.255 108.47 99.2226C109.536 97.4938 110.704 95.8322 112.008 94.2624C112.989 93.0813 114.029 91.9537 115.131 90.8856L115.626 90.4064C116.374 89.6834 117.152 88.95 117.983 88.3216L118.243 88.6165C118.59 89.0093 118.94 89.3991 119.311 89.7682C120.041 90.4937 120.76 91.2339 121.477 91.9739C122.666 93.2052 123.816 94.4743 124.961 95.7453L125.534 96.3808C126.727 97.7053 128.005 99.0054 129.09 100.421L129.144 100.492C129.617 101.127 129.954 101.83 129.734 102.638C129.522 103.416 129.017 104.105 128.582 104.777L128.539 104.844C126.763 107.612 124.86 110.309 122.822 112.89C118.74 118.06 114.084 122.959 108.528 126.554C107.758 127.052 108.478 128.29 109.249 127.786C112.494 125.665 115.474 123.116 118.216 120.38C120.734 117.868 123.015 115.103 125.152 112.264C126.194 110.879 127.193 109.465 128.15 108.02C129.077 106.617 130.151 105.174 130.823 103.626C131.176 102.812 131.306 101.931 131.017 101.073C130.752 100.285 130.228 99.6306 129.684 99.0148L129.633 98.9572C128.38 97.5498 127.105 96.1592 125.819 94.782C124.529 93.4003 123.179 92.0679 121.801 90.7747C120.719 89.757 119.591 88.86 118.384 88.0293C118.493 87.9521 118.601 87.8782 118.712 87.8065C119.049 87.5871 119.134 87.1179 118.839 86.8201C118.032 86.0049 117.102 85.2961 116.226 84.554C115.404 83.8563 114.581 83.1577 113.759 82.459C112.084 81.0393 110.41 79.6184 108.736 78.1976C105.728 75.6459 102.738 73.0762 99.7403 70.5133C98.4905 69.445 97.2291 68.3899 95.9708 67.3318L93.7354 65.4498L92.642 64.5315C92.0818 64.0621 91.5097 63.598 90.8727 63.24C89.3738 62.3977 87.5718 62.0333 85.9203 61.587L85.8105 61.5572C83.9581 61.0501 82.0958 60.573 80.2233 60.1475C78.3486 59.722 76.4661 59.3346 74.5757 58.9841C72.8767 58.6684 71.1374 58.3975 69.4049 58.3572C68.9751 58.1937 68.4356 58.1366 68.0126 58.3113C67.838 58.384 67.6555 58.4904 67.4932 58.6248C66.646 58.3269 65.8099 58.1847 65.0186 57.6809C64.2285 57.1783 63.529 56.5176 62.9402 55.7898C61.7236 54.2827 61.0868 52.5025 60.6593 50.6426ZM41.1836 101.676C41.8552 101.629 42.4596 101.906 43.0595 102.202C42.7215 102.349 42.3835 102.494 42.0455 102.639L39.7958 103.599C39.0526 103.916 38.2658 104.192 37.5596 104.582C37.5092 104.61 37.4689 104.644 37.4387 104.683C36.7045 104.213 35.9278 103.793 35.1835 103.346C35.0134 103.244 34.8421 103.143 34.6709 103.041C35.5573 103.337 36.4661 103.486 37.4286 103.207C38.7124 102.837 39.8271 101.771 41.1836 101.676ZM39.3436 99.423L39.4643 99.341C40.1156 98.894 40.8928 98.3195 41.6839 98.721C42.0566 98.9102 42.3622 99.2159 42.7293 99.4196C43.0986 99.6257 43.5049 99.7835 43.9168 99.8787C44.6006 100.037 45.3841 100.06 46.1194 99.9077L46.1082 100.902C45.552 101.132 44.9991 101.367 44.4462 101.604C44.0872 101.481 43.7417 101.334 43.3785 101.172L43.1333 101.062C42.4338 100.747 41.7276 100.537 40.9542 100.637C39.4981 100.824 38.3979 101.906 37.0056 102.267C35.2988 102.71 33.7587 101.436 32.1459 101.122C31.88 101.069 31.6059 101.038 31.3335 101.034L31.2427 101.033L31.2024 101.01C30.8554 100.806 30.3361 100.611 30.0944 100.268C29.8314 99.8966 29.809 99.2741 29.7228 98.8374C29.7138 98.7937 29.7049 98.749 29.6971 98.7053C29.8493 98.7053 30.0037 98.713 30.1604 98.7422C30.6529 98.8329 31.1162 99.0076 31.5751 99.2025C32.4425 99.5708 33.2909 99.9907 34.2042 100.236C35.0984 100.476 36.033 100.591 36.9541 100.458C37.8528 100.328 38.5994 99.9224 39.3436 99.423ZM39.2035 95.9272L39.3383 95.8404C39.6941 95.6133 40.102 95.3781 40.5379 95.4616C40.9273 95.5367 41.262 95.8468 41.6011 96.0383C42.3454 96.4581 43.1804 96.6877 44.0321 96.7459C44.7405 96.794 45.4759 96.7078 46.1575 96.4973L46.134 98.6987C45.8844 98.7781 45.6259 98.8352 45.3539 98.8553C44.5279 98.9169 43.7221 98.7187 43.0293 98.263L42.6788 98.0303C42.079 97.636 41.5163 97.3232 40.7225 97.4671C39.9368 97.6103 39.2776 98.1141 38.6352 98.553L38.5298 98.6238C37.792 99.111 37.0442 99.4256 36.1393 99.4331C35.1622 99.4408 34.1963 99.1688 33.2864 98.8341C32.3832 98.5027 31.5247 98.1052 30.5589 97.9831C30.2634 97.9462 29.903 97.935 29.5639 97.9932C29.5191 97.7435 29.4766 97.495 29.4363 97.2453C29.349 96.7089 29.274 96.1737 29.2091 95.6374C30.9226 95.1761 32.5052 96.6686 34.0967 97.1288C35.0201 97.3953 36.0252 97.392 36.9485 97.1344C37.8029 96.8959 38.4745 96.4008 39.2035 95.9272ZM39.1993 92.2202C39.5653 92.1497 39.9268 92.3187 40.2379 92.4923C41.0314 92.9324 41.7164 93.5448 42.6151 93.7765C43.7713 94.0744 45.036 93.818 46.1843 93.3309C46.1799 94.0104 46.1743 94.6902 46.1687 95.3698C45.9527 95.4517 45.7311 95.5176 45.505 95.5702C44.7014 95.7539 43.8496 95.7292 43.0583 95.4975C42.2514 95.2611 41.6325 94.623 40.8233 94.4237C39.9958 94.2192 39.2158 94.617 38.549 95.0692L38.3483 95.2062C37.586 95.7237 36.8468 96.1733 35.8931 96.2611C34.8847 96.354 34.0083 96.0383 33.1073 95.6196L32.8976 95.5225C31.7569 94.9983 30.2762 94.4016 29.1374 94.9981C29.0479 94.1516 28.983 93.3053 28.9393 92.4576C29.096 92.3994 29.2583 92.3568 29.4452 92.3557C29.8918 92.3536 30.3608 92.4945 30.7771 92.6412C31.687 92.9625 32.5343 93.4417 33.4353 93.7855C34.2892 94.1124 35.235 94.2826 36.146 94.1361C36.9899 94.0005 37.6234 93.5593 38.2065 92.9547L38.2912 92.8653C38.5469 92.5932 38.8205 92.2938 39.1993 92.2202ZM38.5311 89.0773C38.953 88.8546 39.4668 88.6474 39.9547 88.7123C40.4203 88.7737 40.7306 89.0897 41.0173 89.4275L41.1726 89.6123C41.6855 90.2194 42.1904 90.7298 42.9811 90.9796C43.8004 91.2372 44.6689 91.1364 45.4311 90.7591C45.702 90.6247 45.9538 90.4579 46.2067 90.2933L46.1933 92.079C45.6874 92.3309 45.1726 92.5583 44.6074 92.6961C43.5642 92.9502 42.6778 92.7621 41.7858 92.1866L41.6921 92.1256C41.0203 91.6842 40.3314 91.1587 39.5015 91.1095C38.6916 91.061 38.0837 91.5102 37.5504 92.0599L37.488 92.125C36.8153 92.8348 36.1359 93.1809 35.1354 93.0991C34.1653 93.0198 33.2574 92.5914 32.3688 92.2222L32.2881 92.1889C31.4755 91.8551 30.5387 91.5115 29.6467 91.6391C29.4329 91.6693 29.1565 91.7354 28.9102 91.8507C28.8744 91.0153 28.8576 90.1791 28.8543 89.3416C29.3613 88.9016 30.1503 88.8288 30.7849 89.009C31.7788 89.2912 32.5925 90.019 33.5416 90.4142C34.3832 90.7647 35.2607 90.843 36.1192 90.5115C37.0056 90.169 37.7006 89.5162 38.5311 89.0773ZM28.9102 85.5593C30.3955 85.6109 31.8482 86.5771 33.2663 86.9455C34.8503 87.3567 36.1432 86.7961 37.5543 86.1738L37.7364 86.0935C38.4606 85.7755 39.2384 85.4899 40.0409 85.6198C40.8233 85.7476 41.5149 86.1808 42.1876 86.5726L42.3165 86.6469C43.5419 87.3448 44.7896 87.8225 46.2202 87.7034C46.2123 88.1525 46.2157 88.6003 46.2146 89.0393C45.9795 89.1736 45.7534 89.3259 45.5386 89.4647L45.4614 89.5136C44.7794 89.9402 44.0764 90.2206 43.2632 89.9574C42.4775 89.7021 42.1081 89.018 41.5687 88.4548C41.0728 87.9375 40.4259 87.623 39.7007 87.6531C38.9206 87.6843 38.183 88.0282 37.5383 88.4481C36.8937 88.8679 36.2703 89.4109 35.5159 89.6215C33.8236 90.0916 32.3742 88.3014 30.7738 88.0226C30.1022 87.905 29.3613 88.0539 28.8543 88.4592C28.8599 87.4941 28.8811 86.5267 28.9102 85.5593ZM41.694 85.154C41.9033 85.1619 42.1126 85.1708 42.3219 85.1798C43.0964 85.2134 43.8709 85.2514 44.6454 85.2951C45.1815 85.3241 45.8407 85.4888 46.3668 85.3253C46.3802 85.3791 46.3981 85.4307 46.4216 85.481C46.3422 85.8773 46.2929 86.2871 46.2627 86.7014C45.7769 86.754 45.2834 86.7361 44.8043 86.6365C43.6549 86.398 42.7215 85.6724 41.694 85.154ZM28.9326 84.8215C31.7608 85.0163 34.6107 84.9493 37.4436 85.0106L37.7834 85.0186C37.7969 85.0186 37.8103 85.0198 37.8237 85.0198C37.4989 85.1457 37.1766 85.2899 36.8553 85.4368L36.5344 85.584C35.7756 85.9333 35.0033 86.2188 34.1538 86.1572C33.2439 86.0912 32.3865 85.7196 31.5359 85.4194C30.7245 85.1328 29.79 84.9402 28.9248 85.0656C28.927 84.9838 28.9293 84.9032 28.9326 84.8215Z" fill="black"/>
<path fill-rule="evenodd" clip-rule="evenodd" d="M36.3311 19.3949C36.7633 16.7795 35.345 16.2368 36.3311 13.7506C38.5228 9.14396 44.4955 9.34245 48.8784 8.98825C53.767 8.80082 58.7148 9.44644 63.2215 11.4065C64.298 11.8747 65.3334 12.4252 66.3259 13.0507C67.1841 13.5917 67.0661 14.6202 66.525 15.1813C70.4272 20.7093 68.1953 28.1294 71.3089 33.9483C71.8841 34.9884 72.6448 35.9211 73.1448 37.0034C73.9047 38.6485 73.9534 41.0057 72.23 42.0982C69.8028 43.4015 68.4483 40.821 67.2556 44.5617C61.2993 57.6047 49.3238 58.3392 37.9551 51.5391C36.9716 50.9918 35.9677 50.3732 35.225 49.5133C33.5391 47.6153 33.7377 44.9463 33.7004 42.5762C33.6796 41.1872 33.6761 39.798 33.6897 38.4088C33.7427 32.7816 35.607 24.9758 36.3311 19.3949Z" fill="white"/>
<path fill-rule="evenodd" clip-rule="evenodd" d="M60.5454 3.75169C53.6812 0.636792 45.8958 -0.544452 38.4081 0.230354C34.7124 0.612182 31.0653 1.43137 27.5945 2.76204L27.2903 2.87966C26.4335 3.20955 25.5099 3.537 24.8588 4.20851C24.101 4.98892 23.8885 6.16904 24.4302 7.13307C24.851 7.88212 25.6076 8.41945 26.4145 8.70619C26.1303 8.93908 25.8605 9.19884 25.6076 9.48884C25.1812 9.97477 25.1487 10.6677 25.6076 11.1471C26.4918 12.0708 27.639 12.7391 28.8746 13.0594C28.7358 13.7301 28.8108 14.4725 29.1085 15.1409C29.9628 17.0596 32.3693 17.2883 34.2211 17.1744L34.2771 17.1708L34.3801 18.3498C34.4349 18.978 34.811 19.465 35.4489 19.5613C35.4713 19.5647 35.4938 19.5669 35.5161 19.569C34.5065 23.2215 33.8966 26.9868 33.3336 30.7299C33.0395 32.6839 32.7761 34.6423 32.5241 36.602L32.4404 37.2553C32.1718 39.3681 31.8361 41.5022 31.7197 43.6307C31.6156 45.5621 31.9838 47.4062 33.1735 48.9648C34.2413 50.3621 35.6974 51.409 37.2632 52.186C40.801 53.9427 44.5247 55.2505 48.4375 55.8574L48.6984 55.8976C50.2088 56.1282 51.765 56.3226 53.2591 55.9044C54.5719 55.5372 55.9486 54.5899 55.652 53.0683C55.5524 52.5544 54.8339 52.532 54.5876 52.9295L54.5308 53.0206C54.2355 53.4892 53.912 53.9248 53.3967 54.1666C52.7935 54.4511 52.094 54.5305 51.4348 54.5384C49.5937 54.5597 47.6764 54.1006 45.9036 53.6405C42.5929 52.7807 39.1927 51.3787 36.4808 49.2547C35.3269 48.3523 34.4002 47.2237 34.0734 45.7715C33.6693 43.9811 34.0409 42.024 34.2245 40.2247C34.6022 36.5119 35.0518 32.8061 35.5261 29.1044L35.6213 28.3641C36.0207 25.2694 36.4404 22.1735 36.6398 19.0608C36.7226 18.9477 36.7786 18.819 36.8009 18.6779L36.8322 18.4752C36.8591 18.3017 36.8636 18.1427 36.8446 17.996C36.8435 17.434 36.8278 16.8752 36.7953 16.3131C36.7899 16.2124 36.7853 16.1116 36.7819 16.012C37.3661 16.1407 37.9549 16.2449 38.5458 16.3333C42.7004 16.9592 46.9198 17.116 51.108 16.8047C53.1976 16.649 55.2714 16.3815 57.3387 16.0467C58.3909 15.8765 59.4395 15.6884 60.4848 15.4779C61.2403 15.3268 61.9801 15.1219 62.7233 14.9293C63.49 16.0456 63.9041 17.4194 63.8235 18.7686C63.7328 20.3081 62.7076 21.7043 62.9953 23.2775C63.2652 24.7497 64.5261 25.2062 65.7709 25.5708L66.3003 25.7238C66.7076 25.8428 67.0033 25.9576 67.0771 26.4472C67.2035 27.2881 67.048 28.2342 67.0155 29.0796C66.9763 30.0794 66.925 31.0793 66.9013 32.0791C66.889 32.5964 66.869 33.1159 66.87 33.6332C66.8711 34.0005 66.926 34.2513 67.0681 34.4885C66.9584 34.6264 66.86 34.7753 66.7726 34.9331C66.7447 34.9847 66.814 35.0394 66.8553 34.997C66.9663 34.8816 67.0839 34.7775 67.208 34.6845C67.2707 34.7618 67.3434 34.8402 67.4286 34.9242L67.4352 34.9152C67.7016 35.1806 68.1247 35.2063 68.4549 34.9242L68.5416 34.8491C68.7833 34.6371 68.9494 34.4605 69.0167 34.1102C69.02 34.0923 69.0235 34.0744 69.0256 34.0565C69.6401 34.0352 70.2646 34.1806 70.8175 34.4864C71.6939 34.9712 72.3106 35.662 72.6753 36.5152C72.5299 36.6854 72.3598 36.8377 72.1617 36.9653C72.1337 36.9844 72.1583 37.0258 72.1886 37.0112C72.3911 36.9161 72.5725 36.7985 72.7347 36.6608C72.8657 36.9967 72.9575 37.3572 73.0134 37.739C73.2104 39.0871 72.859 40.7341 71.6413 41.5022C71.1141 41.8347 70.512 42.015 69.8874 42.0173C69.5831 42.0183 69.32 41.9669 69.0245 41.8941C68.8242 41.8448 68.625 41.7732 68.4157 41.7732C68.2366 41.7732 68.0709 41.8179 67.9176 41.9075L67.9601 41.9112C68.0635 41.921 68.0436 41.9253 67.8997 41.9253C67.452 41.9445 67.1958 42.3991 67.4016 42.7943L67.4286 42.8554C67.4343 42.8677 67.4391 42.8779 67.4429 42.886L67.4592 42.9908C67.4608 43.0008 67.4625 43.0111 67.4643 43.0216L67.4705 43.0428C67.4717 43.0462 67.4729 43.0496 67.4744 43.0529L66.803 44.0772C65.9797 45.3303 65.1382 46.5785 64.1805 47.723C63.509 48.5258 62.7972 49.313 62.045 50.0419C61.369 50.6969 60.5587 51.0126 59.7932 51.5277C59.3845 51.8009 59.2649 52.373 59.6364 52.7414C60.7266 53.8241 62.27 52.9642 63.1643 52.0841C64.0104 51.25 64.7412 50.2468 65.3714 49.2424C66.4895 47.4566 67.3793 45.5576 67.7687 43.4963C67.931 43.6452 68.1381 43.7382 68.3474 43.8109C68.7671 43.9565 69.2293 44.017 69.6725 44.0326C70.522 44.0606 71.3726 43.8546 72.1371 43.4896C75.2474 42.0061 75.704 37.5632 73.8025 34.9432C74.0589 34.1994 74.2021 33.3923 74.3577 32.704L74.4285 32.3963C75.2147 28.9598 75.7427 25.3416 74.3487 21.9742C74.1696 21.5398 73.9681 21.1165 73.7297 20.7112C73.5383 20.3854 73.2093 20.0383 73.1186 19.6677C72.9172 18.8537 74.1606 17.9983 74.5233 17.3522C74.9497 16.5942 75.0101 15.6996 74.4292 15.0064C74.3554 14.9192 74.2749 14.8385 74.1875 14.768C74.7382 13.7693 74.7639 12.513 74.0386 11.5277C73.5618 10.8783 72.8344 10.4238 72.0397 10.286C71.554 10.2021 70.9697 10.2334 70.4359 10.3834C67.5126 7.66827 64.1772 5.39983 60.5454 3.75169ZM71.7711 37.7256C70.9909 37.037 70.1291 36.6765 69.0659 36.7672C67.997 36.8589 66.7099 37.3012 66.0821 38.2183C65.5862 38.9427 66.5969 40.0052 67.3244 39.4611C67.9869 38.9651 68.4291 38.4052 69.2517 38.1388C69.9905 37.9003 70.9049 37.7469 71.6783 37.8835C71.7633 37.898 71.8483 37.7928 71.7711 37.7256Z" fill="black"/>
<path fill-rule="evenodd" clip-rule="evenodd" d="M50.3496 44.4138C49.5378 44.2571 48.528 44.5985 47.7184 44.7481L47.6581 44.759C46.6764 44.9305 45.6969 45.1379 44.7043 45.2391C43.7568 45.336 42.7891 45.3533 41.8415 45.2444C41.3864 45.192 40.9352 45.1028 40.4931 44.9833C40.304 44.9321 40.1164 44.875 39.9311 44.8116L39.9101 44.8036C39.7739 44.7474 39.4057 44.5354 39.4101 44.6535C39.3065 44.5341 39.1639 44.4493 39.0074 44.4081C38.7864 44.35 38.5028 44.4045 38.3179 44.5608C38.0774 44.3703 37.7166 44.507 37.5553 44.7352C37.2787 45.1265 37.3687 45.5851 37.4044 46.0391L37.4074 46.0792C37.4378 46.5071 37.4843 46.9321 37.5416 47.3569L37.5668 47.5389C37.656 48.1671 37.6805 49.2033 38.4415 49.4092C39.0434 49.5722 39.5941 48.9527 39.9821 48.4611L40.1944 48.1888C40.4459 47.8695 40.6742 47.5409 40.8582 47.178C40.9421 47.0129 41.0231 46.8437 41.0933 46.6723C41.1021 46.6507 41.1086 46.6313 41.1153 46.6118C42.2314 46.7621 43.3739 46.7406 44.4929 46.593C45.2014 46.4995 45.8993 46.3645 46.5868 46.1831L46.8969 46.7439C47.2598 47.3979 47.6279 48.0499 48.0149 48.6891L48.0449 48.7378C48.4071 49.3143 49.0136 49.8917 49.7307 49.4599C50.3723 49.0734 50.3996 48.1942 50.4672 47.5382C50.5124 47.1 50.5489 46.6588 50.5665 46.2182L50.5729 46.0294C50.5844 45.6021 50.6539 45.1069 50.4897 44.7073C50.4659 44.649 50.3823 44.6043 50.3319 44.6655C49.9889 45.0827 49.8851 45.7293 49.7369 46.2413C49.572 46.811 49.333 47.4332 49.2473 48.0242L49.2233 47.9825C49.1389 47.822 49.0527 47.6624 48.9661 47.503L48.7065 47.0247C48.4735 46.593 48.2364 46.164 47.9971 45.7359C48.2703 45.6332 48.541 45.5229 48.8107 45.4107L49.4226 45.1548C49.7721 45.0071 50.1285 44.8404 50.3912 44.5717C50.4378 44.5241 50.4216 44.4276 50.3496 44.4138ZM38.7412 45.9912C39.3441 46.2364 39.9678 46.4133 40.6027 46.5306C40.5618 46.5726 40.5209 46.6146 40.4828 46.6587C40.3334 46.8317 40.1749 46.9979 40.0155 47.1622L39.9198 47.2606C39.6756 47.5112 39.3087 47.9241 38.9343 48.164L38.914 48.0557C38.9107 48.037 38.9081 48.0208 38.9068 48.0083L38.8669 47.6521C38.8604 47.5927 38.8541 47.5333 38.8482 47.4738C38.816 47.1526 38.7904 46.8307 38.7635 46.509C38.7494 46.3395 38.746 46.1654 38.7412 45.9912ZM45.8763 25.2923C44.4403 24.6787 42.7361 24.9684 41.4992 25.8952C40.2336 26.8437 39.6802 28.3857 39.607 29.9241C38.6061 29.0691 37.1646 29.7163 36.3216 30.5174C35.3488 31.4419 34.8568 32.8371 35.0835 34.1612C35.3095 35.4809 36.2641 36.6451 37.5555 37.0375C38.1735 37.2253 38.8621 37.2296 39.4837 37.0549C39.6948 36.9954 39.9535 36.9034 40.1924 36.7752C40.1788 36.8301 40.1649 36.885 40.1519 36.9398C39.8418 38.253 39.666 39.7292 40.1313 41.0279C40.8793 43.1148 43.536 44.2831 45.1947 42.4307C45.846 41.7035 46.3522 40.5646 46.3128 39.5731C46.2921 39.0521 45.9971 38.4494 45.388 38.4847C44.9157 38.5119 44.6917 38.9074 44.8126 39.3258L44.82 39.35C45.0761 40.15 44.6389 41.3059 44.0055 41.8515C43.0343 42.6882 41.7014 41.9601 41.1703 40.979C40.5514 39.8355 40.6267 38.3694 40.8246 37.1253C41.0189 35.9038 41.4521 34.7865 41.912 33.6562C41.9608 33.665 42.0103 33.6732 42.0609 33.68C42.9755 33.8042 44.8364 33.851 45.847 33.1881C45.7384 34.2112 45.9514 35.2643 46.5324 36.1306C47.1798 37.096 48.155 37.6069 49.2902 37.7634C50.3926 37.9157 51.6705 37.9465 52.759 37.6851C55.0768 37.1287 55.894 34.266 55.1931 32.1996C54.7784 30.9772 53.6213 29.8779 52.3352 29.6002C51.6727 29.1642 50.783 29.0351 50.0183 29.0945C48.8763 29.1836 47.7515 29.6772 46.9866 30.5442C46.6943 30.8754 46.4541 31.2503 46.2688 31.6516C46.2066 31.6026 46.1341 31.5657 46.0521 31.5465C45.9242 31.5165 45.8123 31.5098 45.6872 31.5539C45.6248 31.5759 45.5349 31.6539 45.4809 31.7045L45.3574 31.8496C45.206 32.0261 45.062 32.1742 44.7925 32.2839C44.041 32.5899 43.0218 32.6563 42.2235 32.5937C40.1865 32.4343 40.443 29.7351 40.9448 28.3484C41.5391 26.7056 43.2425 25.6837 44.9756 25.9755C45.7202 26.1008 46.4305 26.4973 46.9756 27.0153C47.584 27.5937 47.8446 28.2924 48.2096 29.0246C48.2312 29.0679 48.3057 29.0585 48.315 29.0107C48.6149 27.4669 47.1926 25.8548 45.8763 25.2923ZM56.7256 37.7387C56.7875 37.6661 56.7062 37.5383 56.6176 37.5985C55.9683 38.0398 55.2463 38.3582 54.4614 38.4443C54.0927 38.4846 53.7212 38.4874 53.3539 38.4309C53.0411 38.3825 52.7592 38.2871 52.4469 38.3733C52.2807 38.4193 52.2505 38.6122 52.352 38.7331C52.8238 39.2948 53.9852 39.1448 54.6184 38.9942C55.4374 38.7996 56.1798 38.3803 56.7256 37.7387ZM34.8771 36.7131C34.5583 36.5155 34.1789 36.9068 34.3674 37.2229C34.8513 38.0339 36.2541 38.0999 37.0678 37.9058C37.1315 37.8908 37.117 37.7908 37.0525 37.7926C36.5848 37.8041 36.1621 37.7142 35.7591 37.4701C35.4149 37.2615 35.2095 36.9191 34.8771 36.7131ZM50.4301 30.2303L50.494 30.2309C51.2381 30.2429 51.9194 30.5267 52.6364 30.6767C52.6958 30.6893 52.7555 30.6829 52.8093 30.6632C53.6826 31.246 54.2845 32.1623 54.3662 33.3681C54.4228 34.2032 54.219 35.1132 53.7233 35.7985C53.1591 36.5786 52.2502 36.6989 51.3551 36.7222L51.2641 36.7243C49.5721 36.7573 47.7106 36.6573 47.1075 34.7648C46.6611 33.3643 47.1378 31.6639 48.3811 30.825C48.985 30.4175 49.7062 30.2297 50.4301 30.2303ZM36.7981 31.2348L36.8477 31.1768C37.5114 30.4151 38.5636 29.7213 39.601 30.1049L39.598 30.2332C39.5976 30.2546 39.5974 30.276 39.5975 30.2974C39.6006 31.7684 40.1704 33.1412 41.5709 33.5729C41.1952 34.1091 40.8933 34.704 40.6515 35.3215C40.5663 35.2658 40.4625 35.2304 40.3421 35.2182C39.8491 35.1683 39.5666 35.6315 39.139 35.8042C38.7388 35.9661 38.2848 36.0079 37.8623 35.9243C36.9381 35.7414 36.2896 34.9441 36.0624 34.0593C35.8055 33.0591 36.1449 32.0106 36.7981 31.2348ZM50.8675 32.4728C50.5593 31.952 49.799 32.0273 49.4942 32.4865L49.4796 32.5094L49.4763 32.5052C48.9687 33.1633 49.214 34.2028 49.9511 34.5728C50.5424 34.8694 51.2944 34.7916 51.6875 34.2142C51.7756 34.0848 51.8321 33.9325 51.8528 33.7783C51.8669 33.6734 51.8588 33.5686 51.8353 33.4644L51.8413 33.4888C51.8296 33.4362 51.8112 33.3537 51.8063 33.334C51.7544 33.1217 51.6298 32.894 51.4739 32.7403C51.3133 32.582 51.0903 32.4857 50.8675 32.4728ZM38.2015 31.9318C37.9285 31.9318 37.6863 32.046 37.4891 32.227C37.2086 32.4847 37.1696 32.8555 37.2301 33.2074C37.2487 33.3148 37.2742 33.4186 37.301 33.5243L37.324 33.6199C37.328 33.6357 37.3323 33.6515 37.3372 33.667C37.354 33.7325 37.3808 33.7927 37.4126 33.8502C37.5293 34.285 38.0019 34.5008 38.4186 34.406C38.6147 34.3613 38.8102 34.1985 38.9101 34.0279C38.943 33.9717 38.966 33.9157 38.9824 33.8595L39.0635 33.667C39.0787 33.6209 39.0883 33.5714 39.1005 33.5243C39.1277 33.4187 39.1538 33.3147 39.1728 33.2074C39.2371 32.8437 39.1859 32.4991 38.9138 32.227C38.7311 32.0442 38.4597 31.9318 38.2015 31.9318ZM44.2143 28.1604C43.7405 28.0968 43.258 28.3176 43.013 28.7362C42.8001 29.1001 42.801 29.5897 43.013 29.9536L43.0309 29.9844C43.4214 30.6546 44.3321 30.7406 44.88 30.2228L44.9065 30.1977C45.2588 29.8648 45.3382 29.3127 45.1558 28.8803C44.989 28.4848 44.6393 28.2176 44.2143 28.1604Z" fill="black"/>
</svg>
