<svg width="111" height="163" viewBox="0 0 111 163" fill="none" xmlns="http://www.w3.org/2000/svg">
<path fill-rule="evenodd" clip-rule="evenodd" d="M100.519 160.243C99.7856 161.357 98.3437 161.186 97.7246 160.323C90.6753 161.966 83.4485 161.318 76.3012 160.916C56.1606 160.096 35.9065 162.666 15.8473 159.977C13.7195 159.552 11.2428 159.755 9.50166 158.279C6.7169 155.014 7.31665 150.057 7.76027 146.081C11.316 123.667 16.3713 101.047 18.893 78.4891C19.0339 76.3404 18.1487 73.6705 17.3552 71.6505C17.1592 71.2748 15.9203 70.9065 15.2775 70.473C13.3046 69.0563 13.6245 66.5176 15.3348 65.028C20.8722 61.1233 28.5807 62.4877 34.4548 63.9283C35.5805 59.6986 36.8459 56.9167 38.9892 56.6412C43.0688 56.1169 52.9648 54.5145 56.0131 56.6412C57.4714 57.6586 58.4074 61.2437 59.4571 62.9901C67.1127 62.8541 82.6502 52.6077 85.8446 64.146C88.4398 64.3252 91.0104 66.5919 90.5139 69.312C93.8798 72.2874 91.225 76.7488 91.2716 80.4523C91.7141 88.31 95.9643 95.3373 97.7325 102.928C101.774 117.65 106.349 144.429 101.336 158.799C101.444 158.743 101.679 158.828 101.527 158.947C100.959 159.107 100.885 159.822 100.519 160.243Z" fill="white"/>
<path fill-rule="evenodd" clip-rule="evenodd" d="M12.5031 156.499C13.4433 148.948 14.0971 139.833 14.1046 132.219C14.1053 131.501 12.9932 131.503 12.9925 132.219C12.985 139.833 12.3311 148.948 11.3909 156.499C11.3025 157.209 12.4158 157.2 12.5031 156.499ZM19.4681 109.68C20.9209 110.568 22.8287 109.952 24.2665 109.363C24.9212 109.095 24.6328 108.019 23.9709 108.291C22.8767 108.738 21.2774 109.398 20.1225 108.773C18.9699 108.15 18.9179 106.434 18.9093 105.302C18.9038 104.586 17.7918 104.586 17.7971 105.302C17.8088 106.842 18.0147 108.79 19.4681 109.68ZM22.1572 144.234C23.623 143.483 24.8736 142.455 25.8801 141.151C26.3176 140.584 25.351 140.031 24.9198 140.589C24.0339 141.737 22.8797 142.615 21.5959 143.274C20.958 143.601 21.5215 144.561 22.1572 144.234ZM29.2023 105.404C31.7173 115.486 33.405 125.748 34.2322 136.106C34.4004 138.209 34.5186 140.309 34.5853 142.411C34.652 142.959 34.716 143.508 34.7758 144.057C35.0024 146.135 35.1761 148.246 35.1609 150.338C35.1539 151.277 35.1247 152.212 35.0608 153.147C35.172 152.834 35.2748 152.52 35.3749 152.207C35.5793 151.566 35.7142 150.901 35.9227 150.264C36.0951 149.737 36.3175 149.233 36.5247 148.722V148.721C36.4621 146.63 36.6039 144.521 36.6762 142.44C36.7693 139.745 36.8847 137.052 36.9445 134.355C37.0641 128.962 37.0043 123.564 36.8097 118.174C36.419 107.312 35.4319 96.5017 34.4365 85.6841C34.1599 82.6759 33.8624 79.6691 33.6566 76.6551C33.4495 73.6095 33.3661 70.5581 33.3424 67.5041C33.341 67.2843 33.6747 67.226 33.7359 67.4386C33.7901 66.714 33.886 65.9908 34.0459 65.2913C31.6478 66.8211 29.1189 68.1438 26.6402 69.5345C25.3347 70.2675 24.0349 71.0129 22.6891 71.6694C21.9495 72.0308 21.203 72.3633 20.4412 72.6777C19.6515 73.0031 18.8966 73.4509 18.0277 73.2241C17.9526 73.2048 17.8817 73.1769 17.8136 73.1408C17.9123 73.3284 18.011 73.5149 18.1056 73.7042C18.4337 74.3563 18.7465 75.0114 19.0495 75.672C19.1302 75.7318 19.2011 75.814 19.2567 75.9209C19.404 76.2088 19.5472 76.4995 19.6863 76.7942C19.7141 76.7679 19.7419 76.7415 19.7697 76.7151C19.8865 76.6052 20.0477 76.7706 19.9448 76.8903C19.8976 76.9444 19.8517 76.9974 19.8058 77.0516C20.7122 79.0029 21.4491 81.0543 22.2081 83.0571C23.141 85.5186 24.0251 87.9984 24.8579 90.4948C26.4997 95.4056 27.9484 100.38 29.2023 105.404ZM65.1577 141.991C69.7929 144.475 74.1242 147.442 78.2902 150.643C78.8581 151.079 79.4114 150.112 78.8516 149.682C74.6856 146.482 70.3541 143.514 65.7189 141.031C65.0875 140.692 64.5264 141.653 65.1577 141.991ZM80.813 112.908C81.054 112.89 81.2881 112.75 81.3492 112.5C81.7247 110.962 82.0188 109.286 81.6695 107.718C81.5138 107.018 80.4418 107.316 80.5971 108.013C80.8725 109.25 80.6537 110.588 80.3677 111.821C76.3251 111.998 72.3367 110.547 68.469 109.572C67.7734 109.397 67.4797 110.47 68.1733 110.645C72.2761 111.679 76.5199 113.226 80.813 112.908ZM0.332947 153.931C0.328773 153.921 0.3246 153.91 0.321823 153.9C0.0840912 153.18 0.078537 152.342 0.052124 151.587C0.00624084 150.244 0.0549088 148.897 0.175858 147.558C0.431656 144.739 0.982178 141.966 1.63976 139.216C2.9424 133.77 4.78305 128.471 5.78262 122.951C7.74423 112.116 7.27851 100.834 11.128 90.3823C12.7282 86.0374 15.0137 81.8609 18.1195 78.409C17.8929 77.7192 17.6718 77.028 17.4563 76.334C17.0796 75.1268 16.6945 73.8807 16.4623 72.6373C16.4568 72.604 16.4498 72.5692 16.4456 72.5344C15.1235 71.9642 13.921 70.8891 13.7152 69.4594C13.6263 68.8419 13.7291 68.1577 13.9961 67.561C13.4511 67.0576 13.1008 66.4039 13.1842 65.5277C13.3399 63.8783 15.2654 63.4539 16.6055 63.1314C18.1292 62.7657 19.7099 62.6641 21.2683 62.8366C22.0552 62.9228 22.8337 63.0675 23.5942 63.2844C24.2545 63.4722 24.9733 63.6655 25.503 64.1189C25.5655 64.1717 25.5141 64.2746 25.439 64.2746C24.3671 64.2706 23.2994 63.8769 22.2165 63.8253C21.082 63.7726 19.9504 63.8658 18.8382 64.0994C17.7511 64.3275 16.6667 64.6613 15.6782 65.1772C15.4002 65.3233 14.9929 65.422 15.3196 65.7169C15.5587 65.9324 16.0286 65.9507 16.3358 65.9825C17.0156 66.0534 17.6023 66.4512 17.6885 67.1772C17.765 67.8183 17.3827 68.5443 16.7014 68.6889C16.6639 68.6974 16.6292 68.707 16.5986 68.7195C16.5805 68.7543 16.5527 68.7835 16.5555 68.7362C16.5555 68.7362 16.5541 68.7348 16.5541 68.7362C16.5374 68.8378 16.5318 68.8779 16.5318 68.885C16.536 68.8767 16.543 68.8419 16.5485 68.8141C16.5444 68.8391 16.536 68.8795 16.5249 68.9393C16.5402 68.8739 16.5277 69.034 16.5402 69.0589C16.9016 69.7265 17.9707 69.9143 18.5935 70.2021C18.7145 70.2576 18.8188 70.3231 18.9077 70.3967C19.0551 70.3453 19.2052 70.2939 19.3568 70.2369C20.1033 69.9573 20.8485 69.6861 21.6048 69.4343C23.0645 68.9462 24.5423 68.5109 26.0021 68.0214C28.7658 67.0951 31.4378 65.9255 34.1502 64.8657C34.2363 64.5458 34.3364 64.2329 34.4546 63.9283C34.4782 63.8645 34.5922 63.8435 34.6048 63.9283C34.6465 64.1981 34.6798 64.4693 34.7076 64.7419C34.7188 64.767 34.7215 64.7948 34.716 64.8212C34.8731 66.4067 34.8314 68.0297 34.912 69.6138C35.0121 71.5887 35.2915 73.5497 35.3708 75.526V75.5621C35.6627 77.2491 35.9269 78.9417 36.166 80.6398C36.4343 80.5564 36.7415 80.5731 37.0557 80.7413C39.2773 81.9277 41.7741 82.5883 44.2863 82.7357C45.5514 82.8093 46.804 82.7678 48.0621 82.6217C48.8893 82.5271 49.704 82.3546 50.52 82.1905C50.0905 80.3895 49.6289 78.5968 49.1076 76.8223C48.678 75.3632 48.1998 73.9113 47.6089 72.508C47.0125 71.0908 46.2701 69.7376 45.5792 68.3635C45.2608 67.7279 45.6362 66.7558 46.4634 66.8225C46.7081 66.842 46.9527 66.8573 47.1988 66.8684C49.5928 66.9826 52.0827 66.7156 54.446 66.4776C57.1361 66.205 59.8624 65.9226 62.5288 65.479C62.7262 65.4471 62.8068 65.7155 62.6122 65.7808C61.3471 66.2064 60.0973 66.6875 58.8002 67.0061C57.4656 67.3357 56.1226 67.6361 54.7686 67.8712C53.4715 68.0952 52.1688 68.2828 50.862 68.4414C50.0098 68.5457 49.1479 68.5985 48.2901 68.6681C49.4454 70.515 50.242 72.5983 50.9357 74.6496C51.8269 77.2839 52.4816 79.9945 53.1225 82.6995C54.4933 88.4977 55.6236 94.3542 56.5077 100.247C57.1417 104.472 57.6547 108.714 58.0398 112.967C58.1538 111.675 58.2928 110.387 58.4499 109.101C58.9754 104.829 59.7428 100.586 60.7688 96.407C60.677 96.2456 60.6339 96.0523 60.6645 95.8646C60.8494 94.7158 61.336 93.7158 61.7628 92.6505C62.1868 91.1624 62.6442 89.684 63.1363 88.2167C63.6952 86.2182 64.3222 84.2502 65.1243 82.3282C65.7374 80.8637 66.4367 79.4367 67.2152 78.053C68.1453 76.1184 69.1671 74.2257 70.289 72.4162C70.3474 72.2479 70.442 72.0908 70.5768 71.9586C70.7812 71.636 70.9883 71.3175 71.1996 71.0018C71.3373 70.796 71.7321 70.9211 71.6278 71.1826C71.5792 71.3051 71.5305 71.4274 71.4805 71.5485C76.0501 70.4051 80.5308 72.1533 84.8836 73.444C85.9819 73.7708 87.0913 74.0657 88.2174 74.2784C89.1029 74.4453 90.1345 74.6484 91.0173 74.4647C91.6081 74.3424 91.8695 74.074 91.5817 73.4426C91.2842 72.7891 90.4723 72.3592 89.7675 72.07C89.5019 72.0129 89.2406 71.9114 88.9889 71.7584C88.4023 71.4023 88.1451 70.6597 88.4217 70.0269C88.6734 69.4553 89.4074 68.9629 90.0566 69.2244C90.1498 69.2619 90.2415 69.2981 90.3333 69.3343C90.343 69.3203 90.3541 69.3009 90.3639 69.2731C90.457 69.0186 90.4973 69.3233 90.457 68.9587C90.3903 68.3635 89.7605 67.8225 89.3295 67.4818C88.2577 66.632 86.709 66.0034 85.3257 66.3246C85.2214 66.3483 85.1172 66.3775 85.0143 66.4136C83.5893 66.9074 82.8956 64.8546 84.0342 64.0897C84.1037 64.0438 84.1913 63.9854 84.2872 63.9172C84.7613 63.5876 85.455 63.0327 85.2659 62.5321C85.0324 61.9103 83.6547 61.5529 83.1333 61.3415C81.2482 60.5766 79.2115 60.1427 77.179 60.0537C75.134 59.9646 73.0625 60.19 71.0898 60.742C70.1222 61.0119 69.1282 61.4222 68.2134 61.8368C67.3918 62.208 65.604 62.6989 65.49 63.7392C65.465 63.9688 65.1383 64.0466 65.0674 63.7962C64.5071 61.7991 66.6814 60.5098 68.1161 59.6851C69.0573 59.1426 70.125 58.8047 71.1579 58.4724C72.1478 58.1525 73.1585 57.9174 74.19 57.7754C76.4046 57.4724 78.6457 57.5113 80.8422 57.9369C82.8428 58.3251 85.0685 58.9869 86.6853 60.2748C87.678 61.0647 88.127 62.322 87.728 63.5487C87.7141 63.589 87.7002 63.6307 87.6863 63.671C89.4727 63.9909 91.1633 65.0145 92.2935 66.4415C93.2222 67.6139 93.7088 69.2452 92.8774 70.6097C92.9122 70.6346 92.9469 70.661 92.9803 70.6889C93.7727 71.3231 94.3622 72.2439 94.5373 73.2507C94.8807 75.2367 93.6809 76.6261 92.0029 77.1573C92.4186 77.5636 92.8176 77.9946 93.2083 78.4257C94.0827 79.3923 94.9182 80.445 95.6551 81.5188C97.1482 83.6939 98.4244 86.0624 99.5407 88.449C101.836 93.35 103.283 98.6252 104.051 103.974C104.437 106.669 104.696 109.379 104.794 112.099C104.908 115.2 104.793 118.303 104.853 121.406C104.911 124.388 105.241 127.297 105.907 130.204C106.545 132.984 107.396 135.709 108.166 138.453C109.035 141.543 109.991 144.619 110.45 147.806C110.682 149.427 110.849 151.053 110.72 152.693C110.589 154.363 109.983 155.791 109.424 157.345C109.282 157.741 108.85 157.901 108.504 157.816C108.426 158.56 108.145 159.286 107.726 159.915C106.838 161.247 105.47 162.097 103.903 162.406C102.138 162.752 100.318 162.67 98.5301 162.606C96.5907 162.537 94.6499 162.474 92.7106 162.393C90.6801 162.309 88.6499 162.223 86.6194 162.137C86.6866 160.055 86.7667 157.974 86.8572 155.893C87.3467 144.644 88.1175 133.388 88.138 122.124C88.1773 122.101 88.216 122.074 88.253 122.038C89.167 121.154 90.2892 120.573 91.3436 119.882C91.9402 119.49 91.3825 118.527 90.7822 118.921C89.8933 119.504 88.967 120.022 88.134 120.676C88.1291 119.503 88.1188 118.331 88.0956 117.158C88.0814 116.442 86.9692 116.442 86.9834 117.158C87.0532 120.692 87.0298 124.227 86.9499 127.761C86.6912 139.212 85.8779 150.642 85.5075 162.089C80.0579 161.856 74.6079 161.621 69.1574 161.422C64.724 161.261 60.2905 161.1 55.8571 160.939C54.9271 160.905 54.4043 160.24 54.2903 159.371C54.0818 157.772 54.4738 156.118 55.3608 154.773C55.4526 154.634 55.561 154.51 55.6819 154.405C55.6611 153.447 55.6222 152.487 55.6764 151.529C55.757 150.066 55.878 148.602 55.9836 147.141C56.1977 144.213 56.3632 141.28 56.4285 138.346C56.562 132.477 56.4646 126.602 56.1324 120.741C55.4665 109.032 53.9164 97.3986 51.3792 85.9456C51.1943 85.1111 51.008 84.2767 50.8148 83.4436C48.842 84.4686 46.4425 84.837 44.2863 84.8511C41.5837 84.8677 38.9409 84.2459 36.4996 83.1155C36.5163 83.2419 36.533 83.3671 36.5483 83.4937C37.2295 88.9177 37.8037 94.3527 38.3041 99.7949C39.3023 110.644 39.914 121.538 39.8292 132.436C39.8056 135.456 39.6902 138.465 39.547 141.48C39.401 144.547 39.1772 147.787 38.3236 150.746C38.2291 151.072 38.0191 151.26 37.7772 151.328C37.7647 151.76 37.7369 152.192 37.7063 152.618C37.6076 154.001 37.3254 156.876 36.7221 158.131C36.134 159.355 35.1539 160.325 33.9041 160.859C32.3165 161.537 30.5995 161.342 28.9229 161.233C21.6326 160.758 14.3478 160.121 7.06163 159.562C6.04677 159.484 5.03191 159.407 4.01843 159.328C3.11617 159.259 2.18333 159.197 1.38257 158.729C0.47197 158.196 -0.238434 155.58 0.0757599 154.498C0.132759 154.3 0.218948 154.106 0.332947 153.931Z" fill="black"/>
<path fill-rule="evenodd" clip-rule="evenodd" d="M22.9607 36.8821C23.0161 33.7665 23.0772 30.5886 23.5402 27.5034C23.9928 24.4871 25.2381 21.7606 27.3779 19.5703C31.923 14.9177 38.5112 13.7813 44.6438 12.7399L55.1287 10.9593C58.3275 10.4162 61.7401 9.54811 64.9719 10.3183C66.5644 10.6979 67.9168 11.5796 69.1529 12.6228C70.3443 13.6283 71.6253 14.7081 72.4326 16.0609C73.2413 17.4157 73.5194 18.9994 73.7823 20.5316C74.0789 22.259 74.3092 24 74.4729 25.7451C74.8008 29.2415 74.8456 32.7642 74.6077 36.2678C74.4925 37.9672 74.3091 39.6617 74.075 41.3487C73.9589 42.1853 73.8277 43.0197 73.6795 43.8513C73.6358 44.0965 73.6026 44.368 73.5578 44.6422C73.8885 45.5832 74.0765 46.5577 74.0614 47.5281C74.0167 50.3864 71.6051 52.1859 69.1739 53.152C67.7642 53.7122 66.2904 54.0929 64.9053 54.7187C63.4482 55.377 62.4565 56.4441 61.4602 57.6615C59.5602 59.9832 57.4161 62.0699 54.9677 63.8109C49.7769 67.5021 43.2023 69.248 36.904 67.9228C35.3928 67.6049 33.8683 67.1112 32.5099 66.3673C31.0758 65.5819 29.9974 64.4438 29.0918 63.0983C27.4103 60.6003 26.2044 57.7875 25.2921 54.9251C24.3617 52.0053 23.7012 49.0803 23.341 46.0358C22.982 43.0011 22.9064 39.9356 22.9607 36.8821Z" fill="white"/>
<path fill-rule="evenodd" clip-rule="evenodd" d="M56.4194 0.106298C52.0805 -0.490759 46.0919 1.44978 43.931 5.36257C33.6147 2.92956 20.6032 2.84987 12.1005 10.9493C3.2282 20.557 14.3722 33.2248 21.7617 36.0809C21.2237 38.6965 22.0625 55.4532 27.9981 62.9276C32.7087 69.2606 43.6786 72.1833 48.7547 64.619L48.7943 64.5566C49.3381 63.683 48.8698 63.7111 48.3115 64.3609C43.3409 68.7338 36.5826 68.8084 31.3747 64.1936C21.6142 55.7586 22.6206 35.0765 27.265 23.1116C40.4902 21.6585 54.6502 25.6685 63.7847 35.6276L63.167 39.3477C63.0618 39.9814 62.9422 40.6147 62.851 41.2506C62.7926 41.6581 62.7861 42.0634 63.0683 42.3933C64.0002 43.4823 65.5707 41.8459 66.8629 41.195C67.2444 41.1413 67.6266 41.1206 68.0014 41.147C74.2098 41.947 72.9866 53.9952 66.1631 51.8833C65.5898 51.5261 65.0972 51.6351 64.8748 52.1536C63.2483 53.6439 62.1759 56.302 59.4737 58.8621C58.5203 59.8224 57.6527 60.6259 56.5803 61.3962C55.9504 62.0335 54.0496 62.6832 54.6522 63.7737C55.7916 66.2551 62.5107 58.4606 63.6986 56.305C67.4207 57.7753 71.5455 57.2759 75.4026 56.9165C95.7514 55.8582 93.0349 34.4 76.3555 20.8524C73.2158 18.5401 69.7518 16.6538 66.151 15.2023C65.6594 15.0041 65.8742 14.1966 66.3727 14.3976C68.7553 15.3582 71.0779 16.5015 73.292 17.8248L73.2954 17.0337C73.2986 15.7011 73.2777 14.3139 73.0464 13.0964C72.9307 12.2527 72.7362 11.3516 72.4367 10.6738C72.0665 8.59555 66.2672 1.46202 56.4194 0.106298ZM68.2729 43.9131C67.9587 43.6145 67.3722 43.9705 67.0925 43.9616C66.3772 44.0595 65.6977 44.3617 65.1677 44.7347C64.8178 44.9308 64.5726 45.115 64.3677 45.2844L64.3621 45.2828C64.3636 45.2828 64.3656 45.2844 64.3672 45.2848L64.348 45.2978C64.0496 45.5099 62.9573 46.7045 63.6474 46.3832C63.6988 46.3163 63.7515 46.2521 63.8046 46.1891C63.8103 46.1977 63.8182 46.2062 63.8277 46.2144L63.7889 46.2719C63.2024 47.1546 64.2151 46.2247 64.3709 45.9777C64.3782 45.9837 64.3866 45.9877 64.3948 45.992L64.1919 46.239C64.1635 46.2741 64.1412 46.3021 64.1227 46.3258L64.0799 46.3671C63.4018 47.0339 63.3806 47.6341 64.1684 46.6482C64.1374 46.6946 64.1126 46.7438 64.1091 46.7875L64.0624 46.8471C63.4438 47.6445 63.9469 47.3613 64.2543 47.0207L64.2801 46.9914L64.2748 46.9994C63.9888 47.4401 64.5562 47.1309 64.6565 46.8951L64.6607 46.8845C64.77 46.7953 64.8372 46.6952 64.8603 46.6699L64.8645 46.6657C65.3964 46.1205 66.1674 45.6592 66.8224 45.4496C66.9173 45.4315 67.0134 45.4171 67.1104 45.4068C67.5043 45.3189 67.9024 45.2586 68.3048 45.2261C68.354 45.2203 68.4039 45.1841 68.4412 45.1374C69.0495 45.1168 68.8617 44.8674 68.6093 44.821L68.6049 44.8203L68.655 44.8161C69.0454 44.778 69.3121 44.6378 68.9173 44.5518L68.8673 44.5418C68.8734 44.5322 68.8788 44.5227 68.8841 44.5131C69.2222 44.4759 69.0016 44.1471 68.8139 44.2267C68.8928 43.9684 68.5319 44.0974 68.4869 44.059C68.4526 44.0209 68.4099 43.9872 68.3853 43.9854C68.2766 43.9086 68.3292 43.9156 68.2729 43.9131ZM66.2042 39.7317L66.2835 39.778C66.3476 39.8154 66.4135 39.8403 66.4796 39.8549C66.3862 39.8946 66.2939 39.9376 66.2026 39.9835C66.204 39.9274 66.2051 39.8714 66.2051 39.8155L66.2042 39.7317Z" fill="black"/>
<path fill-rule="evenodd" clip-rule="evenodd" d="M38.6696 56.8723C39.6041 56.4909 40.438 55.8547 41.0476 55.042C41.2595 54.7595 41.3145 54.4612 41.27 54.1883C41.22 53.8814 41.0386 53.6034 40.7911 53.4168C40.5429 53.2297 40.2324 53.1374 39.9322 53.1845C39.6713 53.2254 39.4117 53.3682 39.2062 53.6646L39.1632 53.7238C38.8008 54.2143 38.3285 54.6168 37.7904 54.8762C37.2717 55.1262 36.6916 55.2429 36.0913 55.1751C34.948 55.0459 34.16 54.4273 33.3224 53.5873C33.2186 53.4813 33.1147 53.3719 33.0103 53.2608C32.9444 53.16 32.8529 53.0953 32.7514 53.0613C32.6386 53.0236 32.511 53.0257 32.3941 53.0665C32.2814 53.1059 32.1807 53.1804 32.1131 53.2797C32.0489 53.374 32.0125 53.4905 32.0243 53.6245C32.101 54.495 32.5559 55.2719 33.2021 55.8819C33.9198 56.5594 34.8712 57.0282 35.7668 57.1925C36.7536 57.3736 37.7591 57.2439 38.6696 56.8723ZM35.3014 43.4431C34.2515 44.0815 32.652 45.5701 33.7813 47.1527C35.1107 48.5481 37.0246 46.9481 37.9678 46.2245C38.8424 45.6637 39.825 47.1061 39.0136 47.7609C32.1982 52.8087 29.4323 43.6101 34.7704 42.6926C35.3581 42.5915 35.5764 43.2457 35.3014 43.4431ZM47.5146 37.5712C47.3986 36.1309 45.2059 35.8038 44.9877 37.2291C44.7924 38.5058 45.0224 39.6786 45.5972 40.8281C46.1465 41.9263 47.5271 41.4139 47.6315 40.414C47.7714 39.0736 47.5868 38.4672 47.5146 37.5712ZM30.8231 36.9336C30.5174 36.533 30.076 36.2596 29.5471 36.4141C27.8948 36.8971 28.3818 39.2438 28.9621 40.386C29.2774 41.0063 30.2966 41.1636 30.7572 40.6174C31.5079 39.7268 31.8674 37.9481 30.913 37.0708C30.8872 37.0255 30.8584 36.9797 30.8231 36.9336ZM45.6205 31.2688L45.3595 31.2231C44.5521 31.0834 43.5482 30.9492 42.977 31.5986C42.674 31.9429 42.5698 32.583 42.977 32.9126C43.6932 33.4925 44.4851 33.2678 45.3434 33.3169C46.0508 33.3575 46.7306 33.4746 47.4119 33.6694C48.9067 34.0968 50.1247 34.877 51.4013 35.7337C51.5688 35.8461 51.7398 35.6318 51.6599 35.4751C50.9229 34.031 49.4948 32.8448 48.0642 32.1218C47.3007 31.7358 46.4652 31.4157 45.6205 31.2688ZM32.3293 30.622L32.1295 30.6629C29.9556 31.1174 27.1311 32.0255 26.1017 34.1617C26.0624 34.4637 26.1039 34.5285 26.1376 34.5708L26.1488 34.5848C26.1766 34.6209 26.1987 34.6707 26.3296 34.7118C26.3659 34.7032 26.4026 34.694 26.4397 34.6843C26.9116 34.5606 27.2849 34.3902 27.6464 34.2133L28.0383 34.0202C28.4929 33.7971 28.9516 33.5822 29.4377 33.4236C30.4751 33.0851 31.5422 32.8466 32.6258 32.7193C32.8607 32.6917 33.0868 32.6124 33.2652 32.4765C33.4346 32.3475 33.564 32.1689 33.623 31.9315C33.6994 31.6243 33.6774 31.3917 33.5127 31.1145C33.3888 30.9064 33.2115 30.7621 33.0079 30.6793C32.8004 30.5948 32.5641 30.5749 32.3293 30.622Z" fill="black"/>
<path fill-rule="evenodd" clip-rule="evenodd" d="M21.614 46.3132C22.0747 45.6945 22.9028 44.8824 23.7406 44.9261C23.8478 44.9316 23.888 45.0478 23.8236 45.1264C23.5496 45.4611 23.1752 45.6992 22.9006 46.0409C22.5757 46.4454 22.3412 46.9331 22.1887 47.4264C21.9671 48.1431 21.9059 48.9542 22.1035 49.6829C22.4516 50.9674 23.5522 51.909 24.7531 52.3898C25.9417 52.8657 27.372 53.0283 28.4961 52.3309C30.1554 51.3015 31.5627 49.8176 33.6482 49.7882C34.136 49.7814 34.4798 50.0049 34.6846 50.3239C34.8903 50.0163 35.2298 49.7986 35.7054 49.7932C38.0434 49.7669 39.7884 51.377 41.7507 52.3807C43.0768 53.0592 44.7928 52.8486 46.1609 52.4003C47.4514 51.9777 48.8524 51.1289 49.3392 49.7886C49.6079 49.0485 49.5477 48.1842 49.2718 47.4546C49.0904 46.9748 48.8102 46.5113 48.4636 46.1342C48.1043 45.7432 47.6319 45.4973 47.2637 45.1265C47.1885 45.0507 47.2479 44.9329 47.3467 44.9261C48.9102 44.82 50.322 46.6875 50.6171 48.0424C50.9078 49.3767 50.4743 50.7075 49.597 51.7257C47.8129 53.7957 44.5094 54.4784 41.9383 53.8701C39.8573 53.3779 37.8808 52.2442 35.7054 52.4069C35.2286 52.4426 34.8863 52.2437 34.6797 51.9422C34.4728 52.2525 34.1283 52.4554 33.6482 52.409C31.6207 52.2125 29.811 53.6488 27.843 53.9996C26.2761 54.2787 24.5835 53.9022 23.2408 53.0578C21.8374 52.175 20.8495 50.7591 20.7844 49.071C20.747 48.0998 21.0319 47.095 21.614 46.3132Z" fill="black"/>
</svg>
