<svg width="89" height="239" viewBox="0 0 89 239" fill="none" xmlns="http://www.w3.org/2000/svg">
<path fill-rule="evenodd" clip-rule="evenodd" d="M72.7685 78.7924C75.0256 81.4316 74.8261 82.1655 73.6235 84.8303C70.9667 91.0133 67.1571 97.2985 62.8326 103.032C63.1181 90.1689 63.3636 77.2361 63.7859 64.2558C66.3572 69.2712 69.0956 73.8015 72.7685 78.7924ZM73.1944 237.769C74.6151 237.631 84.614 238.001 81.938 235.086C82.7641 233.293 80.4564 231.78 79.0344 230.417C77.704 229.148 76.3928 227.738 75.0266 226.106C73.7544 224.594 72.3202 222.806 71.393 220.72C71.1877 220.393 70.9792 220.164 70.7728 220.039L70.6537 219.967L70.5796 219.849C69.7971 218.6 69.151 217.31 68.4399 216.038C70.1789 215.41 71.759 214.779 73.7287 213.907C70.9493 197.543 66.7838 181.6 64.0904 165.188C62.451 150.906 61.5709 136.49 57.8195 122.424L57.3395 122.461L57.0721 121.539C57.4661 121.529 58.2643 121.502 58.6595 121.487L58.5669 121.959C60.3553 121.752 62.1077 121.242 63.8463 120.81C64.7335 120.689 65.6231 120.054 65.3038 118.997C65.2011 117.463 64.8837 115.966 64.7343 114.433C65.3001 114.047 65.8838 113.606 66.4428 113.154C67.9213 113.851 69.7082 116.102 71.3248 115.529C75.1028 110.459 78.2734 104.365 81.1426 99.4959C88.0726 88.2361 90.2722 81.1978 83.1248 69.4572C76.9454 59.6216 70.2797 43.989 57.8919 41.5206C56.5011 41.261 55.0438 41.2501 53.7071 40.6166C53.6385 39.7081 53.1846 39.1863 52.8522 39.1789C52.045 39.0017 51.1587 38.7166 50.3704 38.7094C50.0925 38.5934 49.7533 38.6887 49.4864 38.7411C48.6919 37.1468 48.7629 35.1115 47.8923 33.617C47.8607 32.4846 47.5155 31.2335 44.025 31.0059C41.6489 30.8076 38.2836 30.6166 36.3843 31.6546C35.0554 32.7243 35.0416 35.1207 35.2083 36.8092C35.3914 38.0493 35.3095 39.4915 34.3381 40.948C31.5698 40.0935 29.6393 41.8996 27.9063 45.269C20.6517 46.2565 19.0874 46.8173 16.2727 54.0018C14.9304 57.1174 13.5327 60.4461 12.4864 63.8568C11.0851 68.0265 10.962 72.3912 9.59956 76.5903C5.89952 85.845 2.13687 91.8175 0.952003 102.592C0.373726 107.349 0.705971 109.708 1.25568 110.422C2.81939 109.97 4.83666 109.624 6.47881 109.432L4.72156 110.768C6.21061 117.518 1.92184 136.769 13.5502 135.29C13.6535 135.039 13.4639 133.657 13.4139 133.083C13.7318 133.106 14.3198 133.126 14.6329 133.087C15.1874 134.687 16.0199 136.124 16.5455 137.752C16.8054 138.743 17.1339 139.741 17.455 140.706C24.778 165.364 26.2282 189.103 22.9603 213.858L23.108 213.911L23.1678 214.018L23.2576 214.051C23.4883 214.359 23.8151 214.373 24.3366 214.373C27.5398 214.486 30.3541 214.63 32.9641 214.703C32.6871 216.089 32.8645 217.548 32.9866 218.957C31.4676 218.851 30.0739 219.467 28.6854 220.207C26.0324 221.509 23.3902 222.877 20.8214 224.372C18.271 226.004 14.1467 227.399 16.1943 230.332L15.6023 230.564C15.5824 230.572 15.5697 230.579 15.5622 230.584C15.4922 230.833 16.2942 231.864 16.5318 231.853C22.1402 232.114 26.9233 230.805 34.0972 229.433C35.7396 228.838 44.0122 227.824 44.0469 226.26C44.0206 225.773 43.5167 225.806 43.1652 225.745C44.2191 220.424 40.6564 219.994 40.1464 215.166C40.8517 215.3 41.6143 215.415 42.3368 215.217C42.9708 204.913 41.9522 194.366 43.0785 183.961L44.2235 183.834C48.0723 195.156 52.0631 206.74 55.1281 218.5C55.1865 218.756 55.4729 218.581 55.6038 218.488C57.6071 218.44 59.611 218.226 61.5754 217.889C61.6226 219.046 61.6722 220.224 61.7209 221.38L61.4181 221.542C61.2229 221.814 61.3051 223.086 61.3404 223.633C61.3761 224.193 61.4056 224.598 61.356 224.978C60.7243 226.223 62.8845 228.922 64.0271 230.422C66.5165 233.644 68.5786 238.414 73.1944 237.769Z" fill="white"/>
<path fill-rule="evenodd" clip-rule="evenodd" d="M48.4805 33.6527C47.8023 33.1938 48.768 37.1764 48.7697 37.5596L48.7867 37.6431C48.9557 38.4543 49.2533 39.3981 49.9383 39.9183C49.6224 42.5001 49.2292 45.0737 48.7452 47.6286L48.4606 47.666C44.2374 48.2249 39.9864 48.9934 35.6925 48.593C33.3791 48.6112 31.8475 47.0304 30.9148 45.0697C30.978 44.8384 31.0412 44.6081 31.1061 44.3768C34.0441 42.5801 36.2688 38.9338 34.9451 35.4919C34.8886 35.3447 34.7134 35.3346 34.6231 35.4111C34.6085 35.4125 34.5951 35.4244 34.5962 35.4405L34.6432 36.1685C34.733 37.6164 34.7631 39.113 33.9786 40.4154C30.7819 39.6874 28.7941 42.349 27.4576 44.8679L26.4974 45.0098C22.8241 45.5547 19.2815 46.1998 17.4676 49.9578L17.2192 50.4856C14.6846 55.8858 12.3227 61.4387 10.9401 67.2536C10.2441 70.3473 9.99222 73.5351 8.97115 76.5524C6.85107 82.155 3.86355 87.4203 2.24364 93.2207C1.2385 95.3135 -1.5902 111.068 1.20042 111.187C2.20396 110.887 3.22603 110.644 4.25915 110.472C4.09981 110.593 4.04176 110.799 4.072 111.009C4.43263 113.534 4.45969 116.092 4.458 118.639C4.2674 124.806 4.43829 138.073 13.7385 135.944C14.4174 135.694 13.9766 134.607 14.0038 133.847C14.0569 133.85 14.1109 133.849 14.1647 133.845C14.6987 135.284 15.4473 136.612 15.9165 138.074C16.3142 139.331 16.5922 140.682 17.1467 141.885C23.0186 162.739 25.4426 184.673 23.1469 206.257C23.018 207.55 22.873 208.841 22.7111 210.129C22.7341 210.954 21.771 214.276 22.6337 214.533C22.6672 214.599 22.7829 214.673 22.8519 214.697C23.373 215.258 24.2394 215.05 24.9274 215.124C27.3582 215.232 29.7888 215.332 32.2208 215.413C32.0752 216.443 32.1929 217.489 32.2791 218.518C30.5055 218.533 28.8755 219.611 27.3068 220.343C24.9771 221.491 22.6852 222.718 20.437 224.019C18.3612 225.469 13.7236 226.87 15.3192 230.16C14.1294 230.642 15.7828 232.658 16.6867 232.681C22.5709 232.651 28.4178 231.318 34.1682 230.148C37.4355 229.286 41.0006 228.958 44.0233 227.471C44.8813 227.084 44.7016 225.539 43.7578 225.395C44.4586 220.245 41.6147 220.316 40.8137 216.024C41.2793 216.1 41.7937 216.057 42.2605 215.963C43.3416 216.962 42.9444 209.102 43.0914 208.334C43.1207 200.275 42.738 192.199 43.5977 184.167L45.0587 188.463C48.4648 198.489 51.8199 208.541 54.4901 218.792C54.6502 219.411 55.3007 219.485 55.716 219.215C57.4695 219.163 59.2162 218.999 60.9461 218.719C60.9797 219.539 61.0143 220.359 61.0488 221.179C60.3027 221.58 60.8079 224.111 60.7126 224.966C59.9003 226.815 63.1891 230.417 64.2549 231.934C66.1739 234.611 68.0799 238.359 71.7911 238.483L71.9041 238.486C74.6744 238.553 77.4696 238.391 80.2131 237.996L80.5469 237.942C81.3293 237.811 82.1954 237.62 82.6457 236.925C83.0315 236.33 82.9843 235.561 82.5159 235.106C83.1345 232.864 80.7264 231.506 79.3813 230.141C76.8688 227.719 74.5851 225.056 72.6102 222.181L72.4968 221.912C72.1307 221.05 71.6933 220.092 71.0119 219.679C70.362 218.648 69.8063 217.563 69.2195 216.498C70.8223 215.91 72.4004 215.253 73.961 214.562C74.2715 214.424 74.3703 214.02 74.316 213.72L74.3121 213.7C71.2655 197.896 67.6129 182.205 64.772 166.365C62.9574 151.767 62.2136 136.983 58.3988 122.705C60.2495 122.513 62.0915 121.982 63.9077 121.528C65.3638 121.218 66.1001 120.479 65.8129 118.939C65.7142 117.57 65.4397 116.222 65.2913 114.859C65.679 114.588 66.0573 114.303 66.4256 114.01C67.1081 114.519 67.8125 114.998 68.5362 115.446C70.2693 116.692 71.607 116.886 72.6776 114.843C75.7784 109.949 78.7687 104.984 81.5907 99.9252C84.2084 95.0718 87.4526 90.2286 88.1171 84.6407C89.0823 74.5844 77.271 58.4913 71.3539 50.3185C68.091 46.3819 64.117 42.3303 58.9491 41.1856C57.3594 40.9502 55.6836 40.9182 54.1681 40.3422C54.045 39.6062 53.6991 38.9286 52.9177 38.7485C52.0958 38.5669 51.2146 38.2864 50.3865 38.2659C50.1994 38.2132 49.9785 38.1799 49.7808 38.2163C49.2141 36.7462 49.1308 35.0897 48.4805 33.6527ZM80.1398 236.268C79.9981 236.338 79.8516 236.399 79.7015 236.452C79.517 236.478 79.3333 236.501 79.1497 236.522C79.4825 236.447 79.8128 236.363 80.1398 236.268ZM61.7507 221.976C64.4652 222.961 65.2112 218.339 70.55 220.209C72.6365 224.08 75.3377 227.595 78.4252 230.72C79.5226 232.083 82.7707 233.63 81.0203 235.629L80.7522 235.678C77.7124 236.23 74.6268 236.669 71.5292 236.419C69.1885 235.774 67.433 233.9 66.0143 232.01C64.9879 230.192 63.7872 228.481 62.5615 226.795C61.8876 225.956 61.8192 224.888 61.8223 223.856C61.7997 223.229 61.776 222.603 61.7507 221.976ZM31.2578 219.707C32.4103 219.285 33.5925 219.682 34.6409 220.2C36.4317 221.001 40.3103 221.96 41.9672 220.684C42.7797 222.026 43.0521 223.519 42.8292 225.067L42.8275 225.139C42.8101 225.776 42.7299 226.291 41.9597 226.336L39.8002 226.879C32.5149 228.706 25.158 230.473 17.659 230.981C15.6575 229.733 15.6014 228.091 17.7288 226.948L18.2731 226.615C22.4499 224.062 26.7242 221.553 31.2578 219.707ZM15.4084 230.326C15.4286 230.361 15.4481 230.395 15.4682 230.429C15.437 230.444 15.4084 230.466 15.3815 230.489C15.3815 230.433 15.3898 230.378 15.4084 230.326ZM68.8151 216.644C68.7873 217.212 69.0663 217.852 69.2626 218.362C69.378 218.663 69.4968 219.093 69.6805 219.437C65.1163 218.092 63.727 222.034 62.0813 221.215L62.0314 221.188V221.187C62.3673 220.421 62.001 219.341 61.7752 218.576C64.172 218.143 66.5254 217.469 68.8151 216.644ZM32.7475 215.431L34.0634 215.471C36.1104 215.533 38.1577 215.587 40.2062 215.584C39.9918 217.055 40.4113 219.482 41.3639 220.625C41.3657 220.626 41.3673 220.626 41.3681 220.627C38.6718 221.034 36.1181 219.8 33.7165 218.762C33.6153 217.635 33.1724 216.485 32.7475 215.431ZM41.5527 219.912C41.6344 220.065 41.7171 220.218 41.7996 220.371C41.7633 220.41 41.7229 220.447 41.6799 220.478C41.7049 220.287 41.6369 220.098 41.5527 219.912ZM37.7626 94.8066C36.2595 102.396 35.073 110.08 34.661 117.819L34.6574 117.895C34.6174 118.678 34.5004 119.551 35.0242 120.205C35.5677 120.884 36.4145 120.97 37.2175 121.093C43.9525 122.117 50.7823 122.463 57.5908 122.257C60.104 134.689 61.6412 147.275 62.5787 159.917C64.6158 177.98 69.2398 195.637 72.703 213.458C67.3322 215.806 61.7617 217.472 55.8752 217.703C47.5433 186.932 31.9446 154.457 31.1138 123.676C31.0691 123.626 30.962 123.638 30.9502 123.713C30.6756 125.397 30.7926 127.154 30.8533 128.852C31.0838 134.077 31.6656 139.299 32.5233 144.454C34.7011 157.259 38.7237 169.647 42.8446 181.937C42.9826 182.489 42.7738 183.103 42.7669 183.666C41.9062 193.065 41.818 202.512 41.5408 211.94C41.5993 212.982 41.2711 214.162 41.6328 215.141C38.5205 214.724 35.3927 214.5 32.2647 214.239L32.2413 214.224C32.1118 214.142 31.9052 214.055 31.7861 214.201C29.1434 213.993 26.4981 213.803 23.8539 213.626C27.6037 186.796 25.012 158.828 14.8667 133.623C15.5092 133.034 15.2292 131.724 15.3764 130.905C15.5119 127.562 15.5046 124.143 14.8472 120.852L15.0145 120.862C17.0343 120.977 25.9221 121.333 26.1659 119.826C26.5039 117.272 25.6873 114.74 25.5205 112.205C25.2209 106.476 25.2933 100.725 25.3326 94.9891C27.0916 95.2241 28.7781 94.9014 30.5172 94.8352C32.935 94.8139 35.348 94.8757 37.7626 94.8066ZM69.1093 216.539C69.1548 216.736 69.2078 216.934 69.2642 217.132C69.1862 216.955 69.0983 216.786 68.9937 216.636L68.9618 216.592L69.1093 216.539ZM40.3478 215.585L40.4919 215.587L40.4927 215.669C40.459 215.726 40.4532 215.795 40.4953 215.85C40.5003 216.104 40.5112 216.359 40.5307 216.614C40.475 216.271 40.4194 215.928 40.3478 215.585ZM42.1787 215.501L42.1712 215.629C41.9867 215.622 41.8005 215.63 41.6167 215.621C41.5199 215.616 41.4204 215.599 41.3202 215.581C41.6091 215.572 41.8973 215.549 42.1787 215.501ZM9.38554 110.11C9.47654 110.217 9.57588 110.282 9.67709 110.315C9.67624 112.742 10.1665 115.13 11.5104 117.232C12.0695 117.973 12.3854 118.816 12.6555 119.695C14.0768 123.717 14.3407 128.038 13.8227 132.25C12.4262 130.203 11.8711 127.76 11.4811 125.351C11.46 125.23 11.2594 125.232 11.2376 125.351C10.7656 127.93 11.5769 130.462 12.5469 132.845C13.1528 133.278 13.0085 134.411 13.0811 135.078C2.78535 136.577 6.36575 116.824 5.0469 110.741C5.02247 110.573 4.88007 110.452 4.71828 110.4C6.26261 110.165 7.8274 110.148 9.38554 110.11ZM57.8706 122.245C57.8579 122.31 57.8469 122.375 57.8386 122.439C57.82 122.376 57.8014 122.313 57.783 122.249C57.8116 122.248 57.841 122.247 57.8706 122.245ZM50.9124 38.6923L51.0926 38.7394C52.995 39.2298 53.6107 39.1624 53.7184 41.458C54.186 44.5732 55.9123 47.2904 56.6883 50.3027C56.9988 51.3663 56.6703 53.3269 55.1987 53.039C54.7218 52.8927 54.3501 53.535 54.7108 53.8757C55.7767 54.883 56.8114 55.9215 57.8521 56.9534C53.6734 71.0469 48.2451 84.7744 41.6328 97.9078C41.3707 98.4291 42.1568 98.8874 42.4172 98.366C48.9908 85.1906 54.458 71.4677 58.7014 57.3704L58.8296 56.9431C59.0171 56.4243 56.6207 54.5642 56.1846 53.9572C60.5599 51.8505 54.4513 44.4727 54.2853 40.9199C55.5376 41.47 56.9571 41.2726 58.2801 41.4941C60.818 41.939 63.0455 43.4039 65.0255 44.9853C73.0681 52.0818 78.2076 61.9066 83.3487 71.1671C86.85 77.2092 88.538 84.5955 85.0244 91.0226C80.9476 99.2631 76.2183 107.206 71.2183 114.917C70.6692 115.63 69.8242 114.81 69.2458 114.511C65.9203 112.514 63.0366 109.797 60.8189 106.62C66.1954 100.028 70.8786 92.824 74.1907 84.9747L74.2364 84.8837C74.9796 83.3911 75.5672 81.5854 74.3275 80.1799C69.9256 74.5457 66.0106 68.5646 62.3263 62.4436C62.2883 62.3822 62.2033 62.4361 62.2311 62.5C62.6094 63.3559 63.0079 64.2053 63.4233 65.0471C62.5842 77.4923 62.726 90.1809 62.3633 102.705C61.3851 103.999 60.3781 105.272 59.3477 106.524C56.0048 104.222 52.0725 102.72 48.0339 102.255L47.7729 102.229C46.0574 102.053 43.2242 101.72 42.9993 103.946C43.2774 106.683 48.9394 105.144 50.7498 106.697C47.7822 107.892 44.3817 108.229 41.6572 110.03C40.7833 110.54 39.0701 112.163 40.7439 112.784C41.4741 112.847 42.2284 112.563 42.9581 112.501C42.1369 112.777 41.3815 113.246 40.9005 113.98C40.5543 114.484 40.3015 115.529 41.1288 115.744C43.0152 115.798 44.8937 115.183 46.7516 114.877L46.5866 114.944C45.2321 115.498 43.1269 116.494 44.951 117.961C46.7772 118.906 48.9881 117.299 50.807 116.87C55.7066 115.731 59.3309 118.853 64.3535 115.473C64.4961 116.602 64.7101 117.724 64.7958 118.86L64.8069 118.924C64.9809 119.961 64.8319 120.335 63.7131 120.533C62.3643 120.94 60.9515 121.068 59.5498 121.144C52.8045 121.5 46.0143 121.247 39.3147 120.384C38.3507 120.125 36.0862 120.369 35.6832 119.309C36.4383 92.0243 47.8157 66.3506 50.9485 39.4206C51 39.1615 51.0034 38.8975 50.9124 38.6923ZM31.8956 41.0242C32.4336 41.0462 32.9345 41.1627 33.4697 41.2167C33.1733 41.8467 31.6091 42.7379 31.7515 43.0507C31.6386 43.1382 31.524 43.2223 31.4077 43.3038C31.5695 42.7353 31.733 42.1677 31.8969 41.5992C25.953 56.0734 25.1364 73.1986 24.3466 88.9884C24.0865 96.9499 23.945 104.936 24.3299 112.893C24.5439 115.006 25.1102 117.142 24.956 119.276C21.4675 119.778 17.9286 119.821 14.4259 119.449C14.3224 119.178 14.2052 118.91 14.0724 118.648C8.829 112.257 11.6097 104.248 14.1344 97.325C15.661 97.3896 17.1968 97.2928 18.725 97.3116C18.2528 98.7725 18.1311 100.318 17.8797 101.829C17.7086 102.905 17.4903 103.974 17.2394 105.034L17.172 105.316C17.0774 105.707 16.952 106.129 17.0894 106.517C17.2242 106.9 17.6894 107.054 17.9979 106.757C18.5537 106.123 18.4941 105.179 18.6736 104.393L18.7067 104.146C19.0126 101.89 19.4157 99.5491 18.8563 97.3107C19.4054 97.1928 20.9062 97.6256 20.985 96.8877C20.9618 95.669 21.846 93.0286 20.8618 92.2259C20.2762 91.7793 19.2693 91.9206 18.5825 91.8929C17.7887 91.8609 16.9959 91.8314 16.203 91.8365C22.5751 76.4409 20.803 71.7019 20.1563 56.3799L20.1371 55.9123C20.1388 55.8113 19.9761 55.7862 19.9584 55.888C18.9842 62.1639 20.2828 68.5182 19.6676 74.8141C18.575 86.7762 10.9933 97.0467 9.72596 108.951C6.99239 108.634 4.22672 109.023 1.57715 109.709C1.52154 109.226 1.47855 108.74 1.44823 108.255C0.945274 99.3692 4.06384 90.7394 7.70253 82.7697C9.88319 78.5395 11.2311 74.0245 11.7953 69.3037C12.8907 63.1549 15.3489 57.3628 17.7991 51.6509C19.348 47.38 22.6963 46.373 26.8485 45.877C25.4481 48.1978 24.056 50.5238 22.6666 52.8515C22.3566 53.5553 23.3069 54.0578 23.7215 54.4911C18.6208 57.2722 21.5991 65.8604 21.4937 70.6727C21.8723 75.0946 22.0152 79.5417 22.6826 83.9329C22.7315 84.2373 23.1982 84.1482 23.2026 83.863C23.141 77.2834 22.3563 70.7304 22.012 64.1614L21.9701 63.6825C21.7016 60.5724 21.4388 56.0857 25.1792 55.232C25.6839 55.1496 25.7227 54.3995 25.3175 54.1742C24.7781 53.8739 24.3054 53.5073 23.8825 53.0709C25.3115 50.6735 26.738 48.2744 28.1519 45.8668L28.2182 45.7549C29.2225 44.0514 30.1554 42.0691 31.8956 41.0242ZM44.0333 103.779C44.4459 102.564 48.4506 103.355 49.5195 103.487C53.4613 104.231 57.4282 105.975 60.4304 108.661C60.6158 108.827 60.8348 108.824 61.0075 108.734C62.3523 110.452 63.9052 112.008 65.6082 113.376C65.2965 113.622 64.9763 113.86 64.6468 114.088C64.4892 114.104 64.3468 114.186 64.2827 114.332C59.5969 117.727 56.1499 115.079 51.2822 115.69C49.4648 116.057 47.7912 117.213 45.9183 117.261C44.5439 116.949 45.7541 116.374 46.396 116.152C47.8495 115.458 49.3313 114.826 50.8163 114.202L52.0044 113.704C52.5882 113.459 52.3877 112.577 51.7355 112.731C50.5938 113 49.4487 113.256 48.3029 113.507C46.0991 113.957 43.8428 114.533 41.6159 114.752C42.111 113.376 47.3631 111.891 48.8902 111.344C49.4669 111.071 51.1118 111.123 50.9241 110.229C50.7724 109.398 49.0222 110.35 48.4384 110.418C46.0562 111.022 43.6246 111.388 41.1972 111.757C43.8044 109.141 47.8462 108.916 51.176 107.691L51.2489 107.674C51.8426 107.538 52.676 107.279 52.1896 106.599C50.4786 104.078 43.7469 105.354 44.0333 103.779ZM48.9601 89.7368C47.7455 88.7405 47.095 90.7867 47.1721 91.7381C47.1148 92.5277 47.0532 93.3173 47.0018 94.107C47.077 94.7243 46.4189 96.9749 47.2993 96.9955C51.147 96.8001 54.9881 96.8495 58.8371 96.6179C58.8421 97.394 58.8799 98.1693 58.8403 98.9464C58.8613 99.9179 58.5236 100.888 58.7208 101.849C58.8412 102.291 59.442 102.35 59.6765 101.974C60.3795 100.32 59.8962 98.1869 59.3982 96.5145C61.283 96.1662 61.5429 94.395 61.0464 92.8145L61.0515 92.7289C61.0791 92.2413 61.077 91.7184 60.8593 91.3244C60.2772 90.6392 59.07 91.0843 58.2683 91.0327C55.8105 90.7793 53.3076 90.7093 50.8786 90.2581C50.2498 90.0954 49.6086 89.7675 48.9601 89.7368ZM64.2381 66.6481C66.1515 70.2998 68.353 73.7744 70.6966 77.1577C71.1988 77.8801 71.7145 78.5932 72.2384 79.3011L72.3354 79.4251C73.3825 80.7546 74.4699 81.8574 73.4806 83.6217C70.8884 89.9162 67.4176 95.8274 63.3964 101.313C63.651 89.7581 63.8759 78.1997 64.2381 66.6481ZM16.1322 92.0215C20.9397 93.0287 21.0297 91.1425 20.2273 96.4807C18.2992 96.4939 16.3722 96.4506 14.4436 96.4817C14.9947 94.9907 15.566 93.5066 16.1322 92.0215ZM48.4023 90.5137C50.9131 91.386 53.579 91.2616 56.2013 91.3689C56.196 91.9325 58.8791 91.4094 59.3939 91.4868L59.592 91.4698C60.0178 91.4355 60.553 91.4299 60.5577 91.9517C60.4211 92.8649 60.9351 93.8648 60.6166 94.762C60.1869 95.9704 58.3483 95.8459 57.3338 95.8695C55.6613 95.9073 53.9887 95.9476 52.3162 95.9914C50.8138 96.0309 49.3063 96.1057 47.8023 96.1166C47.938 95.0471 47.975 93.9505 48.0567 92.8818C48.1596 92.1133 48.0112 91.2024 48.4023 90.5137ZM37.8445 94.3995C37.8419 94.413 37.8393 94.4265 37.836 94.4407C37.8068 94.4324 37.7735 94.4277 37.745 94.4197C37.7779 94.4138 37.8115 94.4072 37.8445 94.3995Z" fill="black"/>
<path fill-rule="evenodd" clip-rule="evenodd" d="M24.4804 20.4273C24.7997 15.1967 26.5005 9.26661 31.5059 6.6985C42.5405 2.27888 57.0488 13.4087 57.8169 24.7787C58.0847 28.6708 55.9194 32.9236 51.9624 34.0057C51.0826 35.1689 49.7522 35.8793 48.439 36.4959C32.798 44.5943 22.6946 38.0112 24.4804 20.4273Z" fill="white"/>
<path fill-rule="evenodd" clip-rule="evenodd" d="M20.917 17.1736C21.4697 15.6414 22.0537 14.1211 22.6679 12.6125C23.2662 11.1443 23.8065 9.64434 24.5495 8.2457C28.9866 -0.107828 37.0554 -0.107827 41.2263 0.983664C43.3892 0.0536259 47.4405 0.315966 49.6927 1.15521C53.3388 2.51385 57.7835 7.85846 59.3031 10.2597C62.6583 15.5615 64.7522 22.6181 62.5235 28.7446C62.2322 29.5453 61.8607 30.2869 61.4424 31.0016C61.7059 31.358 62.0091 31.6955 62.3451 32.0272C63.3434 33.0129 64.3417 33.9661 65.2041 35.0779C66.0611 36.1827 66.7716 37.3577 67.3005 38.6531C68.2978 41.0961 68.3459 43.8623 67.0274 46.1933C65.8802 48.2216 63.8481 49.7319 61.5587 49.876C61.4411 49.8923 61.3234 49.9073 61.2052 49.9191C60.9019 50.4178 60.532 50.8769 60.1098 51.2772C58.8164 52.5049 55.7334 53.1347 53.9748 53.1751C53.8847 53.2474 53.7937 53.3197 53.7027 53.3912C52.6267 54.2363 51.4976 55.089 50.2623 55.6902C49.4256 56.0981 48.3286 56.4386 47.4556 56.1443C47.0596 56.4084 46.4099 56.3529 46.0173 56.1368C45.3719 55.7819 44.8469 55.1428 44.5276 54.4886C43.7532 52.9001 43.9394 51.162 44.1383 49.465C44.3574 47.5907 44.568 45.7155 44.782 43.8411C44.9497 42.3754 45.125 40.8853 45.5716 39.4734C45.8024 38.7419 46.1049 38.0389 46.4959 37.3779C46.4858 37.3224 46.4875 37.2669 46.5035 37.2148C46.6316 36.7994 46.8961 36.5816 47.2096 36.299C47.25 36.2629 47.2905 36.2259 47.3301 36.188C47.4868 36.0098 47.6545 35.8441 47.8339 35.7037C47.903 35.6339 47.9713 35.5633 48.0395 35.4926C48.6066 34.8998 49.1425 34.2767 49.6186 33.609C50.0803 32.9615 50.4974 32.2854 50.8943 31.5967C51.2979 30.8962 51.565 30.1235 51.9678 29.428C52.0023 29.3683 52.0899 29.3566 52.1388 29.4062C52.2635 29.5348 52.3436 29.6778 52.3284 29.8283L52.3907 29.8375C52.4143 29.6105 52.6241 29.4255 52.9089 29.4751C53.3353 29.5491 53.6858 29.5769 54.0549 29.4356C53.99 29.0059 53.9302 28.5753 53.8712 28.144C53.7633 27.3502 53.6631 26.5538 53.5771 25.7575C53.369 25.8071 53.1626 25.8786 52.9603 25.9694C52.6722 26.0981 52.4 26.2713 52.1675 26.484C51.9383 26.6943 51.7799 26.9776 51.5001 27.124C51.1782 27.2913 50.7898 27.0146 50.8842 26.6514C51.0754 25.9173 52.1582 25.4968 52.8281 25.3581C53.0581 25.3101 53.2932 25.2899 53.5283 25.295C53.4752 24.7837 53.428 24.2725 53.3892 23.7603C53.3707 23.5182 53.3538 23.276 53.3378 23.033C52.8171 22.8757 52.2593 22.8286 51.7175 22.9026C51.5389 23.0447 51.3602 23.1852 51.1875 23.3273C50.639 23.7797 50.093 24.2346 49.5537 24.698C49.5048 24.7392 49.4568 24.7804 49.4079 24.8224C49.0877 25.0974 48.6883 24.8249 48.7423 24.4356C49.1821 21.2452 47.2239 18.7074 44.9312 16.7413C42.3933 14.5642 37.7792 14.3107 34.761 10.5397C33.3709 10.822 30.2674 11.6606 28.9866 13.6973C27.1935 16.5513 27.4278 19.1085 27.2913 22.3459C27.1548 25.5859 26.8076 28.9655 27.5449 32.1601C28.2249 35.1058 30.066 37.6226 32.9224 38.7797C32.9932 38.8083 33.0648 38.836 33.1364 38.8629C34.6135 39.4188 36.2254 39.576 37.7792 39.2834C39.4989 38.9588 40.9347 38.1734 42.3655 37.2072C42.448 37.1526 42.5685 37.2652 42.5062 37.3476C40.6204 39.8418 36.9163 40.6751 33.9782 40.0167C33.8408 39.9856 33.7043 39.9519 33.5687 39.9149C34.2259 41.8011 34.0936 43.8714 33.2375 45.7079C32.7227 46.8128 31.9374 47.7689 30.981 48.5232C29.9269 49.354 28.6192 50.0251 27.8879 51.1914C27.218 52.2602 27.4168 53.461 28.5636 54.0782C28.8526 54.2346 28.9639 54.74 28.6774 54.962C28.5678 55.0461 28.4583 55.1319 28.3462 55.216C27.7042 55.6995 25.9406 56.6077 25.6549 56.6413C23.1187 56.9415 21.4133 55.0831 20.3204 52.8909C19.0371 50.3177 19.3708 47.182 20.7847 44.7316C21.9188 42.7656 24.1526 40.8281 23.2645 38.3399C22.9477 37.4511 22.2997 36.6934 21.6703 36.0089C20.9524 35.2294 20.1806 34.4995 19.4922 33.6922C18.808 32.8909 18.2013 32.0188 17.8626 31.0131C17.368 29.5432 17.614 27.9539 17.9856 26.4865C18.7818 23.3365 19.8157 20.2286 20.917 17.1736Z" fill="black"/>
<path fill-rule="evenodd" clip-rule="evenodd" d="M35.1236 33.6188C35.6901 33.3882 36.1955 33.0035 36.5649 32.5121C36.6934 32.3413 36.7267 32.1609 36.6998 31.9959C36.6695 31.8104 36.5595 31.6423 36.4095 31.5295C36.2591 31.4164 36.0709 31.3606 35.8889 31.389C35.7308 31.4137 35.5734 31.5001 35.4489 31.6793L35.4229 31.7151C35.2032 32.0117 34.917 32.255 34.5908 32.4119C34.2764 32.5631 33.9248 32.6336 33.561 32.5926C32.8681 32.5145 32.3905 32.1405 31.8828 31.6326C31.8199 31.5685 31.7569 31.5023 31.6937 31.4351C31.6537 31.3742 31.5982 31.3351 31.5367 31.3145C31.4683 31.2917 31.391 31.293 31.3202 31.3177C31.2519 31.3415 31.1908 31.3866 31.1499 31.4466C31.1109 31.5036 31.0889 31.574 31.096 31.6551C31.1425 32.1814 31.4182 32.6511 31.8099 33.02C32.2449 33.4296 32.8215 33.713 33.3643 33.8124C33.9624 33.9219 34.5718 33.8435 35.1236 33.6188ZM33.0822 25.4991C32.4459 25.8851 31.4764 26.7851 32.1609 27.742C32.9666 28.5857 34.1267 27.6183 34.6983 27.1808C35.2284 26.8417 35.8239 27.7138 35.3322 28.1097C31.2014 31.1618 29.5251 25.6 32.7604 25.0453C33.1166 24.9841 33.2489 25.3797 33.0822 25.4991ZM40.4846 21.9487C40.4143 21.0779 39.0853 20.8801 38.953 21.7419C38.8347 22.5138 38.974 23.223 39.3224 23.918C39.6554 24.5819 40.4921 24.2722 40.5554 23.6675C40.6402 22.8571 40.5283 22.4905 40.4846 21.9487ZM30.368 21.5632C30.1827 21.321 29.9151 21.1557 29.5946 21.2491C28.5932 21.5412 28.8883 22.96 29.2401 23.6506C29.4312 24.0257 30.0489 24.1208 30.328 23.7906C30.783 23.2521 31.0009 22.1766 30.4225 21.6462C30.4068 21.6188 30.3894 21.5911 30.368 21.5632ZM39.3366 18.1381L39.1784 18.1105C38.689 18.026 38.0805 17.9449 37.7343 18.3375C37.5507 18.5457 37.4875 18.9327 37.7343 19.132C38.1685 19.4826 38.6484 19.3467 39.1686 19.3764C39.5973 19.401 40.0094 19.4718 40.4223 19.5896C41.3283 19.848 42.0665 20.3197 42.8403 20.8377C42.9418 20.9057 43.0454 20.7761 42.997 20.6813C42.5503 19.8082 41.6847 19.091 40.8177 18.6538C40.3549 18.4205 39.8485 18.2269 39.3366 18.1381ZM31.2808 17.747L31.1598 17.7717C29.8422 18.0466 28.1303 18.5956 27.5064 19.8872C27.4826 20.0698 27.5077 20.109 27.5281 20.1346L27.5349 20.1431C27.5518 20.1649 27.5652 20.195 27.6445 20.2199C27.6665 20.2146 27.6888 20.2091 27.7112 20.2032C27.9972 20.1284 28.2235 20.0254 28.4426 19.9184L28.6801 19.8017C28.9557 19.6668 29.2337 19.5369 29.5283 19.4409C30.1571 19.2363 30.8038 19.0921 31.4606 19.0151C31.6029 18.9984 31.74 18.9505 31.8481 18.8683C31.9508 18.7903 32.0292 18.6823 32.065 18.5388C32.1113 18.353 32.098 18.2124 31.9981 18.0448C31.923 17.919 31.8156 17.8317 31.6922 17.7816C31.5664 17.7306 31.4232 17.7185 31.2808 17.747Z" fill="black"/>
</svg>
