<svg width="94" height="252" viewBox="0 0 94 252" fill="none" xmlns="http://www.w3.org/2000/svg">
<path fill-rule="evenodd" clip-rule="evenodd" d="M2.10393 124.333C-0.192688 124.385 0.792099 102.956 2.32569 99.0073C2.54044 98.2071 2.7178 97.1136 2.68208 96.1317C0.785278 96.3213 0.989479 95.023 1.08742 93.4575C1.05524 92.2144 0.968834 89.6496 2.87131 90.6483C8.57491 79.2294 2.40794 49.7117 17.4254 46.9315C19.2349 46.492 21.1052 46.0372 22.6288 44.7825C24.2409 41.8025 25.062 41.4219 27.7334 41.2291C28.228 38.5448 29.1526 35.6771 31.908 34.6326C34.4307 33.6441 37.3667 33.5652 39.9972 34.0927C42.1744 34.8029 42.3736 38.8499 42.8572 40.8452C45.7896 40.0676 49.4034 38.4321 50.9821 42.1396C51.7468 41.911 52.4553 42.0594 53.2323 42.3137C59.7445 43.363 66.0628 46.3091 68.4782 52.4562C69.9702 56.145 68.9114 60.1605 68.3518 63.9809C67.83 68.1409 69.2061 71.9949 69.8439 75.9963C70.7937 81.5063 70.9655 85.926 70.3457 90.0213C71.9839 90.394 72.1048 91.8842 71.442 93.4435C71.2473 93.9711 71.0513 94.5274 70.6209 94.8257C69.7454 95.3768 68.6138 94.7417 67.6624 94.6445C67.4645 96.8448 67.0812 99.0038 66.4472 101.458C66.6308 102.192 66.8414 103.012 67.0305 103.75L67.0943 103.68C69.2666 112.779 75.7271 121.618 73.7192 131.288C73.6011 131.61 73.3771 131.543 73.205 131.537C72.2083 131.916 71.2927 131.676 70.2875 131.714C67.9034 131.716 65.5999 132.022 63.4631 132.287C63.0725 134.839 61.8026 139.016 59.5379 139.989C59.4998 140.002 58.8285 139.862 58.7724 139.858C64.8013 164.304 75.6489 186.909 79.9578 211.848C79.9833 212.152 79.4881 211.991 79.3256 212.028C79.3479 212.72 78.9007 212.886 78.2746 213.132C79.0815 214.819 79.8082 216.504 80.6114 218.195C80.9838 219.032 81.5908 219.858 81.7014 220.753C82.5905 221.322 83.1894 222.432 83.1736 223.469C85.5713 224.483 84.9196 229.488 85.4666 231.967C86.0198 235.661 88.6508 238.24 90.4548 241.269C90.8224 241.876 91.2139 242.673 91.2313 243.436C92.3496 243.961 92.7667 245.106 92.6926 247.034C92.6966 249.289 92.0604 250.148 90.345 250.203C85.6855 250.668 80.2482 250.479 75.5616 249.949C72.0557 249.503 68.949 249.873 69.7329 245.661C69.8942 244.641 69.5843 243.268 70.1879 242.442C70.5601 239.985 70.3436 237.509 69.5411 235.082C69.0532 233.038 68.229 228.816 68.5706 226.073C68.7285 224.805 71.3181 224.107 71.7739 224.045C71.6289 223.09 71.6928 221.421 72.2066 220.758C71.2631 220.626 71.0259 220.377 70.8294 219.329C70.3599 217.632 70.2974 215.789 69.1345 214.359C67.0431 214.386 64.9587 213.855 62.8684 213.791L62.7643 213.551C61.528 213.535 60.2986 213.317 59.1251 212.888C58.8649 213.011 58.532 213.117 58.3858 212.723L57.6877 210.54C49.5617 184.68 40.5545 158.758 31.772 133.088C31.2594 131.84 30.6429 130.514 29.8411 129.401C29.5695 145.108 26.2793 160.798 25.9967 176.497C25.6149 187.297 25.7132 197.983 24.6973 208.821C24.4358 211.115 24.1579 211.039 23.8155 210.898C23.6783 210.92 23.3554 210.989 23.2153 211.018C23.4443 213.297 23.7078 216.997 24.6853 219.329C26.846 219.662 26.459 221.32 25.9798 222.694C26.4953 223.135 26.422 224.161 26.269 224.729C28.3019 224.731 28.7452 226.385 28.6053 227.428C28.4119 229.173 28.5201 231.889 27.3557 233.379C26.67 235.28 25.5537 237.073 25.1178 239.121C24.8437 240.627 24.9495 242.822 24.6853 244.316C25.3502 244.623 25.0684 245.105 25.1806 246.036C25.756 250.3 23.7303 249.576 20.1486 249.869C18.0017 250.343 1.65786 251.287 2.36416 248.45C2.24371 247.294 2.78099 246.787 3.01107 245.65C3.11442 245.348 5.15064 241.854 6.36516 240.531C10.4386 236.704 10.2607 231.566 10.1316 225.647C10.3712 224.043 11.6052 222.507 13.1798 222.679C12.7277 220.966 13.5657 219.476 15.3169 218.981C15.142 217.041 14.9578 214.405 14.3174 212.727L14.9205 212.113L14.1132 212.21L13.8452 211.535L13.5529 212.274C12.1669 212.274 10.6031 211.967 9.27536 211.822C9.06326 211.834 9.15792 211.546 9.12309 211.435C7.86931 211.175 7.73202 210.509 7.9536 208.922C7.66156 183.147 7.78831 157.614 8.1875 131.792C6.22803 131.879 4.31733 131.165 2.39172 130.688C1.70758 131.118 1.51373 129.589 1.59377 129.259C1.70234 127.55 1.91373 125.884 2.10393 124.333Z" fill="white"/>
<path fill-rule="evenodd" clip-rule="evenodd" d="M42.344 37.251C42.0528 37.4809 42.0833 38.1183 42.0546 38.4751L42.0526 38.4985C41.9609 39.5763 42.0849 40.659 42.3477 41.7054L42.37 41.7925C42.5023 42.306 42.6194 42.9478 43.0315 43.3076C43.4777 43.6972 44.1866 43.445 44.2028 42.8167C44.2108 42.5248 44.1134 42.2436 43.99 41.9697C44.8545 42.3033 45.7191 42.6332 46.5872 42.9551C47.1418 47.5407 40.7354 53.155 37.0263 55.1205C31.6248 58.1103 27.0801 53.5309 26.3887 48.1475C26.2725 47.4324 26.1947 46.6975 26.1795 45.9725C26.167 45.3669 26.2903 44.5216 25.8844 44.0037C26.1719 43.9969 26.4273 44.0373 26.7088 44.0814L26.6953 44.1048C26.5357 44.3899 26.3102 45.0996 26.8152 45.1535C27.9055 45.0388 28.4126 43.1276 28.6784 42.211C28.8512 41.587 29.0895 38.997 28.5621 38.6919C28.4032 39.3071 28.4657 39.9751 28.2724 40.5921C27.8325 40.7692 26.9949 40.8172 26.8009 40.8498C24.5353 40.876 23.2507 42.5023 22.3324 44.4059C19.6404 46.6152 15.7709 46.2356 12.864 48.0551C3.96875 54.5026 6.8738 79.6026 2.44322 90.2808C1.55614 89.9138 0.651978 90.6486 0.533516 91.5454C0.411034 92.2352 0.447693 92.9737 0.437859 93.6725L0.433662 93.7598C0.361244 95.189 0.11409 96.7953 2.04448 96.8265C2.04144 97.6243 1.89124 98.3967 1.69848 99.1668C0.629547 103.829 0.163025 108.631 0.0577927 113.41L0.0524902 113.761C0.0177536 116.273 -0.0129929 124.044 1.43116 124.964L1.36389 125.511C1.19668 126.88 1.03917 128.252 0.951134 129.628C0.812553 130.342 1.28416 132.054 2.24653 131.601C4.0114 132.037 5.75195 132.681 7.58583 132.684C7.14149 147.466 7.36232 162.262 7.29669 177.05C7.43831 187.95 6.84895 198.94 7.36411 209.799L7.34547 209.952C7.19987 211.171 7.15614 212.231 8.56563 212.649C8.58592 212.947 8.81552 213.107 9.08784 213.142C9.86031 213.246 10.6328 213.344 11.4061 213.439C12.1266 213.493 12.8973 213.672 13.6153 213.586C13.546 213.657 13.7344 213.667 13.7548 213.616C14.4094 215.259 14.5994 217.049 14.7615 218.801C13.1726 219.407 12.3054 220.769 12.5648 222.477C10.9616 222.542 9.79076 224.323 9.56617 225.824C9.42223 226.86 9.53756 227.889 9.58396 228.927C9.80587 232.473 9.28454 236.294 6.99487 239.123L6.89941 239.236C5.42683 240.967 3.55987 242.554 2.92513 244.817C2.74899 244.899 2.60416 245.058 2.54068 245.307L2.12924 246.921L1.92467 247.729C1.77483 248.317 1.64169 248.919 1.72204 249.528L1.73048 249.587C2.13129 253.447 17.9534 251.586 21.0414 251.309C22.2828 251.115 23.6448 251.221 24.7624 250.563C26.1334 249.659 26.3049 247.823 26.0695 246.32L26.05 246.179C25.9547 245.507 25.8151 244.802 25.1773 244.426C25.392 243.034 25.3089 241.608 25.5643 240.221C25.9501 238.258 27.1171 236.555 27.7128 234.67C28.5818 233.704 28.6112 232.197 28.7928 230.962C28.9305 229.763 29.0432 228.556 29.0896 227.35C29.2157 225.756 28.5238 224.442 26.8474 224.233C26.9252 223.931 26.7123 223.67 26.5005 223.477C27.0003 221.702 27.1382 219.265 24.9698 218.66C24.1487 216.623 23.9099 214.417 23.6914 212.245C23.7173 212.239 23.7432 212.235 23.7691 212.23C24.8492 212.68 25.0738 210.549 25.146 209.716C26.1684 198.907 26.0743 188.036 26.4583 177.194L26.4958 176.41C26.8325 169.267 27.0328 162.061 28.2682 155.013C29.5116 147.158 29.8366 139.175 30.2617 131.237C30.7623 132.015 31.0315 132.908 31.4366 133.737C36.6932 149.179 42.0868 164.575 47.2837 180.039C51.0504 191.235 54.6489 202.49 58.2582 213.738C58.4424 214.314 59.0226 214.433 59.4473 214.249C60.5283 214.624 61.6629 214.837 62.8045 214.874C62.8733 215.032 63.0146 215.148 63.2211 215.125C63.8318 215.058 64.5345 215.249 65.1451 215.32C66.5424 215.458 67.8987 215.673 69.3088 215.693C70.1823 216.797 70.2372 218.294 70.6399 219.609C70.8717 220.279 70.8354 221.781 71.636 221.97C71.349 222.412 71.3114 222.943 71.3579 223.489C71.1089 223.546 70.8564 223.653 70.6221 223.762C70.394 223.878 70.0927 223.868 69.9354 224.101C65.4636 224.911 68.7316 233.402 69.5088 236.21C70.2717 238.506 70.5106 240.904 70.1625 243.301C69.6304 244.036 69.8086 245.129 69.7272 246C69.6843 246.778 69.6056 247.567 69.6126 248.345C69.6995 251.578 73.6914 251.052 75.9435 251.472C77.3499 251.636 78.7625 251.749 80.1751 251.838C83.7578 252.061 87.3605 252.078 90.9359 251.731C93.2443 251.658 93.7407 250.152 93.737 248.093L93.7406 248.008C93.7926 246.61 93.5672 244.922 92.2395 244.195C92.1733 243.456 91.7986 242.711 91.4161 242.065C89.6371 239.074 86.9661 236.454 86.4407 232.864C85.9254 230.515 86.5093 225.343 84.1206 224.118C84.0652 223.06 83.4153 221.981 82.6105 221.409C82.4552 220.528 81.8701 219.718 81.5081 218.908C80.7698 217.362 80.0869 215.791 79.3525 214.244C79.737 214.081 80.1456 213.782 80.1993 213.357C80.5685 213.361 80.9333 213.123 80.8886 212.673C80.7581 211.369 80.4727 210.086 80.2032 208.805L80.1697 208.644C75.3745 185.466 65.4724 163.792 59.6789 140.911C60.4584 141.052 61.1872 140.161 61.6181 139.581C63.0101 137.707 63.8323 135.439 64.1939 133.138L64.8482 133.057C67.0303 132.789 69.2232 132.555 71.4236 132.618L71.9539 132.635C72.5431 132.653 73.1332 132.649 73.6932 132.437C74.0839 132.473 74.4907 132.263 74.5872 131.825C76.2169 123.703 72.211 115.996 69.3418 108.657C68.6659 106.852 68.1849 105.022 67.7262 103.153C67.7111 103.093 67.6163 103.105 67.619 103.168C67.7084 105.245 68.2234 107.34 68.7465 109.342C70.4641 116.131 74.0423 122.789 73.1675 129.977C70.4481 127.835 67.2182 126.348 63.8255 125.718C63.6297 124.868 63.4134 124.023 63.2506 123.167C63.4107 121.851 63.5198 120.529 63.6592 119.206C64.0759 115.25 64.7123 111.305 65.5608 107.418C66.877 103.508 68.0261 99.5446 68.4371 95.4217L68.5118 95.4364C69.4244 95.6216 70.4299 96.0237 71.2765 95.4425C71.8139 95.07 72.0464 94.4526 72.2635 93.8596C72.8836 92.4219 72.9983 90.5321 71.2435 89.931C71.8977 85.3598 71.4726 80.5878 70.682 76.0595C70.0488 72.0902 68.6599 68.1796 69.1798 64.1162C69.7571 60.2115 70.8333 56.1218 69.2775 52.2995C66.7206 45.9205 60.2454 42.894 53.8774 41.92L53.7742 41.8897C52.9864 41.6565 52.269 41.4106 51.4482 41.5873C49.5121 37.9949 46.3722 39.4559 43.306 40.2567C43.0991 39.6475 42.9265 39.0243 42.7642 38.4016C42.6632 38.0844 42.6966 37.3526 42.344 37.251ZM24.597 246.169L24.605 246.326C24.6861 248.008 24.5948 249.449 22.5093 249.438C21.0743 249.591 19.6391 249.74 18.2018 249.87L17.6626 249.918C13.3967 250.298 9.07957 250.485 4.82176 249.913L4.64439 249.889C4.28856 249.839 3.62964 249.848 3.34792 249.585C3.00836 249.128 3.40138 248.257 3.4839 247.727C10.1275 247.65 16.7797 247.404 23.4276 247.489C24.1268 247.493 24.4424 246.895 24.378 246.351C24.4567 246.298 24.5309 246.236 24.597 246.169ZM92.0491 245.326C92.3757 246.474 92.2952 247.56 92.1107 248.71C92.0184 249.915 91.4454 249.992 90.4085 250.02C86.3605 250.394 82.2832 250.315 78.2341 250.002C76.064 249.768 73.8338 249.777 71.7039 249.297C70.6878 248.847 71.2744 247.431 71.2399 246.562C76.023 249.645 83.2569 249.254 88.4728 247.47L88.5564 247.435C89.7902 246.916 91.3675 246.59 92.0491 245.326ZM84.1259 224.586C84.6981 225.231 84.6873 227.118 84.7132 227.641C84.775 228.904 84.7652 230.17 84.8199 231.433C84.7796 236.751 87.8506 239.403 90.1312 243.679C90.755 244.716 89.8475 244.864 89.1094 245.2C84.3297 247.425 78.676 247.765 73.6826 246.062C71.1726 245.332 71.7207 243.643 71.9337 241.577C72.1435 237.355 69.922 233.551 69.2649 229.467L69.2411 229.324C69.0445 228.1 68.7323 225.096 70.623 225.747C71.0388 226.003 71.4295 225.682 71.4786 225.289C71.5281 225.297 71.5789 225.302 71.6279 225.303C71.8488 226.668 72.0777 228.031 72.2976 229.396C72.1125 229.514 71.9391 229.646 71.7853 229.798C71.5984 229.984 71.729 230.372 72.0106 230.349C72.1553 230.336 72.2985 230.314 72.4406 230.287C72.5534 231.474 74.4378 230.808 73.8935 229.857C76.603 228.921 79.5881 228.995 82.3396 229.713L82.351 229.718C82.564 229.803 84.0956 230.11 83.6029 230.349C83.3976 230.374 83.8651 230.642 83.9471 230.227C83.9736 229.705 82.7831 229.449 82.4183 229.232C83.3383 227.916 83.9669 226.209 84.1259 224.586ZM14.7115 220.417C17.2638 219.035 20.4006 219.548 23.1692 219.792L23.2855 219.805C23.99 219.881 24.972 219.928 25.2954 220.654C25.7636 221.816 24.9875 224.417 24.7437 225.711L24.6331 226.163C24.4412 226.952 24.2635 227.737 24.1974 228.554C24.1956 228.582 24.2215 228.601 24.2457 228.601C25.2154 227.564 25.6513 226.171 26.1043 224.842C26.2975 224.952 26.4862 225.071 26.6641 225.202C27.3591 227.591 27.5917 230.134 27.0415 232.571L27.0217 232.657C26.3419 235.668 24.2252 238.13 24.0239 241.277C23.8895 242.549 23.9195 243.853 23.5537 245.088C23.3455 245.134 23.164 245.288 23.0825 245.48L21.8893 245.482C16.1218 245.492 10.3528 245.544 4.58896 245.781C4.77493 244.161 6.20541 242.722 7.21293 241.611C10.3047 238.445 11.6419 233.896 11.1326 229.513C10.8646 227.32 9.64073 223.874 12.6346 223.064C12.8531 224.851 13.1487 226.632 13.3123 228.427C12.7472 228.7 12.7821 229.418 13.4723 229.404C13.7821 230.447 14.8209 230.025 14.7087 229.042C18.5082 227.638 20.6881 227.168 24.3896 229.282C24.4932 229.267 24.1052 228.851 24.0561 228.778C22.8864 227.516 21.0898 226.923 19.4043 226.902C17.7335 226.902 16.1623 227.531 14.5863 228.018C14.3493 226.325 14.1897 224.621 14.002 222.922L13.9613 222.558C13.8629 221.666 13.8988 220.929 14.7115 220.417ZM75.7719 242.283C75.2158 242.159 74.7044 241.971 74.1393 242.099C72.151 243.592 80.2755 244.014 80.9672 243.908C82.7283 243.856 84.49 243.632 86.1848 243.135L86.3152 243.096C86.5387 243.034 88.1526 242.578 87.8389 242.372C85.5466 242.576 83.3025 242.996 80.9672 242.887C79.8023 242.863 78.6329 242.78 77.4804 242.605C76.9073 242.517 76.3369 242.411 75.7719 242.283ZM22.057 240.433C22.4211 239.887 20.6464 240.612 20.4155 240.618C18.9459 240.98 17.4503 241.255 15.9408 241.369C14.9287 241.446 13.9059 241.462 12.892 241.413C12.1412 241.387 11.3985 241.276 10.6524 241.199L10.6256 241.198C10.1823 241.183 9.29411 241.457 9.84152 241.985C10.6927 242.645 11.9523 242.444 12.9725 242.541C16.0708 242.531 19.3517 242.032 22.057 240.433ZM80.3056 236.467C79.4123 236.305 74.496 236.252 74.986 237.761C75.1049 238.048 75.3767 238.143 75.6628 238.098C78.7056 237.358 81.9879 236.97 85.0209 237.991C85.0701 238.008 85.104 237.928 85.0558 237.906C83.5645 237.159 81.9689 236.636 80.3056 236.467ZM16.4897 234.992C15.6871 234.931 14.8796 234.952 14.0765 235.012L13.8152 235.033C13.4551 235.061 13.0843 235.094 12.7392 235.199L12.6748 235.219C12.2337 235.362 11.24 236.119 11.9944 236.484C12.8044 236.746 13.4893 236.434 14.2707 236.234C16.4488 235.718 18.7384 235.892 20.8965 236.42L20.5925 236.518C20.5738 236.504 20.5496 236.536 20.5675 236.551C20.7856 236.742 21.0852 236.674 21.2398 236.437C21.2666 236.396 21.2497 236.331 21.2067 236.309C19.7441 235.541 18.1312 235.116 16.4897 234.992ZM84.3298 234.799C81.8699 233.71 79.0198 233.59 76.3817 233.906L76.1938 233.928C75.3708 234.025 74.2974 234.069 73.8264 234.836C73.6637 235.102 73.8318 235.407 74.0946 235.502C74.8689 235.785 75.779 235.219 76.5229 235.008C78.7223 234.406 81.0714 234.342 83.3079 234.758C83.2922 234.841 83.6626 234.805 83.7433 234.834C83.8444 234.829 84.5153 235.051 84.3298 234.799ZM22.2966 233.099C20.1506 232.055 17.6694 231.806 15.3525 232.345L15.2562 232.372C14.2296 232.661 12.5768 233.001 12.209 234.088C12.1294 234.333 12.3019 234.663 12.5603 234.713C13.4356 234.88 14.2304 234.241 15.0226 233.934C17.3531 233.058 19.9912 232.848 22.4012 233.493C22.4173 233.588 22.4334 233.682 22.4504 233.777C22.4093 233.75 22.3663 233.81 22.3994 233.844C22.784 234.113 23.1841 233.433 22.2966 233.099ZM78.8001 231.264C77.0637 231.148 75.3127 231.369 73.6363 231.827L73.3211 231.914C72.863 232.042 72.2695 232.245 72.2028 232.74C72.1769 232.937 72.2261 233.072 72.3861 233.195C72.9697 233.631 74.2389 232.716 74.9645 232.609C77.5986 231.817 80.4262 231.828 83.0945 232.434L83.1854 232.455L83.121 232.913C83.0577 233.132 83.6443 232.616 83.4214 232.381C82.0128 231.663 80.3692 231.393 78.8001 231.264ZM20.6596 230.445C19.266 230.193 17.8284 230.145 16.4193 230.272L16.2529 230.287C15.4115 230.362 12.6853 230.47 13.3301 231.893C13.4382 232.131 13.7521 232.161 13.9551 232.058C14.6364 231.713 15.3811 231.588 16.133 231.474C18.7878 231.105 21.5001 231.256 24.0919 231.971C24.0356 232.06 24.1518 232.165 24.2618 232.186C24.5354 232.236 24.5353 231.91 24.4182 231.736C24.2787 231.531 24.0007 231.456 23.7861 231.366C22.788 230.931 21.7296 230.637 20.6596 230.445ZM73.442 222.528L73.6007 222.491C76.2601 221.865 82.1564 220.743 82.767 224.407C82.9837 226.021 82.2688 227.595 82.3217 229.194C79.5639 228.072 76.5144 228.083 73.6493 228.825C73.3955 227.166 73.1532 225.505 72.8939 223.847L72.852 223.649C72.7367 223.09 72.6974 222.653 73.442 222.528ZM79.3651 223.196C78.7855 222.698 77.8192 222.706 77.2506 223.248C76.7308 223.357 76.3641 223.909 76.3557 224.383C75.5653 225.772 76.5185 227.692 78.0276 228.039C81.4351 228.758 82.9585 224.076 79.3651 223.196ZM20.327 220.978C17.4759 220.469 16.4402 224.087 18.7802 225.554C22.0859 227.213 24.2885 221.998 20.327 220.978ZM77.9543 212.942C77.9123 213.219 78.0482 213.415 78.2109 213.602C78.7954 215.999 79.6752 218.229 80.5426 220.527C77.7207 220.059 75.0545 220.468 72.5577 221.234C72.5278 220.533 72.2084 219.806 71.9865 219.145C71.5543 217.89 71.032 216.667 70.4296 215.486L70.3539 215.338C70.1375 214.918 69.9292 214.479 69.6735 214.076C72.4354 213.699 75.1972 213.359 77.9543 212.942ZM22.3315 212.431L22.405 212.765C22.722 214.212 23.0229 215.672 23.4947 217.078L23.5011 217.107C23.5733 217.461 23.7357 219.104 23.838 217.944C23.9167 218.119 24.0007 218.292 24.0901 218.462L23.6022 218.403C20.9922 218.093 18.2588 217.825 15.6931 218.482C15.9527 216.471 15.5706 214.549 15.0128 212.646C17.4578 212.59 19.8812 212.608 22.3315 212.431ZM68.6337 214.932C68.7232 215.016 68.8108 215.101 68.8939 215.191C68.7813 215.162 68.6685 215.134 68.564 215.11C68.5683 215.044 68.6149 214.994 68.6337 214.932ZM13.5349 213.087L13.5883 213.212C13.5971 213.232 13.6058 213.253 13.6144 213.274C13.5733 213.249 13.5276 213.226 13.4786 213.205C13.5009 213.169 13.5197 213.13 13.5349 213.087ZM58.1983 94.0413C58.4487 94.1624 58.7097 94.1932 59.0548 94.2076C61.8588 94.324 64.6538 94.6489 67.4071 95.2029C67.2551 97.4312 66.5774 99.5899 65.9325 101.714L65.7988 102.18C63.6198 109.791 61.7178 117.745 62.1009 125.707C62.0794 125.715 62.0589 125.726 62.0392 125.736C62.074 125.833 62.099 125.933 62.134 126.03L62.1563 126.087L62.2872 126.412C62.3595 126.593 62.4297 126.774 62.4907 126.96C62.5977 126.998 62.7292 127.026 62.8546 127.044C63.4907 131.259 62.8859 135.985 60.0195 139.282C61.2091 136.792 61.6658 133.697 61.1754 130.979C60.9093 131.267 60.8903 131.932 60.7884 132.363C60.5086 133.839 60.3121 135.335 59.8918 136.779L59.8462 136.924C59.3749 138.404 58.5862 140.311 57.2192 141.075C56.9614 141.152 56.5626 141.056 56.4406 141.372C56.3701 141.655 56.5014 142.004 56.7912 142.092L56.8116 142.097C57.644 142.333 58.3503 141.706 58.8841 141.044L58.9107 141.39C58.962 142.044 59.0335 142.672 59.4134 143.21C59.4581 143.397 59.5019 143.585 59.5473 143.773C60.5754 150.118 62.122 156.678 64.9377 162.406L65.2652 163.394C70.6182 179.524 76.1621 195.644 79.3883 212.38C75.9984 212.023 72.5801 212.195 69.197 212.531C66.0067 212.863 62.6324 213.745 59.5761 212.336C51.2957 187.032 42.754 161.804 33.3927 136.885C32.2645 132.93 30.1453 129.116 29.0969 125.061L29.0313 124.847C28.7849 124.034 28.6692 123.507 28.8501 122.599L28.8577 122.488C28.8951 121.92 28.9082 121.058 28.26 120.9C28.15 120.873 28.0061 120.894 27.93 120.989C27.5292 121.503 27.9044 122.158 27.7889 122.755C27.4524 125.04 28.3536 127.194 29.4071 129.163C29.3382 129.247 29.2908 129.349 29.2828 129.461C29.1907 130.675 29.2023 131.902 29.1495 133.118C28.9995 136.617 28.7814 140.112 28.505 143.603C27.6391 149.996 26.4118 156.322 25.7449 162.743C24.2266 177.699 24.4997 192.77 23.3971 207.755C23.3883 209.071 22.9753 210.439 23.3936 211.717C23.1299 211.543 22.7552 211.582 22.5237 211.792C18.0291 211.481 13.5277 211.633 9.0342 211.366C9.02974 211.164 9.01453 210.975 9.00649 210.829C9.13229 210.53 8.92352 210.198 8.9296 209.88C9.47793 206.77 9.02651 203.428 9.13961 200.248C9.13434 197.239 9.11914 194.231 9.09858 191.221C8.92862 172.416 9.15714 153.607 8.81337 134.804C8.78655 133.879 8.74444 132.957 8.68463 132.035C8.93201 131.76 8.76706 131.369 8.76679 131.038L8.75232 130.744C8.67709 129.258 8.59164 127.893 9.17099 126.428C9.15759 126.254 9.11726 126.09 9.02616 125.956C11.7365 124.685 14.5662 123.722 17.3641 122.675C17.8362 122.791 18.4272 122.498 18.5264 121.989C19.5805 116.578 20.4111 111.133 21.129 105.668C25.8271 108.754 31.5554 109.242 36.8903 110.493L37.9 110.755C40.39 111.404 43.0018 112.159 44.8957 113.929C45.0871 116.722 43.6647 124.771 47.939 124.56C49.3393 124.988 50.7787 125.331 52.2117 125.516C50.5432 128.684 47.4997 132.906 49.906 136.414C50.255 136.784 50.7242 136.409 51.0432 136.179C51.0037 138.23 50.9489 140.271 50.9466 142.321C50.9466 142.594 51.2283 142.841 51.5001 142.747C53.0413 142.216 53.2319 140.37 53.4706 138.977C53.6842 137.733 53.8988 136.489 54.1098 135.244C54.2443 137.478 53.707 139.777 54.1446 141.985C54.5647 143.248 55.8699 142.872 56.2611 141.813L56.2726 141.781C57.0463 139.634 57.4232 137.342 57.5796 135.069L57.5879 134.936C57.633 134.246 57.7063 133.516 57.5357 132.848C57.1897 133.499 57.2758 134.561 57.1147 135.348C56.8447 137.031 56.4796 138.702 55.9667 140.327L55.9533 140.385C55.7215 141.338 54.8136 143.195 54.8241 140.862C54.7893 139.676 54.8912 138.495 54.9556 137.312L54.9645 137.143C55.0486 135.527 55.0396 133.897 54.5551 132.339C54.4317 131.94 53.7611 131.865 53.6798 132.339C53.3542 134.234 53.0432 136.13 52.7321 138.027C52.5053 139.185 52.5146 140.492 51.8255 141.491C51.8175 139.31 51.9383 137.135 52.0428 134.956L52.0636 134.889C52.1485 134.611 52.2403 134.24 52.0454 134C51.9694 133.502 51.2435 133.559 51.1818 134.08C51.1684 134.189 51.1585 134.299 51.1478 134.408C50.9073 134.71 50.6838 135.018 50.3995 135.278C48.5011 131.4 54.7122 124.702 55.5697 120.323C58.0952 111.794 56.6432 102.852 55.9087 94.167C56.6682 94.077 57.4341 94.053 58.1983 94.0413ZM79.4652 212.676C79.494 212.783 79.5161 212.901 79.568 212.999C79.5269 213.006 79.4849 213.014 79.4429 213.023C79.3919 212.92 79.3383 212.82 79.2802 212.721C79.3419 212.707 79.4035 212.692 79.4652 212.676ZM47.9372 172.733C47.8576 172.72 47.8255 172.83 47.9032 172.855C50.5201 173.726 52.7258 175.346 54.9314 176.953C55.2443 177.181 55.5367 176.705 55.3176 176.448C54.3952 175.367 53.2655 174.621 52.0078 173.993L51.9336 173.956C50.6755 173.322 49.3259 172.918 47.9372 172.733ZM22.8777 171.114C22.9081 171.055 22.8277 171.01 22.791 171.063C22.2081 171.884 21.4365 172.649 20.6703 173.295C19.8943 173.949 19.0476 174.466 18.217 175.04C17.7691 175.349 18.1535 176.008 18.6399 175.771C19.5858 175.311 20.4352 174.551 21.1299 173.76C21.846 172.944 22.3762 172.071 22.8777 171.114ZM39.1254 142.629C42.0136 147.484 46.2781 152.374 49.4607 157.353C51.61 160.545 53.5542 163.873 55.9096 166.921C56.3807 167.563 57.2891 167.027 56.9663 166.297C56.0705 164.274 55.0717 162.33 53.8694 160.476L53.4816 159.9C49.2942 153.692 44.8561 147.472 39.1254 142.629ZM27.0932 135.219C27.1182 135.138 26.9997 135.102 26.9678 135.174L26.9645 135.183C24.7963 141.131 21.4537 146.539 18.5291 152.117C18.3029 152.574 18.9055 153.124 19.2658 152.692C21.3302 150.215 22.7776 147.302 24.0614 144.353C25.4151 141.43 26.2456 138.317 27.0932 135.219ZM22.0552 44.9564C20.7276 47.6232 19.753 50.4454 19.078 53.3498C18.87 54.2466 20.0719 54.7969 20.5575 54.0113L20.572 53.9871C21.1691 52.9902 22.059 52.1121 23.1853 51.7688C23.9528 54.9885 23.5788 58.3909 23.18 61.642C22.473 66.1714 21.9103 70.72 21.8262 75.3099L21.8222 75.5559C21.5757 91.2305 19.2738 106.835 16.7526 122.181C12.722 122.829 9.03207 124.657 5.31673 126.263C4.67122 126.516 4.0114 126.735 3.3354 126.887C5.2021 109.488 12.3014 93.1708 14.495 75.8353C15.0749 71.3266 15.102 66.7483 14.3011 62.2657C14.2876 62.1799 14.1661 62.2088 14.1607 62.2847C14.0727 64.126 13.758 65.9433 13.5715 67.7746C13.4446 66.7287 13.1513 65.6692 12.9145 64.6667C12.6247 63.686 12.5176 62.1114 11.6689 61.472L11.6153 61.2867C11.593 61.2072 11.475 61.2406 11.4937 61.3202C11.5027 61.3581 11.5116 61.3952 11.5197 61.4332C10.9745 61.5783 11.4837 62.2253 11.6189 62.5351C12.4939 64.8848 12.7543 67.4282 13.3516 69.8501C12.4873 77.4106 10.9307 84.8751 9.01364 92.2234C7.25217 91.7582 5.48489 91.3105 3.71904 90.8557C7.6579 78.0041 5.35472 63.6616 11.256 51.3901C13.467 47.2719 18.912 47.8314 22.0552 44.9564ZM51.9811 42.607C52.8072 42.5627 53.6699 43.012 54.463 43.1666C55.5144 43.3709 56.5604 43.5327 57.5885 43.8465C62.8514 45.2922 67.9289 49.2405 68.8823 54.9291C69.5376 58.8352 67.9149 62.6409 67.972 66.5361C68.1432 70.3952 69.413 74.1042 69.9078 77.9244C70.503 81.8308 70.7079 85.9197 70.1975 89.8451C65.4763 88.5029 60.5459 88.4189 55.7047 89.1119C56.1085 83.1623 55.5787 77.1832 55.2855 71.2377C55.0745 67.4193 54.7133 63.5837 54.8412 59.7581C54.8438 59.6731 54.7062 59.6523 54.6929 59.7373C53.241 67.5508 54.0927 75.4827 54.2393 83.3627C54.3324 85.3536 54.0864 87.3635 54.1858 89.3434C51.9848 89.8182 52.0644 92.3902 52.7374 94.0855C52.8567 94.4935 53.2617 94.4227 53.5895 94.3731C53.9446 94.7471 54.7919 94.2591 55.2748 94.2592C55.6528 104.04 57.9492 114.488 53.2435 123.63C51.2761 123.64 49.3823 122.96 47.4703 122.574L47.366 122.554L47.3633 122.553C47.0823 122.186 46.9448 121.597 46.9072 121.165C46.64 113.633 47.4763 106.083 46.987 98.5494C46.3878 90.1878 44.5265 81.8771 45.3874 73.4587C45.9826 65.9349 47.6166 58.5473 48.4042 51.0459L48.4442 50.6578C48.4933 50.1953 48.5118 49.6843 48.7401 49.3317C50.0688 50.545 51.1837 51.9877 51.9819 53.611C52.4239 54.3951 53.6078 54.0462 53.626 53.1609C53.7963 51.5803 53.8215 49.9936 53.649 48.4126L53.6333 48.2731C53.4195 46.2941 52.8228 44.4051 51.9811 42.607ZM2.58538 96.8915C4.2966 96.9822 6.00997 97.1725 7.72441 97.1501L7.5518 97.7991C5.47649 105.586 3.26676 113.36 1.96401 121.328L1.91669 120.581C1.86955 119.833 1.82447 119.086 1.79503 118.337C1.42543 111.176 1.98985 104.024 2.58538 96.8915ZM7.59209 96.8988L7.79504 96.8888L7.78252 96.9331C7.74081 96.9247 7.69829 96.9171 7.65577 96.9097L7.59209 96.8988ZM2.01498 91.6395C2.04707 91.6295 2.1017 91.6295 2.1625 91.6322C2.25011 91.8347 2.42713 92.002 2.63277 92.0571L4.34815 92.5217C5.77792 92.9088 7.20848 93.2942 8.64082 93.6689C8.40032 94.5982 8.15615 95.5275 7.90948 96.4558C5.95597 95.8235 3.79298 95.967 1.8012 95.56C1.8257 94.4873 1.88409 93.4092 1.90232 92.3346C1.90679 92.1592 1.87103 91.8772 1.96043 91.7199C2.01667 91.6196 1.96043 91.6566 2.01498 91.6395ZM67.6368 95.2499L67.6905 95.2617C67.6726 95.3105 67.6565 95.3593 67.6413 95.409C67.6404 95.3557 67.6396 95.3033 67.6368 95.2499ZM54.9188 90.0882C58.5994 89.5499 62.3424 89.2318 66.0544 89.5982C67.7334 89.8266 69.4379 90.0703 71.0835 90.382C71.6557 91.2651 71.0226 93.414 70.3101 94.0937C70.0964 94.1751 69.729 94.0169 69.5242 93.9708C67.9881 93.6221 66.4368 93.3413 64.8778 93.122C64.8313 93.1807 64.7634 93.2187 64.6793 93.2106L64.3212 93.1773C62.1709 92.9804 60.0017 92.8359 57.8469 92.9593L57.8309 92.9719C56.377 93.0786 54.9282 93.3088 53.4804 93.4754C52.9088 91.9731 53.0074 90.2492 54.9188 90.0882ZM28.1393 41.0902C27.997 41.5743 27.8261 42.0448 27.6136 42.5022C27.3917 42.4404 27.0856 42.49 26.9225 42.6305L26.8531 42.6179C26.6623 42.5815 26.4331 42.5258 26.3735 42.5193C23.7437 42.1534 23.9441 45.6908 23.9345 47.4686C23.9184 48.3599 23.9006 49.2521 23.8737 50.1434C23.1212 49.8857 22.1149 50.349 21.4571 50.7591C21.9721 49.0352 22.5774 47.3393 23.2524 45.6733L23.406 45.2836C23.9311 43.9608 24.5191 42.6284 25.6306 41.7076C26.4896 41.4817 27.3218 41.4406 28.1393 41.0902ZM47.2058 40.2026C49.6501 39.326 50.6183 41.3181 51.2962 43.3049C52.0955 45.5052 52.3137 47.9278 52.1804 50.2953L52.0981 50.1858C51.1988 48.9804 49.9022 46.9906 48.2627 47.3104C48.2787 46.3958 48.2458 45.391 48.0714 44.4412C48.1733 43.8283 48.1992 43.2091 48.1285 42.5898C48.0911 41.8134 47.2501 41.9312 46.6963 41.8215C46.2171 41.5006 45.6368 41.3713 45.0539 41.5973C44.614 41.5385 44.1742 41.4825 43.7343 41.4264C43.6668 41.2773 43.6123 41.1274 43.5555 40.9744C44.7729 40.7214 45.99 40.4606 47.2058 40.2026Z" fill="black"/>
<path fill-rule="evenodd" clip-rule="evenodd" d="M17.8022 20.8075C18.1327 15.3943 19.8928 9.25702 25.073 6.59921C36.493 2.02524 51.508 13.5438 52.3029 25.3109C52.5801 29.3389 50.3391 33.7403 46.244 34.8601C45.3335 36.064 43.9566 36.7992 42.5975 37.4373C26.4102 45.8186 15.954 39.0055 17.8022 20.8075Z" fill="white"/>
<path fill-rule="evenodd" clip-rule="evenodd" d="M14.1144 17.4402C14.6865 15.8545 15.2908 14.2811 15.9265 12.7198C16.5457 11.2003 17.1049 9.64799 17.8738 8.20051C22.4659 -0.444764 30.8164 -0.444764 35.133 0.684848C37.3715 -0.277672 41.5643 -0.00616941 43.8952 0.862383C47.6686 2.26848 52.2685 7.79975 53.8412 10.2849C57.3135 15.7719 59.4805 23.0749 57.174 29.4154C56.8726 30.244 56.4881 31.0115 56.0552 31.7512C56.3279 32.12 56.6417 32.4693 56.9894 32.8126C58.0226 33.8327 59.0558 34.8192 59.9483 35.9698C60.8352 37.1133 61.5705 38.3292 62.1179 39.6699C63.15 42.1982 63.1998 45.061 61.8352 47.4735C60.648 49.5726 58.5449 51.1357 56.1755 51.2847C56.0539 51.3016 55.9321 51.3171 55.8097 51.3294C55.4958 51.8455 55.113 52.3206 54.6761 52.7349C53.3375 54.0055 50.1468 54.6573 48.3268 54.6991C48.2335 54.7739 48.1393 54.8488 48.0452 54.9227C46.9316 55.7974 45.7631 56.6798 44.4847 57.3021C43.6187 57.7241 42.4833 58.0766 41.5799 57.772C41.1701 58.0453 40.4977 57.9878 40.0914 57.7642C39.4234 57.3969 38.8801 56.7355 38.5496 56.0584C37.7482 54.4145 37.9409 52.6157 38.1467 50.8594C38.3735 48.9196 38.5915 46.9789 38.813 45.0391C38.9865 43.5222 39.1679 41.9801 39.6301 40.5189C39.869 39.7618 40.1821 39.0342 40.5867 38.3502C40.5762 38.2927 40.578 38.2353 40.5945 38.1813C40.7271 37.7514 41.0009 37.526 41.3253 37.2336C41.3671 37.1962 41.409 37.1579 41.45 37.1187C41.6122 36.9342 41.7857 36.7628 41.9715 36.6175C42.043 36.5452 42.1136 36.4721 42.1842 36.399C42.7711 35.7855 43.3257 35.1406 43.8184 34.4496C44.2963 33.7795 44.728 33.0798 45.1387 32.3671C45.5564 31.6421 45.8328 30.8423 46.2496 30.1226C46.2854 30.0608 46.3761 30.0487 46.4267 30.1C46.5557 30.2332 46.6386 30.3811 46.6229 30.5369L46.6874 30.5465C46.7118 30.3115 46.929 30.12 47.2237 30.1714C47.665 30.248 48.0277 30.2767 48.4097 30.1305C48.3425 29.6858 48.2806 29.2402 48.2196 28.7937C48.1079 27.9722 48.0042 27.148 47.9152 26.3239C47.6998 26.3752 47.4862 26.4492 47.2769 26.5432C46.9787 26.6764 46.697 26.8556 46.4563 27.0758C46.2191 27.2934 46.0552 27.5867 45.7657 27.7381C45.4326 27.9113 45.0305 27.625 45.1282 27.249C45.3262 26.4893 46.4467 26.0541 47.14 25.9105C47.3781 25.8609 47.6214 25.84 47.8646 25.8453C47.8097 25.3161 47.7609 24.787 47.7208 24.257C47.7016 24.0064 47.6841 23.7557 47.6676 23.5042C47.1287 23.3415 46.5514 23.2927 45.9907 23.3693C45.8058 23.5164 45.6209 23.6617 45.4421 23.8088C44.8745 24.277 44.3094 24.7478 43.7513 25.2274C43.7007 25.27 43.651 25.3126 43.6004 25.3562C43.269 25.6407 42.8557 25.3588 42.9115 24.9558C43.3667 21.654 41.3401 19.0275 38.9673 16.9929C36.3408 14.7397 31.5655 14.4774 28.4419 10.5746C27.0033 10.8668 23.7914 11.7347 22.4659 13.8425C20.6102 16.7962 20.8526 19.4427 20.7113 22.7932C20.5701 26.1464 20.2108 29.644 20.9738 32.9501C21.6776 35.9987 23.5829 38.6034 26.5391 39.8009C26.6124 39.8305 26.6865 39.8592 26.7606 39.8871C28.2893 40.4623 29.9575 40.6251 31.5655 40.3222C33.3453 39.9863 34.8313 39.1735 36.312 38.1735C36.3974 38.1169 36.5221 38.2336 36.4576 38.3188C34.506 40.9001 30.6726 41.7625 27.6318 41.0811C27.4896 41.0489 27.3484 41.0141 27.208 40.9758C27.8882 42.9278 27.7513 45.0704 26.8653 46.9711C26.3325 48.1146 25.5197 49.1041 24.53 49.8847C23.4391 50.7446 22.0857 51.439 21.3287 52.6461C20.6355 53.7522 20.8413 54.995 22.0281 55.6338C22.3272 55.7956 22.4423 56.3187 22.1458 56.5484C22.0325 56.6354 21.9191 56.7242 21.8031 56.8112C21.1386 57.3116 19.3135 58.2515 19.0179 58.2863C16.393 58.597 14.6281 56.6737 13.497 54.4049C12.1689 51.7419 12.5143 48.4967 13.9775 45.9607C15.1513 43.926 17.463 41.9209 16.5439 39.3458C16.216 38.4259 15.5454 37.6418 14.894 36.9334C14.1511 36.1266 13.3523 35.3712 12.6398 34.5358C11.9317 33.7064 11.3039 32.8039 10.9533 31.7631C10.4414 30.2419 10.6961 28.597 11.0806 27.0784C11.9047 23.8184 12.9747 20.6019 14.1144 17.4402Z" fill="black"/>
<path fill-rule="evenodd" clip-rule="evenodd" d="M33.4598 29.7211C31.965 29.54 30.516 29.9967 29.0546 30.227C28.2831 30.3485 27.5105 30.4392 26.7297 30.4729C26.5727 30.4797 26.4155 30.4837 26.2584 30.4869C26.2438 30.3489 26.1663 30.2221 25.9985 30.1462C25.6547 29.9906 25.3794 29.9204 25.0019 29.9354C24.6562 29.9491 24.3094 29.9845 23.9691 30.0467C23.3511 30.1598 22.7303 30.4164 22.2783 30.8621C21.2321 31.8937 21.3913 33.5506 22.1997 34.6742C23.8698 36.9958 26.918 37.1036 29.5287 37.0733L29.7696 37.0701C32.1467 37.0362 35.5476 37.3899 36.6276 34.6909C37.0247 33.6984 36.9696 32.5479 36.4833 31.596C35.9034 30.4606 34.6825 29.8692 33.4598 29.7211ZM26.0346 33.5867L26.0559 33.5876C27.1519 33.6297 28.2476 33.6594 29.3442 33.6787C29.3114 33.9597 29.2779 34.2409 29.2396 34.5213C29.2096 34.742 29.1774 34.9624 29.1439 35.1826C29.1297 35.2758 29.0777 35.4205 29.0924 35.5129L29.0977 35.5494C29.0414 35.5748 28.9903 35.6157 28.9523 35.6751C28.9391 35.6957 28.9295 35.7164 28.9199 35.737C28.0686 35.7437 27.1524 35.7272 26.2845 35.5728L26.2827 35.554C26.267 35.4433 26.2209 35.3688 26.1596 35.3178C26.0986 34.9649 26.1042 34.5889 26.0806 34.2389C26.0659 34.0214 26.05 33.8041 26.0346 33.5867ZM30.1817 33.6936C30.9717 33.707 31.762 33.7173 32.5518 33.7077L32.9103 33.7022C32.8346 34.1076 32.7522 34.5116 32.6837 34.9197C32.6123 35.345 32.9874 35.6154 33.312 35.6044C33.2756 35.6104 33.2392 35.6166 33.2028 35.6217C32.1884 35.7648 31.1352 35.7269 30.1058 35.7257C30.1612 35.4031 30.1387 35.0392 30.147 34.7699L30.1486 34.7282C30.1643 34.3832 30.1754 34.0384 30.1817 33.6936ZM35.5475 33.6192C35.5201 33.83 35.4667 34.0363 35.3869 34.2284C35.0497 35.0398 34.2767 35.4185 33.4588 35.578C33.6007 35.5291 33.7134 35.4116 33.7418 35.2103C33.8127 34.7099 33.8382 34.2011 33.8401 33.693C34.4102 33.6877 34.984 33.6756 35.5475 33.6192ZM23.0619 33.446C23.4677 33.5415 23.9393 33.4977 24.3375 33.5158C24.7105 33.5327 25.0838 33.5474 25.4568 33.5625C25.4392 33.8167 25.4221 34.0707 25.4034 34.3247C25.3794 34.653 25.3772 34.9999 25.3142 35.3269C24.5634 35.0711 23.8907 34.6611 23.386 34.0053C23.2603 33.842 23.1477 33.6502 23.0619 33.446ZM33.6313 31.0525C34.3069 31.2121 34.9463 31.5494 35.2899 32.1663C35.4939 32.5324 35.5836 32.9663 35.5664 33.3939C34.9954 33.3276 34.4145 33.3024 33.8365 33.2816C33.8346 33.1777 33.8321 33.074 33.829 32.9704L33.8201 32.705C33.8043 32.1988 33.7964 31.5632 33.6313 31.0525ZM30.1345 31.1142L30.4319 31.0809C31.258 30.987 32.0836 30.8884 32.9097 30.9449C33.0292 30.9531 33.1506 30.9661 33.2723 30.9839C33.1263 31.5097 33.1385 32.1273 33.0775 32.6478C33.054 32.8491 33.0242 33.0487 32.9912 33.2476L32.8479 33.2409C31.9615 33.1929 31.0742 33.1634 30.187 33.1283C30.1871 32.9621 30.1862 32.7958 30.1835 32.6294L30.1803 32.463C30.1702 32.038 30.1977 31.5592 30.1345 31.1142ZM25.9863 31.0468C26.8515 31.1861 27.7456 31.2158 28.5955 31.2168C28.935 31.2172 29.2743 31.1964 29.6134 31.1664C29.5913 31.3466 29.5798 31.5289 29.5631 31.7066C29.5297 32.0656 29.4914 32.4241 29.4498 32.7823L29.4127 33.0957C28.3223 33.0464 27.232 32.993 26.1419 32.9378L25.988 32.9296L25.9449 32.3273C25.9155 31.9256 25.8833 31.5241 25.8377 31.1243L25.8719 31.112C25.9121 31.0955 25.9502 31.0728 25.9863 31.0468ZM25.6105 31.1963C25.5629 31.7641 25.5365 32.3344 25.5014 32.9032L24.7828 32.8649C24.663 32.8584 24.5432 32.8517 24.4235 32.8449C23.9578 32.8181 23.3594 32.6773 22.899 32.8086C22.8638 32.3909 22.9835 31.984 23.3612 31.7034C24.0243 31.2105 24.8687 31.386 25.6105 31.1963ZM28.0659 26.1197C26.9958 25.508 24.3107 24.8829 24.1406 26.8049C24.0624 27.6894 24.7213 28.4222 25.4907 28.7492L25.5196 28.7613C26.2412 29.0573 27.5202 29.3917 28.1447 28.7497C28.6644 28.2154 27.9751 27.2573 27.3292 27.695C26.9973 27.9199 26.2987 27.7542 25.9284 27.6472L25.9052 27.6405C25.5055 27.5232 24.9727 27.1481 25.138 26.657C25.2842 26.2225 25.9065 26.1432 26.2962 26.1291C26.8779 26.1083 27.4441 26.2431 28.0205 26.2869C28.1118 26.2939 28.14 26.162 28.0659 26.1197ZM23.6329 23.0291C22.1805 22.9612 21.277 24.5439 21.611 25.8407C21.6687 26.0644 21.9195 26.2841 22.1616 26.2589L22.2226 26.2533C22.2536 26.2504 22.2847 26.2464 22.3133 26.2386C22.5432 26.175 22.7492 25.9364 22.7325 25.6891L22.728 25.617C22.6942 25.0044 22.7607 24.2986 23.4902 24.1503C24.1089 24.0244 24.4543 24.6187 24.4616 25.1658C24.463 25.2629 24.5724 25.3307 24.6585 25.2785C25.1057 25.0069 25.1832 24.4665 25.0123 24.0012C24.7958 23.4116 24.2539 23.0581 23.6329 23.0291ZM34.4115 23.3685C33.3545 23.0166 32.2142 23.5789 31.7024 24.5115C31.5228 24.5633 31.3435 24.7014 31.3685 24.9129C31.4045 25.2172 31.4587 25.409 31.6701 25.6397C32.0007 26.0006 32.62 25.8161 32.7574 25.3718L32.7632 25.3517C32.9193 24.7774 33.5527 24.3985 34.1298 24.5995C34.8038 24.8343 34.7843 25.5448 35.2571 25.9587C35.3127 26.0074 35.3793 26.0151 35.4459 25.983C35.9481 25.7408 35.8579 25.0119 35.6788 24.5947C35.444 24.0472 34.9876 23.5603 34.4115 23.3685ZM35.851 20.1653C34.9945 19.2931 32.7611 18.4491 32.1751 20.0597C32.0635 20.3665 32.3012 20.7801 32.6212 20.8438C33.1453 20.9478 33.6102 20.7208 34.1309 20.7615C34.5523 20.7947 34.9919 20.9352 35.3288 21.1958C36.2621 21.9174 36.4674 23.138 37.1176 24.0565C37.1493 24.1012 37.2108 24.0824 37.2166 24.0296C37.3647 22.6925 36.7891 21.1205 35.851 20.1653ZM24.6807 19.3067C24.1123 19.1064 23.4687 19.1235 22.8973 19.3012C22.3218 19.4803 21.7934 19.8204 21.3864 20.2648C21.2017 20.4665 21.0307 20.6891 20.8937 20.9261C20.8208 21.0517 20.7443 21.3111 20.6615 21.4656C20.2138 21.7236 20.0224 22.3114 20.4233 22.7297L20.4413 22.748L20.495 22.8011C20.7104 23.014 21.0354 23.1062 21.3295 23.0212C21.9877 22.8311 22.0677 22.3137 22.2955 21.7646C22.4461 21.4019 22.7039 21.0809 23.0165 20.8452C23.7554 20.2882 24.9669 20.1107 25.8565 20.3732C25.9038 20.3872 25.9595 20.327 25.9257 20.2833C25.7572 20.0654 25.66 19.8866 25.4343 19.7108C25.2052 19.5324 24.9552 19.4035 24.6807 19.3067Z" fill="black"/>
<path fill-rule="evenodd" clip-rule="evenodd" d="M19.3516 26.8354C19.9387 27.6226 21.0272 27.8733 22.0311 27.7867C24.1965 27.5787 24.878 25.1245 24.949 23.2169C23.4969 23.6245 25.0717 20.7375 20.1082 20.42C18.3585 20.2745 18.8409 21.3291 18.0678 22.0997C18.0837 23.7168 18.3534 25.474 19.3516 26.8354ZM29.6652 24.9772C30.9436 30.9519 37.944 29.5307 38.6794 24.145C38.0004 23.6667 38.1792 22.4856 37.3356 22.0577C35.9986 21.2052 34.3273 21.2417 32.809 21.2617C30.8683 21.3947 30.3153 22.197 29.3184 23.0724C29.3663 23.657 29.5046 24.3499 29.6652 24.9772ZM16.5784 19.4305C16.6502 19.4186 16.722 19.4074 16.7939 19.3969C16.85 19.3651 16.9158 19.3406 16.9924 19.3259C17.1672 19.2816 17.3408 19.2518 17.5142 19.2357C20.0023 18.6769 25.7583 19.4703 25.9958 21.5892C26.7882 21.8532 27.4737 21.6168 28.3921 21.6403C29.0911 18.7245 41.176 19.136 41.7572 20.894C41.7594 20.8934 41.7615 20.8929 41.7638 20.8922C42.3223 20.7197 43.1455 20.7613 43.7847 20.7339C45.1496 20.7054 46.5159 20.8268 47.8513 21.1141C50.3518 21.5107 53.7645 21.9749 52.0254 25.0912C52.0251 25.0917 52.0248 25.0923 52.0244 25.0929L52.0241 25.0926C51.7244 25.3992 51.2157 25.1523 51.1968 24.7373C51.7815 23.2609 50.4609 23.0837 49.4448 22.6594C46.9165 21.7529 44.3425 21.6273 41.7276 21.9077C41.5309 22.1388 41.2324 22.3404 40.9169 22.4459C39.1686 22.7355 40.0899 24.0297 38.9848 24.218C39.1878 28.7296 33.6992 31.1923 30.519 28.2265C29.2492 26.9876 28.9465 25.1523 28.6521 23.498C28.4965 23.4631 28.3975 23.3782 28.3397 23.2657C27.9653 22.8927 27.7301 22.5483 26.9899 22.4459C26.2496 22.3435 25.6797 22.549 25.6026 22.6119C25.5832 22.651 25.5623 22.6901 25.5381 22.7293C25.5043 22.7877 25.4582 22.8343 25.4059 22.8709C26.1369 27.3636 22.6421 30.2048 19.1139 27.8747C17.5809 26.4355 17.2569 24.2322 17.1929 22.2655C16.9851 22.1404 16.8535 21.8978 16.9255 21.5929C17.0246 21.1726 16.7922 20.8086 16.4219 20.6259C15.9408 20.3885 16.0259 19.5218 16.5784 19.4305Z" fill="black"/>
</svg>
