<svg width="112" height="160" viewBox="0 0 112 160" fill="none" xmlns="http://www.w3.org/2000/svg">
<path fill-rule="evenodd" clip-rule="evenodd" d="M10.8208 74.803C12.1259 71.2069 11.1455 66.6539 13.8356 63.6782C14.6313 63.1944 15.0533 63.4636 15.3808 64.3072C15.5786 65.4172 16.0418 69.2394 14.3758 69.2376C14.1662 71.6247 14.2972 74.0292 14.8103 76.3719C16.0398 76.1745 16.9362 76.8067 17.8332 77.2768C18.502 77.6273 19.171 77.8878 19.9787 77.6472C23.3131 77.0593 24.2634 80.5621 24.3039 83.4214C24.3529 84.8165 24.4839 88.0685 25.0982 89.4222C27.8784 83.6621 33.7174 81.0396 39.2809 79.7448C40.153 79.5034 40.8972 79.1737 41.4566 78.61C46.1442 76.7585 43.8922 70.6922 46.0488 67.2058C49.4243 63.061 53.4781 61.8684 58.5852 62.5787C63.0535 63.073 66.0909 67.6138 65.8154 71.8999C65.7328 72.7744 66.2575 73.6943 66.5662 74.5943C69.6505 78.2864 74.4498 79.9383 78.5776 82.1692C92.3454 88.9009 97.1167 94.0452 102.467 108.369C104.97 113.759 107.965 118.989 108.96 124.925C110.129 131.919 110.133 139.079 109.726 146.142C110.486 146.233 109.659 151.663 108.992 153.544C108.764 154.189 108.217 154.654 107.535 154.643C106.164 155.31 102.944 157.996 101.51 157.907C96.8761 157.622 92.3717 158.063 87.907 157.835C83.0768 157.588 78.2932 156.687 73.4424 156.803C64.9832 157.007 71.0396 157.51 62.2877 157.907C56.7628 158.162 36.6066 155.144 31.0974 155.636C26.6163 156.579 24.5719 154.99 25.2555 150.306C25.5083 148.511 26.3154 144.519 23.6604 144.349C22.4045 144.495 21.3649 145.751 20.4239 146.484C12.1131 152.674 3.62282 148.217 2.95377 138.041C1.69421 129.506 -0.0718613 127.49 3.76728 118.967C15.9137 87.2395 -2.38631 91.5502 9.96943 76.6892C10.9342 77.5297 10.689 75.2866 10.8208 74.803Z" fill="white"/>
<path fill-rule="evenodd" clip-rule="evenodd" d="M15.4366 63.4405C14.7737 62.7887 13.72 62.9509 13.0735 63.5303C12.4157 64.1188 12.0198 65.0439 11.682 65.8412C10.1666 69.4264 10.5195 73.3518 9.75292 77.1027C8.35004 77.8608 7.08366 78.8504 6.1869 80.1817C4.8245 82.2039 4.17809 84.5591 4.86118 86.9559C5.21412 88.196 5.81373 89.3451 6.2413 90.5587C6.69797 91.8508 6.97753 93.1935 7.11162 94.5578C7.24318 95.8967 7.26089 97.243 7.22294 98.587C7.2027 99.283 7.16601 99.9779 7.12933 100.673C7.09644 101.295 6.98612 101.945 7.13501 102.555L7.15337 102.625C7.09518 102.616 7.03825 102.605 6.98132 102.592C6.49291 102.483 6.06293 102.314 5.55313 102.381C5.15592 102.433 4.94973 102.764 5.11797 103.139C5.19135 103.302 5.28875 103.439 5.40639 103.555C4.38174 111.136 2.59177 118.594 1.41406 126.151C0.880234 129.579 0.555138 133.017 0.738564 136.489L0.757812 136.833C0.944824 140.02 1.40427 143.532 3.02315 146.319C3.77962 147.624 4.81944 148.781 6.07938 149.615C6.65634 149.998 7.2748 150.296 7.94652 150.446C11.4278 151.833 15.1089 151.492 18.3916 149.659C19.8679 148.835 21.3403 147.874 22.5458 146.682C23.1315 146.102 23.6969 145.365 24.0436 144.559C24.0423 144.74 24.075 144.925 24.0385 145.103L23.9655 145.455C23.4188 148.075 21.3351 157.756 21.3074 158.569C21.2924 159.007 24.9818 158.997 25.3822 159.01L25.3934 159.01C31.3688 159.26 37.3479 159.127 43.32 158.88L43.7915 158.86C49.5833 158.615 55.8859 158.285 61.6839 158.116L61.6718 158.019C61.6024 157.498 61.2647 155.181 61.227 155.004L61.2256 154.998C61.0613 154.335 60.7443 152.274 60.9112 151.591C61.3409 149.83 63.2777 150.232 64.6403 150.419L64.9273 150.456C65.1479 150.487 65.6846 150.566 65.6796 150.571C65.8244 150.42 65.48 149.992 65.3951 149.877L65.3272 149.783C64.9611 149.271 64.6299 148.738 64.6661 148.078C64.7541 146.464 67.0586 146.555 68.191 146.667C68.2708 146.675 68.3035 146.8 68.2115 146.819L67.9881 146.865C67.2697 147.019 65.6739 147.413 65.71 148.007C65.7305 148.345 66.0901 148.594 66.3098 148.807C66.5521 149.042 66.7928 149.295 66.9715 149.583C67.3156 150.137 67.3938 150.886 67.0534 151.463C66.6607 152.129 65.9642 152.207 65.2666 152.146L65.2271 152.143C65.0736 152.128 64.9201 152.113 64.7666 152.099L63.8456 152.008C63.6175 151.986 62.8847 151.794 62.6707 151.927C62.3673 152.114 62.7322 152.947 62.8006 153.221L62.8042 153.24C62.863 153.637 62.8983 157.796 62.9042 158.071C67.4226 157.966 71.9417 156.961 76.46 157.197C80.0496 157.385 83.6294 157.709 87.2123 157.99L87.3027 157.221C88.2957 148.843 89.8527 137.788 89.1055 129.501C89.047 128.852 90.0594 128.856 90.1175 129.501C90.8901 138.07 89.1988 149.581 88.215 158.068C89.7402 158.183 91.2661 158.289 92.7937 158.369L93.1832 158.389C98.3814 158.649 103.747 158.664 108.834 157.472C108.991 157.435 109.044 157.278 109.011 157.148C109.062 157.177 109.137 157.16 109.159 157.089C109.752 155.135 110.053 150.16 110.321 148.006L110.339 147.865C110.615 145.773 110.773 143.658 110.887 141.553C111.117 137.343 111.089 133.127 110.778 128.922C109.788 115.509 105.843 101.958 97.5653 91.1788C95.564 88.5732 93.2858 86.189 90.5521 84.3451C87.8703 82.5356 84.8622 81.2611 81.8097 80.2261C79.792 79.5413 77.7427 78.9554 75.6935 78.3708C75.6159 78.3319 75.5383 78.2937 75.4603 78.2561L75.343 78.2C74.6144 77.8544 73.8972 77.4761 73.1508 77.1685L72.9859 77.1014C71.9043 76.6675 70.6443 76.2834 69.4735 76.2966C67.5772 75.3412 65.9846 73.8974 66.1389 71.5814C66.2022 70.6297 64.7095 70.631 64.6564 71.5814C64.5172 74.1098 66.0743 75.903 68.0592 77.1065L68.0497 77.1162L68.0402 77.1268C67.7303 77.4786 67.3989 77.8051 67.0409 78.1088C64.898 79.9336 62.1871 81.4486 59.4775 82.4456C56.2985 83.6162 53.1221 83.9668 49.8344 83.0203C48.1152 82.5254 46.4923 81.7623 45.0008 80.7752C44.5454 80.474 44.109 80.1514 43.6903 79.8058C44.0862 79.2642 44.4025 78.6808 44.6681 78.062C45.2018 76.8167 45.6434 75.1298 45.0982 73.815C44.9641 73.491 44.4316 73.2911 44.2456 73.7036C43.7333 74.8324 43.5195 76.0524 42.9224 77.156C42.6947 77.576 42.4329 77.9747 42.1394 78.3505C42.1394 78.3708 39.8978 78.7542 39.8978 78.7542C37.1882 78.7529 34.6367 79.7944 32.2395 81.0954C30.8225 81.8646 29.43 82.6825 28.0414 83.5017L25.3276 85.1032C25.1277 85.2209 24.9038 85.3348 24.6799 85.4564C24.9417 84.1629 25.0695 82.8443 24.9835 81.537C24.8532 79.5654 24.0866 77.4091 22.0563 76.7066C21.0962 76.3738 19.9855 76.4763 19.0532 76.8458C18.6231 77.0167 18.155 77.2432 17.7553 77.5457C17.5616 76.675 16.7458 76.022 15.9261 75.7336C15.6605 75.6398 15.3885 75.5803 15.1127 75.5512C15.1208 75.4115 15.1216 75.2702 15.1197 75.1247L15.1178 75.0147C15.1051 74.3693 15.1102 73.7239 15.1241 73.0797C15.1494 71.8585 15.2076 70.6626 15.3316 69.4452C15.4351 68.4374 15.6149 67.4412 15.7484 66.4375L15.8037 66.006C15.9163 65.156 16.1053 64.0975 15.4366 63.4405ZM96.946 145.848L97.1722 145.714C97.913 145.276 98.676 144.873 99.5734 145.075C100.428 145.268 101.035 145.962 101.353 146.745C101.504 147.115 101.583 147.487 101.641 147.881C101.673 148.102 101.695 148.324 101.734 148.544L101.747 148.612C101.764 148.699 101.791 148.821 101.816 148.926C102.049 148.824 102.284 148.661 102.475 148.564L102.629 148.487C102.99 148.307 103.366 148.135 103.76 148.052C104.612 147.872 105.559 148.133 106.046 148.897C106.463 149.551 106.455 150.321 106.295 151.054L106.284 151.105C106.214 151.409 105.857 152.626 105.337 152.448C104.831 152.276 104.763 151.603 104.725 151.155L104.722 151.112C104.705 150.774 104.772 150.064 104.389 149.935C103.911 149.775 102.991 150.507 102.575 150.698C101.831 151.04 101.013 151.141 100.407 150.476C99.8638 149.879 99.818 149.006 99.6774 148.25L99.6411 148.059C99.5665 147.675 99.4222 147.061 98.997 147.076C98.6495 147.089 98.268 147.449 97.9816 147.62C97.6654 147.809 97.3372 147.966 96.9941 148.1C96.1935 148.413 95.3033 148.513 94.4516 148.421C93.9581 148.368 93.6368 148.132 93.4624 147.668C93.4033 147.531 93.3583 147.391 93.3271 147.245C93.0506 146.206 94.5615 145.464 95.1186 146.394C95.7614 146.37 96.3597 146.196 96.946 145.848ZM3.95683 138.897C4.41755 138.569 5.04321 138.639 5.45497 139.01L5.47949 139.033C5.59363 139.143 5.85097 139.43 6.01764 139.682L6.06982 139.642C6.07816 139.635 6.08627 139.629 6.0941 139.623L6.1167 139.604C6.45724 139.316 6.81307 139.052 7.25127 138.935C8.39306 138.628 9.43073 139.392 9.92927 140.373C10.1657 140.838 10.2669 141.318 10.3848 141.82L10.3948 141.866C10.4424 142.1 10.5042 142.573 10.709 142.689C10.7843 142.732 10.9551 142.648 11.1241 142.55C11.5095 142.328 11.8555 142.044 12.2332 141.81C13.1195 141.259 14.1265 141.032 15.1218 141.429C16.1071 141.821 16.813 142.747 16.8296 143.827C16.8419 144.622 16.3093 146.011 15.307 145.914C15.1063 145.894 14.8478 145.771 14.8153 145.539C14.7289 144.925 15.2132 144.17 14.6578 143.663C14.1208 143.172 13.5645 143.585 13.0784 143.925L12.73 144.17C12.1643 144.563 11.5816 144.923 10.8654 144.966C9.95912 145.02 9.12245 144.519 8.66642 143.747C8.25416 143.05 8.24809 142.261 7.92577 141.544C7.85531 141.388 7.67365 141.244 7.73412 141.172C7.48985 141.299 7.17474 141.666 7.02256 141.768C6.26482 142.28 5.25182 142.276 4.58757 141.598C4.32293 141.328 4.15443 140.995 3.95848 140.677C3.88764 140.562 3.79922 140.456 3.73458 140.338C3.71088 140.294 3.67204 140.133 3.64009 139.989L3.591 139.761L3.58587 139.723C3.54385 139.377 3.66602 139.105 3.95683 138.897ZM33.1422 135.877C34.0127 135.419 35.0858 135.593 35.8699 136.147C36.7492 136.768 37.1807 137.723 37.4742 138.731C37.6877 139.466 37.7901 140.478 38.4037 141.01C39.118 141.629 40.3153 140.972 41.0692 140.728C41.9814 140.433 43.0775 140.312 43.9676 140.749C44.8398 141.177 45.2601 142.049 45.3502 142.984C45.4343 143.856 45.3094 145.005 44.8118 145.735C44.7629 145.807 44.6694 145.789 44.6384 145.713C44.3114 144.907 44.3744 143.986 44.1089 143.152C43.8254 142.262 43.161 142.074 42.3175 142.313C41.4377 142.563 40.632 143.03 39.7272 143.196C38.7625 143.374 37.8073 143.191 37.0468 142.553C36.4069 142.017 36.0195 141.235 35.7576 140.456C35.5025 139.697 35.4608 138.681 34.9174 138.051C34.7803 137.892 34.5413 137.699 34.3194 137.679C33.9898 137.649 33.8706 137.894 33.6043 138.082C32.9019 138.577 31.7806 138.587 31.3505 137.715C31.2097 137.43 31.1399 137.024 31.3505 136.745C31.7197 136.255 32.023 136.259 32.5102 136.365C32.5257 136.352 32.5431 136.335 32.5625 136.312L32.5774 136.294C32.7063 136.131 32.9566 135.974 33.1422 135.877ZM67.6181 130.729C67.6469 130.073 68.4359 129.444 69.0583 129.902C69.1587 129.975 69.2575 130.05 69.3544 130.128L69.3941 130.171C69.5099 130.17 69.6179 130.14 69.7323 130.103L69.9323 130.039C70.4575 129.873 70.9624 129.738 71.523 129.861C72.4876 130.073 73.0996 130.906 73.4138 131.789C73.7066 132.613 73.6105 133.453 73.7479 134.297C73.8781 135.098 74.2893 135.41 75.0615 135.239L75.1011 135.23C76.6369 134.862 78.3868 133.833 79.7332 135.243C81.1878 136.767 80.2363 139.187 78.6441 140.166C78.5745 140.209 78.4976 140.139 78.5134 140.066C78.7249 139.082 79.3421 138.143 79.1353 137.098C78.9919 136.374 78.489 136.031 77.7712 136.147C76.2616 136.39 74.8496 137.593 73.3012 136.72C72.5278 136.283 72.1016 135.463 71.909 134.624C71.7354 133.868 71.7846 133.015 71.452 132.302C71.0882 131.522 70.4755 132.088 69.8151 132.194C68.8809 132.345 67.5684 131.855 67.6181 130.729ZM16.9705 107.414C16.9675 106.763 17.9795 106.762 17.9825 107.414C18.0198 115.668 21.8796 123.297 22.5729 131.469C22.6278 132.118 21.6156 132.114 21.5609 131.469C20.8673 123.295 17.0078 115.681 16.9705 107.414ZM100.536 120.925C101.069 120.321 101.85 120.508 102.484 120.811C103.436 121.265 104.347 121.776 105.221 122.366C105.436 122.511 105.3 122.826 105.047 122.778C104.407 122.655 103.783 122.517 103.161 122.317C102.694 122.167 102.208 121.949 101.721 121.871C101.751 121.983 101.788 122.093 101.832 122.201C101.912 122.422 102.005 122.639 102.084 122.861C102.24 123.303 102.382 123.751 102.519 124.2L102.587 124.424C102.872 125.364 103.148 126.733 101.834 127.023C101.347 127.13 100.863 126.918 100.41 126.751L100.316 126.717L98.662 126.13C98.4649 126.06 98.0998 126.012 97.9364 125.889L97.9625 126.015C97.9964 126.181 98.0296 126.345 98.1014 126.511L98.1414 126.603C98.5523 127.535 99.0704 128.467 98.5912 129.498C98.1806 130.38 97.2099 130.799 96.2746 130.549C95.3857 130.311 94.7424 129.309 95.2026 128.438C95.3741 128.113 95.8759 127.955 96.1947 128.157L96.2803 128.214C96.3807 128.28 96.5536 128.393 96.5578 128.413C96.5816 128.42 96.6065 128.426 96.6318 128.432C96.5782 128.274 96.542 128.031 96.4949 127.924L96.3218 127.53C95.9997 126.791 95.7206 126.04 95.9663 125.211C96.67 122.837 99.0564 124.187 100.817 124.864C100.791 124.764 100.766 124.665 100.744 124.567C100.668 124.224 100.585 123.882 100.503 123.54L100.335 122.834C100.183 122.183 100.065 121.459 100.536 120.925ZM10.4701 118.276C10.4685 118.219 10.5376 118.176 10.5861 118.209C11.7115 118.966 12.4645 120.546 12.0416 121.893C11.8363 122.546 11.3996 123.12 10.7866 123.437C10.0244 123.832 9.18277 123.681 8.38199 123.513L8.04186 123.44C7.80215 123.39 7.5656 123.353 7.3216 123.42C7.23786 123.443 7.14071 123.516 7.06114 123.532C7.09403 123.588 7.12894 123.685 7.14666 123.721L7.20466 123.837C7.2629 123.956 7.31971 124.079 7.35538 124.203C7.47504 124.62 7.44545 125.068 7.25166 125.457C6.89062 126.182 6.13339 126.591 5.34504 126.66C4.87535 126.702 3.69195 126.29 3.41213 126.789C2.8568 127.778 1.27542 127.113 1.58282 126.017C1.79065 125.276 2.38027 124.798 3.11081 124.597C3.50005 124.491 3.90295 124.505 4.29877 124.549C4.4538 124.566 4.60836 124.59 4.76359 124.606L4.88017 124.617C4.8498 124.615 5.20184 124.606 5.34327 124.597L5.3131 124.516C5.30867 124.504 5.30461 124.494 5.30103 124.487C5.14366 124.15 5.02703 123.814 5.03651 123.438C5.05385 122.76 5.4928 122.168 6.06951 121.841C6.60119 121.54 7.23431 121.42 7.83873 121.487C8.50311 121.561 9.4473 122.087 10.1007 121.81C10.5929 121.601 10.76 120.872 10.7676 120.394C10.779 119.674 10.49 118.992 10.4701 118.276ZM56.3108 113.556C58.1215 112.743 59.6764 114.132 60.739 115.46C60.7938 115.529 60.7249 115.644 60.6385 115.591L60.4973 115.503C59.6298 114.959 58.6678 114.315 57.5927 114.501C56.6193 114.669 56.3783 115.306 56.572 116.174L56.6289 116.418C56.8348 117.312 56.9926 118.238 56.4799 119.069C55.9958 119.854 55.0512 120.197 54.1666 120.218C53.1462 120.243 52.2654 119.768 51.3324 119.437L51.2586 119.411C50.8624 119.274 49.4169 118.916 49.3969 119.731C49.3876 120.103 49.7861 120.541 49.9392 120.875C50.1397 121.313 50.2732 121.773 50.2708 122.259C50.2649 123.472 49.2536 124.456 48.0571 123.868C47.5919 123.639 47.472 122.983 47.7146 122.562C48.0563 121.967 48.1946 121.998 47.9552 121.374L47.8861 121.198C47.5915 120.446 47.3569 119.672 47.6879 118.883C48.349 117.306 50.3313 117.115 51.7474 117.637L51.7992 117.657C52.6806 117.999 55.3205 119.367 55.1385 117.432C55.0669 116.669 54.8357 115.938 54.9973 115.167C55.1476 114.452 55.6469 113.854 56.3108 113.556ZM65.0358 107.082C65.3664 106.5 66.476 106.708 66.3841 107.447L66.3546 107.677C66.317 107.992 66.3088 108.288 66.5263 108.568C66.7901 108.908 67.2419 109.011 67.6519 108.959C68.5199 108.849 69.0735 108.044 70.0288 108.232C70.8042 108.384 71.3397 109.019 71.6498 109.711C71.978 110.444 71.9711 111.239 72.2156 111.994C72.4972 112.862 73.0977 112.822 73.8476 112.518L74.009 112.452C74.7264 112.153 75.4461 111.822 76.2455 111.964C77.5731 112.201 78.7164 114.243 77.4725 115.229C77.248 115.407 76.8556 115.315 76.8651 114.978L76.8663 114.914C76.8726 114.302 76.7181 113.511 76.0164 113.367C75.2722 113.214 74.4314 113.893 73.7403 114.089C71.9505 114.595 70.9309 113.247 70.6269 111.653L70.6158 111.592C70.5187 111.034 70.4421 110.002 69.8588 109.741C69.5477 109.602 69.2159 109.944 68.9559 110.082C68.552 110.297 68.1186 110.433 67.6617 110.468C65.9714 110.597 64.0508 108.818 65.0358 107.082ZM22.7376 104.881C23.2946 104.639 24.1252 104.773 24.2613 105.501L24.3438 105.958C24.5057 106.842 24.7634 107.947 25.6318 108.265C26.175 108.465 26.7988 108.116 27.2859 107.903C27.871 107.647 28.4414 107.428 29.0821 107.367C30.3821 107.244 31.3505 107.996 31.8103 109.172L31.8504 109.277C32.2213 110.265 32.7225 112.155 31.9105 112.956C31.792 113.073 31.553 113.13 31.4075 113.021C30.9278 112.661 30.8063 112.069 30.6416 111.514L30.6274 111.467C30.4526 110.89 30.3093 110.255 29.9936 109.736C29.4069 108.771 27.8762 109.873 27.1398 110.128C25.9306 110.546 24.6766 110.301 23.7525 109.407C23.1689 108.842 22.8238 108.128 22.5865 107.371C22.4349 107.449 22.2777 107.517 22.1083 107.563C21.4631 107.738 20.6978 107.646 20.2066 107.157C19.2847 106.239 19.7847 104.593 21.1904 104.859C21.4672 104.911 21.6488 105.176 21.6817 105.446L21.7006 105.489C22.0543 105.372 22.441 105.009 22.7376 104.881ZM87.8744 96.6822C89.1877 95.3305 91.4668 96.0632 92.3651 97.497C92.5514 97.7943 92.2437 98.1712 91.9165 98.0808C91.1346 97.8653 90.0313 97.0169 89.205 97.5569C88.5925 97.9572 88.9257 99.0033 88.9817 99.5886L88.9898 99.6759C89.0607 100.473 89.0768 101.563 88.4565 102.159C88.0994 102.502 87.5519 102.456 87.081 102.407L86.9313 102.391C86.3762 102.336 85.8248 102.238 85.2931 102.067C84.8043 101.91 84.3412 101.697 83.8819 101.471L83.7672 101.414C83.5639 101.313 82.886 100.913 82.6829 101.165C82.5771 101.296 82.8394 101.87 82.8939 101.998C83.0999 102.48 83.3617 102.933 83.5506 103.423C83.8834 104.287 83.9113 105.262 83.4438 106.086C82.991 106.884 82.0097 107.532 81.14 106.918C80.6421 106.567 80.6435 105.928 81.14 105.576C81.4028 105.39 81.6677 105.267 81.7762 104.955C81.9179 104.548 81.7356 104.117 81.5591 103.74L81.3478 103.292C80.8797 102.292 80.4121 101.141 81.066 100.118C81.7413 99.0618 83.1137 99.0451 84.1519 99.485C84.7444 99.7361 85.285 100.073 85.9025 100.267C86.3297 100.402 86.7585 100.491 87.1961 100.541C87.2936 100.014 87.1556 99.4244 87.1542 98.9011C87.1519 98.1062 87.2999 97.2734 87.8744 96.6822ZM20.1512 77.8797C22.3675 77.5545 23.4402 79.5375 23.5933 81.4472C23.7311 83.1809 23.4503 84.9197 23.0114 86.6054C22.8469 87.2305 22.6622 87.848 22.4687 88.4555C22.1575 89.4313 21.8197 90.4056 21.4086 91.3446C21.2834 91.6281 21.1569 91.9128 21.0152 92.1861C20.5299 92.5842 20.1146 93.1204 19.7371 93.6357L19.4891 93.9761L19.4226 94.0679C18.7812 94.9462 18.2335 95.8573 17.7857 96.8482C17.3592 97.7919 17.0417 98.7758 16.795 99.7801L16.7343 100.031C16.5445 100.804 16.2647 101.726 16.6029 102.446C15.9388 102.65 15.2784 102.837 14.5726 102.935C13.5985 103.072 12.5853 103.081 11.6024 103.045C10.6527 103.011 9.70403 102.936 8.75841 102.836L8.07714 102.761C8.00653 102.753 7.93597 102.744 7.86555 102.735C7.89211 102.702 7.91489 102.666 7.93133 102.625C8.17407 102.043 8.14275 101.368 8.1697 100.742L8.17294 100.673C8.20837 99.9779 8.22987 99.283 8.23872 98.587C8.25517 97.281 8.21976 95.9712 8.07681 94.6716C7.95296 93.534 7.75929 92.3962 7.45695 91.2914C7.15209 90.1715 6.68658 89.1199 6.25648 88.0442C5.83144 86.9812 5.4809 85.8892 5.51898 84.7299C5.54301 83.9933 5.70493 83.2771 5.97944 82.6C5.99222 82.6102 6.00841 82.6178 6.0275 82.6165C6.88897 82.5848 7.7049 82.3355 8.53727 82.1255C9.42023 81.9016 10.3247 81.718 11.2279 81.6092L11.4199 81.5867C12.1727 81.5021 12.9928 81.4609 13.6883 81.7838C14.441 82.1345 14.9154 82.914 15.2013 83.6618L15.2331 83.748C15.7411 85.1657 15.6246 87.0581 14.0539 87.7291C13.5669 87.9379 12.455 88.0657 12.2045 87.4051C12.0919 87.1039 12.3234 86.6586 12.4107 86.3739C12.5132 86.0346 12.5802 85.7005 12.5726 85.3462C12.5665 85.0354 12.3291 84.8009 12.0272 84.7759L11.9996 84.7741C11.4506 84.7502 10.3184 84.1175 10.2083 85.0285C10.1868 85.2057 10.3222 85.3917 10.4651 85.4779C10.7535 85.6486 11.0546 85.7626 11.3683 85.8321C11.3253 86.0219 11.2646 86.208 11.205 86.3927C11.1697 86.375 11.1305 86.3637 11.0888 86.3598C10.6245 86.3218 10.1653 86.3954 9.70107 86.4003L9.4473 86.4021C9.08698 86.4057 8.77284 86.425 8.42342 86.6116C8.10085 86.7838 8.15777 87.2153 8.42342 87.4C9.12043 87.8835 10.3007 87.6 11.0268 87.109C10.9952 87.3583 11.0103 87.6126 11.1166 87.8797C11.4303 88.672 12.3297 89.0667 13.1341 89.1009C13.849 89.1312 14.5321 88.906 15.1026 88.5112C15.219 88.9275 15.4062 89.3274 15.4872 89.7591C15.5934 90.3259 15.4669 90.989 15.6641 91.5218C15.8616 92.0585 16.6244 92.4177 17.0659 91.8913C17.7123 91.1219 17.5112 89.9032 16.9432 89.1236C16.6408 88.7111 16.0918 88.2378 15.5327 88.1631C15.9211 87.7975 16.2322 87.3456 16.4283 86.847C16.4422 86.8534 16.4587 86.8546 16.4764 86.8496C18.2942 86.3523 19.2834 84.7045 19.3441 82.9746C19.4782 83.0708 19.6172 83.157 19.7628 83.234C20.1107 83.4215 20.5573 83.2568 20.6648 82.8683C20.7635 82.5064 20.4763 82.0598 20.0728 82.09C19.8425 82.109 19.6111 82.1103 19.3821 82.0723C19.3505 82.0673 19.3201 82.0611 19.2885 82.0546C19.2682 81.9217 19.2417 81.7889 19.2088 81.6572C19.8957 81.7357 20.6142 81.6231 21.2783 81.4763C21.8501 81.351 21.7173 80.4411 21.1417 80.4626L21.0492 80.4667C20.294 80.5029 19.1792 80.6249 18.532 80.1462C18.4182 79.9817 18.2917 79.8261 18.155 79.6793C18.1373 79.6426 18.1221 79.6035 18.1082 79.5629C17.7604 78.5606 19.4087 77.9886 20.1512 77.8797ZM40.0461 91.9797C40.9089 91.7489 41.8169 92.0634 42.4104 92.7151C42.909 93.2629 43.1672 93.9357 43.3981 94.6233L43.5298 95.019C43.7217 95.5791 43.942 96.0235 44.6275 95.81C45.5062 95.5363 46.2678 95.0594 47.2233 95.097C48.0918 95.1313 48.9418 95.505 49.5465 96.1314C50.165 96.7721 50.4603 97.6649 50.329 98.5444L50.3204 98.5983C50.252 99.0035 49.6596 100.45 49.0316 99.7839C48.7514 99.487 48.8067 99.1584 48.7402 98.7811C48.6769 98.4217 48.5415 98.0693 48.3198 97.7778C47.9266 97.2613 47.2943 97.0599 46.6761 97.2427C45.8606 97.4837 45.1405 97.9807 44.2621 97.9923C43.338 98.0047 42.5534 97.5254 42.0438 96.7728C41.6323 96.1652 41.4855 95.4541 41.196 94.7936L41.1681 94.7305C40.925 94.187 40.7592 93.9908 40.2024 94.2507L40.0078 94.344C39.1741 94.7403 38.2363 95.103 37.3743 94.5443C36.5734 94.0253 36.232 92.9823 36.9056 92.2228C37.2773 91.8036 38.1376 91.875 38.3791 92.4128C38.4214 92.5053 38.4608 92.5991 38.4995 92.6931C38.5732 92.6706 38.645 92.6432 38.713 92.605C39.1649 92.4013 39.5573 92.1106 40.0461 91.9797ZM65.2346 85.8396C66.2188 85.309 67.0405 86.3526 66.8833 87.295L66.8756 87.3363C66.8698 87.3647 66.8565 87.4268 66.84 87.4979C66.8902 87.4918 66.9399 87.4829 66.9895 87.4703L67.2182 87.4423C67.5776 87.4005 67.9261 87.3788 68.2859 87.4942C69.1351 87.7668 69.5527 88.5925 69.5731 89.4388C69.5935 90.2821 69.1573 90.9623 69.0292 91.7679C68.8981 92.5918 69.7505 92.3565 70.307 92.2962L70.3289 92.294C71.103 92.2156 71.9169 92.2142 72.5603 92.719C73.2248 93.2403 73.5192 94.1411 73.4253 94.9658C73.3406 95.7107 72.8747 96.8571 72.0307 96.9748C71.9473 96.9864 71.8524 96.9681 71.8097 96.8848C71.4684 96.2209 71.9432 95.4878 71.8896 94.7874C71.8305 94.0171 71.3396 93.8889 70.6627 93.9387C70.0058 93.9871 69.3505 94.1265 68.7017 93.9305C67.9978 93.7176 67.487 93.1135 67.3426 92.4008C67.1833 91.6153 67.476 90.8845 67.6659 90.1379C67.729 89.89 67.76 89.6406 67.7165 89.3871C67.7071 89.3323 67.6596 89.2817 67.6424 89.2601C67.5343 89.2398 67.3727 89.2916 67.2802 89.3014L67.149 89.3144C66.4362 89.3788 65.7495 89.3356 65.2401 88.7464C64.9791 88.4445 64.8827 88.0755 64.9087 87.6861L64.9219 87.5288C64.9358 87.3776 64.9624 87.178 65.041 87.0947L65.042 87.0906C65.0157 87.0552 64.9907 87.0188 64.9677 86.9811L64.9455 86.9428C64.7272 86.5787 64.8538 86.0448 65.2346 85.8396ZM14.8103 76.6029C15.7906 76.6029 16.7167 76.923 17.458 77.795C17.1936 78.0468 16.9824 78.3391 16.8659 78.6821C16.503 78.4834 16.1184 78.3279 15.725 78.2176C14.5245 77.8823 12.8825 77.8873 11.8731 78.7112C11.3443 79.1414 11.9249 79.9134 12.4942 79.7805C13.004 79.6616 13.4467 79.4414 13.9818 79.4161C14.4461 79.3933 14.9015 79.454 15.3467 79.5882C16.026 79.7933 16.6434 80.1817 17.0975 80.717C17.2493 80.8967 17.3821 81.0916 17.4935 81.3018C18.341 82.9113 17.7022 85.2196 16.5321 86.5446C16.9912 85.0184 16.5333 83.2189 15.6187 81.9548C14.5176 80.4326 12.8707 80.2601 11.1357 80.4977L11.0785 80.5056C9.39999 80.7424 7.32161 81.1561 6.06673 82.39C6.19196 82.1052 6.33617 81.8293 6.49821 81.5623C7.44937 79.9956 9.02682 78.7732 10.6637 77.9013C10.9382 77.7532 11.2153 77.6165 11.491 77.49C12.5397 77.0078 13.7086 76.6029 14.8103 76.6029ZM14.274 64.6465L14.2779 64.6643C14.2787 64.6676 14.2795 64.671 14.2804 64.6743C14.3383 65.1889 14.2015 65.7796 14.1317 66.2989L14.1222 66.3726C13.9755 67.5546 13.7819 68.7378 13.7187 69.9287C13.6571 71.0738 13.6808 72.2616 13.8184 73.4019L13.8389 73.5644C13.9198 74.1858 13.9679 74.9147 14.1778 75.5525C13.3708 75.6297 12.5638 75.8891 11.8301 76.1651C11.5669 76.265 11.3051 76.37 11.0445 76.4815C11.3709 74.7464 11.5454 72.9861 11.8996 71.2562L11.9693 70.9119C12.3544 68.9982 12.7158 67.0722 13.7111 65.3602C13.8439 65.1324 13.9869 64.9414 14.1488 64.7376C14.1842 64.6909 14.226 64.6605 14.274 64.6465Z" fill="black"/>
<path fill-rule="evenodd" clip-rule="evenodd" d="M36.214 43.6262C36.5146 39.7356 36.0488 35.6576 37.5483 31.9596C40.1628 25.8239 47.4942 23.7781 53.178 21.4421C55.455 20.769 63.1169 20.675 65.783 19.7841C71.8171 17.768 73.2588 15.3657 78.0534 19.2046C78.8628 19.8604 79.3691 20.5731 79.7385 21.5469L79.7233 21.5511C79.8288 21.957 79.7157 22.3621 79.4781 22.6715C81.557 24.7973 82.4269 27.9843 81.3602 30.8141C77.8794 38.1779 78.043 42.1595 79.1646 50.0759C80.6292 57.4664 77.2824 60.166 71.7397 64.1873C71.9654 64.625 72.0122 65.2068 71.7179 65.593C65.3086 74.6032 53.2237 78.9051 42.8693 74.3319C38.6663 72.4605 36.79 67.9827 35.7191 63.9424C34.4717 59.4184 34.0884 54.6513 35.104 50.0429C35.5136 47.9115 36.0472 45.7956 36.214 43.6262Z" fill="white"/>
<path fill-rule="evenodd" clip-rule="evenodd" d="M73.1845 0.52089C72.4065 0.40402 71.819 0.886897 71.5395 1.5675L71.5248 1.60415C71.435 1.83574 71.3351 2.06099 71.2275 2.28245C69.2807 1.32701 66.5028 1.57251 65.2707 3.50745C64.3915 4.88937 64.9279 6.52945 65.2593 7.99489L65.4769 8.96046C65.0563 9.22821 64.7391 9.70768 64.754 10.2042L64.7558 10.2424L64.8444 11.5889C64.5635 11.3042 64.3067 10.9941 64.0778 10.6638C63.9197 10.374 63.7489 10.0893 63.5655 9.8134C62.4864 8.18977 60.0639 9.6008 60.9545 11.3396C61.1253 11.6749 61.3176 11.9926 61.5238 12.2988C61.7565 12.7506 61.9475 13.215 62.0943 13.6921C61.673 13.8756 61.3492 14.2831 61.315 14.8982C61.2353 16.3345 61.9893 17.5329 63.1885 18.2859C63.5414 18.5073 63.9057 18.5504 64.2359 18.4681C64.2941 18.5466 64.3523 18.625 64.4079 18.7048C63.9298 19.0933 63.4984 19.5362 63.1278 20.0272C62.012 19.8601 60.89 19.7817 59.7679 19.7792C58.3967 19.1072 56.7547 19.1211 55.281 19.3729C54.3322 19.5349 53.4214 19.85 52.4879 20.0765C51.5037 20.3145 50.5044 20.3233 49.5088 20.4853C48.2539 20.689 47.1534 21.2686 46.4614 22.1937C45.7012 22.2165 44.9017 22.5278 44.2388 22.9505C42.6955 23.935 41.1611 24.9335 39.6216 25.9244C39.0308 26.3048 38.8098 26.9121 38.9185 27.5895L38.9258 27.6328L38.9777 27.9137L38.8559 28.0867C38.3848 28.7522 37.8721 29.4494 37.5672 30.184C37.003 30.9977 36.4932 31.8507 36.0416 32.7302C35.4332 33.9122 34.931 35.165 34.5907 36.4508C34.5059 36.776 34.4212 37.1037 34.3655 37.4353C34.2858 37.9035 34.4085 38.2667 34.4756 38.716C34.5591 39.2855 34.5894 39.8625 34.678 40.4333C34.7374 40.8116 35.0587 40.9977 35.3952 41.0078C35.2687 41.9708 35.1777 42.9402 35.0904 43.902C34.9677 45.2763 34.8842 46.6544 34.8121 48.0325C34.4402 48.5729 33.6799 49.0006 33.1309 49.1487C32.3706 49.3525 31.5737 49.131 30.8551 48.8716C30.4035 48.7083 30.0329 49.2765 30.253 49.6562C30.945 50.8483 32.425 50.8432 33.5458 50.3155C34.0202 50.0928 34.4364 49.7701 34.745 49.3499C34.726 49.7498 34.7058 50.1497 34.6856 50.5509L34.6667 50.9142C34.4388 55.1577 33.9468 59.5471 34.7438 63.7487C36.1239 71.0266 42.1443 76.5681 49.4987 76.9984C53.3579 77.2242 56.5717 76.0839 58.1698 75.4478C59.7679 74.8116 59.1468 73.5146 58.0374 73.8854C56.1262 74.5241 52.6153 75.4756 49.4734 75.0647C42.0681 74.0963 35.7886 70.3936 36.4338 54.4461C36.5253 52.1846 36.807 49.9219 36.8677 47.6605C36.9259 45.4497 36.9044 43.2376 37.0018 41.028L37.0343 40.2742C37.0723 39.3933 37.113 38.5083 37.1789 37.6264C37.2586 37.2847 37.3243 36.938 37.4218 36.6026C37.6861 35.6902 38.0315 34.8031 38.4603 33.9565C38.5552 34.0286 38.6614 34.0805 38.7766 34.1007C39.6507 34.2577 40.4704 34.2134 41.2889 33.8489C41.6709 33.6806 42.0074 33.4566 42.3211 33.1795C42.4704 33.0491 42.5703 32.9226 42.6487 32.791C43.0447 32.7973 43.4406 32.6783 43.6885 32.3936C43.9713 32.069 44.0184 31.7338 43.9076 31.4235L43.896 31.3926L43.9238 31.3825C44.2578 32.2468 44.9232 33.0074 45.6531 33.5211C46.8068 34.3361 48.2501 34.5715 49.634 34.593C51.1622 34.6158 52.7738 34.3804 54.2816 34.14C54.6801 34.0767 55.0761 34.0046 55.4644 33.9071C55.4796 33.9223 55.4948 33.94 55.5112 33.9552C56.8053 35.1941 58.6256 35.513 60.2676 34.8056C61.2164 34.3969 62.012 33.7388 62.7154 32.9846C62.7255 33.3794 62.7457 33.7742 62.7799 34.1653L62.794 34.3206C62.8641 35.0488 62.9988 35.8214 63.549 36.347C64.4383 37.1987 65.7286 36.857 66.7545 36.3027C66.7532 36.3293 66.7532 36.3571 66.7532 36.3849C66.4762 37.3265 66.1979 38.2693 65.9196 39.2121L65.8597 39.4129C65.6573 40.0823 65.4354 40.7526 65.3744 41.4533C65.258 42.7921 66.1486 44.1146 67.6362 43.6653C68.4165 43.4305 69.0417 42.7742 69.6415 42.2485L70.0195 41.9215C69.0416 45.1194 68.3636 48.4312 68.3003 51.7683C68.2965 51.9492 68.4521 52.0859 68.6242 52.0922C69.0264 52.1087 69.4591 52.029 69.8639 51.8683C69.8866 51.867 69.9094 51.8657 69.9335 51.8619C70.6241 51.762 71.2655 51.5126 71.8309 51.1444C71.7007 51.5582 71.6425 52.0024 71.6766 52.4668C71.6855 52.5795 71.8613 52.6187 71.8866 52.4947C72.213 50.8888 74.0915 49.6752 75.7107 49.9827C77.4488 50.313 78.729 51.8088 79.0427 53.5109C79.3792 55.3395 78.7353 57.4541 77.5424 58.8652C76.9934 59.5156 76.2711 60.0585 75.4134 60.1952C75.0213 60.2572 74.6139 60.2357 74.2332 60.1243C74.0713 60.0762 73.9195 60.0092 73.7651 59.9459C73.54 59.8548 73.2768 59.8409 73.0643 59.7447C72.5824 59.5283 72.0979 59.9725 72.342 60.4673C72.5545 60.8988 72.7455 61.1899 73.0985 61.4126C72.8126 61.7619 72.5533 62.2478 72.4571 62.3782C71.9663 63.0413 71.4679 63.6677 70.9088 64.2739C70.3395 64.8889 69.7184 65.4508 69.0619 65.9709L68.7859 66.189C68.1535 66.6908 67.6029 67.1557 67.1568 67.8755C66.8051 68.4437 67.2605 69.2144 67.9196 69.2055C69.9815 69.1764 71.4805 67.3642 72.5482 65.7811C72.7 65.5546 72.8429 65.3154 72.9758 65.0699C73.0238 65.1471 73.077 65.2192 73.1364 65.285L73.0188 65.6014C72.6696 66.5328 74.1737 67.1415 74.6101 66.2721C74.9277 65.6419 75.2958 65.042 75.7056 64.4751C75.9473 64.4409 76.1838 64.2941 76.3154 64.1043C76.6481 63.6221 77.0212 63.1349 77.3362 62.6211C77.5108 62.4554 77.6904 62.2959 77.8738 62.1403C77.927 62.1871 77.9814 62.2339 78.0332 62.2833C78.2635 62.8084 78.5481 63.2881 78.901 63.7398L78.9767 63.8362C79.6528 64.6887 80.5335 65.5612 81.6233 65.7697C81.956 65.833 82.276 65.4192 81.9813 65.1547C81.2185 64.4688 80.3166 64.0018 79.6132 63.2362C79.2667 62.859 78.9485 62.4436 78.6749 62.0082L78.6126 61.9074C78.5671 61.8327 78.5203 61.7581 78.4722 61.6821C78.7897 61.4657 79.1072 61.2481 79.4247 61.0304C80.2988 61.7775 81.4371 62.1192 82.4038 62.738L82.4999 62.8008C83.374 63.3855 84.295 62.0922 83.5942 61.3822C82.8216 60.6026 82.1767 59.6728 81.4924 58.8062C81.8142 58.2132 81.9665 57.512 82.0235 56.8033C82.0461 56.6027 82.0636 56.402 82.0812 56.2013C82.572 56.2089 83.0654 56.0406 83.4828 55.7508L83.641 55.6382C84.1482 55.8001 84.6808 55.8786 85.1906 55.8647C86.3898 55.8292 86.8806 54.4587 86.1305 53.5919C85.3652 52.706 84.0255 52.5124 82.9642 52.9427C82.93 52.9249 82.8946 52.906 82.8605 52.887C82.9111 52.6541 82.8998 52.4429 82.8422 52.2574L82.8589 52.1443C83.0923 51.786 83.2458 51.377 83.304 50.9448C83.35 50.6025 83.3407 50.2632 83.2615 49.9252C83.2352 49.8127 83.1804 49.6962 83.1385 49.5788C83.2248 49.3609 83.2755 49.1357 83.2912 48.9092C83.3154 48.8804 83.3394 48.8509 83.3622 48.819C83.8888 48.0794 83.7824 47.1881 83.2812 46.5895C83.2789 46.5514 83.2754 46.5133 83.2702 46.4755C83.2995 46.4094 83.3265 46.3427 83.351 46.2753C83.8407 45.7811 84.2002 45.1865 84.1332 44.4496C84.0938 44.016 83.9157 43.6257 83.6462 43.334C83.694 43.1925 83.6985 43.0287 83.6406 42.8919C84.0708 41.7471 84.0164 40.3683 83.7067 39.088C83.7751 38.8932 83.8105 38.6818 83.8029 38.4578C83.7675 37.5074 82.9452 36.6343 81.9712 36.6456C81.8539 36.6467 81.7441 36.662 81.6386 36.6844L81.6372 36.6617C81.5999 36.3765 81.5215 36.1129 81.407 35.8764C81.4633 35.856 81.5154 35.8267 81.5611 35.7879C82.1852 36.121 82.8457 36.3756 83.5381 36.5491C84.0473 36.6766 84.5688 36.0977 84.2523 35.6196C84.1055 35.3977 83.9434 35.1986 83.7689 35.0166C84.017 35.018 84.269 35.0348 84.5239 35.0676C84.9819 35.1271 85.4929 34.8145 85.7902 34.3918C86.1596 34.7512 86.5302 35.1093 86.9009 35.4675C87.8395 36.3774 89.2576 35.7079 89.4056 34.5082C89.6851 34.4336 89.9457 34.307 90.1747 34.126C91.6547 34.7689 93.2474 35.122 94.8754 35.1891C96.0443 35.2371 96.7274 33.8755 96.1809 32.9137C95.814 32.2683 95.3586 31.6887 94.8337 31.185C95.6483 31.4343 96.4895 31.614 97.3485 31.7292C97.8127 31.7912 98.4693 31.4065 98.6552 30.98C99.3661 29.34 99.3054 27.6303 98.487 26.0345C98.4553 25.9712 98.4199 25.9105 98.3858 25.8497C98.301 25.6384 98.2087 25.4296 98.1087 25.2246C99.1157 24.1742 99.203 22.6126 98.6603 21.3053C98.8779 20.9523 98.9613 20.5271 98.8133 20.1424C98.3921 19.035 97.7849 18.0125 97.0183 17.1343C97.0917 16.9925 97.1562 16.8419 97.2106 16.68C97.642 15.3702 97.1423 13.7896 96.1341 12.8772C95.5003 12.3026 94.7717 11.9584 93.9937 11.7382C93.6661 11.1586 93.2448 10.636 92.754 10.1956C92.735 10.1538 92.7161 10.1121 92.6946 10.0703C91.9305 8.63017 90.539 7.85822 89.0476 7.67978C88.9894 7.11664 88.6099 6.5788 88.0583 6.40416C87.9065 5.91695 87.6801 5.45125 87.3689 5.02857C86.8794 4.36293 86.066 4.04908 85.2994 4.48568C84.8794 4.72486 84.4771 4.99947 84.1002 5.30319C83.9308 5.22375 83.7389 5.17235 83.5223 5.15596L83.4677 5.15259L82.2204 5.08932C81.6979 4.85773 81.1768 4.61476 80.6543 4.37811C80.3406 4.11869 79.9902 3.90229 79.6082 3.74157C79.1755 3.5606 78.7328 3.4581 78.2888 3.42393C77.9282 3.30624 77.5652 3.20247 77.1958 3.12148C76.328 2.93165 75.4197 2.82535 74.5191 2.83421C74.5006 2.601 74.4915 2.365 74.4932 2.12621L74.495 2.00658C74.5153 1.24095 73.9043 0.629722 73.1845 0.52089ZM74.0586 61.7771C74.1826 61.8036 74.3078 61.8251 74.433 61.8403C74.3951 61.934 74.3571 62.0276 74.3205 62.1213C74.2193 62.1782 74.1168 62.2326 74.0143 62.2833C74.0447 62.1111 74.0624 61.9378 74.0586 61.7771ZM80.5578 59.845L80.6419 59.9999C80.6555 60.0253 80.6689 60.0503 80.6821 60.075C80.5038 60.0611 80.3241 60.0648 80.147 60.0851L80.1475 60.0662C80.1703 60.0585 80.1931 60.0514 80.2148 60.0408C80.337 59.9821 80.4506 59.9163 80.5578 59.845ZM77.0453 52.7769C75.9261 52.8421 74.9779 53.0138 73.9601 53.5035L73.8727 53.5463C72.9732 53.993 71.4856 54.8181 71.6108 56.0014C71.6463 56.338 71.8904 56.6923 72.275 56.6657C73.3287 56.5936 73.9308 55.5306 74.6443 54.8675C75.3641 54.1993 76.2483 53.5121 77.1199 53.0528C77.2431 52.9881 77.1946 52.7834 77.0605 52.7768L77.0453 52.7769ZM82.1204 37.1873C82.3886 37.1961 82.2988 37.4568 82.1609 37.2392C82.1495 37.2214 82.1356 37.2037 82.1204 37.1873ZM67.6443 19.784C70.1842 19.8508 72.7404 21.351 74.643 22.8675C76.2983 24.1867 77.7276 25.756 78.9932 27.4473C79.3188 28.2896 79.5984 29.1495 79.8346 30.0157C79.9902 30.5877 80.0876 31.1661 80.2179 31.7431L80.2584 31.92C80.3607 32.1114 80.4367 32.3173 80.4921 32.53C80.2615 32.7613 79.9624 32.927 79.6329 33.0056C79.5268 33.0309 79.4386 33.0857 79.3689 33.1583C79.1038 32.7157 78.8721 32.2484 78.7372 31.7531L78.7323 31.7302C78.2226 30.8951 77.669 30.086 77.0756 29.3045C75.4387 27.1469 73.6361 25.1803 71.4692 23.544C69.8259 22.3038 67.9891 21.3319 66.036 20.7004C66.514 20.3146 67.057 20.0093 67.6443 19.784Z" fill="black"/>
<path fill-rule="evenodd" clip-rule="evenodd" d="M40.6874 60.0867C40.6568 59.9908 40.5236 59.991 40.493 60.0867C40.215 60.9537 40.0517 61.8027 39.6365 62.618C39.5339 62.7236 39.4604 62.8566 39.4211 63.0003C39.2271 63.3226 39.0111 63.6286 38.7693 63.9182C38.4652 64.2827 38.244 64.625 38.4051 65.1225C38.4846 65.3676 38.6898 65.5244 38.9483 65.5362C39.6582 65.5683 40.0627 64.891 40.3138 64.1849C42.0706 64.7685 44.005 65.0989 45.8464 64.9538C47.3431 64.8356 48.9736 64.4605 50.3137 63.6959C50.3057 63.9847 50.2947 64.2737 50.2846 64.5629C50.2659 65.0977 50.122 65.683 50.1777 66.2082C50.2329 66.7293 50.5286 67.1325 51.0646 67.2132C51.5259 67.2826 52.097 66.9744 52.1869 66.4801C52.2911 65.9063 52.0981 65.5056 51.9393 64.9639C51.7991 64.4853 51.689 63.9963 51.5681 63.5125C51.4461 63.024 51.3463 62.5314 51.2559 62.0365C51.1896 61.6741 51.2374 61.2659 51.1091 60.9246C51.099 60.8979 51.0729 60.8788 51.0435 60.8873C50.361 61.0834 50.3223 62.1827 50.325 62.7725L50.3252 62.8016C50.3262 62.9218 50.3251 63.042 50.3238 63.1621L50.063 63.2192C48.6315 63.5291 47.241 63.7645 45.7358 63.6791C43.9701 63.579 42.4175 62.9332 40.7418 62.4906C40.881 61.6945 40.9237 60.826 40.6874 60.0867ZM46.5921 44.3985C45.8086 44.1301 44.9615 44.0033 44.1375 44.0439C42.3713 44.1313 40.6888 44.9371 39.5308 46.2799C38.4374 47.5476 37.8433 49.1374 37.851 50.8147C37.8593 52.5377 38.3117 54.4779 39.1636 55.9861C40.9534 59.1551 45.134 59.1771 48.1383 57.9136C51.3445 56.5654 52.6489 53.1651 51.8767 49.8777C51.296 47.4055 49.3154 44.439 46.5921 44.3985ZM41.3687 46.846C42.3147 46.0863 43.5059 45.745 44.7096 45.8313C45.3075 45.8742 45.9151 46.0313 46.4579 46.2865C46.7465 46.4222 47.0044 46.6116 47.2885 46.7529C47.5418 46.8786 47.8161 46.952 48.0774 47.0578L48.1748 47.0992C48.604 47.2911 49.0362 47.0166 49.0577 46.6166C49.9914 47.9271 50.4343 49.7042 50.4273 51.2808C50.4218 52.4417 50.1454 53.6478 49.4792 54.6143C48.7388 55.6886 47.5104 56.2553 46.2783 56.5562C45.0983 56.8444 43.8117 56.9444 42.6289 56.617C41.4012 56.2773 40.6082 55.3453 40.1568 54.1834C39.1777 51.6632 39.0969 48.6705 41.3687 46.846ZM45.5845 49.9711C45.0487 49.2395 44.0877 49.2007 43.5587 49.9711C43.2258 50.456 43.2747 50.9233 43.3011 51.4814L43.3062 51.6068C43.3219 52.0485 43.3198 52.5135 43.4852 52.9217C43.6976 53.4458 44.1104 53.7815 44.695 53.712C45.0393 53.6709 45.3275 53.4654 45.4948 53.1819L45.5006 53.1852C45.7351 52.7168 45.7956 52.2416 45.8352 51.7303L45.8625 51.3554C45.8957 50.8625 45.8974 50.3985 45.5845 49.9711Z" fill="black"/>
</svg>
